<?xml version="1.0" encoding="UTF-8" standalone="no"?>
<svg width="402px" height="528px" viewBox="0 0 402 528" version="1.1" xmlns="http://www.w3.org/2000/svg" xmlns:xlink="http://www.w3.org/1999/xlink" xmlns:sketch="http://www.bohemiancoding.com/sketch/ns">
    <!-- Generator: Sketch 3.2.2 (9983) - http://www.bohemiancoding.com/sketch -->
    <title>Slice 1</title>
    <desc>Created with Sketch.</desc>
    <defs></defs>
    <g id="Page-1" stroke="none" stroke-width="1" fill="none" fill-rule="evenodd" sketch:type="MSPage">
        <g id="data" sketch:type="MSLayerGroup">
            <rect id="Rectangle-path" fill="#FFFFFF" sketch:type="MSShapeGroup" x="0" y="0" width="378" height="504"></rect>
            <path d="M66,528 L402,528 L402,24 L66,24 L66,528 Z" id="Shape" fill="#FFFFFF" sketch:type="MSShapeGroup"></path>
            <path d="M296.3,364.2 L295.3,363.9 L293.7,362.8 L292.4,361.3 L292.4,361.2 L292.3,361.2 L292.3,361.1 L292.2,361 L292.2,360.9 L292.1,360.9 L292,360.8 L292,360.7 L291.9,360.7 L291.9,360.6 L291.8,360.6 L291.8,360.5 L291.7,360.4 L291.6,360.4 L291.5,360.3 L291.4,360.3 L291.4,360.2 L291.3,360.1 L289.7,358.9 L288.7,357.2 L288.1,355.3 L288.1,354.7 L288.4,352.4 L289.5,350.3 L291.1,348.8 L291.2,348.7 L291.3,348.7 L291.4,348.6 L291.5,348.5 L291.6,348.5 L291.6,348.4 L291.7,348.4 L291.7,348.3 L291.8,348.3 L291.8,348.2 L291.9,348.2 L291.9,348.1 L292,348.1 L292,348 L292.1,347.9 L292.1,347.8 L292.2,347.7 L292.3,347.6 L292.3,347.5 L292.4,347.5 L292.4,347.4 L292.4,347.3 L292.5,347.3 L292.5,347.2 L292.5,347.1 L292.6,346.9 L292.6,346.8 L292.6,346.7 L292.7,346.6 L292.7,346.5 L292.7,346.4 L292.7,346.3 L292.7,346.2 L292.7,346.1 L292.7,346 L292.7,345.8 L292.7,345.7 L292.7,345.6 L292.7,345.5 L292.7,345.4 L292.7,345.3 L292.6,345.2 L292.6,345.1 L292.6,345 L292.5,344.8 L292.5,344.7 L292.4,344.6 L292.4,344.5 L292.4,344.4 L292.3,344.4 L292.3,344.3 L291.5,342.2 L291.5,341.6 L291.4,341.5 L291.4,341.4 L291.4,341.3 L291.4,341.2 L291.4,341.1 L291.4,341 L291.3,340.9 L291.3,340.8 L291.3,340.7 L291.3,340.6 L291.2,340.6 L291.2,340.5 L291.2,340.4 L291.1,340.4 L291.1,340.3 L291.1,340.2 L291,340.2 L291,340.1 L290.9,340 L290.9,339.9 L290.8,339.9 L290.8,339.8 L290.7,339.7 L290.6,339.6 L290.6,339.5 L290.5,339.5 L290.4,339.4 L290.4,339.3 L290.3,339.3 L289.1,337.8 L288.3,336.1 L288.1,334.3 L288.2,333.2 L288.2,333.1 L288.2,333 L288.2,332.9 L288.2,332.8 L288.2,332.7 L288.2,332.5 L288.2,332.4 L288.2,332.3 L288.2,332.2 L288.2,332.1 L288.2,332 L288.1,331.5 L288.1,331.4 L288.1,331.3 L288.1,331.2 L288,331.1 L288,331 L288,330.9 L288,330.8 L288,330.7 L287.9,330.6 L287.9,330.5 L287.8,330.4 L287.8,330.3 L287.7,330.2 L287.7,330.1 L287.6,330 L287.6,329.9 L287.5,329.9 L287.5,329.8 L287.4,329.7 L287.4,329.6 L287.3,329.6 L287.3,329.5 L287.2,329.5 L287.1,329.4 L287.1,329.3 L287,329.2 L286.9,329.2 L285.5,327.3 L284.8,325 L284.8,323.1 L285.5,321 L285.6,320.9 L287.5,320.8 L296.7,321.9 L305.5,327.6 L307.8,332.9 L307.9,341.4 L305,353.4 L299.5,359.2 L298.1,357 L295.4,355.8 L298.8,361.1 L297.2,363.8 L296.3,364.2 Z M292.1,384.2 L291.4,381.5 L291.4,381.4 L301.7,379.3 L302.8,381.4 L302.2,388.1 L298,390.3 L296.7,389.3 L295.4,387.6 L295.4,387.3 L294.6,387 L293.1,385.8 L292.1,384.2 Z M259.6,341.2 L261.7,341 L263.7,341.5 L264.7,342.1 L264.6,340.8 L264.9,338.8 L265,338.5 L265.9,337 L267.6,335.4 L269.6,334.5 L271.9,334.3 L273.9,334.8 L275.5,335.8 L276.9,337.3 L277.7,339 L278,341 L277.7,343 L276.8,344.8 L275.3,346.4 L273.2,347.4 L270.9,347.7 L268.8,347.3 L267.8,346.6 L267.9,347.9 L267.5,350 L266.2,352.2 L264.2,353.7 L261.2,354.4 L259.3,354.2 L257.5,353.3 L256.1,352.1 L255,350.4 L254.5,347.8 L254.5,347.7 L254.8,345.5 L255.9,343.6 L257.6,342.1 L259.6,341.2 Z M254.3,294 L254.7,294 L255.3,294.1 L254.8,294.2 L254.3,294 Z" id="Shape" fill="#C2B855" sketch:type="MSShapeGroup"></path>
        </g>
    </g>
</svg>