<?xml version="1.0" encoding="UTF-8"?>
<svg xmlns="http://www.w3.org/2000/svg" xmlns:xlink="http://www.w3.org/1999/xlink" width="378pt" height="504pt" viewBox="0 0 378 504" version="1.1">
<g id="data">
<rect x="0" y="0" width="378" height="504" style="fill:rgb(100%,100%,100%);fill-opacity:1;stroke:none;"/>
<path style=" stroke:none;fill-rule:nonzero;fill:rgb(100%,100%,100%);fill-opacity:1;" d="M 21 504L357 504L357 0L21 0 Z M 21 504 "/>
<path style=" stroke:none;fill-rule:nonzero;fill:rgb(77.6%,78.8%,62.3%);fill-opacity:1;" d="M 187.1 250.5L187.1 250.5L187.2 250.4L187.2 250.4L187.2 250.3L187.2 250.3L187.2 250.2L187.2 250.2L187.2 250.2L187.2 250.1L187.2 250.0L187.3 250.0L187.3 250.0L187.3 249.9L187.3 249.9L187.3 249.9L187.3 249.8L187.3 249.8L187.3 249.8L187.3 249.7L187.3 249.6L187.3 249.6L187.4 249.2L187.4 249.1L187.4 249.1L187.4 249.0L187.4 248.9L187.4 248.9L187.4 248.8L187.4 248.8L187.4 248.6L187.4 248.6L187.4 248.6L187.4 248.5L187.4 248.4L187.4 248.4L187.4 248.4L187.4 248.3L187.4 248.2L187.4 248.2L187.4 248.1L187.4 248.1L187.4 248.1L187.4 248.0L187.3 247.9L187.3 247.9L187.4 245.8L187.4 245.8L187.4 245.7L187.4 245.7L187.4 245.6L187.4 245.6L187.4 245.5L187.4 245.5L187.4 245.5L187.4 245.4L187.4 245.4L187.4 245.3L187.4 245.2L187.4 245.2L187.4 245.2L187.4 245.1L187.4 245.0L187.4 245.0L187.4 245.0L187.4 244.9L187.4 244.8L187.4 244.8L187.4 244.7L187.4 244.7L187.4 244.6L187.3 243.6L187.3 242.6L187.5 241.8L188.3 240.0L189.5 238.6L191.1 237.5L192.9 236.9L194.7 236.9L195.1 236.9L195.1 236.9L195.2 236.9L195.2 236.9L195.3 236.9L195.4 237.0L195.4 237.0L195.5 237.0L195.5 237.0L195.5 237.0L195.6 237.0L195.8 237.0L195.8 237.0L195.8 237.0L195.9 237.0L195.9 237.0L196.1 236.9L196.1 236.9L196.2 236.9L196.2 236.9L196.3 236.9L197.3 236.8L197.5 236.8L197.7 236.8L197.8 236.8L197.8 236.8L198.0 236.8L198.1 236.8L198.1 236.8L198.1 236.8L198.2 236.8L198.2 236.8L198.3 236.8L198.3 236.8L198.3 236.8L198.4 236.8L198.4 236.8L198.4 236.8L198.5 236.8L198.5 236.8L198.6 236.8L198.6 236.8L198.7 236.8L198.7 236.8L198.7 236.7L198.8 236.7L198.8 236.7L198.8 236.7L198.9 236.7L198.9 236.7L199.1 236.7L199.1 236.6L199.2 236.6L199.2 236.6L199.3 236.6L199.4 236.5L199.4 236.5L199.4 236.5L199.5 236.5L199.5 236.5L199.5 236.4L199.6 236.4L199.6 236.4L199.6 236.4L199.8 236.3L199.8 236.3L199.8 236.2L199.9 236.2L199.9 236.2L199.9 236.2L200.0 236.2L200.0 236.1L200.0 236.1L200.1 236.1L200.1 236.1L200.1 236.0L200.2 236.0L200.2 235.9L200.2 235.9L200.3 235.9L200.3 235.8L200.4 235.8L200.4 235.8L200.4 235.8L200.4 235.7L200.5 235.7L200.5 235.6L200.5 235.6L200.6 235.6L200.6 235.6L200.6 235.5L200.6 235.5L200.7 235.4L200.7 235.4L200.7 235.3L200.7 235.3L200.8 235.2L200.9 235.1L200.9 235.1L200.9 235.1L200.9 235.0L200.9 235.0L200.9 235.0L201.0 234.9L201.0 234.9L201.0 234.8L201.0 234.8L201.1 234.7L201.1 234.7L201.1 234.6L201.1 234.6L201.1 234.5L201.1 234.5L201.1 234.4L201.2 234.4L201.2 234.4L201.2 234.3L201.2 234.3L201.2 234.2L201.2 234.2L201.2 234.1L201.2 234.0L201.2 234.0L201.3 234.0L201.3 233.9L201.3 233.9L201.3 233.9L201.3 233.8L201.3 233.8L201.3 233.8L201.3 233.7L201.3 233.7L201.3 233.6L201.3 233.6L201.3 233.4L201.3 233.3L201.3 233.3L201.3 233.3L201.3 233.2L201.3 233.2L201.3 233.1L201.3 233.0L201.3 233.0L201.3 233.0L201.2 232.9L201.2 232.9L201.2 232.9L201.2 232.8L201.2 232.8L201.2 232.7L201.2 232.6L201.2 232.6L201.2 232.6L201.2 232.5L201.1 232.5L201.1 232.4L201.1 232.4L201.1 232.3L200.7 230.3L200.7 230.3L200.8 229.0L200.8 229.0L200.8 228.9L200.8 228.8L200.8 228.8L200.8 228.7L200.8 228.7L200.8 228.7L200.8 228.6L200.8 228.6L200.8 228.6L200.8 228.3L200.8 228.3L200.8 228.2L200.8 228.2L200.8 228.2L200.8 228.1L200.8 228.1L200.8 228.0L200.8 228.0L200.8 227.9L200.8 227.8L200.7 227.1L200.7 227.0L200.8 225.7L200.8 225.6L200.8 225.6L200.8 225.5L200.8 225.5L200.8 225.4L200.8 225.3L200.8 225.3L200.8 225.3L200.8 225.2L200.8 225.2L200.8 224.9L200.8 224.9L200.8 224.9L200.8 224.8L200.8 224.8L200.8 224.8L200.8 224.7L200.8 224.7L200.8 224.7L200.8 224.6L200.8 224.5L200.8 224.5L200.7 223.4L201.1 221.2L202.2 219.2L203.9 217.7L205.0 217.1L205.1 217.1L205.1 217.1L205.2 217.1L205.2 217.0L205.3 217.0L205.3 217.0L205.4 217.0L205.4 216.9L205.4 216.9L205.5 216.9L205.5 216.9L205.6 216.9L205.6 216.8L205.6 216.8L205.7 216.8L205.7 216.8L205.7 216.8L205.8 216.7L205.8 216.7L205.9 216.7L205.9 216.7L205.9 216.6L206.0 216.6L206.0 216.6L206.0 216.5L206.1 216.5L206.1 216.5L206.2 216.4L206.2 216.4L206.2 216.4L206.4 216.2L206.4 216.2L206.4 216.2L206.5 216.1L206.5 216.1L206.5 216.0L206.5 216.0L206.6 216.0L206.6 216.0L206.6 215.9L206.6 215.9L206.7 215.9L206.7 215.8L206.7 215.8L206.8 215.7L206.8 215.7L206.8 215.6L206.8 215.6L206.8 215.6L206.9 215.5L206.9 215.5L206.9 215.5L206.9 215.4L207.0 215.3L207.0 215.3L207.0 215.2L207.0 215.1L207.0 215.1L207.1 215.1L207.1 215.0L207.1 215.0L207.1 214.9L207.1 214.9L207.1 214.9L207.1 214.8L207.1 214.8L207.2 214.7L207.2 214.6L207.2 214.6L207.2 214.5L207.2 214.5L207.2 214.5L207.2 214.4L207.2 214.4L207.2 214.3L207.2 214.2L207.3 214.2L207.3 214.1L207.3 214.1L207.3 214.0L207.3 214.0L207.3 213.9L207.3 213.8L207.3 213.8L207.3 213.7L207.2 213.7L207.2 213.6L207.2 213.5L207.2 213.5L207.2 213.4L207.2 213.4L207.2 213.4L207.2 213.3L207.2 213.3L207.2 213.2L207.2 213.1L207.1 213.1L207.1 213.1L207.1 213.0L207.1 213.0L207.0 212.8L207.0 212.7L207.0 212.7L207.0 212.7L207.0 212.6L207.0 212.6L206.9 212.5L206.9 212.5L206.9 212.4L206.9 212.4L206.9 212.4L206.8 212.3L206.8 212.3L206.8 212.3L206.8 212.2L206.7 212.2L206.6 211.8L206.2 211.5L206.2 211.5L204.8 209.6L204.4 208.1L205.4 206.5L209.4 206.6L220.9 213.7L226.4 222.4L230.3 224.4L233.0 240.5L235.9 247.0L237.8 254.9L240.7 259.1L253.8 265.3L258.0 273.6L260.7 276.5L264.9 278.8L262.7 280.0L261.9 282.5L264.0 288.1L270.2 296.8L269.7 299.1L269.5 297.1L267.7 296.3L265.1 297.0L260.9 293.0L254.8 294.2L252.9 293.4L251.0 294.5L255.4 295.0L260.3 293.8L262.4 296.8L270.5 302.5L272.5 305.2L275.1 311.3L275.3 316.5L267.8 324.8L269.7 324.4L273.3 327.7L276.1 328.3L280.0 321.2L287.5 320.8L296.7 321.9L305.5 327.6L307.8 332.9L307.9 341.4L305.0 353.4L299.5 359.2L298.1 357.0L295.4 355.8L298.8 361.1L297.2 363.8L293.3 365.4L291.7 363.4L285.2 367.6L286.6 368.6L290.6 366.7L291.2 371.6L287.6 374.8L284.3 374.5L280.1 375.9L278.2 377.9L281.7 376.4L285.5 376.9L286.1 378.1L284.2 378.1L282.4 379.3L282.9 380.0L290.6 381.6L301.7 379.3L302.8 381.4L302.2 388.1L294.3 392.3L292.8 394.4L292.8 396.8L288.2 396.8L285.5 399.4L278.2 401.9L275.7 404.6L263.9 401.7L254.0 403.6L251.1 405.7L248.4 404.0L249.5 402.9L248.0 401.5L242.6 401.4L243.5 402.8L242.8 403.9L238.4 403.4L232.2 405.9L224.1 406.4L221.6 405.6L220.7 407.1L223.7 408.1L223.6 410.7L221.2 411.1L213.2 409.0L211.5 410.6L212.2 412.7L206.9 407.8L200.7 405.5L193.0 407.6L188.4 410.1L183.0 423.9L181.4 424.8L179.1 424.4L176.0 420.7L173.5 421.3L170.6 418.1L165.7 418.5L163.2 419.9L156.5 420.2L154.1 423.1L149.5 425.1L149.0 429.9L146.5 431.2L145.6 433.0L143.5 428.7L139.2 426.4L137.6 426.8L136.8 429.1L133.3 428.8L133.9 425.1L138.8 423L140.4 423.9L149.7 415.8L150.8 411.2L156.4 409.6L157.4 406.9L162.1 402.6L163.1 394.1L168.3 394.7L170.6 392.1L170.3 387.8L180.5 386.2L187.1 386.9L189.9 388.6L198.4 387.8L200.1 381.5L213.6 366.8L207.1 372.6L205.9 373.9L196.6 377.1L194.9 380.7L189.8 381.2L186.1 380.1L179.8 371.9L171.2 375.0L169.5 374.0L169.3 372.0L173.4 371.3L174.4 369.7L170.0 369.5L166.1 367.2L162.9 367.2L160.5 367.7L159.6 370.2L156.0 370.4L154.1 372.1L151.6 371.0L152.4 369.2L156.2 367.7L155.7 366.4L155.2 367.6L152.7 367.9L147.2 366.7L150.7 365.0L150.2 362.2L147.2 361.4L147.7 359.8L151.1 358.2L151.6 356.9L157.3 356.4L161.2 352.3L165.2 352.2L171.4 348.2L173.8 345.1L175.6 339.5L174.2 335.0L176.0 330.8L173.9 327.7L174.4 323.4L168.0 324.3L165.1 327.6L160.0 327.6L163.4 323.2L169.5 318.9L170.2 315.9L173.3 312.5L181.0 309.7L187.0 310.0L192.7 307.7L197.9 311.5L198.3 310.6L195.9 306.3L198.7 305.4L202.8 310.1L205.2 309.9L206.9 307.7L203.5 308.8L201.3 307.3L197.9 300.1L200.9 294.8L202.7 293.8L199.3 292.2L199.3 286.9L202.0 285.2L204.3 280.3L204.8 275.1L197.3 280.3L195.6 279.6L191.8 272.9L191.3 270.2L187.0 264.0L192.8 250.2L194.9 248.2L198.8 248.4L200.5 248.0L200.6 247.1L188.8 246.1L187.7 250.4 Z M 162.6 309.1L162.7 309.1L162.7 309.0L162.7 309.0L162.8 309.0L162.8 309.0L162.8 308.9L162.8 308.9L162.9 308.9L162.9 308.8L162.9 308.8L163.0 308.8L163.0 308.7L163.0 308.7L163.1 308.7L163.1 308.6L163.1 308.6L163.1 308.6L163.1 308.5L163.2 308.5L163.2 308.4L163.2 308.4L163.3 308.3L163.3 308.3L163.3 308.3L163.3 308.2L163.4 308.2L163.4 308.2L164.6 308.8L164.8 311.0L162.6 309.3 Z M 141.3 163.4L143.0 162.9L145.0 163.1L146.2 163.5L144.3 165.2L142.5 167.6L140.8 168.1L140.4 166.9L141.8 164.1 Z M 152.4 165.5L152.4 165.5L152.4 165.5L152.5 165.4L152.5 165.4L152.5 165.4L152.6 165.4L152.6 165.3L152.7 165.3L152.7 165.3L152.8 165.3L152.8 165.2L152.8 165.2L152.8 165.2L152.9 165.2L152.9 165.1L153.0 165.1L153.0 165.0L153.1 165.0L153.1 165.0L153.1 164.9L153.1 164.9L153.2 164.9L153.2 164.9L153.2 164.8L153.3 164.8L153.3 164.7L153.3 164.7L153.4 164.7L153.4 164.6L153.4 164.6L153.4 164.6L153.5 164.5L153.5 164.5L153.5 164.5L153.6 164.4L153.6 164.3L153.6 164.3L153.7 164.2L153.7 164.2L153.7 164.2L153.7 164.1L153.7 164.1L153.8 164.1L153.8 164.0L153.8 164.0L153.8 164.0L153.8 163.9L153.8 163.9L153.8 163.9L153.9 163.8L153.9 163.8L153.9 163.8L153.9 163.7L154.0 163.5L154.0 163.5L154.0 163.4L154.0 163.4L154.0 163.3L154.0 163.3L154.1 163.2L154.1 163.2L154.1 163.1L154.1 163.1L154.1 163.1L154.1 163.0L154.1 163.0L154.1 162.9L154.1 162.9L154.1 162.9L154.1 162.8L154.1 162.8L154.1 162.8L154.1 162.7L154.1 162.7L154.1 162.4L154.1 162.4L154.1 162.3L154.1 162.3L154.1 162.3L154.1 162.2L154.1 162.2L154.1 162.1L154.1 162.1L154.1 162.1L154.1 162.0L154.1 162.0L154.1 161.9L154.1 161.9L154.1 161.9L154.0 161.8L154.0 161.8L154.0 161.7L154.0 161.7L154.0 161.7L154.0 161.6L154.0 161.5L153.7 159.7L153.7 159.5L154.0 157.4L155.1 155.5L156.6 154.0L156.7 153.9L156.7 153.9L156.8 153.9L156.8 153.9L156.8 153.8L156.9 153.8L156.9 153.8L156.9 153.8L156.9 153.8L157.0 153.7L157.0 153.7L157.1 153.7L157.1 153.6L157.1 153.6L157.1 153.6L157.2 153.5L157.3 153.4L157.3 153.4L157.3 153.4L157.4 153.3L157.4 153.3L157.4 153.3L157.5 153.2L157.5 153.2L157.5 153.2L157.5 153.1L157.6 153.1L157.6 153.0L157.6 153.0L157.7 152.8L157.7 152.8L157.8 152.8L157.8 152.7L157.8 152.7L157.8 152.7L157.8 152.6L157.9 152.6L157.9 152.5L157.9 152.5L157.9 152.4L157.9 152.4L158.0 152.3L158.0 152.3L158.0 152.3L158.0 152.2L158.0 152.2L158.0 152.2L158.0 152.1L158.0 152.1L158.0 152.1L158.1 152.0L158.1 152.0L158.1 152.0L158.1 151.9L158.1 151.9L158.1 151.9L158.1 151.8L158.1 151.7L158.1 151.7L158.1 151.7L158.1 151.6L158.1 151.6L158.2 151.5L158.2 151.5L158.2 151.4L158.2 151.4L158.2 151.4L158.2 151.3L158.2 151.3L158.2 151.0L158.2 151.0L158.2 150.9L158.2 150.9L158.2 150.9L158.2 150.8L158.2 150.8L158.1 150.7L158.1 150.7L158.1 150.7L158.1 150.6L158.1 150.6L158.1 150.6L158.1 150.5L158.1 150.5L158.1 150.5L158.1 150.4L158.1 150.3L158.1 150.3L158.0 150.2L158.0 150.2L158.0 150.1L158.0 150.1L158.0 150.1L158.0 150L157.9 149.9L157.9 149.9L157.9 149.8L157.9 149.8L157.9 149.8L157.9 149.7L157.9 149.7L157.8 149.7L157.8 149.6L157.8 149.6L157.8 149.6L157.8 149.5L157.7 149.5L157.7 149.5L157.7 149.5L157.7 149.4L157.6 149.3L157.6 149.2L157.5 149.2L157.5 149.2L157.5 149.1L157.5 149.1L157.5 149.1L157.4 149.1L157.4 149.0L157.4 149.0L157.3 148.9L157.3 148.9L157.2 148.8L157.2 148.7L157.1 148.7L157.1 148.7L157.0 148.6L157.0 148.6L157.0 148.6L156.9 148.5L156.9 148.5L156.9 148.5L156.9 148.5L156.8 148.5L156.8 148.4L156.8 148.4L156.7 148.4L156.7 148.4L156.6 148.3L154.6 146.2L154.6 146.2L154.1 145.1L153.7 143.0L153.7 142.4L154.2 140.2L155.4 138.3L157.1 136.9L158.1 136.5L160.7 138.1L159.9 136.1L160.4 136.0L160.4 136.0L160.5 136.0L160.5 136.0L160.6 136.0L160.6 136.0L160.6 136.0L160.7 136.0L160.7 136.0L160.8 136.0L160.8 136.0L160.8 136.0L160.9 136.0L160.9 136.0L160.9 136.0L161.0 136.0L161.1 136.0L161.1 136.0L161.1 135.9L161.2 135.9L161.2 135.9L161.2 135.9L161.3 135.9L161.3 135.9L161.3 135.9L161.4 135.9L161.5 135.9L161.5 135.8L161.6 135.8L161.6 135.8L161.6 135.8L161.7 135.8L161.7 135.8L161.7 135.8L161.8 135.7L161.8 135.7L161.9 135.7L161.9 135.7L162.0 135.6L162.0 135.6L162.1 135.6L162.1 135.6L162.2 135.5L162.2 135.5L162.3 135.4L162.3 135.4L162.4 135.4L162.4 135.3L162.5 135.3L162.5 135.3L162.5 135.3L162.5 135.2L162.6 135.2L162.6 135.2L162.6 135.2L162.7 135.1L162.7 135.1L162.7 135.1L162.7 135.1L162.8 135.0L162.9 134.9L162.9 134.9L162.9 134.9L162.9 134.9L163.0 134.8L163.0 134.8L163.0 134.7L163.1 134.7L163.1 134.7L163.1 134.6L163.1 134.6L163.2 134.6L163.2 134.5L163.3 134.4L163.3 134.3L163.3 134.3L163.3 134.3L163.4 134.2L163.4 134.2L163.4 134.2L163.4 134.1L163.4 134.1L163.4 134.1L163.5 134.0L163.5 134.0L163.5 133.9L163.5 133.9L163.5 133.9L163.6 133.6L163.6 133.6L163.6 133.5L163.6 133.5L163.7 133.4L163.7 133.4L163.7 133.3L163.7 133.3L163.7 133.2L163.7 133.2L163.7 133.1L163.7 133.1L163.7 133.1L163.7 133.0L163.7 133.0L163.7 133.0L163.7 132.9L163.7 132.9L163.7 132.9L163.7 132.8L163.7 132.8L163.7 132.6L163.8 132.6L164.5 129.7L165.7 127.9L167.5 126.7L169.7 126.0L171.1 126.0L173.1 126.5L174.9 127.6L175.0 127.7L175.0 127.7L175.1 127.8L175.1 127.8L175.1 127.8L175.2 127.8L175.2 127.9L175.2 127.9L175.3 127.9L175.3 127.9L175.5 128.1L175.5 128.1L175.6 128.1L175.6 128.1L175.7 128.1L175.7 128.2L175.7 128.2L175.8 128.2L175.8 128.2L175.8 128.2L175.9 128.2L175.9 128.3L176.0 128.3L176.0 128.3L176.0 128.3L176.1 128.3L176.1 128.3L176.1 128.3L176.2 128.4L176.2 128.4L176.3 128.4L176.3 128.4L176.3 128.4L176.4 128.4L176.5 128.4L176.5 128.4L176.5 128.4L176.6 128.5L176.6 128.5L176.7 128.5L176.7 128.5L176.8 128.5L176.9 128.5L176.9 128.5L177.0 128.5L177.0 128.5L177.3 128.5L177.4 128.5L177.5 128.5L177.5 128.5L177.5 128.5L177.6 128.5L177.6 128.5L177.6 128.5L177.7 128.5L177.7 128.5L177.7 128.5L177.8 128.5L177.9 128.4L177.9 128.4L178.0 128.4L178.0 128.4L178.0 128.4L178.1 128.4L178.1 128.4L178.2 128.4L178.2 128.4L178.2 128.3L178.3 128.3L178.3 128.3L178.4 128.3L178.4 128.3L178.4 128.3L178.5 128.3L178.5 128.3L178.5 128.2L178.6 128.2L178.6 128.2L178.6 128.2L178.7 128.2L178.7 128.2L178.8 128.1L178.8 128.1L178.8 128.1L178.9 128.1L178.9 128.1L179.1 127.9L179.1 127.9L179.1 127.9L179.2 127.9L179.2 127.8L179.2 127.8L179.3 127.8L179.3 127.8L179.3 127.8L179.3 127.7L179.4 127.7L179.4 127.7L179.5 127.6L181.4 126.5L183.5 126.0L183.9 126L186.0 126.3L187.8 127.2L189.3 128.7L189.9 129.7L182.9 135.2L182.4 138.3L180.3 138.9L175 136.7L175.8 138.4L181.8 140.3L185.2 140.3L187.2 138.8L183.0 144.7L181.9 143.4L180.6 143.6L176.6 145.3L174.1 148.0L173.8 149.1L177.5 145.9L180.9 145.8L181.5 146.7L178.1 150.6L177.8 152.3L187.4 147.5L190.6 147.1L192.8 144.5L196.8 144.0L201.7 146.4L204.6 144.8L214.1 146.3L214.1 147.2L214.1 147.3L214.0 147.3L214.0 147.3L214.0 147.4L214.0 147.5L214.0 147.5L214.0 147.6L214.0 147.6L214.0 147.6L214.0 147.7L214.0 147.9L214.0 148.0L214.0 148.0L214.0 148.0L214.0 148.1L214.0 148.2L214.0 148.2L214.0 148.3L214.1 148.3L214.1 148.4L214.1 148.9L214.1 148.9L214.1 150.2L213.6 152.2L212.5 153.9L211.0 155.2L210.9 155.2L210.8 155.3L210.8 155.3L210.8 155.3L210.7 155.3L210.7 155.4L210.7 155.4L210.6 155.4L210.6 155.4L210.6 155.5L210.5 155.5L210.5 155.5L210.5 155.6L210.4 155.6L210.3 155.8L210.2 155.8L210.2 155.8L210.1 155.9L210.1 155.9L210.0 156.0L210.0 156.0L210.0 156.1L210.0 156.1L209.9 156.1L209.9 156.2L209.9 156.2L209.8 156.3L209.8 156.4L207.6 158.6L207.5 158.6L207.5 158.6L207.5 158.6L207.4 158.6L207.4 158.7L207.4 158.7L207.4 158.7L207.3 158.7L207.3 158.8L207.3 158.8L207.2 158.8L207.2 158.8L207.2 158.8L207.2 158.9L207.0 159.0L206.9 159.1L206.9 159.1L206.9 159.1L206.8 159.2L206.7 159.4L206.7 159.4L206.6 159.4L206.6 159.5L206.6 159.5L206.5 159.5L206.5 159.6L206.5 159.6L206.4 159.7L205.3 161.1L203.8 162.2L202.0 162.8L201.0 162.9L201.0 162.9L199.2 162.7L199.1 162.7L199.1 162.7L199.0 162.7L198.9 162.7L198.9 162.7L198.9 162.7L198.8 162.7L198.8 162.7L198.7 162.7L198.6 162.6L198.6 162.6L198.6 162.6L198.5 162.6L198.5 162.6L198.4 162.6L198.4 162.6L198.3 162.6L198.2 162.6L198.2 162.6L198.2 162.6L198.1 162.6L198.1 162.7L198.1 162.7L198.0 162.7L198.0 162.7L197.9 162.7L197.9 162.7L197.9 162.7L197.8 162.7L197.8 162.7L197.8 162.7L197.7 162.7L197.6 162.7L197.5 162.7L197.5 162.8L197.5 162.8L197.4 162.8L197.4 162.8L197.4 162.8L197.3 162.8L197.2 162.8L197.2 162.9L197.2 162.9L197.1 162.9L197.1 162.9L197.1 162.9L197.0 162.9L197.0 162.9L197.0 163.0L196.9 163.0L196.9 163.0L196.9 163.0L196.8 163.0L196.8 163.1L196.7 163.1L196.7 163.1L196.5 163.2L196.5 163.2L196.4 163.3L196.4 163.3L196.4 163.3L196.4 163.3L196.3 163.3L196.3 163.4L196.2 163.4L196.2 163.4L196.2 163.5L196.2 163.5L196.1 163.5L196.1 163.6L196.0 163.6L196.0 163.7L195.9 163.7L195.9 163.7L195.9 163.7L195.9 163.8L195.8 163.8L195.8 163.9L194.0 165.4L191.8 166.2L190.8 166.3L190.6 166.3L190.6 166.3L190.5 166.3L190.4 166.3L190.4 166.3L190.3 166.3L190.3 166.3L190.2 166.3L190.2 166.3L190.1 166.3L190.1 166.3L190.1 166.3L190.0 166.3L190.0 166.3L190.0 166.3L189.9 166.4L189.9 166.4L189.8 166.4L189.8 166.4L189.7 166.4L189.7 166.4L189.6 166.4L189.5 166.5L189.5 166.5L189.4 166.5L189.4 166.5L189.4 166.5L189.3 166.5L189.3 166.5L189.3 166.6L189.2 166.6L189.2 166.6L189.1 166.6L189.1 166.6L189.1 166.7L189.0 166.7L189.0 166.7L188.9 166.8L188.8 166.8L188.8 166.8L188.7 166.9L188.7 166.9L188.7 166.9L188.6 166.9L188.6 166.9L188.6 167.0L188.6 167.0L188.5 167.0L188.5 167.0L188.5 167.1L188.4 167.1L188.4 167.1L188.3 167.2L188.3 167.2L188.3 167.3L188.2 167.3L188.2 167.3L188.1 167.4L188.1 167.4L188.1 167.5L188.0 167.5L188.0 167.5L188.0 167.6L188.0 167.6L187.9 167.6L187.9 167.6L187.9 167.7L187.9 167.7L187.9 167.7L187.8 167.8L187.8 167.8L187.8 167.8L187.7 168.0L187.7 168.0L187.7 168.1L187.6 168.1L187.6 168.1L187.6 168.2L187.6 168.2L187.6 168.2L187.6 168.3L187.5 168.3L187.5 168.3L187.5 168.4L187.5 168.4L187.5 168.4L187.5 168.5L187.5 168.5L187.4 168.6L187.4 168.7L187.4 168.7L187.4 168.8L187.4 168.8L187.4 168.9L187.4 168.9L187.3 169.0L187.3 169.0L187.3 169.1L187.3 169.1L187.3 169.1L187.3 169.2L187.3 169.2L187.3 169.3L187.3 169.3L187.3 169.3L187.3 169.4L187.3 169.4L187.3 169.4L187.3 169.5L187.3 169.6L187.3 169.6L187.3 169.7L187.3 169.9L187.3 169.9L186.9 171.9L185.9 173.7L184.5 175.1L182.7 176.0L180.7 176.4L180.7 176.4L179.5 176.3L177.4 175.6L175.7 174.3L175.6 174.2L175.6 174.2L175.5 174.1L175.5 174.1L175.5 174.1L175.5 174.0L175.4 174.0L175.4 174.0L175.3 173.9L175.3 173.9L175.3 173.9L175.2 173.9L175.2 173.8L175.1 173.8L175.1 173.8L175.1 173.7L175.1 173.7L174.9 173.6L174.8 173.6L174.8 173.6L174.8 173.6L174.7 173.5L174.7 173.5L174.6 173.5L174.6 173.5L174.6 173.5L174.5 173.4L174.5 173.4L174.4 173.4L174.4 173.4L174.1 173.3L174.1 173.3L174.0 173.3L174.0 173.3L174.0 173.3L173.9 173.2L173.8 173.2L173.8 173.2L173.8 173.2L173.7 173.2L173.7 173.2L173.6 173.2L173.6 173.2L173.6 173.2L173.5 173.2L173.5 173.2L173.4 173.2L173.4 173.2L173.3 173.2L173.3 173.2L173.0 173.2L173.0 173.2L173.0 173.2L172.9 173.2L172.9 173.2L172.9 173.2L172.8 173.2L172.8 173.2L172.7 173.2L172.7 173.2L172.6 173.2L172.6 173.2L172.6 173.2L172.5 173.2L172.4 173.3L172.4 173.3L172.3 173.3L172.3 173.3L172.2 173.3L172.2 173.3L172.2 173.3L172.1 173.3L172.1 173.3L172.1 173.4L172.0 173.4L172.0 173.4L172.0 173.4L171.9 173.4L171.9 173.4L171.9 173.4L171.8 173.5L171.8 173.5L171.7 173.5L171.7 173.5L171.7 173.5L171.6 173.6L171.6 173.6L171.6 173.6L171.5 173.6L171.5 173.6L171.3 173.7L171.3 173.8L171.3 173.8L171.2 173.8L171.2 173.8L171.2 173.8L171.1 173.9L171.1 173.9L171.1 173.9L171.0 174.0L171.0 174.0L171.0 174.0L170.9 174.0L170.9 174.1L170.8 174.1L170.8 174.1L170.8 174.2L170.8 174.2L170.7 174.2L170.7 174.2L170.7 174.3L170.6 174.3L170.6 174.4L170.6 174.4L170.6 174.4L170.5 174.5L170.5 174.5L170.5 174.5L170.5 174.6L170.4 174.6L170.4 174.6L170.4 174.7L170.3 174.8L170.3 174.8L170.3 174.9L170.2 174.9L170.2 174.9L170.2 175.0L170.2 175.0L170.2 175.1L170.1 175.1L170.1 175.1L170.1 175.2L170.1 175.2L170.1 175.3L170.1 175.3L170.0 175.4L169.3 176.8L168.2 178.0L168.2 178.0L168.2 178.1L168.1 178.1L168.1 178.1L168.1 178.1L168.1 178.2L168.0 178.2L168.0 178.2L168 178.3L167.9 178.3L167.9 178.4L167.8 178.4L167.8 178.5L167.8 178.5L167.7 178.5L167.7 178.6L167.7 178.6L167.7 178.6L167.7 178.7L167.6 178.7L167.6 178.7L167.6 178.8L167.5 178.8L167.5 178.9L167.5 178.9L167.5 178.9L167.5 179.0L167.5 179.0L167.4 179.0L167.4 179.1L167.4 179.1L167.4 179.2L167.4 179.2L167.3 179.2L167.3 179.3L167.3 179.3L167.3 179.3L167.3 179.4L167.3 179.5L167.2 179.5L167.2 179.6L167.2 179.6L167.2 179.6L167.2 179.7L167.2 179.8L167.1 179.9L167.1 179.9L167.1 179.9L167.1 180.0L167.1 180.0L167.1 180.0L167.1 180.1L167.1 180.1L167.1 180.2L167.1 180.2L167.1 180.3L167.0 180.8L167.0 180.9L167.0 180.9L167.0 180.9L167.0 181.0L167.0 181.0L167.0 181.2L167.0 181.2L167.0 181.2L167.0 181.3L167.0 181.3L167.0 181.4L167.0 181.5L167.0 181.6L167.0 181.6L167.0 181.6L167.0 181.7L167.0 181.7L167.0 181.8L167.0 181.8L167.0 181.9L167.0 181.9L167.0 182.0L167.1 182.9L167.0 184.3L166.2 186.4L164.7 188.2L164.7 188.3L164.6 188.3L164.6 188.4L164.5 188.4L164.5 188.4L164.5 188.4L164.4 188.5L164.4 188.5L164.4 188.5L164.4 188.5L164.3 188.6L164.3 188.6L164.2 188.7L164.2 188.7L164.2 188.8L164.2 188.8L164.1 188.8L164.1 188.9L164.1 188.9L164.1 188.9L164.0 188.9L164 189.1L163.9 189.1L163.9 189.2L163.9 189.2L163.9 189.3L163.8 189.3L163.8 189.3L163.8 189.4L163.8 189.5L163.8 189.5L163.7 189.5L163.7 189.6L163.7 189.6L163.7 189.6L163.7 189.7L163.6 189.8L163.6 189.9L163.6 189.9L163.6 190L163.6 190.0L163.6 190.1L163.5 190.2L163.5 190.2L163.5 190.3L163.5 190.3L163.5 190.4L163.5 190.4L163.5 190.5L163.5 190.5L163.5 190.5L163.5 190.6L163.5 190.6L163.5 190.6L163.5 190.7L163.5 190.8L163.5 190.8L163.5 190.9L163.5 190.9L163.5 191.0L163.5 191.0L163.5 191.0L163.5 191.1L163.5 191.1L163.5 191.2L163.5 191.2L163.5 191.2L163.5 191.3L163.5 191.3L163.5 191.4L163.5 191.5L163.5 191.5L163.6 191.5L163.6 191.6L163.6 191.6L163.7 192.6L163.7 192.6L163.7 192.7L163.8 192.8L163.8 192.8L163.8 192.9L163.8 192.9L163.8 192.9L163.8 193.0L163.8 193.0L163.8 193.1L163.8 193.2L163.8 193.2L163.8 193.2L163.9 193.3L163.9 193.5L164.0 193.6L164.0 193.6L164.0 193.6L164.0 193.7L164.0 193.7L164.0 193.7L164.0 193.8L164.1 193.8L164.1 193.8L164.1 193.9L164.1 193.9L164.1 193.9L164.1 194.0L164.2 194.0L164.3 194.2L164.3 194.3L164.4 194.3L164.4 194.3L164.4 194.4L164.4 194.4L164.5 194.5L164.5 194.5L164.6 194.6L164.6 194.6L164.6 194.6L164.7 194.7L164.7 194.7L164.7 194.7L164.7 194.7L164.8 194.8L164.8 194.8L164.9 194.9L166.1 196.3L166.8 197.9L167.1 199.7L167.1 199.7L167.1 200.5L166.9 201.5L166.1 203.3L164.9 204.9L164.8 204.9L164.8 205L164.8 205.0L164.7 205.0L164.7 205.0L164.7 205.1L164.7 205.1L164.6 205.1L164.6 205.1L164.6 205.2L164.5 205.2L164.5 205.3L164.4 205.3L164.4 205.4L164.4 205.4L164.4 205.4L164.4 205.4L164.3 205.5L164.3 205.5L164.3 205.5L164.2 205.7L164.2 205.7L164.2 205.7L164.2 205.8L164.1 205.8L164.1 205.8L164.1 205.9L164.1 205.9L164.1 205.9L164.0 206.0L164.0 206.0L164.0 206.0L164.0 206.1L164.0 206.1L164.0 206.1L164.0 206.2L163.9 206.2L163.9 206.2L163.9 206.5L163.8 206.5L163.8 206.5L163.8 206.6L163.8 206.6L163.8 206.7L163.8 206.8L163.8 206.8L163.8 206.9L163.8 206.9L163.8 207.0L163.7 207.0L163.7 207.0L163.7 207.1L163.7 207.2L163.6 207.8L163.6 208.1L163.6 208.2L163.5 208.3L163.5 208.3L163.5 208.3L162.8 208.0L163.5 203.3L160.0 212.4L156.0 209.9L154.9 210.8L155.1 213.7L153.1 212.7L152.4 210.6L153.3 206.8L155.7 202.8L161.8 197.2L154.9 202.7L151.5 207.0L150.7 206.5L151.3 216.4L148.9 220.3L147.0 228.7L147.7 230.7L145.9 232.7L141.8 232.5L141.9 229.4L143.5 227.6L144.2 222.0L146.5 215.8L145.2 213.9L145.4 210.0L147.8 205.4L145.6 207.7L145.5 207.0L149.4 200.1L147.5 200.8L148.3 194.7L151.7 190.8L155.9 190.9L158.3 188.3L159.2 186.3L156.3 190.2L152.3 189.1L152.8 187.6L155.5 186.4L153.4 186.7L152.8 185.2L158.6 176.8L146.5 188.3L144.1 186.8L144.1 186.8L144.2 186.7L144.2 186.7L144.2 186.7L144.2 186.7L144.2 186.6L144.3 186.6L144.3 186.6L144.3 186.5L144.4 186.4L144.4 186.3L144.4 186.3L144.5 186.3L144.5 186.2L144.5 186.2L144.5 186.2L144.5 186.1L144.5 186.1L144.6 186.1L144.6 186.0L144.6 186.0L144.6 185.9L144.6 185.9L144.7 185.9L144.7 185.8L144.7 185.8L144.7 185.6L144.7 185.6L144.8 185.6L144.8 185.5L144.8 185.4L144.8 185.4L144.8 185.3L144.8 185.3L144.8 185.3L144.8 185.2L144.8 185.2L144.8 185.2L144.8 185.1L144.9 185.1L144.9 185.0L144.9 185.0L144.9 185.0L144.9 184.9L144.9 184.9L144.9 184.9L144.9 184.8L144.9 184.8L144.9 184.7L144.9 184.6L144.9 184.6L144.9 184.5L144.9 184.5L144.9 184.4L144.9 184.4L144.9 184.3L144.9 184.3L144.9 184.3L144.9 184.2L144.9 184.2L144.8 184.2L144.8 184.1L144.8 184.1L144.8 184.0L144.8 183.9L144.8 183.9L144.8 183.8L144.8 183.8L144.8 183.8L144.8 183.7L144.7 183.7L144.7 183.5L144.7 183.5L144.6 183.4L144.6 183.4L144.6 183.3L144.6 183.3L144.6 183.3L144.6 183.2L144.6 183.2L144.5 183.2L144.5 183.1L144.5 183.1L144.5 183.1L144.5 183.0L144.4 183.0L144.0 181.8L149.5 180.9L145.2 180.0L143.7 180.6L143.6 179.9L143.6 179.4L143.6 179.3L143.6 179.2L143.6 179.1L143.6 179.1L143.6 179.0L143.6 179.0L143.6 178.9L143.6 178.9L143.6 178.8L143.6 178.8L143.6 178.8L143.6 178.7L143.6 178.7L143.6 178.6L143.6 178.6L143.6 178.6L144.6 177.1L143.6 175.6L147.5 174.4L146.1 173.2L142.3 173.2L144.9 168.8L148.2 170.4L150.7 169.6L148.5 169.9L145.5 167.4L146.8 165.1L150.6 166.2L153.4 165.7 Z M 163.5 209.5L163.5 209.5L163.5 209.5L163.5 209.6L163.6 209.6L163.6 209.8L163.6 209.8L163.6 209.8L163.6 209.9L163.6 209.9L163.7 210.1L163.7 210.1L163.7 210.2L163.8 210.2L163.8 210.3L163.8 210.3L163.8 210.3L163.8 210.4L163.8 210.4L163.8 210.4L163.9 210.5L163.9 210.5L163.9 210.6L163.9 210.6L164.0 210.8L164.1 210.8L164.1 210.9L164.1 210.9L164.2 210.9L164.2 211.0L164.2 211.0L164.2 211.0L164.3 211.1L164.3 211.1L164.4 211.2L164.4 211.2L164.4 211.3L164.4 211.3L164.5 211.3L164.5 211.3L164.5 211.4L164.6 211.4L164.6 211.4L164.7 211.5L164.7 211.5L165.1 211.9L166.8 214.5L167.1 216.5L167.1 216.7L167.1 216.9L166.6 219.2L165.3 221.2L164.7 221.7L161.0 218.8L162.1 209.9 Z M 157.2 224.6L157.2 224.7L157.2 224.7L157.1 224.7L157.1 224.7L157.1 224.8L157.1 224.8L157.1 224.8L157.0 224.9L157.0 224.9L157.0 224.9L157.0 225.0L157 225.0L156.9 225.0L156.9 225.1L156.9 225.1L156.9 225.1L156.8 225.2L156.8 225.2L156.8 225.2L156.8 225.3L156.8 225.3L156.7 225.4L156.7 225.4L156.7 225.4L156.7 225.5L156.7 225.5L156.7 225.6L156.6 225.7L155.5 227.6L154.7 228.3L151.7 226.7L150.6 221.9L151.1 219.4L153.0 217.7L155.8 219.2L157.2 223.9 Z M 139.9 212.6L139.9 212.6L139.9 212.5L139.8 212.5L139.8 212.4L139.8 212.4L139.7 212.3L139.7 212.3L139.7 212.3L139.7 212.2L139.6 212.2L139.6 212.2L139.6 212.1L139.6 212.1L139.5 212.0L139.5 212.0L139.4 211.9L139.4 211.9L139.4 211.9L139.3 211.8L139.3 211.8L139.2 211.7L139.2 211.7L139.2 211.7L139.2 211.6L139.1 211.6L137.8 210.0L137.4 208.9L139.5 205.5L145.3 201.0L145.5 202.7 Z M 140.3 194.3L140.3 194.2L140.2 193.3L140.6 191.0L141.6 189.0L143.2 187.6L147.0 189.9L146.7 191.7L142.8 195.0L142.0 193.3 Z M 137.8 173.0L137.4 172.3L137.2 171.5L137.8 170.8L138.6 171.8 Z M 177.0 208.9L176.8 208.8L175.4 207.5L174.4 205.9L173.8 203.2L173.9 202.5L173.9 202.5L174.1 201.4L174.2 201.1L175.0 199.4L176.4 198.0L178.1 197.0L179.9 196.5L188.9 195.7L190.5 194.1L190.5 194.1L190.8 194.0L191.0 193.8L191.0 193.7L191.1 193.7L191.1 193.7L191.1 193.6L191.2 193.6L191.2 193.6L191.2 193.5L191.2 193.5L191.4 193.3L191.4 193.3L191.4 193.3L191.5 193.3L191.5 193.2L191.5 193.2L191.5 193.2L191.5 193.1L191.6 193.0L191.7 193.0L191.9 192.6L193.4 191.1L195.2 190.1L197.3 189.8L199.2 190.0L201.0 190.8L201.7 191.5L200.4 191.7L196.0 195.1L202.6 192.4L203.5 193.7L204.0 195.6L204.0 195.6L204.1 196.8L204.1 196.9L204.1 196.9L204.1 197.0L204.1 197.2L204.1 197.2L204.1 197.3L204.1 197.3L204.1 197.4L203.9 199.5L203.2 201.1L202.6 201.1L199.6 204.2L199.5 204.2L199.5 204.2L199.5 204.2L199.5 204.3L199.4 204.3L199.4 204.3L199.4 204.3L199.3 204.3L199.2 204.4L199.1 204.4L199.1 204.4L199.0 204.5L199.0 204.5L199.0 204.5L198.7 204.6L198.5 204.9L198.5 204.9L198.3 205.0L198.3 205.0L197.8 205.3L197.6 205.8L197.6 205.8L193.4 208.0L189.5 206.3L186.2 206.2L186.5 207.3L197.3 209.9L197.3 210.5L196.9 212.4L195.9 214.1L194.4 215.5L192.6 216.4L191.2 216.6L190.9 216.7L190.4 216.7L188.6 216.4L187.0 215.6L185.6 214.4L185.6 214.4L185.6 214.4L185.5 214.3L185.5 214.3L185.4 214.2L185.4 214.2L185.4 214.2L185.3 214.1L185.3 214.1L185.2 214.0L185.2 214.0L185.1 214.0L185.1 214.0L185.1 213.9L185.1 213.9L185.0 213.9L185.0 213.9L184.9 213.8L184.8 213.8L184.8 213.7L184.7 213.7L184.7 213.7L184.7 213.7L184.6 213.6L184.6 213.6L184.6 213.6L184.5 213.6L184.5 213.6L184.5 213.6L184.4 213.6L184.4 213.5L184.4 213.5L184.3 213.5L184.3 213.5L184.3 213.5L184.2 213.5L184.2 213.5L184.1 213.4L184.0 213.4L184.0 213.4L184.0 213.4L183.9 213.4L183.9 213.4L183.8 213.4L183.8 213.4L183.8 213.3L183.7 213.3L183.7 213.3L183.6 213.3L183.6 213.3L183.6 213.3L183.5 213.3L183.5 213.3L183.4 213.3L183.4 213.3L183.3 213.3L180.8 212.6L178.8 211.0L178.2 210.1L178.2 210.1L178.1 210.0L178.1 210.0L178.1 209.9L178.0 209.9L178.0 209.8L178.0 209.8L178.0 209.8L177.9 209.8L177.9 209.7L177.9 209.7L177.9 209.7L177.8 209.6L177.8 209.6L177.8 209.5L177.7 209.5L177.7 209.5L177.6 209.4L177.6 209.4L177.6 209.4L177.5 209.3L177.5 209.3L177.5 209.3L177.5 209.3L177.4 209.2L177.3 209.2L177.3 209.2L177.3 209.1L177.3 209.1L177.2 209.1L177.2 209.1L177.1 209.0L177.1 209.0L177.0 209 Z M 180.3 241.6L180.6 243.6L180.3 245.5L179.4 247.4L178.0 248.8L176.2 249.8L173.7 250.3L173.7 250.3L173.4 250.3L171.6 249.9L171.0 248.7L170.7 249.4L169.9 249.0L168.6 247.7L167.6 246.1L167.1 243.8L167.3 241.8L168.1 240.0L169.6 238.3L171.6 237.2L173.8 236.8L173.8 236.8L176 237.2L177.9 238.2L179.3 239.7 Z M 168.6 276.9L168.3 276.8L166.5 275.8L165.0 274.4L164.6 273.4L165.3 273.0L167.4 268.8L171.1 267.1L172.1 271.6L170.1 275.7 Z M 244.9 407.2L242.4 410.4L239.7 411.3L234.6 408.1L232.8 408.3L239.0 404.1L243.5 405.3 Z M 246.9 401.8L247.2 403.9L245.7 403.5 Z M 291.5 380.3L290.4 381.0L287.3 380.4L286.8 377.9L290.5 378.7 Z M 176.8 308.9L169.7 315.4L166.9 313.3L165.1 309.7L165.2 305.3L168.5 304.1L171.6 305.0L172.8 308.1 Z M 158.7 213.4L158.8 217.8L155.3 211.9L155.9 210.2 Z M 145.9 200.4L144.7 200.7L145.9 199.4 Z M 147.5 197.3L146.7 199.8L146.8 197.0 Z M 148.0 194.8L147.2 196.8L146.8 195.5 Z M 149.8 191.5L148.9 192.7L148.6 191.6 Z M 149.8 191.5 "/>
















</g>
</svg>
