<?xml version="1.0" encoding="UTF-8" standalone="no"?>
<svg width="378px" height="504px" viewBox="0 0 378 504" version="1.1" xmlns="http://www.w3.org/2000/svg" xmlns:xlink="http://www.w3.org/1999/xlink" xmlns:sketch="http://www.bohemiancoding.com/sketch/ns">
    <!-- Generator: Sketch 3.2.2 (9983) - http://www.bohemiancoding.com/sketch -->
    <title>Slice 1</title>
    <desc>Created with Sketch.</desc>
    <defs></defs>
    <g id="Page-1" stroke="none" stroke-width="1" fill="none" fill-rule="evenodd" sketch:type="MSPage">
        <g id="data" sketch:type="MSLayerGroup">
            <rect id="Rectangle-path" fill="#FFFFFF" sketch:type="MSShapeGroup" x="0" y="0" width="378" height="504"></rect>
            <path d="M21,504 L357,504 L357,0 L21,0 L21,504 Z" id="Shape" fill="#FFFFFF" sketch:type="MSShapeGroup"></path>
            <path d="M190.6,176.9 L190.7,175.2 L191.2,173.6 L192.2,172 L193.6,170.8 L195.3,169.9 L197.1,169.6 L197.5,169.6 L199.7,170 L201.4,171 L202.8,172.4 L203.7,174.1 L204.1,176 L204.1,176.3 L204.1,176.4 L204.1,176.9 L203.7,178.7 L202.8,180.3 L201.5,181.7 L199.8,182.6 L197.5,183.1 L197.3,183.1 L195.4,182.8 L193.6,181.9 L192.1,180.6 L191.1,178.8 L190.6,176.9 L190.6,176.9 Z M176.4,172.5 L176.2,172.6 L176.1,172.6 L176,172.6 L175.9,172.7 L175.8,172.7 L175.7,172.8 L175.6,172.8 L175.5,172.9 L175.4,173 L175.3,173 L175.3,173.1 L175.2,173.1 L175.2,173.2 L175.1,173.2 L175,173.3 L175,173.4 L174.9,173.4 L174.9,173.5 L174.8,173.6 L174.7,173.6 L174.7,173.7 L174.6,173.7 L174.6,173.8 L174.5,174 L174.4,174.1 L174.4,174.2 L174.3,174.3 L174.3,174.4 L174.3,174.5 L174.2,174.5 L174.2,174.6 L174.2,174.7 L174.1,174.7 L174.1,174.8 L174.1,174.9 L174.1,175.1 L174,175.2 L174,175.3 L174,175.4 L174,175.5 L174,175.6 L174,175.8 L174,175.9 L174,176 L174,176.1 L174,176.2 L174.1,176.3 L174.1,176.4 L174.1,176.5 L174.1,176.6 L174.1,176.7 L174.2,176.7 L174.2,176.9 L174.3,177 L174.3,177.1 L174.3,177.2 L174.4,177.2 L174.4,177.3 L174.4,177.4 L174.6,177.6 L174.6,177.7 L174.7,177.7 L174.7,177.8 L174.8,177.8 L174.8,177.9 L174.9,178 L175,178.1 L175.1,178.2 L176.2,179.5 L176.2,179.6 L176.3,179.7 L176.3,179.8 L176.4,179.8 L176.4,179.9 L176.5,179.9 L176.5,180 L176.6,180 L176.6,180.1 L176.7,180.1 L176.7,180.2 L176.8,180.2 L176.8,180.3 L176.9,180.3 L176.9,180.4 L177,180.4 L177,180.5 L177.1,180.5 L177.1,180.6 L177.2,180.6 L177.3,180.7 L177.4,180.7 L178.9,182 L179.9,183.6 L180.5,185.5 L180.6,186.3 L180.5,187.3 L179.8,189.5 L178.4,191.3 L176.5,192.6 L174.2,193.1 L173.6,193.1 L171.6,192.8 L171.5,192.7 L171.4,192.7 L171.3,192.7 L171.1,192.6 L171,192.6 L170.9,192.6 L170.8,192.6 L170.7,192.6 L170.6,192.6 L170.5,192.6 L170.4,192.6 L170.3,192.6 L170.2,192.6 L170.1,192.6 L170,192.6 L169.9,192.6 L169.8,192.6 L169.6,192.7 L169.5,192.7 L169.3,192.8 L168.5,193 L167.1,193.2 L166.5,193.1 L166,193.1 L165.9,193 L165.8,193 L165.7,193 L165.6,193 L165.3,193 L165.2,193 L165.1,193 L165,193 L164.9,193 L164.9,193.1 L164.8,193.1 L164.1,193.1 L163.8,193.2 L163.7,193.2 L162.2,193 L160.6,192.4 L159.1,191.3 L158,190 L158,189.9 L158,189.8 L157.9,189.8 L157.9,189.7 L157.8,189.7 L157.8,189.6 L157.7,189.5 L157.6,189.4 L157.5,189.3 L157.4,189.2 L158.3,188.3 L159.2,186.3 L157.2,189 L157.1,189 L157.1,188.9 L157,188.9 L157,188.8 L156.9,188.8 L155.5,187.7 L155.5,187.6 L155.4,187.6 L155.3,187.5 L155.3,187.4 L155.2,187.4 L155.1,187.3 L155,187.3 L155,187.2 L154.6,186.8 L155.5,186.4 L154.3,186.5 L153.5,185.8 L153.1,184.8 L158.6,176.8 L152.4,182.7 L152.3,181.9 L152.6,179.8 L153.5,178 L153.5,177.9 L153.6,177.8 L153.6,177.7 L153.7,177.6 L153.8,177.5 L153.8,177.4 L153.8,177.3 L153.9,177.3 L153.9,177.2 L153.9,177.1 L154,177 L154,176.9 L154,176.8 L154.1,176.7 L154.1,176.6 L154.1,176.5 L154.1,176.4 L154.1,176.3 L154.1,176.2 L154.1,176.1 L154.1,175.9 L154.1,175.8 L154.1,175.7 L154.1,175.6 L154.1,175.5 L154.1,175.4 L154.1,175.3 L154,175.3 L154,175.2 L154,175.1 L154,175 L153.7,173.2 L153.7,172.7 L153.8,171.9 L153.8,171.8 L153.8,171.7 L153.8,171.6 L153.8,171.5 L153.8,171.4 L153.8,171.2 L153.8,171.1 L153.8,171 L153.8,170.9 L153.8,170.8 L153.8,170.7 L153.7,170.2 L153.7,170.1 L153.7,170 L153.7,169.9 L153.7,169.8 L153.6,169.8 L153.6,169.7 L153.6,169.6 L153.6,169.5 L153.5,169.4 L153.5,169.3 L153.5,169.2 L153.5,169.1 L153.4,169.1 L153.4,169 L153.4,168.9 L153.3,168.9 L153.3,168.8 L153.3,168.7 L153.2,168.6 L153.1,168.5 L153.1,168.4 L153,168.4 L153,168.3 L152.9,168.3 L152.9,168.2 L152.8,168.2 L152.8,168.1 L152.7,168 L152.6,167.9 L152.5,167.9 L152.5,167.8 L152.4,167.8 L152.4,167.7 L152.3,167.7 L152.3,167.6 L152.2,167.6 L152.1,167.5 L152,167.5 L151.9,167.4 L151.8,167.4 L151.7,167.3 L151.6,167.3 L151.5,167.3 L151.5,167.2 L151.4,167.2 L151.3,167.2 L151.2,167.2 L151.2,167.1 L151.1,167.1 L151,167.1 L150.9,167.1 L150.8,167.1 L150.7,167.1 L150.6,167.1 L150.6,167 L150.5,167 L150.4,167 L150.3,167 L150.2,167 L150.1,167 L150.1,167.1 L150,167.1 L149.9,167.1 L149.8,167.1 L149.7,167.1 L149.6,167.1 L149.5,167.1 L149.5,167.2 L149.4,167.2 L149.3,167.2 L149.2,167.3 L149.1,167.3 L149,167.3 L148.9,167.4 L148.8,167.4 L148.7,167.5 L148.6,167.5 L148.5,167.6 L148.4,167.6 L148.4,167.7 L148.3,167.7 L148.3,167.8 L148.2,167.8 L148.1,167.9 L146.9,168.6 L145.5,167.4 L146.8,165.1 L150.6,166.2 L153.4,165.7 L150.4,165.1 L148.4,163.3 L148.6,160.6 L150.6,159.9 L153.5,161 L150.3,158.8 L149.8,157.1 L153,153.9 L146.4,156.5 L145.4,155.6 L144.6,151.2 L145.4,147.7 L149.1,150.4 L152,149.5 L148.8,148.9 L146.2,145.4 L146.4,138.5 L146.8,137.2 L148.5,136.8 L150.6,140.7 L151.2,138.4 L150,136.6 L150.7,134.9 L153.7,137.5 L154.3,135.9 L156.1,135.3 L160.7,138.1 L159.2,134.4 L154.1,129.3 L154.7,128.5 L156.8,129.9 L157.6,129.4 L157.8,126.8 L155.7,122.6 L162,122.7 L160.2,119.4 L163.7,110.1 L164.6,109.6 L165.1,109.5 L168.5,110.3 L169.8,112 L170.2,113.3 L168.5,116.3 L172.5,111.4 L178,113.2 L184.8,112.6 L185,112.6 L185.6,112.8 L186.1,112.6 L186.2,112.6 L186.8,112.5 L188.6,112.6 L190.5,113.3 L192.1,114.6 L193.3,116.2 L193.9,118.1 L194,119.9 L193.5,121.8 L192.5,123.5 L191,124.8 L189.2,125.7 L187.3,126 L186.2,125.9 L186.1,125.9 L185.6,125.7 L185,125.9 L184.5,125.9 L183.6,125.9 L183.5,125.9 L183.4,125.9 L183.3,125.9 L183.2,125.9 L183.1,125.9 L183,126 L182.9,126 L182.8,126 L182.7,126 L182.6,126 L182.5,126 L182.5,126.1 L182.4,126.1 L182.3,126.1 L182.2,126.1 L182.1,126.2 L182,126.2 L181.9,126.2 L181.9,126.3 L181.8,126.3 L181.7,126.3 L181.7,126.4 L181.5,126.5 L181.4,126.5 L181.4,126.6 L181.3,126.6 L181.3,126.7 L181.2,126.7 L181.1,126.8 L181,126.9 L180.9,127 L180.8,127.1 L180.8,127.2 L180.7,127.2 L180.7,127.3 L180.6,127.3 L180.6,127.4 L180.5,127.5 L180.4,127.6 L180.4,127.7 L180.3,127.8 L180.3,127.9 L180.2,128 L180.2,128.1 L180.2,128.2 L179.8,129 L178.9,130.4 L178.8,130.5 L178.7,130.6 L178.7,130.7 L178.6,130.7 L178.6,130.8 L178.5,130.8 L178.4,131 L178.4,131.1 L178.3,131.2 L178.3,131.3 L178.2,131.4 L178.2,131.5 L178.1,131.7 L178.1,131.8 L178.1,131.9 L178,132 L178,132.1 L178,132.2 L178,132.3 L178,132.4 L178,132.5 L178,132.6 L178,132.7 L178,132.8 L178,132.9 L178,133 L178,133.1 L178,133.2 L178,133.3 L178.1,133.3 L178.1,133.4 L178.1,133.5 L178.1,133.6 L178.2,133.8 L178.2,133.9 L178.2,134 L178.3,134 L178.3,134.1 L178.3,134.2 L178.4,134.2 L178.4,134.3 L178.4,134.4 L178.5,134.5 L178.6,134.6 L178.7,134.7 L178.7,134.8 L178.8,134.8 L178.8,134.9 L178.9,134.9 L179.8,136.4 L180.4,138.8 L180.3,138.9 L175,136.7 L175.8,138.4 L180.5,139.9 L180.5,140.3 L179.9,142.4 L178.6,144.1 L177.7,144.9 L176.6,145.3 L174.1,148 L173.8,149.1 L176,147.3 L175.9,147.3 L175.9,147.4 L175.9,147.5 L175.9,147.6 L175.9,147.7 L175.9,147.8 L175.9,147.9 L175.9,148 L175.9,148.1 L175.9,148.2 L175.9,148.3 L175.9,148.4 L175.9,148.5 L176,148.5 L176,148.6 L176,148.7 L176,148.8 L176,148.9 L176.1,149 L176.1,149.1 L176.1,149.2 L176.2,149.2 L176.2,149.3 L176.2,149.4 L176.3,149.4 L176.3,149.5 L176.3,149.6 L176.9,150.8 L176.9,150.9 L176.9,151 L177,151 L177,151.1 L177,151.2 L177.1,151.3 L177.1,151.4 L177.1,151.5 L177.2,151.5 L177.2,151.6 L177.3,151.8 L177.4,151.8 L177.4,151.9 L177.5,152 L177.6,152.1 L177.6,152.2 L177.7,152.2 L177.7,152.3 L177.8,152.3 L177.9,152.4 L178,152.5 L178.1,152.6 L178.2,152.6 L178.2,152.7 L178.3,152.7 L178.3,152.8 L178.4,152.8 L178.5,152.8 L178.5,152.9 L178.6,152.9 L178.7,152.9 L178.7,153 L178.8,153 L178.9,153 L179.2,153.1 L180.8,153.9 L182.2,155.1 L183.5,157.3 L183.9,159.8 L183.5,161.9 L182.5,163.7 L181.7,164.6 L181.6,164.6 L181.6,164.7 L181.5,164.7 L181.5,164.8 L181.4,164.8 L181.3,164.9 L181.3,165 L181.2,165 L181.2,165.1 L181.1,165.2 L181,165.4 L180.9,165.5 L180.9,165.6 L180.8,165.7 L180.8,165.8 L180.8,165.9 L180.7,165.9 L180.7,166.1 L180.6,166.2 L180.6,166.3 L180.6,166.4 L180.6,166.5 L180.6,166.6 L180.5,166.6 L180.5,166.7 L180.5,166.8 L180.5,166.9 L179.9,169.2 L178.4,171.2 L176.4,172.5 Z M145.8,169.2 L144.5,169.5 L144.9,168.8 L145.8,169.2 Z M135.9,168 L135.1,167.1 L135.9,167.8 L135.9,168 Z M126.8,152.7 L126.8,152.5 L127.4,150.1 L128.8,148.1 L130.7,146.8 L133.4,149.6 L134.6,148.9 L134.2,146.2 L135,146.3 L136.8,147 L136.9,147 L137,147.1 L137.1,147.1 L137.2,147.1 L137.2,147.2 L137.3,147.2 L137.5,147.3 L137.6,147.3 L137.7,147.3 L137.8,147.3 L137.9,147.4 L138,147.4 L138.1,147.4 L138.2,147.4 L138.3,147.4 L138.4,147.4 L138.6,147.4 L138.7,147.4 L139.1,157.4 L143.8,160.2 L146.6,158.9 L148.7,159.8 L148.1,161.9 L144.3,165.2 L142.5,167.6 L140.8,168.1 L140.4,166.9 L141.8,164.1 L140.7,162.3 L139.7,164.2 L137.8,162.4 L134.9,162.7 L131.9,157 L133.4,155.9 L135.4,157.2 L131.1,153 L130.1,155.8 L127.4,154.3 L126.8,152.7 Z M170.5,216.9 L170.7,215.1 L171.3,213.4 L172.4,211.9 L174.4,210.5 L176.8,210 L178.9,210.2 L180.8,211 L182.4,212.5 L183.5,214.3 L183.9,216.4 L183.9,217.5 L183.8,217.8 L183,220.1 L181.3,222 L179.2,223.1 L176.8,223.4 L174.4,222.8 L172.4,221.4 L171,219.4 L170.5,216.9 L170.5,216.9 Z M163.8,237.8 L163.8,235.7 L164.5,233.7 L165.7,232.1 L167.4,230.9 L169.4,230.2 L169.5,230.2 L170.6,230.1 L173.1,230.6 L175.2,232.1 L176.7,234.3 L177.2,236.8 L177.2,236.9 L177.1,237.9 L177.1,238 L176.9,238.5 L177.1,239.1 L177.2,239.9 L177.1,241.3 L176.9,241.9 L177.1,242.4 L177.2,243.4 L177,245.1 L176.7,246.1 L175.7,247.8 L174.3,249.1 L172.6,249.9 L171.7,250.1 L171,248.7 L170.2,250.3 L168.3,249.9 L166.4,248.9 L164.8,247.2 L164.1,245.6 L163.8,243.8 L163.7,243.5 L163.8,242.4 L164,241.9 L163.8,241.2 L163.8,239.9 L163.8,239.7 L163.8,239.1 L164,238.5 L163.8,237.8 L163.8,237.8 Z M136.9,182.3 L136.9,182.2 L137.8,181.9 L140.6,186 L147,189.9 L146.7,191.7 L145.3,192.8 L143.8,193.1 L141.1,192.7 L139.3,191.6 L138,190.1 L137.8,189.7 L139.8,187.9 L137.2,188.5 L137.1,188.2 L136.9,185.8 L137,185.3 L137,185.2 L137,185.1 L137,185 L137,184.9 L137,184.6 L137,184.5 L137,184.4 L137,184.3 L137,184.2 L136.9,183.7 L136.9,182.3 L136.9,182.3 Z M137.3,180.8 L137.3,180.6 L138.2,179 L139.4,177.8 L140,177.4 L141.4,177.2 L143.4,178.8 L144.6,177.1 L144.1,176.4 L146.4,177 L148.3,178.3 L148.5,178.4 L148.5,178.5 L148.6,178.5 L148.6,178.6 L148.7,178.6 L148.7,178.7 L148.8,178.7 L150.3,180.2 L151.2,182 L151.5,183.6 L146.5,188.3 L141.5,185.1 L140,182.5 L149.5,180.9 L145.2,180 L141.9,181.2 L137.3,180.8 Z M143.1,157.5 L142.7,158.6 L141.4,157.2 L143.1,157.5 Z M141.9,155.9 L140.6,156.8 L140.4,152.8 L142,150 L141.9,155.9 Z M143,147.5 L142.7,149.7 L142.3,148.8 L143,147.5 Z" id="Shape" fill="#C2B855" sketch:type="MSShapeGroup"></path>
        </g>
    </g>
</svg>