<?xml version="1.0" encoding="UTF-8"?>
<svg xmlns="http://www.w3.org/2000/svg" xmlns:xlink="http://www.w3.org/1999/xlink" width="378pt" height="504pt" viewBox="0 0 378 504" version="1.1">
<g id="data">
<rect x="0" y="0" width="378" height="504" style="fill:rgb(100%,100%,100%);fill-opacity:1;stroke:none;"/>
<path style=" stroke:none;fill-rule:nonzero;fill:rgb(100%,100%,100%);fill-opacity:1;" d="M 21 504L357 504L357 0L21 0 Z M 21 504 "/>
<path style=" stroke:none;fill-rule:nonzero;fill:rgb(77.6%,78.8%,62.3%);fill-opacity:1;" d="M 296.8 329.5L298.3 328.4L298.2 327.0L298.2 327.0L298.6 325.2L299.4 323.7L305.5 327.6L307.8 332.9L307.8 336.3L307.5 337.3L306.3 339.0L304.6 340.2L302.6 340.9L302.6 340.9L301.5 341.0L301.5 341.0L299.3 340.6L297.4 339.6L295.9 337.9L295.0 335.9L295.0 335.9L294.8 334.6L294.8 334.6L295.0 332.7L295.7 331.0L296.8 329.5 Z M 267.9 374.1L268.3 372.2L269.2 370.6L270.6 369.2L272.2 368.3L274.1 367.9L274.1 367.9L276.2 368.0L276.2 368.1L276.4 368.1L276.6 368.1L276.7 368.1L276.8 368.1L276.8 368.1L276.8 368.1L276.9 368.1L277.0 368.1L277.1 368.1L277.1 368.1L277.2 368.1L277.2 368.1L277.2 368.1L277.3 368.1L277.3 368.1L277.4 368.1L277.4 368.1L277.5 368.1L277.5 368.1L277.5 368.1L277.6 368.1L277.6 368.1L277.7 368.1L277.7 368.0L277.8 368.0L277.8 368.0L277.9 368.0L277.9 368.0L277.9 368.0L278.1 367.9L278.1 367.9L278.2 367.9L278.2 367.9L278.3 367.9L278.3 367.9L278.4 367.8L278.4 367.8L278.4 367.8L278.5 367.8L278.5 367.7L278.6 367.7L278.6 367.7L278.6 367.7L278.7 367.7L278.8 367.6L278.9 367.6L278.9 367.5L278.9 367.5L279 367.5L279.0 367.5L279.0 367.4L279.0 367.4L279.1 367.4L279.1 367.4L279.1 367.4L279.2 367.3L279.2 367.3L279.2 367.3L279.3 367.2L279.4 367.1L279.4 367.1L279.4 367.1L279.4 367.0L279.5 367.0L279.5 367.0L279.5 366.9L279.6 366.9L281.2 365.5L281.5 365.4L281.4 364.0L281.4 364.0L281.6 362.8L281.7 362.4L282.6 360.5L284.1 359.1L285.9 358.1L287.9 357.8L287.9 357.8L289.2 357.9L291.1 358.5L292.8 359.7L294.0 361.4L294.7 363.3L294.8 364.7L294.8 364.7L294.8 364.8L293.3 365.4L291.7 363.4L285.2 367.6L286.6 368.6L290.6 366.7L291.2 371.6L287.6 374.8L284.3 374.5L280.1 375.9L278.2 377.9L281.7 376.4L285.5 376.9L286.1 378.1L284.2 378.1L282.4 379.3L282.9 380.0L287.5 381L287.5 381.0L287.4 381.0L287.4 381.1L287.3 381.1L287.3 381.1L287.3 381.1L287.3 381.2L287.3 381.2L287.2 381.2L287.2 381.3L287.2 381.3L287.2 381.3L287.1 381.4L287.1 381.4L287.1 381.5L286.0 382.8L284.7 383.8L282.3 384.6L282.3 384.6L281.1 384.7L281.1 384.7L279.3 384.4L277.7 383.6L276.3 382.4L276.3 382.4L276.2 382.3L276.2 382.3L276.2 382.2L276.1 382.2L276.1 382.2L276.1 382.2L276.1 382.1L276 382.1L275.9 382.0L275.9 382.0L275.9 382.0L275.8 382.0L275.8 381.9L275.8 381.9L275.7 381.9L275.7 381.9L275.7 381.9L275.7 381.8L275.6 381.8L275.6 381.8L275.5 381.8L275.5 381.7L275.4 381.7L275.4 381.7L275.4 381.7L275.3 381.6L275.3 381.6L275.3 381.6L275.2 381.6L275.2 381.6L275.2 381.6L275.1 381.5L275.1 381.5L275.0 381.5L275.0 381.5L274.9 381.5L274.8 381.4L274.8 381.4L274.8 381.4L274.7 381.4L274.7 381.4L274.6 381.4L274.6 381.4L274.5 381.4L274.3 381.3L274.1 381.3L274.1 381.3L272.2 380.9L270.6 380.0L270.6 380.0L269.0 378.3L268.1 376.2L267.9 374.1 Z M 290.1 378.6L290.0 378.8L288.2 380.3L288.1 380.4L288.1 380.4L288.1 380.4L288.1 380.4L288.0 380.5L288.0 380.5L288.0 380.5L287.9 380.5L287.9 380.5L287.3 380.4L286.8 377.9 Z M 271.3 327.4L271.5 326.0L273.3 327.7L276.1 328.3L280.0 321.2L281.4 321.8L283.0 323.1L284.3 325.2L284.7 327.6L284.7 327.7L284.1 330.3L283.2 331.9L281.7 333.2L279.9 334.0L277.9 334.3L275.8 333.9L273.9 332.9L272.5 331.4L271.6 329.5 Z M 258.0 402.8L257.8 401.6L258.0 400.2L258.0 400.1L258.4 398.7L259.8 396.8L261.7 395.4L264.1 394.8L265.4 394.8L267.0 395.2L267.0 395.2L268.7 396.2L270.0 397.5L270.9 399.2L271.3 401.1L271.3 401.5L271.0 403.4L263.9 401.7 Z M 230.6 398.1L232.1 398.2L233.2 398.5L233.2 398.5L234.3 399.1L235.4 398.5L235.4 398.5L237.5 398.1L237.5 398.1L239.3 398.3L241.0 399.0L242.4 400.1L243.4 401.4L242.6 401.4L243.5 402.8L242.8 403.9L238.4 403.4L232.2 405.9L224.4 406.4L224.4 406.2L224.4 406.2L224.2 405.3L224.3 404.2L224.4 403.2L225.6 400.8L226.9 399.5L228.4 398.6L230.2 398.1L230.6 398.1 Z M 244.1 406.2L244.0 407.1L242.7 409.3L242.7 409.3L241.2 410.5L239.6 411.3L234.6 408.1L232.8 408.3L239.0 404.1L243.5 405.3 Z M 244.1 406.2 "/>
















</g>
</svg>
