<?xml version="1.0" encoding="UTF-8"?>
<svg xmlns="http://www.w3.org/2000/svg" xmlns:xlink="http://www.w3.org/1999/xlink" width="378pt" height="504pt" viewBox="0 0 378 504" version="1.1">
<g id="data">
<rect x="0" y="0" width="378" height="504" style="fill:rgb(100%,100%,100%);fill-opacity:1;stroke:none;"/>
<path style=" stroke:none;fill-rule:nonzero;fill:rgb(100%,100%,100%);fill-opacity:1;" d="M 21 504L357 504L357 0L21 0 Z M 21 504 "/>
<path style=" stroke:none;fill-rule:nonzero;fill:#C2B855;fill-opacity:1;" d="M 296.3 364.2L295.3 363.9L293.7 362.8L292.4 361.3L292.4 361.2L292.3 361.2L292.3 361.1L292.3 361.1L292.3 361.1L292.2 361.0L292.2 361.0L292.2 361.0L292.2 361.0L292.2 360.9L292.1 360.9L292.0 360.8L292.0 360.8L292.0 360.7L291.9 360.7L291.9 360.7L291.9 360.6L291.8 360.6L291.8 360.6L291.8 360.5L291.7 360.4L291.6 360.4L291.6 360.4L291.6 360.4L291.6 360.4L291.5 360.3L291.5 360.3L291.5 360.3L291.4 360.3L291.4 360.2L291.3 360.1L289.7 358.9L288.7 357.2L288.1 355.3L288.1 355.3L288.1 354.7L288.4 352.4L289.5 350.3L291.1 348.8L291.2 348.7L291.2 348.7L291.3 348.7L291.3 348.7L291.3 348.7L291.4 348.6L291.4 348.6L291.4 348.6L291.4 348.6L291.5 348.5L291.5 348.5L291.6 348.5L291.6 348.5L291.6 348.4L291.6 348.4L291.7 348.4L291.7 348.4L291.7 348.3L291.7 348.3L291.8 348.3L291.8 348.2L291.8 348.2L291.9 348.2L291.9 348.2L291.9 348.1L291.9 348.1L292.0 348.1L292.0 348.0L292.0 348.0L292.0 348.0L292.1 347.9L292.1 347.9L292.1 347.8L292.1 347.8L292.2 347.7L292.2 347.7L292.3 347.6L292.3 347.5L292.3 347.5L292.4 347.5L292.4 347.4L292.4 347.3L292.5 347.3L292.5 347.2L292.5 347.2L292.5 347.2L292.5 347.1L292.5 347.1L292.6 346.9L292.6 346.9L292.6 346.8L292.6 346.8L292.6 346.7L292.6 346.7L292.7 346.6L292.7 346.6L292.7 346.5L292.7 346.5L292.7 346.5L292.7 346.4L292.7 346.4L292.7 346.3L292.7 346.3L292.7 346.3L292.7 346.2L292.7 346.2L292.7 346.1L292.7 346.1L292.7 346.0L292.7 346.0L292.7 345.8L292.7 345.8L292.7 345.8L292.7 345.7L292.7 345.7L292.7 345.6L292.7 345.6L292.7 345.6L292.7 345.5L292.7 345.5L292.7 345.4L292.7 345.4L292.7 345.4L292.7 345.3L292.7 345.3L292.6 345.2L292.6 345.2L292.6 345.1L292.6 345.1L292.6 345.1L292.6 345.0L292.6 345.0L292.6 345.0L292.5 344.8L292.5 344.8L292.5 344.7L292.4 344.6L292.4 344.6L292.4 344.5L292.4 344.5L292.4 344.5L292.4 344.4L292.3 344.4L292.3 344.4L292.3 344.3L292.3 344.3L291.5 342.2L291.5 341.6L291.4 341.5L291.4 341.5L291.4 341.4L291.4 341.4L291.4 341.3L291.4 341.3L291.4 341.3L291.4 341.2L291.4 341.2L291.4 341.1L291.4 341.1L291.4 341.0L291.4 341.0L291.3 340.9L291.3 340.9L291.3 340.8L291.3 340.8L291.3 340.7L291.3 340.7L291.3 340.6L291.2 340.6L291.2 340.6L291.2 340.5L291.2 340.5L291.2 340.5L291.2 340.4L291.2 340.4L291.1 340.4L291.1 340.3L291.1 340.3L291.1 340.3L291.1 340.2L291.1 340.2L291.0 340.2L291.0 340.1L291.0 340.1L290.9 340.0L290.9 339.9L290.8 339.9L290.8 339.8L290.8 339.8L290.8 339.8L290.8 339.8L290.7 339.7L290.7 339.7L290.6 339.6L290.6 339.6L290.6 339.5L290.5 339.5L290.5 339.5L290.4 339.4L290.4 339.4L290.4 339.3L290.4 339.3L290.3 339.3L289.1 337.8L288.3 336.1L288.1 334.3L288.2 333.2L288.2 333.1L288.2 333.1L288.2 333.0L288.2 332.9L288.2 332.9L288.2 332.8L288.2 332.8L288.2 332.8L288.2 332.7L288.2 332.5L288.2 332.4L288.2 332.4L288.2 332.4L288.2 332.3L288.2 332.2L288.2 332.2L288.2 332.1L288.2 332.1L288.2 332.0L288.1 331.5L288.1 331.4L288.1 331.4L288.1 331.3L288.1 331.2L288.1 331.2L288.1 331.2L288.0 331.1L288.0 331.1L288.0 331.0L288.0 331.0L288.0 330.9L288.0 330.8L288.0 330.8L288.0 330.8L288.0 330.7L287.9 330.6L287.9 330.6L287.9 330.5L287.9 330.5L287.9 330.5L287.8 330.4L287.8 330.4L287.8 330.4L287.8 330.3L287.8 330.3L287.7 330.2L287.7 330.2L287.7 330.1L287.6 330.0L287.6 330.0L287.6 330.0L287.6 329.9L287.6 329.9L287.5 329.9L287.5 329.8L287.5 329.8L287.5 329.8L287.4 329.7L287.4 329.7L287.4 329.7L287.4 329.6L287.4 329.6L287.3 329.6L287.3 329.5L287.3 329.5L287.2 329.5L287.1 329.4L287.1 329.3L287.1 329.3L287.1 329.3L287.0 329.2L286.9 329.2L285.5 327.3L284.8 325.0L284.8 325.0L284.8 323.1L285.5 321.0L285.6 320.9L287.5 320.8L296.7 321.9L305.5 327.6L307.8 332.9L307.9 341.4L305.0 353.4L299.5 359.2L298.1 357.0L295.4 355.8L298.8 361.1L297.2 363.8 Z M 292.1 384.2L291.4 381.5L291.4 381.4L301.7 379.3L302.8 381.4L302.2 388.1L298.0 390.3L296.7 389.3L296.7 389.3L295.4 387.6L295.4 387.3L294.6 387.0L294.6 387.0L293.1 385.8 Z M 259.6 341.2L261.7 341.0L261.7 341.0L263.7 341.5L264.7 342.1L264.6 340.8L264.9 338.8L265.0 338.5L265.9 337.0L267.6 335.4L269.6 334.5L269.6 334.5L271.9 334.3L271.9 334.3L273.9 334.8L275.5 335.8L276.9 337.3L277.7 339.0L278.0 341.0L277.7 343.0L276.8 344.8L275.3 346.4L273.2 347.4L270.9 347.7L270.9 347.7L268.8 347.3L267.8 346.6L267.9 347.9L267.5 350L266.2 352.2L264.2 353.7L261.2 354.4L261.2 354.4L259.3 354.2L257.5 353.3L256.1 352.1L255.0 350.4L254.5 347.8L254.5 347.7L254.8 345.5L255.9 343.6L257.6 342.1 Z M 271.6 304.0L271.3 304.0L270.0 303.9L270 303.9L269.4 303.8L267.8 303.0L266.4 301.9L265.3 300.4L264.7 298.7L264.7 298.4L270.5 302.5 Z M 264.6 296.5L265.0 295.0L265.0 295.0L266.3 292.7L267.0 292.3L270.2 296.8L269.7 299.1L269.5 297.1L267.7 296.3L265.1 297.0 Z M 254.5 307.4L252.3 307.0L250.1 305.7L248.5 303.7L247.9 302.0L247.7 300.7L247.8 300.3L248.2 298.3L249.2 296.5L250.7 295.1L251.8 294.6L255.4 295.0L257.2 294.5L259.3 296.0L260.4 297.6L261.1 299.3L261.2 301.2L260.7 303.1L259.7 304.9L259.7 304.9L258.2 306.2L256.4 307.1 Z M 254.3 294.0L254.7 294.0L254.7 294.0L255.3 294.1L254.8 294.2 Z M 234.3 401.4L234.3 400.9L234.8 398.8L236.0 397.0L237.7 395.7L239.7 394.9L241.0 394.7L241.0 394.7L241.4 394.8L243.4 395.2L245.1 396.1L246.5 397.6L247.4 399.4L247.8 401.3L247.8 401.5L242.6 401.4L243.5 402.8L242.8 403.9L238.4 403.4L235.2 404.7L234.6 403.6L234.3 401.4 Z M 244.8 407.0L243.0 407.9L241.0 408.2L241.0 408.2L239.4 408.0L237.3 407.1L236.2 406.0L239.0 404.1L243.5 405.3 Z M 246.9 401.8L247.2 403.9L245.7 403.5 Z M 246.9 401.8 "/>
















</g>
</svg>
