<?xml version="1.0" encoding="UTF-8"?>
<svg xmlns="http://www.w3.org/2000/svg" xmlns:xlink="http://www.w3.org/1999/xlink" width="378pt" height="504pt" viewBox="0 0 378 504" version="1.1">
<g id="data">
<rect x="0" y="0" width="378" height="504" style="fill:rgb(100%,100%,100%);fill-opacity:1;stroke:none;"/>
<path style=" stroke:none;fill-rule:nonzero;fill:rgb(100%,100%,100%);fill-opacity:1;" d="M 21 504L357 504L357 0L21 0 Z M 21 504 "/>
<path style=" stroke:none;fill-rule:nonzero;fill:#C2B855;fill-opacity:1;" d="M 168.7 366.9L170.2 365.6L172.0 364.8L172.0 364.8L173.8 364.5L173.8 364.5L175.9 364.8L176.6 365.2L176.6 364.5L177.0 362.4L177.0 362.3L177.0 362.2L177.0 362.1L177.1 362.0L177.1 362.0L177.1 362.0L177.1 361.9L177.1 361.9L177.1 361.8L177.1 361.8L177.1 361.7L177.1 361.7L177.2 361.6L177.2 361.6L177.2 361.5L177.2 361.4L177.2 361.4L177.2 361.3L177.2 361.3L177.2 361.3L177.2 361.1L177.2 360.8L177.3 359.7L177.3 359.7L177.6 358.9L177.6 358.9L177.6 358.8L177.6 358.8L177.6 358.7L177.6 358.7L177.6 358.7L177.7 358.6L177.7 358.6L177.7 358.6L177.7 358.5L177.7 358.4L177.7 358.4L177.7 358.3L177.7 358.3L177.7 358.3L177.7 358.2L177.7 358.2L177.7 358.1L177.8 358.1L177.8 358.0L177.8 358.0L177.8 358.0L177.8 357.9L177.8 357.8L177.8 357.8L177.8 357.8L177.8 357.6L177.8 357.6L177.8 357.6L177.8 357.5L177.7 357.5L177.7 357.4L177.7 357.3L177.7 357.3L177.7 357.3L177.7 357.2L177.7 357.2L177.7 357.2L177.7 357.1L177.7 357.0L177.7 357L177.6 356.9L177.6 356.6L177.2 355.2L177.4 352.6L178.9 350.0L178.9 349.9L179.0 349.9L179.0 349.8L179.0 349.8L179.0 349.8L179.1 349.8L179.1 349.7L179.1 349.7L179.2 349.6L179.2 349.5L179.2 349.5L179.3 349.4L179.3 349.4L179.3 349.4L179.3 349.3L179.4 349.3L179.4 349.2L179.4 349.2L179.4 349.1L179.4 349.1L179.5 349.1L179.5 349.0L179.5 349.0L179.5 349.0L179.5 348.9L179.5 348.9L179.5 348.9L179.6 348.7L179.6 348.7L179.6 348.7L179.6 348.6L179.6 348.6L179.7 348.5L179.7 348.5L179.7 348.4L179.7 348.4L179.7 348.3L179.7 348.3L179.7 348.3L179.7 348.2L179.7 348.2L179.7 348.2L179.7 348.1L179.7 348.1L179.7 348.0L179.7 348.0L179.7 347.9L179.7 347.9L179.8 347.9L179.8 347.8L179.8 347.8L179.8 347.6L179.8 347.6L179.8 347.6L179.7 347.5L179.7 347.5L179.7 347.4L179.7 347.4L179.7 347.3L179.7 347.3L179.7 347.3L179.7 347.2L179.7 347.2L179.7 347.2L179.7 347.1L179.7 347.1L179.7 347.0L179.7 347.0L179.7 346.9L179.7 346.9L179.6 346.8L179.6 346.8L179.6 346.8L179.6 346.7L179.6 346.6L179.6 346.6L179.5 346.5L179.5 346.5L179.5 346.5L179.5 346.4L179.5 346.4L179.5 346.4L179.4 346.3L179.4 346.2L179.4 346.2L179.4 346.1L179.3 346.1L179.3 346.1L179.3 346.0L179.3 346.0L179.2 345.9L179.2 345.9L179.2 345.8L179.1 345.8L179.1 345.7L179.1 345.7L179.0 345.6L179.0 345.6L179.0 345.6L179.0 345.6L178.9 345.5L178.9 345.5L178.9 345.4L178.2 344.5L178.2 344.5L178.1 344.4L178.1 344.4L178.1 344.4L178.1 344.3L178.0 344.3L178.0 344.2L178.0 344.2L178.0 344.2L177.9 344.1L177.9 344.1L177.9 344.1L177.8 344.0L177.7 343.9L177.7 343.9L177.7 343.9L177.7 343.8L177.6 343.8L177.6 343.8L177.5 343.7L177.5 343.7L177.5 343.7L177.4 343.6L177.4 343.6L177.3 343.6L177.3 343.6L177.3 343.5L177.3 343.5L177.2 343.5L177.2 343.5L177.1 343.4L177.1 343.4L177.0 343.3L175.5 342.0L175.0 341.3L175.6 339.5L174.2 335.0L176.0 330.8L173.9 327.7L174.4 323.4L170.5 324L170.6 323.1L170.6 323.0L170.6 323.0L170.6 322.9L170.6 322.9L170.6 322.7L170.6 322.7L170.6 322.7L170.6 322.6L170.6 322.6L170.6 322.5L170.6 322.4L170.6 322.3L170.6 322.3L170.6 322.3L170.6 322.2L170.6 322.2L170.6 322.0L170.6 322.0L170.6 321.9L170.5 320.7L170.5 320.7L171 318.3L172.4 316.1L172.4 316.1L172.9 315.7L172.9 315.6L173.0 315.6L173.0 315.5L173.1 315.5L173.1 315.5L173.1 315.5L173.1 315.4L173.2 315.4L173.2 315.3L173.3 315.3L173.4 315.2L173.4 315.2L173.4 315.1L173.4 315.1L173.4 315.1L173.5 315.0L173.5 315.0L173.5 315.0L173.6 314.8L173.7 314.7L173.7 314.7L173.7 314.7L173.7 314.6L173.7 314.6L173.8 314.6L173.8 314.5L173.8 314.5L173.8 314.4L173.8 314.4L173.9 314.3L173.9 314.3L173.9 314.3L173.9 314.2L174.0 314.1L174.0 314.0L174.0 314.0L174.0 314L174.0 313.9L174.0 313.8L174.0 313.7L174.1 313.7L174.1 313.6L174.1 313.6L174.1 313.6L174.1 313.5L174.1 313.5L174.1 313.4L174.1 313.4L174.1 313.4L174.1 313.3L174.1 313.3L174.1 313.3L174.1 313.2L174.1 313.2L174.1 313.1L174.1 313.0L174.1 313.0L174.1 312.9L174.1 312.9L174.1 312.9L174.1 312.8L174.1 312.8L174.1 312.7L174.1 312.7L174.1 312.6L174.1 312.6L174.1 312.6L174.1 312.5L174.0 312.5L174.0 312.4L174.0 312.3L174.0 312.3L174.0 312.2L181.0 309.7L187.0 310.0L192.7 307.7L197.9 311.5L198.3 310.6L195.9 306.3L198.7 305.4L202.8 310.1L205.2 309.9L206.9 307.7L203.5 308.8L201.3 307.3L197.9 300.1L200.9 294.8L202.7 293.8L199.3 292.2L199.3 286.9L202.0 285.2L204.3 280.3L204.8 275.1L197.3 280.3L195.6 279.6L191.8 272.9L191.3 270.2L190.7 269.4L191.4 267.3L192.7 265.5L194.6 264.3L196.8 263.7L197.7 263.7L199.6 264.1L199.6 264.1L199.7 264.1L199.7 264.1L199.8 264.1L199.8 264.2L199.8 264.2L199.9 264.2L199.9 264.2L200.0 264.2L200.0 264.2L200.1 264.2L200.1 264.2L200.2 264.2L200.2 264.2L200.2 264.3L200.3 264.3L200.3 264.3L200.4 264.3L200.5 264.3L200.5 264.3L200.5 264.3L200.6 264.3L200.6 264.3L200.7 264.3L200.7 264.3L200.8 264.3L200.9 264.3L200.9 264.3L200.9 264.3L201.0 264.3L201.0 264.3L201.0 264.3L201.1 264.3L201.2 264.3L201.2 264.2L201.3 264.2L201.3 264.2L201.3 264.2L201.4 264.2L201.4 264.2L201.5 264.2L201.5 264.2L201.6 264.2L201.8 264.1L201.8 264.1L201.9 264.1L204.3 263.7L205.2 263.8L205.2 263.8L205.3 263.8L205.3 263.8L205.4 263.8L205.4 263.8L205.4 263.8L205.5 263.8L205.5 263.8L205.6 263.8L205.6 263.8L205.6 263.8L205.9 263.8L205.9 263.8L206 263.8L206.0 263.8L206.1 263.8L206.2 263.8L206.2 263.8L206.2 263.8L206.3 263.8L206.3 263.8L207.2 263.7L208.5 263.8L208.6 263.8L208.7 263.8L208.7 263.8L208.8 263.8L208.8 263.8L208.9 263.8L208.9 263.8L209.0 263.8L209.2 263.8L209.3 263.8L209.3 263.8L209.3 263.8L209.4 263.8L209.4 263.8L209.5 263.8L209.5 263.8L209.6 263.8L209.6 263.8L209.7 263.8L210.0 263.8L210.6 263.7L210.6 263.7L213.0 264.1L215.1 265.3L216.7 267.2L217.3 268.7L217.5 270.3L217.5 270.3L217.5 270.8L217.1 272.6L217.1 272.7L217.1 272.8L217.1 272.8L217.1 272.9L217.0 272.9L217.0 273.0L217.0 273.0L217.0 273.1L217.0 273.2L217.0 273.2L217.0 273.3L217.0 273.3L217.0 273.3L217.0 273.4L217.0 273.4L217 273.4L216.9 273.5L216.9 273.5L216.9 273.6L216.9 273.6L216.9 273.6L216.9 273.7L216.9 273.7L216.9 273.9L216.9 274.0L216.9 274.0L216.9 274.0L216.9 274.1L216.9 274.1L216.9 274.1L217 274.2L217.0 274.2L217.0 274.3L217.0 274.3L217.0 274.3L217.0 274.4L217.0 274.4L217.0 274.4L217.0 274.5L217.0 274.6L217.0 274.6L217.0 274.7L217.1 274.7L217.1 274.7L217.1 274.8L217.1 274.8L217.1 274.8L217.1 274.9L217.1 274.9L217.1 274.9L217.1 275.0L217.2 275.0L217.2 275.0L217.2 275.1L217.2 275.1L217.2 275.2L217.2 275.2L217.3 275.3L217.3 275.3L217.3 275.3L217.3 275.3L217.3 275.4L217.3 275.4L217.4 275.4L217.4 275.5L217.5 275.6L217.5 275.7L217.5 275.7L217.6 275.8L217.6 275.8L217.6 275.9L217.6 275.9L217.7 275.9L217.7 275.9L217.7 276.0L217.7 276.0L217.8 276.1L217.8 276.1L217.8 276.1L217.9 276.1L217.9 276.2L217.9 276.2L217.9 276.2L218.0 276.2L218.0 276.3L218.1 276.4L218.1 276.4L218.2 276.4L218.2 276.4L218.2 276.5L218.3 276.5L218.3 276.5L218.4 276.6L218.5 276.6L218.5 276.6L218.6 276.7L218.6 276.7L218.6 276.7L218.7 276.7L218.7 276.8L218.7 276.8L218.8 276.8L218.8 276.8L218.8 276.8L218.9 276.8L218.9 276.9L219.0 276.9L219.0 276.9L219.1 276.9L219.1 277.0L219.2 277.0L219.2 277.0L219.3 277.0L219.3 277.0L219.4 277.0L219.4 277.0L219.5 277.1L219.5 277.1L219.5 277.1L219.6 277.1L219.7 277.1L219.7 277.1L219.8 277.1L219.8 277.1L219.9 277.1L219.9 277.1L219.9 277.1L220.0 277.1L220.0 277.2L220.0 277.2L220.1 277.2L220.1 277.2L220.1 277.2L220.2 277.2L220.4 277.2L220.4 277.2L220.4 277.2L220.5 277.2L220.6 277.2L220.8 277.1L220.9 277.1L221.0 277.1L221.0 277.1L221.1 277.1L221.1 277.1L221.1 277.1L221.2 277.1L221.2 277.1L221.2 277.1L221.3 277.1L221.3 277.1L221.4 277.1L221.4 277.1L221.4 277.1L221.5 277.1L221.5 277.1L221.5 277.1L221.6 277.1L221.6 277.1L221.7 277.0L221.8 277.0L221.8 277.0L221.9 277.0L221.9 277.0L222.0 277.0L222.0 277.0L222.0 276.9L222.1 276.9L222.2 276.9L222.2 276.9L222.3 276.8L222.4 276.8L222.4 276.8L222.4 276.8L222.5 276.7L222.5 276.7L222.5 276.7L222.6 276.7L222.6 276.6L222.7 276.6L222.8 276.6L222.8 276.5L222.8 276.5L222.8 276.5L222.9 276.5L222.9 276.5L223.0 276.4L223.0 276.4L223.1 276.3L223.1 276.3L223.1 276.3L223.1 276.3L223.2 276.2L223.2 276.2L223.2 276.2L223.2 276.2L223.3 276.1L223.3 276.1L223.3 276.1L223.4 276.0L223.4 276.0L223.4 275.9L223.5 275.9L223.5 275.9L223.5 275.8L223.6 275.8L223.6 275.8L223.6 275.7L223.6 275.7L223.6 275.7L223.7 275.6L223.7 275.6L223.7 275.6L223.7 275.5L223.8 275.5L223.8 275.4L223.8 275.4L223.8 275.4L223.9 275.3L223.9 275.3L223.9 275.3L223.9 275.2L223.9 275.2L224.0 275.1L224.0 275.1L224.0 275.0L224.0 275.0L224.1 274.7L224.1 274.7L224.1 274.6L224.1 274.6L224.1 274.5L224.2 274.5L224.2 274.4L224.2 274.4L224.2 274.3L224.2 274.3L224.2 274.3L224.2 274.2L224.2 274.2L224.2 274.2L224.2 274.1L224.2 274.1L224.2 274.0L224.2 274.0L224.2 274.0L224.2 273.9L224.2 273.9L224.2 273.7L224.3 272.7L224.3 272.6L224.3 272.6L224.3 272.5L224.4 272.4L224.4 272.4L224.4 272.3L224.4 272.3L224.4 272.3L224.4 272.2L224.4 272.0L224.4 271.9L224.4 271.9L224.4 271.8L224.4 271.8L224.3 271.7L224.3 271.7L224.3 271.7L224.3 271.6L224.3 271.5L224.2 270.1L224.6 268.2L224.6 268.2L224.6 268.1L224.6 268.1L224.7 268.0L224.7 268.0L224.7 267.9L224.7 267.9L224.7 267.8L224.7 267.7L224.8 267.7L224.8 267.6L224.8 267.6L224.8 267.5L224.8 267.5L224.8 267.5L224.8 267.4L224.8 267.4L224.8 267.4L224.8 267.3L224.8 267.3L224.8 267.3L224.8 267.2L224.8 267.2L224.8 267.1L224.8 267.0L224.8 267.0L224.8 266.9L224.8 266.9L224.8 266.8L224.8 266.8L224.8 266.8L224.8 266.7L224.8 266.7L224.8 266.7L224.8 266.6L224.8 266.6L224.8 266.5L224.8 266.5L224.7 266.4L224.7 266.3L224.7 266.3L224.7 266.2L224.7 266.2L224.7 266.2L224.7 266.1L224.6 266.1L224.6 265.9L224.4 265.3L224.3 264.9L224.3 264.9L224.2 264.0L224.2 264.0L224.3 262.6L224.3 262.6L224.3 262.5L224.3 262.5L224.3 262.4L224.3 262.4L224.4 262.4L224.4 262.3L224.4 262.3L224.4 262.3L224.4 262.2L224.4 262.2L224.4 262.2L224.4 261.9L224.4 261.9L224.4 261.8L224.4 261.8L224.4 261.7L224.4 261.7L224.3 261.6L224.3 261.6L224.3 261.5L224.3 261.4L224.2 260.2L224.2 260.2L224.4 258.8L224.4 258.8L224.4 258.7L224.4 258.7L224.4 258.6L224.5 258.5L224.5 258.5L224.5 258.5L224.5 258.4L224.5 258.4L224.5 258.4L224.5 258.3L224.5 258.3L224.5 258.3L224.5 258.2L224.5 258.2L224.5 258.1L224.5 257.9L224.5 257.9L224.5 257.8L224.5 257.8L224.5 257.8L224.5 257.7L224.5 257.7L224.5 257.6L224.5 257.6L224.5 257.5L224.5 257.5L224.5 257.5L224.5 257.4L224.4 257.4L224.4 257.3L224.4 257.3L224.4 257.2L224.4 257.2L224.4 257.2L224.4 257.1L224.4 257.1L224.4 257.0L224.3 256.9L224.3 256.9L224.3 256.8L224.2 256.7L224.2 256.7L224.2 256.6L224.2 256.6L224.2 256.6L224.2 256.5L224.1 256.5L224.1 256.5L224.1 256.4L224.1 256.4L224.0 256.3L224.0 256.3L224.0 256.2L224 256.2L223.9 256.1L223.9 256.1L223.9 256.1L223.9 256.1L223.8 256.0L223.8 256.0L223.8 255.9L223.7 255.9L223.6 255.8L223.6 255.7L223.6 255.7L223.6 255.7L223.5 255.7L223.5 255.6L223.4 255.6L223.4 255.5L223.4 255.5L223.3 255.5L223.3 255.4L222.8 255.0L221.8 253.6L221.1 251.9L220.9 250.2L220.9 250.2L220.9 249.5L221.8 246.9L221.8 246.9L221.8 246.8L221.8 246.8L221.9 246.8L221.9 246.7L221.9 246.7L221.9 246.6L221.9 246.6L221.9 246.6L222.0 246.5L222.0 246.5L222.0 246.5L222.0 246.4L222.0 246.4L222.1 246.2L222.1 246.2L222.1 246.2L222.1 246.1L222.1 246.1L222.1 246.0L222.1 246.0L222.6 244.7L221.5 243.1L221.5 243.1L221 241.2L220.9 239.3L220.9 239.3L221.1 238.6L221.1 238.6L221.8 236.8L221.8 236.8L223.0 235.3L223.2 235.1L223.0 235.1L221.8 233.5L221.8 233.5L220.9 230.6L220.9 230.1L221.2 228.1L222.1 226.2L223.5 224.8L225.3 223.8L227.3 223.4L227.3 223.4L228.6 223.5L230.3 224.4L232.1 235.1L232.0 235.1L232.1 235.2L233.0 240.5L233.8 242.5L233.6 243.1L234.5 244.2L234.5 244.2L234.5 244.3L234.5 244.3L234.6 244.3L234.6 244.4L234.6 244.4L234.6 244.4L234.7 244.5L234.7 244.5L234.7 244.5L234.7 244.6L234.8 244.6L234.8 244.6L234.8 244.6L234.8 244.7L234.8 244.7L234.9 244.7L234.9 244.7L235.9 247.0L237.8 254.9L240.7 259.1L253.8 265.3L258.0 273.6L260.7 276.5L264.9 278.8L262.7 280.0L261.9 282.5L264.0 288.1L270.2 296.8L269.7 299.1L269.5 297.1L267.7 296.3L265.1 297.0L260.9 293.0L254.8 294.2L252.9 293.4L251.0 294.5L255.4 295.0L260.3 293.8L262.4 296.8L270.5 302.5L272.5 305.2L275.1 311.3L275.3 316.5L267.8 324.8L269.7 324.4L273.3 327.7L276.1 328.3L280.0 321.2L287.5 320.8L296.7 321.9L305.5 327.6L307.8 332.9L307.9 341.4L305.0 353.4L299.5 359.2L298.1 357.0L295.4 355.8L298.8 361.1L297.2 363.8L293.3 365.4L291.7 363.4L285.2 367.6L286.6 368.6L290.6 366.7L291.2 371.6L287.6 374.8L284.3 374.5L280.1 375.9L278.2 377.9L281.7 376.4L285.5 376.9L286.1 378.1L284.2 378.1L282.4 379.3L282.9 380.0L290.6 381.6L301.7 379.3L302.8 381.4L302.2 388.1L294.3 392.3L292.8 394.4L292.8 396.8L288.2 396.8L285.5 399.4L278.2 401.9L275.7 404.6L263.9 401.7L254.0 403.6L251.1 405.7L248.4 404.0L249.5 402.9L248.0 401.5L242.6 401.4L243.5 402.8L242.8 403.9L238.4 403.4L232.2 405.9L224.1 406.4L221.6 405.6L220.7 407.1L223.7 408.1L223.6 410.7L221.2 411.1L213.2 409.0L211.5 410.6L212.2 412.7L206.9 407.8L200.8 405.6L200.7 404.9L200.7 404.7L200.7 404.7L200.7 404.6L200.7 404.6L200.7 404.6L200.7 404.5L200.7 404.5L200.7 404.5L200.7 404.4L200.7 404.4L200.7 404.3L200.7 404.3L200.7 404.3L200.7 404.2L200.6 404.2L200.6 404.2L200.6 404.1L200.6 404.0L200.6 404.0L200.6 404L200.6 403.9L200.6 403.9L200.5 403.8L200.5 403.8L200.5 403.7L200.5 403.7L200.5 403.7L200.5 403.6L200.5 403.6L200.5 403.6L200.4 403.5L200.4 403.5L200.4 403.5L200.4 403.4L200.4 403.4L200.4 403.3L200.3 403.3L200.3 403.3L200.3 403.2L200.3 403.2L200.3 403.2L200.2 403.1L200.2 403.0L200.1 403.0L200.1 402.9L200.1 402.9L200.1 402.8L200.0 402.8L200.0 402.8L200.0 402.8L200.0 402.7L200 402.7L199.9 402.7L199.9 402.6L199.8 402.6L199.8 402.5L199.8 402.5L199.7 402.5L199.7 402.4L199.7 402.4L199.6 402.4L199.6 402.4L199.6 402.3L199.5 402.3L199.5 402.2L199.4 402.2L199.4 402.2L199.4 402.2L199.4 402.1L199.3 402.1L199.3 402.1L199.2 402.1L199.2 402.0L199.1 401.9L199.0 401.9L199.0 401.9L199.0 401.9L198.9 401.9L198.9 401.8L198.9 401.8L198.8 401.8L198.8 401.8L198.8 401.8L198.7 401.8L198.7 401.8L198.7 401.7L198.6 401.7L198.6 401.7L198.5 401.7L198.4 401.7L198.4 401.6L198.4 401.6L198.3 401.6L198.3 401.6L198.2 401.6L198.2 401.6L198.2 401.6L198.1 401.6L198.1 401.5L198.0 401.5L197.9 401.5L197.9 401.5L197.9 401.5L197.8 401.5L197.8 401.5L197.8 401.5L197.7 401.5L197.6 401.5L197.6 401.5L197.5 401.5L197.5 401.5L197.3 401.5L196.8 401.5L195.4 401.2L194.3 400.8L192.5 399.4L191.2 397.5L190.6 395.2L190.6 394.8L190.6 394.7L191.0 392.6L192.0 390.7L193.5 389.2L193.7 389.1L193.8 389.1L193.8 389.0L193.9 389.0L193.9 389.0L193.9 389.0L193.9 388.9L194.0 388.9L194.0 388.9L194.0 388.9L194.1 388.8L194.1 388.8L194.2 388.7L194.2 388.7L194.2 388.7L194.3 388.7L194.4 388.5L194.4 388.5L194.5 388.5L194.5 388.4L194.5 388.4L194.6 388.3L194.6 388.3L194.6 388.3L194.6 388.3L194.6 388.2L194.7 388.2L194.7 388.2L194.7 388.1L198.4 387.8L200.1 381.5L213.6 366.8L207.1 372.6L205.9 373.9L196.6 377.1L194.9 380.7L194.0 380.7L194.0 380.5L194.2 379.8L194.2 379.7L194.2 379.7L194.2 379.6L194.2 379.6L194.2 379.5L194.2 379.5L194.2 379.5L194.2 379.4L194.2 379.4L194.2 379.3L194.2 379.3L194.3 379.2L194.3 379.2L194.3 379.2L194.3 379.1L194.3 379.1L194.3 379.0L194.3 379L194.3 378.9L194.3 378.8L194.3 378.8L194.3 378.8L194.3 378.7L194.3 378.7L194.2 378.7L194.2 378.6L194.2 378.6L194.2 378.5L194.2 378.5L194.2 378.5L194.2 378.4L194.2 378.4L194.2 378.4L194.2 378.3L194.2 378.1L194.1 378.1L194.1 378.1L194.1 378.0L194.1 378.0L194.1 377.8L194.0 377.8L194.0 377.8L194.0 377.7L194.0 377.7L194.0 377.6L193.9 377.6L193.9 377.5L193.9 377.5L193.9 377.5L193.9 377.4L193.9 377.4L193.8 377.4L193.8 377.3L193.8 377.3L193.7 377.1L193.7 377.1L193.6 377.0L193.6 377.0L193.6 377.0L193.6 377.0L193.6 376.9L193.5 376.9L193.5 376.9L193.4 376.8L193.4 376.8L193.4 376.7L193.4 376.7L193.3 376.7L193.3 376.6L193.3 376.6L193.3 376.6L193.2 376.6L193.2 376.5L193.2 376.5L193.2 376.5L193.1 376.4L193.1 376.4L193.0 376.4L192.3 375.7L192.3 375.7L192.3 375.6L192.2 375.6L192.2 375.6L192.2 375.6L192.2 375.5L192.1 375.5L192.1 375.5L192.1 375.4L192.0 375.4L192.0 375.4L192 375.3L191.9 375.3L191.9 375.3L191.8 375.2L191.8 375.2L191.8 375.2L191.7 375.2L191.7 375.2L191.7 375.1L191.5 375.0L191.5 375.0L191.4 375.0L191.4 374.9L191.3 374.9L191.3 374.9L191.3 374.9L191.2 374.9L191.2 374.9L191.2 374.8L191.1 374.8L191.1 374.8L191.1 374.8L191.0 374.8L191.0 374.8L190.8 374.7L190.7 374.7L190.7 374.7L190.7 374.7L190.6 374.7L190.5 374.6L190.5 374.6L190.4 374.6L190.4 374.6L190.3 374.6L190.3 374.6L190.3 374.6L190.2 374.6L190.2 374.6L190.1 374.6L190.0 374.6L189.9 374.5L187.6 373.9L185.8 372.5L185.7 372.4L185.7 372.4L185.6 372.4L185.6 372.4L185.6 372.3L185.6 372.3L185.5 372.3L185.5 372.2L185.5 372.2L185.4 372.1L185.3 372.1L185.3 372.1L185.3 372.1L185.3 372.1L185.2 372.0L185.2 372.0L185.2 372.0L185.1 372.0L185.1 372L185.0 371.9L185 371.9L184.9 371.8L184.9 371.8L184.9 371.8L184.8 371.8L184.7 371.7L184.7 371.7L184.6 371.7L184.6 371.7L184.6 371.7L184.5 371.6L184.5 371.6L184.4 371.6L184.2 371.5L184.2 371.5L184.1 371.5L184.0 371.5L184.0 371.5L184.0 371.5L183.9 371.5L183.9 371.5L183.8 371.5L183.8 371.4L183.7 371.4L183.7 371.4L183.7 371.4L183.6 371.4L183.6 371.4L183.5 371.4L183.5 371.4L183.5 371.4L183.4 371.4L183.3 371.4L183.2 371.4L181.1 371.1L180.5 370.7L180.5 371.5L180.3 372.6L179.8 371.9L171.2 375.0L169.5 374.0L169.3 372.0L173.4 371.3L174.4 369.7L170.0 369.5L167.8 368.2 Z M 173.9 311.5L173.8 311.0L173.8 311.0L173.8 310.8L173.8 310.7L174.2 308.6L174.3 308.4L176.8 308.9 Z M 198.8 246.1L200.3 244.7L202.1 243.8L204.1 243.5L204.1 243.5L205.4 243.7L207.3 244.4L208.9 245.6L210.1 247.3L210.7 249.2L210.8 250.7L210.8 250.8L210.4 252.4L209.5 254.2L208.4 255.4L206.9 256.4L206.9 256.4L204.2 257.0L204.1 257.0L204.1 257.0L202.2 256.7L200.4 255.9L199.0 254.6L197.9 253.0L197.4 250.6L197.7 248.4L198.8 248.4L200.5 248.0L200.6 247.1L198.4 246.9 Z M 180.6 209.5L181.1 207.2L182.4 205.3L184.3 203.9L187.1 203.2L189.2 203.5L191.2 204.5L192.8 206.1L193.7 207.9L193.4 208.0L189.5 206.3L186.2 206.2L186.5 207.3L193.9 209.1L194.0 210L193.3 213.0L193.3 213.0L191.8 214.9L189.7 216.2L187.4 216.7L185.2 216.3L183.2 215.3L181.7 213.7L180.8 211.7L180.6 209.5 Z M 185.3 418.0L183.9 418.3L183.7 418.3L183.0 418.2L181.8 417.9L181.2 417.7L179.3 416.4L177.9 414.5L177.2 412.3L177.3 410.4L177.3 410.4L177.8 408.7L178.7 407.2L180.1 406.0L181.7 405.2L183.5 404.8L183.5 404.8L184.6 404.9L184.6 404.9L186.7 405.4L188.5 406.6L189.8 408.3L189.8 408.3L190.1 409.1L188.4 410.1 Z M 244.9 407.2L242.4 410.4L239.7 411.3L234.6 408.1L232.8 408.3L239.0 404.1L243.5 405.3 Z M 246.9 401.8L247.2 403.9L245.7 403.5 Z M 291.5 380.3L290.4 381.0L287.3 380.4L286.8 377.9L290.5 378.7 Z M 291.5 380.3 "/>
<path style=" stroke:none;fill-rule:nonzero;fill:#C2B855;fill-opacity:1;" d="M 39.0 348.9L39.0 347.7L39.2 347.1L39.2 347.0L39.2 346.9L39.2 346.9L39.2 346.9L39.2 346.8L39.2 346.8L39.2 346.8L39.2 346.7L39.2 346.7L39.3 346.6L39.3 346.6L39.3 346.5L39.3 346.5L39.3 346.5L39.3 346.4L39.3 346.4L39.3 346.3L39.3 346.3L39.3 346.2L39.3 346.1L39.3 346.0L39.3 345.9L39.2 345.3L41.1 344.0L43.5 343.7L43.7 343.0L42.3 342.6L39.6 343.3L39.7 342.8L41.0 340.8L43.0 339.3L43.0 339.3L43.5 339.2L44.6 339.1L44.3 338.9L44.5 338.8L46.1 338.6L46.1 338.6L48.4 339.1L50.4 340.3L51.9 342.1L52.6 344.4L52.7 345.4L52.7 345.5L52.7 345.6L52.7 345.7L52.7 345.8L52.7 345.8L52.7 345.9L52.7 345.9L52.7 345.9L52.7 346.0L52.7 346.0L52.7 346.1L52.7 346.1L52.8 346.2L52.8 346.2L52.8 346.3L52.8 346.3L52.8 346.4L52.8 346.4L52.8 346.4L52.8 346.5L52.8 346.5L52.9 346.5L52.9 346.6L53.2 348.8L53.2 349.1L53.5 349L55.7 348.8L55.7 348.8L55.7 348.8L55.8 348.8L55.8 348.8L55.8 348.8L55.9 348.8L55.9 348.8L56.0 348.8L56.1 348.8L57.2 349.0L58.1 348.1L58.1 348.1L59.5 347.3L61.0 346.9L61.0 346.9L61.4 346.8L61.8 346.6L61.9 346.6L61.9 346.5L61.9 346.5L62.0 346.5L62.0 346.5L62.1 346.4L62.1 346.4L62.3 346.3L62.3 346.3L62.3 346.3L62.4 346.2L62.4 346.2L62.4 346.2L62.5 346.2L62.5 346.2L62.6 346.1L62.6 346.0L62.7 346.0L62.7 346.0L62.7 346.0L62.8 345.9L62.8 345.8L62.8 345.8L62.9 345.8L62.9 345.7L63 345.7L63.0 345.7L63.0 345.7L63.0 345.6L63.0 345.6L63.1 345.6L63.1 345.5L63.1 345.5L63.1 345.5L63.1 345.4L63.2 345.4L63.3 345.3L63.3 345.3L63.3 345.2L63.3 345.2L63.3 345.2L63.3 345.1L63.4 345.1L63.4 345.1L63.4 345.0L63.4 345.0L63.4 345.0L63.4 344.9L63.5 344.9L63.5 344.9L63.5 344.8L63.5 344.8L63.5 344.8L63.5 344.7L63.5 344.7L63.6 344.5L63.6 344.5L63.6 344.4L63.6 344.4L63.6 344.4L63.6 344.3L63.7 344.3L63.7 344.3L63.7 344.2L63.7 344.1L63.7 344.1L63.7 344.0L63.7 344.0L63.7 344.0L63.7 343.9L63.7 343.9L63.7 343.8L63.7 343.8L63.7 343.7L63.7 343.7L63.7 343.7L63.7 343.4L63.7 343.4L63.7 343.4L63.7 343.3L63.7 343.3L63.7 343.2L63.7 343.1L63.7 343.1L63.7 343.1L63.7 343.0L63.7 343.0L63.7 343.0L63.7 342.9L63.7 342.9L63.7 342.9L63.7 342.8L63.6 342.8L63.6 342.7L63.6 342.7L63.6 342.6L63.6 342.6L63.6 342.5L63.5 342.0L63.4 342.0L63.4 341.9L63.4 341.9L63.4 341.8L63.4 341.8L63.4 341.7L63.4 341.7L63.3 341.6L63.3 341.5L63.3 341.5L63.3 341.5L63.3 341.4L63.3 341.4L63.2 341.4L63.2 341.3L63.2 341.3L63.2 341.3L63.2 341.2L63.2 341.2L63.1 341.1L63.1 341.1L63.1 341.1L63.1 341.0L63.0 341.0L63.0 340.9L63.0 340.9L62.9 340.8L62.9 340.8L62.9 340.7L62.9 340.7L62.8 340.7L62.8 340.6L62.8 340.6L62.7 340.6L62.7 340.5L62.6 340.4L62.6 340.4L62.6 340.4L62.5 340.3L62.4 340.2L62.4 340.2L62.3 340.1L62.2 340.1L62.2 340.1L62.2 340.0L62.2 340.0L62.1 340.0L62.1 340.0L62.1 339.9L62.0 339.9L62 339.9L61.9 339.8L61.8 339.8L61.8 339.8L61.8 339.8L61.7 339.7L61.7 339.7L61.7 339.7L61.6 339.7L61.6 339.7L61.5 339.6L61.5 339.6L61.4 339.6L61.4 339.6L59.9 338.8L58.5 337.4L58.5 337.3L58.4 337.3L58.4 337.3L58.4 337.2L58.4 337.2L58.3 337.2L58.3 337.1L58.2 337.1L58.1 336.9L58.1 336.9L58.0 336.9L58 336.8L57.9 336.8L57.9 336.7L57.8 336.7L57.8 336.7L57.8 336.7L57.7 336.6L57.7 336.6L57.7 336.6L57.7 336.6L57.5 336.5L57.5 336.5L57.4 336.4L57.4 336.4L57.4 336.4L57.3 336.4L57.3 336.4L57.3 336.3L57.2 336.3L57.2 336.3L57.2 336.3L57.1 336.3L57.1 336.3L57.0 336.2L57.0 336.2L57.0 336.2L56.9 336.2L56.9 336.2L56.9 336.2L56.8 336.2L56.7 336.1L56.7 336.1L56.7 336.1L56.6 336.1L56.6 336.1L56.4 336.1L56.4 336.1L56.4 336.1L56.3 336.0L54.4 335.4L52.5 333.9L51.4 332.5L51.4 332.4L51.4 332.4L51.4 332.3L51.4 332.3L51.3 332.3L51.3 332.2L51.2 332.0L51.2 332.0L51.1 332L51.1 331.9L51.1 331.9L51.0 331.8L51.0 331.8L51.0 331.8L51.0 331.8L50.9 331.6L50.8 331.6L50.8 331.5L50.8 331.5L50.7 331.5L50.7 331.4L50.6 331.4L50.6 331.3L50.5 331.3L50.5 331.3L50.5 331.3L50.4 331.2L50.4 331.2L48.4 328.8L48.3 328.7L48.3 328.7L48.3 328.7L48.3 328.6L48.2 328.6L48.2 328.5L49.1 327.8L56.6 328.1L65.6 326.0L71.8 326.2L65.2 324.6L64.9 321.5L63.5 322.4L61.2 325.6L59.4 326.7L56.8 327.3L56.4 326.3L53.5 326.4L50.9 324.7L46.6 326.9L45.5 325.7L45.4 325.2L50.1 321.8L52.5 320.6L56.0 315.3L54.7 314.1L54.9 313.0L59.0 307.8L59.8 307.4L61.9 307.7L66.6 307.1L67.4 305.5L66.3 304.9L66.5 303.5L65.9 303.2L54.2 303.3L53.1 301.9L52.1 302.1L53.2 298.0L52.2 298.6L51.4 297.9L48.7 299.8L46.9 299.6L46.4 298.1L48.0 296.4L47.1 295.4L44.4 296.4L40.7 294.6L42.5 293.5L43.0 292.6L41.3 291.1L41.1 289.7L42.7 289.3L44.4 289.6L44.5 288.4L45.0 288.2L48.0 288.2L50.7 289.0L48.4 287.9L47.3 286.5L47.1 284.8L48.0 283.0L49.7 282.4L54.8 282.0L54.2 280.9L55.2 279.3L54.8 278.7L51.8 278.0L48.4 278.4L48.2 278.2L48.2 278.2L48.2 278.1L48.3 278.0L48.3 278.0L48.3 277.9L48.7 276.2L49.0 275.5L50.6 276.2L49.8 274.3L51.2 272.9L53.3 272.0L53.4 272.0L55.0 271.8L55.1 271.8L55.1 271.8L55.2 271.8L55.3 271.8L55.3 271.8L55.4 271.8L55.4 271.8L55.5 271.7L55.5 271.7L55.5 271.7L55.6 271.7L55.6 271.7L55.7 271.7L55.9 271.7L55.9 271.7L55.9 271.6L56.1 271.6L56.1 271.6L56.2 271.6L56.2 271.5L56.3 271.5L56.3 271.5L56.4 271.5L56.4 271.5L56.4 271.5L56.5 271.4L56.5 271.4L56.6 271.4L56.6 271.4L56.6 271.4L56.7 271.3L56.7 271.3L56.7 271.3L56.8 271.2L56.9 271.2L56.9 271.2L56.9 271.2L57.0 271.2L57.0 271.1L57.0 271.1L57.0 271.1L57.1 271.0L57.1 271.0L57.2 270.9L57.3 270.9L57.3 270.9L57.3 270.8L58.9 269.7L59.0 269.7L59.0 269.7L59.1 269.6L59.1 269.6L59.1 269.6L59.2 269.6L59.3 269.5L59.3 269.5L59.3 269.5L59.4 269.5L59.4 269.4L59.4 269.4L59.5 269.4L59.5 269.4L59.5 269.4L59.7 269.2L59.7 269.2L59.7 269.2L59.8 269.1L59.8 269.1L59.9 269.0L59.9 269.0L59.9 269.0L60.0 268.9L60.0 268.8L60.1 268.8L60.1 268.8L60.1 268.8L60.1 268.7L60.2 268.7L60.2 268.6L61.6 267.3L61.6 267.2L61.6 267.2L61.7 267.2L61.7 267.2L61.8 267.1L61.8 267.0L61.9 267.0L62.0 266.9L62.0 266.9L62.1 266.8L62.1 266.7L62.2 266.7L62.2 266.7L62.2 266.6L62.2 266.6L62.3 266.6L62.3 266.6L62.3 266.5L62.3 266.5L62.4 266.4L62.4 266.4L62.4 266.4L62.4 266.3L62.5 266.3L62.5 266.3L62.5 266.2L62.5 266.2L62.5 266.1L62.6 266.1L62.6 266.1L62.6 266.1L62.6 266.0L62.6 266.0L62.6 266L62.7 265.9L62.7 265.9L62.7 265.8L62.7 265.8L62.7 265.8L62.7 265.7L62.8 265.7L62.8 265.6L62.8 265.5L62.8 265.5L62.8 265.4L62.8 265.4L62.8 265.4L62.9 265.2L62.9 265.2L62.9 265.1L62.9 265.1L63.4 263.7L64.5 264.9L64.5 266.3L66.1 269.2L68.3 265.6L69.5 264.9L76.0 266.5L79.1 268.4L78.4 266.8L80.0 265.9L79.6 264.5L77.7 263.8L77.6 262.9L82.0 260.0L86.6 258.6L89.3 253.9L86.8 254.1L85.6 253.7L83.1 255.0L83.5 254.2L83.3 253.7L81.7 253.6L81.8 253.6L83.1 252.2L83.2 252.2L83.2 252.2L83.2 252.1L83.3 252.1L83.3 252.1L83.3 252.1L83.3 252.0L83.4 252.0L83.4 252.0L83.5 251.9L83.5 251.9L83.5 251.9L83.5 251.9L83.6 251.8L83.6 251.8L83.6 251.8L83.7 251.7L83.7 251.7L83.7 251.6L83.8 251.6L83.8 251.6L83.8 251.6L83.8 251.5L83.8 251.5L83.9 251.5L83.9 251.4L83.9 251.4L84 251.3L84.0 251.3L84.0 251.3L84.1 251.2L84.1 251.1L84.1 251.1L84.1 251.1L84.1 251.0L84.2 251.0L84.2 250.9L84.2 250.9L84.2 250.8L84.2 250.8L84.3 250.8L84.3 250.7L84.3 250.7L84.3 250.6L84.3 250.6L84.4 250.5L84.4 250.5L84.4 250.4L84.4 250.4L84.4 250.3L84.4 250.3L84.4 250.2L84.4 250.2L84.4 250.1L84.5 250.1L84.5 250.0L85.1 248.1L86.3 246.4L87.9 245.2L88.0 245.2L88.0 245.2L88.1 245.2L88.1 245.1L88.2 245.1L88.3 245.0L88.3 245.0L88.3 245.0L88.4 245.0L88.4 245.0L88.4 244.9L88.4 244.9L88.5 244.9L88.5 244.9L88.6 244.8L88.6 244.8L88.7 244.7L88.7 244.7L88.9 244.6L88.9 244.5L88.9 244.5L89.0 244.4L89.0 244.3L89.1 244.3L89.1 244.3L89.1 244.2L89.1 244.2L89.2 244.2L89.2 244.2L89.2 244.1L89.2 244.1L89.3 243.9L89.4 243.9L89.4 243.8L89.4 243.8L89.4 243.8L89.4 243.7L89.4 243.7L89.5 243.7L89.5 243.6L89.5 243.6L89.5 243.6L89.5 243.5L89.5 243.5L89.5 243.5L89.6 243.4L89.6 243.4L89.6 243.3L89.6 243.3L89.6 243.3L89.7 243.2L89.7 243.1L89.7 243.1L89.7 243.0L89.7 243.0L89.7 242.9L89.7 242.9L89.7 242.8L89.7 242.8L89.7 242.8L89.7 242.7L89.8 242.7L89.8 242.6L89.8 242.6L89.8 242.5L89.8 242.5L89.8 242.5L89.8 242.4L89.8 242.4L89.8 242.4L89.8 242.1L89.8 242.1L89.8 242.1L89.8 242.0L89.8 242.0L89.8 241.9L89.8 241.9L89.8 241.9L89.8 241.8L89.7 241.8L89.7 241.7L89.7 241.7L89.7 241.7L89.7 241.6L89.7 241.6L89.7 241.5L89.7 241.5L89.7 241.4L89.7 241.4L89.7 241.4L89.6 241.3L89.6 241.3L89.6 241.1L89.6 241.0L89.5 241.0L89.5 241.0L89.5 240.9L89.5 240.9L89.5 240.8L88.9 238.3L88.9 237.8L89.2 236.1L89.8 234.7L91.1 234.9L94.6 232.8L97.0 235.3L97.6 232.8L98.3 232.1L100.7 236.4L100.6 233.8L99.5 233.5L99.3 232.6L100.4 231.6L101.9 231.3L104 236.6L101.3 242.3L104.4 239.7L105.3 236.8L104.3 233.5L105.0 231.3L108.1 230.3L109.8 230.8L109.3 229.8L111.1 231.3L112.0 232.6L112.5 234.1L112.5 234.3L112.5 234.3L112.5 234.3L112.6 234.4L112.6 234.4L112.6 234.4L112.6 234.5L112.6 234.5L112.6 234.6L112.6 234.6L112.7 234.7L112.7 234.7L112.7 234.7L112.7 234.8L112.7 234.8L112.7 234.8L112.7 234.9L112.8 234.9L112.8 235L112.8 235.0L112.8 235.0L112.8 235.1L112.9 235.1L112.9 235.1L112.9 235.2L112.9 235.2L113.0 235.3L113.0 235.3L113.0 235.4L113.1 235.4L113.1 235.5L113.1 235.5L113.1 235.5L113.2 235.6L113.2 235.7L113.3 235.7L113.3 235.7L113.3 235.8L113.4 235.8L113.5 235.9L113.5 235.9L113.5 236.0L113.5 236.0L111.6 237.3L107.1 243.1L110.4 240.2L114.2 239.8L115.9 237.4L116.2 237.5L117.5 238.9L118.4 240.5L118.5 240.9L118.6 241.1L118.6 241.2L118.6 241.2L118.6 241.3L118.6 241.3L118.6 241.4L118.6 241.4L118.6 241.4L118.7 241.5L118.7 241.5L118.7 241.6L118.7 241.6L118.7 241.6L118.7 241.7L118.8 241.7L118.8 241.8L118.8 241.8L118.8 241.8L118.8 241.9L118.8 241.9L118.9 241.9L118.9 242.0L118.9 242.0L119.0 242.2L119.0 242.2L119.1 242.2L119.1 242.3L119.1 242.3L119.1 242.3L119.1 242.4L119.2 242.4L119.2 242.4L119.2 242.5L119.3 242.5L119.3 242.5L119.3 242.6L119.3 242.6L119.4 242.6L119.5 242.7L119.5 242.8L119.5 242.8L119.5 242.8L119.6 242.9L119.7 242.9L119.7 243L119.7 243.0L119.8 243.0L119.8 243.0L119.8 243.0L119.9 243.1L119.9 243.1L119.9 243.1L120 243.1L120.1 243.2L120.2 243.3L120.2 243.3L120.2 243.3L120.3 243.3L120.3 243.3L120.3 243.3L120.4 243.4L120.4 243.4L120.4 243.4L120.5 243.4L120.5 243.4L120.6 243.5L120.6 243.5L120.6 243.5L120.9 243.6L120.9 243.6L121.0 243.6L121.0 243.6L121.0 243.6L121.1 243.6L121.1 243.6L121.2 243.6L121.2 243.6L121.2 243.6L121.3 243.7L121.4 243.7L121.4 243.7L121.4 243.7L121.5 243.7L121.5 243.7L121.6 243.7L121.6 243.7L121.7 243.7L121.7 243.7L121.8 243.7L122.1 243.7L122.1 243.7L122.2 243.7L122.2 243.7L122.3 243.7L122.3 243.7L122.5 243.7L122.6 243.7L122.6 243.7L122.6 243.7L122.7 243.7L122.7 243.7L122.7 243.7L122.8 243.7L122.8 243.7L122.8 243.7L122.9 243.7L122.9 243.7L123.0 243.7L123.0 243.7L123.0 243.7L123.1 243.6L123.2 243.6L123.2 243.6L123.3 243.6L123.3 243.6L123.6 243.5L123.6 243.5L123.7 243.5L123.7 243.5L123.7 243.5L123.8 243.4L123.8 243.4L123.9 243.4L123.9 243.4L124.0 243.3L124.0 243.3L124.1 243.3L124.1 243.3L124.1 243.3L124.2 243.2L124.3 243.2L124.3 243.1L124.3 243.1L124.4 243.1L124.4 243.1L124.4 243.0L124.5 243.0L124.5 243.0L124.5 243.0L124.5 243.0L124.6 242.9L124.7 242.9L124.7 242.8L124.7 242.8L124.7 242.8L124.8 242.8L124.8 242.7L124.8 242.7L124.9 242.6L124.9 242.6L125.0 242.5L125.0 242.5L125.0 242.5L125.0 242.5L125.1 242.4L125.1 242.4L125.1 242.4L125.1 242.3L125.1 242.3L125.2 242.3L125.2 242.2L125.2 242.2L125.3 242.1L125.3 242.1L125.3 242.0L125.3 242.0L125.4 242.0L125.4 241.9L125.4 241.9L125.4 241.9L125.4 241.8L125.4 241.8L125.5 241.8L125.5 241.7L125.5 241.7L125.5 241.6L125.5 241.6L125.6 241.5L125.6 241.5L125.6 241.4L125.6 241.3L125.6 241.3L125.6 241.2L125.7 241.2L125.8 240.9L125.7 240.7L125.7 240.7L126.3 238.6L126.3 238.6L127.1 237.1L128.4 235.9L128.4 235.9L129.9 235.0L130.7 234.8L134.5 235.6L135.8 237.2L135.9 240.6L137.4 244.4L138.5 246.3L138.2 247.5L138.2 247.6L138.1 247.6L138.1 247.7L138.1 247.7L138.1 247.8L138.1 247.8L138.1 247.8L138.1 247.9L138.0 247.9L138.0 248.1L137.9 248.2L137.9 248.2L137.9 248.2L137.9 248.3L137.9 248.4L137.9 248.4L137.9 248.5L137.9 248.5L137.9 248.5L137.9 248.6L137.9 248.6L137.8 248.6L137.8 248.7L137.8 248.8L137.8 248.8L137.8 248.8L137.8 248.9L137.8 249.0L137.8 249.0L137.8 249.2L137.8 249.2L137.8 249.2L137.8 249.3L137.8 249.3L137.8 249.3L137.8 249.4L137.8 249.4L137.8 249.5L137.8 249.5L137.9 249.6L137.9 249.6L137.9 249.6L137.9 249.7L137.9 249.8L137.9 249.8L137.9 249.9L137.9 249.9L137.9 250.0L137.9 250.0L138.0 250.1L138.0 250.2L138.0 250.2L138.0 250.3L138.0 250.3L138.1 250.3L138.1 250.4L138.1 250.4L138.1 250.4L138.1 250.5L138.2 250.6L138.2 250.6L138.2 250.7L138.2 250.7L138.3 250.8L138.3 250.8L138.3 250.9L138.3 250.9L138.4 251.0L138.4 251.0L138.4 251.0L138.5 251.1L138.5 251.1L138.5 251.1L138.5 251.2L138.6 251.2L138.6 251.2L138.7 251.3L138.7 251.3L138.7 251.4L138.8 251.4L138.8 251.5L138.8 251.5L138.9 251.5L138.9 251.5L138.9 251.6L138.9 251.6L139.0 251.6L139.0 251.6L139.1 251.7L139.1 251.7L139.1 251.7L139.1 251.8L139.2 251.8L139.2 251.8L139.2 251.8L139.3 251.8L139.4 251.9L139.4 251.9L139.4 251.9L139.5 252.0L139.5 252.0L139.5 252.0L139.6 252.0L139.6 252.1L139.6 252.1L139.7 252.1L139.7 252.1L139.8 252.1L139.8 252.2L139.8 252.2L139.9 252.2L140 252.2L140.0 252.2L140.1 252.2L141.7 253.2L141.9 253.3L138.6 255.7L137.7 257.8L141.3 256.4L144.8 256.5L145.9 258.0L147.4 263.6L146.7 267.1L145.7 268.3L144.9 266.8L145.3 264.0L145.0 262.0L143.5 260.3L142.5 260.4L143.2 264.9L142.5 267.5L144.6 267.9L144.8 269.4L144.8 269.4L144.8 269.4L144.8 269.4L144.7 269.5L144.7 269.5L144.6 269.5L144.6 269.6L144.6 269.6L144.5 269.6L144.5 269.6L144.4 269.7L144.4 269.7L144.4 269.8L144.3 269.8L144.3 269.8L144.3 269.8L144.2 269.9L144.2 269.9L144.2 269.9L144.1 270.0L144.1 270.0L144.1 270.0L144.1 270.1L144.0 270.1L144.0 270.1L144.0 270.2L144.0 270.2L143.9 270.2L143.9 270.3L143.9 270.3L143.9 270.3L143.8 270.4L143.8 270.4L143.8 270.4L143.8 270.5L143.8 270.5L143.7 270.5L143.7 270.6L143.7 270.6L143.7 270.6L143.7 270.7L143.6 270.7L143.6 270.7L143.6 270.8L143.6 270.8L143.6 270.8L143.5 270.9L143.5 270.9L143.5 271.0L143.4 271.3L143.4 271.3L143.4 271.4L143.4 271.4L143.4 271.4L143.4 271.5L143.3 271.6L143.3 271.6L143.3 271.7L143.3 271.7L143.3 271.7L143.3 271.8L143.3 271.8L142.6 272.2L138.4 271.7L136.8 276.8L134.4 279.1L132.8 279.4L127.7 275.2L131.5 280.3L131.3 280.9L130.4 281.3L126.6 280.2L126.1 282.8L126.5 284.1L128.5 287.0L128.5 289.0L127.4 290.9L131.3 297.5L130.4 300.3L129.7 300.9L131.3 304.0L129.2 304.4L128.6 305.2L130.4 308.3L131.5 314.1L131.7 320.1L126.8 330.8L126.1 335.5L122.6 341.4L120.1 341.9L122.7 345.9L122.6 347.7L121.6 348.4L117.3 348.1L115.3 346.9L113.3 346.6L112.8 345.6L110.9 348.3L109.8 349.0L109.6 346.7L108.4 344.7L108.3 347.7L107.5 348.7L106.1 349.0L105.3 348.3L99.1 348.7L93.4 349.9L94.2 351.9L93.2 353.5L89.6 354.9L87.4 354.0L85.8 357.1L81.7 359.5L78.5 359.5L78.1 358.9L78.6 357.6L76.9 357.1L76.6 355.6L74.7 355.6L76.6 359.0L76.3 360.1L76.3 360.1L76.2 360.1L76.2 360.1L76.2 360.1L76.1 360.1L76.1 360.1L76.0 360.1L76.0 360.1L75.9 360.1L75.9 360.1L75.9 360.1L75.8 360.1L75.8 360.1L75.8 360.2L75.7 360.2L75.7 360.2L75.7 360.2L75.6 360.2L75.5 360.2L75.5 360.2L75.4 360.3L75.3 360.3L75.3 360.3L75.3 360.3L75.2 360.3L75.2 360.3L75.2 360.4L75.1 360.4L75.0 360.4L72.3 361.0L71.2 360.9L68.5 359.8L68.4 359.8L68.2 359.7L68.2 359.7L68.1 359.6L68.1 359.6L68.0 359.6L68.0 359.6L67.9 359.5L67.9 359.5L67.8 359.5L67.8 359.5L67.8 359.5L67.7 359.5L67.7 359.4L67.7 359.4L67.6 359.4L67.5 359.4L67.5 359.4L67.4 359.3L67.4 359.3L67.4 359.3L67.3 359.3L67.2 359.3L67.2 359.3L67.1 359.3L67.1 359.3L67.1 359.3L67.0 359.3L67.0 359.3L67.0 359.3L66.9 359.2L66.9 359.2L66.8 359.2L66.8 359.2L66.7 359.2L66.7 359.2L66.7 359.2L66.6 359.2L66.6 359.2L66.4 359.2L66.4 359.2L66.3 359.2L66.3 359.2L66.3 359.2L66.2 359.2L66.1 359.2L66.1 359.2L66.0 359.3L66.0 359.3L66.0 359.3L65.9 359.3L65.9 359.3L65.4 359.3L65.1 359.5L65.1 359.5L62.7 360.2L62.7 360.2L62.2 360.2L62.2 360.2L61.0 360.0L60.2 360.9L60.1 360.9L60.1 360.9L60.0 360.9L60.0 361.0L60.0 361.0L60.0 361.0L59.9 361.0L59.9 361.1L59.9 361.1L59.9 361.1L59.8 361.1L57.7 362.5L55.2 363.0L55.1 363.0L53.0 362.6L51.1 361.6L49.7 360.1L48.8 358.2L48.5 357.4L48.2 355.3L48.3 355.2L48.1 355.3L45.8 355.5L45.8 355.5L45.7 355.5L45.7 355.4L45.7 355.4L45.6 355.4L45.6 355.4L45.6 355.4L45.5 355.4L45.3 355.4L44.7 355.4L43.8 355.1L46.9 353.8L42.9 354.8L42.8 354.8L41.1 353.6L39.8 352.1L39.5 351.3L39.5 351.3L39.0 348.9 Z M 39.0 348.9 "/>
<path style=" stroke:none;fill-rule:nonzero;fill:#C2B855;fill-opacity:1;" d="M 51.0 302.6L51.0 302.6L51.0 302.6L50.9 302.6L50.8 302.4L50.8 302.4L50.8 302.4L50.8 302.4L50.7 302.3L50.7 302.3L50.7 302.3L50.6 302.2L50.6 302.2L50.6 302.2L50.6 302.2L50.5 302.1L50.4 302.1L50.4 302.0L50.4 302.0L50.4 302.0L50.3 302.0L50.3 302L50.3 301.9L50.2 301.9L50.2 301.9L50.2 301.9L50.6 300.3L51.2 300.5L51.2 301.9 Z M 51.0 302.6 "/>
<path style=" stroke:none;fill-rule:nonzero;fill:#C2B855;fill-opacity:1;" d="M 40.8 287.2L40.3 287.5L39.5 286.8L40.6 286.7 Z M 40.8 287.2 "/>
<path style=" stroke:none;fill-rule:nonzero;fill:#C2B855;fill-opacity:1;" d="M 43.0 283.9L43.0 284.5L42.3 284.5 Z M 43.0 283.9 "/>
<path style=" stroke:none;fill-rule:nonzero;fill:#C2B855;fill-opacity:1;" d="M 46 280.9L46.1 280.8L46.1 280.8L46.2 280.8L46.3 280.8L46.3 280.7L46.3 280.7L46.4 280.7L46.4 280.7L46.4 280.7L46.5 280.7L46.5 280.6L46.5 280.6L46.7 280.8 Z M 46 280.9 "/>
















</g>
</svg>
