<?xml version="1.0" encoding="UTF-8"?>
<svg xmlns="http://www.w3.org/2000/svg" xmlns:xlink="http://www.w3.org/1999/xlink" width="378pt" height="504pt" viewBox="0 0 378 504" version="1.1">
<g id="data">
<rect x="0" y="0" width="378" height="504" style="fill:rgb(100%,100%,100%);fill-opacity:1;stroke:none;"/>
<path style=" stroke:none;fill-rule:nonzero;fill:rgb(100%,100%,100%);fill-opacity:1;" d="M 21 504L357 504L357 0L21 0 Z M 21 504 "/>
<path style=" stroke:none;fill-rule:nonzero;fill:#C2B855;fill-opacity:1;" d="M 178.6 254.1L177.9 253.2L177.2 250.7L177.2 250.7L177.2 250.5L177.5 248.4L178.4 246.5L179.8 245L181.6 243.9L181.7 243.9L181.7 243.9L181.8 243.9L181.8 243.9L181.9 243.9L181.9 243.8L181.9 243.8L182.0 243.8L182.0 243.8L182.1 243.8L182.1 243.8L182.1 243.7L182.2 243.7L182.2 243.7L182.3 243.7L182.3 243.6L182.3 243.6L182.4 243.6L182.4 243.6L182.5 243.5L182.5 243.5L182.5 243.5L182.6 243.5L182.6 243.4L182.6 243.4L182.7 243.4L182.7 243.3L182.8 243.3L182.8 243.3L182.8 243.3L182.8 243.2L182.9 243.2L182.9 243.2L182.9 243.1L183 243.1L183.0 243.1L183.0 243.1L183.0 243.0L183.1 243.0L183.1 243.0L183.1 242.9L183.2 242.9L183.2 242.8L183.2 242.8L183.2 242.8L183.3 242.8L183.3 242.7L183.3 242.7L183.3 242.6L183.4 242.6L183.4 242.6L183.4 242.5L183.4 242.5L183.5 242.5L183.5 242.4L183.5 242.4L183.5 242.4L183.5 242.3L183.6 242.3L183.6 242.3L183.6 242.2L183.6 242.2L183.6 242.2L183.6 242.1L183.6 242.1L183.7 242.1L183.7 242.0L183.7 242.0L183.7 242L183.8 241.7L183.8 241.7L183.8 241.6L183.8 241.6L183.8 241.6L183.8 241.5L183.9 241.5L183.9 241.4L183.9 241.4L183.9 241.3L183.9 241.3L183.9 241.3L183.9 241.2L183.9 241.2L183.9 241.1L183.9 241.1L183.9 241.1L183.9 241.0L183.9 241.0L183.9 240.9L183.9 240.9L183.9 240.6L183.9 240.5L183.9 240.0L184.4 237.6L185.7 235.6L187.3 234.4L189.1 233.6L190.8 233.5L190.8 233.5L192.8 233.8L194.6 234.8L196.1 236.3L197.0 237.9L197.0 238.0L197.0 238.1L197.0 238.1L197.0 238.1L197.1 238.2L197.1 238.2L197.1 238.3L197.1 238.3L197.1 238.3L197.1 238.4L197.2 238.4L197.2 238.4L197.2 238.5L197.2 238.5L197.3 238.6L197.3 238.6L197.3 238.7L197.3 238.7L197.4 238.7L197.4 238.7L197.4 238.8L197.4 238.8L197.4 238.8L197.5 238.9L197.5 238.9L197.5 238.9L197.5 239.0L197.6 239.0L197.6 239.1L197.6 239.1L197.7 239.2L197.8 239.3L197.9 239.3L197.9 239.3L197.9 239.4L197.9 239.4L198.0 239.4L198.0 239.5L198.1 239.5L198.1 239.5L198.1 239.5L198.1 239.5L198.2 239.6L198.2 239.6L198.2 239.6L198.3 239.6L198.3 239.7L198.4 239.7L198.4 239.7L198.4 239.7L198.5 239.8L198.5 239.8L198.6 239.8L198.6 239.8L198.6 239.9L198.7 239.9L198.7 239.9L198.8 239.9L198.8 239.9L198.8 239.9L198.9 240.0L198.9 240.0L199 240.0L199.0 240.0L199.2 240.1L199.2 240.1L199.3 240.1L199.3 240.1L199.4 240.1L199.4 240.1L199.4 240.1L199.5 240.1L199.5 240.1L199.6 240.2L199.6 240.2L199.7 240.2L199.7 240.2L199.7 240.2L199.8 240.2L199.8 240.2L199.8 240.2L199.9 240.2L199.9 240.2L200.0 240.2L200.0 240.2L200.0 240.2L200.3 240.2L200.3 240.2L200.4 240.2L200.7 240.2L200.8 240.2L200.9 240.2L200.9 240.2L200.9 240.2L201.0 240.2L201.0 240.2L201.1 240.2L201.2 240.2L201.2 240.1L201.3 240.1L201.3 240.1L201.3 240.1L201.5 240.1L201.6 240.1L201.6 240.1L201.6 240.1L201.7 240.0L201.7 240.0L201.8 240.0L201.8 240.0L203.5 239.7L203.8 238.1L203.9 238.0L203.9 238L203.9 237.9L203.9 237.9L203.9 237.8L203.9 237.8L203.9 237.8L203.9 237.7L204.0 237.7L204.0 237.6L204.0 237.6L204.0 237.5L204.0 237.5L204.0 237.5L204.0 237.4L204.0 237.3L204.1 237.1L204.1 236.8L204.1 236.8L204.4 234.9L205.0 233.4L206.0 232.1L207.8 230.8L209.9 230.2L210.9 230.1L210.9 230.1L212.8 230.4L214.6 231.3L216.0 232.6L217.0 234.3L217.4 235.7L217.5 237.6L217.5 237.7L217.4 237.9L217.4 238.0L217.3 238.2L217.4 238.5L217.4 238.6L217.4 238.7L217.4 238.7L217.4 238.8L217.4 238.8L217.4 238.9L217.4 238.9L217.4 238.9L217.4 239.0L217.4 239.0L217.4 239.1L217.5 239.7L217.5 239.7L217.3 241.9L216.4 244.0L214.8 245.6L212.8 246.6L212.1 246.8L210.6 247.0L210.3 248.7L210.3 248.8L210.2 248.9L210.2 249.0L210.2 249.0L210.2 249.1L210.2 249.2L210.2 249.2L210.2 249.2L210.1 249.3L210.1 249.3L210.1 249.4L210.1 249.4L210.1 249.5L210.1 249.5L210.1 249.6L210.1 249.6L210.1 249.6L210.1 249.7L210.1 249.7L210.1 249.7L210.1 249.8L210.1 249.8L210.1 250.0L210.1 250.0L210.1 250.1L210.1 250.1L210.1 250.2L210.1 250.2L210.1 250.3L210.1 250.3L210.1 250.3L210.1 250.4L210.1 250.4L210.1 250.4L210.1 250.5L210.1 250.5L210.1 250.6L210.1 250.6L210.2 250.7L210.2 250.7L210.2 250.7L210.2 250.8L210.2 250.9L210.2 250.9L210.3 251.0L210.3 251.0L210.3 251.1L210.3 251.1L210.3 251.2L210.7 252.5L210.7 252.8L210.8 254.1L210.3 256.1L209.3 257.9L207.7 259.3L207.7 259.3L207.6 259.3L207.6 259.4L207.6 259.4L207.5 259.4L207.5 259.4L207.5 259.4L207.4 259.5L207.4 259.5L207.4 259.5L207.3 259.6L207.3 259.6L207.2 259.6L207.2 259.7L207.2 259.7L207.2 259.7L207.1 259.7L207.1 259.8L207.1 259.8L207.1 259.8L207.0 259.8L207.0 259.9L206.9 260L206.9 260.0L206.9 260.0L206.9 260.0L206.8 260.1L206.8 260.1L206.8 260.1L206.8 260.2L206.8 260.2L206.7 260.2L206.7 260.3L206.7 260.3L206.6 260.4L206.6 260.4L206.6 260.4L206.6 260.5L206.5 260.5L206.5 260.6L206.5 260.6L206.5 260.6L206.5 260.7L206.4 260.7L206.4 260.8L206.4 260.8L206.4 260.9L206.4 260.9L206.4 260.9L206.3 261.1L206.3 261.2L206.3 261.2L206.3 261.3L206.2 261.3L206.2 261.3L206.2 261.4L206.2 261.4L206.2 261.5L206.2 261.5L206.2 261.5L206.2 261.6L206.2 261.6L206.2 261.7L206.2 261.7L206.2 261.8L206.1 261.8L206.1 261.9L206.1 261.9L206.1 262.0L206.1 262.0L206.1 262.0L206.1 262.2L206.1 262.3L206.1 262.3L206.1 262.4L206.2 262.4L206.2 262.5L206.2 262.5L206.2 262.6L206.2 262.6L206.2 262.7L206.2 262.7L206.2 262.7L206.2 262.8L206.2 262.8L206.2 262.9L206.2 263.0L206.3 263.0L206.3 263.1L206.3 263.1L206.3 263.1L206.3 263.2L206.3 263.2L206.3 263.3L206.4 263.3L206.4 263.4L206.4 263.4L206.4 263.5L206.5 263.5L206.5 263.6L206.5 263.6L206.5 263.6L206.5 263.7L206.5 263.7L206.6 263.7L206.6 263.8L207.1 265.1L207.2 265.3L207.2 265.3L207.2 265.4L207.2 265.4L207.3 265.5L207.3 265.5L207.3 265.6L207.3 265.6L207.4 265.7L207.4 265.7L207.4 265.7L207.4 265.8L207.5 265.8L207.5 265.9L207.5 265.9L207.5 266.0L207.5 266.0L207.6 266.0L207.6 266.0L207.6 266.1L207.7 266.1L207.7 266.2L207.7 266.2L207.7 266.2L207.7 266.3L207.8 266.4L207.9 266.4L207.9 266.4L207.9 266.5L208.0 266.5L208.0 266.6L208.0 266.6L208.1 266.6L208.1 266.7L208.2 266.7L208.2 266.7L208.3 266.8L208.3 266.8L208.3 266.8L208.4 266.9L208.4 266.9L208.5 266.9L208.7 267.0L208.7 267.1L208.7 267.1L208.8 267.1L208.8 267.1L208.8 267.1L208.9 267.2L208.9 267.2L209.0 267.2L209.0 267.2L209.1 267.2L209.1 267.3L209.1 267.3L209.2 267.3L209.2 267.3L209.3 267.3L209.3 267.3L209.3 267.3L209.4 267.4L211.3 268.3L212.9 269.8L213.8 271.8L214.1 273.9L214.1 274.1L214.1 274.2L214.1 274.3L214.1 274.4L214.1 274.4L214.1 274.5L214.1 274.5L214.1 274.6L214.1 274.6L214.1 274.6L214.2 274.7L214.2 274.8L214.2 274.8L214.2 274.9L214.2 274.9L214.2 274.9L214.2 275.0L214.2 275.1L214.2 275.1L214.2 275.2L214.2 275.2L214.3 275.2L214.3 275.3L214.3 275.3L214.4 275.6L214.4 275.6L214.4 275.6L214.4 275.7L214.4 275.7L214.5 275.8L214.5 275.8L214.5 275.9L214.5 275.9L214.5 275.9L214.5 276.0L214.6 276.0L214.6 276.0L214.6 276.1L214.7 276.2L214.7 276.2L214.7 276.3L214.8 276.3L214.8 276.4L214.8 276.4L214.9 276.4L214.9 276.5L214.9 276.5L214.9 276.5L215.0 276.6L215.0 276.6L215.1 276.7L215.1 276.7L215.1 276.7L215.1 276.8L215.2 276.8L215.2 276.8L215.2 276.8L215.3 276.9L215.3 276.9L215.3 276.9L215.4 277L215.4 277.0L215.4 277.0L215.5 277.0L215.5 277.1L215.6 277.1L215.6 277.1L215.6 277.1L215.8 277.3L215.9 277.3L215.9 277.3L215.9 277.3L216.0 277.4L216.0 277.4L216.0 277.4L216.1 277.4L216.1 277.4L216.1 277.4L216.2 277.5L216.2 277.5L216.2 277.5L216.3 277.5L216.3 277.5L216.4 277.5L216.7 277.7L218.6 278.8L218.7 278.9L218.7 278.9L218.8 279.0L218.8 279.0L218.8 279.0L218.9 279.0L218.9 279.1L218.9 279.1L219 279.1L219.0 279.2L219.1 279.2L219.1 279.2L219.1 279.2L219.2 279.3L219.2 279.3L219.3 279.3L219.3 279.3L219.3 279.3L219.4 279.4L219.4 279.4L219.4 279.4L219.5 279.4L219.6 279.5L219.6 279.5L219.7 279.5L219.7 279.5L219.7 279.5L219.8 279.5L219.8 279.5L219.8 279.6L219.9 279.6L219.9 279.6L220.0 279.6L220.0 279.6L220.0 279.6L220.1 279.6L220.1 279.6L220.2 279.6L220.2 279.6L220.2 279.7L220.3 279.7L220.4 279.7L220.4 279.7L220.4 279.7L220.5 279.7L220.5 279.7L220.6 279.7L220.6 279.7L220.7 279.7L220.7 279.7L220.8 279.7L220.8 279.7L220.9 279.7L220.9 279.7L221.0 279.7L221.1 279.7L221.1 279.7L221.2 279.7L221.2 279.7L221.2 279.7L221.3 279.7L221.3 279.7L221.4 279.7L221.4 279.7L221.4 279.7L221.5 279.7L221.5 279.6L221.6 279.6L221.6 279.6L221.7 279.6L221.8 279.6L221.8 279.6L221.9 279.6L221.9 279.6L221.9 279.5L222.0 279.5L222.0 279.5L222.1 279.5L222.2 279.5L222.2 279.4L222.3 279.4L222.3 279.4L222.4 279.4L222.4 279.3L222.4 279.3L222.5 279.3L222.5 279.3L222.5 279.3L222.6 279.3L222.8 279.1L222.8 279.1L222.8 279.1L222.9 279.0L222.9 279.0L222.9 279.0L223.0 279.0L223.0 278.9L223.1 278.9L223.1 278.9L223.1 278.8L223.2 278.8L223.2 278.8L223.2 278.8L223.2 278.7L223.3 278.7L223.3 278.7L223.4 278.6L223.4 278.5L223.5 278.5L223.5 278.5L223.5 278.4L223.5 278.4L223.6 278.4L223.6 278.3L223.6 278.3L223.6 278.3L223.7 278.2L223.7 278.2L223.7 278.1L223.8 278.1L223.8 278.1L223.8 278.0L223.9 277.9L223.9 277.9L223.9 277.8L224.0 277.7L224.0 277.7L224.0 277.6L224.0 277.6L224.0 277.6L224.0 277.5L224.1 277.5L224.1 277.5L224.1 277.4L224.1 277.3L224.1 277.2L224.1 277.2L224.2 277.2L224.2 277.0L224.2 277.0L224.2 276.9L224.2 276.9L224.2 276.8L224.2 276.7L224.2 276.7L224.2 276.6L224.3 276.6L224.3 276.1L224.3 276.0L224.3 275.9L224.3 275.9L224.3 275.8L224.4 275.8L224.4 275.7L224.4 275.7L224.4 275.7L224.4 275.6L224.4 275.6L224.4 275.3L224.4 275.3L224.4 275.3L224.4 275.2L224.4 275.2L224.3 275.1L224.3 275.0L224.3 274.9L224.3 274.9L224.3 273.1L224.4 272.3L224.4 272.1L224.4 272.1L224.4 272.1L224.5 272.0L224.5 271.9L224.5 271.9L224.5 271.9L224.5 271.8L224.5 271.8L224.5 271.8L224.5 271.7L224.5 271.7L224.5 271.7L224.5 271.6L224.5 271.6L224.5 271.4L224.5 271.3L224.5 271.3L224.5 271.2L224.5 271.2L224.5 271.2L224.5 271.1L224.5 271.1L224.5 271.0L224.5 271.0L224.5 271.0L224.5 270.9L224.5 270.9L224.4 270.8L224.4 270.8L224.4 270.8L224.4 270.7L224.4 270.6L224.4 270.6L224.4 270.6L224.4 270.5L224.3 270.3L224.3 270.2L224.3 270.2L224.2 270.2L224.2 270.1L224.2 270.1L224.2 270.0L224.2 270.0L224.2 270.0L224.1 269.9L224.1 269.9L224.1 269.9L224.1 269.8L224.1 269.8L224.0 269.7L224.0 269.7L224.0 269.6L224 269.6L223.9 269.6L223.9 269.5L223.9 269.5L223.8 269.5L223.8 269.4L223.8 269.4L223.8 269.4L223.8 269.3L223.7 269.2L223.6 269.2L223.6 269.2L223.6 269.2L223.6 269.1L223.5 269.1L223.5 269.1L223.5 269.1L223.5 269.0L223.4 269.0L223.4 269.0L223.4 269L223.3 268.9L223.3 268.9L221.6 266.8L220.9 264.4L220.9 263.7L220.9 263.7L221.0 262.2L221.1 262.1L221.1 262.1L221.1 262.0L221.1 262.0L221.1 261.9L221.1 261.9L221.1 261.9L221.1 261.8L221.1 261.8L221.1 261.7L221.1 261.7L221.1 261.6L221.1 261.6L221.1 261.6L221.1 261.5L221.1 261.5L221.1 261.3L221.1 261.2L221.1 261.2L221.1 261.2L221.1 261.1L221.1 261.1L221.1 261.1L221.1 261.0L221.1 261.0L221.1 260.9L221.1 260.9L221.1 260.9L221.1 260.8L221.1 260.8L221.1 260.8L221.1 260.7L221.1 260.7L221.1 260.7L221.1 260.6L221.0 260.6L221.0 260.5L221.0 260.5L221.0 260.4L221.0 260.4L221.0 260.4L221.0 260.3L221.0 260.3L220.9 260.2L220.9 260.2L220.9 260.1L220.9 260.1L220.9 260.1L220.8 260.0L220.8 259.9L220.8 259.9L220.8 259.8L220.7 259.8L220.7 259.8L220.7 259.7L220.7 259.7L220.6 259.6L220.6 259.6L220.6 259.6L220.6 259.5L220.6 259.5L220.5 259.4L220.5 259.4L220.5 259.4L220.5 259.4L220.4 259.3L220.4 259.3L220.4 259.3L220.4 259.2L220.3 259.2L220.3 259.1L220.2 259.1L220.1 258.9L220.1 258.9L220.0 258.9L220.0 258.8L219.9 258.8L218.2 256.6L217.5 253.9L217.5 253.9L217.6 252.5L217.6 252.5L217.6 252.4L217.6 252.4L217.6 252.4L217.6 252.3L217.6 252.2L217.6 252.2L217.6 252.1L217.6 252.1L217.6 252.1L217.6 252.0L217.6 251.9L217.6 251.8L217.6 251.8L217.6 251.8L217.6 251.7L217.6 251.6L217.6 251.5L217.6 251.5L217.6 251.4L217.6 251.4L217.5 249.9L217.5 249.8L217.5 249.8L217.5 249.6L217.5 249.5L217.5 249.5L217.5 249.5L217.5 249.4L217.7 247.2L218.6 245.3L220.0 243.7L221.9 242.6L222.0 242.6L222.0 242.6L222.1 242.5L222.1 242.5L222.1 242.5L222.2 242.5L222.2 242.5L222.2 242.5L222.3 242.5L222.3 242.4L222.3 242.4L222.4 242.4L222.4 242.4L222.4 242.4L222.5 242.4L222.5 242.3L222.5 242.3L222.6 242.3L222.6 242.3L222.6 242.3L222.7 242.2L222.7 242.2L222.7 242.2L222.8 242.2L222.8 242.1L222.8 242.1L222.9 242.1L222.9 242.1L222.9 242.1L223 242.0L223.0 242.0L223.0 242.0L223.1 241.9L223.1 241.9L223.2 241.9L223.2 241.8L223.2 241.8L223.3 241.8L223.3 241.7L223.3 241.7L223.3 241.7L223.4 241.6L223.4 241.6L223.5 241.5L223.5 241.5L223.5 241.5L223.6 241.4L223.6 241.4L223.6 241.4L223.6 241.3L223.6 241.3L223.7 241.2L223.7 241.2L223.7 241.2L223.8 241.1L223.8 241.1L223.8 241.1L223.8 241.0L223.8 241.0L223.9 241.0L223.9 240.9L223.9 240.9L223.9 240.8L223.9 240.8L224.0 240.8L224.0 240.7L224.0 240.7L224.0 240.6L224.0 240.6L224.1 240.5L224.1 240.5L224.1 240.5L224.1 240.4L224.1 240.4L224.1 240.4L224.1 240.3L224.1 240.3L224.2 240.2L224.2 240.2L224.2 240.1L224.2 240.0L224.2 240.0L224.2 239.9L224.2 239.9L224.2 239.9L224.2 239.8L224.2 239.8L224.2 239.7L224.3 239.6L224.3 239.5L224.3 239.1L224.3 239.0L224.3 239.0L224.3 239.0L224.3 238.9L224.4 238.8L224.4 238.8L224.4 238.8L224.4 238.7L224.4 238.7L224.4 238.6L224.4 238.4L224.4 238.4L224.4 238.3L224.4 238.3L224.4 238.3L224.4 238.2L224.4 238.1L224.3 238.0L224.3 237.9L224.2 237.0L224.3 235.8L224.3 235.8L225.0 233.6L226.4 231.9L228.4 230.6L230.6 230.1L230.6 230.1L231.3 230.2L233.0 240.5L235.9 247.0L237.8 254.9L240.7 259.1L253.8 265.3L258.0 273.6L260.7 276.5L264.9 278.8L262.7 280.0L261.9 282.5L264.0 288.1L270.2 296.8L269.7 299.1L269.5 297.1L267.7 296.3L265.1 297.0L260.9 293.0L254.8 294.2L252.9 293.4L251.0 294.5L255.4 295.0L260.3 293.8L262.4 296.8L270.5 302.5L272.5 305.2L275.1 311.3L275.3 316.5L267.8 324.8L269.7 324.4L273.3 327.7L276.1 328.3L280.0 321.2L287.5 320.8L296.7 321.9L305.5 327.6L307.8 332.9L307.9 341.4L305.0 353.4L299.5 359.2L298.1 357.0L295.4 355.8L298.8 361.1L297.2 363.8L293.3 365.4L291.7 363.4L285.2 367.6L286.6 368.6L290.6 366.7L291.2 371.6L287.6 374.8L284.3 374.5L280.1 375.9L278.2 377.9L281.7 376.4L285.5 376.9L286.1 378.1L284.2 378.1L282.4 379.3L282.9 380.0L290.6 381.6L301.7 379.3L302.8 381.4L302.2 388.1L294.3 392.3L292.8 394.4L292.8 396.8L288.2 396.8L285.5 399.4L278.2 401.9L275.7 404.6L263.9 401.7L254.0 403.6L251.1 405.7L248.4 404.0L249.5 402.9L248.0 401.5L242.6 401.4L243.5 402.8L242.8 403.9L238.4 403.4L232.2 405.9L224.1 406.4L221.6 405.6L220.7 407.1L223.7 408.1L223.6 410.7L221.2 411.1L213.2 409.0L211.5 410.6L212.2 412.7L206.9 407.8L200.7 405.5L193.0 407.6L188.4 410.1L183.0 423.9L181.4 424.8L179.1 424.4L176.0 420.7L173.5 421.3L170.6 418.1L165.7 418.5L163.2 419.9L156.5 420.2L154.1 423.1L149.5 425.1L149.0 429.9L146.5 431.2L145.6 433.0L143.5 428.7L139.2 426.4L137.6 426.8L136.8 429.1L133.3 428.8L133.9 425.1L138.8 423L140.4 423.9L149.7 415.8L150.8 411.2L156.4 409.6L157.4 406.9L162.1 402.6L163.1 394.1L168.3 394.7L170.6 392.1L170.3 387.8L180.5 386.2L187.1 386.9L189.9 388.6L198.4 387.8L200.1 381.5L213.6 366.8L207.1 372.6L205.9 373.9L196.6 377.1L194.9 380.7L189.8 381.2L186.1 380.1L179.8 371.9L171.2 375.0L169.5 374.0L169.3 372.0L173.4 371.3L174.4 369.7L170.0 369.5L166.1 367.2L162.9 367.2L160.5 367.7L159.6 370.2L156.0 370.4L154.1 372.1L151.6 371.0L152.4 369.2L156.2 367.7L155.7 366.4L155.2 367.6L152.7 367.9L147.2 366.7L150.7 365.0L150.2 362.2L147.2 361.4L147.7 359.8L151.1 358.2L151.6 356.9L157.3 356.4L161.2 352.3L165.2 352.2L171.4 348.2L173.8 345.1L175.6 339.5L174.2 335.0L176.0 330.8L173.9 327.7L174.4 323.4L168.0 324.3L165.1 327.6L160.0 327.6L163.4 323.2L169.5 318.9L170.2 315.9L173.3 312.5L181.0 309.7L187.0 310.0L192.7 307.7L197.9 311.5L198.3 310.6L195.9 306.3L198.7 305.4L202.8 310.1L205.2 309.9L206.9 307.7L203.5 308.8L201.3 307.3L197.9 300.1L200.9 294.8L202.7 293.8L199.3 292.2L199.3 286.9L202.0 285.2L204.3 280.3L204.8 275.1L197.3 280.3L195.6 279.6L191.8 272.9L191.3 270.2L187.0 264.0L192.8 250.2L194.9 248.2L198.8 248.4L200.5 248.0L200.6 247.1L188.8 246.1L187.7 250.4L183.5 251.3L180.1 254.3 Z M 218.5 220.0L216.9 220.0L216.9 220.0L214.9 219.5L213.2 218.5L211.8 216.9L211.0 215.1L210.8 213.1L211.5 210.3L211.5 210.3L212.6 208.7L212.7 208.7L220.9 213.7L224.3 219.1L222.5 219.8L221.8 220.0L220.4 220.0L219.7 219.9L219.7 219.9L219.2 219.7L218.5 220.0 Z M 158.1 216.6L158.4 216.0L158.7 215.6L158.8 217.8 Z M 161.7 213.7L163.3 213.3L164.3 213.3L164.4 213.3L167.1 214.2L167.1 214.2L167.9 214.9L168.9 214.7L169.0 214.6L169.1 214.6L169.1 214.6L169.2 214.6L169.2 214.6L169.3 214.6L169.3 214.6L169.3 214.6L169.4 214.6L169.5 214.6L169.6 214.6L169.6 214.6L169.7 214.5L169.7 214.5L169.7 214.5L169.9 214.5L170.0 214.4L170.0 214.4L170.0 214.4L170.1 214.4L170.1 214.4L170.1 214.4L170.2 214.4L170.2 214.3L170.2 214.3L170.3 214.3L170.3 214.3L170.3 214.3L170.4 214.3L170.4 214.2L170.4 214.2L170.5 214.2L173.1 213.3L174.2 213.3L176.6 213.9L178.2 214.9L179.5 216.4L180.3 218.2L180.6 220.1L180.2 222.2L180.2 222.3L180.1 222.4L180.1 222.5L180.1 222.5L180.1 222.6L180.1 222.6L180.1 222.6L180.0 222.8L180.0 222.8L180.0 222.8L180.0 222.9L180.0 222.9L180.0 223L180.0 223.0L180.0 223.0L180.0 223.1L180.0 223.1L180.0 223.2L180.0 223.2L180.0 223.2L180.0 223.5L180.0 223.6L180.0 223.6L180.0 223.6L180.0 223.7L180.0 223.7L180.0 223.8L180.0 223.8L180.0 223.8L180.0 223.9L180.0 223.9L180.0 223.9L180.0 224.0L180.0 224.0L180.0 224.1L180.1 224.1L180.1 224.2L180.1 224.2L180.1 224.3L180.1 224.3L180.1 224.3L180.2 224.5L180.5 225.6L180.5 225.6L180.5 226.2L180.5 226.2L180.4 228.0L179.8 229.8L178.4 231.7L176.2 233.0L173.7 233.5L173.7 233.5L171.3 233.0L169.3 231.7L167.8 229.8L167.5 229.0L167.5 228.9L167.5 228.9L167.5 228.9L167.4 228.8L167.4 228.8L167.4 228.8L167.4 228.7L167.4 228.7L167.4 228.7L167.3 228.6L167.3 228.6L167.3 228.6L167.3 228.5L167.3 228.5L167.3 228.5L167.2 228.4L167.2 228.4L167.2 228.4L167.1 228.2L167.1 228.2L167.1 228.2L167.1 228.1L167.0 228.1L167.0 228.1L167.0 228.0L166.9 228.0L166.9 228.0L166.8 227.9L166.8 227.8L166.8 227.8L166.8 227.8L167.1 226.9L165.5 222.4L161.0 218.8 Z M 171.1 273.7L170.8 273.8L169.9 273.8L169.2 273.7L169.1 273.7L167.3 273.0L165.8 271.9L167.4 268.8L171.1 267.1L172.1 271.6 Z M 143.2 228.0L143.6 227.6L145.2 227.0L147 226.7L147.4 226.8L147.0 228.7L147.7 230.7L145.9 232.7L141.8 232.5L141.9 229.4 Z M 119.4 433.1L118.6 433.3L119.0 432.5 Z M 244.9 407.2L242.4 410.4L239.7 411.3L234.6 408.1L232.8 408.3L239.0 404.1L243.5 405.3 Z M 246.9 401.8L247.2 403.9L245.7 403.5 Z M 291.5 380.3L290.4 381.0L287.3 380.4L286.8 377.9L290.5 378.7 Z M 164.6 308.8L164.8 311.0L162.6 309.3L162.6 307.8 Z M 176.8 308.9L169.7 315.4L166.9 313.3L165.1 309.7L165.2 305.3L168.5 304.1L171.6 305.0L172.8 308.1 Z M 176.8 308.9 "/>
<path style=" stroke:none;fill-rule:nonzero;fill:#C2B855;fill-opacity:1;" d="M 137.2 264.8L137.2 264.7L137.2 264.7L137.2 264.5L138.1 262.4L139.5 260.6L141.5 259.5L143.8 259.1L144.2 259.1L145.8 259.4L146.4 259.6L147.4 263.6L146.7 267.1L145.7 268.3L144.9 266.8L145.3 264.0L145.0 262.0L143.5 260.3L142.5 260.4L143.2 264.9L142.5 267.5L144.6 267.9L144.9 270.1L143.9 271.4L142.6 272.2L138.4 271.7L136.8 276.8L135.9 277.6L135.8 277.5L134.5 276.2L133.6 274.5L133.6 274.5L133.2 272.2L133.3 270.8L134.2 268.6L135.9 266.9L135.9 266.8L136.0 266.8L136.0 266.8L136.0 266.7L136.1 266.7L136.1 266.6L136.2 266.6L136.2 266.6L136.2 266.5L136.3 266.5L136.3 266.5L136.3 266.4L136.4 266.4L136.4 266.4L136.4 266.3L136.5 266.2L136.5 266.2L136.6 266.2L136.6 266.2L136.6 266.1L136.6 266.1L136.6 266.1L136.7 266.0L136.8 265.9L136.8 265.8L136.8 265.8L136.8 265.8L136.9 265.7L136.9 265.7L136.9 265.7L136.9 265.6L136.9 265.6L137 265.5L137.0 265.5L137.0 265.5L137.0 265.4L137.0 265.4L137.0 265.3L137.0 265.3L137.1 265.1L137.1 265.1L137.1 265.0L137.1 265.0L137.2 264.9 Z M 42.3 364.9L43.3 363.8L45.3 362.8L47.4 362.4L47.4 362.4L48.8 362.6L49.2 362.0L50.8 360.6L52.8 359.8L52.9 359.8L53.2 359.8L53.4 359.7L53.4 359.7L53.5 359.7L53.5 359.6L53.6 359.6L53.6 359.6L53.7 359.6L53.7 359.6L53.7 359.6L53.8 359.5L53.8 359.5L53.9 359.5L53.9 359.5L54.0 359.5L54.0 359.4L54.1 359.4L54.1 359.4L54.1 359.4L54.2 359.4L54.2 359.4L54.2 359.3L54.4 359.2L54.5 359.2L54.5 359.2L54.5 359.1L54.6 359.1L54.6 359.1L54.6 359.1L54.6 359.0L54.7 359.0L54.7 359.0L54.8 358.9L54.8 358.9L54.8 358.9L54.9 358.8L54.9 358.8L55 358.8L55.0 358.7L55.1 358.7L55.1 358.6L55.1 358.6L55.1 358.6L55.2 358.5L55.2 358.4L55.3 358.4L55.3 358.4L55.3 358.3L55.3 358.3L55.3 358.3L55.4 358.2L55.4 358.1L55.5 358.1L55.5 358.0L55.5 358.0L55.5 358.0L55.6 357.9L55.6 357.9L55.6 357.9L55.6 357.8L55.6 357.7L55.7 357.7L55.7 357.7L55.7 357.6L55.7 357.6L55.8 357.4L55.8 357.3L55.8 357.3L55.8 357.3L55.8 357.2L55.8 357.1L55.8 357.1L55.9 357.1L55.9 357.0L55.9 357.0L55.9 356.9L55.9 356.9L55.9 356.9L55.9 356.8L55.9 356.8L55.9 356.8L55.9 356.7L55.9 356.7L55.9 356.6L55.9 356.6L55.9 356.6L55.9 356.5L55.9 356.3L55.9 356.3L55.9 356.2L55.9 356.2L55.9 356.2L55.9 356.1L55.9 356.1L55.9 356.0L55.9 356.0L55.9 355.9L55.9 355.9L55.9 355.9L55.9 355.8L55.8 355.8L55.8 355.7L55.8 355.6L55.8 355.5L55.8 355.5L55.8 355.5L55.7 355.4L55.5 353.3L55.8 351.3L56.8 349.4L58.3 348.0L60.1 347.1L62.2 346.7L62.4 346.8L63.6 346.9L65.0 347.4L66.9 348.7L68.1 350.2L68.1 350.3L68.1 350.3L68.1 350.3L68.2 350.4L68.2 350.4L68.2 350.4L68.2 350.5L68.2 350.5L68.3 350.5L68.3 350.6L68.3 350.6L68.3 350.6L68.3 350.6L68.4 350.7L68.4 350.7L68.5 350.8L68.5 350.8L68.6 350.9L68.6 351.0L68.7 351.0L68.7 351.0L68.7 351.1L68.8 351.1L68.8 351.2L68.8 351.2L68.9 351.2L68.9 351.3L69.0 351.3L69.0 351.3L69.0 351.3L69.0 351.3L69.1 351.4L69.1 351.4L69.1 351.4L69.2 351.4L69.2 351.4L69.4 351.5L69.4 351.6L69.5 351.6L69.5 351.6L69.5 351.6L69.5 351.6L69.6 351.7L69.6 351.7L69.7 351.7L69.8 351.7L71.1 352.6L72.4 351.7L72.4 351.7L72.5 351.7L72.5 351.7L72.5 351.6L72.6 351.6L72.6 351.6L72.6 351.6L72.7 351.6L72.7 351.6L72.8 351.5L72.8 351.5L72.9 351.4L72.9 351.4L73.0 351.4L73.0 351.3L73.1 351.3L73.1 351.3L73.1 351.3L73.1 351.2L73.2 351.2L73.2 351.2L73.2 351.2L73.3 351.1L73.5 351.0L73.5 350.9L73.5 350.9L73.7 350.7L73.7 350.7L75.1 349.4L76.7 348.5L78.5 348.1L78.6 348.1L78.6 348.1L80.4 348.3L80.4 348.3L80.6 348.3L80.7 348.4L80.8 348.4L80.9 348.4L80.9 348.4L81.0 348.4L81.0 348.4L81.1 348.4L81.2 348.4L81.2 348.4L81.3 348.4L81.3 348.4L81.3 348.4L84.5 347.7L84.6 347.5L84.7 347.5L86.1 346.4L87.9 345.8L87.9 345.8L89.7 345.7L90.2 343.9L90.3 343.9L90.3 343.9L90.3 343.8L90.3 343.7L91.5 341.8L93.1 340.4L95.3 339.6L96.3 339.5L96.4 339.5L97.4 339.5L97.5 339.5L97.6 339.5L97.6 339.5L97.7 339.5L97.7 339.6L97.7 339.6L97.8 339.6L97.8 339.6L97.9 339.6L98.2 339.6L98.2 339.6L98.2 339.6L98.3 339.6L98.3 339.6L98.4 339.5L98.4 339.5L98.4 339.5L98.5 339.5L98.6 339.5L98.6 339.5L98.7 339.5L98.7 339.5L98.8 339.5L98.8 339.5L98.9 339.4L98.9 339.4L99.0 339.4L99.1 339.4L99.1 339.4L99.1 339.4L99.2 339.3L99.2 339.3L99.3 339.3L99.3 339.3L99.3 339.3L99.4 339.3L99.4 339.3L99.4 339.2L99.5 339.2L99.5 339.2L99.5 339.2L99.6 339.2L99.6 339.2L99.6 339.1L99.7 339.1L99.8 339.1L99.8 339.0L99.8 339.0L99.9 339.0L100 338.9L100.0 338.9L100.0 338.9L100.0 338.9L100.1 338.9L100.1 338.8L100.1 338.8L100.2 338.8L100.2 338.7L100.3 338.7L100.3 338.7L100.3 338.6L100.3 338.6L100.4 338.6L100.4 338.6L100.4 338.5L100.5 338.5L100.5 338.5L100.5 338.5L100.6 338.4L100.6 338.3L100.6 338.3L100.6 338.3L100.7 338.3L100.7 338.2L100.7 338.2L100.7 338.2L100.8 338.1L100.8 338.0L100.8 338.0L100.9 337.9L100.9 337.9L100.9 337.9L100.9 337.8L101 337.8L101.0 337.8L101.0 337.8L101.0 337.7L101.0 337.7L101.0 337.7L101.0 337.6L101.1 337.6L101.1 337.5L101.1 337.5L101.1 337.5L101.1 337.4L101.1 337.4L101.2 337.1L101.2 337.1L101.3 337.1L101.3 337.0L101.3 337.0L101.3 337.0L101.3 336.9L101.3 336.9L101.3 336.8L101.3 336.8L101.3 336.7L101.3 336.7L101.3 336.7L101.3 336.6L101.3 336.6L101.3 336.6L101.3 336.5L101.3 336.5L101.4 336.4L101.4 336.4L101.4 336.4L101.4 336.3L101.4 336.1L101.4 336.1L101.4 336.0L101.3 335.9L101.3 335.9L101.3 335.8L101.3 335.8L101.3 335.7L101.3 335.7L101.3 335.7L101.3 335.6L101.3 335.6L101.3 335.6L101.3 335.5L101.3 335.4L101.3 335.4L101.2 335.3L101.0 334.1L101.0 333.8L101.1 332.9L101.1 332.9L101.7 330.7L103.0 328.9L103.9 328.1L103.9 328.1L104.0 328.1L104.0 328.0L104.0 328.0L104.0 328.0L104.1 328.0L104.1 327.9L104.2 327.9L104.2 327.9L104.2 327.8L104.3 327.8L104.4 327.6L104.5 327.6L104.5 327.6L104.6 327.5L104.6 327.4L104.6 327.4L104.7 327.4L104.7 327.3L104.7 327.3L104.7 327.2L104.8 327.2L104.8 327.1L104.8 327.1L104.9 327.1L104.9 327.0L104.9 327.0L104.9 326.9L105.0 326.9L105.0 326.9L105.0 326.8L105.0 326.7L105.1 326.7L105.1 326.6L105.1 326.6L105.1 326.6L105.1 326.5L105.2 326.3L105.2 326.3L105.2 326.2L105.2 326.2L105.2 326.2L105.2 326.1L105.3 326.0L105.3 326.0L105.3 326L105.3 325.9L105.3 325.9L105.3 325.8L105.3 325.8L105.3 325.8L105.3 325.7L105.3 325.7L105.3 325.6L105.3 325.6L105.3 325.5L105.3 325.5L105.3 325.4L105.3 325.4L105.3 325.3L105.3 325.3L105.3 325.2L105.3 325.2L105.3 325.1L105.3 325.1L105.3 325.1L105.3 325.0L105.3 325.0L105.3 324.9L105.3 324.9L105.3 324.8L105.2 324.1L105.2 324.1L105.4 322.2L105.4 322.1L105.4 322.1L105.5 322.1L105.5 322.0L105.5 322.0L105.5 322.0L105.5 321.9L105.5 321.9L105.5 321.8L105.5 321.8L105.5 321.8L105.5 321.7L105.5 321.6L105.5 321.6L105.5 321.6L105.5 321.5L105.5 321.5L105.5 321.5L105.5 321.2L105.5 321.2L105.5 321.1L105.5 321.1L105.5 321.0L105.5 320.6L105.9 318.2L107.1 316.1L109.1 314.6L109.1 314.5L109.2 314.5L109.2 314.5L109.4 314.4L109.4 314.3L109.5 314.3L109.5 314.3L109.5 314.3L109.6 314.2L109.6 314.2L109.6 314.2L109.6 314.2L109.7 314.1L109.7 314.1L109.8 314.1L109.8 314.0L109.9 314.0L109.9 313.9L109.9 313.9L109.9 313.9L110.0 313.9L110.0 313.8L110.0 313.8L110.1 313.8L110.1 313.7L110.1 313.7L110.1 313.7L110.2 313.6L110.2 313.6L110.2 313.6L110.3 313.5L110.3 313.5L110.3 313.5L110.3 313.4L110.4 313.3L110.4 313.3L110.4 313.2L110.5 313.2L110.5 313.2L110.5 313.1L110.5 313.1L110.5 313.1L110.5 313.0L110.6 313.0L110.6 313.0L110.6 312.9L110.6 312.9L110.6 312.8L110.6 312.8L110.7 312.7L110.7 312.7L110.7 312.5L110.8 312.5L110.8 312.5L110.8 312.4L110.8 312.4L110.8 312.3L110.8 312.3L110.8 312.3L110.8 312.2L110.8 312.2L110.8 312.2L110.8 312.1L110.8 312.1L110.8 312.1L110.9 312.0L110.9 312.0L110.9 311.9L110.9 311.9L110.9 311.9L110.9 311.8L110.9 311.8L110.9 311.8L110.9 311.7L110.9 311.6L110.9 311.6L110.9 311.5L110.9 311.5L110.9 311.4L110.9 311.4L110.9 311.3L110.9 311.3L110.9 311.3L110.9 311.2L110.9 311.2L110.9 311.2L110.9 311.1L110.9 311.1L110.8 311.1L110.8 311.0L110.8 311.0L110.8 310.9L110.8 310.9L110.8 310.9L110.8 310.8L110.8 310.8L110.8 310.7L110.8 310.7L110.8 310.7L110.8 310.6L110.7 310.6L110.7 310.5L110.7 310.4L110.7 310.4L110.7 310.4L110.7 310.3L110.6 310.3L110.6 310.2L110.6 310.1L110.3 309.5L110.1 308.7L110.0 307.7L110.3 305.4L111.3 303.4L113.0 301.8L115.1 300.8L116.8 300.6L116.8 300.6L118.8 301.0L118.8 301.0L118.9 301.0L118.9 301.0L118.9 301.0L119.0 301.0L119.0 301.0L119.1 301.1L119.1 301.1L119.2 301.1L119.3 301.1L119.3 301.1L119.3 301.1L119.4 301.1L119.4 301.1L119.4 301.1L119.5 301.1L119.5 301.1L119.6 301.1L119.6 301.1L119.6 301.1L119.7 301.1L119.7 301.1L119.8 301.1L119.8 301.1L119.9 301.1L119.9 301.1L120.0 301.1L120.0 301.1L120.1 301.1L120.1 301.1L120.2 301.1L120.2 301.1L120.3 301.1L120.3 301.1L120.4 301.1L120.4 301.1L120.5 301.1L120.5 301.1L120.5 301.1L120.6 301.1L120.6 301.1L120.7 301.0L120.7 301.0L120.8 301.0L120.8 301.0L120.8 301.0L121.0 301.0L121.0 300.9L121.0 300.9L121.1 300.9L121.1 300.9L121.1 300.9L121.2 300.9L121.2 300.9L121.3 300.8L121.3 300.8L121.4 300.8L121.4 300.8L121.4 300.7L121.5 300.7L121.5 300.7L121.5 300.7L121.6 300.7L121.6 300.6L121.7 300.6L121.7 300.6L121.8 300.5L121.8 300.5L121.8 300.5L121.8 300.5L121.9 300.5L121.9 300.4L121.9 300.4L122.0 300.4L122.0 300.3L122.0 300.3L122.1 300.3L122.1 300.2L122.2 300.2L122.3 300.1L123.0 299.5L123.0 299.5L123.1 299.4L123.1 299.4L123.2 299.3L123.2 299.3L123.2 299.3L123.3 299.2L123.4 299.1L123.4 299.1L123.5 299.0L123.5 299.0L123.6 298.9L123.6 298.9L123.6 298.9L123.7 298.8L123.7 298.8L123.7 298.8L123.7 298.7L123.7 298.7L123.8 298.7L123.8 298.6L123.9 298.6L123.9 298.5L123.9 298.5L123.9 298.4L123.9 298.4L124.0 298.4L124.0 298.3L124.0 298.3L124.0 298.3L124.0 298.2L124.0 298.2L124.1 298.1L124.1 298.1L124.1 298.0L124.1 298.0L124.1 298.0L124.2 297.7L124.2 297.7L124.2 297.7L124.2 297.6L124.3 297.6L124.3 297.5L124.3 297.4L124.3 297.3L124.6 296.3L125.6 294.3L125.7 294.2L125.6 294.2L123.7 292.9L123.7 292.9L122.4 291.1L122.4 291.1L122.3 290.7L122.0 290.5L122.0 290.4L121.9 290.4L121.9 290.3L121.9 290.3L121.8 290.3L121.8 290.3L121.8 290.2L121.8 290.2L121.7 290.2L121.7 290.2L121.7 290.1L121.5 290.0L121.5 290.0L121.5 289.9L121.4 289.9L121.4 289.9L120.1 288.6L119.1 287.0L118.9 286.1L118.9 286.1L118.7 284.5L118.7 283.4L119.3 281.5L120.4 279.9L122.0 278.7L123.8 277.9L125.8 277.8L125.8 277.8L127.5 278.1L127.8 278.2L128.4 278.5L129.6 279.1L131.4 280.4L131.3 280.9L130.4 281.3L126.6 280.2L126.1 282.8L126.5 284.1L128.5 287.0L128.5 289.0L127.4 290.9L131.3 297.5L130.4 300.3L129.7 300.9L131.3 304.0L129.2 304.4L128.6 305.2L130.4 308.3L131.5 314.1L131.7 320.1L126.8 330.8L126.1 335.5L122.6 341.4L120.1 341.9L122.7 345.9L122.6 347.7L121.6 348.4L117.3 348.1L115.3 346.9L113.3 346.6L112.8 345.6L110.9 348.3L109.8 349.0L109.6 346.7L108.4 344.7L108.3 347.7L107.5 348.7L106.1 349.0L105.3 348.3L99.1 348.7L93.4 349.9L94.2 351.9L93.2 353.5L89.6 354.9L87.4 354.0L85.8 357.1L81.7 359.5L78.5 359.5L78.1 358.9L78.6 357.6L76.9 357.1L76.6 355.6L74.7 355.6L76.6 359.0L75.9 361.5L72.8 363.0L69.9 362.4L70.9 363.3L69.8 364.0L69.8 364.1L69.7 364.1L69.7 364.1L69.7 364.1L69.6 364.1L69.6 364.1L69.6 364.2L69.5 364.2L69.5 364.2L69.4 364.2L69.4 364.3L69.3 364.3L69.3 364.3L69.3 364.3L69.2 364.4L69.2 364.4L69.1 364.4L69.1 364.5L69.1 364.5L69.0 364.5L69.0 364.5L66.5 364.3L66.7 365.7L66.1 366.4L63.1 366.0L61.1 367.2L56.9 366.5L53.9 368.6L51.3 369.0L50.2 368.4L49.3 366.4L43.8 367.4L41.9 368.6L40.7 368.6L40.9 367.3L41.0 367.1L46.4 363.8 Z M 91.8 288.4L93.6 289.0L95.2 290.0L96.4 291.4L97.2 293.2L97.5 295.0L97.2 296.9L96.4 298.7L95.1 300.2L93.1 301.3L90.9 301.8L90.9 301.8L88.8 301.5L86.9 300.6L85.4 299.1L84.4 297.3L84.0 295.1L84.3 293.2L85.1 291.4L86.4 289.9L88.0 288.9L89.9 288.4L89.9 288.4L91.8 288.4 Z M 65.4 333.2L64.4 333.3L64.4 333.3L64.1 333.3L62.8 333.1L62.7 333.1L62.7 333.1L62.6 333.1L62.6 333.1L62.6 333.1L62.5 333.1L62.5 333.1L62.4 333.1L62.4 333.1L62.4 333.1L62.3 333.0L62.3 333.0L62.2 333.0L62.1 333.0L62.1 333.0L62.1 333.0L62.0 333.0L61.8 333.0L61.8 333.0L61.7 333.0L61.7 333.0L61.6 333.0L61.2 333.1L60.3 333.0L58.2 332.4L56.4 331.1L55.1 329.3L54.7 328.5L54.7 328.5L54.6 328.0L56.6 328.1L65.6 326.0L71.8 326.2L65.2 324.6L64.9 321.5L63.5 322.4L61.2 325.6L59.4 326.7L56.8 327.3L56.4 326.3L54.4 326.4L54.4 325.5L54.4 325.5L55.0 323.4L56.3 321.6L58.0 320.3L58.1 320.3L58.1 320.3L58.2 320.3L58.3 320.2L58.3 320.2L58.4 320.1L58.5 320.1L58.5 320.1L58.5 320.0L58.6 320.0L58.6 320.0L58.6 320.0L58.6 320.0L58.7 319.9L58.8 319.8L58.9 319.7L58.9 319.7L59.0 319.7L59.0 319.6L59.0 319.6L59.1 319.6L59.1 319.5L59.1 319.5L59.2 319.4L59.2 319.4L59.2 319.4L59.3 319.3L59.3 319.3L60.5 318.0L61.7 317.3L61.7 317.2L61.8 317.2L61.8 317.2L61.8 317.2L61.9 317.2L62.0 317.1L62.0 317.1L62.0 317.1L62.1 317.0L62.1 317.0L62.1 317.0L62.2 317.0L62.2 316.9L62.2 316.9L62.3 316.9L62.3 316.9L62.3 316.9L62.4 316.8L62.5 316.7L62.5 316.7L62.6 316.6L62.7 316.5L62.7 316.5L62.7 316.5L62.8 316.3L62.8 316.3L62.9 316.3L62.9 316.3L62.9 316.2L64.4 314.7L66.3 313.8L68.4 313.5L68.4 313.5L71.3 314.2L71.4 314.2L71.4 314.2L71.4 314.2L71.5 314.2L71.5 314.3L71.6 314.3L71.6 314.3L71.6 314.3L71.7 314.3L71.9 314.4L71.9 314.4L72.0 314.4L72.0 314.4L72.0 314.4L72.1 314.5L72.2 314.5L72.2 314.5L72.3 314.5L72.3 314.5L72.3 314.5L72.4 314.5L72.4 314.5L72.4 314.5L72.5 314.5L72.5 314.5L72.5 314.5L72.6 314.5L72.6 314.5L72.7 314.5L72.7 314.5L72.7 314.5L72.8 314.5L72.9 314.5L73.0 314.5L73.0 314.5L73.1 314.5L73.1 314.5L73.1 314.5L73.2 314.5L73.2 314.5L73.3 314.5L73.3 314.5L73.3 314.5L73.4 314.5L73.4 314.5L73.4 314.5L73.5 314.5L73.5 314.5L73.6 314.4L73.7 314.4L73.7 314.4L73.8 314.4L73.8 314.4L73.9 314.4L73.9 314.4L73.9 314.3L74.0 314.3L74.0 314.3L74.0 314.3L74.1 314.3L74.1 314.3L74.1 314.3L74.2 314.3L74.2 314.2L74.3 314.2L74.3 314.2L74.4 314.2L74.4 314.1L75.7 313.7L76.0 312.3L76.0 312.3L76.5 311.2L77.8 309.6L79.5 308.5L81.5 307.9L83.3 307.9L85.0 308.4L86.5 309.4L88.2 311.3L89.0 313.8L89.0 314.4L89.0 314.4L89.0 314.6L89.0 314.6L88.6 317.0L87.3 319.1L85.4 320.6L85.4 320.6L84.1 321.0L83.9 322.3L83.8 322.4L83.8 322.6L83.8 322.6L83.8 322.6L83.8 322.7L83.8 322.7L83.7 322.8L83.7 322.9L83.7 323.0L83.7 323.0L83.7 323.0L83.7 323.1L83.7 323.1L83.7 323.2L83.7 323.2L83.7 323.3L83.7 323.3L83.7 323.4L83.6 323.4L83.6 323.6L83.7 323.7L83.7 323.7L83.7 323.8L83.7 323.8L83.7 323.8L83.7 323.9L83.7 323.9L83.7 324.0L83.7 324.0L83.7 324.1L83.7 324.1L83.7 324.1L83.7 324.2L83.7 324.3L83.8 324.4L83.8 324.4L83.8 324.5L83.9 324.7L83.9 324.8L83.9 324.8L83.9 324.9L83.9 324.9L84.0 325.0L84.5 327.0L84.4 329.2L83.6 331.2L82.2 332.9L78.6 335.9L76.7 337.0L74.6 337.5L74.6 337.5L74.2 337.5L74.2 337.5L72.1 337.2L70.2 336.2L68.7 334.7L68.7 334.6L68.7 334.6L68.6 334.6L68.6 334.5L68.6 334.5L68.6 334.5L68.5 334.5L68.5 334.4L68.4 334.3L68.4 334.3L68.4 334.3L68.2 334.1L68.2 334.1L68.2 334.1L68.1 334.0L68.1 334.0L68.0 334.0L68.0 333.9L68.0 333.9L68.0 333.9L67.9 333.9L67.9 333.8L67.8 333.8L67.8 333.8L67.7 333.7L67.6 333.7L67.6 333.7L67.6 333.7L67.6 333.6L67.5 333.6L67.5 333.6L67.5 333.6L67.4 333.6L67.4 333.5L67.3 333.5L67.3 333.5L67.3 333.5L67.2 333.5L67.2 333.5L67.1 333.5L67.1 333.4L66.9 333.4L66.9 333.4L66.8 333.3L66.8 333.3L66.8 333.3L66.7 333.3L66.6 333.3L66.5 333.3L66.5 333.3L66.5 333.3L66.4 333.3L66.4 333.3L66.3 333.2L66.2 333.2L66.2 333.2L66.1 333.2L66.1 333.2L66.0 333.2L66.0 333.2L65.9 333.2L65.9 333.2L65.8 333.2L65.8 333.2L65.7 333.2L65.7 333.2L65.7 333.2L65.6 333.2L65.6 333.2L65.5 333.2L65.5 333.3L65.5 333.3L65.4 333.3 Z M 65.4 333.2 "/>
<path style=" stroke:none;fill-rule:nonzero;fill:#C2B855;fill-opacity:1;" d="M 48.3 369.8L47.7 370.4L47.0 370.3 Z M 48.3 369.8 "/>
















</g>
</svg>
