<?xml version="1.0" encoding="UTF-8"?>
<svg xmlns="http://www.w3.org/2000/svg" xmlns:xlink="http://www.w3.org/1999/xlink" width="378pt" height="504pt" viewBox="0 0 378 504" version="1.1">
<g id="data">
<rect x="0" y="0" width="378" height="504" style="fill:rgb(100%,100%,100%);fill-opacity:1;stroke:none;"/>
<path style=" stroke:none;fill-rule:nonzero;fill:rgb(100%,100%,100%);fill-opacity:1;" d="M 21 504L357 504L357 0L21 0 Z M 21 504 "/>
<path style=" stroke:none;fill-rule:nonzero;fill:#C2B855;fill-opacity:1;" d="M 248.6 360.7L246.9 359.7L245.5 358.2L244.7 356.4L244.4 354.4L244.6 352.7L245.2 351.2L245.3 351.1L245.3 351.1L245.3 351.0L245.3 351.0L245.3 351.0L245.3 351.0L245.4 350.9L246.7 349.1L248.5 347.8L250.7 347.1L252.9 347.3L255.0 348.1L255.1 348.2L255.1 348.2L255.1 348.2L255.2 348.3L256.7 349.5L258.3 348.3L258.3 348.3L261.0 347.7L261.2 347.7L263.2 348.0L265.1 349.0L265.1 349.0L265.5 349.2L266.9 350.8L267.7 352.8L267.7 352.8L267.9 354.2L267.9 354.2L267.8 355.8L267.4 356.9L266.4 358.6L265.0 360.0L263.2 360.9L261.2 361.2L261.2 361.2L259.4 360.9L257.8 360.2L257.8 360.2L256.3 359.0L254.7 360.1L254.7 360.1L254.6 360.2L254.6 360.2L254.6 360.2L254.6 360.2L254.5 360.2L254.4 360.3L252.7 361L252.7 361L252.2 361.1L251.1 361.2L248.6 360.7 Z M 242.8 345.5L241.8 344.1L241.2 342.4L241.0 340.6L241.0 340.6L241.5 338.4L242.8 336.5L244.5 335.1L246.7 334.3L248.2 334.3L248.2 334.3L250.4 334.8L252.4 336.1L253.8 338.0L254.4 340.2L254.5 341.1L253.8 343.8L252.6 345.6L250.8 347.0L248.8 347.6L246.6 347.6L244.5 346.9L242.8 345.5 Z M 190.6 176.9L190.7 175.2L191.2 173.6L192.2 172.0L193.6 170.8L195.3 169.9L197.1 169.6L197.5 169.6L199.7 170.0L199.7 170.0L201.4 171.0L202.8 172.4L203.7 174.1L204.1 176.0L204.1 176.3L204.1 176.4L204.1 176.9L203.7 178.7L202.8 180.3L201.5 181.7L199.8 182.6L197.5 183.1L197.3 183.1L195.4 182.8L193.6 181.9L192.1 180.6L191.1 178.8L190.6 176.9 Z M 176.4 172.5L176.2 172.6L176.2 172.6L176.1 172.6L176.0 172.6L176.0 172.6L176.0 172.6L175.9 172.7L175.9 172.7L175.9 172.7L175.8 172.7L175.8 172.7L175.7 172.8L175.7 172.8L175.7 172.8L175.7 172.8L175.6 172.8L175.5 172.9L175.5 172.9L175.4 173.0L175.4 173.0L175.4 173.0L175.3 173.0L175.3 173.1L175.3 173.1L175.3 173.1L175.2 173.1L175.2 173.2L175.1 173.2L175.1 173.2L175.0 173.3L175.0 173.3L175.0 173.4L174.9 173.4L174.9 173.5L174.9 173.5L174.8 173.6L174.7 173.6L174.7 173.6L174.7 173.7L174.7 173.7L174.6 173.7L174.6 173.8L174.6 173.8L174.6 173.8L174.5 174.0L174.5 174.0L174.4 174.1L174.4 174.1L174.4 174.1L174.4 174.1L174.4 174.2L174.4 174.2L174.3 174.3L174.3 174.3L174.3 174.4L174.3 174.4L174.3 174.5L174.2 174.5L174.2 174.5L174.2 174.6L174.2 174.6L174.2 174.6L174.2 174.7L174.2 174.7L174.1 174.7L174.1 174.8L174.1 174.8L174.1 174.8L174.1 174.9L174.1 174.9L174.1 175.1L174.1 175.1L174.0 175.2L174.0 175.2L174.0 175.2L174.0 175.3L174.0 175.3L174.0 175.3L174.0 175.4L174.0 175.5L174.0 175.5L174.0 175.5L174.0 175.6L174.0 175.8L174.0 175.9L174.0 175.9L174.0 175.9L174.0 176.0L174.0 176.0L174.0 176.1L174.0 176.1L174.0 176.2L174.0 176.2L174.0 176.2L174.1 176.3L174.1 176.3L174.1 176.3L174.1 176.4L174.1 176.5L174.1 176.5L174.1 176.6L174.1 176.6L174.1 176.6L174.1 176.7L174.2 176.7L174.2 176.9L174.2 176.9L174.3 177.0L174.3 177.0L174.3 177.1L174.3 177.1L174.3 177.2L174.3 177.2L174.4 177.2L174.4 177.3L174.4 177.3L174.4 177.3L174.4 177.3L174.4 177.4L174.6 177.6L174.6 177.6L174.6 177.6L174.6 177.7L174.7 177.7L174.7 177.8L174.7 177.8L174.7 177.8L174.8 177.8L174.8 177.9L174.9 178L174.9 178.0L174.9 178.0L174.9 178.0L175.0 178.1L175.0 178.1L175.0 178.1L175.0 178.1L175.1 178.2L176.2 179.5L176.2 179.6L176.3 179.7L176.3 179.7L176.3 179.7L176.3 179.8L176.3 179.8L176.4 179.8L176.4 179.8L176.4 179.9L176.4 179.9L176.5 179.9L176.5 180.0L176.5 180.0L176.5 180.0L176.6 180.0L176.6 180.1L176.6 180.1L176.6 180.1L176.7 180.1L176.7 180.2L176.7 180.2L176.7 180.2L176.8 180.2L176.8 180.3L176.8 180.3L176.9 180.3L176.9 180.4L176.9 180.4L177.0 180.4L177.0 180.5L177.1 180.5L177.1 180.5L177.1 180.6L177.1 180.6L177.2 180.6L177.2 180.6L177.2 180.6L177.3 180.7L177.4 180.7L178.9 182.0L179.9 183.6L180.5 185.5L180.5 185.5L180.6 186.3L180.6 186.3L180.5 187.3L179.8 189.5L178.4 191.3L176.5 192.6L174.2 193.1L174.2 193.1L173.6 193.1L173.6 193.1L171.6 192.8L171.5 192.7L171.5 192.7L171.4 192.7L171.3 192.7L171.3 192.7L171.1 192.6L171.1 192.6L171.1 192.6L171.0 192.6L171.0 192.6L170.9 192.6L170.9 192.6L170.8 192.6L170.7 192.6L170.7 192.6L170.7 192.6L170.6 192.6L170.5 192.6L170.4 192.6L170.4 192.6L170.3 192.6L170.2 192.6L170.2 192.6L170.2 192.6L170.1 192.6L170.1 192.6L170.0 192.6L170.0 192.6L169.9 192.6L169.9 192.6L169.8 192.6L169.8 192.6L169.6 192.7L169.6 192.7L169.6 192.7L169.5 192.7L169.5 192.7L169.3 192.8L168.5 193.0L167.1 193.2L166.5 193.1L166.0 193.1L166.0 193.1L165.9 193.0L165.9 193.0L165.8 193.0L165.8 193.0L165.7 193.0L165.7 193.0L165.6 193.0L165.6 193.0L165.6 193.0L165.3 193.0L165.3 193.0L165.2 193.0L165.2 193.0L165.2 193.0L165.1 193.0L165.0 193.0L165.0 193.0L164.9 193.0L164.9 193.1L164.8 193.1L164.1 193.1L163.8 193.2L163.7 193.2L162.2 193.0L160.6 192.4L159.1 191.3L158.0 190.0L158.0 189.9L158.0 189.8L157.9 189.8L157.9 189.8L157.9 189.7L157.9 189.7L157.8 189.7L157.8 189.7L157.8 189.6L157.8 189.6L157.8 189.6L157.7 189.5L157.7 189.5L157.6 189.4L157.5 189.3L157.4 189.2L158.3 188.3L159.2 186.3L157.2 189.0L157.1 189.0L157.1 189L157.1 188.9L157.0 188.9L157.0 188.9L157.0 188.8L156.9 188.8L155.5 187.7L155.5 187.6L155.4 187.6L155.4 187.6L155.3 187.5L155.3 187.5L155.3 187.5L155.3 187.4L155.2 187.4L155.2 187.4L155.2 187.4L155.1 187.3L155.1 187.3L155.0 187.3L155.0 187.2L154.6 186.8L155.5 186.4L154.3 186.5L153.5 185.8L153.1 184.8L158.6 176.8L152.4 182.7L152.3 181.9L152.6 179.8L153.5 178.0L153.5 177.9L153.6 177.8L153.6 177.8L153.6 177.7L153.7 177.6L153.7 177.6L153.7 177.6L153.8 177.5L153.8 177.5L153.8 177.4L153.8 177.4L153.8 177.3L153.9 177.3L153.9 177.3L153.9 177.2L153.9 177.2L153.9 177.2L153.9 177.1L153.9 177.1L154.0 177.0L154.0 177.0L154.0 176.9L154.0 176.9L154.0 176.9L154.0 176.8L154.0 176.8L154.0 176.8L154.1 176.7L154.1 176.6L154.1 176.6L154.1 176.6L154.1 176.5L154.1 176.4L154.1 176.4L154.1 176.4L154.1 176.3L154.1 176.3L154.1 176.3L154.1 176.2L154.1 176.2L154.1 176.1L154.1 176.1L154.1 175.9L154.1 175.8L154.1 175.8L154.1 175.7L154.1 175.7L154.1 175.7L154.1 175.6L154.1 175.6L154.1 175.5L154.1 175.5L154.1 175.5L154.1 175.4L154.1 175.3L154.1 175.3L154.0 175.3L154.0 175.2L154.0 175.2L154.0 175.1L154.0 175.1L154.0 175.1L154.0 175.0L154.0 175.0L153.7 173.2L153.7 172.7L153.8 171.9L153.8 171.8L153.8 171.8L153.8 171.7L153.8 171.7L153.8 171.6L153.8 171.5L153.8 171.5L153.8 171.5L153.8 171.4L153.8 171.4L153.8 171.2L153.8 171.2L153.8 171.1L153.8 171.1L153.8 171.1L153.8 171.0L153.8 171.0L153.8 170.9L153.8 170.9L153.8 170.8L153.8 170.8L153.8 170.7L153.7 170.2L153.7 170.1L153.7 170.1L153.7 170.0L153.7 170.0L153.7 170.0L153.7 169.9L153.7 169.9L153.7 169.8L153.6 169.8L153.6 169.8L153.6 169.7L153.6 169.7L153.6 169.7L153.6 169.6L153.6 169.6L153.6 169.5L153.6 169.5L153.5 169.4L153.5 169.4L153.5 169.3L153.5 169.3L153.5 169.2L153.5 169.2L153.5 169.1L153.4 169.1L153.4 169.0L153.4 169.0L153.4 169.0L153.4 168.9L153.3 168.9L153.3 168.9L153.3 168.8L153.3 168.8L153.3 168.8L153.3 168.7L153.2 168.6L153.2 168.6L153.1 168.5L153.1 168.5L153.1 168.5L153.1 168.5L153.1 168.4L153.0 168.4L153.0 168.4L153.0 168.3L152.9 168.3L152.9 168.2L152.9 168.2L152.9 168.2L152.8 168.2L152.8 168.1L152.8 168.1L152.8 168.1L152.7 168.0L152.7 168.0L152.7 168.0L152.6 167.9L152.6 167.9L152.6 167.9L152.5 167.9L152.5 167.8L152.4 167.8L152.4 167.8L152.4 167.7L152.3 167.7L152.3 167.7L152.3 167.6L152.2 167.6L152.2 167.6L152.2 167.6L152.1 167.5L152.0 167.5L152.0 167.5L152.0 167.5L151.9 167.4L151.9 167.4L151.9 167.4L151.8 167.4L151.8 167.4L151.7 167.3L151.7 167.3L151.6 167.3L151.6 167.3L151.6 167.3L151.5 167.3L151.5 167.2L151.5 167.2L151.4 167.2L151.3 167.2L151.3 167.2L151.2 167.2L151.2 167.1L151.1 167.1L151.0 167.1L151.0 167.1L151.0 167.1L150.9 167.1L150.9 167.1L150.8 167.1L150.8 167.1L150.7 167.1L150.7 167.1L150.7 167.1L150.6 167.1L150.6 167.1L150.6 167.0L150.5 167.0L150.5 167.0L150.4 167.0L150.4 167.0L150.3 167.0L150.3 167.0L150.2 167.0L150.1 167.0L150.1 167.0L150.1 167.1L150.0 167.1L150.0 167.1L150.0 167.1L149.9 167.1L149.9 167.1L149.8 167.1L149.8 167.1L149.8 167.1L149.7 167.1L149.7 167.1L149.6 167.1L149.6 167.1L149.5 167.1L149.5 167.2L149.4 167.2L149.4 167.2L149.3 167.2L149.2 167.3L149.1 167.3L149.1 167.3L149.1 167.3L149.0 167.3L149.0 167.3L148.9 167.4L148.9 167.4L148.8 167.4L148.8 167.4L148.8 167.4L148.7 167.5L148.7 167.5L148.6 167.5L148.6 167.5L148.5 167.6L148.4 167.6L148.4 167.6L148.4 167.7L148.3 167.7L148.3 167.7L148.3 167.7L148.3 167.8L148.2 167.8L148.2 167.8L148.1 167.9L146.9 168.6L145.5 167.4L146.8 165.1L150.6 166.2L153.4 165.7L150.4 165.1L148.4 163.3L148.6 160.6L150.6 159.9L153.5 161.0L150.3 158.8L149.8 157.1L153.0 153.9L146.4 156.5L145.4 155.6L144.6 151.2L145.4 147.7L149.1 150.4L152.0 149.5L148.8 148.9L146.2 145.4L146.4 138.5L146.8 137.2L148.5 136.8L150.6 140.7L151.2 138.4L150.0 136.6L150.7 134.9L153.7 137.5L154.3 135.9L156.1 135.3L160.7 138.1L159.2 134.4L154.1 129.3L154.7 128.5L156.8 129.9L157.6 129.4L157.8 126.8L155.7 122.6L162.0 122.7L160.2 119.4L163.7 110.1L164.6 109.6L165.1 109.5L168.5 110.3L169.8 112.0L170.2 113.3L168.5 116.3L172.5 111.4L178.0 113.2L184.8 112.6L185.0 112.6L185.0 112.6L185.6 112.8L186.1 112.6L186.2 112.6L186.8 112.5L188.6 112.6L188.6 112.6L190.5 113.3L192.1 114.6L193.3 116.2L193.9 118.1L193.9 118.1L194.0 119.9L193.5 121.8L192.5 123.5L191.0 124.8L189.2 125.7L187.3 126L186.2 125.9L186.1 125.9L185.6 125.7L185.0 125.9L185.0 125.9L184.5 125.9L183.6 125.9L183.5 125.9L183.4 125.9L183.4 125.9L183.3 125.9L183.3 125.9L183.2 125.9L183.2 125.9L183.1 125.9L183.0 126L183.0 126L183.0 126.0L182.9 126.0L182.9 126.0L182.9 126.0L182.8 126.0L182.8 126.0L182.8 126.0L182.7 126.0L182.6 126.0L182.5 126.0L182.5 126.1L182.4 126.1L182.3 126.1L182.3 126.1L182.3 126.1L182.2 126.1L182.1 126.2L182.1 126.2L182.1 126.2L182.0 126.2L182.0 126.2L182.0 126.2L181.9 126.2L181.9 126.3L181.9 126.3L181.8 126.3L181.8 126.3L181.8 126.3L181.7 126.3L181.7 126.4L181.7 126.4L181.5 126.5L181.4 126.5L181.4 126.6L181.4 126.6L181.3 126.6L181.3 126.6L181.3 126.6L181.3 126.7L181.2 126.7L181.2 126.7L181.2 126.7L181.1 126.8L181.1 126.8L181.0 126.9L180.9 127.0L180.9 127.0L180.9 127.0L180.8 127.1L180.8 127.1L180.8 127.2L180.7 127.2L180.7 127.2L180.7 127.2L180.7 127.3L180.6 127.3L180.6 127.3L180.6 127.4L180.6 127.4L180.5 127.5L180.5 127.5L180.5 127.5L180.4 127.6L180.4 127.7L180.4 127.7L180.4 127.7L180.3 127.8L180.3 127.8L180.3 127.9L180.3 127.9L180.3 127.9L180.2 128.0L180.2 128.0L180.2 128.1L180.2 128.1L180.2 128.2L179.8 129.0L179.8 129.0L178.9 130.4L178.8 130.5L178.8 130.5L178.7 130.6L178.7 130.6L178.7 130.6L178.7 130.7L178.6 130.7L178.6 130.7L178.6 130.8L178.5 130.8L178.5 130.8L178.4 131.0L178.4 131.0L178.4 131.0L178.4 131.1L178.4 131.1L178.4 131.1L178.3 131.2L178.3 131.2L178.3 131.2L178.3 131.3L178.3 131.3L178.2 131.4L178.2 131.4L178.2 131.4L178.2 131.5L178.2 131.5L178.1 131.7L178.1 131.7L178.1 131.8L178.1 131.8L178.1 131.9L178.1 131.9L178.1 131.9L178.0 132.0L178.0 132.1L178.0 132.1L178.0 132.2L178.0 132.2L178.0 132.3L178.0 132.3L178.0 132.3L178.0 132.4L178.0 132.4L178.0 132.4L178.0 132.5L178.0 132.5L178.0 132.6L178.0 132.6L178.0 132.7L178.0 132.8L178.0 132.8L178.0 132.9L178.0 132.9L178.0 132.9L178.0 133.0L178.0 133.0L178.0 133.0L178.0 133.1L178.0 133.1L178.0 133.2L178.0 133.2L178.0 133.3L178.0 133.3L178.1 133.3L178.1 133.4L178.1 133.4L178.1 133.5L178.1 133.5L178.1 133.6L178.1 133.6L178.1 133.6L178.2 133.8L178.2 133.9L178.2 133.9L178.2 133.9L178.2 134.0L178.3 134.0L178.3 134.1L178.3 134.1L178.3 134.1L178.3 134.2L178.4 134.2L178.4 134.2L178.4 134.3L178.4 134.3L178.4 134.4L178.5 134.5L178.5 134.5L178.6 134.6L178.6 134.6L178.6 134.6L178.7 134.7L178.7 134.7L178.7 134.7L178.7 134.8L178.7 134.8L178.8 134.8L178.8 134.9L178.8 134.9L178.9 134.9L179.8 136.4L180.4 138.8L180.3 138.9L175 136.7L175.8 138.4L180.5 139.9L180.5 140.3L179.9 142.4L178.6 144.1L178.6 144.1L177.7 144.9L176.6 145.3L174.1 148.0L173.8 149.1L176.0 147.3L175.9 147.3L175.9 147.3L175.9 147.4L175.9 147.4L175.9 147.5L175.9 147.5L175.9 147.6L175.9 147.6L175.9 147.6L175.9 147.7L175.9 147.7L175.9 147.8L175.9 147.8L175.9 147.9L175.9 147.9L175.9 147.9L175.9 148.0L175.9 148.1L175.9 148.1L175.9 148.2L175.9 148.2L175.9 148.2L175.9 148.3L175.9 148.3L175.9 148.3L175.9 148.4L175.9 148.4L175.9 148.5L176 148.5L176.0 148.5L176.0 148.6L176.0 148.7L176.0 148.7L176.0 148.7L176.0 148.8L176.0 148.9L176.0 148.9L176.1 149.0L176.1 149.0L176.1 149.1L176.1 149.1L176.1 149.2L176.2 149.2L176.2 149.3L176.2 149.3L176.2 149.3L176.2 149.4L176.3 149.4L176.3 149.4L176.3 149.5L176.3 149.5L176.3 149.6L176.9 150.8L176.9 150.9L176.9 151.0L177 151.0L177.0 151.1L177.0 151.1L177.0 151.2L177.0 151.2L177.0 151.2L177.1 151.3L177.1 151.4L177.1 151.4L177.1 151.4L177.1 151.5L177.2 151.5L177.2 151.5L177.2 151.6L177.3 151.8L177.4 151.8L177.4 151.8L177.4 151.9L177.4 151.9L177.4 151.9L177.5 152.0L177.5 152.0L177.5 152.0L177.5 152.0L177.6 152.1L177.6 152.1L177.6 152.2L177.7 152.2L177.7 152.2L177.7 152.2L177.7 152.3L177.8 152.3L177.8 152.3L177.8 152.3L177.8 152.3L177.8 152.3L177.9 152.4L177.9 152.4L178.0 152.5L178.0 152.5L178.1 152.6L178.1 152.6L178.1 152.6L178.2 152.6L178.2 152.7L178.2 152.7L178.3 152.7L178.3 152.7L178.3 152.8L178.4 152.8L178.4 152.8L178.5 152.8L178.5 152.8L178.5 152.9L178.6 152.9L178.6 152.9L178.6 152.9L178.7 152.9L178.7 152.9L178.7 153.0L178.8 153.0L178.8 153.0L178.9 153.0L178.9 153.0L178.9 153.0L179.2 153.1L180.8 153.9L182.2 155.1L182.2 155.1L183.5 157.3L183.9 159.8L183.9 159.8L183.5 161.9L182.5 163.7L181.7 164.6L181.6 164.6L181.6 164.7L181.5 164.7L181.5 164.8L181.4 164.8L181.4 164.8L181.4 164.8L181.3 164.9L181.3 165L181.2 165.0L181.2 165.1L181.2 165.1L181.2 165.1L181.1 165.2L181.1 165.2L181.0 165.4L180.9 165.5L180.9 165.5L180.9 165.5L180.9 165.6L180.9 165.6L180.9 165.6L180.8 165.7L180.8 165.7L180.8 165.7L180.8 165.8L180.8 165.8L180.8 165.8L180.8 165.9L180.7 165.9L180.7 165.9L180.7 166.1L180.6 166.2L180.6 166.2L180.6 166.2L180.6 166.3L180.6 166.4L180.6 166.5L180.6 166.5L180.6 166.5L180.6 166.6L180.6 166.6L180.5 166.6L180.5 166.7L180.5 166.8L180.5 166.9L179.9 169.2L178.4 171.2 Z M 145.8 169.2L144.5 169.5L144.9 168.8 Z M 135.9 168.0L135.1 167.1L135.9 167.8 Z M 126.8 152.7L126.8 152.5L127.4 150.1L128.8 148.1L130.7 146.8L133.4 149.6L134.6 148.9L134.2 146.2L135.0 146.3L136.8 147.0L136.8 147.0L136.9 147.0L136.9 147.0L136.9 147.0L137.0 147.1L137.0 147.1L137.0 147.1L137.1 147.1L137.1 147.1L137.2 147.1L137.2 147.2L137.2 147.2L137.3 147.2L137.5 147.3L137.5 147.3L137.6 147.3L137.6 147.3L137.7 147.3L137.7 147.3L137.8 147.3L137.8 147.3L137.9 147.4L137.9 147.4L138.0 147.4L138.0 147.4L138.0 147.4L138.1 147.4L138.1 147.4L138.1 147.4L138.2 147.4L138.2 147.4L138.3 147.4L138.3 147.4L138.4 147.4L138.6 147.4L138.6 147.4L138.6 147.4L138.7 147.4L138.7 147.4L138.7 147.4L139.1 157.4L143.8 160.2L146.6 158.9L148.7 159.8L148.1 161.9L144.3 165.2L142.5 167.6L140.8 168.1L140.4 166.9L141.8 164.1L140.7 162.3L139.7 164.2L137.8 162.4L134.9 162.7L131.9 157.0L133.4 155.9L135.4 157.2L131.1 153.0L130.1 155.8L127.4 154.3 Z M 170.5 216.9L170.7 215.1L171.3 213.4L172.4 211.9L172.4 211.9L174.4 210.5L176.8 210.0L176.8 210.0L178.9 210.2L180.8 211.0L182.4 212.5L183.5 214.3L183.9 216.4L183.9 217.5L183.9 217.5L183.8 217.8L183.0 220.1L181.3 222.0L179.2 223.1L176.8 223.4L176.8 223.4L174.4 222.8L172.4 221.4L171.0 219.4L170.5 216.9 Z M 163.8 237.8L163.8 235.7L164.5 233.7L165.7 232.1L167.4 230.9L169.4 230.2L169.5 230.2L170.6 230.1L170.6 230.1L173.1 230.6L175.2 232.1L176.7 234.3L177.2 236.8L177.2 236.9L177.1 237.9L177.1 238.0L176.9 238.5L177.1 239.1L177.1 239.1L177.2 239.9L177.2 239.9L177.1 241.3L177.1 241.3L176.9 241.9L177.1 242.4L177.1 242.4L177.2 243.4L177.0 245.1L176.7 246.1L175.7 247.8L174.3 249.1L172.6 249.9L171.7 250.1L171.0 248.7L170.2 250.3L168.3 249.9L166.4 248.9L164.8 247.2L164.1 245.6L163.8 243.8L163.7 243.5L163.8 242.4L163.8 242.4L164.0 241.9L163.8 241.2L163.8 241.2L163.8 239.9L163.8 239.7L163.8 239.1L163.8 239.1L164.0 238.5L163.8 237.8 Z M 175.6 311.7L174.6 312.7L172.7 313.7L172.0 313.9L173.3 312.5 Z M 171.2 314.0L170.8 314.1L170.2 314.1L168.3 313.8L166.7 313.0L165.1 309.7L165.2 305.3L168.5 304.1L171.6 305.0L172.8 308.1L176.8 308.9 Z M 164.8 310.8L164.3 310.1L164.0 308.5L164.6 308.8 Z M 151.1 424.4L150.3 424.1L148.6 422.7L147.5 420.9L147.0 418.8L147.0 418.1L149.7 415.8L150.6 412.3L150.7 412.3L153.4 411.6L153.4 411.6L156.1 412.0L156.1 412.0L157.9 413.1L159.3 414.6L160.1 416.5L160.4 418.5L160.2 419.8L160.1 420.0L156.5 420.2L154.1 423.1 Z M 136.9 182.3L136.9 182.2L137.8 181.9L140.6 186.0L147.0 189.9L146.7 191.7L145.3 192.8L143.8 193.1L143.8 193.1L141.1 192.7L139.3 191.6L138.0 190.1L137.8 189.7L139.8 187.9L137.2 188.5L137.1 188.2L137.1 188.2L136.9 185.8L137.0 185.3L137.0 185.3L137.0 185.2L137.0 185.2L137.0 185.1L137.0 185.0L137.0 185L137.0 184.9L137.0 184.9L137.0 184.6L137.0 184.6L137.0 184.6L137.0 184.5L137.0 184.5L137.0 184.4L137.0 184.4L137.0 184.4L137.0 184.3L137.0 184.3L137.0 184.2L137.0 184.2L136.9 183.7L136.9 182.3 Z M 137.3 180.8L137.3 180.6L138.2 179.0L139.4 177.8L140.0 177.4L141.4 177.2L143.4 178.8L144.6 177.1L144.1 176.4L146.4 177.0L148.3 178.3L148.5 178.4L148.5 178.5L148.5 178.5L148.6 178.5L148.6 178.5L148.6 178.6L148.6 178.6L148.7 178.6L148.7 178.6L148.7 178.7L148.8 178.7L148.8 178.7L150.3 180.2L151.2 182.0L151.5 183.6L146.5 188.3L141.5 185.1L140.0 182.5L149.5 180.9L145.2 180.0L141.9 181.2 Z M 137.3 427.6L135.9 426.8L134.6 425.3L134.4 424.9L138.8 423L140.4 423.9L146.3 418.8L146.4 418.9L146.9 421.0L146.8 423.2L145.9 425.2L145.9 425.2L145.3 426.1L145.3 426.1L143.9 427.2L142.4 428.0L142.2 428.0L139.2 426.4L137.6 426.8 Z M 143.1 157.5L142.7 158.6L141.4 157.2 Z M 141.9 155.9L140.6 156.8L140.4 152.8L142.0 150.0 Z M 143.0 147.5L142.7 149.7L142.3 148.8 Z M 143.0 147.5 "/>
















</g>
</svg>
