<?xml version="1.0" encoding="UTF-8"?>
<svg xmlns="http://www.w3.org/2000/svg" xmlns:xlink="http://www.w3.org/1999/xlink" width="378pt" height="504pt" viewBox="0 0 378 504" version="1.1">
<g id="data">
<rect x="0" y="0" width="378" height="504" style="fill:rgb(100%,100%,100%);fill-opacity:1;stroke:none;"/>
<path style=" stroke:none;fill-rule:nonzero;fill:rgb(100%,100%,100%);fill-opacity:1;" d="M 21 504L357 504L357 0L21 0 Z M 21 504 "/>
<path style=" stroke:none;fill-rule:nonzero;fill:#C2B855;fill-opacity:1;" d="M 150.6 412.3L150.6 412.3L150.6 412.3L150.7 412.3L150.7 412.3L150.8 412.3L150.8 412.3L150.9 412.3L151 412.2L151.0 412.2L151.0 412.2L151.1 412.2L152.6 412.3L153.3 411.0L153.3 411.0L153.3 410.9L153.4 410.9L153.4 410.9L153.4 410.8L153.4 410.8L153.5 410.8L153.5 410.7L153.5 410.7L153.6 410.6L153.6 410.6L153.6 410.5L153.6 410.5L153.6 410.5L153.7 410.4L153.7 410.4L153.7 410.4L156.4 409.6L157.4 406.9L159.6 404.9L159.8 404.9L160.4 404.8L160.4 404.8L161.5 404.9L161.5 404.9L161.6 404.9L161.6 404.9L161.7 404.9L161.8 405.0L161.9 405.0L161.9 405.0L161.9 405.0L162.0 405.0L162.2 405.0L162.2 405.0L162.2 405.0L162.3 405.0L162.3 405.0L162.3 405.0L162.4 405.0L162.5 404.9L162.6 404.9L162.6 404.9L162.7 404.9L162.9 404.9L162.9 404.9L164.2 404.8L166.1 405.3L167.8 406.2L169.2 407.6L170.1 409.3L170.1 409.4L170.1 409.4L170.1 409.5L170.2 409.5L170.2 409.5L170.2 409.6L170.2 409.6L170.2 409.6L170.2 409.7L170.3 409.7L170.3 409.7L170.3 409.8L170.3 409.8L170.3 409.8L170.3 409.9L170.4 409.9L170.5 410.0L170.5 410.1L170.5 410.1L170.5 410.1L170.5 410.2L170.6 410.2L170.6 410.2L170.6 410.3L170.6 410.3L170.6 410.3L170.7 410.4L170.7 410.4L170.8 410.5L170.8 410.5L170.8 410.5L170.9 410.6L171 410.6L171.0 410.7L171.0 410.7L171.1 410.7L171.1 410.8L171.1 410.8L171.2 410.9L171.2 410.9L171.3 410.9L171.3 410.9L171.3 410.9L171.4 411.0L171.4 411.0L171.4 411.0L171.4 411.0L171.5 411.1L171.5 411.1L171.6 411.1L171.6 411.1L171.6 411.1L171.7 411.2L171.7 411.2L171.7 411.2L171.8 411.2L171.8 411.2L171.8 411.2L171.9 411.3L171.9 411.3L171.9 411.3L172.0 411.3L172.0 411.3L172.0 411.3L172.1 411.3L172.1 411.4L172.3 411.4L172.3 411.4L172.4 411.4L172.4 411.5L172.5 411.5L172.5 411.5L172.5 411.5L172.6 411.5L172.6 411.5L172.7 411.5L172.7 411.5L172.7 411.5L172.8 411.5L172.8 411.5L172.9 411.5L172.9 411.5L172.9 411.5L173.0 411.6L173.0 411.6L173.1 411.6L173.1 411.6L173.2 411.6L173.4 411.6L173.4 411.6L173.5 411.6L174.0 411.6L174.0 411.6L174.2 411.6L174.2 411.6L174.3 411.6L174.5 411.6L174.6 411.6L174.6 411.6L174.6 411.6L174.7 411.6L174.7 411.6L174.8 411.5L174.9 411.5L174.9 411.5L175.0 411.5L175.0 411.5L175.2 411.5L175.2 411.5L175.2 411.5L175.3 411.4L175.3 411.4L175.3 411.4L175.4 411.4L175.4 411.4L175.5 411.4L175.5 411.4L175.5 411.4L177.3 411.1L177.6 409.3L177.6 409.3L178.4 407.6L179.8 406.3L179.8 406.3L180.4 405.8L180.4 405.8L180.9 405.6L181.1 405.2L181.2 405.1L181.3 405.1L181.3 405.0L181.3 405.0L181.3 405.0L181.4 405.0L181.4 404.9L181.4 404.9L181.4 404.8L181.5 404.8L181.5 404.8L181.6 404.7L183.7 402.5L183.9 402.4L183.9 402.4L184.0 402.3L184.0 402.3L184.0 402.3L184.0 402.3L184.1 402.2L184.1 402.2L184.2 402.2L184.3 402.1L184.3 402.0L184.3 402.0L184.4 402.0L184.4 402.0L184.4 401.9L184.5 401.9L184.5 401.9L184.5 401.8L184.6 401.7L184.6 401.7L184.7 401.7L184.7 401.6L184.7 401.6L184.8 401.5L184.8 401.5L184.8 401.5L184.8 401.5L184.9 401.4L184.9 401.4L184.9 401.3L186.2 399.8L187.9 398.7L189.8 398.2L189.8 398.2L190.6 398.1L192.8 398.5L192.9 398.5L193.0 398.5L193.0 398.5L193.1 398.6L193.1 398.6L193.1 398.6L193.3 398.6L193.3 398.6L193.4 398.6L193.4 398.6L193.4 398.6L193.5 398.6L193.5 398.6L193.5 398.7L193.6 398.7L193.6 398.7L193.6 398.7L193.7 398.7L193.8 398.7L193.8 398.7L193.9 398.7L193.9 398.7L194.1 398.7L194.1 398.7L194.2 398.7L194.2 398.7L194.2 398.7L194.3 398.7L194.7 398.7L195.1 398.5L195.1 398.5L195.6 398.3L195.6 398.3L195.9 398.3L197.9 396.7L199.2 395.9L199.0 395.8L197.8 393.8L197.3 391.5L197.3 391.3L197.3 391.3L197.3 391.2L197.3 391.2L197.3 391.1L197.3 391.1L197.3 391.1L197.3 391.0L197.3 391.0L197.3 390.9L197.3 390.9L197.3 390.9L197.3 390.8L197.3 390.8L197.3 390.8L197.3 390.7L197.3 390.7L197.3 390.6L197.2 390.5L197.2 390.5L197.2 390.5L197.2 390.4L197.1 390.2L197.1 390.2L197.1 390.2L197.1 390.1L197.1 390.1L197.1 390.1L197.0 390.0L197.0 390.0L197.0 389.9L197.0 389.9L197.0 389.9L197.0 389.8L196.9 389.8L196.9 389.8L196.9 389.7L196.9 389.7L196.9 389.7L196.8 389.6L196.8 389.5L196.8 389.5L196.7 389.5L196.7 389.4L196.7 389.4L196.7 389.4L196.7 389.4L196.6 389.3L196.6 389.3L196.6 389.3L196.5 389.2L196.5 389.2L196.5 389.1L196.5 389.1L196.4 389.1L196.3 389.0L196.3 388.9L196.2 388.9L196.2 388.9L196.1 388.8L196.1 388.8L196.1 388.8L196.1 388.7L196.0 388.7L196.0 388.7L196.0 388.7L195.9 388.7L195.9 388.6L195.9 388.6L195.8 388.6L195.8 388.6L195.7 388.5L195.7 388.5L195.7 388.5L195.6 388.4L195.6 388.4L195.5 388.4L195.5 388.4L195.5 388.4L195.4 388.4L195.4 388.3L195.3 388.3L195.3 388.3L195.2 388.3L195.2 388.3L195.2 388.2L194.9 388.2L194.9 388.2L194.9 388.1L194.8 388.1L194.8 388.1L194.8 388.1L198.4 387.8L200.1 381.5L213.6 366.8L207.1 372.6L205.9 373.9L196.6 377.1L194.9 380.7L189.8 381.2L186.1 380.1L179.8 371.9L173.9 374.0L174.7 371.3L176.0 369.6L177.9 368.4L180.0 367.9L182.2 368.1L184.2 368.9L184.2 368.9L186.3 371.1L186.3 371.1L186.6 371.9L187.4 372.2L187.4 372.2L188.4 372.9L188.4 372.9L189.6 374.4L191.4 373.7L191.4 373.7L191.5 373.7L191.5 373.7L191.5 373.7L191.6 373.7L191.6 373.6L191.7 373.6L191.7 373.6L191.8 373.6L191.8 373.6L191.9 373.6L191.9 373.5L191.9 373.5L192.0 373.5L192.0 373.5L192.0 373.5L192.1 373.5L192.1 373.5L192.1 373.4L192.2 373.4L192.2 373.4L192.2 373.4L192.3 373.4L192.3 373.3L192.3 373.3L192.4 373.3L192.4 373.3L192.5 373.2L192.6 373.2L192.6 373.2L192.6 373.1L192.6 373.1L192.7 373.1L192.7 373.1L192.9 372.9L195.0 371.6L197.5 371.2L197.5 371.2L197.7 371.2L197.8 371.2L198.1 371.2L198.1 371.2L198.1 371.2L198.2 371.2L198.3 371.2L198.3 371.2L198.4 371.2L198.4 371.2L198.4 371.2L198.5 371.2L198.5 371.2L198.6 371.2L198.6 371.2L198.6 371.2L198.7 371.1L198.8 371.1L198.8 371.1L198.8 371.1L198.9 371.1L199.0 371.1L199.0 371.1L199.1 371.1L199.1 371.0L199.2 371.0L199.2 371.0L199.3 371.0L199.3 371.0L199.3 370.9L199.4 370.9L199.4 370.9L199.5 370.9L199.5 370.9L199.5 370.8L199.6 370.8L199.6 370.8L199.8 370.7L199.8 370.7L199.9 370.6L199.9 370.6L199.9 370.6L200.0 370.6L200.0 370.5L200.0 370.5L200.1 370.5L200.1 370.5L200.1 370.4L200.2 370.4L200.2 370.4L200.2 370.3L200.2 370.3L200.3 370.3L200.3 370.3L200.3 370.2L200.4 370.2L200.4 370.2L200.4 370.1L200.5 370.0L200.6 370.0L200.6 369.9L200.6 369.9L200.6 369.9L200.7 369.8L200.7 369.8L200.7 369.8L200.7 369.8L200.7 369.7L200.8 369.6L200.8 369.6L200.8 369.6L200.9 369.5L200.9 369.5L200.9 369.5L200.9 369.4L200.9 369.4L200.9 369.4L201.0 369.3L201.0 369.3L201.0 369.2L201.0 369.2L201.1 369.1L201.1 369.1L201.1 369.0L201.1 369L201.1 368.9L201.1 368.9L201.2 368.8L201.2 368.8L201.2 368.7L201.2 368.7L201.2 368.6L201.2 368.6L201.2 368.5L201.2 368.5L201.2 368.4L201.2 368.4L201.3 368.4L201.3 368.3L201.3 368.3L201.3 368.3L201.3 368.2L201.3 368.2L201.3 368.1L201.3 368.1L201.3 368.1L201.3 368.0L201.3 368.0L201.3 367.8L201.3 367.7L201.3 367.7L201.3 367.6L201.3 367.6L201.3 367.6L201.3 367.5L201.3 367.4L201.3 367.4L201.3 367.4L201.2 367.3L201.2 367.3L201.2 367.2L201.2 367.2L201.2 367.1L201.2 367.0L201.2 367.0L201.2 367.0L201.1 366.9L201.1 366.9L201.1 366.8L201.1 366.8L201.1 366.7L200.7 364.4L201.2 362.0L202.4 360.0L204.2 358.6L206.5 357.9L206.5 357.9L207.4 357.8L207.5 357.8L207.5 357.8L207.6 357.8L207.6 357.8L207.7 357.8L207.7 357.8L207.7 357.8L207.8 357.8L207.8 357.8L207.9 357.8L207.9 357.8L207.9 357.7L208.0 357.7L208.1 357.7L208.1 357.7L208.2 357.7L208.2 357.7L208.3 357.7L208.3 357.7L208.3 357.7L208.4 357.6L208.4 357.6L208.5 357.6L208.6 357.6L208.6 357.6L208.6 357.6L208.7 357.6L208.7 357.5L208.8 357.5L208.8 357.5L208.8 357.5L208.9 357.5L208.9 357.5L208.9 357.4L209.0 357.4L209.0 357.4L209.0 357.4L209.1 357.4L209.1 357.3L209.3 357.2L209.3 357.2L209.4 357.2L209.4 357.1L209.4 357.1L209.5 357.1L209.5 357.1L209.5 357.1L209.6 357.0L209.6 357.0L209.6 357.0L209.7 356.9L209.7 356.9L209.7 356.9L209.8 356.9L209.8 356.8L209.8 356.8L209.8 356.8L209.9 356.8L209.9 356.7L209.9 356.7L209.9 356.7L210.0 356.6L210.0 356.6L210.0 356.6L210.1 356.5L210.1 356.5L210.1 356.5L210.1 356.4L210.1 356.4L210.2 356.4L210.2 356.3L210.2 356.3L210.4 356.1L210.4 356.0L210.4 356.0L210.4 356.0L210.4 355.9L210.5 355.9L210.5 355.9L210.5 355.8L210.5 355.8L210.5 355.7L210.5 355.7L210.6 355.7L210.6 355.6L210.6 355.6L210.6 355.5L210.6 355.5L210.6 355.4L210.6 355.4L210.7 355.3L210.7 355.3L210.7 355.3L210.7 355.2L210.7 355.2L210.7 355.1L210.7 355.1L210.7 355.0L210.7 354.9L210.8 354.9L210.8 354.9L210.8 354.8L210.8 354.8L210.8 354.8L210.8 354.7L210.8 354.7L210.8 354.7L210.8 354.6L210.8 354.6L210.8 354.5L210.8 354.5L210.8 354.3L211.2 352.2L211.2 352.0L211.2 352.0L211.2 352.0L211.2 351.9L211.3 351.9L211.3 351.8L211.3 351.8L211.3 351.7L211.3 351.6L211.3 351.6L211.3 351.5L211.3 351.5L211.3 351.4L211.3 351.4L211.4 351.3L211.4 351.3L211.4 351.3L211.4 351.2L211.4 351.2L211.4 351.0L211.4 350.9L211.4 350.9L211.4 350.8L211.4 350.8L211.4 350.8L211.3 350.7L211.3 350.7L211.3 350.6L211.3 350.6L211.3 350.6L211.3 350.5L211.3 350.5L211.3 350.5L211.3 350.4L211.3 350.4L211.3 350.3L211.3 350.3L211.3 350.3L211.3 350.2L211.2 350.2L211.2 350.2L211.2 350.1L211.2 350.1L211.2 349.9L211.0 349.3L210.8 347.9L210.8 347.9L211.1 345.7L212.1 343.7L213.8 342.1L213.8 342.1L213.9 342.0L213.9 342.0L214.0 342.0L214.0 342.0L214.0 341.9L214.1 341.9L214.1 341.8L214.2 341.8L214.2 341.8L214.2 341.8L214.3 341.7L214.3 341.7L214.3 341.7L214.4 341.6L214.4 341.6L214.4 341.6L214.4 341.6L214.5 341.5L214.5 341.5L214.6 341.4L214.6 341.4L214.6 341.4L214.6 341.3L214.6 341.3L214.7 341.3L214.7 341.2L214.7 341.2L214.8 341.1L214.8 341.0L214.8 341.0L214.9 340.9L214.9 340.9L214.9 340.9L214.9 340.8L214.9 340.8L215.0 340.8L215.0 340.6L215.0 340.6L215.0 340.6L215.1 340.5L215.1 340.5L215.1 340.5L215.2 340.3L215.2 340.2L215.2 340.2L215.2 340.2L215.2 340.1L215.2 340.0L215.2 340.0L215.2 339.9L215.2 339.9L215.3 339.8L215.3 339.8L215.3 339.8L215.3 339.7L215.3 339.7L215.3 339.6L215.3 339.6L215.3 339.6L215.3 339.5L215.3 339.5L215.3 339.5L215.3 339.4L215.3 339.2L215.3 339.2L215.3 339.1L215.3 339.1L215.3 339.1L215.3 339.0L215.3 339.0L215.3 338.9L215.3 338.9L215.3 338.9L215.3 338.8L215.3 338.8L215.2 338.8L215.2 338.7L215.2 338.7L215.2 338.6L215.2 338.6L215.2 338.5L215.2 338.5L215.2 338.4L215.2 338.4L215.2 338.4L215.1 338.1L215.1 338.1L215.1 338.1L215.0 338.0L215.0 338.0L215.0 338.0L215.0 337.9L215.0 337.9L215.0 337.8L214.9 337.8L214.9 337.8L214.9 337.7L214.9 337.7L214.8 337.6L214.8 337.6L214.8 337.6L214.8 337.5L214.8 337.5L214.7 337.4L214.7 337.4L214.7 337.4L214.6 337.3L214.6 337.3L214.6 337.3L214.6 337.2L214.6 337.2L214.5 337.2L214.5 337.1L214.5 337.1L214.4 337.1L214.4 337.0L214.4 337.0L214.3 336.9L214.2 336.8L214.2 336.8L214.1 336.8L214.1 336.7L214.1 336.7L214.0 336.7L214.0 336.7L214.0 336.6L213.9 336.6L213.9 336.6L213.9 336.6L213.9 336.6L213.8 336.5L213.8 336.5L212.2 335.0L211.1 333.1L210.8 330.9L210.8 330.6L210.8 330.5L210.8 330.4L210.8 330.4L210.8 330.3L210.8 330.2L210.8 330.2L210.8 330.2L210.8 330.1L210.8 330.0L210.8 330.0L210.8 330.0L210.8 329.9L210.8 329.9L210.8 329.9L210.8 329.8L210.8 329.8L210.8 329.8L210.7 329.7L210.7 329.6L210.7 329.5L210.7 329.5L210.7 329.5L210.7 329.4L210.6 329.3L210.6 329.3L210.6 329.3L210.6 329.2L210.6 329.1L210.6 329.1L210.5 329.0L210.5 329.0L210.5 329.0L210.5 328.9L210.5 328.9L210.5 328.9L210.5 328.8L210.4 328.8L210.4 328.8L210.4 328.7L210.4 328.7L210.4 328.7L210.3 328.6L210.2 328.5L210.2 328.4L210.2 328.4L210.2 328.4L210.1 328.3L210.1 328.3L210.1 328.3L210.1 328.3L210.0 328.2L210.0 328.2L209.9 328.1L209.9 328.1L209.9 328.0L209.8 327.9L209.8 327.9L209.7 327.9L209.7 327.8L209.7 327.8L209.6 327.8L209.6 327.7L209.5 327.7L209.5 327.7L209.5 327.7L209.4 327.6L209.4 327.6L209.4 327.6L209.3 327.6L209.1 327.4L209.1 327.4L209.0 327.4L209.0 327.3L208.9 327.3L208.9 327.3L208.9 327.3L208.8 327.3L208.8 327.3L208.7 327.2L208.7 327.2L208.7 327.2L208.6 327.2L208.5 327.2L206.9 326.3L205.6 325.1L204.7 323.6L204.7 323.6L204.1 321.5L204.1 320.8L204.4 318.8L205.4 316.9L206.8 315.4L208.7 314.4L210.8 314.1L211.3 314.1L211.3 314.1L211.9 314.2L211.9 314.2L212.0 314.2L212.0 314.2L212.1 314.2L212.2 314.2L212.2 314.2L212.3 314.2L212.4 314.2L212.5 314.3L212.5 314.3L212.5 314.2L212.6 314.2L212.7 314.2L212.7 314.2L212.7 314.2L212.9 314.2L212.9 314.2L213.0 314.2L213.0 314.2L213.1 314.2L214.0 314.1L216.2 314.4L218.1 315.4L219.5 316.8L220.5 318.6L220.5 318.6L220.5 318.7L220.5 318.7L220.6 318.8L220.6 318.9L220.6 318.9L220.6 318.9L220.6 319.0L220.7 319.0L220.7 319.0L220.7 319.1L220.7 319.1L220.7 319.1L220.8 319.2L220.8 319.2L220.8 319.3L220.8 319.3L220.9 319.3L220.9 319.4L220.9 319.4L220.9 319.4L220.9 319.5L221.0 319.5L221.0 319.5L221.0 319.5L221.0 319.6L221.0 319.6L221.1 319.7L221.2 319.7L221.2 319.8L221.2 319.8L221.3 319.8L221.3 319.9L221.3 319.9L221.3 319.9L221.4 319.9L221.4 320.0L221.4 320.0L221.5 320.0L221.5 320.0L221.6 320.1L221.6 320.1L221.6 320.2L221.7 320.2L221.7 320.2L221.7 320.2L221.8 320.2L221.8 320.3L222.0 320.4L222.0 320.4L222.1 320.4L222.1 320.5L222.1 320.5L222.2 320.5L222.2 320.5L222.2 320.5L222.3 320.5L222.3 320.6L222.4 320.6L222.4 320.6L222.4 320.6L222.5 320.6L222.5 320.7L222.7 320.7L222.7 320.7L222.8 320.7L222.8 320.7L222.8 320.7L222.9 320.7L223.0 320.8L223.0 320.8L223.1 320.8L223.1 320.8L223.1 320.8L223.2 320.8L223.2 320.8L223.3 320.8L223.3 320.8L223.4 320.8L223.4 320.8L223.4 320.8L223.5 320.8L223.5 320.8L223.6 320.8L223.7 320.8L223.8 320.8L223.8 320.8L223.9 320.8L224.1 320.8L224.1 320.8L226.7 321.3L226.7 321.3L226.8 321.3L227.0 321.4L227.0 321.4L227.1 321.4L227.1 321.4L227.1 321.4L227.2 321.4L227.2 321.5L227.3 321.5L227.3 321.5L227.3 321.5L227.4 321.5L227.4 321.5L227.5 321.5L227.5 321.5L227.6 321.5L227.6 321.5L227.7 321.5L227.7 321.5L227.8 321.5L227.8 321.5L227.8 321.5L228.1 321.5L228.1 321.5L228.1 321.5L228.2 321.5L228.2 321.5L228.2 321.5L228.3 321.5L228.3 321.5L228.4 321.5L228.4 321.5L228.5 321.5L228.5 321.5L228.6 321.5L228.6 321.5L228.7 321.4L228.8 321.4L228.8 321.4L228.8 321.4L228.9 321.4L228.9 321.4L229.0 321.4L229.0 321.4L229.1 321.3L229.1 321.3L229.2 321.3L229.2 321.3L229.3 321.3L229.3 321.2L229.3 321.2L229.4 321.2L229.4 321.2L229.5 321.2L229.5 321.1L229.5 321.1L229.6 321.1L229.6 321.1L229.7 321.1L229.8 321.0L229.9 320.9L229.9 320.9L229.9 320.9L230 320.9L230.0 320.8L230.0 320.8L230.1 320.8L230.2 320.7L230.2 320.7L230.2 320.7L230.3 320.6L230.3 320.6L230.3 320.5L230.4 320.5L230.4 320.5L230.4 320.4L230.4 320.4L230.5 320.3L230.5 320.3L230.6 320.3L230.6 320.3L230.6 320.2L230.7 320.2L230.7 320.1L230.7 320.1L230.7 320.1L230.7 320.0L230.8 320.0L230.8 320.0L230.8 319.9L230.8 319.9L230.9 319.8L230.9 319.8L230.9 319.8L230.9 319.8L230.9 319.7L231.0 319.7L231.0 319.6L231.0 319.6L231.1 319.4L231.1 319.4L231.1 319.4L231.2 319.1L231.2 319.0L232.6 316.4L232.7 316.3L232.7 316.3L232.8 316.2L232.8 316.2L232.8 316.2L232.8 316.1L232.8 316.1L232.9 316.1L232.9 316.1L232.9 316.0L232.9 316.0L233.0 316.0L233.0 315.9L233.0 315.9L233.0 315.9L233.1 315.7L233.1 315.7L233.1 315.7L233.1 315.6L233.2 315.6L233.2 315.5L233.2 315.5L233.2 315.5L233.2 315.4L233.3 315.4L233.3 315.3L233.3 315.3L233.3 315.2L233.3 315.2L233.4 315.1L233.4 315.1L233.4 315.0L233.4 315.0L233.4 315.0L233.4 314.8L233.4 314.8L233.5 314.7L233.5 314.7L233.5 314.7L233.5 314.6L233.5 314.6L233.5 314.6L233.5 314.5L233.5 314.5L233.5 314.4L233.5 314.4L233.5 314.4L233.5 314.3L233.5 314.3L233.5 314.3L233.5 314.0L233.5 313.9L233.5 313.9L233.5 313.9L233.5 313.8L233.5 313.7L233.5 313.7L233.5 313.6L233.5 313.6L233.5 313.6L233.5 313.5L233.5 313.5L233.4 313.4L233.4 313.4L233.4 313.3L233.4 313.2L233.4 313.2L233.4 313.1L233.4 313.1L233.3 313.1L233.3 313.0L233.3 312.9L233.3 312.9L233.3 312.8L233.3 312.8L233.2 312.8L233.2 312.7L233.2 312.7L233.2 312.6L233.2 312.6L233.1 312.6L233.1 312.5L233.1 312.5L233.1 312.5L233.1 312.4L233.1 312.4L233.0 312.4L233.0 312.3L233.0 312.3L233.0 312.3L232.9 312.2L232.9 312.2L232.9 312.2L232.9 312.1L232.8 312.1L232.8 312.0L232.8 312.0L232.7 312.0L232.7 311.9L232.6 311.8L231.2 309.2L231.0 307.7L231 307.4L231 307.4L231.1 305.9L231.1 305.8L231.1 305.8L231.2 305.7L231.2 305.7L231.2 305.6L231.2 305.6L231.2 305.5L231.2 305.5L231.2 305.5L231.2 305.4L231.2 305.3L231.2 305.3L231.2 305.2L231.2 305.2L231.2 304.9L231.2 304.9L231.2 304.8L231.2 304.8L231.2 304.8L231.2 304.7L231.2 304.7L231.2 304.7L231.2 304.6L231.2 304.6L231.2 304.5L231.2 304.5L231.2 304.5L231.2 304.4L231.2 304.4L231.1 304.3L231.1 304.3L231.1 304.3L231.1 304.2L231.1 304.1L231.1 304.1L231.1 304.1L231.0 303.9L231.0 303.9L231.0 303.8L231.0 303.8L231.0 303.8L230.9 303.7L230.9 303.7L230.9 303.6L230.9 303.5L230.8 303.5L230.8 303.5L230.8 303.4L230.8 303.4L230.7 303.3L230.7 303.2L230.7 303.2L230.6 303.2L230.6 303.1L230.6 303.1L230.6 303.1L230.5 303.0L230.5 303.0L230.5 303.0L230.4 302.9L230.4 302.9L230.4 302.9L230.3 302.8L230.2 302.6L230.0 302.5L230.0 302.5L228.4 300.5L227.6 298.1L227.6 298.1L227.6 296.9L227.6 296.9L227.9 295.5L226.8 294.5L226.7 294.5L226.6 294.4L226.6 294.4L226.6 294.3L226.5 294.3L226.5 294.3L226.5 294.2L226.5 294.2L226.4 294.1L226.3 294.1L226.3 294.1L226.3 294.1L226.3 294.1L226.2 294.0L226.2 294.0L226.2 294.0L226.1 294.0L226.1 294L226.1 293.9L226.0 293.9L226.0 293.9L225.9 293.8L225.9 293.8L225.8 293.8L225.8 293.7L225.7 293.7L225.7 293.7L225.7 293.7L225.6 293.7L225.6 293.6L225.5 293.6L225.5 293.6L225.5 293.6L225.4 293.6L225.4 293.6L225.3 293.6L223.6 292.6L222.2 291.2L221.2 289.4L220.9 287.5L221.1 285.5L221.9 283.6L221.9 283.6L223.9 281.6L224.0 281.5L224.0 281.5L224.1 281.5L224.1 281.5L224.2 281.4L224.2 281.4L224.2 281.4L224.2 281.4L224.3 281.3L224.3 281.3L224.4 281.2L224.5 281.2L224.5 281.2L224.5 281.1L224.5 281.1L224.6 281.1L224.6 281.1L224.6 281.0L224.7 281.0L224.7 280.9L224.7 280.9L224.8 280.9L224.8 280.8L224.8 280.8L224.9 280.7L224.9 280.7L224.9 280.7L224.9 280.7L225.0 280.6L225.0 280.5L225.0 280.5L225.1 280.4L225.1 280.3L225.1 280.3L225.2 280.2L225.2 280.2L225.2 280.2L225.2 280.1L225.2 280.1L225.3 280.0L225.3 280.0L225.3 279.9L225.3 279.8L225.3 279.8L225.4 279.8L225.4 279.7L225.4 279.7L225.4 279.7L225.4 279.6L225.4 279.6L225.4 279.6L225.4 279.5L225.4 279.4L225.5 279.3L225.5 279.3L225.5 279.3L225.5 279.2L225.5 279.2L225.5 279.2L225.5 279.1L225.5 279.0L225.5 279.0L225.5 279.0L225.5 278.9L225.5 278.9L225.5 278.8L225.5 278.8L225.5 278.7L225.5 278.6L225.5 278.6L225.5 278.5L225.5 278.5L225.5 278.4L225.6 277.7L225.1 277.1L225.1 277.1L224.3 274.7L224.3 274.7L224.3 273.0L224.3 273.0L224.8 271.1L225.8 269.4L227.3 268.1L227.3 268.1L229.3 267.3L231.5 267.1L233.6 267.6L235.4 268.8L236.8 270.4L237.6 273.3L237.6 273.3L237.6 274.0L238.0 274.6L238.1 274.6L238.1 274.7L238.2 274.8L238.2 274.8L238.2 274.9L238.2 274.9L238.3 274.9L238.3 274.9L238.3 275.0L238.3 275.0L238.4 275.1L238.4 275.1L238.4 275.1L238.5 275.2L238.5 275.2L238.5 275.2L238.5 275.3L238.6 275.3L238.7 275.4L238.7 275.5L238.8 275.5L240.0 276.9L240.8 278.7L241.0 280.5L241.0 280.5L240.9 281.6L240.9 281.7L240.9 281.7L240.9 281.8L240.9 281.8L240.9 281.8L240.9 281.9L240.9 281.9L240.9 282.0L240.9 282.0L240.9 282.1L240.9 282.3L240.9 282.4L240.9 282.4L240.9 282.5L240.9 282.5L240.9 282.5L240.9 282.6L240.9 282.6L240.9 282.7L240.9 282.8L241.0 283.6L241.0 283.7L241.0 284.4L240.5 286.5L239.3 288.3L239.3 288.4L239.2 288.5L239.2 288.5L239.1 288.6L239.1 288.6L239.1 288.6L239.1 288.7L239.0 288.7L239.0 288.8L238.9 288.9L238.9 289.0L238.8 289.0L238.8 289.1L238.8 289.1L238.8 289.2L238.8 289.2L238.8 289.2L238.7 289.3L238.7 289.3L238.7 289.3L238.7 289.4L238.7 289.4L238.7 289.4L238.6 289.6L238.6 289.6L238.6 289.7L238.6 289.7L238.6 289.8L238.5 290.0L238.5 290.0L238.5 290.0L238.5 290.1L238.5 290.1L238.5 290.2L238.5 290.3L238.5 290.3L238.5 290.4L238.5 290.4L238.1 291.9L239.3 292.8L239.4 292.9L239.5 293.1L239.7 293.2L239.7 293.2L239.8 293.2L239.8 293.3L239.8 293.3L239.8 293.3L239.9 293.3L239.9 293.4L239.9 293.4L240.0 293.4L240.0 293.4L240.0 293.4L240.1 293.5L240.1 293.5L240.1 293.5L240.2 293.5L240.2 293.6L240.2 293.6L240.3 293.6L240.3 293.6L240.3 293.6L240.4 293.6L240.4 293.7L240.5 293.7L240.5 293.7L240.5 293.7L240.6 293.7L240.7 293.8L240.7 293.8L240.8 293.8L240.8 293.8L240.9 293.8L240.9 293.9L241.0 293.9L241.0 293.9L241.0 293.9L241.1 293.9L241.1 293.9L241.2 293.9L241.2 293.9L241.3 293.9L241.3 293.9L241.3 293.9L241.4 293.9L241.4 294L241.4 294.0L241.5 294.0L241.5 294.0L241.5 294.0L241.6 294.0L242.9 294.2L244.9 295.2L246.5 296.7L247.5 298.7L247.5 298.9L247.5 299.0L247.6 299.0L247.6 299.1L247.6 299.1L247.6 299.1L247.6 299.2L247.6 299.2L247.7 299.2L247.7 299.3L247.7 299.3L247.7 299.4L247.8 299.4L247.8 299.4L247.9 299.6L247.9 299.6L247.9 299.7L248.0 299.7L248.0 299.7L248.0 299.8L248.0 299.8L248.0 299.8L248.1 299.9L248.1 299.9L248.2 300.0L248.2 300.0L248.2 300.0L248.2 300.1L248.3 300.1L248.4 300.2L248.4 300.2L248.5 300.3L248.5 300.3L248.5 300.3L248.6 300.4L248.6 300.4L248.6 300.4L248.7 300.4L248.7 300.5L248.7 300.5L248.8 300.5L248.8 300.6L249.0 300.6L249.0 300.7L249.1 300.7L249.1 300.7L249.1 300.7L249.2 300.7L249.2 300.8L249.2 300.8L249.3 300.8L249.3 300.8L249.4 300.8L249.4 300.9L249.5 300.9L249.5 300.9L249.6 300.9L249.6 300.9L249.6 300.9L249.7 300.9L249.7 301.0L251.7 301.9L253.2 303.5L254.2 305.4L254.2 305.5L254.2 305.6L254.3 305.6L254.3 305.7L254.3 305.7L254.3 305.8L254.3 305.8L254.3 305.9L254.4 305.9L254.4 306.0L254.4 306.0L254.4 306.1L254.5 306.1L254.5 306.2L254.5 306.2L254.6 306.2L254.6 306.3L254.6 306.3L254.6 306.4L254.7 306.4L254.7 306.4L254.7 306.5L254.7 306.5L254.7 306.5L254.8 306.6L254.8 306.6L254.9 306.7L254.9 306.7L254.9 306.7L255.0 306.8L255.0 306.8L255.1 306.9L255.1 306.9L255.1 307.0L255.2 307.0L255.2 307.0L255.2 307.0L255.3 307.1L255.3 307.1L255.3 307.1L255.4 307.1L255.4 307.2L255.4 307.2L255.5 307.2L255.5 307.2L255.5 307.3L255.7 307.3L255.7 307.4L255.7 307.4L255.8 307.4L255.8 307.4L255.8 307.4L255.9 307.5L255.9 307.5L255.9 307.5L256.0 307.5L256.0 307.5L256.1 307.6L256.1 307.6L256.2 307.6L256.3 307.6L256.3 307.6L256.4 307.7L256.4 307.7L256.5 307.7L257.8 308.3L257.9 308.3L257.9 308.3L257.9 308.3L258.0 308.4L258.0 308.4L258.0 308.4L258.1 308.4L258.1 308.4L258.1 308.4L258.2 308.5L258.2 308.5L258.2 308.5L258.3 308.5L258.3 308.5L258.3 308.5L258.5 308.6L258.6 308.6L258.6 308.6L258.6 308.6L258.7 308.6L258.8 308.7L258.8 308.7L258.9 308.7L259.0 308.7L259.0 308.7L259.0 308.7L259.1 308.7L259.1 308.7L259.2 308.7L259.2 308.7L259.3 308.7L259.3 308.7L259.4 308.7L259.4 308.7L259.4 308.7L259.5 308.7L259.6 308.7L259.7 308.7L259.7 308.7L259.7 308.7L259.8 308.7L259.8 308.7L259.8 308.7L259.9 308.7L259.9 308.7L260.0 308.7L260.0 308.7L260.1 308.7L260.1 308.7L260.1 308.7L260.2 308.7L260.3 308.6L260.4 308.6L260.4 308.6L260.5 308.6L260.5 308.6L260.7 308.5L260.7 308.5L261.0 308.5L261.2 308.3L261.2 308.3L261.5 308.1L264.1 307.4L264.1 307.4L266.0 307.5L267.8 308.2L269.4 309.4L270.5 311.0L271.1 312.8L271.1 312.8L271.2 315.2L270.4 317.4L269.3 318.8L269.3 318.9L269.1 319.0L269.0 319.2L268.9 319.1L266.9 320.4L266.9 320.4L266.6 320.5L266.4 320.6L266.3 320.7L266.3 320.7L266.2 320.8L266.2 320.8L266.1 320.8L266.1 320.8L266.1 320.9L266.0 320.9L266.0 320.9L266.0 320.9L266.0 321.0L265.9 321.0L265.9 321.0L265.9 321.0L265.8 321.1L265.8 321.1L265.8 321.1L265.7 321.2L265.6 321.3L265.6 321.3L265.6 321.3L265.6 321.3L265.5 321.4L265.5 321.4L265.5 321.5L265.4 321.5L265.4 321.5L265.4 321.5L265.4 321.6L265.3 321.6L265.3 321.6L265.3 321.7L265.3 321.7L265.2 321.9L265.2 321.9L265.1 321.9L265.1 322L265.1 322.0L265.1 322.0L265.1 322.0L265.1 322.1L265.0 322.1L265.0 322.2L265.0 322.2L265.0 322.3L265.0 322.3L265.0 322.3L264.9 322.4L264.9 322.4L264.9 322.4L264.9 322.5L264.9 322.5L264.9 322.6L264.9 322.6L264.8 322.7L264.8 322.7L264.8 322.7L264.8 322.8L264.8 322.8L264.8 322.9L264.8 322.9L264.8 323.0L264.8 323.0L264.8 323.0L264.8 323.1L264.8 323.1L264.7 323.1L264.7 323.2L264.7 323.3L264.7 323.3L264.7 323.3L264.7 323.4L264.7 323.4L264.7 323.4L264.7 323.7L264.7 323.7L264.7 323.7L264.7 323.8L264.7 323.8L264.7 323.8L264.7 323.9L264.7 323.9L264.7 324.0L264.8 324.0L264.8 324.0L264.8 324.1L264.8 324.1L264.8 324.1L264.8 324.2L264.8 324.3L264.8 324.4L264.8 324.4L264.8 324.4L264.9 324.5L264.9 324.5L264.9 324.6L264.9 324.6L264.9 324.6L264.9 324.7L264.9 324.8L265.0 324.8L265.0 324.8L265.0 324.9L265.0 324.9L265.0 325.0L265.0 325.0L265.1 325.0L265.1 325.1L265.1 325.1L265.1 325.1L265.1 325.2L265.2 325.2L265.2 325.3L265.2 325.3L265.3 325.4L265.3 325.4L265.3 325.5L265.3 325.5L265.4 325.5L265.4 325.6L265.4 325.6L265.4 325.6L265.5 325.6L265.5 325.7L265.5 325.7L265.6 325.8L265.6 325.8L265.6 325.8L265.7 325.9L265.7 326.0L265.8 326.0L265.8 326.0L266.8 327.2L266.8 327.2L266.9 327.3L266.9 327.3L266.9 327.3L266.9 327.4L267.0 327.4L267.0 327.5L267.0 327.5L267.1 327.5L267.1 327.6L267.1 327.6L267.2 327.7L267.2 327.7L267.2 327.7L267.2 327.7L267.3 327.8L267.3 327.8L267.4 327.9L267.4 327.9L267.4 327.9L267.5 327.9L267.5 328.0L267.5 328.0L267.5 328.0L267.6 328.0L267.6 328.0L267.6 328.1L267.7 328.1L267.7 328.1L267.7 328.1L267.8 328.2L267.8 328.2L267.9 328.2L267.9 328.3L268 328.3L268.0 328.3L268.0 328.3L268.1 328.3L268.1 328.4L268.1 328.4L268.2 328.4L268.2 328.4L268.3 328.4L268.4 328.5L268.4 328.5L268.7 328.6L268.7 328.6L268.7 328.6L268.8 328.6L268.9 328.6L269.0 328.6L269.0 328.6L269.0 328.6L269.1 328.7L269.1 328.7L269.1 328.7L269.2 328.7L269.3 328.7L269.3 328.7L269.4 328.7L269.4 328.7L269.4 328.7L269.6 328.7L269.6 328.7L269.6 328.7L269.7 328.7L269.7 328.7L269.8 328.7L269.8 328.7L269.8 328.7L269.9 328.7L270.0 328.7L270.1 328.7L270.1 328.7L270.1 328.6L270.2 328.6L270.2 328.6L270.3 328.6L270.3 328.6L270.4 328.6L270.4 328.6L270.4 328.6L270.5 328.6L270.5 328.6L270.5 328.6L270.8 328.5L270.8 328.5L270.8 328.5L270.9 328.4L270.9 328.4L271.0 328.4L271.0 328.4L271.1 328.4L271.1 328.3L271.1 328.3L271.2 328.3L271.2 328.3L271.3 328.3L271.3 328.2L271.3 328.2L271.4 328.1L271.5 328.1L271.5 328.1L271.5 328.1L271.6 328.1L271.6 328.0L271.6 328.0L271.7 328.0L271.7 328.0L271.7 327.9L271.8 327.9L272.2 327.6L272.6 327.1L273.3 327.7L276.1 328.3L280.0 321.2L287.5 320.8L296.7 321.9L305.5 327.6L307.8 332.9L307.9 341.4L305.0 353.4L304.1 354.3L302.8 354.1L300.9 353.2L299.4 351.7L298.5 349.8L298.1 347.8L298.2 346.6L298.2 346.6L298.4 346.0L298.2 345.4L298.2 345.4L298.2 344.1L298.2 343.7L298.5 342.1L298.5 342.1L298.8 341.7L298.7 341.3L298.7 341.2L298.7 341.2L298.7 341.1L298.7 341.0L298.7 341.0L298.7 341.0L298.7 340.9L298.7 340.8L298.7 340.8L298.7 340.7L298.7 340.7L298.7 340.7L298.7 340.6L298.7 340.6L298.7 340.6L298.7 340.5L298.7 340.4L298.7 340.4L298.7 340.4L298.7 340.3L298.6 340.2L298.6 340.2L298.6 340.1L298.6 340.1L298.6 340.1L298.6 340.0L298.6 340.0L298.6 340.0L298.6 339.9L298.6 339.9L298.5 339.9L298.5 339.8L298.5 339.8L298.5 339.8L298.5 339.7L298.5 339.7L298.4 339.6L298.4 339.6L298.4 339.5L298.4 339.5L298.4 339.5L298.3 339.4L298.3 339.4L298.3 339.4L298.3 339.3L298.2 339.2L298.2 339.2L298.2 339.2L298.2 339.1L298.2 339.1L298.1 339.1L298.1 339.0L298.1 339.0L298.1 339.0L298.1 339.0L298.0 338.9L298.0 338.9L298.0 338.9L297.9 338.8L297.9 338.8L297.9 338.7L297.8 338.7L297.8 338.7L297.8 338.6L297.8 338.6L297.7 338.6L297.7 338.6L297.7 338.5L297.7 338.5L297.6 338.5L297.6 338.4L297.5 338.4L297.5 338.4L297.5 338.4L297.5 338.3L297.4 338.3L297.4 338.3L297.3 338.3L297.3 338.2L297.3 338.2L297.2 338.2L297.1 338.1L297.0 338.1L297.0 338.0L297.0 338.0L296.9 338.0L296.9 338.0L296.9 338.0L296.8 337.9L296.8 337.9L296.7 337.9L296.7 337.9L296.6 337.8L296.5 337.8L296.5 337.8L296.5 337.8L296.4 337.8L296.3 337.8L296.3 337.7L296.2 337.7L296.2 337.7L296.2 337.7L296.1 337.7L296.1 337.7L296.0 337.7L296.0 337.7L295.9 337.7L295.9 337.7L295.8 337.6L295.8 337.6L295.8 337.6L295.7 337.6L295.7 337.6L295.6 337.6L295.6 337.6L295.5 337.6L295.5 337.6L295.4 337.6L295.3 337.6L295.3 337.6L295.2 337.6L295.1 337.6L294.8 337.6L292.9 337.4L291.2 336.6L291.2 336.6L289.2 334.7L289.2 334.6L289.1 334.6L289.1 334.5L289.1 334.5L289.1 334.5L289.0 334.4L289.0 334.4L289.0 334.4L289.0 334.3L288.9 334.3L288.9 334.2L288.8 334.2L288.8 334.1L288.7 334.0L288.6 334.0L288.6 334.0L288.6 333.9L288.5 333.9L288.5 333.9L288.5 333.8L288.4 333.8L288.4 333.8L288.4 333.8L288.3 333.8L288.3 333.7L288.3 333.7L288.2 333.6L288.2 333.6L288.1 333.6L288.1 333.6L288.1 333.6L288.0 333.6L288.0 333.5L288.0 333.5L287.9 333.5L287.9 333.5L287.8 333.5L287.8 333.4L287.7 333.4L287.7 333.4L287.6 333.4L287.6 333.3L287.5 333.3L287.5 333.3L287.4 333.3L287.4 333.3L287.3 333.3L287.3 333.2L287.2 333.2L287.2 333.2L287.1 333.2L287.0 333.2L287.0 333.2L287 333.2L286.9 333.2L286.9 333.2L286.8 333.2L286.8 333.1L286.8 333.1L286.7 333.1L286.7 333.1L286.6 333.1L286.6 333.1L286.5 333.1L286.5 333.1L286.3 333.1L286.2 333.1L286.2 333.1L286.2 333.1L286.1 333.1L286.1 333.1L286.0 333.1L286.0 333.1L286 333.2L285.9 333.2L285.9 333.2L285.8 333.2L285.8 333.2L285.7 333.2L285.7 333.2L285.6 333.2L285.6 333.2L285.5 333.2L285.5 333.2L285.5 333.3L285.4 333.3L285.4 333.3L285.4 333.3L285.3 333.3L285.3 333.3L285.2 333.3L285.2 333.3L285.2 333.4L285.1 333.4L285.1 333.4L285.0 333.4L285.0 333.4L285.0 333.4L284.9 333.5L284.9 333.5L284.9 333.5L284.8 333.5L284.8 333.6L284.7 333.6L284.5 333.7L284.5 333.7L284.4 333.7L284.4 333.8L284.4 333.8L284.4 333.8L284.3 333.9L284.3 333.9L284.2 333.9L283.8 334.2L283.6 334.6L283.6 334.6L282.3 336.1L282.3 336.1L281.9 336.3L281.7 336.8L281.5 337.0L281.5 337.0L281.5 337.0L281.5 337.1L281.5 337.1L281.5 337.1L281.4 337.1L281.4 337.2L281.4 337.2L281.4 337.2L281.4 337.3L281.3 337.3L281.3 337.4L281.3 337.4L281.3 337.5L281.3 337.5L281.3 337.5L281.2 337.7L281.2 337.7L281.2 337.8L281.2 337.8L281.2 337.8L281.2 337.9L281.2 337.9L281.1 338.0L281.1 338.1L281.1 338.1L281.1 338.1L281.1 338.2L281.1 338.2L281.1 338.3L281.1 338.3L281.1 338.3L281.1 338.4L281.1 338.4L281.1 338.5L281.1 338.5L281.1 338.5L281.1 338.6L281.1 338.7L281.1 338.8L281.1 338.9L281.1 338.9L281.1 339.0L281.1 339.0L281.1 339.0L281.1 339.1L281.1 339.1L281.1 339.2L281.1 339.2L281.1 339.3L281.1 339.3L281.2 339.5L281.4 341.1L281.1 342.9L280.3 344.6L279.1 346.0L279.1 346.0L279.0 346.1L279.0 346.1L279.0 346.1L278.9 346.2L278.9 346.2L278.9 346.2L278.9 346.3L278.8 346.3L278.8 346.3L278.7 346.4L278.7 346.4L278.7 346.4L278.7 346.5L278.6 346.5L278.6 346.5L278.6 346.6L278.6 346.6L278.6 346.6L278.5 346.7L278.5 346.7L278.5 346.7L278.5 346.7L278.4 346.8L278.4 346.8L278.4 346.9L278.4 346.9L278.3 347.0L278.3 347.0L278.3 347.1L278.3 347.1L278.2 347.2L278.2 347.2L278.2 347.3L278.2 347.3L278.2 347.3L278.2 347.4L278.2 347.4L278.1 347.5L278.1 347.5L278.1 347.6L278.1 347.6L278.1 347.7L278.0 347.8L278.0 347.8L278.0 347.9L278.0 347.9L278.0 348.0L278.0 348.0L278.0 348.0L278.0 348.1L278.0 348.1L278.0 348.2L278.0 348.2L278.0 348.3L277.5 350.2L276.5 352.0L275.0 353.3L273.5 354.0L271.9 354.4L271.6 354.4L271.6 354.4L270.9 354.4L270.9 354.4L270.8 354.4L270.8 354.4L270.6 354.4L270.6 354.4L270.5 354.4L270.5 354.4L270.4 354.4L270.4 354.4L270.4 354.4L270.3 354.4L270.3 354.4L270.2 354.5L270.2 354.5L270.2 354.5L270.1 354.5L270.0 354.5L270.0 354.5L269.9 354.5L269.8 354.5L269.8 354.5L269.7 354.6L269.7 354.6L269.6 354.6L269.6 354.6L269.5 354.6L269.4 354.7L269.4 354.7L269.4 354.7L269.3 354.7L269.3 354.7L269.2 354.8L269.2 354.8L269.2 354.8L269.1 354.8L269.1 354.8L269.1 354.8L269.0 354.9L268.8 355.0L268.8 355.0L268.8 355.0L268.7 355.1L268.7 355.1L268.7 355.1L268.6 355.1L268.6 355.2L268.6 355.2L268.5 355.2L268.5 355.2L268.4 355.3L268.4 355.3L268.4 355.3L268.3 355.4L268.3 355.5L268.2 355.5L268.2 355.6L268.2 355.6L268.1 355.6L268.1 355.7L268.1 355.7L268.0 355.7L268.0 355.8L268.0 355.8L268.0 355.8L267.9 355.9L267.9 355.9L267.9 355.9L267.9 356.0L267.9 356.0L267.8 356.1L267.8 356.2L267.7 356.2L267.7 356.2L267.7 356.3L267.7 356.3L267.7 356.3L267.6 356.4L267.6 356.4L267.6 356.5L267.6 356.5L267.6 356.5L267.6 356.6L267.6 356.6L267.5 356.7L267.0 357.9L266.2 359L264.9 360.0L263.5 360.8L263.4 360.8L263.4 360.8L263.3 360.8L263.3 360.8L263.3 360.8L263.2 360.8L263.2 360.9L263.2 360.9L263.1 360.9L263.1 360.9L263.0 361L263.0 361.0L262.9 361.0L262.9 361.0L262.8 361.0L262.8 361.1L262.8 361.1L262.8 361.1L262.7 361.1L260.9 361.9L260.7 362.0L260.8 362.2L261.2 364.1L261.2 364.1L261.2 364.9L261.2 364.9L261.2 365.0L261.2 365.2L261.2 365.3L261.2 365.3L261.2 365.3L261.2 365.4L261.2 365.5L261.2 365.5L261.2 365.5L261.2 365.6L261.2 365.6L261.2 365.6L261.2 365.7L261.2 365.7L261.2 365.8L261.3 365.8L261.3 365.9L261.3 365.9L261.3 365.9L261.3 366.0L261.3 366.0L261.3 366.0L261.4 366.2L261.4 366.3L261.4 366.3L261.4 366.4L261.4 366.4L261.5 366.4L261.5 366.5L261.5 366.6L261.5 366.6L261.6 366.7L261.6 366.7L261.6 366.7L261.6 366.8L261.8 367.0L261.8 367.0L261.8 367.1L261.8 367.1L261.9 367.1L261.9 367.2L261.9 367.2L261.9 367.2L262.0 367.2L262.0 367.3L262.0 367.3L262.1 367.4L262.1 367.4L262.1 367.4L262.1 367.4L262.2 367.5L262.2 367.5L262.2 367.5L262.2 367.5L262.3 367.6L262.3 367.6L262.4 367.7L262.4 367.7L262.4 367.7L262.5 367.7L262.5 367.8L262.5 367.8L262.5 367.8L262.6 367.8L262.6 367.8L262.7 367.9L262.7 367.9L262.7 367.9L262.8 367.9L262.8 368.0L262.9 368.0L262.9 368.0L262.9 368.0L263.0 368.1L263.0 368.1L263.1 368.1L263.1 368.1L263.1 368.1L263.2 368.2L263.3 368.2L263.3 368.2L263.3 368.2L263.4 368.3L263.4 368.3L263.5 368.3L263.5 368.3L263.6 368.3L263.6 368.3L263.7 368.3L263.8 368.4L263.8 368.4L263.9 368.4L263.9 368.4L263.9 368.4L264.0 368.4L264.0 368.4L264.0 368.4L264.1 368.4L264.1 368.4L264.2 368.4L264.2 368.4L264.2 368.4L264.3 368.4L264.3 368.4L264.3 368.4L264.4 368.4L264.5 368.5L264.6 368.5L264.7 368.4L264.7 368.4L264.8 368.4L264.8 368.4L264.8 368.4L264.9 368.4L264.9 368.4L264.9 368.4L265.0 368.4L265.0 368.4L265.0 368.4L265.1 368.4L265.1 368.4L265.2 368.4L265.2 368.4L265.3 368.4L265.3 368.4L265.4 368.3L265.4 368.3L265.4 368.3L265.5 368.3L265.5 368.3L265.6 368.3L265.6 368.3L265.6 368.3L265.7 368.2L267.9 367.9L269.8 368.1L271.5 368.9L272.9 370.1L273.0 370.2L273.0 370.2L273.1 370.3L273.2 370.4L273.2 370.4L273.3 370.5L273.3 370.5L273.4 370.6L273.4 370.6L273.5 370.6L273.5 370.6L273.5 370.6L273.5 370.7L273.6 370.7L273.8 370.8L273.8 370.8L273.8 370.8L273.8 370.9L273.9 370.9L273.9 370.9L274.0 370.9L274.0 371.0L274.5 371.3L276.1 371.4L276.1 371.4L277.2 371.8L277.7 371.8L277.7 371.8L277.8 371.8L277.8 371.8L277.9 371.8L277.9 371.8L278.0 371.8L278.1 371.8L278.1 371.8L278.2 371.8L278.2 371.8L278.3 371.8L278.3 371.8L278.4 371.8L278.4 371.8L278.5 371.8L278.5 371.8L278.5 371.8L278.6 371.8L278.6 371.7L278.8 371.7L278.8 371.7L278.9 371.7L278.9 371.7L278.9 371.7L279.0 371.6L279.0 371.6L279.1 371.6L279.1 371.6L279.1 371.6L281.1 371.2L282.4 371.4L281.8 370.2L281.4 368.2L281.3 367.9L281.3 367.9L281.4 367.2L282.1 364.8L283.5 362.9L285.6 361.6L285.6 361.6L288.2 361.1L288.2 361.1L290.4 361.6L292.4 362.7L293.8 364.4L294.1 365.1L293.3 365.4L291.7 363.4L285.2 367.6L286.6 368.6L290.6 366.7L291.2 371.6L287.9 374.5L287.0 374.4L287.2 374.8L284.3 374.5L280.1 375.9L278.2 377.9L281.7 376.4L285.5 376.9L286.1 378.1L284.2 378.1L282.4 379.3L282.9 380.0L288.1 381.1L288.1 381.3L288.0 382.1L287.5 384.1L286.4 385.8L284.8 387.1L282.9 387.9L280.8 388.0L280.8 388.0L278.4 387.3L276.3 385.8L276.3 385.7L276.2 385.7L276.2 385.7L276.2 385.6L276.1 385.6L276.1 385.5L276.1 385.5L276.0 385.5L276.0 385.5L275.9 385.4L275.9 385.3L275.8 385.3L275.8 385.3L275.8 385.3L275.8 385.3L275.7 385.2L275.7 385.2L275.6 385.1L275.5 385.1L275.5 385.1L275.5 385.1L275.5 385.1L275.4 385.1L275.4 385.0L275.3 385.0L275.3 385.0L275.2 385L275.2 384.9L275.2 384.9L275.1 384.9L275.1 384.9L275.1 384.9L275.0 384.9L275.0 384.9L275.0 384.8L274.9 384.8L274.5 384.6L274.1 384.6L274.1 384.6L271.7 384.0L271.7 384.0L271.2 383.7L270.6 383.7L270.5 383.7L270.5 383.7L270.5 383.7L270.4 383.7L270.2 383.7L270.1 383.7L270.1 383.7L270.0 383.7L270.0 383.7L270.0 383.7L269.9 383.7L269.9 383.7L269.9 383.7L269.8 383.7L269.8 383.7L269.8 383.7L269.7 383.7L269.7 383.7L269.6 383.8L269.6 383.8L269.6 383.8L269.5 383.8L269.5 383.8L269.5 383.8L269.4 383.8L269.4 383.8L269.4 383.8L269.1 383.9L269.1 383.9L269.0 383.9L269.0 383.9L269.0 384.0L268.9 384.0L268.9 384.0L268.8 384.0L268.8 384.0L268.8 384.1L268.7 384.1L268.7 384.1L268.7 384.1L268.6 384.1L268.6 384.1L268.4 384.3L268.4 384.3L268.4 384.3L268.3 384.3L268.3 384.3L268.3 384.4L268.2 384.4L268.2 384.4L268.2 384.4L268.1 384.5L268.1 384.5L268.0 384.6L268.0 384.6L268.0 384.6L268.0 384.6L267.9 384.7L267.9 384.7L267.9 384.7L267.9 384.7L267.8 384.8L267.8 384.8L267.8 384.8L267.8 384.8L267.7 384.9L267.7 384.9L267.7 385.0L267.6 385.0L267.6 385.0L267.6 385.1L267.6 385.1L267.5 385.1L267.5 385.1L267.5 385.2L267.4 385.3L267.4 385.3L267.4 385.3L267.4 385.4L267.4 385.4L267.3 385.4L267.3 385.5L267.3 385.5L267.3 385.5L267.3 385.6L267.3 385.6L267.2 385.6L267.2 385.7L267.2 385.7L267.2 385.8L267.1 385.9L267.1 385.9L267.1 385.9L267.1 386.0L267.1 386.0L267.1 386.0L267.1 386.1L267.1 386.1L267.1 386.1L267.0 386.2L267.0 386.3L267.0 386.3L267.0 386.4L267.0 386.4L267.0 386.5L267.0 386.5L267.0 386.6L267.0 386.6L267.0 386.7L267 386.7L266.9 386.8L266.9 386.8L266.9 386.8L266.9 386.9L266.9 386.9L266.9 387L266.9 387.1L266.9 387.2L266.9 387.2L266.9 387.3L266.9 387.3L266.9 387.4L266.9 387.4L267 387.4L267.0 387.5L267.0 387.5L267.0 387.5L267.0 387.6L267.0 387.6L267.0 387.6L267.0 387.7L267.0 387.7L267.0 387.8L267.0 387.8L267.0 387.8L267.0 387.9L267.1 387.9L267.1 388.0L267.1 388.2L267.2 388.3L267.2 388.3L267.2 388.3L267.2 388.4L267.2 388.5L267.3 388.5L267.9 391.2L267.9 391.2L267.9 391.8L267.5 393.8L266.5 395.5L265.1 396.9L263.3 397.8L262.3 398.0L262.3 398.0L261.1 398.1L259.3 397.8L257.6 397.1L256.2 395.9L256.1 395.8L256.1 395.8L256.1 395.7L256.0 395.7L256.0 395.7L256.0 395.7L255.9 395.6L255.8 395.5L255.8 395.5L255.7 395.4L255.7 395.4L255.7 395.4L255.6 395.4L255.6 395.4L255.6 395.3L255.6 395.3L255.5 395.3L255.3 395.2L255.3 395.2L255.2 395.1L255.2 395.1L255.2 395.1L255.1 395.1L255.1 395.1L255.1 395.0L255.0 395.0L255.0 395.0L255.0 395.0L255 395.0L254.9 395.0L254.9 395.0L254.8 394.9L254.8 394.9L254.6 394.9L254.6 394.8L254.5 394.8L254.5 394.8L254.5 394.8L254.4 394.8L254.3 394.8L254.2 394.8L254.2 394.8L254.2 394.8L254.1 394.8L254.1 394.8L254.1 394.7L254.0 394.7L254.0 394.7L253.9 394.7L251.1 393.9L251.1 393.9L249.5 392.5L249.4 392.4L249.4 392.4L249.3 392.4L249.3 392.4L249.3 392.3L249.3 392.3L249.2 392.3L249.2 392.3L249.2 392.2L249.2 392.2L249.0 392.1L249.0 392.1L249.0 392.0L248.9 392.0L248.9 392.0L248.9 392.0L248.8 392.0L248.8 391.9L248.6 391.8L248.6 391.8L248.5 391.8L248.5 391.7L248.5 391.7L248.4 391.7L248.4 391.7L248.4 391.7L248.3 391.6L248.3 391.6L248.2 391.6L248.2 391.6L248.2 391.6L248.1 391.6L248.1 391.6L247.9 391.5L247.8 391.5L247.8 391.5L247.8 391.5L247.7 391.5L247.7 391.5L247.7 391.4L247.6 391.4L247.6 391.4L247.5 391.4L247.5 391.4L247.5 391.4L247.4 391.4L247.4 391.4L247.3 391.4L247.3 391.4L247.2 391.4L247.2 391.4L245.0 390.8L243.6 390.0L242.7 389.2L242.7 389.1L242.7 389.1L242.6 389.0L242.6 389.0L242.5 388.9L242.5 388.9L242.5 388.9L242.4 388.8L242.4 388.8L242.4 388.8L242.3 388.8L242.3 388.7L242.3 388.7L242.2 388.7L242.2 388.7L242.2 388.6L242.1 388.6L242.1 388.6L242.1 388.6L242.0 388.5L241.9 388.5L241.9 388.4L241.8 388.4L241.8 388.4L241.8 388.4L241.7 388.4L241.7 388.3L241.6 388.3L241.6 388.3L241.5 388.3L241.5 388.3L241.4 388.2L241.4 388.2L241.3 388.2L241.3 388.2L241.3 388.2L241.2 388.2L241.2 388.1L241.2 388.1L241.1 388.1L241.1 388.1L241.1 388.1L240.8 388.1L240.8 388.0L240.7 388.0L240.7 388.0L240.7 388.0L240.6 388.0L240.6 388.0L240.5 388.0L240.4 388.0L239.9 387.9L239.9 387.9L239.8 387.9L239.7 387.9L239.7 387.9L239.7 387.9L239.6 387.9L239.6 387.9L239.5 387.9L239.5 387.9L239.4 387.9L239.2 387.9L239.2 387.9L239.1 387.9L239.1 387.9L239.0 387.9L239.0 387.9L239.0 387.9L238.9 387.9L238.9 387.9L238.9 387.9L238.8 387.9L238.8 387.9L237.6 388.0L237.6 388.0L234.7 387.3L232.8 385.9L231.5 384.0L231.0 381.7L231.0 381.7L231.0 381.0L231.0 380.9L231.0 380.8L231.0 380.8L231.0 380.7L231.0 380.6L231.0 380.6L231.0 380.5L231.0 380.5L231.0 380.4L231 380.4L230.9 380.4L230.9 380.3L230.9 380.3L230.9 380.3L230.9 380.2L230.9 380.2L230.9 380.1L230.9 380.1L230.9 380.0L230.9 380.0L230.9 379.9L230.8 379.9L230.8 379.8L230.8 379.8L230.8 379.8L230.8 379.7L230.8 379.6L230.8 379.6L230.7 379.5L230.7 379.5L230.7 379.5L230.7 379.4L230.7 379.4L230.7 379.3L230.6 379.3L230.6 379.3L230.6 379.2L230.6 379.2L230.6 379.1L230.5 379.1L230.5 379.1L230.5 378.9L230.4 378.9L230.4 378.9L230.4 378.9L230.4 378.8L230.3 378.8L230.3 378.8L230.3 378.7L230.3 378.7L230.2 378.6L230.2 378.6L230.2 378.6L230.2 378.6L230.1 378.5L230.1 378.4L230.0 378.4L230.0 378.4L230.0 378.3L229.9 378.3L229.9 378.3L229.9 378.3L229.9 378.2L229.8 378.2L229.7 378.1L229.7 378.1L229.7 378.1L229.7 378.1L229.6 378.0L229.6 378.0L229.6 378.0L229.5 378.0L229.5 378.0L229.5 377.9L229.3 377.8L229.3 377.8L229.2 377.8L228.1 376.9L226.8 377.5L226.7 377.5L226.7 377.5L226.7 377.5L226.6 377.5L226.6 377.5L226.6 377.5L226.5 377.5L226.5 377.6L226.5 377.6L225.9 377.7L224.2 378L223.3 377.9L223.3 377.9L221.8 377.5L221.7 377.5L221.7 377.5L221.6 377.4L221.5 377.4L221.5 377.4L221.4 377.4L221.4 377.4L221.3 377.3L221.3 377.3L221.3 377.3L221.2 377.3L221.1 377.3L221.1 377.3L221.1 377.3L221.0 377.3L221.0 377.3L220.9 377.3L220.9 377.3L220.9 377.3L220.8 377.3L220.8 377.3L220.7 377.3L220.7 377.2L220.6 377.2L220.6 377.2L220.4 377.2L220.4 377.2L220.3 377.2L220.3 377.3L220.3 377.3L220.2 377.3L220.2 377.3L220.1 377.3L220.1 377.3L220.0 377.3L220.0 377.3L220.0 377.3L219.9 377.3L219.9 377.3L219.8 377.3L219.7 377.3L219.7 377.4L219.6 377.4L219.6 377.4L219.6 377.4L219.5 377.4L219.5 377.4L219.5 377.4L219.4 377.4L219.4 377.4L219.4 377.5L219.3 377.5L219.3 377.5L219.2 377.5L219.2 377.5L219.1 377.6L219.1 377.6L219.0 377.6L219.0 377.6L219.0 377.6L218.9 377.6L218.9 377.6L218.9 377.7L218.8 377.7L218.7 377.8L218.6 377.8L218.6 377.9L218.5 377.9L218.5 377.9L218.5 377.9L218.5 378.0L218.4 378.0L218.4 378.0L218.4 378.0L218.3 378.1L218.3 378.1L218.3 378.1L218.2 378.1L218.2 378.2L218.1 378.3L218.0 378.4L218.0 378.4L218.0 378.4L217.9 378.4L217.9 378.5L217.9 378.5L217.8 378.6L217.8 378.6L217.8 378.6L217.8 378.6L217.8 378.7L217.7 378.7L217.6 378.9L217.6 379.0L217.6 379.0L217.5 379.0L217.5 379.1L217.5 379.1L217.5 379.1L217.5 379.2L217.5 379.2L217.5 379.2L217.4 379.3L217.4 379.3L217.4 379.3L217.4 379.4L217.4 379.4L217.4 379.4L217.4 379.5L217.3 379.5L217.3 379.5L217.3 379.6L217.3 379.6L217.3 379.6L217.3 379.7L217.3 379.8L216.9 380.8L216.8 380.9L216.8 380.9L216.8 380.9L216.8 381.0L216.8 381.0L216.8 381.0L216.8 381.1L216.7 381.1L216.7 381.1L216.7 381.3L216.7 381.4L216.6 381.4L216.6 381.7L216.6 381.7L216.6 381.7L216.6 381.8L216.6 381.8L216.6 381.9L216.6 381.9L216.5 382.0L216.5 382.0L216.5 382.1L216.5 382.1L216.5 382.1L216.5 382.4L216.5 382.5L216.5 382.5L216.5 382.6L216.4 384.6L215.7 386.4L214.4 388.0L212.8 389.1L212.7 389.2L212.6 389.2L212.6 389.2L212.5 389.2L212.5 389.2L212.4 389.3L212.4 389.3L212.4 389.3L212.3 389.4L212.3 389.4L212.3 389.4L212.2 389.4L212.2 389.4L212.2 389.5L212.1 389.5L212.1 389.5L212.1 389.5L212.0 389.6L212.0 389.6L212.0 389.6L211.9 389.7L211.9 389.7L211.8 389.8L211.8 389.8L211.8 389.8L211.7 389.9L211.7 389.9L211.7 389.9L211.6 390.0L211.6 390.0L211.5 390.1L211.5 390.1L211.5 390.2L211.4 390.2L211.4 390.2L211.4 390.2L211.4 390.3L211.3 390.3L211.3 390.4L211.3 390.4L211.3 390.4L211.2 390.5L211.2 390.5L211.2 390.5L211.2 390.6L211.2 390.6L211.1 390.6L211.1 390.7L211.1 390.7L211.1 390.7L211.1 390.8L211.1 390.8L211.1 390.8L211.0 390.9L211.0 390.9L211.0 391.0L211.0 391.0L211.0 391.0L210.9 391.1L210.9 391.1L210.9 391.2L210.9 391.2L210.9 391.3L210.9 391.3L210.9 391.3L210.9 391.4L210.9 391.4L210.8 391.4L210.8 391.6L210.8 391.6L210.8 391.6L210.8 391.7L210.8 391.7L210.8 391.8L210.8 391.8L210.8 391.9L210.8 391.9L210.8 392.0L210.3 393.9L209.4 395.5L209.1 395.9L209.1 395.9L207.3 397.3L207.1 397.3L207.3 397.5L208.4 399.3L208.5 399.4L208.5 399.4L208.5 399.5L208.5 399.5L208.5 399.5L208.5 399.6L208.5 399.6L208.6 399.6L208.6 399.7L208.6 399.8L208.7 399.8L208.7 399.9L208.7 399.9L208.8 400.0L209.5 401.6L211.3 401.5L211.3 401.5L213.4 402.0L215.2 403.1L215.2 403.1L216.5 404.7L217.3 406.6L217.5 408.6L217.2 410.1L213.2 409.0L211.5 410.6L212.2 412.7L206.9 407.8L200.7 405.5L193.0 407.6L188.4 410.1L185.3 418.0L184.4 418.2L184.1 419.9L184.1 420.0L184.1 420.0L184.0 420.1L184.0 420.1L184.0 420.2L184.0 420.3L184.0 420.4L184.0 420.4L184 420.5L183.9 420.5L183.9 420.5L183.9 420.6L183.9 420.7L183.9 420.8L183.9 420.8L183.9 420.8L183.9 420.9L183.9 420.9L183.9 420.9L183.9 421.0L183.9 421.1L183.9 421.2L183.9 421.2L183.9 421.3L183.9 421.6L183.0 423.9L181.4 424.8L179.1 424.4L176.0 420.7L173.5 421.3L170.6 418.1L165.7 418.5L163.2 419.9L156.5 420.2L154.1 423.1L149.5 425.1L149.0 429.9L146.5 431.2L145.6 433.0L143.5 428.7L139.2 426.4L137.6 426.8L136.8 429.1L133.3 428.8L133.9 425.1L138.8 423L140.4 423.9L149.7 415.8 Z M 252.9 358.0L252.8 357.8L252.4 355.9L252.4 355.8L252.4 355.8L252.4 355.7L252.4 355.7L252.4 355.6L252.4 355.6L252.4 355.6L252.4 355.5L252.4 355.5L252.4 355.5L252.4 355.4L252.3 355.4L252.3 355.3L252.3 355.2L252.3 355.1L252.3 355.1L252.3 355.1L252.3 355.0L252.2 354.9L252.2 354.9L252.2 354.8L252.2 354.8L252.2 354.8L252.1 354.7L252.1 354.7L252.1 354.7L252.1 354.6L252.1 354.6L252.1 354.6L252.1 354.5L252.0 354.5L252.0 354.5L252.0 354.4L252.0 354.4L252.0 354.3L251.5 353.3L251.5 353.3L251.5 353.2L251.4 353.2L251.4 353.1L251.4 353.1L251.4 353.1L251.4 353.0L251.3 353.0L251.3 352.9L251.3 352.9L251.3 352.9L251.3 352.8L251.3 352.8L251.2 352.8L251.2 352.7L251.2 352.7L251.2 352.6L251.1 352.6L251.1 352.6L251.1 352.5L251.1 352.5L251.0 352.5L251.0 352.4L251.0 352.4L251.0 352.4L251.0 352.3L250.9 352.3L250.9 352.3L250.9 352.2L250.8 352.1L250.7 352.1L250.7 352.1L250.7 352.0L250.7 352.0L250.6 352.0L250.6 352.0L250.6 351.9L250.5 351.9L250.5 351.9L250.4 351.8L250.4 351.8L250.4 351.8L250.3 351.7L250.3 351.7L250.3 351.7L250.2 351.7L250.2 351.6L250.0 351.5L250.0 351.5L249.9 351.5L249.9 351.5L249.9 351.4L249.8 351.4L249.8 351.4L249.7 351.4L249.7 351.4L249.6 351.3L249.6 351.3L249.6 351.3L249.5 351.3L249.5 351.3L249.5 351.3L249.4 351.2L249.3 351.2L249.3 351.2L249.3 351.2L249.2 351.2L249.2 351.2L249.2 351.2L249.1 351.1L249.0 351.1L248.9 351.1L248.9 351.1L248.9 351.1L248.8 351.1L248.8 351.1L248.8 351.1L248.7 351.1L248.6 351.1L248.6 351.1L248.6 351.1L248.5 351.1L248.5 351.1L248.5 351.1L248.4 351.1L248.2 351.1L248.2 351.1L248.2 351.1L248.1 351.1L247.8 351.1L247.6 351.1L245.6 350.7L243.7 349.7L242.3 348.3L241.3 346.4L241.0 344.4L241.0 344.3L241.0 343.9L241.7 341.5L241.7 341.4L241.7 341.4L241.7 341.4L241.8 341.3L241.8 341.3L241.8 341.2L241.8 341.2L241.8 341.1L241.8 341.1L241.8 341.0L241.9 341.0L241.9 341.0L241.9 340.9L241.9 340.9L241.9 340.9L241.9 340.8L241.9 340.7L241.9 340.7L242 340.6L242.0 340.6L242.0 340.6L242.0 340.5L242.0 340.5L242.0 340.5L242.0 340.4L242.0 340.4L242.0 340.3L242.0 340.3L242.0 340.3L242.0 340.2L242.0 340.2L242.0 340.2L242.0 340.1L242.0 339.9L242.0 339.8L242.0 339.8L242.0 339.7L242.0 339.6L242.0 339.6L242.0 339.6L242.0 339.5L242.0 339.5L242.0 339.5L242 339.4L241.9 339.3L241.9 339.3L241.9 339.2L241.9 339.2L241.9 339.1L241.9 339.1L241.9 339.0L241.9 339.0L241.8 338.9L241.8 338.8L241.8 338.8L241.8 338.8L241.8 338.7L241.7 338.7L241.7 338.7L241.7 338.6L241.7 338.6L241.7 338.6L241.7 338.5L241.7 338.5L241.6 338.5L241.6 338.4L241.6 338.4L241.6 338.4L241.6 338.3L241.4 338.1L241.4 338.1L241.4 338.1L241.4 338.0L241.3 338.0L241.3 338.0L241.3 337.9L241.3 337.9L241.2 337.9L241.2 337.8L241.2 337.8L241.1 337.7L241.1 337.7L241.1 337.7L241.0 337.6L241.0 337.6L241.0 337.6L240.9 337.6L240.9 337.5L240.9 337.5L240.9 337.5L240.8 337.4L240.7 337.4L240.7 337.4L240.7 337.3L240.7 337.3L240.6 337.3L240.6 337.3L240.6 337.3L240.5 337.2L240.5 337.2L240.4 337.1L240.4 337.1L240.3 337.1L240.3 337.1L240.3 337.1L240.3 337.1L240.2 337.0L240.2 337.0L240.1 337.0L240.1 337.0L240.1 337.0L240.0 336.9L240 336.9L239.9 336.9L239.9 336.9L239.8 336.9L239.8 336.9L239.6 336.8L239.6 336.8L239.6 336.8L239.5 336.8L239.5 336.8L239.5 336.7L239.3 336.7L239.3 336.7L239.2 336.7L239.2 336.7L239.2 336.7L239.1 336.7L239.1 336.7L239.1 336.7L239.0 336.7L238.9 336.7L238.9 336.7L238.9 336.7L238.8 336.7L238.8 336.7L238.8 336.7L238.7 336.6L238.6 336.6L238.6 336.7L238.5 336.7L238.5 336.7L238.4 336.7L238.4 336.7L238.3 336.7L238.3 336.7L238.3 336.7L238.2 336.7L238.2 336.7L238.2 336.7L238.1 336.7L238.1 336.7L238.1 336.7L238.0 336.7L238.0 336.7L237.9 336.7L237.9 336.7L237.8 336.8L237.8 336.8L237.7 336.8L237.7 336.8L237.5 336.9L237.4 336.9L237.4 336.9L237.4 336.9L237.3 336.9L237.3 336.9L237.2 337.0L237.2 337.0L235.3 337.6L234.9 337.6L234.8 337.6L234.8 337.6L234.7 337.6L234.6 337.6L234.6 337.6L234.6 337.6L234.5 337.6L234.5 337.7L234.5 337.7L234.4 337.7L234.3 337.7L234.3 337.7L234.2 337.7L234.2 337.7L234.2 337.7L234.1 337.7L233.9 337.8L233.9 337.8L233.8 337.8L233.8 337.9L233.8 337.9L233.7 337.9L233.7 337.9L233.6 337.9L233.6 337.9L233.6 338.0L233.5 338.0L233.5 338.0L233.5 338.0L233.4 338.0L233.4 338.0L233.4 338.1L233.3 338.1L233.2 338.2L233.2 338.2L233.1 338.2L233.1 338.2L233.1 338.3L233.0 338.3L233.0 338.3L233.0 338.3L233.0 338.4L232.9 338.4L232.8 338.5L232.8 338.5L232.8 338.5L232.8 338.5L232.7 338.6L232.7 338.6L232.7 338.6L232.6 338.7L232.6 338.7L232.6 338.7L232.5 338.8L232.5 338.8L232.5 338.9L232.4 338.9L232.4 338.9L232.4 339.0L232.3 339.0L232.3 339.0L232.3 339.1L232.3 339.1L232.2 339.2L232.2 339.3L232.2 339.3L232.1 339.3L232.1 339.4L232.1 339.4L232.1 339.4L232.1 339.5L232.1 339.5L232.0 339.5L232.0 339.6L232.0 339.6L232.0 339.7L232.0 339.7L232.0 339.7L231.9 339.8L231.9 339.8L231.9 340.0L231.8 340.1L231.8 340.1L231.8 340.1L231.8 340.2L231.8 340.2L231.8 340.2L231.8 340.3L231.8 340.3L231.8 340.4L231.8 340.4L231.8 340.5L231.8 340.5L231.7 340.6L231.7 340.6L231.7 340.6L231.7 340.7L231.7 340.7L231.7 340.8L231.7 340.8L231.7 340.9L231.7 340.9L231.7 341.0L231.7 341.0L231.7 341.1L231.7 341.2L231.7 341.2L231.7 341.2L231.7 341.3L231.7 341.3L231.7 341.3L231.7 341.4L231.8 341.4L231.8 341.5L231.8 341.5L231.8 341.5L231.8 341.6L231.8 341.7L231.8 341.7L231.8 341.8L231.8 341.8L231.8 341.9L231.9 341.9L231.9 341.9L231.9 342.1L231.9 342.2L232.0 342.2L232.0 342.3L232.0 342.3L232.0 342.3L232.0 342.4L232.0 342.4L232.1 342.4L232.1 342.5L232.1 342.5L232.1 342.6L232.1 342.6L232.2 342.6L232.3 342.8L232.3 342.9L232.3 342.9L232.4 342.9L232.4 343L232.4 343.0L232.4 343.0L232.4 343.0L232.5 343.1L232.5 343.1L232.5 343.2L232.6 343.2L232.6 343.2L233.9 345.3L234.3 347.7L234.3 347.7L234.3 348.0L234.3 348.0L234.0 349.8L232.3 352.5L229.9 354.0L229.8 354.1L229.7 354.1L229.7 354.1L229.6 354.1L229.6 354.1L229.6 354.1L229.5 354.2L229.5 354.2L229.4 354.2L229.4 354.2L229.3 354.3L229.3 354.3L229.3 354.3L229.2 354.3L229.2 354.4L229.2 354.4L229.1 354.4L229.1 354.4L229.0 354.5L229.0 354.5L229.0 354.5L228.9 354.5L228.9 354.5L228.9 354.6L228.9 354.6L228.8 354.6L228.8 354.6L228.8 354.7L228.7 354.7L228.7 354.7L228.7 354.8L228.6 354.8L228.5 354.9L228.5 354.9L228.5 354.9L228.5 354.9L228.4 355.0L228.4 355.0L228.4 355.0L228.4 355.0L228.4 355.1L228.3 355.1L228.3 355.1L228.3 355.2L228.3 355.2L228.2 355.2L228.2 355.3L228.2 355.3L228.2 355.3L228.1 355.3L228.0 355.5L228.0 355.6L228.0 355.6L228.0 355.6L228.0 355.7L227.9 355.7L227.9 355.7L227.9 355.8L227.9 355.8L227.9 355.9L227.8 355.9L227.8 355.9L227.8 356.0L227.8 356.0L227.8 356.1L227.8 356.1L227.7 356.2L227.7 356.2L227.7 356.3L227.7 356.3L227.7 356.3L227.7 356.4L227.7 356.5L227.6 356.5L227.6 356.6L227.6 356.7L227.6 356.7L227.6 356.7L227.6 356.8L227.6 356.8L227.6 356.9L227.6 356.9L227.6 356.9L227.6 357.0L227.6 357.0L227.6 357.0L227.6 357.1L227.6 357.2L227.6 357.3L227.6 357.3L227.6 357.4L227.6 357.4L227.6 357.8L227.0 360.6L226.9 360.7L226.9 360.8L226.9 360.9L226.8 360.9L226.8 361.0L226.7 361.2L226.7 361.2L226.7 361.3L226.7 361.3L226.7 361.4L226.7 361.4L226.7 361.5L226.7 361.5L226.7 361.5L226.7 361.6L226.7 361.6L226.6 361.6L226.6 361.7L226.6 361.7L226.6 361.8L226.6 361.8L226.6 361.9L226.6 361.9L226.6 361.9L226.6 362.0L226.6 362.0L226.6 362.2L226.6 362.3L226.6 362.3L226.6 362.3L226.6 362.4L226.6 362.4L226.6 362.5L226.6 362.5L226.6 362.5L226.6 362.6L226.6 362.6L226.7 362.7L226.7 362.7L226.7 362.7L226.7 362.8L226.7 362.8L226.7 362.9L226.7 362.9L226.7 362.9L226.7 363.0L226.7 363.0L226.7 363.0L226.7 363.1L226.8 363.3L226.8 363.3L226.9 363.4L226.9 363.4L226.9 363.5L226.9 363.5L226.9 363.5L226.9 363.6L226.9 363.6L227.0 363.6L227.0 363.7L227.0 363.7L227.0 363.7L227.0 363.8L227.1 363.8L227.1 363.9L227.1 363.9L227.1 363.9L227.1 363.9L227.2 364.0L227.2 364.0L227.2 364.1L227.2 364.1L227.3 364.2L227.3 364.2L227.3 364.2L227.4 364.3L227.4 364.3L227.4 364.3L227.5 364.4L227.5 364.4L227.5 364.4L227.5 364.4L227.6 364.5L227.6 364.5L227.6 364.5L227.7 364.6L227.7 364.6L227.7 364.6L227.7 364.6L227.8 364.7L227.9 364.7L227.9 364.8L228.0 364.8L228.0 364.9L228.0 364.9L228.1 364.9L228.1 364.9L228.3 365.0L228.3 365.0L228.3 365.1L228.4 365.1L229.5 365.9L230.8 365.4L230.8 365.4L230.9 365.4L230.9 365.4L230.9 365.3L231.0 365.3L231.0 365.3L231.0 365.3L231.1 365.3L231.2 365.3L231.2 365.3L231.3 365.2L231.3 365.2L231.4 365.2L231.4 365.2L231.5 365.1L234.2 364.5L234.7 364.5L234.7 364.5L236.5 364.9L236.7 365L236.8 365.0L236.8 365.0L236.9 365.0L236.9 365.0L236.9 365.0L237.0 365.0L237.0 365.0L237.1 365.0L237.1 365.0L237.2 365.0L237.2 365.1L237.2 365.1L237.3 365.1L237.3 365.1L237.4 365.1L237.5 365.1L237.5 365.1L237.5 365.1L237.8 365.1L237.9 365.1L237.9 365.1L237.9 365.1L238.0 365.1L238.0 365.1L238.1 365.1L238.1 365.1L238.1 365.1L238.2 365.0L238.2 365.0L238.3 365.0L238.3 365.0L238.3 365.0L238.4 365.0L238.4 365.0L238.5 365.0L238.5 365.0L238.5 365.0L238.6 365.0L238.6 365L238.8 364.9L240.8 364.5L240.8 364.5L241.0 364.5L242.3 364.6L243.5 365.0L243.5 365.0L243.6 365.0L243.8 365.1L243.8 365.1L243.9 365.1L243.9 365.1L243.9 365.1L244.0 365.1L244.0 365.1L244.1 365.1L244.1 365.2L244.1 365.2L244.2 365.2L244.2 365.2L244.3 365.2L244.3 365.2L244.3 365.2L244.4 365.2L244.4 365.2L244.4 365.2L244.5 365.2L244.5 365.2L244.6 365.2L244.6 365.2L244.6 365.2L244.9 365.2L244.9 365.2L245.0 365.2L245.0 365.2L245.0 365.2L245.1 365.2L245.1 365.2L245.1 365.2L245.2 365.2L245.2 365.2L245.3 365.2L245.3 365.2L245.3 365.2L245.4 365.1L245.4 365.1L245.5 365.1L245.5 365.1L245.6 365.1L245.6 365.1L245.6 365.1L245.7 365.1L245.7 365.1L245.7 365.1L245.8 365.1L245.8 365.0L245.8 365.0L245.9 365.0L245.9 365.0L245.9 365.0L246.0 365.0L246.0 365.0L246.1 364.9L246.1 364.9L246.1 364.9L246.2 364.9L246.2 364.9L246.2 364.9L246.3 364.8L246.3 364.8L246.3 364.8L246.4 364.8L246.4 364.8L246.6 364.6L246.7 364.6L246.7 364.6L246.7 364.6L246.8 364.6L246.8 364.5L246.8 364.5L246.8 364.5L246.9 364.5L246.9 364.4L247.0 364.4L247.0 364.3L247.0 364.3L247.1 364.3L247.1 364.3L247.1 364.2L247.2 364.2L247.2 364.2L247.2 364.1L247.3 364.1L247.3 364.0L247.4 364.0L247.4 363.9L247.4 363.9L247.5 363.8L247.5 363.8L247.5 363.8L247.5 363.7L247.6 363.7L247.6 363.7L247.6 363.6L247.6 363.6L247.6 363.6L247.7 363.5L247.7 363.4L247.7 363.4L247.7 363.4L247.8 363.3L247.8 363.3L247.8 363.2L247.8 363.2L247.9 363.1L247.9 363.1L247.9 363.1L247.9 363.0L248.0 362.8L248.0 362.8L248.0 362.7L248.8 360.9L250.1 359.4L250.9 358.8L250.9 358.8L252.7 358.0 Z M 288.1 378.2L288.1 378.4L288.0 379.0L288.0 379.1L288.0 379.1L288.0 379.2L288.0 379.3L287.9 379.4L287.9 379.4L287.9 379.4L287.9 379.5L287.9 379.5L287.9 379.5L287.9 379.7L287.9 379.8L287.9 379.8L287.9 379.8L287.9 379.9L287.9 379.9L287.9 379.9L288.0 380.0L288.0 380.1L288.0 380.1L288.0 380.2L288.0 380.2L288.0 380.5L287.3 380.4L286.8 377.9 Z M 268.0 402.7L268.0 402.7L268.0 402.7L268.0 402.6L268.0 402.6L267.9 402.2L267.9 402.2L267.9 400.9L268.4 398.9L269.5 397.1L271.2 395.7L273.1 394.9L274.9 394.8L275.7 394.8L275.8 394.8L275.8 394.9L275.9 394.9L276.0 394.9L276.0 394.9L276.1 394.9L276.1 394.9L276.1 394.9L276.2 394.9L276.4 394.9L276.5 394.9L276.5 394.9L276.5 394.9L276.6 394.9L276.7 394.9L276.7 394.9L276.8 394.9L276.8 394.9L276.8 394.8L276.9 394.8L278.6 394.8L278.6 394.8L279.5 394.9L281.6 395.8L281.7 395.9L281.8 395.7L282.9 393.8L282.9 393.8L283.1 393.6L283.1 393.6L283.1 393.5L283.2 393.5L283.2 393.4L283.2 393.4L283.3 393.4L283.3 393.4L283.3 393.3L283.3 393.3L283.3 393.3L283.4 393.2L283.4 393.2L283.4 393.2L283.4 393.1L283.4 393.1L283.5 393.0L283.5 393.0L283.5 393.0L283.6 392.9L283.6 392.9L283.6 392.9L283.6 392.8L283.6 392.8L283.6 392.8L283.6 392.7L283.7 392.7L283.7 392.6L283.7 392.6L283.7 392.6L283.7 392.5L283.7 392.5L283.8 392.5L283.8 392.4L283.8 392.4L283.8 392.3L284.8 390.3L286.4 388.8L288.5 387.9L290.7 387.7L290.8 387.7L290.8 387.7L290.8 387.7L290.9 387.7L291.1 387.7L291.1 387.7L291.2 387.7L291.2 387.7L291.2 387.7L291.3 387.6L291.3 387.6L291.4 387.6L291.5 387.6L291.5 387.6L291.6 387.6L291.6 387.6L291.6 387.6L291.7 387.6L291.7 387.6L291.7 387.6L291.8 387.6L291.8 387.6L291.9 387.5L291.9 387.5L292.0 387.5L292.8 387.4L293.4 386.7L293.4 386.6L293.7 386.4L293.7 386.4L294.1 386.1L294.3 385.6L294.3 385.6L294.4 385.5L294.4 385.5L294.5 385.4L294.5 385.3L294.5 385.3L294.5 385.3L294.5 385.2L294.5 385.2L294.6 385.1L294.6 385.1L294.6 385.1L294.6 385.1L294.6 385.0L294.6 385.0L294.6 385L294.6 384.9L294.7 384.9L294.7 384.8L294.7 384.8L294.7 384.7L294.7 384.7L294.8 384.5L294.8 384.5L294.8 384.5L294.8 384.4L294.8 384.4L294.8 384.3L294.8 384.1L294.8 384.1L295.0 383.1L295.7 381.2L296.4 380.4L301.7 379.3L302.8 381.4L302.2 388.1L294.3 392.3L292.8 394.4L292.8 396.8L288.2 396.8L285.5 399.4L278.2 401.9L275.7 404.6 Z M 271.6 303.9L270.2 303.9L268.1 303.2L266.3 301.8L265.0 299.8L264.8 298.5L270.5 302.5 Z M 264.7 296.6L264.9 295.2L265.8 293.4L266.9 292.3L270.2 296.8L269.7 299.1L269.5 297.1L267.7 296.3L265.1 297.0 Z M 266.4 291.4L265.2 292.6L263.3 293.6L261.8 293.9L260.9 293.0L258.6 293.4L256.8 292.4L255.3 290.6L254.6 288.3L254.5 287.7L254.6 285.8L255.3 283.9L255.3 283.9L256.7 282.2L258.5 281.1L260.6 280.5L262.5 280.7L261.9 282.5L264.0 288.1 Z M 263.1 277.8L262.3 278.8L260.5 280.0L258.4 280.5L256.2 280.3L254.2 279.4L254.2 279.4L253.6 279.0L252.3 277.6L251.5 275.9L251.1 274.1L251.1 274.1L251.3 272.3L252.1 270.3L253.5 268.6L255.1 267.7L258.0 273.6L260.7 276.5 Z M 222.0 397.7L221.7 397.6L219.9 396.6L218.7 395.2L217.9 393.6L217.5 391.9L217.5 391.9L217.7 389.9L218.4 388.1L219.6 386.5L221.2 385.4L223.3 384.7L223.9 384.7L224.2 384.7L226.2 385.0L228.0 385.9L229.5 387.2L230.5 389.0L230.9 391.0L230.9 391.1L230.8 392.6L230.8 392.6L230.2 394.5L229.7 395.1L229.9 395.2L231.9 396.3L231.9 396.3L232.6 397.0L232.6 397.0L232.7 397.1L232.7 397.1L232.8 397.2L232.9 397.3L232.9 397.3L232.9 397.3L233.0 397.4L233.1 397.4L233.1 397.5L233.1 397.5L233.2 397.5L233.2 397.5L233.2 397.5L233.2 397.6L233.3 397.6L233.3 397.6L233.4 397.6L233.4 397.7L233.4 397.7L233.5 397.7L233.5 397.7L233.5 397.7L233.6 397.7L233.6 397.8L233.6 397.8L233.7 397.8L233.7 397.8L233.8 397.8L233.8 397.9L233.8 397.9L233.8 397.9L233.9 397.9L233.9 397.9L234.0 397.9L234.1 398.0L234.4 398.2L236.0 398.3L236.1 398.3L238.1 399.3L239.7 400.8L240.1 401.6L241.6 401.5L241.7 401.5L242.9 401.8L243.5 402.8L242.8 403.9L238.4 403.4L232.2 405.9L224.1 406.4L221.6 405.6L220.9 406.8L220.5 405.8L220.3 403.9L220.7 401.9L220.7 401.8L220.7 401.8L220.8 401.6L220.8 401.6L220.8 401.6L220.8 401.3L220.9 401.2L220.9 401.2L220.9 401.1L220.9 401.1L220.9 401.0L220.9 401.0L220.9 400.9L221.1 399.9L221.1 399.9L222.0 397.8 Z M 245.8 403.4L245.8 403.5L245.7 403.5 Z M 223.6 410.1L222.7 409.5L222.7 409.4L222.6 409.4L222.6 409.3L222.6 409.3L222.6 409.3L222.5 409.3L222.5 409.2L222.5 409.2L221.2 407.7L221.0 407.2L223.7 408.1 Z M 227.7 255.0L227.6 253.2L228.0 251.4L228.0 251.4L228.6 250.3L228.0 249.1L228.0 249.1L227.6 246.9L227.6 246.9L227.9 244.8L228.9 242.9L230.4 241.4L232.3 240.5L233 240.4L233.0 240.5L235.9 247.0L237.8 254.9L240.7 259.1L240.9 259.2L241.0 260.1L241.0 260.1L241.0 260.3L241.0 261.0L240.5 263.0L239.5 264.7L238.0 266.0L236.1 266.8L234.0 267.1L232 266.6L230.1 265.6L228.7 264.1L227.8 262.2L227.8 262.2L227.6 260.1L228.0 258.1L228.0 258.1L228.5 257.1L228.5 257.0L227.7 255.0 Z M 192.1 314.9L191.1 313.1L190.6 311.1L190.9 309.0L191.2 308.3L192.7 307.7L197.9 311.5L198.3 310.6L195.9 306.3L198.7 305.4L202.8 310.1L205.2 309.9L206.9 307.8L206.9 307.8L206.9 307.8L206.9 307.9L206.9 307.9L206.9 307.9L206.9 308.0L206.9 308.1L206.9 308.1L207.0 308.2L207.0 308.3L207.0 308.3L207.0 308.3L207.0 308.4L207.0 308.4L207.0 308.5L207.1 308.5L207.2 309.1L207.4 310.8L207.1 312.8L206.1 314.7L204.7 316.2L202.8 317.1L200.7 317.5L200.7 317.5L199.6 317.4L199.6 317.4L199.5 317.4L199.5 317.4L199.4 317.3L199.3 317.3L199.3 317.3L199.3 317.3L199.2 317.3L199.2 317.3L199.2 317.3L198.9 317.3L198.9 317.3L198.8 317.3L198.8 317.3L198.8 317.3L198.7 317.3L198.6 317.4L198.5 317.4L198.5 317.4L198.4 317.4L197.4 317.5L195.4 317.2L193.5 316.3L192.1 314.9 Z M 204.6 277.2L205.0 277.2L206.2 277.5L206.4 277.6L208.2 278.6L208.2 278.6L209.5 280.0L210.4 281.6L210.4 281.7L210.5 281.9L210.6 282.1L210.7 282.2L210.7 282.3L210.7 282.3L210.7 282.3L210.8 282.4L210.8 282.4L210.8 282.5L210.9 282.5L210.9 282.5L210.9 282.6L211.0 282.6L211.0 282.6L211.0 282.7L211.0 282.7L211.1 282.7L211.1 282.8L211.2 282.9L211.3 282.9L211.3 283.0L211.3 283.0L211.4 283.0L211.4 283.1L211.4 283.1L211.5 283.2L211.5 283.2L211.6 283.2L211.6 283.2L211.6 283.3L211.6 283.3L211.7 283.3L211.7 283.3L211.7 283.3L211.9 283.4L211.9 283.4L211.9 283.5L212.0 283.5L212.0 283.5L212.0 283.5L212.1 283.5L212.1 283.6L212.2 283.6L212.2 283.6L212.3 283.6L212.3 283.6L212.3 283.6L212.4 283.7L212.4 283.7L212.4 283.7L212.5 283.7L213.1 284.0L213.8 283.9L213.8 283.9L213.8 283.9L213.8 283.9L214.1 283.9L214.2 283.9L215.8 284.1L217.4 284.7L219.1 286.1L220.3 287.9L220.8 290.0L220.7 292.2L219.8 294.2L219.8 294.2L218.3 295.8L216.4 296.9L214.3 297.3L211.9 296.9L211.9 296.9L211.3 296.6L210.6 296.7L210.6 296.7L210.5 296.7L210.5 296.7L210.4 296.8L210.3 296.8L210.3 296.8L210.2 296.8L210.2 296.8L210.1 296.8L210.0 296.8L209.9 296.8L209.9 296.8L207.7 297.9L207.3 298.0L207.1 299.2L207.1 299.2L207.0 299.6L207.0 299.6L206.4 300.7L207.0 301.8L207.1 301.8L207.4 303.3L207.1 306.1L207.1 306.1L206.8 306.6L206.9 307.1L206.9 307.1L206.9 307.2L206.9 307.3L206.9 307.3L206.9 307.5L206.9 307.5L206.9 307.6L206.9 307.6L206.9 307.7L206.9 307.7L206.9 307.7L206.9 307.8L203.5 308.8L201.3 307.3L197.9 300.1L200.9 294.8L202.7 293.8L199.3 292.2L199.3 286.9L202.0 285.2L204.3 280.3 Z M 204.1 86.2L204.1 86.1L204.1 85.5L204.1 85.4L204.2 84.8L205.4 85.2L206.3 86.4L205.8 87.9L204.6 85.8 Z M 211.5 243.5L209.3 243.4L207.2 242.5L205.5 241.0L204.4 238.8L204.1 237.5L204.1 237.2L204.1 237.2L204.4 234.9L205.4 232.8L207.1 231.2L209.3 230.3L209.9 230.2L209.9 230.2L212.2 230.3L214.3 231.1L215.8 232.4L217.1 234.6L217.1 234.6L217.5 236.9L217.5 236.9L217.2 238.9L216.4 240.6L215.1 242.0L213.4 243.0L211.5 243.5 Z M 197.4 253.7L197.3 253.6L197.4 253.6L197.9 251.0L199.2 249.0L201.1 247.6L203.5 246.9L203.5 246.9L205.5 247.1L207.5 247.8L209.1 249.1L210.1 250.6L210.7 252.4L210.7 252.4L210.8 253.4L210.8 253.8L210.8 253.8L210.4 256.0L209.2 258.0L207.5 259.4L205.4 260.2L205.4 260.2L204.0 260.4L204 260.4L203.4 260.3L201.5 259.8L199.8 258.8L198.5 257.4L197.6 255.6L197.4 253.7L197.3 253.7L197.3 253.7 Z M 183.9 361.5L183.6 363.1L183.0 364.5L183.0 364.5L181.6 366.2L179.8 367.3L177.7 367.9L175.5 367.7L173.5 366.8L173.5 366.8L172.1 365.6L171.1 364.0L170.6 362.2L170.5 361.6L170.5 361.6L170.8 359.0L172.1 356.8L173.4 355.6L175.0 354.8L176.7 354.4L177.0 354.4L178.5 354.6L178.5 354.6L180.2 355.1L181.9 356.4L183.2 358.1L183.8 359.8 Z M 148.5 367.0L150.2 365.5L150.2 365.5L151 365.2L151.3 364.3L151.3 364.3L152.8 362.6L154.8 361.5L156.8 361.2L156.8 361.2L157 361.2L157.0 361.1L157.0 361.2L158.3 361.3L160.0 361.9L161.6 362.9L162.8 364.4L163.5 366.0L163.7 367.2L162.9 367.2L160.5 367.7L159.6 370.2L156.0 370.4L154.1 372.1L151.6 371.0L152.4 369.2L156.2 367.7L155.7 366.4L155.2 367.6L152.7 367.9 Z M 119.4 433.1L118.6 433.3L119.0 432.5 Z M 244.9 407.2L242.4 410.4L239.7 411.3L234.6 408.1L232.8 408.3L239.0 404.1L243.5 405.3 Z M 210.7 87.6L209.4 89.6L211.2 85.6L214.9 84.8L215.1 86.1 Z M 210.7 87.6 "/>
<path style=" stroke:none;fill-rule:nonzero;fill:#C2B855;fill-opacity:1;" d="M 129.4 325.2L127.9 325.1L125.8 324.3L124.0 322.7L122.9 320.7L122.6 319.7L122.6 317.8L123.1 315.9L124.1 314.3L125.5 313.0L127.2 312.1L129.2 311.8L129.3 311.8L131.1 312.2L131.5 314.1L131.7 320.1 Z M 118.4 287.7L118.4 287.7L119.0 284.9L120.5 282.9L122.5 281.6L124.9 281.1L125.3 281.1L126.4 281.3L126.1 282.8L126.5 284.1L128.5 287.0L128.5 289.0L127.4 290.9L131.3 297.5L130.4 300.3L129.7 300.9L129.8 301.2L127.9 301.5L127.9 301.5L127.5 301.5L125.6 301.1L124.0 300.3L122.5 298.8L121.5 296.9L121.2 294.8L121.2 294.8L121.4 293.4L120.2 292.5L120.2 292.5L119.1 290.9L118.5 289.1L118.4 287.8L118.4 287.8L118.4 287.8L118.4 287.7 Z M 123.6 258.6L124.6 258.1L125.4 257.9L127.1 257.7L129.3 258.0L131.3 259.1L131.3 259.1L132.6 260.6L133.5 262.4L133.8 264.4L133.8 264.4L133.6 266.0L133.0 267.6L131.9 269.1L130.4 270.2L128.7 270.9L128.7 270.9L127.0 271.1L126.5 271.1L124.7 270.7L123.1 269.8L121.6 268.2L120.6 266.2L120.4 264.0L120.8 261.9L122.0 260.0 Z M 118.0 344.4L119.5 342.9L120.4 342.5L122.7 345.9L122.6 347.7L121.6 348.4L117.3 348.1L116.8 347.8L116.9 346.5 Z M 115.6 317.4L113.8 316.9L112.1 315.9L110.8 314.4L110.0 312.6L109.7 310.7L109.7 310.6L110.0 308.6L111.0 306.8L112.4 305.3L114.2 304.4L116.2 304.0L116.2 304.0L118.4 304.3L120.4 305.3L121.9 306.8L122.9 308.8L123.0 309.5L123.1 311.5L122.6 313.4L121.6 315.0L120.1 316.3L118.4 317.1L115.7 317.4 Z M 110.5 298.8L110.5 300.5L109.9 302.4L108.8 304.0L107.3 305.3L105.5 306.1L103.9 306.3L102.9 306.2L102.4 306.1L102.4 306.1L100.4 305.3L98.7 303.9L97.6 302.0L97.1 299.9L97.1 299.4L97.1 299.4L97.5 297.4L98.5 295.5L99.9 294.1L101.8 293.1L103.9 292.8L103.9 292.8L105.8 293.1L107.6 293.9L109.0 295.2L110.0 296.9L110.5 298.8 Z M 68.6 357.7L68.6 357.7L68.7 356.6L68.7 356.6L69.6 354.5L71.0 352.8L73.0 351.6L75.2 351.2L75.3 351.2L76.8 351.4L77.7 350.3L77.7 350.3L78.9 349.3L80.5 348.7L82.1 348.4L83.8 348.6L83.8 348.6L84.5 348.9L85.1 348.7L85.1 348.7L85.2 348.7L85.2 348.7L85.7 348.7L85.7 348.7L87.1 348.9L88.0 347.8L88.0 347.8L89.8 346.5L91.8 345.9L92.2 345.9L94.4 346.1L96.4 347.0L98.0 348.5L98.2 348.9L93.4 349.9L94.2 351.9L93.2 353.5L89.6 354.9L87.4 354.0L85.8 357.1L81.7 359.5L78.5 359.5L78.1 358.9L78.6 357.6L76.9 357.1L76.6 355.6L74.7 355.6L76.6 359.0L75.9 361.5L72.8 363.0L70.4 362.5L69.6 361.4L68.9 359.9L68.6 357.9L68.6 357.9L68.6 357.8 Z M 68.6 357.7 "/>
















</g>
</svg>
