<?xml version="1.0" encoding="UTF-8"?>
<svg xmlns="http://www.w3.org/2000/svg" xmlns:xlink="http://www.w3.org/1999/xlink" width="378pt" height="504pt" viewBox="0 0 378 504" version="1.1">
<g id="data">
<rect x="0" y="0" width="378" height="504" style="fill:rgb(100%,100%,100%);fill-opacity:1;stroke:none;"/>
<path style=" stroke:none;fill-rule:nonzero;fill:rgb(100%,100%,100%);fill-opacity:1;" d="M 21 504L357 504L357 0L21 0 Z M 21 504 "/>
<path style=" stroke:none;fill-rule:nonzero;fill:rgb(77.6%,78.8%,62.3%);fill-opacity:1;" d="M 178.5 254.1L178.3 253.9L178.2 253.9L178.2 253.8L178.2 253.8L178.1 253.7L178.1 253.7L178.1 253.7L178.1 253.6L178.0 253.6L178.0 253.5L178.0 253.5L177.9 253.5L177.9 253.4L177.9 253.4L177.8 253.4L177.7 253.3L177.7 253.2L177.7 253.2L177.6 253.2L177.6 253.1L177.6 253.1L177.5 253.1L177.5 253.1L177.5 253.0L177.4 253.0L177.4 253.0L177.4 253.0L177.3 252.9L177.3 252.9L177.2 252.8L177.1 252.8L177.0 252.8L177.0 252.7L177.0 252.7L176.9 252.7L176.9 252.7L176.9 252.7L176.8 252.7L176.8 252.6L176.8 252.6L176.7 252.6L176.7 252.6L176.6 252.6L176.6 252.6L176.6 252.5L176.4 252.5L176.4 252.5L176.3 252.5L176.3 252.5L176.2 252.4L176.2 252.4L176.1 252.4L176.0 252.4L176.0 252.4L176.0 252.4L175.9 252.4L175.8 252.4L175.8 252.4L175.8 252.4L175.7 252.4L175.7 252.3L175.7 252.3L175.6 252.3L175.6 252.3L175.5 252.3L175.5 252.3L175.3 252.3L175.3 252.3L175.3 252.3L175.2 252.3L175.2 252.3L175.1 252.3L175.1 252.4L175.0 252.4L175.0 252.4L175.0 252.4L174.9 252.4L174.9 252.4L174.8 252.4L174.8 252.4L174.7 252.4L174.6 252.4L174.6 252.4L174.6 252.5L174.5 252.5L174.5 252.5L171.9 250.6L171.0 248.7L170.2 250.3L171.1 253.6L171.1 253.6L171.0 253.6L170.9 253.6L170.8 253.6L170.8 253.6L170.8 253.6L170.7 253.6L170.7 253.7L170.7 253.7L170.5 253.7L170.5 253.7L170.4 253.7L170.4 253.7L170.3 253.7L170.2 253.8L170.1 253.8L170.1 253.8L170.1 253.8L170.0 253.8L170.0 253.9L170.0 253.9L169.9 253.9L169.9 253.9L169.9 253.9L169.8 253.9L169.8 254L169.8 254.0L169.7 254.0L169.7 254.0L169.7 254.0L169.6 254.0L169.6 254.1L169.6 254.1L169.5 254.1L169.1 254.3L168.8 254.7L168.8 254.7L167.8 255.5L166.4 253.3L161.1 249.8L158.6 252.4L160.5 258.8L158.7 257.8L158.6 255.2L154.3 248.7L154.3 247.5L154.6 247.4L156.5 246.9L156.5 246.9L156.6 246.9L156.7 246.9L156.8 246.9L156.8 246.9L156.9 246.9L157.0 246.8L157.0 246.8L157.1 246.8L157.1 246.8L157.2 246.8L157.2 246.8L157.2 246.8L157.3 246.7L157.4 246.7L157.4 246.7L157.4 246.7L157.5 246.7L157.5 246.7L157.5 246.7L157.6 246.6L157.6 246.6L157.7 246.6L157.7 246.6L157.8 246.5L157.8 246.5L157.9 246.5L157.9 246.5L158.0 246.5L158.4 246.3L159.5 245.1L159.5 245.1L160.7 244.3L161.0 243.9L161.0 243.9L161.1 243.8L161.1 243.8L161.1 243.7L161.2 243.7L161.2 243.7L161.2 243.6L161.3 243.6L161.3 243.6L161.3 243.5L161.3 243.5L161.4 243.4L161.4 243.4L162.6 241.9L164.2 240.9L166.0 240.3L166.5 240.2L166.6 240.2L166.7 240.2L166.7 240.2L166.7 240.2L166.8 240.2L166.8 240.2L166.9 240.2L166.9 240.2L167.0 240.1L167.0 240.1L167.1 240.1L167.1 240.1L167.2 240.1L167.5 240.0L167.5 240.0L167.5 240.0L167.6 240.0L167.6 240.0L167.6 239.9L167.7 239.9L167.7 239.9L167.7 239.9L167.8 239.9L167.8 239.9L167.8 239.9L167.9 239.8L167.9 239.8L167.9 239.8L168 239.8L168.2 239.6L168.2 239.6L168.2 239.6L168.3 239.6L168.3 239.6L168.3 239.5L168.3 239.5L168.4 239.5L168.4 239.5L168.4 239.5L168.5 239.4L168.5 239.4L168.5 239.4L168.6 239.3L168.6 239.3L168.6 239.3L168.7 239.2L168.7 239.2L168.7 239.2L168.8 239.1L168.8 239.1L169.7 238.2L171.7 237.2L173.8 236.8L173.8 236.8L176.0 237.2L176.2 237.3L176.3 237.3L176.3 237.3L176.4 237.3L176.4 237.3L176.5 237.3L176.5 237.3L176.6 237.3L176.6 237.4L176.6 237.4L176.7 237.4L176.7 237.4L176.8 237.4L176.8 237.4L176.9 237.4L176.9 237.4L176.9 237.4L177.0 237.4L177.0 237.4L177.0 237.4L177.3 237.4L177.4 237.4L177.4 237.4L177.4 237.4L177.5 237.4L177.5 237.4L177.6 237.4L177.6 237.4L177.7 237.4L177.7 237.4L177.7 237.4L177.8 237.4L177.8 237.3L177.8 237.3L177.9 237.3L177.9 237.3L178.0 237.3L178.0 237.3L178.1 237.3L178.1 237.3L178.1 237.3L178.2 237.3L178.2 237.2L178.2 237.2L178.3 237.2L179.7 236.9L180.6 236.8L182.8 237.2L183.0 237.3L183.0 237.3L183.0 237.3L183.1 237.3L183.1 237.3L183.3 237.3L183.3 237.3L183.3 237.4L183.4 237.4L183.4 237.4L183.4 237.4L183.5 237.4L183.5 237.4L183.6 237.4L183.7 237.4L183.7 237.4L183.7 237.4L183.8 237.4L184.1 237.4L184.1 237.4L184.1 237.4L184.2 237.4L184.2 237.4L184.3 237.4L184.3 237.4L184.4 237.4L184.4 237.4L184.4 237.4L184.5 237.4L184.5 237.4L184.5 237.3L184.6 237.3L184.6 237.3L184.7 237.3L184.7 237.3L184.8 237.3L184.8 237.3L184.9 237.3L184.9 237.2L185.0 237.2L185.0 237.2L185.1 237.2L186.8 236.8L187.3 236.8L190.1 237.5L190.2 237.5L190.3 237.5L190.3 237.5L190.3 237.6L190.4 237.6L190.4 237.6L190.5 237.6L190.5 237.6L190.5 237.6L190.6 237.6L190.7 237.7L190.7 237.7L190.8 237.7L190.8 237.7L190.8 237.7L190.9 237.7L190.9 237.7L191.0 237.7L191.0 237.8L191.0 237.8L191.1 237.8L191.1 237.8L191.2 237.8L191.2 237.8L191.3 237.8L191.3 237.8L191.3 237.8L191.4 237.8L191.4 237.8L191.5 237.8L191.5 237.8L191.7 237.8L191.8 237.8L191.8 237.8L191.8 237.8L191.9 237.8L191.9 237.8L192.0 237.8L192.0 237.8L192.1 237.8L192.1 237.8L192.2 237.8L192.2 237.8L192.3 237.7L192.3 237.7L192.4 237.7L192.4 237.7L192.4 237.7L192.5 237.7L192.5 237.7L192.6 237.7L192.6 237.7L192.8 237.6L192.8 237.6L192.8 237.6L192.9 237.6L192.9 237.6L193.0 237.5L193.0 237.5L193.0 237.5L193.1 237.5L193.1 237.4L193.2 237.4L193.2 237.4L193.2 237.4L193.3 237.4L193.4 237.3L193.4 237.3L193.5 237.3L193.5 237.2L193.5 237.2L193.6 237.2L193.6 237.2L193.6 237.1L193.6 237.1L193.7 237.1L193.7 237.1L193.7 237.1L193.8 237.0L193.9 236.9L193.9 236.9L194.1 236.8L194.1 236.7L194.1 236.7L194.1 236.7L194.2 236.6L194.2 236.6L194.2 236.6L194.3 236.5L194.3 236.5L194.3 236.5L194.3 236.4L194.3 236.4L194.4 236.4L194.4 236.3L194.5 236.1L194.6 236.1L195.7 234.6L195.6 234.5L194.5 232.7L194.5 232.7L194.0 230.5L194.0 229.7L194.3 228.0L195.1 226.4L196.3 225.1L197.8 224.0L199.5 223.5L200.7 223.4L200.7 223.4L201.8 223.5L201.8 223.5L203.8 224.2L205.5 225.4L206.8 227.2L207.4 229.2L207.4 230.1L207.4 230.9L206.6 233.4L206.6 233.4L205.4 234.9L206.5 236.5L206.5 236.5L206.5 236.6L206.5 236.6L206.5 236.6L206.5 236.7L206.6 236.7L206.6 236.7L206.7 236.9L206.7 237.0L206.8 237.0L206.8 237.0L206.8 237.1L206.8 237.1L206.8 237.1L206.9 237.2L207.0 237.3L207.0 237.3L207.0 237.3L207.1 237.4L207.1 237.4L207.1 237.4L207.1 237.5L207.2 237.5L207.2 237.5L207.2 237.5L207.3 237.6L207.3 237.6L207.4 237.6L207.4 237.7L207.4 237.7L207.5 237.7L207.5 237.7L207.5 237.8L207.5 237.8L207.6 237.8L207.6 237.8L207.6 237.8L207.7 237.9L209.8 240.0L209.8 240.1L209.8 240.1L209.9 240.2L209.9 240.2L210.0 240.3L210.0 240.3L210.0 240.3L210.0 240.4L210.2 240.6L210.2 240.6L210.3 240.6L210.4 240.8L210.5 240.8L210.5 240.9L210.5 240.9L210.6 240.9L210.6 240.9L210.6 241.0L210.7 241.0L210.7 241.0L210.7 241.0L210.7 241.1L210.8 241.1L210.8 241.1L210.8 241.1L210.9 241.1L210.9 241.1L211.0 241.2L213.0 243.2L213.7 244.5L213.7 244.6L213.8 244.6L213.8 244.7L213.8 244.7L213.8 244.8L213.8 244.8L213.9 244.9L213.9 244.9L213.9 245.0L213.9 245.0L213.9 245.0L214.0 245.1L214.0 245.1L214.0 245.2L214.1 245.2L214.1 245.3L214.1 245.3L214.1 245.3L214.2 245.4L214.2 245.4L214.2 245.4L214.2 245.5L214.3 245.5L214.3 245.5L214.3 245.6L214.4 245.7L214.6 245.9L214.7 245.9L214.7 245.9L214.8 246.0L214.8 246.0L214.8 246.0L214.8 246.1L214.9 246.1L214.9 246.1L214.9 246.1L215.0 246.1L215.0 246.2L215.2 246.3L215.2 246.3L215.2 246.3L215.3 246.3L215.3 246.3L215.3 246.4L215.4 246.4L215.4 246.4L215.4 246.4L215.5 246.4L215.5 246.5L215.6 246.5L215.6 246.5L215.6 246.5L215.7 246.5L215.7 246.5L215.9 246.6L216.0 246.6L216.0 246.6L216.1 246.6L216.1 246.6L216.2 246.7L216.2 246.7L216.3 246.7L216.3 246.7L216.3 246.7L216.4 246.7L216.4 246.7L216.4 246.7L216.5 246.7L216.5 246.7L216.6 246.7L216.6 246.7L216.7 246.7L216.7 246.7L216.7 246.7L217.0 246.7L217.0 246.7L217.1 246.7L217.1 246.7L217.1 246.7L217.2 246.7L217.2 246.7L217.3 246.7L217.3 246.7L217.4 246.7L217.4 246.7L217.4 246.7L217.5 246.7L217.5 246.7L217.5 246.7L217.6 246.7L217.6 246.7L217.7 246.6L217.8 246.6L217.8 246.6L218.1 246.5L218.1 246.5L218.1 246.5L218.2 246.5L218.2 246.4L218.3 246.4L218.3 246.4L218.3 246.4L218.4 246.4L218.4 246.4L218.4 246.3L218.5 246.3L218.5 246.3L218.5 246.3L218.8 246.2L218.8 246.1L218.8 246.1L218.9 246.1L218.9 246.1L218.9 246.0L218.9 246.0L219.0 246.0L219.0 246.0L219.1 245.9L219.1 245.9L219.1 245.9L219.2 245.8L219.2 245.8L219.3 245.7L219.3 245.7L219.3 245.6L219.9 245.1L220.0 245.0L220.0 245.0L220.1 245.0L220.1 245.0L220.1 244.9L220.1 244.9L220.2 244.9L220.2 244.9L220.2 244.8L220.3 244.8L220.3 244.7L220.3 244.7L220.4 244.7L220.4 244.6L220.4 244.6L220.5 244.5L220.5 244.5L220.5 244.5L220.5 244.5L220.6 244.4L220.7 244.2L220.7 244.1L220.7 244.1L220.8 244.1L220.8 244.0L220.8 244.0L220.8 244.0L220.8 243.9L220.8 243.9L220.9 243.8L220.9 243.8L220.9 243.8L220.9 243.7L220.9 243.7L221 243.6L221.0 243.6L221.0 243.5L221.0 243.5L221.0 243.4L221.0 243.4L221.0 243.3L221.1 243.3L221.1 243.2L221.1 243.2L221.1 243.1L221.1 243.1L221.1 243.1L221.1 243.0L221.1 243.0L221.1 243.0L221.1 242.9L221.1 242.8L221.1 242.8L221.1 242.8L221.1 242.7L221.1 242.7L221.1 242.7L221.1 242.6L221.1 242.4L221.1 242.4L221.1 242.3L221.1 242.3L221.1 242.3L221.1 242.2L221.1 242.2L221.1 242.1L221.1 242.1L221.1 242.1L221.1 242.0L221.1 242.0L221.1 242.0L221.1 241.9L221.1 241.9L221.1 241.8L221.1 241.8L221.0 241.7L220.9 240.1L220.9 240.1L221.0 239.1L221.2 238.1L222.6 235.7L222.6 235.7L222.6 235.6L222.7 235.6L222.7 235.6L222.7 235.6L222.7 235.5L222.8 235.5L222.8 235.4L222.8 235.4L222.9 235.4L222.9 235.3L222.9 235.3L222.9 235.3L222.9 235.2L223 235.2L223.0 235.2L223.0 235.1L223.0 235.1L224.3 233.4L225.1 232.9L224.2 232.5L222.5 231.2L222.5 231.2L221.3 229.1L220.9 226.7L221.3 224.5L222.2 222.7L223.6 221.3L225.2 220.5L226.4 222.4L230.3 224.4L231.6 232.1L231.3 232.2L231.6 232.4L233.0 240.5L235.9 247.0L237.8 254.9L240.7 259.1L253.8 265.3L258.0 273.6L260.7 276.5L264.9 278.8L262.7 280.0L261.9 282.5L264.0 288.1L270.2 296.8L269.7 299.1L269.5 297.1L267.7 296.3L265.1 297.0L260.9 293.0L254.8 294.2L252.9 293.4L251.0 294.5L255.4 295.0L260.3 293.8L262.4 296.8L270.5 302.5L272.5 305.2L275.1 311.3L275.3 316.5L267.8 324.8L269.7 324.4L273.3 327.7L276.1 328.3L280.0 321.2L287.5 320.8L296.7 321.9L305.5 327.6L307.8 332.9L307.9 341.4L305.0 353.4L299.5 359.2L298.1 357.0L295.4 355.8L298.8 361.1L297.2 363.8L293.3 365.4L291.7 363.4L285.2 367.6L286.6 368.6L290.6 366.7L291.2 371.6L287.6 374.8L284.3 374.5L280.1 375.9L278.2 377.9L281.7 376.4L285.5 376.9L286.1 378.1L284.2 378.1L282.4 379.3L282.9 380.0L290.6 381.6L301.7 379.3L302.8 381.4L302.2 388.1L294.3 392.3L292.8 394.4L292.8 396.8L288.2 396.8L285.5 399.4L278.2 401.9L275.7 404.6L263.9 401.7L254.0 403.6L251.1 405.7L248.4 404.0L249.5 402.9L248.0 401.5L242.6 401.4L243.5 402.8L242.8 403.9L238.4 403.4L232.2 405.9L224.1 406.4L221.6 405.6L220.7 407.1L223.7 408.1L223.6 410.7L221.2 411.1L213.2 409.0L211.5 410.6L212.2 412.7L206.9 407.8L200.7 405.5L193.0 407.6L188.4 410.1L183.0 423.9L181.4 424.8L179.1 424.4L176.0 420.7L173.5 421.3L170.6 418.1L165.7 418.5L163.2 419.9L156.5 420.2L154.1 423.1L149.5 425.1L149.0 429.9L146.5 431.2L145.6 433.0L143.5 428.7L139.2 426.4L137.6 426.8L136.8 429.1L133.3 428.8L133.9 425.1L138.8 423L140.4 423.9L149.7 415.8L150.8 411.2L156.4 409.6L157.4 406.9L162.1 402.6L163.1 394.1L168.3 394.7L170.6 392.1L170.3 387.8L180.5 386.2L187.1 386.9L189.9 388.6L198.4 387.8L200.1 381.5L213.6 366.8L207.1 372.6L205.9 373.9L196.6 377.1L194.9 380.7L189.8 381.2L186.1 380.1L179.8 371.9L171.2 375.0L169.5 374.0L169.3 372.0L173.4 371.3L174.4 369.7L170.0 369.5L166.1 367.2L162.9 367.2L160.5 367.7L159.6 370.2L156.0 370.4L154.1 372.1L151.6 371.0L152.4 369.2L156.2 367.7L155.7 366.4L155.2 367.6L152.7 367.9L147.2 366.7L150.7 365.0L150.2 362.2L147.2 361.4L147.7 359.8L151.1 358.2L151.6 356.9L157.3 356.4L161.2 352.3L165.2 352.2L171.4 348.2L173.8 345.1L175.6 339.5L174.2 335.0L176.0 330.8L173.9 327.7L174.4 323.4L168.0 324.3L165.1 327.6L160.0 327.6L163.4 323.2L169.5 318.9L170.2 315.9L173.3 312.5L181.0 309.7L187.0 310.0L192.7 307.7L197.9 311.5L198.3 310.6L195.9 306.3L198.7 305.4L202.8 310.1L205.2 309.9L206.9 307.7L203.5 308.8L201.3 307.3L197.9 300.1L200.9 294.8L202.7 293.8L199.3 292.2L199.3 286.9L202.0 285.2L204.3 280.3L204.8 275.1L197.3 280.3L195.6 279.6L191.8 272.9L191.3 270.2L187.0 264.0L192.8 250.2L194.9 248.2L198.8 248.4L200.5 248.0L200.6 247.1L188.8 246.1L187.7 250.4L183.5 251.3L180.1 254.3 Z M 187.3 210.1L187.3 209.4L187.7 207.6L200.5 210.7L203.5 209.5L205.4 206.5L209.4 206.6L220.9 213.7L224.4 219.2L222.9 220.0L221.0 220.4L219.0 220.1L218.9 220.1L218.9 220.1L218.7 220.1L218.7 220.1L218.7 220.1L218.6 220.1L218.5 220.0L218.5 220.0L218.5 220.0L218.4 220.0L218.4 220.0L218.4 220.0L218.3 220.0L218.3 220.0L218.2 220.0L218.0 220.0L217.9 220.0L217.9 220.0L217.4 220.0L217.4 220.0L215.6 219.8L213.9 219.0L212.2 217.4L211.1 215.3L211.1 215.2L211.1 215.2L211.1 215.2L211.0 215.1L211.0 215.1L210.7 213.2L209.7 213.2L207.8 212.6L207.8 212.6L207.2 212.2L206.8 212.1L206.7 212.1L206.6 212.1L206.6 212.1L206.5 212.1L206.5 212.1L206.4 212.1L206.4 212.1L206.3 212.1L206.3 212.0L206.3 212.0L206.2 212.0L206.2 212.0L206.1 212.0L206.1 212.0L206.0 212.0L206.0 212.0L206.0 212.0L205.9 212.0L205.8 212.0L205.7 212.0L205.7 212.0L205.6 212.0L205.6 212.0L205.6 212.0L205.5 212.0L205.5 212.0L205.5 212.0L205.4 212.0L205.4 212.1L205.3 212.1L205.3 212.1L205.3 212.1L205.2 212.1L205.2 212.1L205.1 212.1L205.0 212.1L205.0 212.1L204.9 212.1L204.9 212.2L204.9 212.2L204.7 212.2L204.7 212.2L204.6 212.2L204.6 212.3L204.6 212.3L204.5 212.3L204.5 212.3L204.4 212.4L204.4 212.4L204.3 212.4L204.3 212.4L204.3 212.4L204.2 212.4L204.2 212.5L204.2 212.5L204.1 212.5L204.0 212.6L203.9 212.6L203.9 212.6L203.9 212.7L203.8 212.7L203.8 212.7L203.8 212.7L203.8 212.7L203.7 212.8L203.6 212.8L203.6 212.9L203.6 212.9L203.5 212.9L203.5 213.0L203.5 213.0L203.4 213.0L203.4 213.1L203.4 213.1L203.3 213.2L203.3 213.2L203.2 213.3L203.2 213.3L203.2 213.3L203.2 213.4L203.1 213.4L203.1 213.4L203.1 213.4L203.1 213.5L203.0 213.5L203.0 213.6L201.5 215.3L199.4 216.3L197.2 216.7L196.3 216.6L196.2 216.6L196.1 216.6L196.1 216.6L196.1 216.6L196.0 216.5L196.0 216.5L195.9 216.5L195.9 216.5L195.9 216.5L195.8 216.5L195.8 216.5L195.5 216.5L195.5 216.5L195.5 216.5L195.4 216.5L195.4 216.5L195.3 216.6L195.2 216.6L195.2 216.6L195.1 216.6L195.1 216.6L194.4 216.7L194.1 216.7L194.1 216.7L192.0 216.4L190.1 215.5L188.6 214.0L187.6 212.2 Z M 188.4 206.3L188.8 205.7L190.2 204.4L190.3 204.3L190.3 204.3L190.4 204.3L190.4 204.2L190.5 204.2L190.5 204.1L190.6 204.1L190.7 204.1L190.7 204.0L190.7 204.0L190.7 204.0L190.8 204.0L190.8 203.9L190.8 203.9L190.9 203.8L190.9 203.8L190.9 203.8L191.0 203.7L191.0 203.7L191.1 203.6L191.1 203.6L191.1 203.6L191.1 203.5L191.2 203.5L191.2 203.4L191.2 203.4L191.2 203.4L191.3 203.3L191.3 203.3L191.3 203.2L191.3 203.2L191.4 203.2L191.4 203.1L191.4 203.1L191.4 203.0L191.5 203.0L191.5 202.9L191.5 202.9L191.5 202.8L191.5 202.8L191.6 202.8L191.6 202.7L191.6 202.5L191.6 202.5L191.7 202.4L191.7 202.4L191.7 202.4L191.7 202.3L191.7 202.3L191.7 202.2L191.7 202.1L191.7 202.1L191.7 202.1L191.7 202.0L191.7 202.0L191.8 202.0L191.8 201.9L191.8 201.9L191.8 201.8L191.8 201.8L191.8 201.8L191.8 201.7L191.8 201.7L191.8 201.7L191.8 201.4L191.8 201.4L191.8 201.4L191.8 201.3L191.8 201.3L191.8 201.3L191.8 201.2L191.8 201.2L191.8 201.1L191.7 201.1L191.7 201.1L191.7 201.0L191.7 201.0L191.7 201.0L191.7 200.9L191.7 200.9L191.7 200.8L191.7 200.7L191.7 200.7L191.7 200.7L191.6 200.6L191.6 200.6L191.6 200.6L191.6 200.5L191.6 200.4L191.6 200.3L191.5 200.3L191.5 200.3L191.5 200.2L191.5 200.2L191.5 200.1L191.5 200.1L191.4 200.1L191.4 200.0L191.4 200.0L191.4 200.0L191.4 199.9L191.3 199.9L191.3 199.9L191.3 199.8L191.2 199.7L191.2 199.7L191.2 199.6L191.1 199.6L191.1 199.5L191.1 199.5L191.1 199.5L191.0 199.5L191.0 199.4L191.0 199.4L190.9 199.3L190.9 199.3L190.9 199.3L190.8 199.2L190.8 199.2L190.8 199.2L190.8 199.1L190.7 199.1L190.7 199.1L190.7 199.0L190.6 199.0L190.5 199L190.5 198.9L190.4 198.9L190.4 198.8L190.4 198.8L190.3 198.8L190.3 198.8L190.2 198.7L189.0 197.7L188.1 196.4L187.5 194.8L187.3 193.1L187.3 192.6L187.8 190.4L189.1 188.5L190.9 187.2L193.1 186.5L193.1 186.5L193.4 186.5L193.4 186.5L196.4 186.9L197.3 187.3L197.4 187.3L197.4 187.4L197.5 187.4L197.5 187.4L197.5 187.4L197.6 187.5L197.6 187.5L197.6 187.5L197.7 187.5L197.7 187.5L197.8 187.5L197.8 187.5L197.9 187.6L197.9 187.6L198.1 187.6L198.1 187.6L198.1 187.7L198.2 187.7L198.2 187.7L198.2 187.7L198.3 187.7L198.3 187.7L198.4 187.7L198.4 187.7L198.5 187.7L198.5 187.7L198.5 187.7L198.6 187.7L198.6 187.8L198.6 187.8L198.7 187.8L198.7 187.8L198.8 187.8L198.8 187.8L198.8 187.8L198.9 187.8L198.9 187.8L198.9 187.8L199.1 187.8L199.2 187.8L199.2 187.8L199.2 187.8L199.3 187.8L199.3 187.8L199.3 187.8L199.4 187.8L199.4 187.8L199.5 187.8L199.5 187.7L199.5 187.7L199.6 187.7L199.6 187.7L199.6 187.7L199.7 187.7L199.7 187.7L199.8 187.7L199.9 187.7L199.9 187.7L199.9 187.7L200.0 187.6L200.0 187.6L200.2 187.6L200.2 187.6L200.3 187.5L200.3 187.5L200.3 187.5L200.4 187.5L200.4 187.5L200.4 187.5L200.5 187.5L200.5 187.4L200.5 187.4L200.6 187.4L200.6 187.4L200.6 187.4L200.7 187.3L200.7 187.3L202.7 186.6L202.7 186.6L204.1 186.4L205.3 186.5L206.7 187.0L208.5 188.1L209.3 189.0L207.7 190.4L200.4 191.7L196.0 195.1L204.3 191.8L205.8 192.2L206.0 195.8L209.2 196.8L210.5 198.7L206.1 201.6L202.6 201.1L198.5 205.4L193.4 208.0L189.5 206.3 Z M 150.5 183.1L151.7 183.3L146.5 188.3L144.3 186.9L145.0 185.7L146.5 184.3L148.4 183.3 Z M 153.6 184.0L154.3 184.4L155.8 185.8L156.7 187.6L157.0 189.3L156.3 190.2L152.3 189.1L152.8 187.6L155.5 186.4L153.4 186.7L152.8 185.2 Z M 157.0 189.7L157.0 189.8L156.7 192.0L155.6 193.9L154.0 195.4L152.0 196.3L149.4 196.5L149.4 196.5L148.2 196.2L148.1 196.1L148.3 194.7L151.7 190.8L155.9 190.9 Z M 147.6 195.8L146.9 195.5L148.0 194.8 Z M 144.7 193.4L144.6 193.3L143.7 191.1L143.6 189.7L143.9 188.0L147.0 189.9L146.7 191.7 Z M 119.4 433.1L118.6 433.3L119.0 432.5 Z M 244.9 407.2L242.4 410.4L239.7 411.3L234.6 408.1L232.8 408.3L239.0 404.1L243.5 405.3 Z M 246.9 401.8L247.2 403.9L245.7 403.5 Z M 160.4 388.4L160.0 388.6L160.2 387.2 Z M 291.5 380.3L290.4 381.0L287.3 380.4L286.8 377.9L290.5 378.7 Z M 164.6 308.8L164.8 311.0L162.6 309.3L162.6 307.8 Z M 176.8 308.9L169.7 315.4L166.9 313.3L165.1 309.7L165.2 305.3L168.5 304.1L171.6 305.0L172.8 308.1 Z M 149.8 191.5L148.9 192.7L148.6 191.6 Z M 149.8 191.5 "/>
<path style=" stroke:none;fill-rule:nonzero;fill:rgb(77.6%,78.8%,62.3%);fill-opacity:1;" d="M 37.3 360.1L37.1 360.0L37.1 360.0L36.7 359.5L37.1 359.3L38.0 358.1L41.2 356.9L43.3 355.3L46.9 353.8L35.2 356.7L35.2 356.7L35.1 354.8L35.1 354.8L35.6 352.6L36.8 350.7L38.5 349.3L40.6 348.5L43 348.5L45.2 349.3L46.9 350.9L47.0 350.9L47.2 351.3L47.5 351.5L47.5 351.5L47.5 351.6L47.6 351.6L47.6 351.6L47.6 351.6L47.7 351.7L47.7 351.7L47.8 351.8L47.8 351.8L47.8 351.8L47.9 351.8L47.9 351.8L47.9 351.9L47.9 351.9L48.0 351.9L48.0 351.9L48.2 352.0L48.2 352.0L48.2 352.1L48.3 352.1L48.3 352.1L48.3 352.1L48.4 352.1L48.4 352.1L48.4 352.2L48.5 352.2L48.5 352.2L48.6 352.2L48.6 352.2L48.6 352.3L48.7 352.3L48.7 352.3L48.8 352.3L48.8 352.3L48.9 352.4L49.0 352.4L49.0 352.4L49.2 352.4L49.2 352.4L49.2 352.4L49.3 352.4L49.3 352.4L49.3 352.5L51.2 353.0L51.2 353.1L51.3 353.1L51.3 353.1L51.4 353.1L51.4 353.1L51.4 353.2L51.5 353.2L51.5 353.2L51.5 353.2L51.7 353.3L51.8 353.3L51.8 353.3L51.8 353.3L51.9 353.3L51.9 353.3L51.9 353.3L52.0 353.3L52.0 353.3L52.0 353.3L52.1 353.3L52.2 353.4L52.2 353.4L52.2 353.4L52.3 353.4L52.3 353.4L52.4 353.4L52.5 353.4L52.5 353.4L52.5 353.4L52.6 353.4L52.6 353.4L52.8 353.4L52.9 353.4L52.9 353.4L52.9 353.4L53.0 353.4L53.0 353.4L53.0 353.4L53.1 353.4L53.1 353.4L53.2 353.4L53.2 353.4L53.2 353.4L53.3 353.4L53.3 353.4L53.3 353.3L53.4 353.3L53.4 353.3L53.5 353.3L53.6 353.3L53.6 353.3L53.6 353.3L53.7 353.2L53.8 353.2L53.8 353.2L53.8 353.2L53.9 353.2L53.9 353.2L53.9 353.2L54.0 353.2L54.0 353.1L54.0 353.1L54.1 353.1L54.1 353.1L54.2 353.1L54.2 353.1L54.2 353.0L54.3 353.0L54.3 353.0L54.3 353.0L54.4 352.9L54.4 352.9L54.5 352.9L54.5 352.9L54.5 352.9L54.6 352.8L54.6 352.8L54.7 352.8L54.7 352.8L54.7 352.7L54.8 352.7L54.8 352.7L54.8 352.7L54.9 352.6L55.0 352.5L55.0 352.5L55.0 352.5L55.2 352.3L55.2 352.3L55.2 352.3L55.3 352.2L55.3 352.2L55.3 352.2L55.3 352.1L55.4 352.1L55.4 352.1L55.4 352.0L55.4 352.0L55.5 352.0L55.5 351.9L55.5 351.9L55.6 351.8L55.6 351.8L55.6 351.8L55.6 351.7L55.6 351.7L55.7 351.7L55.7 351.6L55.7 351.6L55.7 351.5L55.7 351.5L55.8 351.5L55.8 351.4L55.8 351.4L55.8 351.4L55.8 351.3L55.8 351.3L55.9 351.2L55.9 351.2L57.0 349.2L58.8 347.7L60.4 347.0L60.4 347.0L60.5 347.0L60.5 346.9L60.6 346.9L60.6 346.9L60.6 346.9L60.7 346.9L60.7 346.9L60.7 346.9L60.8 346.9L60.8 346.8L60.8 346.8L60.9 346.8L60.9 346.8L61.0 346.8L61.0 346.8L61.0 346.7L61.1 346.7L61.1 346.7L61.2 346.7L61.2 346.6L61.3 346.6L61.4 346.5L61.4 346.5L61.4 346.5L61.5 346.5L61.5 346.5L61.5 346.4L61.5 346.4L61.6 346.4L61.6 346.4L61.6 346.3L61.7 346.3L61.7 346.3L61.8 346.2L61.8 346.2L61.9 346.1L61.9 346.1L61.9 346.1L61.9 346.1L62.0 346.0L62.0 346.0L62.0 346L62.1 345.9L62.1 345.9L62.1 345.9L62.1 345.8L62.1 345.8L62.2 345.8L62.2 345.7L62.2 345.7L62.3 345.7L62.3 345.6L62.4 345.5L62.4 345.5L62.4 345.4L62.4 345.4L62.5 345.3L62.5 345.3L62.5 345.3L62.5 345.2L62.5 345.2L62.5 345.2L62.6 345.1L62.6 345.1L62.6 345.0L62.6 345.0L62.6 345.0L62.7 344.9L62.7 344.8L62.7 344.8L62.7 344.7L62.7 344.7L62.7 344.6L62.7 344.6L62.7 344.6L62.8 344.5L62.8 344.5L62.8 344.5L62.8 344.4L62.8 344.4L62.8 344.3L62.8 344.3L62.8 344.2L62.8 344.2L62.8 344.2L62.8 344.1L62.8 344.1L62.8 344.1L62.8 344.0L62.8 344.0L62.8 344.0L62.8 343.9L62.8 343.8L62.8 343.8L62.8 343.7L62.8 343.6L62.8 343.6L62.8 343.5L62.8 343.5L62.8 343.5L62.8 343.4L62.8 343.4L62.8 343.4L62.8 343.3L62.8 343.3L62.8 343.2L62.8 343.2L62.8 343.2L62.8 343.1L62.8 343.1L62.8 343.0L62.8 343.0L62.8 343.0L62.7 342.9L62.7 342.9L62.7 342.8L62.6 342.6L62.6 342.5L62.6 342.5L62.6 342.5L62.6 342.4L62.6 342.4L62.5 342.4L62.5 342.3L62.5 342.3L62.5 342.2L62.5 342.2L62.4 342.2L62.4 342.1L62.4 342.1L62.4 342.1L62.3 341.9L62.2 341.8L62.2 341.8L62.2 341.8L62.2 341.8L62.2 341.7L62.1 341.7L62.1 341.7L62.1 341.6L62.1 341.6L62.0 341.5L61.9 341.5L60.7 339.5L60.2 337.3L60.5 334.9L60.6 334.8L60.6 334.8L60.6 334.7L60.6 334.7L60.6 334.7L60.6 334.6L60.6 334.6L60.6 334.5L60.7 334.5L60.7 334.5L60.7 334.4L60.7 334.4L60.7 334.3L60.7 334.3L60.7 334.2L60.7 334.2L60.7 334.1L60.7 334.1L60.7 334.0L60.7 334.0L60.7 334.0L60.7 333.9L60.7 333.7L60.7 333.7L60.7 333.6L60.7 333.6L60.7 333.5L60.7 333.5L60.7 333.5L60.7 333.4L60.7 333.4L60.7 333.4L60.7 333.3L60.7 333.3L60.7 333.3L60.7 333.2L60.7 333.2L60.7 333.1L60.6 333.0L60.6 333.0L60.6 333.0L60.6 332.9L60.6 332.9L60.6 332.9L60.5 332.6L60.5 332.6L60.5 332.6L60.5 332.5L60.5 332.5L60.4 332.5L60.4 332.4L60.4 332.3L60.4 332.3L60.4 332.3L60.3 332.2L60.3 332.2L60.3 332.2L60.3 332.1L60.2 332.0L60.1 331.9L60.1 331.9L60.1 331.8L60.1 331.8L60.0 331.8L60.0 331.7L60.0 331.7L59.9 331.6L59.9 331.6L59.9 331.6L59.8 331.5L59.8 331.5L59.8 331.5L59.8 331.5L59.7 331.4L59.7 331.4L58.3 329.4L57.9 327.8L65.6 326.0L71.8 326.2L65.2 324.6L64.9 321.5L63.5 322.4L61.2 325.6L59.4 326.7L57.7 327.1L57.7 327.0L57.7 327.0L57.7 326L57.7 325.9L57.9 325.0L58.8 323.0L60.2 321.4L62.0 320.3L64.1 319.9L64.3 319.9L67.2 320.5L67.2 320.5L67.3 320.5L67.3 320.5L67.3 320.5L67.4 320.6L67.4 320.6L67.5 320.6L67.6 320.6L67.6 320.6L67.6 320.7L67.7 320.7L67.7 320.7L67.7 320.7L67.8 320.7L67.8 320.7L67.9 320.7L68.0 320.7L68.0 320.7L68.0 320.7L68.1 320.8L68.1 320.8L68.1 320.8L68.2 320.8L68.2 320.8L68.3 320.8L68.3 320.8L68.3 320.8L68.4 320.8L68.4 320.8L68.5 320.8L68.5 320.8L68.6 320.8L68.7 320.8L68.7 320.8L68.8 320.8L68.8 320.8L68.8 320.8L68.9 320.8L68.9 320.8L69.0 320.8L69.0 320.8L69.1 320.8L69.1 320.7L69.1 320.7L69.2 320.7L69.3 320.7L69.3 320.7L69.4 320.7L69.5 320.7L70.5 320.5L70.7 320.5L73.3 320.8L75.0 321.7L76.4 323.1L77.4 324.8L77.8 326.7L77.8 326.8L77.8 326.8L77.8 328.1L77.8 328.2L77.8 328.2L77.8 328.2L77.8 328.3L77.8 328.3L77.8 328.3L77.8 328.4L77.8 328.4L77.8 328.5L77.8 328.7L77.8 328.8L77.8 328.8L77.8 328.8L77.8 328.9L77.8 328.9L77.8 329.0L77.8 329.0L77.8 329.1L77.8 329.1L77.8 329.2L77.8 329.2L77.8 329.2L77.8 329.3L77.8 329.4L77.9 329.4L77.9 329.5L77.9 329.5L77.9 329.5L77.9 329.6L77.9 329.6L78.0 329.7L78.0 329.8L78.0 329.8L78.0 329.8L78.0 329.9L78.0 329.9L78.1 330.0L78.1 330.0L78.1 330.1L78.1 330.1L78.1 330.2L78.2 330.2L78.2 330.2L78.2 330.3L78.2 330.3L78.3 330.5L78.4 330.5L78.4 330.6L78.4 330.6L78.4 330.6L78.5 330.6L78.5 330.7L78.5 330.7L78.5 330.8L78.6 330.8L78.7 330.9L78.7 330.9L78.7 331L78.7 331.0L78.8 331.0L78.8 331.1L78.9 331.1L78.9 331.1L79.0 331.2L79.0 331.2L79.0 331.2L79.1 331.2L79.1 331.3L79.1 331.3L79.1 331.3L79.2 331.3L79.2 331.4L79.2 331.4L79.3 331.4L79.3 331.4L79.4 331.5L79.5 331.5L79.5 331.5L79.5 331.6L79.5 331.6L79.6 331.6L79.6 331.6L79.6 331.6L79.7 331.6L79.8 331.7L81.1 332.5L82.3 333.6L82.3 333.7L82.3 333.7L82.4 333.7L82.4 333.8L82.4 333.8L82.4 333.8L82.5 333.8L82.5 333.9L82.5 333.9L82.5 333.9L82.6 334.0L82.6 334.0L82.6 334.0L82.7 334.1L82.7 334.1L82.8 334.1L82.8 334.2L82.8 334.2L82.9 334.2L82.9 334.2L82.9 334.3L83.0 334.3L83.0 334.3L83.0 334.3L83.0 334.4L83.3 334.5L83.3 334.5L83.3 334.5L83.4 334.5L83.4 334.6L83.4 334.6L83.5 334.6L83.5 334.6L83.6 334.6L83.6 334.7L83.6 334.7L83.7 334.7L83.7 334.7L83.7 334.7L83.8 334.7L84 334.8L84.0 334.8L84.1 334.8L84.1 334.8L84.2 334.8L84.2 334.8L84.2 334.9L84.3 334.9L84.3 334.9L84.3 334.9L84.4 334.9L84.4 334.9L84.5 334.9L84.5 334.9L84.5 334.9L84.6 334.9L84.6 334.9L84.6 334.9L84.7 334.9L84.7 334.9L84.8 334.9L84.8 334.9L84.9 334.9L85.0 334.9L85.1 334.9L85.1 334.9L85.1 334.9L85.2 334.9L85.2 334.9L85.2 334.9L85.3 334.9L85.3 334.9L85.3 334.9L85.4 334.9L85.5 334.9L85.5 334.9L85.5 334.9L85.6 334.9L85.6 334.8L85.7 334.8L85.8 334.8L85.8 334.8L85.9 334.8L85.9 334.8L86.1 334.7L86.1 334.7L86.2 334.7L86.2 334.7L86.3 334.6L86.3 334.6L86.3 334.6L86.4 334.6L86.4 334.6L86.4 334.6L86.5 334.5L86.5 334.5L86.5 334.5L86.6 334.5L86.6 334.5L86.6 334.5L86.8 334.4L86.8 334.4L86.8 334.3L86.9 334.3L86.9 334.3L86.9 334.3L87 334.3L87.0 334.2L87.1 334.2L87.1 334.1L87.2 334.1L87.2 334.0L87.2 334.0L87.3 334.0L87.4 333.9L87.4 333.9L87.4 333.8L87.4 333.8L87.5 333.8L87.5 333.7L87.5 333.7L87.6 333.7L87.6 333.6L87.6 333.6L87.6 333.5L87.7 333.5L87.7 333.5L87.7 333.4L87.8 333.4L87.8 333.3L87.8 333.3L87.9 333.2L87.9 333.2L87.9 333.1L87.9 333.1L88.0 333.0L88.0 333.0L89.0 331.4L90.5 330.2L92.2 329.4L94.1 329.1L94.3 329.1L94.3 329.1L94.3 329.1L94.4 329.1L94.4 329.1L94.5 329.1L94.5 329.1L94.5 329.1L94.6 329.1L94.6 329.1L94.6 329.1L94.7 329.1L94.7 329.1L94.7 329.1L94.8 329.1L94.8 329.1L94.9 329.1L95.0 329.0L95.0 329.0L95.0 329.0L95.1 329.0L95.1 329.0L95.3 328.9L95.3 328.9L95.4 328.9L95.4 328.9L95.5 328.9L95.5 328.8L95.6 328.8L95.6 328.8L95.6 328.8L95.7 328.8L95.7 328.8L95.7 328.7L95.8 328.7L95.8 328.7L95.8 328.7L95.9 328.7L95.9 328.6L96.0 328.6L96.0 328.6L96.1 328.5L96.1 328.5L96.2 328.5L96.2 328.4L96.3 328.4L96.3 328.4L96.3 328.3L96.3 328.3L96.4 328.3L96.4 328.2L96.4 328.2L96.5 328.2L96.5 328.2L96.5 328.1L96.6 328.1L96.6 328.1L96.6 328.1L96.6 328.0L96.7 328.0L96.7 328.0L96.7 327.9L96.7 327.9L96.8 327.9L96.8 327.8L96.8 327.8L96.8 327.8L96.9 327.8L96.9 327.7L96.9 327.7L97.0 327.6L97.0 327.6L97.0 327.5L97.0 327.5L97.1 327.4L97.1 327.4L97.1 327.3L97.2 327.3L97.2 327.2L97.2 327.2L97.2 327.2L97.2 327.1L97.3 327.0L97.3 327.0L97.3 327.0L97.3 326.9L97.4 326.7L97.4 326.7L97.4 326.7L97.4 326.6L97.4 326.6L97.4 326.5L97.4 326.4L97.5 326.4L97.5 326.4L97.5 326.3L97.5 326.3L97.5 326.3L97.5 326.2L97.5 326.1L97.5 326.1L97.5 326.0L97.8 324.8L97.6 324.6L97.3 324.3L96.0 322.4L95.5 320.2L95.7 318.0L96.6 315.9L98.1 314.3L98.2 314.2L98.2 314.2L98.2 314.2L98.2 314.2L98.3 314.2L98.3 314.1L99.4 313.5L99.4 312.1L99.4 312.1L99.9 310.6L101.0 308.8L102.7 307.4L105.6 306.5L106.9 306.5L106.9 306.5L108.7 307.1L109.7 305.8L109.8 305.7L109.8 305.7L109.9 305.6L109.9 305.6L109.9 305.6L110.0 305.5L110.0 305.5L110.1 305.4L110.1 305.4L110.1 305.3L110.2 305.3L110.2 305.2L110.2 305.2L110.2 305.2L110.3 305.2L110.3 305.1L110.3 305.1L110.4 305.0L110.4 304.9L110.4 304.9L110.4 304.9L110.4 304.8L110.5 304.8L110.5 304.8L110.5 304.7L110.5 304.7L110.5 304.7L110.5 304.6L110.6 304.6L111.7 302.9L113.2 301.6L115.0 300.9L117.0 300.7L117.6 300.7L117.7 300.7L117.7 300.7L117.8 300.7L117.8 300.7L117.8 300.7L117.9 300.7L117.9 300.7L117.9 300.7L118.0 300.7L118.1 300.7L118.2 300.7L118.2 300.7L118.3 300.7L118.3 300.7L118.4 300.7L118.4 300.7L118.5 300.7L118.5 300.7L118.5 300.7L118.6 300.7L118.6 300.7L118.6 300.7L118.7 300.7L118.7 300.7L118.7 300.7L118.9 300.7L118.9 300.7L119.0 300.6L119.0 300.6L119.0 300.6L119.1 300.6L119.1 300.6L119.3 300.5L119.3 300.5L119.3 300.5L119.4 300.5L119.4 300.5L119.5 300.5L119.5 300.5L119.5 300.4L119.5 300.4L119.6 300.4L119.6 300.4L119.6 300.4L119.7 300.3L119.7 300.3L119.8 300.3L119.8 300.3L119.9 300.3L119.9 300.2L119.9 300.2L120.0 300.2L120.1 300.1L120.1 300.1L120.1 300.1L120.1 300.1L120.2 300.0L120.3 299.9L120.3 299.9L120.4 299.9L120.4 299.9L120.4 299.8L120.5 299.8L120.5 299.8L120.5 299.8L120.5 299.7L120.6 299.7L120.6 299.7L120.6 299.6L120.7 299.6L120.7 299.5L120.7 299.5L120.8 299.5L120.8 299.5L120.8 299.4L120.8 299.4L120.9 299.3L120.9 299.3L120.9 299.2L122.0 298.1L121.4 296.5L121.4 296.5L121.2 295.1L121.2 294.8L121.2 294.8L121.2 294.7L121.1 294.6L121.1 294.5L121.1 294.4L121.1 294.4L121.1 294.3L121.1 294.3L121.1 294.2L121.1 294.2L121.1 294.2L121.1 294.1L121.1 294.1L121.1 294.0L121.0 293.9L121.0 293.9L121.0 293.9L121.0 293.8L121.0 293.8L121.0 293.7L121.0 293.7L121.0 293.7L120.9 293.6L120.9 293.6L120.9 293.5L120.9 293.5L120.9 293.5L120.8 293.4L120.8 293.3L120.8 293.3L120.8 293.3L120.8 293.2L120.8 293.2L120.7 293.2L120.7 293.1L120.7 293.1L120.7 293.1L120.6 293.0L120.6 292.9L120.6 292.9L120.5 292.8L120.5 292.7L120.4 292.7L120.4 292.7L120.4 292.7L120.3 292.6L120.3 292.6L120.3 292.5L120.3 292.5L120.2 292.4L119.2 291.2L118.6 289.7L118.6 289.7L118.4 288.8L118.4 287.8L118.4 287.7L118.4 287.6L118.4 287.6L118.4 287.6L118.4 287.5L118.3 287.4L118.3 287.4L118.3 287.3L118.3 287.3L118.3 287.3L118.3 287.2L118.3 287.2L118.3 287.2L118.3 287.0L118.3 287.0L118.3 286.9L118.2 286.9L118.2 286.9L118.2 286.8L118.2 286.7L118.1 286.6L118.1 286.6L118.1 286.5L118.1 286.5L118.1 286.5L118.1 286.4L118.1 286.4L118.0 286.4L118.0 286.3L118.0 286.3L118.0 286.3L118.0 286.2L118.0 286.2L117.9 286.2L117.9 286.1L117.9 286.1L117.9 286.0L117.8 286.0L117.8 286.0L117.8 285.9L117.8 285.9L117.8 285.9L117.7 285.9L117.7 285.8L117.7 285.8L117.7 285.8L117.7 285.7L117.6 285.7L117.6 285.7L117.6 285.6L117.6 285.6L117.5 285.5L117.5 285.5L117.4 285.5L116.8 284.7L116.8 284.7L116.8 284.6L116.7 284.6L116.7 284.6L116.7 284.5L116.7 284.5L116.6 284.5L116.6 284.4L116.6 284.4L116.5 284.3L116.3 284.1L116.1 284.0L116.1 284.0L116.1 283.9L116.0 283.9L116.0 283.9L116.0 283.9L115.9 283.8L115.9 283.8L115.9 283.8L115.8 283.8L115.8 283.8L115.8 283.7L115.7 283.7L114.8 282.9L113.5 283.3L113.5 283.3L112.8 283.4L112.5 283.4L112.5 283.4L112.5 283.4L112.3 283.4L112.3 283.3L110.7 283.1L109.1 282.4L107.8 281.4L106.8 280.1L106.4 279.3L106.0 278.0L105.9 277.6L105.9 277.6L105.8 276.2L106.2 274.3L107.2 272.6L108.6 271.2L109.4 270.7L111.0 270.1L112.8 269.9L112.8 269.9L114.4 270.2L115.9 270.8L115.9 270.8L116.9 271.7L118.1 271.3L118.2 271.3L118.2 271.3L118.3 271.3L118.3 271.3L118.3 271.2L118.4 271.2L118.5 271.2L118.5 271.2L118.6 271.2L118.6 271.2L118.6 271.2L118.8 271.1L118.9 271.1L118.9 271.1L118.9 271.1L119.0 271.0L119.0 271.0L119.1 271.0L119.1 271.0L119.1 271.0L119.2 271.0L119.2 270.9L119.2 270.9L119.3 270.9L119.3 270.9L119.3 270.9L119.4 270.8L119.4 270.8L119.5 270.8L119.5 270.7L119.6 270.7L119.6 270.7L119.6 270.7L119.7 270.6L119.7 270.6L119.8 270.6L119.8 270.6L119.9 270.5L119.9 270.5L120.0 270.4L120.0 270.4L120.0 270.3L120.1 270.3L120.1 270.3L120.1 270.3L120.2 270.2L120.2 270.2L120.2 270.1L120.3 270.1L120.3 270.0L120.3 270.0L120.3 270.0L120.4 269.9L120.4 269.9L120.4 269.9L120.5 269.8L120.5 269.8L120.5 269.8L120.6 269.7L120.6 269.6L120.6 269.6L120.6 269.5L120.6 269.5L120.7 269.5L120.7 269.4L120.7 269.4L121.3 268.6L121.0 267.7L121.0 267.5L121.0 267.5L121.0 267.4L121.0 267.3L121 267.3L120.9 267.2L120.9 267.2L120.9 267.1L120.9 267.1L120.9 267.0L120.9 267.0L120.9 267.0L120.9 266.9L120.8 266.9L120.8 266.9L120.8 266.8L120.8 266.8L120.8 266.7L120.4 264.9L120.5 262.9L121.2 261.1L122.4 259.6L124.0 258.4L125.9 257.8L126.3 257.7L127.1 257.7L127.3 257.7L127.3 257.7L127.3 257.7L127.4 257.7L127.4 257.7L127.4 257.6L127.5 257.6L127.5 257.6L127.5 257.6L127.6 257.6L127.6 257.6L127.6 257.6L127.7 257.6L127.7 257.6L127.8 257.6L127.8 257.6L127.9 257.6L128.0 257.6L128.0 257.5L128.1 257.5L128.9 257.4L129.4 256.7L129.4 256.7L131.3 255.5L133.5 254.9L134.1 254.9L135.1 255.0L137.0 255.6L138.3 256.5L137.7 257.8L139.1 257.2L140.0 258.4L140.6 260.0L140.8 261.6L140.8 261.6L140.3 264.1L139 266.2L137.5 267.4L135.9 268.1L135.9 268.1L135.0 268.2L134.5 268.9L134.4 269.0L134.4 269.0L134.3 269.0L134.1 269.3L134.1 269.3L134.1 269.3L134.1 269.3L134.0 269.4L134.0 269.4L134.0 269.4L134.0 269.5L134.0 269.5L133.9 269.5L133.9 269.6L133.9 269.6L133.9 269.7L133.8 269.7L133.8 269.8L133.8 269.8L133.7 269.9L133.2 270.7L133.4 271.6L133.4 271.7L133.4 271.7L133.5 271.8L133.5 271.8L133.5 271.8L133.5 271.9L133.5 271.9L133.5 271.9L133.5 272.0L133.5 272.1L133.5 272.2L133.5 272.2L133.5 272.2L133.6 272.3L133.6 272.3L133.6 272.5L133.6 272.5L133.7 272.5L133.7 272.6L133.7 272.6L133.7 272.7L133.7 272.7L133.8 272.8L133.8 272.8L133.8 272.8L133.8 272.9L133.8 272.9L133.8 272.9L133.9 273.0L133.9 273.0L133.9 273.0L134.0 273.2L134.0 273.2L134.0 273.2L134.0 273.3L134.1 273.3L134.1 273.3L134.1 273.3L134.1 273.4L134.1 273.4L134.2 273.5L134.2 273.5L134.2 273.5L134.3 273.5L134.3 273.6L135.6 275.7L135.9 277.6L134.4 279.1L132.8 279.4L127.7 275.2L131.5 280.3L131.3 280.9L130.4 281.3L126.6 280.2L126.1 282.8L126.5 284.1L128.5 287.0L128.5 289.0L127.4 290.9L131.3 297.5L130.4 300.3L129.7 300.9L131.3 304.0L129.2 304.4L128.6 305.2L130.4 308.3L131.5 314.1L131.7 320.1L126.8 330.8L126.1 335.5L122.6 341.4L120.1 341.9L122.7 345.9L122.6 347.7L121.6 348.4L117.3 348.1L115.3 346.9L113.3 346.6L112.8 345.6L110.9 348.3L109.8 349.0L109.6 346.7L108.4 344.7L108.3 347.7L107.5 348.7L106.1 349.0L105.3 348.3L99.1 348.7L93.4 349.9L94.2 351.9L93.2 353.5L89.6 354.9L87.4 354.0L85.8 357.1L81.7 359.5L78.5 359.5L78.1 358.9L78.6 357.6L76.9 357.1L76.6 355.6L74.7 355.6L76.6 359.0L75.9 361.5L72.8 363.0L69.9 362.4L70.9 363.3L70.4 364.7L66.5 364.3L66.7 365.7L66.1 366.4L63.1 366.0L61.1 367.2L56.9 366.5L53.9 368.6L51.3 369.0L50.2 368.4L49.3 366.4L43.8 367.4L41.9 368.6L40.7 368.6L40.5 367.9L41.0 367.1L46.4 363.8L41.1 365.2L40.7 364.9L48.7 361.1L49.2 360.4L49.1 359.7L47.8 359.2L45.4 360.5L39.9 361.3L38.1 362.0L38.1 362.0L38.1 362.0L38.0 361.9L38.0 361.9L38.0 361.9L38.0 361.8L38.0 361.8L38.0 361.7L38.0 361.7L38.0 361.6L38.0 361.6L38.0 361.5L38.0 361.5L38 361.5L37.9 361.4L37.9 361.4L37.9 361.3L37.9 361.2L37.9 361.2L37.8 361.1L37.8 361.1L37.8 361.1L37.8 361.0L37.8 361.0L37.8 361.0L37.8 360.9L37.7 360.9L37.7 360.9L37.7 360.8L37.7 360.8L37.7 360.7L37.6 360.7L37.6 360.7L37.5 360.5L37.5 360.4L37.4 360.4L37.4 360.4L37.4 360.3 Z M 108.8 321.9L109.7 322.9L109.8 322.9L109.8 322.9L109.8 323.0L109.8 323.0L109.8 323.0L109.9 323.1L109.9 323.1L109.9 323.1L110.0 323.2L110.0 323.3L110.1 323.3L110.1 323.3L110.1 323.4L110.2 323.4L110.2 323.4L110.2 323.4L110.2 323.5L110.3 323.5L110.3 323.5L110.4 323.6L110.4 323.6L110.4 323.6L110.5 323.7L110.5 323.7L110.5 323.7L110.6 323.7L110.6 323.7L110.6 323.8L110.7 323.8L110.8 323.9L110.8 323.9L110.8 323.9L110.9 323.9L110.9 323.9L110.9 324.0L111.0 324.0L111.0 324.0L111.1 324.0L111.1 324.1L111.2 324.1L111.2 324.1L111.2 324.1L111.3 324.1L111.3 324.1L111.4 324.2L111.5 324.2L111.6 324.2L111.6 324.2L111.6 324.2L111.7 324.2L111.7 324.2L111.7 324.3L111.8 324.3L111.8 324.3L111.8 324.3L111.9 324.3L111.9 324.3L112.0 324.3L112.0 324.3L112.0 324.3L112.1 324.3L112.1 324.3L112.2 324.3L112.2 324.3L112.3 324.3L112.3 324.3L112.3 324.3L112.4 324.3L112.4 324.3L112.6 324.3L112.7 324.3L112.7 324.3L112.7 324.3L112.8 324.3L112.8 324.3L112.9 324.3L113.0 324.3L113.0 324.3L113.0 324.3L113.1 324.3L113.1 324.3L113.2 324.3L113.2 324.3L113.3 324.3L113.5 324.2L113.5 324.2L113.6 324.2L113.7 324.2L113.7 324.2L113.7 324.2L113.8 324.2L113.8 324.1L113.8 324.1L113.9 324.1L114.1 324.1L114.1 324.0L114.2 324.0L114.2 324.0L114.2 324.0L114.3 324.0L114.3 324L114.4 323.9L114.4 323.9L114.4 323.9L114.5 323.9L114.5 323.9L114.5 323.8L114.6 323.8L114.6 323.8L114.8 323.7L114.8 323.7L114.8 323.7L114.9 323.6L114.9 323.6L114.9 323.6L115.0 323.6L115.0 323.5L115.0 323.5L115.0 323.5L115.1 323.4L115.1 323.4L115.2 323.4L115.2 323.4L115.2 323.3L115.2 323.3L115.3 323.3L115.3 323.2L115.3 323.2L115.4 323.2L115.4 323.1L115.4 323.1L115.5 323.0L115.5 323.0L115.6 323.0L115.6 322.9L115.6 322.9L115.6 322.9L115.6 322.8L115.7 322.8L115.7 322.7L115.8 322.6L115.8 322.6L115.8 322.5L115.9 322.5L115.9 322.5L115.9 322.4L115.9 322.4L115.9 322.4L115.9 322.3L116.0 322.3L116.0 322.2L116.0 322.2L116.0 322.2L116.0 322.1L116.0 322.1L116.1 321.8L116.1 321.8L116.1 321.8L116.2 321.7L116.2 321.7L116.2 321.6L116.2 321.6L116.2 321.5L116.2 321.5L116.2 321.5L116.2 321.4L116.2 321.4L116.2 321.4L116.2 321.3L116.2 321.3L116.2 321.3L116.2 321.2L116.3 321.2L116.3 321.1L116.3 321.1L116.3 321.1L116.3 321.0L116.3 320.8L116.3 320.7L116.3 320.7L116.3 320.7L116.2 320.6L116.2 320.6L116.2 320.6L116.2 320.5L116.2 320.5L116.2 320.4L116.2 320.4L116.2 320.4L116.2 320.3L116.2 320.3L116.2 320.3L116.2 320.2L116.2 320.1L116.2 320.1L116.1 320.0L116.1 320.0L116.1 320.0L116.1 319.9L116.1 319.8L116.1 319.8L116.1 319.7L116.0 319.7L116.0 319.7L116.0 319.6L116.0 319.6L116.0 319.5L116.0 319.5L116.0 319.5L116.0 319.4L115.9 319.4L115.9 319.3L115.9 319.3L115.9 319.2L115.8 319.2L115.8 319.1L115.8 319.1L115.8 319.1L115.8 319.0L115.7 319.0L115.7 319.0L115.6 318.9L115.6 318.8L115.6 318.8L115.6 318.8L115.6 318.7L115.5 318.7L115.5 318.7L115.5 318.6L115.5 318.6L115.5 318.6L115.4 318.5L115.4 318.5L115.3 318.4L115.3 318.4L115.3 318.4L115.2 318.3L115.2 318.3L115.2 318.3L115.1 318.3L115.1 318.2L115.1 318.2L115.0 318.2L115.0 318.1L115.0 318.1L114.9 318.1L114.9 318.0L114.9 318.0L114.8 318.0L114.8 318.0L114.7 317.9L114.5 317.8L114.5 317.8L114.4 317.7L114.4 317.7L114.3 317.7L114.3 317.7L114.3 317.7L114.2 317.6L114.2 317.6L114.1 317.6L114.1 317.6L114.1 317.6L114.0 317.5L114.0 317.5L113.9 317.5L113.8 317.5L113.8 317.5L113.7 317.5L113.7 317.5L113.7 317.4L113.5 317.4L113.5 317.4L113.5 317.4L113.4 317.4L113.4 317.4L113.3 317.4L113.3 317.4L111.7 316.9L110.6 318.2L110.6 318.2L110.4 318.4L110.4 318.4L109.2 319.1L109.2 320.4L109.2 320.5L109.2 320.5L109.2 320.6L109.2 320.7 Z M 108.8 321.9 "/>
<path style=" stroke:none;fill-rule:nonzero;fill:rgb(77.6%,78.8%,62.3%);fill-opacity:1;" d="M 40.8 362.3L39.3 362.6L38.8 362.1L39.3 361.7L41.0 361.9 Z M 40.8 362.3 "/>
<path style=" stroke:none;fill-rule:nonzero;fill:rgb(77.6%,78.8%,62.3%);fill-opacity:1;" d="M 48.3 369.8L47.7 370.4L47.0 370.3 Z M 48.3 369.8 "/>
















</g>
</svg>
