<?xml version="1.0" encoding="UTF-8"?>
<svg xmlns="http://www.w3.org/2000/svg" xmlns:xlink="http://www.w3.org/1999/xlink" width="378pt" height="504pt" viewBox="0 0 378 504" version="1.1">
<g id="data">
<rect x="0" y="0" width="378" height="504" style="fill:rgb(100%,100%,100%);fill-opacity:1;stroke:none;"/>
<path style=" stroke:none;fill-rule:nonzero;fill:rgb(100%,100%,100%);fill-opacity:1;" d="M 21 504L357 504L357 0L21 0 Z M 21 504 "/>
<path style=" stroke:none;fill-rule:nonzero;fill:rgb(77.6%,78.8%,62.3%);fill-opacity:1;" d="M 159.3 354.3L160 355.4L160.0 355.5L160.0 355.5L160.0 355.5L160.0 355.6L160.1 355.6L160.1 355.7L160.1 355.7L160.1 355.7L160.1 355.8L160.1 355.8L160.1 355.8L160.2 355.9L160.2 355.9L160.2 355.9L160.2 356.0L160.3 356.1L160.3 356.1L160.3 356.2L160.4 356.2L160.4 356.2L160.4 356.2L160.4 356.3L160.5 356.3L160.5 356.3L160.5 356.4L160.5 356.4L160.6 356.5L160.6 356.5L160.7 356.6L160.7 356.6L160.7 356.6L160.8 356.7L160.8 356.7L160.8 356.7L160.9 356.7L160.9 356.8L160.9 356.8L161.0 356.8L161.0 356.9L161.0 356.9L161.1 356.9L161.1 357.0L161.1 357.0L161.2 357.0L161.2 357.0L161.3 357.1L161.3 357.1L161.4 357.1L161.4 357.2L161.5 357.2L161.5 357.2L161.5 357.2L161.6 357.2L161.6 357.3L161.6 357.3L161.7 357.3L161.7 357.3L161.8 357.3L161.9 357.4L161.9 357.4L161.9 357.4L162.2 357.5L162.2 357.5L162.3 357.5L162.3 357.5L162.4 357.5L162.4 357.5L162.5 357.6L162.5 357.6L162.6 357.6L162.6 357.6L162.6 357.6L162.7 357.6L162.7 357.6L162.8 357.6L162.8 357.6L162.9 357.6L162.9 357.6L162.9 357.6L163.0 357.6L163.0 357.6L163.0 357.6L163.2 357.6L163.2 357.6L163.3 357.6L163.3 357.6L163.3 357.6L163.4 357.6L163.5 357.6L163.5 357.6L163.5 357.6L163.6 357.6L163.6 357.6L163.6 357.6L163.7 357.6L163.7 357.6L163.7 357.6L163.8 357.6L163.8 357.5L163.9 357.5L163.9 357.5L164.0 357.5L164.0 357.5L164.0 357.5L164.1 357.5L164.1 357.5L164.2 357.4L164.2 357.4L164.3 357.4L164.3 357.4L164.4 357.4L164.4 357.4L164.5 357.3L164.5 357.3L164.6 357.3L164.6 357.3L164.6 357.3L164.7 357.2L164.7 357.2L164.7 357.2L164.8 357.2L164.8 357.1L164.9 357.1L165.0 357.1L165.0 357.0L165.0 357.0L165.1 357.0L165.1 357.0L165.2 356.9L165.2 356.9L165.2 356.9L165.3 356.8L165.3 356.8L165.4 356.8L165.4 356.7L165.4 356.7L165.4 356.7L165.5 356.7L165.5 356.6L165.5 356.6L165.5 356.6L165.6 356.5L167.1 355.4L168.8 354.6L170.7 354.4L170.7 354.4L171.3 354.5L171.6 354.5L171.6 354.5L171.7 354.5L171.7 354.5L171.7 354.5L171.8 354.6L171.8 354.6L171.9 354.6L171.9 354.6L172 354.6L172.0 354.6L172.0 354.6L172.3 354.6L172.3 354.6L172.3 354.6L172.4 354.6L172.4 354.6L172.5 354.6L172.5 354.5L172.6 354.5L172.6 354.5L172.7 354.5L172.7 354.5L173.5 354.4L174.9 354.5L175.0 354.5L175.0 354.5L175.1 354.5L175.2 354.6L175.2 354.6L175.3 354.6L175.3 354.6L175.3 354.6L175.5 354.6L175.5 354.6L175.5 354.6L175.6 354.6L175.6 354.6L175.7 354.6L175.7 354.6L175.7 354.6L175.8 354.6L175.9 354.6L175.9 354.5L176.0 354.5L176.0 354.5L176.0 354.5L176.1 354.5L176.5 354.5L176.5 354.5L177.2 354.4L177.2 354.4L178.2 354.5L180.7 355.4L182.6 357.2L182.6 357.2L183.6 359.1L183.9 361.1L183.9 361.2L183.7 362.7L183.7 362.7L183.7 362.8L183.7 362.8L183.7 362.9L183.7 362.9L183.7 363.0L183.7 363.0L183.7 363.0L183.7 363.1L183.7 363.1L183.7 363.2L183.6 363.2L183.6 363.3L183.6 363.3L183.6 363.3L183.6 363.4L183.6 363.4L183.6 363.5L183.6 363.5L183.6 363.6L183.6 363.7L183.6 363.7L183.6 363.7L183.7 363.8L183.7 363.8L183.7 363.9L183.7 363.9L183.7 364L183.7 364.0L183.7 364.0L183.7 364.1L183.7 364.1L183.7 364.2L183.7 364.3L183.7 364.3L183.8 364.3L183.8 364.4L183.8 364.4L183.8 364.5L183.8 364.6L183.9 364.7L183.9 364.7L183.9 364.8L183.9 364.8L183.9 364.8L183.9 364.9L184.0 364.9L184.0 364.9L184.0 365.0L184.0 365.0L184.0 365.0L184.0 365.1L184.1 365.1L184.1 365.1L184.1 365.2L184.2 365.4L184.2 365.4L184.3 365.4L184.3 365.4L184.3 365.5L184.3 365.5L184.4 365.6L184.4 365.6L184.4 365.6L184.4 365.6L184.5 365.7L184.5 365.7L184.5 365.8L184.6 365.8L184.6 365.8L184.6 365.8L184.6 365.9L184.7 365.9L184.7 365.9L184.7 365.9L184.8 366.0L184.8 366.0L184.8 366.0L184.9 366.1L185.0 366.2L185.1 366.3L185.1 366.3L185.2 366.4L185.3 366.4L185.3 366.4L185.3 366.5L185.4 366.5L185.4 366.5L185.4 366.5L185.4 366.5L185.5 366.6L185.5 366.6L185.5 366.6L185.6 366.6L185.6 366.6L185.7 366.7L185.7 366.7L185.8 366.7L185.8 366.7L185.8 366.8L185.9 366.8L186.0 366.8L186.0 366.8L186.0 366.8L186.1 366.9L186.1 366.9L186.3 366.9L186.3 366.9L186.4 367.0L186.4 367.0L186.5 367.0L186.5 367.0L186.5 367.0L186.6 367.0L186.6 367.0L186.7 367.0L186.7 367.0L186.8 367.0L186.8 367.0L186.8 367.0L186.9 367.0L186.9 367.1L186.9 367.1L187.0 367.1L187.0 367.1L187.0 367.1L187.1 367.1L187.1 367.1L187.2 367.1L187.2 367.1L187.3 367.1L187.3 367.1L187.4 367.1L187.5 367.1L187.5 367.1L187.5 367.1L187.6 367.1L187.6 367.1L187.7 367.0L187.7 367.0L187.8 367.0L187.8 367.0L187.8 367.0L187.9 367.0L187.9 367.0L188.0 367.0L188.0 367.0L188.0 367.0L188.1 367.0L188.1 367.0L188.2 366.9L188.2 366.9L188.3 366.9L188.4 366.9L188.4 366.9L188.5 366.8L188.5 366.8L188.6 366.8L188.6 366.8L188.7 366.8L188.7 366.8L188.7 366.7L188.8 366.7L188.8 366.7L188.9 366.7L188.9 366.6L189.0 366.6L189.0 366.6L189.0 366.6L189.1 366.6L189.1 366.5L189.1 366.5L189.2 366.5L189.2 366.5L189.3 366.4L189.3 366.4L189.3 366.4L189.3 366.4L189.4 366.3L189.4 366.3L189.4 366.3L189.5 366.2L189.5 366.2L192.3 364.7L193.8 364.5L194.6 364.5L195.5 364.7L197.4 365.4L199.0 366.7L199.0 366.8L199.1 366.8L199.1 366.9L199.2 366.9L199.2 367.0L199.3 367.0L199.3 367.0L199.4 367.1L199.4 367.2L199.5 367.2L199.5 367.2L199.5 367.2L199.6 367.3L199.6 367.3L199.6 367.3L199.7 367.4L199.7 367.4L199.8 367.4L199.9 367.5L199.9 367.5L199.9 367.5L200.0 367.5L200.0 367.5L200.0 367.5L200.1 367.6L200.1 367.6L200.1 367.6L200.2 367.6L200.2 367.6L200.2 367.6L200.3 367.7L200.3 367.7L200.3 367.7L200.4 367.7L200.5 367.7L200.5 367.7L200.5 367.8L200.6 367.8L200.6 367.8L200.7 367.8L200.9 367.8L200.9 367.8L200.9 367.8L201.0 367.9L201.0 367.9L201.0 367.9L201.1 367.9L201.1 367.9L201.2 367.9L201.2 367.9L201.3 367.9L201.8 368.0L201.9 368.0L201.9 368.0L201.9 368.0L202.0 368.0L202.0 368.0L202.0 368.0L202.1 368.0L202.1 368.0L202.2 368.0L202.2 368.0L202.3 368.0L202.5 368.0L202.6 368.0L202.6 368.0L202.7 368.0L202.7 368.0L202.7 368.0L202.8 368.0L202.8 368.0L202.9 368.0L202.9 368.0L203.0 368.0L203.5 367.9L204.0 367.9L204.2 367.9L204.2 367.9L204.3 367.9L204.3 367.9L204.3 367.9L204.5 367.8L204.5 367.8L204.5 367.8L204.6 367.8L204.6 367.8L204.6 367.8L204.7 367.8L204.9 367.8L204.9 367.8L205.0 367.7L205.0 367.7L205.0 367.7L205.1 367.7L205.2 367.7L205.2 367.7L205.3 367.6L205.3 367.6L205.3 367.6L205.4 367.6L205.4 367.6L205.4 367.6L205.5 367.6L205.5 367.5L205.5 367.5L205.6 367.5L205.6 367.5L205.6 367.5L205.7 367.5L205.7 367.4L206.6 367.1L206.9 366.3L206.9 366.3L206.9 366.3L207.0 366.2L207.0 366.2L207.0 366.2L207.0 366.1L207.0 366.1L207.1 366.1L207.1 366.0L207.1 366.0L207.1 365.9L207.2 365.8L207.2 365.8L207.2 365.8L207.2 365.7L207.2 365.7L207.3 365.5L207.3 365.5L207.3 365.4L207.3 365.4L207.3 365.3L207.4 365.2L207.4 365.1L207.4 365.1L207.4 365.1L207.4 365.0L207.4 365.0L207.4 364.9L207.4 364.9L207.4 364.8L207.4 364.8L207.4 364.8L207.4 364.7L207.4 364.7L207.4 364.7L207.4 364.5L207.5 363.7L208.2 361.4L209.5 359.7L211.2 358.5L213.3 357.8L213.6 357.8L213.7 357.8L213.7 357.8L213.8 357.8L213.9 357.8L213.9 357.8L213.9 357.8L214.0 357.8L214.0 357.8L214.1 357.7L214.1 357.7L214.1 357.7L214.2 357.7L214.2 357.7L214.2 357.7L214.3 357.7L214.3 357.7L214.4 357.7L214.4 357.7L214.5 357.6L214.6 357.6L216.5 357.2L218.5 357.4L220.3 358.1L221.9 359.4L221.9 359.4L222 359.4L222.0 359.5L222.1 359.6L222.1 359.6L223.2 360.9L223.2 361.0L223.3 361.0L223.3 361.0L223.3 361.1L223.3 361.1L223.4 361.2L223.4 361.2L223.4 361.2L223.5 361.3L223.5 361.3L223.5 361.3L223.5 361.4L223.6 361.4L223.6 361.5L223.7 361.5L223.7 361.5L223.7 361.5L223.7 361.6L223.8 361.6L223.8 361.6L223.9 361.7L223.9 361.7L223.9 361.7L223.9 361.7L224.0 361.8L224.0 361.8L224.1 361.8L224.1 361.8L224.1 361.9L224.2 361.9L224.2 361.9L224.3 362.0L224.3 362.0L224.3 362.0L224.4 362.0L224.4 362.0L224.4 362.1L224.5 362.1L224.5 362.1L224.5 362.1L224.6 362.1L224.6 362.2L224.7 362.2L224.8 362.2L224.8 362.2L224.8 362.2L224.9 362.2L224.9 362.3L224.9 362.3L225.0 362.3L225.0 362.3L225.1 362.3L225.1 362.3L225.1 362.3L225.2 362.3L225.2 362.3L225.3 362.4L225.4 362.4L225.4 362.4L225.4 362.4L225.5 362.4L225.5 362.4L225.5 362.4L225.6 362.4L225.6 362.4L225.7 362.4L225.7 362.4L225.8 362.4L225.8 362.4L225.8 362.4L225.9 362.4L225.9 362.4L226.1 362.4L226.2 362.4L226.2 362.4L226.2 362.4L226.3 362.4L226.3 362.4L226.4 362.4L226.4 362.4L226.4 362.4L226.5 362.4L226.5 362.4L226.5 362.4L226.6 362.4L226.6 362.4L226.7 362.4L226.7 362.4L226.8 362.4L226.8 362.3L226.9 362.3L226.9 362.3L226.9 362.3L227.0 362.3L227.2 362.2L227.2 362.2L227.3 362.2L227.3 362.2L227.3 362.2L227.4 362.2L227.4 362.1L227.5 362.1L227.5 362.1L227.5 362.1L227.6 362.1L227.6 362.0L227.6 362.0L227.7 362.0L227.9 361.9L230.4 361.2L230.5 361.2L230.5 361.2L230.5 361.2L230.6 361.2L230.6 361.1L230.7 361.1L230.7 361.1L230.7 361.1L230.8 361.1L230.8 361.1L230.8 361.1L230.9 361.1L230.9 361.1L231.0 361.1L231.0 361.1L231.1 361.1L231.1 361.1L231.2 361.0L231.2 361.0L231.3 361.0L231.3 361.0L231.4 361.0L231.4 360.9L231.4 360.9L231.5 360.9L231.5 360.9L231.6 360.9L231.6 360.8L231.7 360.8L231.7 360.8L231.8 360.8L231.8 360.8L231.8 360.7L232.0 360.7L232.0 360.6L232.0 360.6L232.1 360.6L232.1 360.6L232.1 360.6L232.2 360.5L232.2 360.5L232.2 360.5L232.2 360.5L232.3 360.4L232.4 360.4L232.4 360.3L232.4 360.3L232.5 360.3L232.5 360.3L232.6 360.2L232.6 360.1L232.6 360.1L232.7 360.1L232.7 360.1L232.7 360.0L232.7 360.0L232.8 360.0L232.8 359.9L232.8 359.9L232.8 359.9L232.9 359.8L232.9 359.8L232.9 359.8L232.9 359.7L233.0 359.7L233.0 359.6L233.0 359.6L233.0 359.6L233.1 359.5L233.1 359.5L233.1 359.5L233.1 359.5L233.1 359.4L233.1 359.4L233.2 359.4L233.2 359.3L233.2 359.3L233.2 359.3L233.2 359.2L233.3 359.2L233.3 359.1L233.3 359.1L233.3 359.0L233.3 359.0L233.3 359.0L233.4 358.8L233.4 358.7L233.4 358.7L233.4 358.7L233.4 358.6L233.5 358.6L233.5 358.5L233.5 358.4L233.5 358.4L233.5 358.4L233.5 358.3L233.5 358.3L233.5 358.2L233.5 358.2L233.5 358.1L233.5 358.1L233.5 358.1L233.5 358.0L233.5 358.0L233.5 357.9L233.5 357.9L233.5 357.8L233.5 357.7L233.5 357.7L233.5 357.6L233.5 357.6L233.5 357.5L233.5 357.4L233.5 357.4L233.5 357.3L233.5 357.3L233.5 357.3L233.5 357.2L233.5 357.2L233.5 357.1L233.5 357.1L233.4 357.0L233.4 356.9L233.4 356.9L233.4 356.9L233.3 356.6L233.3 356.6L233.3 356.6L233.3 356.5L233.3 356.5L233.2 356.4L233.2 356.4L233.2 356.3L233.2 356.3L233.2 356.3L233.1 356.2L233.1 356.2L233.1 356.2L233.1 356.1L233.1 356.1L233.0 356L233 355.9L232.9 355.9L232.9 355.9L232.9 355.8L232.8 355.8L232.8 355.7L232.8 355.7L232.8 355.7L232.7 355.7L232.7 355.5L231.4 353.5L231.4 353.4L231.3 353.4L231.3 353.3L231.3 353.3L231.3 353.2L231.3 353.2L231.3 353.2L231.2 353.1L231.2 353.1L231.2 353.1L231.2 353.0L231.2 353.0L231.2 353.0L231.0 352.7L231.0 352.7L231.0 352.6L230.9 352.6L230.9 352.6L230.9 352.5L230.8 352.5L230.8 352.5L230.8 352.4L230.8 352.4L230.7 352.4L230.7 352.4L230.7 352.3L230.6 352.2L230.5 352.2L230.5 352.1L230.5 352.1L230.5 352.1L230.4 352.1L230.4 352.0L230.3 352.0L230.3 352.0L230.3 352L230.3 351.9L230.2 351.9L230.2 351.9L230.1 351.8L230.1 351.8L230.1 351.8L230.0 351.7L230 351.7L229.9 351.7L229.9 351.7L229.9 351.7L229.8 351.6L229.8 351.6L229.7 351.6L229.7 351.6L229.7 351.6L229.6 351.5L229.5 351.5L229.5 351.5L229.5 351.5L229.3 351.4L229.3 351.4L229.2 351.4L229.2 351.4L229.1 351.4L229.1 351.4L229.1 351.3L229.0 351.3L228.9 351.3L228.8 351.3L228.8 351.3L228.7 351.3L228.7 351.3L228.7 351.3L228.6 351.3L228.6 351.3L228.5 351.3L228.5 351.3L228.4 351.3L228.4 351.2L228.3 351.2L228.3 351.2L228.2 351.2L226.7 351.0L226.6 351.3L226.3 351.7L225.0 353.0L223.4 354L223.3 354.0L221.3 354.4L219.3 354.2L217.4 353.5L215.9 352.2L215.8 352.1L215.8 352.1L215.8 352.1L215.7 352.0L214.9 351.0L213.6 351.0L213.6 351.0L213.4 351.0L211.1 350.4L209.3 349.0L208.0 347.0L207.5 345.4L207.5 343.8L207.5 343.8L208.1 341.5L209.4 339.6L210.8 338.5L212.5 337.8L213.5 337.7L214.1 337.6L214.2 337.6L215.9 337.9L217.5 338.5L218.9 339.6L219 339.6L219.7 340.7L221.0 340.6L221.1 340.6L221.1 340.6L221.1 340.6L221.2 340.6L221.2 340.6L221.3 340.6L222.8 340.9L223.6 339.7L223.7 339.6L223.8 339.6L223.8 339.6L223.8 339.5L223.9 339.5L223.9 339.4L223.9 339.4L224.0 339.4L224.0 339.3L224.0 339.3L224.0 339.3L224.0 339.2L224.1 339.2L224.1 339.2L224.1 339.1L224.2 338.9L224.3 338.9L224.3 338.9L224.3 338.8L224.3 338.8L224.3 338.8L224.3 338.7L224.4 338.7L224.4 338.7L224.4 338.6L224.4 338.6L224.4 338.5L224.5 338.5L224.5 338.4L224.5 338.4L224.5 338.2L224.5 338.2L224.6 338.2L224.6 338.1L224.6 338.1L224.6 338.0L224.6 337.9L224.6 337.9L224.6 337.8L224.6 337.8L224.6 337.8L224.6 337.7L224.7 337.7L224.7 337.7L224.7 337.6L224.7 337.6L224.7 337.5L224.7 337.5L224.7 337.4L224.7 337.4L224.7 337.3L224.7 337.2L224.7 337.1L224.7 337.1L224.7 337.1L224.7 337.0L224.7 337.0L224.7 337.0L224.7 336.9L224.7 336.9L224.7 336.8L224.7 336.8L224.6 336.8L224.6 336.7L224.6 336.7L224.6 336.6L224.6 336.6L224.6 336.5L224.6 336.5L224.6 336.4L224.6 336.4L224.6 336.4L224.6 336.3L224.5 336.3L224.5 336.2L224.3 335.3L224.2 334.3L224.2 333.9L224.7 331.8L225.8 329.9L225.8 329.9L227.4 328.5L227.5 328.5L227.6 328.5L227.6 328.4L227.6 328.4L227.7 328.4L227.7 328.4L227.7 328.3L227.8 328.3L227.8 328.3L227.8 328.3L227.9 328.2L227.9 328.2L228.0 328.1L228.0 328.1L228.1 328.0L228.1 328.0L228.1 328.0L228.2 328.0L228.2 327.9L228.3 327.8L228.3 327.8L228.3 327.7L228.4 327.7L228.4 327.7L228.4 327.7L228.4 327.6L228.5 327.6L228.5 327.6L228.5 327.5L228.5 327.5L228.6 327.4L230.0 325.8L231.8 324.7L232.3 324.5L232.4 324.5L232.5 324.4L232.5 324.4L232.6 324.4L232.6 324.4L232.6 324.4L232.7 324.4L232.7 324.4L232.7 324.3L232.8 324.3L232.8 324.3L232.8 324.3L232.9 324.3L232.9 324.3L232.9 324.2L233.0 324.2L233.0 324.2L233.0 324.2L233.1 324.2L233.3 324.1L233.3 324.0L233.3 324.0L233.3 324.0L233.4 324.0L233.4 323.9L233.4 323.9L233.5 323.9L233.5 323.9L233.5 323.9L233.6 323.8L233.6 323.8L233.7 323.7L233.7 323.7L233.7 323.7L233.7 323.7L233.8 323.6L233.8 323.6L233.9 323.5L233.9 323.5L234.0 323.4L234.0 323.4L234.0 323.3L234.0 323.3L234.1 323.3L234.1 323.3L234.1 323.2L234.1 323.2L234.2 323.1L234.2 323.1L234.3 323.0L234.3 323L234.3 322.9L234.3 322.9L234.3 322.9L234.4 322.8L234.4 322.8L234.4 322.8L234.4 322.7L234.4 322.7L234.4 322.7L234.5 322.6L234.5 322.5L234.5 322.5L234.5 322.5L234.5 322.4L234.6 322.2L235.7 320.1L237.5 318.5L237.6 318.4L237.6 318.4L237.7 318.4L237.7 318.3L237.8 318.3L237.8 318.2L237.9 318.2L238.1 318.1L238.1 318.0L238.1 318.0L238.2 317.9L238.4 317.7L238.4 317.7L238.4 317.6L238.5 317.6L238.5 317.5L238.6 317.5L238.6 317.5L238.6 317.4L238.6 317.4L238.7 317.3L239.4 316.4L239.4 316.3L239.4 316.3L239.5 316.3L239.5 316.2L239.5 316.2L239.5 316.1L239.6 316.1L239.6 316.1L239.6 316.0L239.7 316.0L239.7 316.0L239.7 315.9L239.8 315.8L239.8 315.8L239.8 315.7L239.8 315.7L239.9 315.6L239.9 315.6L239.9 315.6L239.9 315.5L239.9 315.5L240.0 315.4L240.0 315.4L240.0 315.4L240.0 315.3L240.0 315.3L240.0 315.2L240.1 315.1L240.1 315.1L240.1 315.0L240.1 315.0L240.1 314.9L240.1 314.9L240.2 314.8L240.2 314.8L240.2 314.7L240.2 314.7L240.2 314.7L240.2 314.6L240.2 314.6L240.2 314.6L240.2 314.5L240.2 314.5L240.2 314.4L240.2 314.4L240.2 314.3L240.2 314.3L240.2 314.3L240.2 314.2L240.2 314.1L240.2 314.1L240.2 314.0L240.2 314.0L240.2 313.9L240.2 313.9L240.2 313.8L240.2 313.8L240.2 313.7L240.2 313.7L240.2 313.7L240.2 313.6L240.2 313.6L240.2 313.6L240.2 313.5L240.2 313.5L240.2 313.4L240.2 313.4L240.1 313.3L240.1 313.3L240.1 313.2L240.1 313.2L240.1 313.2L240.1 313.1L240.0 313.0L240.0 312.9L240.0 312.9L240.0 312.8L240.0 312.8L240.0 312.8L239.9 312.7L239.9 312.7L239.9 312.6L239.9 312.6L239.9 312.6L239.8 312.5L239.8 312.5L239.8 312.4L239.8 312.4L239.7 312.3L239.7 312.3L239.7 312.3L239.7 312.3L239.7 312.2L239.6 312.2L239.6 312.1L239.6 312.1L239.5 312.0L239.5 312.0L239.5 312.0L239.4 311.9L239.4 311.9L239.4 311.8L238.2 310.0L237.7 308.0L237.7 307.9L237.7 307.8L237.7 307.8L237.7 307.8L237.7 307.7L237.7 307.7L237.7 307.6L237.6 307.6L237.6 307.6L237.6 307.5L237.6 307.4L237.6 307.4L237.6 307.3L237.6 307.3L237.6 307.3L237.6 307.2L237.5 307.2L237.5 307.2L237.5 307.0L237.5 307.0L237.5 306.9L237.4 306.9L237.4 306.9L237.4 306.8L237.4 306.7L237.3 306.7L237.3 306.7L237.3 306.6L237.3 306.6L237.3 306.6L237.3 306.6L237.2 306.5L237.2 306.5L237.1 306.3L237.1 306.3L237.1 306.2L237.0 306.2L237.0 306.2L237.0 306.2L237 306.1L236.9 306.1L236.8 306.0L236.8 305.9L236.8 305.9L236.7 305.8L236.7 305.8L236.7 305.8L236.6 305.8L236.6 305.7L236.5 305.7L235.3 304.2L234.6 302.5L234.3 300.7L234.3 300.7L234.3 300.2L234.3 300.2L234.4 299.6L234.4 299.5L234.4 299.5L234.4 299.4L234.4 299.3L234.4 299.2L234.4 299.2L234.4 299.2L234.4 299.1L234.5 299.0L234.5 298.9L234.4 298.9L234.4 298.8L234.4 298.8L234.4 298.8L234.4 298.7L234.4 298.7L234.4 298.5L234.4 298.5L234.4 298.4L234.3 297.4L234.7 295.0L235.1 294.1L235.1 294.1L236.5 292.4L238.3 291.2L240.4 290.6L240.5 290.6L240.6 290.6L240.6 290.6L240.7 290.6L240.7 290.6L240.7 290.6L240.8 290.6L240.8 290.6L240.8 290.6L240.9 290.6L241.0 290.5L241.0 290.5L241.1 290.5L241.2 290.5L241.2 290.5L241.2 290.5L241.3 290.5L241.3 290.4L241.4 290.4L241.4 290.4L241.5 290.4L241.5 290.4L241.5 290.3L241.6 290.3L241.6 290.3L241.6 290.3L241.7 290.3L241.7 290.3L241.8 290.2L241.8 290.2L241.8 290.2L241.9 290.2L241.9 290.2L241.9 290.1L242.1 290.1L242.1 290.0L242.1 290.0L242.2 290.0L242.2 290.0L242.2 289.9L242.3 289.9L242.3 289.9L242.3 289.9L242.4 289.8L242.4 289.8L242.4 289.8L242.5 289.7L242.5 289.7L242.5 289.7L242.6 289.6L242.6 289.6L242.6 289.6L242.7 289.5L242.7 289.5L242.7 289.5L244.7 287.9L247.6 287.2L248.0 287.2L248.1 287.2L248.2 287.2L248.2 287.2L248.5 287.2L248.5 287.2L248.5 287.2L248.6 287.2L248.6 287.2L248.6 287.2L248.7 287.2L248.8 287.2L248.8 287.2L248.8 287.2L248.9 287.2L248.9 287.2L248.9 287.2L249.0 287.2L249.0 287.2L249.1 287.2L249.1 287.1L249.2 287.1L249.2 287.1L249.2 287.1L249.3 287.1L249.5 287.0L249.5 287.0L249.5 287.0L249.6 287.0L249.6 287.0L249.7 287.0L249.7 286.9L249.7 286.9L249.8 286.9L249.8 286.9L249.9 286.9L249.9 286.8L249.9 286.8L250.0 286.8L250.0 286.8L250.0 286.8L250.1 286.7L250.2 286.7L250.2 286.7L250.2 286.6L250.3 286.6L250.3 286.6L250.3 286.6L250.3 286.6L250.4 286.5L250.4 286.5L250.4 286.5L250.5 286.4L250.6 286.4L250.6 286.3L250.6 286.3L250.7 286.3L250.8 286.2L250.8 286.2L250.8 286.1L250.9 286.1L250.9 286.1L250.9 286.0L250.9 286.0L251.0 286.0L251.0 285.9L251.0 285.9L251.0 285.9L251.0 285.8L251.1 285.8L251.1 285.8L251.1 285.7L251.2 285.6L251.2 285.5L251.3 285.5L251.3 285.5L251.3 285.4L251.3 285.4L251.3 285.4L251.3 285.3L251.4 285.3L251.4 285.2L251.4 285.2L251.4 285.1L251.5 285.1L251.5 285.0L251.5 285.0L251.6 284.7L253.1 282.5L254.4 281.4L257.3 280.5L257.9 280.5L257.9 280.5L259.9 280.8L261.6 281.7L262.0 282.1L261.9 282.5L264.0 288.1L264.4 288.7L264.4 288.8L264.4 288.8L264.3 288.9L264.3 288.9L264.3 289.0L264.3 289.0L264.3 289.0L264.3 289.1L264.3 289.1L264.3 289.2L264.3 289.2L264.3 289.3L264.3 289.3L264.3 289.4L264.3 289.4L264.3 289.4L264.3 289.5L264.3 289.6L264.3 289.7L264.3 289.7L264.3 289.8L264.3 289.8L264.3 289.8L264.3 289.9L264.3 289.9L264.3 290.0L264.3 290.0L264.3 290.1L264.3 290.1L264.3 290.1L264.3 290.2L264.3 290.3L264.4 290.3L264.4 290.3L264.4 290.4L264.4 290.5L264.4 290.5L264.4 290.5L264.5 290.7L264.5 290.7L264.5 290.8L264.5 290.8L264.6 290.9L264.6 290.9L264.6 291.0L264.6 291.0L264.6 291.1L264.7 291.1L264.7 291.1L264.7 291.2L264.7 291.2L264.7 291.2L264.8 291.3L264.8 291.4L264.8 291.4L264.9 291.5L264.9 291.5L264.9 291.5L264.9 291.6L265.0 291.6L265.0 291.6L265.0 291.6L265.0 291.7L265.0 291.7L265.1 291.8L265.1 291.8L265.2 291.9L265.2 291.9L265.2 291.9L265.3 291.9L265.3 292.0L265.3 292.0L265.4 292.0L265.4 292.0L265.5 292.1L265.5 292.2L266.7 293.5L267.5 295.0L267.5 295.1L267.6 295.1L267.6 295.2L267.6 295.2L267.6 295.3L267.6 295.3L267.6 295.3L267.6 295.4L267.7 295.4L267.7 295.5L267.7 295.5L267.7 295.6L267.8 295.6L267.8 295.6L267.9 295.7L267.9 295.8L267.9 295.8L267.9 295.8L267.9 295.9L268.0 295.9L268.0 295.9L268.0 296.0L268.0 296.0L268.0 296.0L268.1 296.0L268.1 296.1L268.1 296.1L268.2 296.2L268.2 296.2L268.2 296.2L268.3 296.3L268.3 296.3L268.4 296.4L268.4 296.4L268.4 296.5L268.5 296.5L268.5 296.5L268.6 296.5L268.6 296.6L268.6 296.6L268.6 296.6L268.7 296.6L268.7 296.7L268.7 296.7L268.8 296.7L268.8 296.7L268.8 296.8L269.0 296.9L269.1 296.9L269.1 296.9L269.1 296.9L269.2 297.0L269.2 297.0L269.2 297.0L267.7 296.3L265.1 297.0L260.9 293.0L254.8 294.2L252.9 293.4L251.0 294.5L255.4 295.0L260.3 293.8L262.4 296.8L270.5 302.5L272.5 305.2L275.1 311.3L275.3 316.5L267.8 324.8L269.7 324.4L273.3 327.7L276.1 328.3L280.0 321.2L287.5 320.8L296.7 321.9L305.5 327.6L307.8 332.9L307.9 341.4L305.0 353.4L299.5 359.2L298.1 357.0L295.4 355.8L298.8 361.1L297.2 363.8L293.3 365.4L291.7 363.4L285.2 367.6L286.6 368.6L290.6 366.7L291.2 371.6L287.6 374.8L284.3 374.5L280.1 375.9L278.2 377.9L281.7 376.4L285.5 376.9L286.1 378.1L284.2 378.1L282.4 379.3L282.9 380.0L290.6 381.6L301.7 379.3L302.8 381.4L302.2 388.1L294.3 392.3L292.8 394.4L292.8 396.8L288.2 396.8L285.5 399.4L278.2 401.9L275.7 404.6L263.9 401.7L254.0 403.6L251.1 405.7L248.4 404.0L249.5 402.9L248.0 401.5L242.6 401.4L243.5 402.8L242.8 403.9L238.4 403.4L232.2 405.9L224.1 406.4L221.6 405.6L220.7 407.1L223.7 408.1L223.6 410.7L221.2 411.1L213.2 409.0L211.5 410.6L212.0 412.0L211.1 410.3L210.9 409.3L210.9 409.3L210.8 408.2L210.8 408.2L210.8 408.1L210.8 408.0L210.8 408.0L210.8 408.0L210.8 407.9L210.8 407.9L210.8 407.9L210.8 407.8L210.8 407.8L210.8 407.7L210.7 407.6L210.7 407.6L210.7 407.5L210.7 407.4L210.7 407.3L210.7 407.3L210.7 407.3L210.6 407.2L210.6 407.2L210.6 407.0L210.2 404.9L210.2 404.1L209.6 404.5L207.4 404.8L207.4 404.8L206.6 404.8L204.7 404.2L203.0 403.1L202.9 403.1L202.8 403.0L202.8 403.0L202.8 403.0L202.8 403.0L202.7 402.9L202.7 402.9L202.7 402.9L202.6 402.9L202.6 402.8L202.5 402.8L202.5 402.8L202.5 402.8L202.4 402.7L202.3 402.7L202.3 402.7L202.3 402.6L202.2 402.6L202.2 402.6L202.2 402.6L202.1 402.6L202.1 402.6L202.1 402.5L202.0 402.5L202.0 402.5L201.9 402.5L201.9 402.5L201.9 402.5L201.8 402.4L201.7 402.4L201.7 402.4L201.6 402.4L201.6 402.4L201.6 402.4L201.5 402.4L201.5 402.3L201.5 402.3L201.4 402.3L201.4 402.3L201.3 402.3L201.2 402.3L201.2 402.3L201.2 402.3L201.1 402.3L201.1 402.3L201.0 402.3L201.0 402.3L201 402.3L200.9 402.2L200.9 402.2L200.8 402.2L200.7 402.2L200.7 402.2L200.6 402.2L200.5 402.2L200.5 402.2L200.5 402.2L200.4 402.3L200.4 402.3L200.3 402.3L200.3 402.3L200.2 402.3L200.2 402.3L200.2 402.3L200.1 402.3L200.1 402.3L200.1 402.3L200.0 402.3L200 402.3L199.9 402.3L199.9 402.3L199.8 402.4L199.8 402.4L199.7 402.4L199.7 402.4L199.5 402.4L199.5 402.5L199.5 402.5L199.4 402.5L199.4 402.5L199.3 402.5L199.2 402.6L199.2 402.6L199.2 402.6L199.1 402.6L199.1 402.6L199.1 402.6L199.0 402.7L199.0 402.7L199.0 402.7L199 402.7L198.9 402.8L198.8 402.8L198.8 402.8L198.8 402.8L198.7 402.9L198.7 402.9L198.7 402.9L198.6 402.9L198.6 403.0L198.6 403.0L198.5 403.0L198.5 403.0L198.4 403.1L198.4 403.1L198.4 403.1L198.4 403.2L198.3 403.2L198.3 403.2L198.3 403.3L198.2 403.3L198.2 403.4L198.1 403.4L198.1 403.4L198.1 403.5L198.0 403.5L198.0 403.6L198.0 403.6L198.0 403.6L197.9 403.6L197.9 403.7L197.9 403.7L197.8 403.9L197.7 404.0L197.7 404.0L197.7 404.0L197.7 404.1L197.7 404.1L197.7 404.1L197.6 404.2L197.6 404.2L197.6 404.3L197.6 404.3L197.6 404.3L197.6 404.4L197.5 404.4L197.5 404.4L197.5 404.6L197.5 404.6L197.5 404.7L197.4 404.7L197.4 404.8L197.4 404.8L197.4 404.9L197.4 404.9L197.4 404.9L197.4 405.0L197.4 405.0L197.4 405.0L197.4 405.1L197.4 405.1L197.4 405.2L197.3 405.2L197.3 405.2L197.3 405.3L197.3 405.3L197.3 405.4L197.3 405.4L197.3 405.9L197.3 406.0L197.2 406.0L197.2 406.1L197.2 406.1L197.2 406.1L197.2 406.2L197.2 406.2L197.2 406.2L197.2 406.3L197.2 406.3L197.2 406.3L197.2 406.4L197.2 406.5L193.0 407.6L188.4 410.1L183.0 423.9L181.4 424.8L179.1 424.4L177.3 422.2L177.2 421.2L178.1 418.3L178.1 418.3L179.0 417.1L178.5 415.8L178.4 415.8L178.4 415.7L178.4 415.7L178.4 415.6L178.4 415.6L178.4 415.5L178.3 415.5L178.3 415.4L178.3 415.4L178.3 415.3L178.3 415.2L178.2 415.2L178.2 415.2L178.2 415.1L178.2 415.1L178.2 415.1L178.2 415.0L178.1 415.0L178.1 415.0L178.1 414.9L178.1 414.9L177.2 412.3L177.2 412.3L177.3 410.5L177.4 409.8L178.5 407.6L179.4 406.5L179.5 406.5L179.5 406.4L179.7 406.3L179.8 406.2L179.8 406.2L179.8 406.2L179.8 406.1L179.9 406.1L179.9 406.0L179.9 406.0L179.9 406.0L180.0 405.9L180.0 405.9L180.0 405.8L180.1 405.8L180.1 405.8L180.1 405.7L180.1 405.7L180.1 405.7L180.2 405.6L180.2 405.6L180.2 405.6L180.2 405.5L180.2 405.5L180.3 405.4L180.3 405.4L180.3 405.3L180.3 405.3L180.3 405.3L180.3 405.2L180.4 405.2L180.4 405.2L180.4 405.1L180.4 405.0L180.4 405.0L180.4 405.0L180.5 404.9L180.5 404.9L180.5 404.9L180.5 404.7L180.5 404.6L180.5 404.6L180.5 404.5L180.5 404.5L180.6 404.5L180.6 404.4L180.6 404.4L180.6 404.3L180.6 404.2L181.3 401.8L182.8 399.8L182.8 399.8L182.9 399.7L183.0 399.6L183.0 399.6L183.1 399.5L183.1 399.5L183.1 399.5L183.2 399.4L183.2 399.4L183.2 399.3L183.3 399.3L183.3 399.3L183.3 399.3L183.3 399.2L183.3 399.2L183.4 399.2L183.4 399.1L183.4 399.1L183.5 399.0L183.5 399.0L183.5 398.9L183.5 398.9L183.6 398.9L183.6 398.8L183.6 398.8L183.6 398.7L183.6 398.7L183.6 398.7L183.7 398.6L183.7 398.6L183.7 398.5L183.7 398.5L183.7 398.5L183.7 398.4L183.8 398.3L183.8 398.2L183.8 398.2L183.8 398.2L183.8 398.1L183.8 398.1L183.9 398.0L183.9 398.0L183.9 398.0L183.9 397.9L183.9 397.8L183.9 397.8L183.9 397.7L183.9 397.7L183.9 397.6L183.9 397.6L183.9 397.5L184.1 396.6L184.1 396.5L184.1 396.4L184.1 396.4L184.1 396.3L184.1 396.3L184.1 396.3L184.1 396.2L184.2 396.2L184.2 396.2L184.2 396.1L184.2 396.1L184.2 396.0L184.2 396.0L184.2 396.0L184.2 395.9L184.2 395.9L184.2 395.7L184.2 395.6L184.2 395.6L184.2 395.6L184.2 395.5L184.2 395.5L184.2 395.5L184.2 395.3L184.1 395.3L184.1 395.3L184.1 395.2L184.1 395.2L184.1 395.2L184.1 395.1L184.1 395.0L184.1 395.0L184.1 394.9L184.1 394.9L184.1 394.9L184.0 394.8L184.0 394.8L184.0 394.7L184.0 394.7L184.0 394.6L183.9 394.5L183.9 394.5L183.9 394.4L183.9 394.4L183.9 394.4L183.8 394.3L183.8 394.3L183.8 394.2L183.8 394.2L183.8 394.2L183.7 394.1L183.7 394.1L183.7 394.0L183.7 394.0L183.6 393.9L183.6 393.9L183.6 393.9L183.6 393.8L183.5 393.8L183.5 393.8L183.5 393.8L183.5 393.7L183.5 393.7L183.4 393.7L183.4 393.6L183.3 393.6L183.3 393.5L183.3 393.5L183.3 393.5L183.2 393.5L183.2 393.4L183.2 393.4L183.2 393.4L183.1 393.3L183.1 393.3L183.0 393.2L183.0 393.2L182.9 393.2L181.7 391.8L180.9 390.1L180.6 388.2L180.5 388.0L180.5 388.0L180.9 386.2L187.1 386.9L189.9 388.6L198.4 387.8L200.1 381.5L213.6 366.8L207.1 372.6L205.9 373.9L196.6 377.1L194.9 380.7L189.8 381.2L186.1 380.1L179.8 371.9L171.2 375.0L169.5 374.0L169.3 372.0L173.4 371.3L174.4 369.7L170.0 369.5L166.1 367.2L162.9 367.2L160.5 367.7L159.6 370.2L156.0 370.4L154.1 372.1L151.6 371.0L152.4 369.2L156.2 367.7L155.7 366.4L155.2 367.6L152.7 367.9L147.2 366.7L150.7 365.0L150.2 362.2L147.2 361.4L147.7 359.8L151.1 358.2L151.6 356.9L157.3 356.4 Z M 215.0 376.1L214.7 376.9L214.6 377L214.6 377.0L214.6 377.1L214.5 377.1L214.5 377.1L214.5 377.2L214.5 377.2L214.4 377.3L214.4 377.3L214.4 377.4L214.4 377.4L214.4 377.5L214.3 377.5L214.3 377.6L214.3 377.6L214.3 377.8L214.2 377.8L214.2 377.9L214.2 377.9L214.2 378.0L214.2 378.0L214.2 378.0L214.2 378.1L214.2 378.1L214.2 378.2L214.2 378.2L214.2 378.2L214.1 378.3L214.1 378.3L214.1 378.4L214.1 378.4L214.1 378.5L214.1 378.5L213.8 380.2L213.8 380.2L213.7 380.3L213.7 380.3L213.7 380.3L213.7 380.4L213.7 380.4L213.7 380.5L213.6 380.6L213.6 380.7L213.6 380.7L213.6 380.8L213.6 380.8L213.6 380.9L213.6 380.9L213.6 381.0L213.6 381.0L213.6 381.1L213.6 381.1L213.6 381.1L213.6 381.2L213.6 381.2L213.6 381.4L213.6 381.4L213.6 381.5L213.6 381.5L213.6 381.6L213.6 381.6L213.6 381.7L213.6 381.7L213.6 381.8L213.6 381.8L213.6 381.8L213.6 381.9L213.6 381.9L213.6 381.9L213.6 382.0L213.7 382.1L213.7 382.1L213.7 382.2L213.7 382.2L213.7 382.3L213.7 382.3L213.8 382.4L213.8 382.5L214.2 384.7L214.1 385.2L214.1 385.2L213.6 387.3L212.5 389.1L212.4 389.2L212.3 389.3L212.3 389.3L212.3 389.3L212.3 389.4L212.3 389.4L212.2 389.4L212.2 389.5L212.2 389.5L212.1 389.5L212.0 389.7L212.0 389.7L212.0 389.8L212.0 389.8L212.0 389.8L212.0 389.9L211.9 389.9L211.9 390.0L211.9 390.0L211.9 390.0L211.9 390.1L211.8 390.1L211.8 390.1L211.8 390.2L211.8 390.2L211.7 390.4L211.7 390.4L211.7 390.4L211.7 390.5L211.7 390.5L211.7 390.5L211.7 390.6L211.7 390.6L211.7 390.7L211.7 390.7L211.6 390.8L211.6 390.8L211.6 390.9L211.6 390.9L211.6 390.9L211.6 391.0L211.6 391.0L211.6 391.1L211.6 391.1L211.6 391.1L211.6 391.2L211.6 391.2L211.6 391.2L211.6 391.3L211.6 391.5L211.6 391.5L211.6 391.6L211.6 391.6L211.6 391.6L211.6 391.7L211.6 391.8L211.6 391.8L211.6 391.8L211.6 391.9L211.6 391.9L211.6 391.9L211.6 392.0L211.6 392.0L211.7 392.1L211.7 392.2L211.7 392.2L211.7 392.2L211.7 392.3L211.7 392.3L211.7 392.3L211.7 392.4L211.8 392.6L211.8 392.6L211.8 392.6L211.8 392.7L211.9 392.7L211.9 392.8L211.9 392.8L211.9 392.9L211.9 392.9L212.0 392.9L212.0 393.0L212.0 393.0L212.0 393.0L212.0 393.1L212.1 393.2L212.2 393.3L212.2 393.3L212.2 393.4L212.3 393.4L212.3 393.4L212.3 393.5L212.3 393.5L212.4 393.5L212.4 393.6L212.4 393.6L212.5 393.7L213.7 395.8L213.7 395.8L214.1 397.9L214.1 398.6L214.7 398.3L216.8 397.9L216.9 397.9L217.0 397.9L217.1 397.9L217.1 397.9L217.1 397.9L217.2 397.9L217.2 397.9L217.3 397.9L217.4 397.9L217.4 397.9L217.5 397.9L217.5 397.9L217.7 397.8L217.7 397.8L217.8 397.8L217.8 397.8L217.8 397.8L217.9 397.8L217.9 397.8L218 397.8L218.1 397.7L218.1 397.7L218.1 397.7L218.2 397.7L218.2 397.7L218.2 397.7L218.3 397.6L218.3 397.6L218.3 397.6L218.4 397.6L218.4 397.6L218.4 397.6L218.5 397.5L218.5 397.5L218.6 397.5L218.6 397.5L218.7 397.4L218.8 397.4L218.8 397.3L218.8 397.3L218.9 397.3L218.9 397.3L218.9 397.2L219.0 397.2L219.0 397.2L219.1 397.1L219.2 397.0L219.2 397.0L219.3 396.9L219.3 396.9L219.3 396.8L220.7 395.8L222.2 395.0L222.3 395.0L222.4 395.0L222.5 395.0L222.5 395.0L222.6 394.9L222.6 394.9L222.7 394.9L222.7 394.9L222.8 394.8L222.8 394.8L222.8 394.8L222.9 394.8L222.9 394.8L222.9 394.8L223.0 394.7L223.1 394.7L223.1 394.7L223.1 394.6L223.2 394.6L223.2 394.6L223.2 394.6L223.3 394.5L223.3 394.5L223.4 394.5L223.4 394.5L223.4 394.4L223.4 394.4L223.5 394.4L223.5 394.3L223.6 394.3L223.6 394.3L223.7 394.2L223.7 394.2L223.7 394.1L223.8 394.1L223.8 394.1L223.8 394.0L223.9 393.9L223.9 393.9L224.0 393.9L224.0 393.8L224.0 393.8L224.0 393.8L224.1 393.7L224.1 393.7L224.1 393.7L224.2 393.5L224.2 393.5L224.2 393.5L224.2 393.4L224.3 393.4L224.3 393.4L224.3 393.3L224.3 393.3L224.3 393.3L224.3 393.2L224.4 393.2L224.4 393.1L224.4 393.1L224.4 393.0L224.5 393.0L224.5 392.9L224.5 392.8L224.5 392.8L224.6 392.4L225.2 391.3L225.2 391.3L226.4 389.8L227.9 388.7L229.7 388.1L230.8 388.0L231.3 388.0L231.4 388.0L231.4 388.0L231.7 388.0L231.7 388.0L231.7 388.0L231.8 388.0L231.8 388.0L231.9 388.0L231.9 388.0L231.9 388.0L232.0 388.0L232.0 388.0L232.0 388.0L232.1 388.0L232.1 388.0L232.2 388.0L232.2 388.0L232.3 388.0L232.3 388.0L232.3 387.9L232.4 387.9L232.4 387.9L232.5 387.9L232.5 387.9L232.7 387.8L232.7 387.8L232.8 387.8L232.8 387.8L232.8 387.8L232.9 387.8L232.9 387.7L233.0 387.7L233.0 387.7L233.1 387.7L233.1 387.7L233.1 387.6L233.2 387.6L233.2 387.6L233.2 387.6L233.4 387.5L233.4 387.5L233.4 387.4L233.5 387.4L233.5 387.4L233.5 387.4L233.6 387.4L233.6 387.3L233.6 387.3L233.7 387.3L233.7 387.2L233.7 387.2L233.8 387.2L233.8 387.1L233.8 387.1L233.9 387.1L233.9 387.1L233.9 387.0L234.0 387.0L234.0 387.0L234.0 387.0L234.0 386.9L234.1 386.9L234.1 386.9L234.1 386.8L234.1 386.8L234.2 386.8L234.2 386.7L234.2 386.7L234.2 386.7L234.3 386.6L234.3 386.6L234.3 386.6L234.3 386.5L234.3 386.5L234.4 386.5L234.4 386.4L234.5 386.3L234.5 386.3L234.5 386.3L234.5 386.2L234.5 386.2L234.5 386.2L234.6 386.1L234.6 386.0L234.6 386.0L234.6 386.0L234.7 385.9L234.7 385.9L234.7 385.9L234.8 385.6L234.8 385.6L234.8 385.5L234.8 385.5L234.8 385.4L234.8 385.3L234.8 385.3L234.8 385.2L234.8 385.2L234.9 385.2L234.9 385.1L234.9 385.1L234.9 385.0L234.9 385.0L234.9 385L234.9 384.9L234.9 384.9L234.9 384.8L234.9 384.8L234.9 384.7L234.9 384.7L234.9 384.6L234.9 384.5L234.9 384.5L234.9 384.5L234.9 384.4L234.9 384.4L234.9 384.3L234.9 384.3L234.9 384.2L234.9 384.2L234.9 384.2L234.8 384.1L234.8 384.1L234.8 384.1L234.8 384.0L234.8 384.0L234.8 383.9L234.8 383.9L234.8 383.8L234.8 383.8L234.8 383.8L234.8 383.7L234.7 383.7L234.7 383.7L234.7 383.5L234.3 381.9L234.4 380.2L234.5 379.8L234.5 379.7L234.5 379.7L234.5 379.6L234.5 379.6L234.5 379.6L234.5 379.5L234.5 379.5L234.5 379.5L234.6 379.4L234.6 379.3L234.6 379.2L234.6 379.2L234.6 379.1L234.6 379.1L234.6 379.0L234.6 379L234.6 378.9L234.6 378.8L234.6 378.8L234.6 378.8L234.6 378.7L234.6 378.7L234.6 378.7L234.6 378.6L234.6 378.6L234.6 378.5L234.5 378.5L234.5 378.5L234.5 378.4L234.5 378.4L234.5 378.3L234.5 378.3L234.5 378.1L234.5 378.1L234.5 378.1L234.4 378.0L234.4 378.0L234.4 377.8L234.4 377.8L234.4 377.8L234.3 377.7L234.3 377.7L234.3 377.7L234.3 377.6L234.3 377.6L234.3 377.6L234.3 377.5L234.2 377.5L234.2 377.4L234.2 377.4L234.2 377.4L234.1 377.3L234.1 377.3L234.0 377.1L234.0 377.1L234.0 377.0L233.9 377.0L233.9 377.0L233.9 377.0L233.9 376.9L233.9 376.9L233.8 376.9L233.8 376.8L233.8 376.8L233.7 376.8L233.7 376.7L233.7 376.7L233.6 376.6L233.5 376.5L233.5 376.5L233.5 376.5L233.4 376.4L233.3 376.4L233.2 376.3L233.2 376.2L233.1 376.1L233.0 376.1L233.0 376.1L233.0 376.1L232.9 376.0L232.9 376.0L232.9 376.0L232.8 376.0L232.8 375.9L232.7 375.9L232.7 375.9L232.6 375.8L232.6 375.8L232.6 375.8L232.5 375.8L232.5 375.8L232.5 375.7L232.4 375.7L232.4 375.7L232.4 375.7L232.3 375.7L232.3 375.7L232.3 375.6L232.2 375.6L232.2 375.6L232.1 375.6L231.9 375.5L231.8 375.5L231.8 375.5L231.7 375.5L231.6 375.5L231.6 375.4L231.5 375.4L231.5 375.4L231.5 375.4L231.4 375.4L231.4 375.4L231.4 375.4L231.3 375.4L231.3 375.4L231.2 375.4L231.2 375.4L231.2 375.4L231.1 375.4L231.1 375.4L231.1 375.4L230.8 375.4L230.8 375.4L230.7 375.4L230.7 375.4L230.6 375.4L230.6 375.4L230.5 375.4L230.5 375.4L230.5 375.4L230.4 375.4L230.4 375.4L230.4 375.4L230.3 375.5L230.2 375.5L230.1 375.5L230.1 375.5L230.0 375.5L229.8 375.6L229.7 375.6L229.7 375.6L229.6 375.7L229.6 375.7L229.5 375.7L229.5 375.7L229.5 375.7L229.4 375.7L229.4 375.8L229.4 375.8L229.3 375.8L229.3 375.8L229.2 375.9L229.2 375.9L229.1 375.9L229.1 376.0L229.0 376.0L229.0 376.0L229.0 376.0L228.9 376.1L228.9 376.1L228.9 376.1L228.8 376.1L228.7 376.2L228.7 376.3L228.0 376.8L228.0 376.8L226.1 377.7L224.1 378L223.0 377.8L221.3 377.3L219.8 376.3L219.7 376.2L219.6 376.2L219.6 376.1L219.6 376.1L219.6 376.1L219.5 376.0L219.5 376.0L219.4 376.0L219.4 376.0L219.4 376L219.3 375.9L219.3 375.9L219.3 375.9L219.2 375.9L219.1 375.8L219.1 375.8L219.1 375.8L219.0 375.7L219.0 375.7L218.9 375.7L218.9 375.7L218.8 375.6L218.8 375.6L218.8 375.6L218.7 375.6L218.7 375.6L218.7 375.6L218.4 375.5L218.4 375.5L218.3 375.5L218.3 375.5L218.3 375.5L218.2 375.5L218.2 375.4L218.2 375.4L218.1 375.4L218.1 375.4L218.1 375.4L218.0 375.4L218.0 375.4L218 375.4L217.9 375.4L217.9 375.4L217.8 375.4L217.8 375.4L217.7 375.4L217.7 375.4L217.7 375.4L217.6 375.4L217.5 375.4L217.4 375.4L217.4 375.4L217.3 375.4L217.3 375.4L217.3 375.4L217.2 375.4L217.2 375.4L217.1 375.4L217.1 375.4L217.0 375.4L217.0 375.4L217.0 375.4L216.9 375.4L216.9 375.4L216.8 375.4L216.8 375.4L216.7 375.4L216.7 375.5L216.6 375.5L216.6 375.5L216.6 375.5L216.5 375.5L216.5 375.5L216.4 375.5L216.3 375.6L216.3 375.6L216.3 375.6L216.2 375.6L216.2 375.6L216.2 375.6L216.1 375.6L216.1 375.7L216.1 375.7L216.0 375.7L216.0 375.7L215.9 375.7L215.9 375.8L215.9 375.8L215.8 375.8 Z M 269.5 297.1L269.5 297.1L269.5 297.1L269.6 297.1L269.6 297.1L269.6 297.2L269.7 297.2L269.8 297.2L269.8 297.2L269.9 297.2L270.0 297.3L270.1 297.3L269.7 299.1 Z M 227.5 247.9L229.6 247.0L231.3 246.9L233.6 247.4L235.5 248.7L236.6 250.2L237.6 254.3L237.6 254.4L237.4 255.4L236.5 257.5L234.9 259.1L234.3 259.5L232.7 260.1L231 260.4L230.8 260.3L230.8 260.3L228.6 259.9L226.6 258.7L225.1 257.0L224.3 254.8L224.2 254.0L224.2 254.0L224.3 252.5L224.9 250.7L226.0 249.1 Z M 187.2 309.9L187.2 311.3L186.8 313.1L186.8 313.1L185.8 315.0L184.2 316.4L184.1 316.5L184.1 316.5L184.0 316.5L184.0 316.5L184.0 316.5L184.0 316.6L183.9 316.6L183.9 316.6L183.9 316.6L183.8 316.7L183.7 316.8L183.7 316.8L183.6 316.8L183.6 316.9L183.6 316.9L183.5 317.0L183.5 317.0L183.5 317.0L183.4 317.0L183.4 317.1L183.4 317.1L183.3 317.2L183.3 317.2L183.3 317.2L183.3 317.2L183.3 317.3L183.2 317.3L183.2 317.3L183.2 317.4L183.1 317.4L183.1 317.6L183.1 317.6L183.0 317.6L183.0 317.7L183.0 317.7L183.0 317.7L183.0 317.8L183 317.8L182.9 317.8L182.9 317.9L182.9 317.9L182.9 317.9L182.9 318.0L182.9 318.0L182.8 318.0L182.8 318.1L182.8 318.3L182.7 318.3L182.7 318.4L182.7 318.4L182.7 318.5L182.7 318.5L182.7 318.6L182.7 318.6L182.7 318.7L182.7 318.7L182.7 318.7L182.6 318.8L182.6 318.8L182.6 318.9L182.6 318.9L182.6 318.9L182.6 319.0L182.6 319.0L182.6 319.0L182.6 319.1L182.6 319.1L182.6 319.4L182.6 319.4L182.6 319.4L182.6 319.5L182.6 319.5L182.6 319.6L182.6 319.6L182.6 319.6L182.6 319.7L182.6 319.7L182.7 319.7L182.7 319.8L182.7 319.8L182.7 319.9L182.7 319.9L182.7 319.9L182.7 320.0L182.7 320.0L182.7 320.0L182.7 320.1L182.7 320.1L182.7 320.1L182.7 320.2L182.8 320.4L182.8 320.5L182.9 320.5L182.9 320.5L182.9 320.6L182.9 320.6L182.9 320.6L182.9 320.7L183.0 320.7L183.0 320.8L183.0 320.8L183.0 320.8L183.0 320.9L183.1 320.9L183.9 323.6L183.9 323.7L183.9 323.7L183.9 323.8L183.9 323.8L183.9 323.8L183.9 323.9L183.9 323.9L183.9 324.0L183.9 324.0L183.9 324.0L184.0 324.2L184.0 324.2L184.0 324.3L184.0 324.3L184.0 324.3L184.0 324.4L184.1 324.4L184.1 324.6L184.1 324.6L184.1 324.6L184.1 324.7L184.2 324.7L184.2 324.7L184.2 324.8L184.2 324.8L184.2 324.9L184.3 324.9L184.3 324.9L184.3 325.0L184.3 325.0L184.3 325.0L184.3 325.1L184.4 325.1L184.4 325.2L184.5 325.3L184.5 325.3L184.5 325.3L184.5 325.4L184.6 325.4L184.6 325.4L184.6 325.5L184.7 325.5L184.7 325.6L184.8 325.6L184.8 325.7L184.9 325.8L185.0 325.8L185.0 325.9L185.0 325.9L186.1 327.2L186.2 327.2L186.2 327.3L186.2 327.3L186.2 327.3L186.3 327.3L186.3 327.4L186.3 327.4L186.3 327.4L186.3 327.5L186.5 327.6L186.5 327.6L186.5 327.7L186.6 327.7L186.6 327.7L186.6 327.8L186.7 327.8L186.7 327.8L186.8 327.9L186.9 328.0L186.9 328.0L186.9 328.0L187.0 328.0L187.0 328.1L187.0 328.1L187.1 328.1L188.5 329.5L189.3 330.9L189.9 329.4L191.2 327.9L191.2 327.8L191.3 327.8L191.3 327.7L191.4 327.7L191.4 327.6L191.4 327.6L191.5 327.5L191.5 327.5L191.6 327.4L191.6 327.4L191.6 327.4L191.6 327.3L191.7 327.3L191.7 327.3L191.7 327.2L191.8 327.2L193.0 325.8L193.0 325.8L194.5 324.9L194.3 323.2L194.3 323.1L194.3 323.1L194.3 323.0L194.3 323.0L194.3 322.9L194.3 322.9L194.3 322.9L194.2 322.7L194.2 322.7L194.2 322.6L194.2 322.6L194.2 322.6L194.2 322.3L194.0 321.6L194.0 320.4L194.0 320.4L194.1 319.7L194.1 319.7L194.1 319.6L194.1 319.6L194.1 319.5L194.1 319.4L194.1 319.3L194.1 319.3L194.1 319.3L194.1 319.2L194.1 319.1L194.1 319.0L194.1 319.0L194.1 319L194.1 318.9L194.1 318.9L194.1 318.7L194.1 318.7L194.1 318.7L194.1 318.6L194.1 318.6L194.0 318.2L194.0 317.5L194.1 316.4L194.1 316.3L194.1 316.3L194.1 316.2L194.1 316.2L194.1 316.1L194.1 316.0L194.1 316.0L194.1 316.0L194.1 315.9L194.1 315.9L194.1 315.7L194.1 315.7L194.1 315.6L194.1 315.6L194.1 315.6L194.1 315.5L194.1 315.5L194.1 315.4L194.1 315.4L194.1 315.3L194.1 315.3L194.1 315.2L194.0 314.7L194.0 314.6L194.0 314.6L194.0 314.6L194.0 314.5L194.0 314.5L194.0 314.4L194.0 314.4L194.0 314.3L194.0 314.3L193.9 314.2L193.9 314.2L193.9 314.1L193.9 314.1L193.9 314.0L193.9 314.0L193.9 314.0L193.8 313.8L193.8 313.7L193.8 313.7L193.8 313.7L193.8 313.6L193.7 313.6L193.7 313.6L193.7 313.5L193.7 313.5L193.7 313.5L193.7 313.4L193.6 313.4L193.6 313.4L193.6 313.3L193.6 313.3L193.6 313.3L193.6 313.2L193.4 313.0L193.4 313.0L193.4 313.0L193.4 312.9L193.3 312.9L193.3 312.9L193.3 312.8L193.2 312.8L193.2 312.8L193.2 312.7L193.1 312.6L193.1 312.6L193.0 312.5L193.0 312.5L193.0 312.5L192.9 312.4L192.9 312.4L192.4 312.0L191.4 310.4L190.8 308.7L190.7 308.4L192.7 307.7L197.9 311.5L198.3 310.6L195.9 306.3L198.7 305.4L202.8 310.1L205.2 309.9L206.9 307.7L203.5 308.8L201.3 307.3L197.9 300.1L200.9 294.8L202.7 293.8L199.6 292.3L199.9 292.0L201.9 290.9L202.5 290.8L204.6 290.6L206.6 291.1L208.3 292.1L209.7 293.6L209.7 293.6L210.5 295.2L210.8 297.1L210.8 297.7L210.8 297.7L210.7 297.9L210.8 298.0L210.8 298.1L210.8 298.1L210.8 298.2L210.8 298.2L210.8 298.2L210.8 298.3L210.8 298.3L210.8 298.4L210.8 298.4L210.8 298.4L210.8 298.5L210.8 298.5L210.8 298.6L210.9 298.6L210.9 298.7L210.9 298.8L210.9 298.8L210.9 298.8L210.9 298.9L210.9 298.9L210.9 298.9L211.0 299.0L211.0 299.0L211.0 299.0L211.0 299.1L211.0 299.1L211.0 299.1L211.0 299.2L211.0 299.2L211.1 299.2L211.1 299.3L211.1 299.3L211.1 299.4L211.1 299.4L211.2 299.4L211.2 299.5L211.2 299.5L211.2 299.5L211.2 299.6L211.3 299.8L211.4 299.8L211.4 299.8L211.4 299.8L211.4 299.9L211.5 299.9L211.5 300.0L211.6 300.1L211.6 300.1L211.6 300.1L211.7 300.2L211.7 300.2L211.7 300.2L211.8 300.2L211.8 300.3L211.8 300.3L211.8 300.3L211.9 300.3L211.9 300.4L211.9 300.4L212.0 300.5L212.0 300.5L212.1 300.5L212.1 300.5L212.1 300.6L212.1 300.6L212.2 300.6L212.2 300.6L212.2 300.6L212.5 300.8L212.5 300.8L212.5 300.8L212.6 300.9L212.6 300.9L212.6 300.9L212.7 300.9L212.7 300.9L212.8 301.0L212.8 301.0L212.8 301.0L212.9 301.0L212.9 301.0L213 301.0L213.1 301.1L213.1 301.1L215.1 302.2L216.5 303.9L216.5 303.9L216.6 304L216.6 304.0L216.6 304.0L216.6 304.1L216.7 304.1L216.7 304.1L216.7 304.2L216.7 304.2L216.8 304.2L216.8 304.3L216.8 304.3L216.8 304.3L216.9 304.4L216.9 304.4L216.9 304.4L216.9 304.4L217.0 304.5L217.0 304.5L217.1 304.6L217.1 304.6L217.1 304.6L217.2 304.6L217.2 304.7L217.2 304.7L217.2 304.7L217.3 304.7L217.3 304.8L217.3 304.8L217.4 304.8L217.4 304.8L217.4 304.9L217.5 304.9L217.5 304.9L217.6 305.0L217.6 305.0L217.6 305.0L217.7 305.0L217.8 305.1L219.4 306.6L220.5 308.5L220.9 310.7L220.9 310.8L220.5 313.0L219.4 315.0L217.7 316.5L217.6 316.5L217.6 316.5L217.5 316.6L217.5 316.6L217.5 316.6L217.4 316.6L217.4 316.7L217.4 316.7L217.3 316.7L217.3 316.7L217.3 316.7L217.3 316.8L217.2 316.8L217.2 316.9L217.1 316.9L217.1 316.9L217.0 317.0L217.0 317.0L216.9 317.1L216.9 317.1L216.9 317.1L216.8 317.2L216.8 317.3L216.8 317.3L216.7 317.3L216.7 317.3L216.7 317.4L216.7 317.4L216.6 317.4L216.6 317.5L216.6 317.5L216.6 317.5L216.5 317.6L215.3 319.1L215.2 319.2L215.2 319.2L215.2 319.2L215.1 319.2L215.1 319.3L215.0 319.3L215.0 319.4L215.0 319.4L214.9 319.5L214.9 319.5L214.8 319.6L214.8 319.6L214.8 319.6L214.8 319.7L214.8 319.7L214.7 319.7L214.7 319.8L214.7 319.8L214.6 319.9L214.6 320.0L214.5 320.0L214.5 320.1L214.5 320.1L214.5 320.1L214.5 320.2L214.4 320.2L214.4 320.3L214.4 320.3L214.4 320.4L214.4 320.4L214.4 320.4L214.3 320.5L214.3 320.5L214.3 320.5L214.3 320.6L214.3 320.7L214.3 320.7L214.2 320.7L214.2 320.8L214.2 320.8L214.2 320.8L214.2 320.9L214.2 321.0L214.2 321.0L214.2 321.1L214.2 321.1L214.2 321.1L214.2 321.2L214.1 321.2L214.1 321.3L214.1 321.3L214.1 321.4L213.5 323.6L212.3 325.5L210.4 326.8L207.6 327.6L207.4 327.6L207.3 327.6L207.2 327.6L207.2 327.6L207.2 327.6L207.1 327.6L207.1 327.6L207.1 327.6L207.0 327.6L207.0 327.6L207 327.6L206.9 327.6L206.9 327.6L206.8 327.6L206.8 327.6L206.8 327.6L206.7 327.6L206.6 327.6L206.6 327.7L206.6 327.7L206.5 327.7L206.5 327.7L206.2 327.8L206.2 327.8L206.2 327.8L206.1 327.8L206.1 327.8L206.0 327.9L206.0 327.9L205.9 327.9L205.9 327.9L205.9 327.9L205.8 328.0L205.8 328.0L205.8 328.0L205.7 328.0L205.7 328.0L205.6 328.1L205.6 328.1L205.5 328.1L205.5 328.2L205.5 328.2L205.4 328.2L205.4 328.3L205.3 328.3L205.3 328.3L205.3 328.4L203.8 329.2L204.1 330.9L204.1 330.9L204.1 331.1L204.1 331.2L204.0 332.0L204.0 332.1L204.0 332.1L204.0 332.2L204.0 332.2L203.9 332.3L203.9 332.4L203.9 332.4L203.9 332.4L203.9 332.5L203.9 332.5L203.9 332.7L203.9 332.7L203.9 332.8L203.9 332.8L203.9 332.8L203.9 332.9L204 332.9L204.0 333.0L204.0 333.1L204.0 333.1L204.0 333.2L204.1 334.3L203.8 336.1L202.7 338.3L201.0 339.9L198.7 340.9L198.7 340.9L197.0 341.0L197.0 341.0L194.5 340.4L192.5 338.9L192.4 338.8L192.4 338.8L192.3 338.8L192.3 338.7L192.3 338.7L192.2 338.7L192.2 338.6L192.2 338.6L192.2 338.6L192.1 338.6L192.1 338.6L192.1 338.5L192.1 338.5L192.0 338.5L192.0 338.5L191.9 338.4L191.9 338.4L191.9 338.4L190.4 337.0L189.6 335.6L189.0 337.1L187.8 338.6L187.7 338.7L187.7 338.7L187.6 338.8L187.6 338.8L187.6 338.8L187.6 338.8L187.5 338.9L187.5 338.9L187.4 339.0L187.4 339.1L187.3 339.1L187.3 339.1L187.3 339.1L187.3 339.2L187.3 339.2L187.2 339.3L187.2 339.3L187.2 339.3L187.1 339.5L187.1 339.5L187.1 339.5L187.0 339.6L187.0 339.6L187.0 339.6L187.0 339.7L187.0 339.7L186.9 339.7L186.9 339.8L186.9 339.8L186.9 339.9L186.9 339.9L186.9 340L186.8 340.0L185.7 341.9L184.1 343.3L184.0 343.4L183.9 343.5L183.9 343.5L183.9 343.5L183.8 343.5L183.8 343.5L183.8 343.6L183.8 343.6L183.7 343.6L183.7 343.6L183.6 343.7L183.6 343.7L183.6 343.7L183.5 343.8L183.4 343.9L183.4 343.9L183.3 343.9L183.3 344.0L183.3 344.0L183.3 344.0L183.3 344.1L183.2 344.1L183.2 344.1L183.1 344.2L183.1 344.2L183.1 344.2L183.1 344.3L183.0 344.3L183.0 344.4L183.0 344.4L182.9 344.5L181.5 346.1L179.7 347.2L177.6 347.7L177.0 347.7L176.4 347.7L176.1 347.6L176.0 347.6L175.9 347.6L175.9 347.6L175.9 347.6L175.8 347.6L175.7 347.6L175.7 347.6L175.6 347.6L175.6 347.6L175.4 347.6L175.4 347.6L175.3 347.6L175.2 347.6L175.2 347.6L175.1 347.6L175.1 347.6L175.0 347.6L175.0 347.6L174.9 347.6L173.8 347.7L173.7 347.7L172.0 347.4L173.8 345.1L175.6 339.5L174.2 335.0L176.0 330.8L173.9 327.7L174.4 323.4L168.0 324.3L167.3 325.1L167.1 324.4L167.1 324.4L167.2 323.3L167.3 322.7L167.3 322.6L167.3 322.6L167.3 322.5L167.3 322.5L167.3 322.4L167.3 322.4L167.3 322.3L167.4 322.3L167.4 322.3L167.4 322.2L167.4 322.2L167.4 322.2L167.4 322.1L167.4 322.1L167.4 322.1L167.4 322.0L167.4 322.0L167.4 321.7L167.4 321.7L167.4 321.6L167.4 321.6L167.4 321.6L167.4 321.5L167.4 321.5L167.3 321.4L167.3 321.4L167.3 321.3L167.3 321.3L167.3 321.2L167.3 321.2L167.3 321.2L167.3 321.1L167.3 321.0L167.3 321.0L167.2 320.9L167.2 320.9L167.2 320.9L167.2 320.8L167.2 320.8L167.2 320.7L167.2 320.7L167.2 320.7L167.2 320.6L167.1 320.6L167.1 320.6L167.1 320.6L169.5 318.9L170.2 315.9L173.3 312.5L181.0 309.7L187.0 310.0 Z M 159.5 255.4L158.4 254.3L157.4 252.4L157.0 250.3L157.4 248.2L158.3 246.3L159.8 244.9L161.6 243.9L163.7 243.5L163.7 243.5L164.9 243.6L164.9 243.6L165.4 243.8L166.0 243.6L166.0 243.6L167.3 243.6L167.3 243.6L168.6 243.7L169.3 243.9L169.3 243.9L170.5 244.5L171.6 243.9L171.6 243.9L173.8 243.5L173.8 243.5L175.5 243.8L177.2 244.5L177.2 244.5L178.3 245.3L179.6 244.8L179.7 244.8L179.8 244.8L179.8 244.8L179.8 244.8L179.9 244.8L179.9 244.7L180.0 244.7L180.0 244.7L180.1 244.7L180.1 244.7L180.2 244.6L180.2 244.6L180.2 244.6L180.3 244.6L180.3 244.6L180.4 244.6L180.4 244.5L180.4 244.5L180.5 244.5L180.5 244.5L180.6 244.4L182.3 243.8L184.1 243.6L184.1 243.6L186.0 243.9L187.7 244.7L189.1 246.0L189.2 246.1L188.8 246.1L187.7 250.4L183.5 251.3L180.1 254.3L176.4 253.9L171.9 250.6L171.0 248.7L170.2 250.3L171.8 256.2L171.5 256.6L170.5 256.0L169.4 256.6L169.3 256.6L169.1 256.6L168.3 256.3L166.4 253.3L161.1 249.8L158.6 252.4 Z M 143.7 194.2L143.6 193.6L143.6 193.6L143.6 193.1L143.7 192.1L143.7 192.0L143.7 192.0L143.7 191.9L143.7 191.9L143.7 191.8L143.7 191.7L143.7 191.7L143.7 191.7L143.7 191.6L143.7 191.6L143.7 191.3L143.7 191.3L143.7 191.3L143.7 191.2L143.7 191.2L143.7 191.1L143.7 191.0L143.7 191.0L143.7 190.9L143.7 190.9L143.6 189.9L143.9 188.0L147.0 189.9L146.7 191.7 Z M 144.3 186.9L144.9 185.8L146.6 184.2L148.6 183.3L150.9 183.1L151.4 183.2L151.5 183.2L151.5 183.2L151.6 183.2L151.7 183.2L151.7 183.2L151.8 183.2L151.8 183.2L146.5 188.3 Z M 154.2 183.1L154.7 183.1L156.9 183.9L158.7 185.3L159.9 187.3L160.4 189.5L160.2 191.5L159.4 193.3L158.2 194.8L158.1 194.9L158.0 194.9L158.0 194.9L158.0 194.9L158.0 195.0L157.9 195.0L157.9 195.0L157.9 195.1L157.8 195.1L157.8 195.1L157.7 195.2L157.7 195.3L157.7 195.3L157.7 195.3L157.7 195.3L157.6 195.4L157.6 195.4L157.6 195.4L157.6 195.5L157.5 195.5L157.5 195.6L157.5 195.6L157.4 195.7L157.4 195.7L157.4 195.8L157.4 195.8L157.3 195.8L157.3 195.9L157.3 195.9L157.3 196.0L157.3 196.0L157.3 196.0L157.2 196.1L157.2 196.1L157.2 196.1L157.2 196.2L157.2 196.2L157.2 196.3L157.1 196.4L157.1 196.4L157.1 196.5L157.1 196.5L157.1 196.6L157.1 196.7L157.0 196.8L157.0 196.8L157.0 197.0L157.0 197.3L157.0 197.4L156.9 197.7L156.9 197.9L156.9 197.9L156.9 198.0L156.9 198.0L156.9 198.0L156.9 198.1L156.9 198.3L156.9 198.3L156.9 198.4L156.9 198.4L156.9 198.4L156.9 198.5L156.9 198.5L156.9 198.7L156.9 198.8L157.0 199.6L157.0 200.1L156.9 201.0L156.9 201.0L156.9 201.1L156.9 201.1L156.9 201.1L154.9 202.7L151.5 207.0L150.7 206.5L151.0 211.9L149.1 213.0L146.8 213.3L146.8 213.3L145.6 213.2L145.3 213.0L145.4 210.0L147.8 205.4L145.6 207.7L145.5 207.0L149.4 200.1L147.5 200.8L148.3 194.7L151.7 190.8L155.9 190.9L158.3 188.3L159.2 186.3L156.3 190.2L152.3 189.1L152.8 187.6L155.5 186.4L153.4 186.7L152.8 185.2 Z M 156.9 201.7L156.9 201.8L156.9 201.8L156.9 201.9L156.9 201.9L156.9 202.0L156.9 202.0L156.9 202.0L156.9 202.1L156.9 202.1L156.9 204.3L156.9 204.3L156.8 204.9L155.7 207.2L153.8 209L153.7 209.0L153.7 209.0L153.7 209.1L153.6 209.1L153.6 209.1L153.6 209.1L153.5 209.2L153.5 209.2L153.5 209.2L153.4 209.2L153.4 209.3L153.3 209.3L153.3 209.4L153.3 209.4L153.2 209.4L153.2 209.5L153.2 209.5L153.1 209.5L153.1 209.6L153.1 209.6L152.9 209.7L152.9 209.8L152.9 209.8L152.9 209.8L152.8 209.9L152.8 209.9L152.8 210.0L152.7 210.1L152.5 210.3L153.3 206.8L155.7 202.8 Z M 141.3 210.1L140.7 209.2L140.2 207.0L140.2 206.8L140.2 206.3L140.3 205.5L140.3 205.4L140.3 205.4L140.3 205.4L140.3 205.3L140.4 205.2L140.4 205.2L140.4 205.1L140.4 205.1L140.4 205.0L140.4 204.8L145.3 201.0L145.5 202.7 Z M 139.4 426.5L139.5 426.4L141.4 425.4L143.5 425.0L143.5 425.0L144.5 425.0L146.5 425.7L148.3 426.9L149.2 428.1L149.0 429.9L146.5 431.2L145.6 433.0L143.5 428.7 Z M 145.8 166.8L146.7 167.0L146.7 167.1L148.6 168.5L149.4 169.8L148.5 169.9L145.5 167.4 Z M 149.5 170.0L149.8 170.4L150.3 172.7L150.3 173.2L150.3 173.2L150.2 174.0L149.7 175.8L148.6 177.4L148.6 177.4L147.1 178.8L145.1 179.5L143.1 179.7L143.1 179.7L140.8 179.1L138.8 177.7L138.8 177.7L141.4 177.2L143.4 178.8L144.6 177.1L143.6 175.6L147.5 174.4L146.1 173.2L142.3 173.2L144.9 168.8L148.2 170.4 Z M 136.9 173.0L137.1 171.6L137.8 170.8L138.6 171.8L137.4 173.7 Z M 140.5 167.1L141.2 166.7L143.2 166.3L143.5 166.3L142.5 167.6L140.8 168.1 Z M 244.9 407.2L242.4 410.4L239.7 411.3L234.6 408.1L232.8 408.3L239.0 404.1L243.5 405.3 Z M 246.9 401.8L247.2 403.9L245.7 403.5 Z M 291.5 380.3L290.4 381.0L287.3 380.4L286.8 377.9L290.5 378.7 Z M 164.6 308.8L164.8 311.0L162.6 309.3L162.6 307.8 Z M 176.8 308.9L169.7 315.4L166.9 313.3L165.1 309.7L165.2 305.3L168.5 304.1L171.6 305.0L172.8 308.1 Z M 145.9 200.4L144.7 200.7L145.9 199.4 Z M 147.5 197.3L146.7 199.8L146.8 197.0 Z M 148.0 194.8L147.2 196.8L146.8 195.5 Z M 149.8 191.5L148.9 192.7L148.6 191.6 Z M 149.8 191.5 "/>
<path style=" stroke:none;fill-rule:nonzero;fill:rgb(77.6%,78.8%,62.3%);fill-opacity:1;" d="M 52.6 278.2L53.1 277.6L54.4 276.5L56.1 275.7L57.8 275.4L58.0 275.4L58.2 275.4L58.2 275.4L58.3 275.4L58.4 275.4L58.4 275.4L58.4 275.4L58.5 275.4L58.5 275.4L58.6 275.4L58.6 275.4L58.6 275.4L58.7 275.4L58.8 275.3L58.9 275.3L59.0 275.3L59.0 275.3L59.0 275.3L59.1 275.3L59.1 275.2L59.2 275.2L59.3 275.2L59.3 275.2L59.3 275.2L59.4 275.1L59.5 275.1L59.5 275.1L59.5 275.1L59.6 275.1L59.6 275.1L59.6 275.0L59.6 275.0L59.7 275.0L59.7 275.0L59.7 275.0L59.8 275.0L59.8 274.9L59.9 274.9L59.9 274.9L60.0 274.8L60.0 274.8L60.0 274.8L60.1 274.8L60.1 274.8L60.1 274.7L60.1 274.7L60.2 274.7L60.2 274.7L60.3 274.5L60.4 274.5L60.4 274.5L62.5 273.1L64.9 272.6L64.9 272.6L66.0 272.7L66.0 272.7L66.1 272.7L66.1 272.7L66.1 272.7L66.2 272.7L66.2 272.7L66.2 272.7L66.3 272.7L66.3 272.7L66.6 272.7L66.7 272.7L66.7 272.7L66.7 272.7L66.8 272.7L66.8 272.7L66.8 272.7L66.9 272.7L67 272.7L67.0 272.7L67.0 272.7L67.1 272.7L67.1 272.7L67.1 272.7L67.2 272.6L67.3 272.6L67.3 272.6L67.3 272.6L67.4 272.6L67.5 272.6L67.5 272.6L67.5 272.6L67.6 272.6L67.6 272.5L67.6 272.5L67.7 272.5L67.7 272.5L67.7 272.5L67.8 272.5L67.8 272.4L67.9 272.4L67.9 272.4L67.9 272.4L68.0 272.4L68.0 272.4L68.0 272.3L68.1 272.3L68.1 272.3L68.1 272.3L68.2 272.3L68.4 272.2L68.4 272.1L68.4 272.1L68.4 272.1L68.5 272.1L68.5 272.0L68.5 272.0L68.6 272.0L68.6 272.0L68.7 271.9L68.7 271.9L68.7 271.9L68.8 271.8L68.8 271.8L68.9 271.7L68.9 271.7L68.9 271.7L68.9 271.6L69.0 271.6L69.1 271.5L69.1 271.5L69.1 271.5L69.1 271.4L69.2 271.4L69.2 271.4L69.2 271.3L69.2 271.3L69.3 271.2L69.3 271.2L69.3 271.1L69.4 271.1L69.4 271.0L69.4 271.0L69.4 271.0L69.4 271L69.5 270.9L69.5 270.9L69.5 270.8L69.5 270.8L69.5 270.7L69.6 270.7L69.6 270.7L69.6 270.6L69.6 270.6L69.6 270.5L69.7 270.3L69.7 270.3L69.7 270.2L69.7 270.2L69.7 270.2L69.7 270.1L69.8 270.0L69.8 270.0L69.8 269.9L69.8 269.9L69.8 269.8L69.8 269.8L69.8 269.7L69.8 269.7L69.8 269.6L69.8 269.6L69.8 269.6L69.8 269.5L69.8 269.5L69.8 269.4L69.8 269.4L69.8 269.3L69.8 269.3L69.8 269.2L69.8 269.1L69.8 269.1L69.8 269.1L69.8 269.0L69.8 269.0L69.8 268.9L69.8 268.9L69.8 268.8L69.8 268.7L69.8 268.7L69.8 268.6L69.7 268.5L69.7 268.5L69.6 267.5L69.5 266.3L69.7 265.1L69.7 265.1L69.7 265.0L69.8 265.0L69.8 265.0L76.0 266.5L79.1 268.4L78.4 266.8L80.0 265.9L79.6 264.5L77.7 263.8L77.6 262.9L82.0 260.0L86.6 258.6L89.3 253.9L86.8 254.1L85.6 253.7L83.1 255.0L83.5 254.2L83.3 253.7L80.1 253.6L78.0 252.9L76.8 252.1L76.7 252.0L76.7 252.0L76.6 251.8L76.6 251.8L76.6 251.8L76.6 251.8L76.5 251.7L76.5 251.7L76.5 251.7L76.5 251.6L76.4 251.6L76.4 251.6L76.4 251.5L76.3 251.4L76.0 251.1L75.8 250.5L77.1 248.9L78.7 248.0L82.5 248.3L82.2 247.8L83.0 247.8L81.9 246.1L82.3 245.6L86.6 245.4L85.7 245.0L85.7 243.9L84.1 242.5L84.7 241.6L84.6 239.7L86.8 238.0L87.9 234.9L88.8 234.5L91.1 234.9L94.6 232.8L97.0 235.3L97.6 232.8L98.3 232.1L100.7 236.4L100.6 233.8L99.5 233.5L99.3 232.6L100.4 231.6L101.9 231.3L104 236.6L101.9 241.1L101.1 241.5L101.0 241.5L101.0 241.5L100.7 241.6L100.7 241.6L100.7 241.6L100.6 241.6L100.6 241.6L100.5 241.6L100.5 241.7L100.5 241.7L100.4 241.7L100.4 241.7L100.4 241.7L100.3 241.7L100.3 241.8L100.2 241.8L100.1 241.9L100.1 241.9L100.0 242.0L100.0 242.0L99.9 242.0L99.9 242.0L99.9 242.0L99.8 242.1L99.8 242.1L99.8 242.1L99.7 242.2L99.7 242.2L99.6 242.2L99.6 242.3L99.6 242.3L99.6 242.3L99.5 242.3L99.5 242.4L99.5 242.4L99.4 242.5L99.4 242.5L99.4 242.5L99.3 242.6L99.2 242.7L99.2 242.7L99.2 242.8L99.2 242.8L99.1 242.8L99.1 242.9L99.1 242.9L99.1 243.0L99.0 243.0L99.0 243.0L99.0 243.1L99.0 243.1L99.0 243.1L98.9 243.2L98.9 243.2L98.9 243.2L98.9 243.3L98.8 243.3L98.8 243.4L98.8 243.5L98.8 243.5L98.8 243.5L98.7 243.7L98.7 243.8L98.7 243.8L98.7 243.8L98.7 243.9L98.7 243.9L98.6 244.1L98.6 244.1L98.6 244.1L98.6 244.2L98.6 244.2L98.6 244.2L98.6 244.3L98.6 244.3L98.6 244.4L98.6 244.4L98.6 244.4L98.6 244.5L98.6 244.5L98.6 244.5L98.6 244.6L98.6 244.6L98.6 244.8L98.6 244.8L98.6 244.9L98.6 244.9L98.6 245.0L98.6 245.0L98.6 245.1L98.6 245.1L98.6 245.2L98.6 245.2L98.6 245.2L98.6 245.3L98.6 245.3L98.6 245.4L98.7 245.5L98.7 245.5L98.7 245.6L98.7 245.6L98.7 245.6L98.7 245.7L98.7 245.7L98.7 245.7L98.7 245.8L98.8 245.9L98.8 245.9L98.8 245.9L98.8 246.0L98.8 246.0L98.8 246.1L98.9 246.1L98.9 246.2L98.9 246.2L98.9 246.2L99.0 246.3L99.0 246.3L99.0 246.4L99.0 246.4L99.0 246.4L99.1 246.5L99.1 246.6L99.2 246.6L99.2 246.7L99.2 246.7L99.2 246.7L99.3 246.8L99.3 246.8L99.3 246.8L99.4 246.9L99.4 246.9L99.5 247.0L100.9 249.6L101.0 250.0L101.0 250.1L101.0 250.1L101.0 250.2L101.1 250.3L101.1 250.3L101.1 250.3L101.1 250.4L101.1 250.4L101.1 250.5L101.1 250.5L101.2 250.6L101.2 250.6L101.2 250.7L101.2 250.7L101.2 250.7L101.2 250.8L101.3 250.8L101.3 250.8L101.3 250.9L101.3 250.9L101.3 250.9L101.3 251.0L101.4 251.0L101.4 251.0L101.4 251.1L101.5 251.2L101.5 251.2L101.5 251.3L101.6 251.3L101.6 251.4L101.6 251.4L101.6 251.4L101.6 251.4L101.7 251.5L101.7 251.5L101.7 251.5L101.7 251.6L101.8 251.6L101.8 251.6L101.8 251.7L101.9 251.7L101.9 251.7L101.9 251.7L101.9 251.8L102.0 251.8L102.0 251.8L102.0 251.8L102.1 251.9L102.1 251.9L102.2 252.0L102.2 252.0L102.3 252.0L102.3 252.1L102.3 252.1L102.3 252.1L102.4 252.1L102.4 252.1L102.5 252.2L102.5 252.2L102.6 252.3L102.6 252.3L102.7 252.3L102.7 252.3L102.7 252.3L102.8 252.4L102.8 252.4L102.8 252.4L102.9 252.4L102.9 252.4L103.0 252.5L103.0 252.5L103.1 252.5L104.8 253.5L106.2 255.1L107.0 256.9L107.1 257.0L107.1 257.0L107.1 257.2L107.1 257.2L107.1 257.3L107.2 257.3L107.2 257.3L107.2 257.4L107.2 257.5L107.3 257.5L107.3 257.5L107.3 257.6L107.3 257.6L107.3 257.6L107.3 257.7L107.4 257.7L107.4 257.8L107.4 257.8L107.4 257.8L107.5 257.9L107.5 258.0L107.6 258.0L107.6 258.0L107.6 258.1L107.6 258.1L107.6 258.1L107.7 258.2L107.7 258.2L107.7 258.2L107.8 258.3L107.8 258.3L107.9 258.4L107.9 258.4L107.9 258.4L107.9 258.5L108.0 258.5L108.0 258.5L108.1 258.6L108.1 258.6L108.1 258.6L108.2 258.7L108.2 258.7L108.2 258.7L108.3 258.7L108.3 258.7L108.3 258.8L108.3 258.8L108.4 258.8L108.4 258.8L108.5 258.9L108.5 258.9L108.5 258.9L108.6 259.0L108.7 259.0L108.7 259.0L108.7 259.0L108.8 259.0L108.8 259.1L108.8 259.1L108.9 259.1L108.9 259.1L109.0 259.1L109.0 259.1L109.0 259.2L109.1 259.2L109.1 259.2L109.1 259.2L109.3 259.3L109.3 259.3L109.4 259.3L109.5 259.3L109.5 259.3L109.6 259.3L109.6 259.3L109.6 259.3L109.7 259.3L109.7 259.4L109.7 259.4L109.8 259.4L109.8 259.4L109.9 259.4L109.9 259.4L110.0 259.4L110.0 259.4L110.0 259.4L110.1 259.4L110.1 259.4L110.1 259.4L110.2 259.4L110.3 259.4L110.3 259.4L110.3 259.4L110.4 259.4L110.5 259.4L110.5 259.4L110.6 259.4L110.6 259.4L110.7 259.4L110.7 259.4L110.7 259.4L110.8 259.4L110.9 259.4L110.9 259.3L110.9 259.3L111.0 259.3L111.0 259.3L111.1 259.3L111.1 259.3L111.1 259.3L111.2 259.3L111.2 259.3L111.3 259.2L111.4 259.2L111.4 259.2L111.5 259.2L111.5 259.2L111.6 259.1L111.6 259.1L111.7 259.1L111.7 259.1L111.8 259.1L111.8 259.0L111.8 259.0L111.9 259.0L111.9 259.0L111.9 259.0L112.0 259L112.0 258.9L112.0 258.9L112.1 258.9L112.1 258.9L112.2 258.8L112.2 258.8L112.2 258.8L112.2 258.8L112.3 258.7L112.3 258.7L112.4 258.7L112.4 258.6L112.5 258.6L112.5 258.6L112.6 258.5L113.9 257.6L114 257.6L114.0 257.5L114.0 257.5L114.1 257.5L114.2 257.4L114.2 257.4L114.3 257.4L114.3 257.3L114.3 257.3L114.4 257.3L114.4 257.3L114.4 257.2L114.5 257.2L114.5 257.2L114.5 257.2L114.6 257.1L114.6 257.1L114.6 257.1L114.6 257.1L114.7 257.0L114.7 257.0L114.7 257.0L114.8 257.0L114.8 256.9L114.8 256.9L114.9 256.8L114.9 256.8L115 256.7L115.0 256.7L115.0 256.6L115.0 256.6L115.1 256.6L115.1 256.6L115.1 256.5L115.1 256.5L115.2 256.5L115.3 256.3L115.3 256.3L115.3 256.2L115.3 256.2L115.3 256.2L115.3 256.1L115.4 256.1L115.4 256.1L115.4 256.0L115.4 256.0L115.4 255.9L115.5 255.9L115.5 255.9L115.5 255.8L115.5 255.8L115.5 255.8L115.5 255.7L115.5 255.7L115.5 255.7L115.6 255.6L115.6 255.5L115.6 255.5L115.6 255.5L115.6 255.4L115.6 255.4L115.6 255.3L115.6 255.3L115.7 255.3L115.7 255.2L115.7 255.2L115.7 255.2L115.7 255.1L115.7 255.1L115.7 255.0L115.7 255.0L115.7 254.9L115.7 254.9L115.7 254.9L115.7 254.8L115.7 254.8L115.7 254.8L115.7 254.7L115.7 254.5L115.7 254.4L115.7 254.4L115.7 254.3L115.7 254.3L115.7 254.3L115.7 254.2L115.7 254.2L115.7 254.2L115.7 254.1L115.7 254.1L115.7 254.1L115.7 254.0L115.7 254.0L115.7 253.9L115.6 253.9L115.6 253.9L115.6 253.8L115.6 253.8L115.6 253.8L115.6 253.7L115.6 253.7L115.6 253.7L115.5 253.4L115.5 253.4L115.5 253.3L115.5 253.3L115.5 253.3L115.4 253.2L114.8 250.4L114.8 250.4L115.1 248.4L116.1 246.5L117.5 245.0L117.6 245.0L117.6 245.0L117.6 245.0L117.7 244.9L117.7 244.9L117.8 244.8L117.9 244.7L117.9 244.7L118.0 244.6L118.0 244.6L118.0 244.6L118.1 244.5L118.1 244.5L118.1 244.5L118.1 244.4L118.1 244.4L118.2 244.4L118.2 244.4L118.2 244.3L118.2 244.3L118.3 244.3L118.3 244.2L118.3 244.2L118.4 244.1L118.4 244.1L118.4 244.0L118.4 244.0L118.5 244.0L118.5 243.9L118.5 243.9L118.5 243.8L118.5 243.8L118.6 243.8L118.6 243.7L118.6 243.7L118.8 243.3L118.8 242.9L118.8 242.9L119.5 240.9L120.7 239.3L122.3 238.1L124.3 237.4L124.3 237.4L126.2 237.3L128.2 237.8L129.8 238.9L131.1 240.4L131.9 242.2L132.2 244.3L131.7 246.4L131.7 246.4L131.3 247.1L131.3 247.6L131.3 247.6L131.3 247.7L131.3 247.7L131.3 247.8L131.3 247.9L131.3 247.9L131.3 248.0L131.3 248.0L131.3 248.0L131.3 248.1L131.3 248.3L131.3 248.3L131.3 248.3L131.3 248.4L131.3 248.4L131.3 248.5L131.3 248.5L131.3 248.6L131.3 248.7L131.3 248.7L131.3 248.7L131.3 248.8L131.3 248.8L131.3 248.8L131.4 249.0L131.4 249.0L131.6 250.1L131.6 250.8L131.5 251.6L131.5 251.7L131.5 251.8L131.5 251.8L131.5 251.8L131.5 251.9L131.5 251.9L131.5 251.9L131.5 252.0L131.5 252.0L131.5 252.2L131.5 252.3L131.5 252.3L131.5 252.4L131.5 252.4L131.5 252.4L131.5 252.5L131.5 252.5L131.5 252.6L131.5 252.6L131.5 252.6L131.6 252.7L131.6 252.7L131.6 252.8L131.6 252.8L131.6 252.9L131.6 253.0L131.6 253.0L131.6 253.0L131.6 253.1L131.7 253.3L131.7 253.4L131.8 253.4L131.8 253.4L131.8 253.5L131.8 253.6L131.8 253.6L131.9 253.6L131.9 253.7L131.9 253.7L131.9 253.7L131.9 253.8L131.9 253.8L132.1 254.0L132.1 254.0L132.1 254.1L132.1 254.1L132.2 254.1L132.2 254.2L132.2 254.2L132.2 254.2L132.3 254.3L132.3 254.3L132.4 254.4L132.5 254.5L132.5 254.5L132.5 254.6L132.6 254.6L132.6 254.6L132.7 254.7L132.7 254.7L132.7 254.7L132.8 254.7L132.8 254.8L132.8 254.8L132.8 254.8L132.9 254.8L132.9 254.9L132.9 254.9L133.0 254.9L133.0 254.9L133.0 254.9L133.1 255.0L133.2 255.0L133.2 255.0L133.3 255.1L133.3 255.1L133.3 255.1L133.4 255.1L133.4 255.2L133.5 255.2L133.5 255.2L134.5 255.8L134.6 255.8L134.6 255.8L134.7 255.9L134.7 255.9L134.7 255.9L134.8 255.9L134.8 255.9L134.8 256.0L134.9 256.0L134.9 256.0L134.9 256.0L135.0 256.1L135.0 256.1L135.0 256.1L135.1 256.1L135.1 256.1L135.2 256.1L135.3 256.2L135.3 256.2L135.3 256.2L135.4 256.2L135.4 256.2L135.5 256.3L135.5 256.3L135.6 256.3L135.7 256.3L135.7 256.3L135.7 256.3L135.9 256.4L135.9 256.4L136.0 256.4L136.0 256.4L136.1 256.4L136.1 256.4L136.1 256.4L136.2 256.4L136.2 256.4L136.3 256.4L136.3 256.4L136.3 256.4L136.4 256.4L136.6 256.4L136.6 256.4L136.7 256.4L136.7 256.4L136.7 256.4L136.8 256.4L136.8 256.4L136.8 256.4L136.9 256.4L137.0 256.4L137.0 256.4L137.0 256.4L137.1 256.4L137.1 256.4L137.2 256.3L137.2 256.3L137.3 256.3L137.3 256.3L137.4 256.3L137.4 256.3L137.4 256.3L137.7 256.2L137.7 256.2L137.7 256.2L137.8 256.2L137.8 256.1L137.8 256.1L137.9 256.1L138 256.1L138.5 255.9L137.7 257.8L141.3 256.4L144.8 256.5L145.9 258.0L147.4 263.6L146.7 267.1L145.7 268.3L144.9 266.8L145.3 264.0L145.0 262.0L143.5 260.3L142.5 260.4L143.2 264.9L142.5 267.5L144.6 267.9L144.9 270.1L143.9 271.4L142.6 272.2L138.4 271.7L136.8 276.8L134.4 279.1L132.8 279.4L127.7 275.2L131.5 280.3L131.3 280.9L130.4 281.3L126.6 280.2L126.1 282.8L126.5 284.1L128.5 287.0L128.5 289.0L127.4 290.9L131.3 297.5L130.4 300.3L129.7 300.9L129.8 301.2L129.7 301.3L129.5 301.3L129.6 301.5L130.3 303.6L130.4 304.0L130.4 304.2L129.2 304.4L128.6 305.2L130.4 308.3L131.5 314.1L131.7 320.1L126.8 330.8L126.1 335.5L122.6 341.4L120.1 341.9L122.7 345.9L122.6 347.7L121.6 348.4L117.3 348.1L115.3 346.9L113.3 346.6L112.8 345.6L110.9 348.3L109.8 349.0L109.6 346.7L108.4 344.7L108.3 347.7L107.5 348.7L106.1 349.0L105.3 348.3L99.1 348.7L94.7 349.6L93.3 349.4L91.4 348.3L89.9 346.7L89.1 344.6L89.0 344.5L89.0 344.5L89.0 344.4L89.0 344.4L89.0 344.4L89.0 344.3L89.0 344.3L88.9 344.2L88.9 344.2L88.9 344.1L88.9 344.1L88.9 344.0L88.8 344.0L88.8 343.9L88.8 343.9L88.8 343.9L88.8 343.8L88.7 343.8L88.7 343.7L88.7 343.7L88.7 343.7L88.7 343.6L88.6 343.6L88.6 343.6L88.6 343.5L88.6 343.5L88.6 343.5L88.5 343.4L88.5 343.4L88.5 343.3L88.5 343.3L88.4 343.3L88.1 342.8L88.1 342.8L87.9 342.5L87.9 342.4L87.8 342.4L87.8 342.3L87.8 342.3L87.8 342.2L87.7 342.2L87.7 342.1L87.7 342.1L87.7 342.1L87.6 342.1L87.6 342.0L87.6 342.0L87.5 341.9L87.5 341.9L87.5 341.8L87.4 341.8L87.4 341.7L87.3 341.7L87.3 341.6L87.2 341.6L87.2 341.6L87.2 341.6L87.2 341.5L87.1 341.5L87.1 341.4L87.0 341.4L87.0 341.4L87.0 341.4L86.9 341.3L86.9 341.3L86.8 341.3L86.8 341.3L86.8 341.2L86.6 341.1L86.6 341.1L86.6 341.1L86.5 341.1L86.5 341.1L86.5 341.0L86.4 341.0L86.4 341.0L86.3 341.0L86.3 341.0L86.3 341.0L86.2 340.9L86.2 340.9L86.2 340.9L86.1 340.9L86.1 340.9L85.9 340.8L85.9 340.8L85.8 340.8L85.8 340.8L85.7 340.8L85.7 340.8L85.7 340.8L85.6 340.7L85.5 340.7L85.5 340.7L85.5 340.7L85.4 340.7L85.4 340.7L85.3 340.7L85.3 340.7L85.2 340.7L85.2 340.7L85.1 340.7L85.1 340.7L85.0 340.7L85.0 340.7L84.9 340.7L84.8 340.7L84.8 340.7L84.7 340.7L84.7 340.7L84.6 340.7L84.6 340.7L84.6 340.7L84.5 340.7L84.5 340.7L84.4 340.7L84.4 340.7L84.3 340.7L84.3 340.7L84.3 340.7L84.2 340.8L84.1 340.8L84.1 340.8L84.1 340.8L84.0 340.8L84.0 340.8L83.8 340.9L83.7 340.9L83.7 340.9L83.6 340.9L83.6 341.0L83.6 341.0L83.5 341.0L83.5 341.0L83.4 341.0L83.4 341.0L83.4 341.1L83.3 341.1L83.3 341.1L83.2 341.2L83.2 341.2L83.0 341.3L83.0 341.3L83.0 341.3L83.0 341.3L82.9 341.3L82.9 341.4L82.9 341.4L82.8 341.4L82.8 341.4L82.8 341.5L82.7 341.6L82.6 341.6L82.6 341.6L82.6 341.7L82.5 341.7L82.5 341.7L82.4 341.8L82.4 341.8L82.4 341.9L82.3 341.9L82.3 342.0L81.4 342.9L79.3 344.1L77.0 344.5L76.5 344.5L76.0 344.4L74.3 343.9L72.7 343.0L71.5 341.7L71.5 341.6L71.5 341.6L71.4 341.6L71.4 341.5L71.4 341.5L71.4 341.5L71.3 341.4L71.3 341.4L71.2 341.3L71.2 341.3L71.2 341.3L71.1 341.2L71.1 341.2L71.1 341.2L71.1 341.1L71.0 341.1L71.0 341.1L71.0 341.1L70.9 341.0L70.9 341.0L70.8 341.0L70.8 340.9L70.8 340.9L70.8 340.9L70.7 340.9L70.7 340.8L70.7 340.8L70.6 340.8L70.6 340.8L70.5 340.7L70.5 340.7L70.4 340.7L70.4 340.7L70.4 340.6L70.3 340.6L70.3 340.6L70.3 340.6L70.2 340.6L70.2 340.6L70.2 340.5L70.1 340.5L70.1 340.5L70.0 340.5L70.0 340.5L69.9 340.4L69.8 340.4L69.8 340.4L69.8 340.4L69.7 340.3L69.6 340.3L69.6 340.3L69.5 340.3L69.5 340.3L69.4 340.3L69.3 340.3L69.3 340.3L69.3 340.3L69.2 340.3L69.2 340.2L69.1 340.2L69.1 340.2L69.0 340.2L69.0 340.2L69.0 340.2L68.9 340.2L68.9 340.2L68.9 340.2L68.8 340.2L68.7 340.2L68.6 340.2L68.6 340.2L68.5 340.2L68.5 340.2L68.5 340.2L68.4 340.2L68.4 340.2L68.3 340.2L68.3 340.3L68.2 340.3L67.6 340.3L67.2 340.3L67.1 340.3L67.0 340.3L67.0 340.3L66.9 340.3L66.9 340.3L66.8 340.4L66.8 340.4L66.7 340.4L66.7 340.4L66.7 340.4L66.6 340.4L66.5 340.4L66.4 340.4L66.4 340.4L66.3 340.4L66.3 340.5L66.3 340.5L66.2 340.5L66.1 340.5L66.0 340.5L66.0 340.6L66 340.6L65.9 340.6L65.9 340.6L65.8 340.6L65.8 340.6L65.7 340.7L65.7 340.7L65.7 340.7L65.6 340.7L65.6 340.7L65.6 340.7L65.5 340.8L65.5 340.8L65.3 340.9L65.3 340.9L65.2 341.0L65.2 341.0L65.2 341.0L65.2 341.0L65.1 341.0L65.1 341.1L64.9 341.2L64.9 341.2L64.8 341.3L63.1 342.5L61.1 343.1L60.3 343.1L60.3 343.1L59.6 343.1L59.3 343.1L59.2 343.1L59.2 343.0L59.1 343.0L59.1 343.0L59.1 343.0L59.0 343.0L59.0 343.0L59.0 343.0L58.9 343.0L58.9 343.0L58.7 343.0L58.6 343.0L58.6 343.0L58.6 343.0L58.5 343.0L58.5 343.0L58.4 343.0L58.4 343.0L58.4 343.0L58.3 343.1L58.3 343.1L58.3 343.1L58.2 343.1L58.1 343.1L58.1 343.1L58.0 343.1L58.0 343.1L58.0 343.1L57.9 343.1L57.9 343.1L57.9 343.1L57.8 343.2L57.8 343.2L57.7 343.2L57.7 343.2L57.5 343.3L57.5 343.3L57.4 343.3L57.4 343.3L57.4 343.3L57.3 343.3L57.3 343.4L57.2 343.4L57.2 343.4L57.2 343.4L57.1 343.4L57.1 343.5L57.1 343.5L57.0 343.5L57.0 343.5L57.0 343.6L56.9 343.6L56.8 343.6L56.8 343.7L56.8 343.7L56.7 343.7L56.7 343.8L56.7 343.8L56.6 343.8L56.6 343.8L56.6 343.9L56.5 343.9L56.5 344L56.4 344.0L56.4 344.0L56.4 344.0L56.4 344.1L56.3 344.1L56.3 344.1L56.2 344.2L56.2 344.2L56.2 344.3L56.2 344.3L56.1 344.3L56.1 344.3L56.1 344.4L56.1 344.4L56.0 344.4L56.0 344.5L56.0 344.5L56.0 344.5L56.0 344.5L55.9 344.6L55.9 344.6L55.9 344.7L55.8 344.7L55.8 344.8L55.8 344.8L55.8 344.8L55.8 344.9L55.8 344.9L55.7 344.9L55.7 345.0L55.7 345.0L55.7 345.1L55.7 345.1L55.7 345.1L55.6 345.2L55.6 345.2L55.6 345.3L55.6 345.4L55.6 345.4L55.5 345.5L55.5 345.6L55.5 345.6L55.5 345.7L55.5 345.7L55.5 345.7L55.5 345.8L55.5 345.8L55.5 345.9L55.5 345.9L55.5 345.9L55.4 346.0L55.4 346.0L55.4 346.1L55.4 346.1L55.4 346.1L55.4 346.2L55.4 346.2L55.4 346.3L55.4 346.5L55.4 346.6L55.4 346.6L55.4 346.6L55.4 346.7L55.4 346.7L55.4 346.7L55.4 346.8L55.4 346.8L55.5 346.9L55.5 346.9L55.5 346.9L55.5 347.0L55.5 347.0L55.5 347.0L55.5 347.1L55.5 347.2L55.5 347.2L55.5 347.3L55.6 347.8L55.8 349.1L55.8 349.1L55.7 349.7L55.7 349.9L55.7 350.0L55.7 350.0L55.7 350.1L55.7 350.1L55.7 350.2L55.7 350.2L55.7 350.2L55.7 350.3L55.7 350.3L55.7 350.4L55.7 350.5L55.7 350.5L55.7 350.6L55.7 350.6L55.7 350.6L55.7 350.7L55.7 350.7L55.7 350.8L55.7 350.8L55.7 350.8L55.7 350.9L55.7 350.9L55.7 350.9L55.7 351.0L55.7 351.0L55.7 351.1L55.7 351.2L55.8 351.2L55.8 351.3L55.8 351.3L55.8 351.3L55.8 351.4L55.9 351.6L55.9 351.6L55.9 351.7L55.9 351.7L55.9 351.7L56.0 351.8L56.0 351.8L56.0 351.9L56.0 351.9L56.0 352.0L56.1 352.0L56.1 352.0L56.1 352.1L56.2 352.2L56.2 352.2L56.2 352.3L56.2 352.3L56.3 352.3L56.3 352.4L56.3 352.4L56.3 352.4L56.4 352.5L56.4 352.5L56.4 352.5L56.4 352.5L56.5 352.6L56.5 352.6L56.5 352.7L56.5 352.7L56.6 352.7L56.6 352.7L56.7 352.8L56.7 352.9L56.8 352.9L56.8 353.0L56.9 353.0L56.9 353.0L57.0 353.1L57.0 353.1L57.0 353.1L57.1 353.2L57.1 353.2L57.2 353.2L57.2 353.3L57.3 353.3L57.3 353.3L57.4 353.3L57.4 353.4L57.4 353.4L57.5 353.4L57.5 353.4L57.5 353.4L57.6 353.4L57.6 353.5L57.6 353.5L57.7 353.5L59.3 354.5L60.6 356.0L61.4 357.8L61.4 357.9L61.4 357.9L61.4 357.9L61.5 358.0L61.5 358.1L61.5 358.1L61.5 358.1L61.5 358.2L61.5 358.2L61.6 358.3L61.6 358.3L61.6 358.3L61.6 358.4L61.6 358.4L61.6 358.4L61.7 358.5L61.7 358.5L61.7 358.6L61.7 358.6L61.8 358.8L61.9 358.8L61.9 358.8L61.9 358.9L62 358.9L62.0 359.0L62.0 359.0L62.0 359.1L62.1 359.1L62.1 359.2L62.2 359.2L62.2 359.2L62.3 359.3L62.3 359.3L62.3 359.4L62.4 359.4L62.4 359.5L62.5 359.5L62.5 359.5L62.5 359.5L62.6 359.6L62.6 359.6L62.7 359.6L62.7 359.7L62.7 359.7L62.8 359.7L64.2 361.1L65.0 362.5L65.6 360.9L66.9 359.4L66.9 359.4L69.0 358.1L71.4 357.6L72.2 357.7L73.8 358.1L75.6 359.1L76.3 359.9L75.9 361.5L72.8 363.0L69.9 362.4L70.9 363.3L70.4 364.7L66.5 364.3L66.7 365.7L66.1 366.4L63.1 366.0L61.1 367.2L56.9 366.5L53.9 368.6L51.3 369.0L50.2 368.4L49.3 366.4L43.8 367.4L41.9 368.6L40.7 368.6L40.5 367.9L41.0 367.1L46.4 363.8L41.1 365.2L40.7 364.9L48.7 361.1L49.2 360.4L49.1 359.7L47.8 359.2L45.4 360.5L39.9 361.3L36.1 362.8L33.4 362.3L35.1 360.3L37.1 359.3L38.0 358.1L41.2 356.9L43.3 355.3L46.9 353.8L34.6 356.8L32.9 355.7L32.7 354.3L32.7 354.3L32.8 354.2L32.8 354.1L32.8 354.1L32.8 354.1L32.8 354.1L32.8 354.0L32.9 354.0L32.9 354.0L32.9 353.9L32.9 353.9L32.9 353.9L32.9 353.8L33 353.8L33.0 353.8L33.0 353.7L33.0 353.7L33.0 353.7L33.0 353.6L33.0 353.6L33.0 353.5L33.1 353.5L33.1 353.4L33.1 353.4L33.1 353.3L33.1 353.3L33.1 353.2L33.2 353.1L33.2 353.0L33.2 353.0L33.2 353.0L33.2 352.9L33.2 352.9L33.2 352.8L33.2 352.8L33.2 352.7L33.2 352.7L33.2 352.6L33.2 352.6L33.2 352.4L33.2 352.4L33.2 352.3L33.2 352.2L33.2 352.2L33.2 352.2L33.2 352.1L33.2 352.1L33.2 352.0L33.2 352.0L33.2 352L33.2 351.9L33.2 351.9L33.2 351.8L33.1 351.8L33.1 351.8L33.1 351.7L33.1 351.7L33.1 351.7L33.1 351.6L33.1 351.6L33.1 351.6L33.1 351.5L33.1 351.5L33.0 351.3L33.0 351.3L33.0 351.3L33.0 351.2L33.0 351.2L33.0 351.2L32.9 351.1L32.9 351.1L32.9 351.0L32.4 349.6L32.7 349.2L32.3 349.0L32.3 348.1L32.7 347.7L38.1 346.1L41.1 344.0L43.5 343.7L43.7 343.0L42.3 342.6L39.5 343.3L34.9 342.9L35.8 342.2L35.9 342.2L35.9 342.2L35.9 342.2L36.0 342.1L36.0 342.1L36.1 342.0L36.2 342.0L36.2 342.0L36.2 342.0L36.3 341.9L36.3 341.9L36.3 341.9L36.4 341.9L36.4 341.8L36.5 341.8L36.5 341.8L36.5 341.7L36.5 341.7L36.6 341.7L36.6 341.6L36.6 341.6L36.7 341.6L36.7 341.6L36.7 341.5L36.8 341.5L36.8 341.5L36.8 341.4L36.9 341.4L36.9 341.3L36.9 341.3L36.9 341.3L37.0 341.3L37.0 341.2L37.0 341.2L37.0 341.2L37.1 341.1L37.2 340.9L37.2 340.9L37.2 340.8L37.3 340.8L37.3 340.8L37.3 340.7L37.3 340.7L37.3 340.7L37.3 340.6L37.4 340.6L37.4 340.5L37.4 340.5L37.4 340.5L37.4 340.4L37.5 340.3L37.5 340.2L37.5 340.2L37.5 340.1L37.5 340.1L37.5 340.1L37.6 339.9L37.6 339.9L37.6 339.8L37.6 339.8L37.6 339.7L37.6 339.7L37.6 339.6L37.6 339.6L37.6 339.5L37.6 339.4L37.6 339.4L37.6 339.4L37.6 339.1L37.6 339.0L37.6 339.0L37.6 339.0L37.6 338.9L37.6 338.9L37.6 338.9L37.6 338.8L37.6 338.8L37.6 338.7L37.6 338.7L37.6 338.7L37.6 338.6L37.6 338.6L37.6 338.6L37.6 338.5L37.5 338.4L37.5 338.4L37.5 338.3L37.5 338.3L37.5 338.3L37.4 338.1L37.4 338.0L37.4 338.0L37.4 338.0L37.4 337.9L37.4 337.9L37.3 337.8L38.7 337.0L39.8 338.8L41.0 339.4L44.6 339.1L42.7 337.6L43.1 334.8L41.8 332.8L47.6 331.0L47.9 328.8L49.1 327.8L56.6 328.1L65.6 326.0L71.8 326.2L65.2 324.6L64.9 321.5L63.5 322.4L61.2 325.6L59.4 326.7L56.8 327.3L56.4 326.3L53.5 326.4L52.3 325.6L52.3 325.6L52.3 325.6L52.3 325.6L52.4 325.5L52.4 325.5L52.5 325.5L52.5 325.5L52.6 325.5L52.6 325.5L52.7 325.5L52.7 325.5L52.8 325.5L52.8 325.5L52.8 325.5L53.0 325.4L53.1 325.4L53.1 325.4L53.1 325.3L53.2 325.3L53.2 325.3L53.3 325.3L53.3 325.3L53.3 325.2L53.4 325.2L53.4 325.2L53.5 325.2L53.5 325.2L53.5 325.1L53.6 325.1L53.6 325.1L53.7 325.1L53.7 325.0L53.8 325.0L53.8 325.0L53.8 325.0L53.8 324.9L53.9 324.9L53.9 324.9L54.0 324.8L54.0 324.8L54.1 324.8L54.1 324.7L54.1 324.7L54.2 324.7L54.2 324.7L54.2 324.6L54.2 324.6L54.3 324.5L54.3 324.5L54.3 324.5L54.4 324.4L54.4 324.4L54.5 324.4L54.5 324.3L54.5 324.3L54.6 324.2L54.6 324.2L54.6 324.2L54.6 324.1L54.6 324.1L54.7 324.1L54.7 324.1L54.7 324.0L54.7 324.0L54.7 324.0L54.8 323.9L54.8 323.9L54.8 323.8L54.8 323.8L54.9 323.7L54.9 323.7L54.9 323.7L54.9 323.6L54.9 323.6L55.0 323.5L55.0 323.5L55.0 323.5L55.0 323.4L55.0 323.4L55.0 323.4L55.0 323.3L55.1 323.2L55.1 323.1L55.1 323.1L55.1 323.1L55.1 323.0L55.2 322.9L55.2 322.9L55.2 322.8L55.2 322.7L55.2 322.7L55.2 322.6L55.2 322.5L55.2 322.5L55.2 322.5L55.2 322.4L55.2 322.4L55.2 322.4L55.2 322.3L55.2 322.1L55.2 322.0L55.2 322.0L55.2 322.0L55.2 321.9L55.2 321.9L55.2 321.8L55.2 321.8L55.2 321.8L55.2 321.7L55.2 321.7L55.2 321.7L55.2 321.6L55.2 321.6L55.2 321.5L55.1 321.4L55.1 321.4L55.1 321.3L54.9 320.2L54.9 319.2L54.9 319.2L55.1 318.0L55.1 317.9L55.2 317.7L55.2 317.7L55.2 317.7L55.2 317.6L55.2 317.5L55.2 317.5L55.2 317.4L55.2 317.3L55.2 317.3L55.2 317.3L55.2 317.2L55.2 317.2L55.2 317.1L55.2 317.0L55.2 316.9L55.2 316.9L55.2 316.9L55.2 316.8L55.2 316.8L55.2 316.5L56.0 315.3L55.4 314.7L55.4 314.6L55.5 314.3L55.5 314.3L55.5 314.3L55.5 314.2L55.5 314.1L55.5 314.1L55.5 314.1L55.5 314.0L55.5 314.0L55.5 314L55.5 313.9L55.5 313.9L55.5 313.8L55.5 313.7L55.5 313.7L55.5 313.6L55.5 313.5L55.5 313.5L55.5 313.4L55.5 313.1L55.5 312.5L55.5 312.2L59.0 307.8L59.8 307.4L61.9 307.7L66.6 307.1L67.4 305.5L66.3 304.9L66.5 303.5L65.9 303.2L56.3 303.2L56.3 303.1L56.3 303.1L56.5 301.2L56.6 301.0L56.6 301.0L56.6 300.9L56.6 300.9L56.6 300.8L56.6 300.8L56.6 300.8L56.6 300.7L56.6 300.7L56.6 300.7L56.6 300.6L56.6 300.6L56.6 300.5L56.6 300.5L56.6 300.5L56.6 300.2L56.6 300.2L56.6 300.2L56.6 300.1L56.6 300.1L56.6 300.0L56.6 299.5L56.6 299.4L56.6 299.3L56.6 299.3L56.6 299.2L56.6 299.2L56.6 299.2L56.6 299.1L56.6 299.1L56.6 299.0L56.6 299.0L56.6 299.0L56.6 298.9L56.6 298.9L56.5 298.8L56.5 298.7L56.5 298.7L56.5 298.6L56.5 298.6L56.5 298.6L56.5 298.5L56.5 298.5L56.4 298.3L56.4 298.2L56.4 298.2L56.3 298.2L56.3 298.1L56.3 298.1L56.3 298.1L56.3 298.0L56.3 298.0L56.3 298.0L56.2 297.9L56.2 297.9L56.2 297.8L56.2 297.8L56.2 297.8L56.0 297.6L56.0 297.5L56.0 297.5L56.0 297.5L55.9 297.4L55.9 297.4L55.9 297.4L55.9 297.4L55.8 297.3L55.8 297.3L55.8 297.2L55.7 297.2L55.7 297.2L55.6 297.1L54.6 295.7L54.6 295.7L54.6 295.6L54.5 295.5L54.5 295.4L54.4 295.4L54.4 295.4L54.4 295.3L54.4 295.3L54.4 295.3L54.3 295.2L54.3 295.2L54.2 295.1L54.2 295.0L54.1 295.0L54.1 295.0L54.1 294.9L54.0 294.9L54.0 294.9L54.0 294.9L54.0 294.8L53.9 294.8L53.9 294.8L53.8 294.7L53.8 294.7L53.7 294.6L53.7 294.6L53.6 294.6L53.6 294.6L53.6 294.5L53.5 294.5L53.5 294.5L53.5 294.5L53.4 294.4L53.4 294.4L53.4 294.4L53.3 294.4L53.2 294.3L53.2 294.3L53.2 294.3L53.1 294.3L53.1 294.3L53.0 294.2L53.0 294.2L52.9 294.2L52.9 294.2L52.8 294.2L52.6 294.1L52.6 294.1L52.6 294.1L52.5 294.1L52.5 294.0L52.4 294.0L52.3 294.0L52.3 294.0L52.2 294.0L52.2 294.0L52.1 294.0L52.1 294.0L52.0 294.0L51.1 293.7L50.4 294.2L50.3 294.2L50.3 294.2L50.3 294.3L50.2 294.3L50.2 294.3L50.1 294.3L49.4 294.5L49.0 295.2L49.0 295.2L48.5 295.8L47.9 296.3L47.1 295.4L44.4 296.4L40.7 294.6L42.5 293.5L43.0 292.6L41.3 291.1L41.1 289.7L42.7 289.3L44.4 289.6L44.5 288.4L45.0 288.2L48.0 288.2L50.7 289.0L48.4 287.9L47.3 286.5L47.1 284.8L48.0 283.0L49.7 282.4L54.8 282.0L54.2 280.9L55.2 279.3L54.8 278.7 Z M 123.8 329.7L122.9 328.7L122.1 326.8L122.1 326.8L122.0 324.9L122.0 324.9L122.5 322.5L122.6 322.4L122.6 322.4L122.6 322.3L122.6 322.3L122.6 322.3L122.7 322.2L122.7 322.1L122.7 322.1L122.7 322.0L122.7 322.0L122.8 321.9L122.8 321.9L122.8 321.8L122.8 321.7L122.8 321.7L122.8 321.6L122.8 321.6L122.8 321.6L122.8 321.5L122.8 321.5L122.8 321.5L122.8 321.4L122.8 321.3L122.8 321.3L122.9 321.3L122.9 321.2L122.9 321.2L122.9 321.0L122.9 321.0L122.9 320.9L122.8 320.9L122.8 320.9L122.8 320.8L122.8 320.8L122.8 320.8L122.8 320.7L122.8 320.6L122.8 320.6L122.8 320.6L122.8 320.5L122.8 320.5L122.8 320.4L122.8 320.4L122.8 320.3L122.7 320.2L122.7 320.2L122.7 320.1L122.7 320.1L122.7 320.1L122.7 320.0L122.7 319.9L122.6 319.9L122.6 319.9L122.6 319.8L122.6 319.8L122.6 319.8L122.6 319.7L122.6 319.7L122.5 319.7L122.5 319.6L122.5 319.6L122.5 319.6L122.5 319.5L122.5 319.5L122.4 319.5L122.4 319.4L122.4 319.4L122.4 319.4L122.4 319.3L122.3 319.3L122.3 319.2L122.3 319.2L122.3 319.2L122.2 319.1L122.2 319.1L122.2 319.1L122.2 319.0L122.1 319.0L122.1 319.0L122.1 318.9L122.0 318.9L122.0 318.8L122.0 318.8L121.9 318.8L121.9 318.8L121.9 318.7L121.9 318.7L121.8 318.7L121.8 318.6L121.7 318.6L121.7 318.6L121.6 318.5L121.5 318.4L121.5 318.4L121.5 318.4L121.5 318.3L121.4 318.3L121.4 318.3L121.1 318.1L121.1 318.1L121.1 318.1L121.0 318.1L121.0 318.1L121.0 318.1L120.9 318.0L120.9 318.0L120.8 318.0L120.8 318.0L120.7 318.0L120.7 317.9L120.7 317.9L120.6 317.9L120.6 317.9L120.6 317.9L120.5 317.9L120.5 317.9L120.5 317.9L120.4 317.8L120.4 317.8L120.3 317.8L120.3 317.8L120.3 317.8L120.2 317.8L120.1 317.8L120.1 317.8L120.1 317.8L120.0 317.8L120.0 317.8L120 317.7L119.9 317.7L119.8 317.7L119.8 317.7L119.8 317.7L119.7 317.7L119.7 317.7L119.7 317.7L119.6 317.7L119.5 317.7L119.2 317.7L119.2 317.7L118.1 317.5L118.1 317.5L118.0 317.5L117.9 317.5L117.9 317.5L117.8 317.5L117.8 317.5L117.8 317.4L117.7 317.4L117.7 317.4L117.6 317.4L117.6 317.4L117.6 317.4L117.5 317.4L117.4 317.4L117.4 317.4L117.4 317.4L117.2 317.4L117.1 317.4L117.1 317.4L117.0 317.4L117.0 317.4L116.9 317.4L116.7 317.4L116.2 317.4L115.9 317.4L114.8 317.2L114.7 317.2L114.7 317.2L114.6 317.2L114.6 317.2L114.6 317.2L114.5 317.2L114.5 317.2L114.4 317.2L114.3 317.1L114.2 317.1L114.2 317.1L114.2 317.1L114.1 317.1L114.1 317.1L114.1 317.1L114.0 317.1L113.8 317.1L113.7 317.1L113.7 317.1L113.7 317.1L113.6 317.1L112.7 317.1L110.7 316.7L108.9 315.7L107.2 313.7L107.1 313.6L107.0 313.4L107.0 313.3L106.9 313.3L106.9 313.3L106.9 313.3L106.9 313.2L106.9 313.2L106.8 313.2L106.8 313.1L106.7 313.0L106.7 313.0L106.7 313.0L106.6 312.9L106.6 312.9L106.6 312.9L106.6 312.9L106.5 312.8L106.5 312.8L106.4 312.7L106.3 312.7L106.3 312.6L106.3 312.6L106.3 312.6L106.2 312.6L106.2 312.6L106.2 312.5L106.1 312.5L106.1 312.5L106.1 312.5L105.9 312.4L105.9 312.4L105.8 312.3L105.8 312.3L105.8 312.3L105.7 312.3L105.7 312.3L105.7 312.2L105.6 312.2L105.6 312.2L105.5 312.2L105.5 312.2L105.5 312.1L105.4 312.1L105.3 312.1L105.2 312.1L105.2 312.1L105.1 312.0L105.1 312.0L105.1 312.0L105.0 312.0L105.0 312.0L105.0 312.0L104.9 312.0L104.9 312.0L104.8 312.0L104.8 312.0L104.8 312.0L104.7 312.0L104.7 311.9L104.7 311.9L104.6 311.9L104.6 311.9L104.6 311.9L104.5 311.9L104.4 311.9L104.4 311.9L104.4 311.9L104.3 311.9L104.3 311.9L104.1 311.9L104.1 311.9L104.0 311.9L104.0 311.9L104.0 311.9L103.9 311.9L103.9 311.9L103.8 311.9L103.8 311.9L103.8 311.9L103.7 312L103.7 312.0L103.6 312.0L103.6 312.0L103.5 312.0L103.4 312.0L103.4 312.0L103.3 312.0L103.3 312.0L103.3 312.0L103.2 312.1L103.2 312.1L103.1 312.1L103.1 312.1L103.1 312.1L103.0 312.1L103.0 312.1L103.0 312.2L102.9 312.2L102.9 312.2L102.9 312.2L102.8 312.2L102.8 312.2L102.7 312.3L102.7 312.3L102.7 312.3L102.6 312.3L102.6 312.4L102.5 312.4L102.3 312.5L102.3 312.5L102.3 312.5L102.2 312.6L102.2 312.6L102.2 312.6L102.2 312.6L102.1 312.6L102.1 312.7L102.0 312.7L102.0 312.7L102.0 312.8L102.0 312.8L101.9 312.8L101.8 312.9L101.8 312.9L101.8 312.9L101.8 313.0L101.7 313.0L101.7 313.0L101.7 313.1L101.6 313.1L101.6 313.1L101.6 313.2L101.6 313.2L100.2 314.5L100.1 314.6L100.1 314.6L100.1 314.6L100.0 314.6L100.0 314.6L100.0 314.7L99.9 314.7L99.9 314.7L99.9 314.8L99.8 314.8L99.8 314.8L99.8 314.8L99.7 314.9L99.7 314.9L99.7 314.9L99.7 314.9L99.6 315.0L99.6 315.0L99.6 315.0L99.6 315.1L99.5 315.1L99.5 315.2L99.4 315.2L99.4 315.3L99.4 315.3L99.4 315.3L99.3 315.3L99.3 315.4L99.3 315.4L99.2 315.6L99.1 315.6L99.1 315.7L99.1 315.7L99.1 315.8L99.1 315.8L99.0 315.8L99.0 315.9L99.0 315.9L99.0 316L99.0 316.0L99.0 316.0L99 316.1L98.9 316.1L98.9 316.2L98.9 316.2L98.9 316.2L98.9 316.3L98.9 316.3L98.9 316.3L98.8 316.4L98.8 316.4L98.8 316.4L98.8 316.5L98.8 316.5L98.8 316.6L98.8 316.6L98.8 316.7L98.8 316.7L98.8 316.7L98.8 316.8L98.7 316.8L98.7 316.9L98.7 316.9L98.7 316.9L98.7 317.0L98.7 317.1L98.7 317.1L98.7 317.2L98.7 317.2L98.7 317.4L98.7 317.4L98.7 317.5L98.7 317.5L98.7 317.5L98.7 317.6L98.7 317.6L98.7 317.6L98.7 317.7L98.7 317.7L98.7 317.8L98.8 317.8L98.8 318.4L98.8 318.4L98.5 320.9L98.5 320.9L98.5 321.0L98.5 321.0L98.4 321.1L98.4 321.2L98.4 321.2L98.4 321.3L98.4 321.3L98.4 321.3L98.4 321.4L98.4 321.4L98.4 321.4L98.4 321.5L98.3 321.5L98.3 321.5L98.3 321.6L98.3 321.6L98.3 321.7L98.3 321.7L98.3 321.7L98.3 321.8L98.3 321.8L98.3 321.8L98.3 322.0L98.3 322.1L98.3 322.1L98.3 322.2L98.3 322.2L98.3 322.3L98.3 322.3L98.3 322.3L98.3 322.4L98.4 322.4L98.4 322.5L98.4 322.5L98.4 322.5L98.4 322.6L98.4 322.6L98.4 322.7L98.4 322.8L98.4 322.8L98.4 322.8L98.5 322.9L98.5 322.9L98.5 323.1L98.5 323.1L98.6 323.2L98.6 323.2L98.6 323.3L98.6 323.3L98.6 323.4L98.6 323.4L98.7 323.4L98.7 323.5L98.7 323.5L98.7 323.5L98.7 323.6L98.7 323.6L98.8 323.6L98.8 323.6L98.9 323.8L98.9 323.9L98.9 323.9L99.0 323.9L99.0 324.0L99.0 324.0L99.1 324.0L99.1 324.1L99.1 324.1L99.2 324.2L99.2 324.2L99.2 324.3L99.4 324.4L100.1 325.3L100.1 325.3L100.2 325.3L100.2 325.4L100.2 325.4L100.2 325.4L100.3 325.5L100.3 325.6L100.4 325.6L100.4 325.6L100.4 325.6L100.4 325.7L100.5 325.7L100.5 325.7L100.6 325.8L100.6 325.9L100.7 325.9L100.7 325.9L100.8 326.0L100.8 326.0L100.8 326.0L100.9 326.1L100.9 326.1L100.9 326.1L101.0 326.1L101.0 326.2L101.0 326.2L101.1 326.2L101.1 326.2L101.1 326.2L101.2 326.3L101.2 326.3L101.3 326.3L101.3 326.3L101.3 326.4L101.4 326.4L101.4 326.4L101.5 326.4L101.5 326.4L101.6 326.5L101.6 326.5L101.6 326.5L101.7 326.5L101.7 326.5L101.9 326.6L102.0 326.6L102.0 326.6L102.0 326.6L102.1 326.6L102.2 326.6L102.2 326.7L102.3 326.7L102.3 326.7L102.4 326.7L102.4 326.7L102.4 326.7L102.5 326.7L102.5 326.7L102.5 326.7L102.6 326.7L102.6 326.7L102.6 326.7L102.7 326.7L102.7 326.7L102.8 326.7L102.9 326.7L102.9 326.7L102.9 326.7L103.0 326.7L103.1 326.7L103.1 326.7L103.1 326.7L103.2 326.7L103.2 326.7L103.3 326.7L103.3 326.7L103.3 326.7L103.4 326.7L104.4 326.6L104.4 326.6L107.1 327.2L107.2 327.2L107.2 327.2L107.3 327.2L107.3 327.3L107.3 327.3L107.4 327.3L107.6 327.4L107.6 327.4L107.6 327.4L107.7 327.4L107.7 327.4L107.9 327.4L107.9 327.4L108.0 327.5L108.0 327.5L108.0 327.5L108.1 327.5L108.1 327.5L108.2 327.5L108.2 327.5L108.3 327.5L108.3 327.5L108.4 327.5L108.4 327.5L108.4 327.5L108.6 327.5L108.7 327.5L108.7 327.5L108.8 327.5L108.8 327.5L108.9 327.5L108.9 327.5L109.0 327.5L109.1 327.5L109.1 327.5L109.1 327.4L109.2 327.4L109.2 327.4L109.3 327.4L109.3 327.4L109.4 327.4L110.7 327.2L110.7 327.2L112.2 327.3L112.5 327.3L114.6 328.1L116.2 329.6L116.3 329.7L116.4 329.7L116.4 329.7L116.4 329.8L116.4 329.8L116.5 329.9L116.5 329.9L116.6 329.9L116.6 329.9L116.6 330.0L116.7 330.0L116.7 330.0L116.8 330.1L116.8 330.1L116.8 330.1L116.9 330.2L116.9 330.2L116.9 330.2L117.0 330.2L117.0 330.3L117.0 330.3L117.1 330.3L117.1 330.3L117.2 330.4L117.2 330.4L117.2 330.4L117.3 330.4L117.3 330.4L117.3 330.4L117.4 330.5L117.4 330.5L117.4 330.5L117.5 330.5L117.5 330.5L117.5 330.5L117.6 330.6L117.6 330.6L117.6 330.6L117.7 330.6L117.7 330.6L117.9 330.7L117.9 330.7L118.0 330.7L118.1 330.7L118.1 330.7L118.2 330.7L118.2 330.7L118.2 330.8L118.3 330.8L118.3 330.8L118.3 330.8L118.4 330.8L118.5 330.8L118.5 330.8L118.6 330.8L118.6 330.8L118.6 330.8L118.7 330.8L118.7 330.8L118.7 330.8L119.0 330.8L119.0 330.8L119.0 330.8L119.1 330.8L119.1 330.8L119.1 330.8L119.2 330.8L119.3 330.8L119.3 330.8L119.3 330.8L119.4 330.8L119.4 330.8L119.4 330.8L119.5 330.8L119.6 330.7L119.6 330.7L119.7 330.7L119.7 330.7L119.8 330.7L120.0 330.6L120.1 330.6L120.1 330.6L120.1 330.5L120.2 330.5L120.2 330.5L120.3 330.5L120.3 330.5L120.3 330.5L120.4 330.5L120.4 330.4L120.5 330.4L122.4 329.8 Z M 122.0 298.1L121.9 297.9L121.2 295.8L121.2 295.8L121.2 294.8L121.2 294.8L121.4 293.4L120.2 292.5L120.2 292.5L119.8 292.0L119.8 292.0L119.8 291.9L119.7 291.9L119.7 291.8L119.7 291.8L119.6 291.8L119.6 291.7L119.5 291.7L119.5 291.7L119.5 291.6L119.4 291.6L119.4 291.5L119.3 291.5L119.3 291.5L119.3 291.4L119.2 291.4L119.2 291.4L119.2 291.4L119.1 291.3L119.1 291.3L119.1 291.3L119.1 291.3L119.0 291.3L118.9 291.2L118.8 291.1L118.8 291.1L118.7 291.1L118.7 291.1L118.7 291.1L118.6 291.0L118.6 291.0L118.6 291.0L118.5 291.0L118.5 291.0L118.4 291.0L118.4 290.9L118.4 290.9L118.3 290.9L118.3 290.9L118.2 290.9L118.2 290.9L118.1 290.8L118.0 290.8L118.0 290.8L118.0 290.8L117.9 290.8L117.8 290.8L117.8 290.8L117.7 290.8L117.7 290.7L117.6 290.7L117.6 290.7L117.6 290.7L117.5 290.7L117.5 290.7L117.4 290.7L117.4 290.7L117.3 290.7L117.3 290.7L117.2 290.7L117.1 290.7L117.1 290.7L117.0 290.7L117.0 290.7L116.9 290.7L116.9 290.7L116.8 290.7L116.7 290.7L116.7 290.7L116.6 290.8L116.6 290.8L116.5 290.8L116.5 290.8L116.4 290.8L116.3 290.8L116.3 290.8L116.2 290.8L116.2 290.9L116.1 290.9L116.1 290.9L116.1 290.9L116.0 290.9L116.0 290.9L116.0 290.9L115.9 290.9L115.9 291.0L115.9 291.0L115.8 291.0L115.8 291.0L115.8 291.0L115.7 291.0L115.7 291.1L115.7 291.1L115.6 291.1L115.6 291.1L115.6 291.1L115.5 291.2L115.5 291.2L115.4 291.2L115.3 291.3L115.3 291.3L115.3 291.3L115.2 291.3L115.2 291.3L115.2 291.4L115.2 291.4L115.1 291.4L115.1 291.4L115.1 291.5L115.0 291.5L114.9 291.6L114.9 291.6L114.9 291.6L114.8 291.6L114.8 291.7L114.8 291.7L114.7 291.8L114.7 291.8L114.7 291.8L114.6 291.9L114.6 291.9L114.6 291.9L114.5 292.0L114.5 292.1L114.5 292.1L114.4 292.1L114.4 292.2L114.4 292.2L114.4 292.2L114.3 292.2L114.3 292.3L114.3 292.3L114.3 292.4L114.2 292.4L114.2 292.5L114.2 292.5L114.2 292.5L114.2 292.6L114.1 292.6L114.1 292.7L112.4 294.9L112.3 295.0L112.3 295.0L112.3 295.0L112.2 295.0L112.2 295.1L112.0 295.2L112.0 295.2L112.0 295.3L111.9 295.3L111.9 295.4L111.9 295.4L111.9 295.4L111.8 295.4L111.8 295.5L111.8 295.5L111.8 295.5L111.8 295.6L111.7 295.6L111.7 295.6L111.7 295.7L111.6 295.8L111.6 295.9L111.5 295.9L111.5 295.9L111.5 296.0L111.5 296.0L111.5 296.0L111.5 296.1L111.4 296.1L111.4 296.1L111.4 296.2L111.4 296.3L111.3 296.3L111.3 296.4L111.3 296.4L111.3 296.4L111.3 296.5L111.3 296.6L111.2 296.6L111.2 296.7L111.2 296.7L111.2 296.7L111.2 296.8L111.2 296.8L111.2 296.9L111.2 296.9L111.2 297.0L111.2 297.0L111.2 297.0L111.2 297.1L111.1 297.1L111.1 297.1L111.1 297.2L111.1 297.2L111.1 297.3L111.1 297.3L111.1 297.3L111.1 297.4L111.1 297.4L111.1 297.4L111.1 297.6L111.1 297.6L111.1 297.7L111.1 297.7L111.1 297.8L111.1 297.8L111.1 297.9L111.1 297.9L111.1 298.0L111.2 298.0L111.2 298.1L111.2 298.1L111.2 298.1L111.2 298.2L111.2 298.2L111.2 298.3L111.2 298.3L111.2 298.3L111.2 298.4L111.2 298.4L111.2 298.4L111.3 298.5L111.3 298.5L111.3 298.6L111.3 298.7L111.4 298.8L111.4 298.8L111.4 298.8L111.4 298.9L111.4 299.0L111.5 299.0L111.5 299.0L111.5 299.1L111.5 299.1L111.5 299.1L111.6 299.2L111.6 299.2L111.7 299.3L111.7 299.4L111.7 299.4L111.7 299.5L111.8 299.5L111.8 299.5L111.8 299.6L111.8 299.6L111.9 299.6L111.9 299.6L111.9 299.7L111.9 299.7L112 299.7L112.0 299.8L112.0 299.8L112.2 300.0L112.3 300.1L112.3 300.1L112.3 300.1L112.3 300.1L112.4 300.1L112.4 300.2L112.4 300.2L112.5 300.2L112.5 300.3L112.6 300.3L112.6 300.3L112.6 300.3L112.8 300.4L112.8 300.4L112.8 300.5L112.9 300.5L112.9 300.5L112.9 300.5L113.0 300.5L113.0 300.5L113.0 300.6L113.1 300.6L113.1 300.6L113.2 300.6L113.2 300.7L113.3 300.7L113.3 300.7L113.5 300.8L113.6 300.8L113.6 300.8L113.6 300.8L113.7 300.8L113.7 300.8L113.7 300.8L113.8 300.8L113.9 300.8L113.9 300.8L113.9 300.8L114.0 300.8L114.0 300.9L114.0 300.9L114.1 300.9L114.2 300.9L114.2 300.9L114.3 300.9L114.3 300.9L114.3 300.9L114.4 300.9L114.6 300.9L114.7 300.9L114.7 300.9L114.7 300.9L114.8 300.9L114.8 300.9L114.9 300.9L114.9 300.9L114.9 300.9L115.0 300.9L115.0 300.8L115.0 300.8L115.1 300.8L115.1 300.8L115.1 300.8L115.2 300.8L115.3 300.8L115.3 300.8L116.7 300.6L116.7 300.6L116.8 300.6L116.9 300.6L116.9 300.6L116.9 300.6L117.0 300.6L117.0 300.6L117.0 300.6L117.1 300.6L117.1 300.6L117.2 300.6L117.2 300.6L117.3 300.6L117.3 300.6L117.4 300.6L117.4 300.6L117.4 300.6L117.5 300.6L117.5 300.5L117.6 300.5L117.6 300.5L117.6 300.5L117.7 300.5L117.8 300.5L117.8 300.5L117.8 300.5L117.9 300.4L117.9 300.4L117.9 300.4L118.0 300.4L118.0 300.4L118.0 300.4L118.1 300.4L118.1 300.3L118.1 300.3L118.2 300.3L118.2 300.3L118.3 300.3L118.3 300.3L118.3 300.2L118.4 300.2L118.4 300.2L118.4 300.2L118.6 300.1L118.6 300.1L118.6 300.0L118.7 300.0L118.7 300.0L118.7 300.0L118.8 300.0L118.8 299.9L118.8 299.9L119.0 299.8L119.0 299.7L119.1 299.7L119.9 299.0L119.9 299.0L121.9 298.1 Z M 106.2 230.9L106.2 231.0L106.1 233.1L106.0 233.3L106.0 233.4L106.0 233.4L106.0 233.5L106.0 233.6L106.0 233.6L106.0 233.6L106.0 233.7L106 233.7L105.9 233.8L105.9 233.8L105.9 233.9L105.9 233.9L105.9 234.0L105.9 234.0L105.9 234.0L105.9 234.3L105.9 234.3L105.9 234.4L105.9 234.4L105.9 234.5L106 234.7L105.8 236.3L104.9 238.6L104.7 238.9L105.3 236.8L104.3 233.5L105.0 231.3 Z M 44.5 325.9L46.5 325.2L47.1 325.2L48 325.3L48.7 325.4L48.9 325.5L48.9 325.5L49.0 325.5L49.0 325.5L49.1 325.5L49.1 325.5L49.1 325.5L49.2 325.5L49.3 325.5L49.3 325.5L46.4 327.0L42.8 327.1 Z M 135.8 237.4L134.5 237.8L134.5 237.8L132.5 237.9L130.6 237.4L129.0 236.3L127.7 234.9L127.3 234.1L134.5 235.6L135.8 237.2 Z M 80.4 359.5L80.2 359.3L79.2 357.3L79.0 355.2L79.0 355.0L79.0 355.0L79.3 353.1L80.2 351.5L81.5 350.2L84.2 348.8L85.7 348.7L85.7 348.7L87.8 349.0L89.6 350.0L91.1 351.5L92.1 353.3L92.2 353.9L89.6 354.9L87.4 354.0L85.8 357.1L81.7 359.5 Z M 80.4 359.5 "/>
<path style=" stroke:none;fill-rule:nonzero;fill:rgb(77.6%,78.8%,62.3%);fill-opacity:1;" d="M 40.8 362.3L39.3 362.6L38.8 362.1L39.3 361.7L41.0 361.9 Z M 40.8 362.3 "/>
<path style=" stroke:none;fill-rule:nonzero;fill:rgb(77.6%,78.8%,62.3%);fill-opacity:1;" d="M 82.7 239.2L82.9 240.4L81.8 240.4L81.9 239.1 Z M 82.7 239.2 "/>
<path style=" stroke:none;fill-rule:nonzero;fill:rgb(77.6%,78.8%,62.3%);fill-opacity:1;" d="M 133.4 232.6L133.0 233.1L131.5 232.0L132.5 231.9 Z M 133.4 232.6 "/>
<path style=" stroke:none;fill-rule:nonzero;fill:rgb(77.6%,78.8%,62.3%);fill-opacity:1;" d="M 40.8 287.2L40.3 287.5L39.5 286.8L40.6 286.7 Z M 40.8 287.2 "/>
<path style=" stroke:none;fill-rule:nonzero;fill:rgb(77.6%,78.8%,62.3%);fill-opacity:1;" d="M 31.3 362.8L31.3 362.8L31.8 362.2L32.8 362.1 Z M 31.3 362.8 "/>
<path style=" stroke:none;fill-rule:nonzero;fill:rgb(77.6%,78.8%,62.3%);fill-opacity:1;" d="M 48.3 369.8L47.7 370.4L47.0 370.3 Z M 48.3 369.8 "/>
<path style=" stroke:none;fill-rule:nonzero;fill:rgb(77.6%,78.8%,62.3%);fill-opacity:1;" d="M 43.0 283.9L43.0 284.5L42.3 284.5 Z M 43.0 283.9 "/>
















</g>
</svg>
