<?xml version="1.0" encoding="UTF-8"?>
<svg xmlns="http://www.w3.org/2000/svg" xmlns:xlink="http://www.w3.org/1999/xlink" width="378pt" height="504pt" viewBox="0 0 378 504" version="1.1">
<g id="data">
<rect x="0" y="0" width="378" height="504" style="fill:rgb(100%,100%,100%);fill-opacity:1;stroke:none;"/>
<path style=" stroke:none;fill-rule:nonzero;fill:rgb(100%,100%,100%);fill-opacity:1;" d="M 21 504L357 504L357 0L21 0 Z M 21 504 "/>
<path style=" stroke:none;fill-rule:nonzero;fill:rgb(77.6%,78.8%,62.3%);fill-opacity:1;" d="M 197.2 280.2L197.2 280.2L197.2 280.2L197.2 280.1L197.1 280.1L197.1 280.1L197.1 280.0L197.1 280.0L197.1 280.0L197.1 279.9L197.1 279.9L197.0 279.9L197.0 279.8L197.0 279.8L197.0 279.7L197.0 279.7L196.9 279.7L196.8 279.5L196.8 279.5L196.8 279.4L196.8 279.4L196.7 279.4L196.7 279.3L196.7 279.3L196.7 279.2L196.6 279.2L196.5 279.1L196.5 279.1L196.5 279.0L196.4 278.9L196.4 278.9L196.3 278.9L196.3 278.9L196.2 278.8L195.0 277.3L194.2 275.6L194.0 273.7L194.0 273.7L194.4 271.4L195.7 269.3L195.7 269.3L195.8 269.2L195.8 269.2L195.8 269.2L195.9 269.1L195.9 269.1L195.9 269.1L195.9 269.0L196 269.0L196.0 269.0L196.0 268.9L196.0 268.9L196.0 268.9L196.1 268.8L196.1 268.8L196.1 268.8L196.1 268.7L196.2 268.7L196.2 268.6L196.2 268.6L196.2 268.6L196.2 268.5L196.3 268.5L196.3 268.4L196.3 268.4L196.3 268.3L196.3 268.3L196.4 268.3L196.4 268.2L196.4 268.0L196.4 268.0L196.5 268.0L196.5 267.9L196.5 267.9L196.5 267.9L196.5 267.8L196.5 267.8L196.5 267.7L196.5 267.7L196.5 267.6L196.5 267.6L196.5 267.6L196.5 267.5L196.6 267.5L196.6 267.4L196.6 267.4L196.6 267.3L196.6 267.3L196.6 267.3L196.6 267.2L196.6 267.2L196.6 267.1L196.6 267.0L196.6 266.9L196.6 266.9L196.6 266.8L196.6 266.8L196.6 266.7L196.6 266.6L196.6 266.6L196.5 266.6L196.5 266.5L196.5 266.5L196.5 266.5L196.5 266.4L196.5 266.4L196.5 266.3L196.5 266.2L196.5 266.2L196.5 266.1L196.4 266.0L196.4 266.0L196.4 265.8L196.3 265.8L196.3 265.8L196.3 265.7L196.3 265.7L196.3 265.6L196.2 265.6L196.2 265.5L196.2 265.5L196.2 265.4L196.2 265.4L196.1 265.4L196.1 265.3L196.0 265.2L196.0 265.2L196.0 265.1L196.0 265.1L195.9 265.1L195.9 265.0L195.9 265.0L195.9 265.0L195.8 264.9L195.8 264.9L195.8 264.9L195.7 264.8L195.7 264.8L195.7 264.8L195.6 264.7L195.6 264.7L195.6 264.7L195.6 264.6L195.5 264.6L195.5 264.6L195.5 264.6L195.5 264.5L195.4 264.5L195.4 264.5L195.3 264.4L195.3 264.4L195.3 264.4L195.3 264.4L195.2 264.4L195.2 264.3L195.1 264.3L195.1 264.3L195.1 264.2L195.0 264.2L195 264.2L194.9 264.1L194.8 264.1L194.8 264.1L194.8 264.1L194.7 264.0L194.7 264.0L194.7 264.0L194.6 264.0L194.6 264.0L194.6 264.0L194.5 263.9L194.5 263.9L194.4 263.9L194.3 263.9L194.3 263.9L194.2 263.8L194.2 263.8L194.2 263.8L194.1 263.8L194.1 263.8L194.0 263.8L194.0 263.8L193.9 263.8L193.9 263.7L193.8 263.7L193.8 263.7L193.8 263.7L193.7 263.7L193.7 263.7L193.7 263.7L193.6 263.7L193.6 263.7L193.5 263.7L193.5 263.7L193.4 263.7L191.6 263.3L189.9 262.3L188.6 261L188.4 260.7L192.8 250.2L194.9 248.2L198.8 248.4L200.5 248.0L200.6 247.1L188.8 246.1L187.7 250.4L183.5 251.3L180.1 254.3L178.4 254.1L177.6 252.5L177.2 250.5L177.2 250.5L177.2 250.3L177.3 249.2L177.3 249.1L177.3 249.0L177.3 249.0L177.3 249.0L177.3 248.9L177.3 248.9L177.3 248.9L177.3 248.8L177.3 248.7L177.3 248.7L177.3 248.5L177.3 248.5L177.3 248.4L177.3 248.4L177.3 248.3L177.3 248.2L177.3 248.2L177.3 248.2L177.3 248.1L177.3 248.0L177.2 246.8L177.2 246.8L177.9 243.9L179 242.4L180.4 241.2L182.1 240.4L183.9 240.2L183.9 240.2L184.2 240.2L184.2 240.2L187.2 241.0L187.2 241.1L187.3 241.1L187.3 241.1L187.3 241.1L187.4 241.1L187.4 241.2L187.4 241.2L187.5 241.2L187.6 241.2L187.6 241.2L187.6 241.3L187.7 241.3L187.7 241.3L187.8 241.3L187.9 241.3L187.9 241.4L188.0 241.4L188.0 241.4L188.0 241.4L188.1 241.4L188.1 241.4L188.1 241.4L188.2 241.4L188.3 241.4L188.3 241.4L188.4 241.4L188.4 241.5L188.4 241.5L188.5 241.5L188.5 241.5L188.6 241.5L188.6 241.5L188.7 241.5L188.7 241.5L188.7 241.5L189.0 241.5L189.0 241.5L189.1 241.5L189.1 241.5L189.1 241.5L189.2 241.5L189.2 241.5L189.2 241.5L189.3 241.5L189.3 241.5L189.4 241.4L189.4 241.4L189.4 241.4L189.5 241.4L189.5 241.4L189.6 241.4L189.7 241.4L189.7 241.4L189.8 241.4L189.8 241.3L189.9 241.3L190.0 241.3L190.0 241.3L190.1 241.3L190.1 241.2L190.1 241.2L190.2 241.2L190.2 241.2L190.3 241.2L190.3 241.1L190.4 241.1L190.4 241.1L190.4 241.1L190.5 241.1L190.5 241.0L190.5 241.0L190.7 240.9L190.7 240.9L190.8 240.9L190.8 240.8L190.9 240.8L190.9 240.8L190.9 240.8L190.9 240.8L191.0 240.7L191.0 240.7L191.1 240.7L191.1 240.6L191.1 240.6L191.2 240.6L191.2 240.5L191.2 240.5L191.3 240.5L191.3 240.4L191.3 240.4L191.3 240.4L191.4 240.3L191.4 240.3L191.4 240.3L191.4 240.3L191.5 240.2L191.5 240.2L191.5 240.2L191.6 240.1L191.6 240.1L191.6 240.1L191.6 240.0L191.6 240.0L191.7 239.9L193.9 237.8L195.7 237.0L197.6 236.8L199.6 237.2L201.4 238.1L202.4 239.1L202.4 239.1L202.4 239.1L202.5 239.2L202.6 239.3L202.6 239.3L202.6 239.4L202.7 239.4L202.8 239.5L202.8 239.5L202.9 239.5L202.9 239.6L202.9 239.6L203.0 239.6L203.0 239.6L203.0 239.7L203.1 239.7L203.1 239.7L203.2 239.7L203.2 239.8L203.3 239.8L203.3 239.8L203.3 239.8L203.4 239.9L203.4 239.9L203.5 239.9L203.5 239.9L203.6 239.9L203.6 240.0L203.6 240.0L203.7 240.0L203.7 240.0L203.9 240.1L203.9 240.1L204.0 240.1L204.0 240.1L204.0 240.1L204.1 240.1L204.3 240.2L204.3 240.2L204.3 240.2L204.4 240.2L204.4 240.2L204.4 240.2L204.5 240.2L204.5 240.2L204.6 240.2L204.7 240.2L206.5 240.6L206.6 240.7L206.6 240.7L206.8 240.7L206.8 240.8L206.9 240.8L206.9 240.8L207.0 240.8L207.0 240.8L207.1 240.8L207.2 240.8L207.2 240.8L207.2 240.8L207.3 240.9L207.3 240.9L207.3 240.9L207.4 240.9L207.4 240.9L207.5 240.9L207.5 240.9L207.6 240.9L207.6 240.9L207.9 240.9L208.0 240.9L208.0 240.9L208.0 240.9L208.1 240.9L208.1 240.9L208.2 240.9L208.2 240.9L208.3 240.9L208.3 240.9L208.3 240.9L208.4 240.8L208.4 240.8L208.4 240.8L208.5 240.8L208.6 240.8L208.6 240.8L208.7 240.8L208.7 240.8L208.7 240.8L208.8 240.8L208.9 240.7L208.9 240.7L209.0 240.7L209.1 240.6L209.1 240.6L209.1 240.6L209.2 240.6L209.2 240.6L209.3 240.6L209.3 240.5L209.3 240.5L209.4 240.5L209.4 240.5L209.4 240.5L209.5 240.4L209.5 240.4L209.5 240.4L209.6 240.4L209.7 240.3L209.7 240.3L209.7 240.3L209.8 240.3L209.8 240.2L209.8 240.2L209.9 240.2L209.9 240.2L209.9 240.1L210.0 240.0L210.1 240.0L210.1 240.0L210.1 240.0L210.1 239.9L210.2 239.9L210.2 239.9L210.2 239.8L210.3 239.8L210.3 239.8L210.3 239.7L210.4 239.7L210.4 239.7L210.4 239.6L210.4 239.6L210.5 239.6L210.5 239.6L210.5 239.5L210.5 239.5L210.5 239.5L210.6 239.4L210.6 239.4L210.6 239.4L210.7 239.3L210.7 239.2L210.7 239.2L210.7 239.2L210.7 239.1L210.8 239.1L210.8 239.1L210.8 239.0L210.8 239.0L210.8 238.9L210.8 238.9L210.9 238.8L210.9 238.8L210.9 238.8L210.9 238.7L211.0 238.5L211.0 238.4L211.2 238.0L211.2 237.8L211.2 237.8L211.2 237.7L211.2 237.7L211.3 237.7L211.3 237.6L211.3 237.6L211.3 237.5L211.3 237.5L211.3 237.5L211.3 237.4L211.3 237.4L211.3 237.3L211.3 237.3L211.3 237.3L211.3 237.2L211.3 237.2L211.4 237.1L211.4 237.1L211.4 237.1L211.4 237.0L211.4 237.0L211.4 236.9L211.4 236.7L211.4 236.7L211.4 236.6L211.4 236.6L211.4 236.6L211.3 236.5L211.3 236.5L211.3 236.4L211.3 236.4L211.3 236.4L211.3 236.3L211.3 236.2L211.3 236.2L211.3 236.1L211.3 236.1L211.3 236.1L211.3 236.0L211.2 235.9L211.2 235.8L211.2 235.8L211.2 235.8L211.2 235.7L211.2 235.7L210.9 234.9L210.9 234.9L210.8 233.5L211.0 232L211.0 231.8L211.0 231.8L211.0 231.7L211.0 231.7L211.0 231.7L211.0 231.6L211.0 231.6L211.0 231.6L211.0 231.5L211.0 231.5L211.1 231.4L211.1 231.4L211.1 231.3L211.1 231.3L211.1 231.0L211.1 231.0L211.1 230.9L211.1 230.9L211.0 230.9L211.0 230.8L211.0 230.8L211.0 230.7L211.0 230.7L211.0 230.6L211.0 230.6L211.0 230.6L211.0 230.5L211.0 230.5L211.0 230.3L210.9 230.3L210.9 230.2L210.9 230.2L210.9 230.1L210.9 230.0L210.9 230.0L210.8 229.9L210.8 229.9L210.8 229.9L210.8 229.8L210.8 229.8L210.8 229.8L210.7 229.7L210.7 229.7L210.7 229.6L210.7 229.6L210.7 229.6L210.7 229.6L210.6 229.5L210.6 229.5L210.6 229.5L210.5 229.3L210.5 229.2L210.5 229.2L210.4 229.2L210.4 229.1L210.4 229.1L210.4 229.1L210.3 229.1L210.3 229.0L210.3 229.0L210.2 228.9L210.2 228.9L210.2 228.9L210.2 228.9L210.1 228.8L210.1 228.8L210.0 228.7L210.0 228.7L210.0 228.7L209.9 228.6L209.9 228.6L209.8 228.5L208.6 227.2L207.8 225.5L207.4 223.7L207.4 223.7L207.6 221.7L208.4 219.9L209.7 218.4L209.7 218.3L209.7 218.3L209.8 218.3L209.8 218.3L209.8 218.2L209.8 218.2L209.9 218.2L209.9 218.2L209.9 218.1L210 218.1L210.0 218.1L210.0 218.0L210.1 218.0L210.1 217.9L210.1 217.9L210.2 217.8L210.2 217.8L210.2 217.8L210.2 217.8L210.2 217.7L210.4 217.5L210.4 217.5L210.4 217.5L210.4 217.4L210.4 217.4L210.5 217.4L210.5 217.3L210.5 217.3L210.5 217.2L210.5 217.2L210.5 217.2L210.6 217.1L210.6 217.1L210.6 217.1L210.6 217.0L210.6 217.0L210.7 216.8L210.7 216.8L210.7 216.7L210.7 216.7L210.7 216.6L210.8 216.5L210.8 216.5L210.8 216.4L210.8 216.4L210.8 216.4L210.8 216.3L210.8 216.3L210.8 216.2L210.8 216.2L210.8 216.1L210.9 215.6L210.9 215.5L210.9 215.5L210.9 215.4L210.9 215.4L210.9 215.3L210.9 215.2L210.9 215.2L210.9 215.2L210.9 215.1L210.9 215.0L210.9 214.9L210.9 214.9L210.9 214.8L210.9 214.8L210.9 214.8L210.9 214.7L210.9 214.7L210.9 214.5L210.9 214.5L210.9 214.5L210.9 214.4L210.8 213.3L210.8 212.7L211.4 210.5L212.7 208.7L220.9 213.7L226.4 222.4L230.3 224.4L233.0 240.5L235.9 247.0L237.8 254.9L240.7 259.1L247.5 262.3L247.7 264.0L247.7 264.0L247.7 264.1L247.7 264.1L247.7 264.2L247.7 264.2L247.7 264.4L247.7 264.4L247.7 264.5L247.7 264.5L247.7 264.5L247.7 264.6L247.8 264.6L247.8 264.7L247.8 264.7L247.8 264.7L247.8 264.8L247.8 264.8L247.8 264.8L247.8 264.9L247.8 264.9L247.8 265.0L247.8 265.1L247.8 265.1L247.8 265.1L247.9 265.2L247.9 265.2L247.9 265.2L247.9 265.3L247.9 265.3L247.9 265.3L247.9 265.4L247.9 265.4L247.9 265.5L248.0 265.5L248.0 265.5L248.0 265.6L248.0 265.6L248.0 265.7L248.1 265.7L248.1 265.8L248.1 265.8L248.1 265.8L248.1 265.9L248.1 265.9L248.2 265.9L248.2 266.0L248.2 266.0L248.3 266.1L248.3 266.1L248.3 266.1L248.3 266.2L248.4 266.2L248.4 266.3L248.4 266.3L248.4 266.4L248.5 266.4L248.5 266.4L248.5 266.4L248.6 266.6L248.6 266.6L248.7 266.6L248.7 266.6L248.8 266.7L248.8 266.8L248.8 266.8L248.9 266.8L248.9 266.9L249.0 266.9L249.0 266.9L249.0 266.9L249.0 267.0L249.1 267.0L249.2 267.0L249.2 267.1L249.2 267.1L249.4 267.2L249.4 267.2L249.5 267.2L249.5 267.3L249.6 267.3L249.6 267.3L249.6 267.3L249.7 267.3L249.7 267.3L249.7 267.4L249.8 267.4L249.8 267.4L249.9 267.4L249.9 267.4L249.9 267.4L250.0 267.5L250.0 267.5L250.0 267.5L250.1 267.5L250.1 267.5L250.1 267.5L250.2 267.5L250.3 267.5L250.3 267.6L250.4 267.6L250.4 267.6L250.5 267.6L250.5 267.6L250.5 267.6L250.6 267.6L250.6 267.6L250.6 267.6L250.7 267.6L250.7 267.6L250.8 267.6L250.8 267.6L250.8 267.6L250.9 267.6L250.9 267.6L250.9 267.6L251.0 267.6L251.2 267.6L251.2 267.6L251.3 267.6L251.3 267.6L251.3 267.6L251.4 267.6L251.4 267.6L251.5 267.6L251.5 267.6L251.6 267.6L251.6 267.6L251.6 267.6L251.7 267.6L251.8 267.6L251.8 267.6L251.8 267.6L251.9 267.6L251.9 267.5L252.0 267.5L252.0 267.5L252.1 267.5L252.1 267.5L252.2 267.5L252.3 267.4L253.0 267.2L254.5 267.1L254.7 267.1L258.0 273.6L260.7 276.5L264.9 278.8L262.7 280.0L261.9 282.5L264.0 288.1L270.2 296.8L269.7 299.1L269.5 297.1L267.7 296.3L265.1 297.0L260.9 293.0L254.8 294.2L252.9 293.4L251.0 294.5L255.4 295.0L260.3 293.8L262.4 296.8L270.5 302.5L272.5 305.2L275.1 311.3L275.3 316.5L267.8 324.8L269.7 324.4L273.3 327.7L276.1 328.3L280.0 321.2L287.5 320.8L296.7 321.9L305.5 327.6L307.8 332.9L307.9 341.4L305.0 353.4L299.5 359.2L298.1 357.0L295.4 355.8L298.8 361.1L297.2 363.8L293.3 365.4L291.7 363.4L285.2 367.6L286.6 368.6L290.6 366.7L291.2 371.6L287.6 374.8L284.3 374.5L280.1 375.9L278.2 377.9L281.7 376.4L285.5 376.9L286.1 378.1L284.2 378.1L282.4 379.3L282.9 380.0L290.6 381.6L301.7 379.3L302.8 381.4L302.2 388.1L294.3 392.3L292.8 394.4L292.8 396.8L288.2 396.8L285.5 399.4L278.2 401.9L275.7 404.6L263.9 401.7L254.0 403.6L251.1 405.7L248.4 404.0L249.5 402.9L248.0 401.5L242.6 401.4L243.5 402.8L242.8 403.9L238.4 403.4L232.2 405.9L224.1 406.4L221.6 405.6L220.7 407.1L223.7 408.1L223.6 410.7L221.2 411.1L213.2 409.0L211.5 410.6L212.2 412.7L206.9 407.8L200.7 405.5L193.0 407.6L188.4 410.1L183.0 423.9L181.4 424.8L179.1 424.4L176.0 420.7L173.5 421.3L170.6 418.1L165.7 418.5L163.2 419.9L156.5 420.2L155.5 421.4L155 421.3L153.1 420.3L151.6 418.9L150.6 417.0L150.3 414.9L150.7 412.8L151.3 411.4L151.3 411.4L151.7 411.0L156.4 409.6L157.4 406.9L162.1 402.6L163.1 394.1L168.3 394.7L170.6 392.1L170.3 387.8L180.5 386.2L187.1 386.9L189.9 388.6L198.4 387.8L200.1 381.5L213.6 366.8L207.1 372.6L205.9 373.9L196.6 377.1L194.9 380.7L189.8 381.2L186.1 380.1L179.8 371.9L171.3 375.0L171.2 375.0L171.2 374.9L171.1 374.9L171.1 374.9L171.1 374.9L171.0 374.9L171.0 374.8L171.0 374.8L171 374.8L170.9 374.8L170.9 374.8L170.8 374.8L170.8 374.8L170.8 374.8L170.8 374.7L169.5 374.0L169.3 372.0L173.4 371.3L174.4 369.7L170.0 369.5L166.1 367.2L162.9 367.2L160.5 367.7L159.6 370.2L156.0 370.4L154.1 372.1L151.6 371.0L152.4 369.2L156.2 367.7L155.7 366.4L155.2 367.6L152.7 367.9L147.2 366.7L150.7 365.0L150.2 362.2L147.2 361.4L147.7 359.8L151.1 358.2L151.6 356.9L157.3 356.4L161.2 352.3L165.2 352.2L171.4 348.2L173.8 345.1L175.6 339.5L174.2 335.0L176.0 330.8L173.9 327.7L174.4 323.4L168.0 324.3L165.1 327.6L160.0 327.6L163.4 323.2L169.5 318.9L170.2 315.9L173.3 312.5L181.0 309.7L187.0 310.0L192.7 307.7L197.9 311.5L198.3 310.6L195.9 306.3L198.7 305.4L202.8 310.1L205.2 309.9L206.9 307.7L203.5 308.8L201.3 307.3L197.9 300.1L200.9 294.8L202.7 293.8L199.3 292.2L199.3 286.9L202.0 285.2L204.3 280.3L204.8 275.1L197.3 280.3 Z M 137.4 427.4L137.1 426.5L136.9 425.3L137.0 423.7L138.8 423L140.4 423.9L146.2 418.8L147.5 419.5L148.9 420.9L149.9 422.7L150.3 424.6L150.3 424.6L150.3 424.8L149.5 425.1L149.1 428.7L148.8 429.3L147.3 430.6L145.6 431.4L144.9 431.5L143.5 428.7L139.2 426.4L137.6 426.8 Z M 244.9 407.2L242.4 410.4L239.7 411.3L234.6 408.1L232.8 408.3L239.0 404.1L243.5 405.3 Z M 246.9 401.8L247.2 403.9L245.7 403.5 Z M 291.5 380.3L290.4 381.0L287.3 380.4L286.8 377.9L290.5 378.7 Z M 164.6 308.8L164.8 311.0L162.6 309.3L162.6 307.8 Z M 176.8 308.9L169.7 315.4L166.9 313.3L165.1 309.7L165.2 305.3L168.5 304.1L171.6 305.0L172.8 308.1 Z M 176.8 308.9 "/>
<path style=" stroke:none;fill-rule:nonzero;fill:rgb(77.6%,78.8%,62.3%);fill-opacity:1;" d="M 45.4 327.0L45.4 327.0L45.4 327.0L45.4 326.9L45.4 326.9L45.4 326.9L45.5 326.8L45.5 326.8L45.5 326.7L45.5 326.6L45.5 326.6L45.5 326.6L45.5 326.5L45.5 326.5L45.5 326.2L45.5 326.2L45.5 326.2L45.5 326.1L45.5 326.1L45.5 326.1L45.5 326.0L45.5 326.0L45.5 325.9L45.5 325.9L45.4 325.9L45.4 325.8L45.4 325.8L45.4 325.8L45.4 325.7L45.4 325.6L45.4 325.5L45.4 325.5L45.4 325.5L45.4 325.4L45.3 325.4L45.3 325.3L45.3 325.3L50.1 321.8L52.5 320.6L56.0 315.3L54.7 314.1L54.9 313.0L59.0 307.8L59.8 307.4L61.9 307.7L66.6 307.1L67.4 305.5L66.3 304.9L66.5 303.5L65.9 303.2L56.4 303.2L56.3 302.7L56.5 301.2L56.5 301.1L56.5 301.1L56.6 301.1L56.6 301.0L56.6 301.0L56.6 301.0L56.6 300.9L56.6 300.9L56.6 300.8L56.6 300.8L56.6 300.8L56.6 300.7L56.6 300.6L56.6 300.6L56.6 300.6L56.6 300.5L56.6 300.5L56.6 300.5L56.6 300.2L56.6 300.2L56.6 300.1L56.6 300.0L56.6 299.8L56.6 299.5L56.6 299.4L56.6 299.3L56.6 299.2L56.6 299.2L56.6 299.1L56.6 299.1L56.6 299.1L56.6 299.0L56.6 299.0L56.6 298.9L56.6 298.9L56.5 298.8L56.5 298.8L56.5 298.6L56.5 298.6L56.5 298.6L56.5 298.5L56.5 298.5L56.4 298.3L56.4 298.2L56.4 298.2L56.3 298.2L56.3 298.1L56.3 298.1L56.3 298.1L56.3 298.0L56.3 298.0L56.3 298.0L56.2 297.9L56.2 297.9L56.2 297.9L56.2 297.8L56.2 297.8L56.1 297.7L56.1 297.7L56.1 297.7L56.1 297.7L56.1 297.6L56.0 297.5L56.0 297.5L56.0 297.5L55.9 297.4L55.9 297.4L55.9 297.4L55.8 297.3L55.8 297.3L55.8 297.2L55.7 297.2L55.7 297.2L55.6 297.1L54.7 295.8L54.0 294.2L54.0 293.9L53.9 293.8L53.9 293.8L53.9 293.7L53.9 293.7L53.9 293.6L53.9 293.5L53.8 293.5L53.8 293.4L53.8 293.4L53.8 293.3L53.8 293.3L53.8 293.3L53.7 293.2L53.7 293.2L53.7 293.2L53.7 293.1L53.7 293.1L53.7 293.1L53.6 293.0L53.6 293.0L53.6 293.0L53.6 292.9L53.6 292.9L53.6 292.9L53.5 292.8L53.5 292.8L53.5 292.8L53.5 292.7L53.4 292.6L53.4 292.6L53.4 292.6L53.4 292.6L53.3 292.5L53.3 292.5L53.3 292.5L53.2 292.4L53.2 292.4L53.1 292.3L53.1 292.2L53.0 292.2L53.0 292.2L53.0 292.1L53.0 292.1L52.9 292.1L52.8 292.0L52.8 292.0L52.7 291.9L52.7 291.9L52.7 291.9L52.7 291.9L52.6 291.8L52.6 291.8L52.5 291.8L52.4 291.7L52.3 291.7L52.3 291.6L52.3 291.6L52.2 291.6L52.2 291.6L52.2 291.6L52.1 291.6L52.1 291.5L52.0 291.5L52.0 291.5L52.0 291.5L51.9 291.5L51.9 291.4L50.0 290.3L48.6 288.6L48.5 288.4L50.7 289.0L48.4 287.9L48.2 287.6L47.8 286.5L47.7 285.6L47.7 284.9L47.9 283.6L47.9 283.5L47.9 283.4L47.9 283.4L47.9 283.4L47.9 283.3L47.9 283.3L47.9 283.2L48.0 283.2L48.0 283.1L48.0 283.1L48.0 283.1L48.0 283.0L48.0 283.0L49.7 282.4L54.8 282.0L54.2 280.9L55.2 279.3L54.8 278.7L51.8 278.0L48.4 278.4L48.3 278.2L48.7 276.2L49.0 275.6L50.6 276.2L49.8 274.2L51.3 272.9L53.3 272.0L53.3 272.0L53.4 272.0L53.4 272.0L53.4 272L53.6 271.9L53.6 271.9L53.7 271.9L53.7 271.9L53.8 271.8L53.8 271.8L53.9 271.8L53.9 271.8L54 271.7L54.0 271.7L54.0 271.7L54.0 271.7L54.1 271.7L54.2 271.6L54.2 271.6L54.3 271.6L54.4 271.5L54.4 271.5L54.4 271.5L54.5 271.4L54.5 271.4L54.5 271.4L54.5 271.4L54.6 271.3L54.6 271.3L54.6 271.3L54.7 271.2L54.7 271.2L54.8 271.2L54.8 271.1L54.8 271.1L54.9 271.1L54.9 271.0L54.9 271.0L55 271.0L55.0 270.9L55.0 270.9L55.0 270.9L55.1 270.8L55.1 270.8L55.1 270.8L55.1 270.8L55.2 270.7L55.2 270.7L55.2 270.7L55.2 270.6L55.2 270.6L55.3 270.5L55.3 270.4L55.4 270.4L55.4 270.4L55.4 270.4L55.4 270.3L55.4 270.3L55.5 270.3L55.5 270.2L55.5 270.1L55.5 270.1L55.5 270.1L55.6 270.0L55.6 269.9L55.6 269.9L55.6 269.9L55.6 269.8L55.7 269.7L55.7 269.7L55.7 269.7L55.7 269.6L55.7 269.5L55.7 269.5L55.7 269.4L55.8 269.4L55.8 269.3L55.8 269.3L55.8 269.2L55.8 269.2L55.8 269.2L55.8 269.1L55.8 269.1L55.8 269.0L55.8 269.0L55.8 269.0L55.8 268.9L55.8 268.9L55.8 268.9L55.8 268.8L56.3 266.6L57.4 264.7L59.1 263.2L59.9 262.9L63.3 263.6L64.5 264.9L64.5 266.3L66.1 269.2L68.3 265.6L69.5 264.9L76.0 266.5L79.1 268.4L78.4 266.8L80.0 265.9L79.6 264.5L77.7 263.8L77.6 262.9L82.0 260.0L86.6 258.6L89.3 253.9L86.8 254.1L85.6 253.7L83.1 255.0L83.5 254.2L83.3 253.7L80.8 253.6L80.8 253.1L81.5 251.2L82.7 249.5L82.7 249.5L84.2 248.4L84.3 248.3L84.3 248.3L84.3 248.3L84.4 248.3L84.4 248.2L84.5 248.2L84.6 248.1L84.6 248.1L84.6 248.1L84.6 248.1L84.7 248.1L84.7 248.0L84.7 248.0L84.8 248.0L84.8 247.9L84.8 247.9L84.9 247.9L84.9 247.9L84.9 247.8L85 247.8L85.0 247.8L85.0 247.7L85.1 247.7L85.1 247.7L85.1 247.6L85.2 247.6L85.2 247.6L85.2 247.5L85.3 247.5L85.3 247.5L85.3 247.4L85.3 247.4L85.3 247.4L85.4 247.3L85.4 247.3L85.4 247.3L85.4 247.2L85.5 247.2L85.5 247.2L85.5 247.1L85.5 247.1L85.6 247.0L85.6 247.0L85.6 247.0L85.6 246.9L85.6 246.9L85.7 246.8L85.7 246.8L85.7 246.7L85.7 246.7L85.8 246.6L85.8 246.6L85.8 246.6L85.8 246.5L85.8 246.5L85.8 246.4L85.8 246.3L85.9 246.3L85.9 246.3L85.9 246.2L85.9 246.2L85.9 246.1L85.9 246.0L85.9 246.0L86 245.9L86.0 245.9L86.0 245.8L86.0 245.8L86.0 245.7L86.0 245.7L86.0 245.7L86.0 245.6L86.0 245.6L86.0 245.5L86.0 245.5L86.0 245.4L86.6 245.4L86.0 245.1L86.0 245.1L86.0 245.1L86.0 245.0L86.0 245.0L86.0 244.9L86 244.9L85.9 244.8L85.9 244.8L85.9 244.8L85.9 244.7L85.9 244.7L85.9 244.6L85.9 244.5L85.9 244.5L85.8 244.4L85.8 244.3L85.8 244.3L85.8 244.2L85.8 244.2L85.7 244.1L85.7 244.1L85.7 244.1L85.7 243.9L85.6 243.8L85.6 243.8L85.6 243.8L85.6 243.7L85.5 243.7L85.5 243.7L85.4 243.5L85.4 243.5L85.4 243.4L85.4 243.4L85.3 243.4L85.3 243.4L85.3 243.3L85.3 243.3L85.2 243.3L85.2 243.2L85.2 243.2L85.1 243.2L85.1 243.1L85.1 243.1L85.1 243.1L85.0 243.0L85.0 243.0L85.0 243.0L84.9 242.9L84.9 242.9L84.9 242.9L84.8 242.8L84.8 242.8L84.7 242.8L84.7 242.7L84.3 242.2L84.7 241.6L84.6 239.7L86.8 238.0L87.9 234.9L88.8 234.5L91.1 234.9L94.6 232.8L97.0 235.3L97.6 232.8L98.3 232.1L100.7 236.4L100.6 233.8L99.5 233.5L99.3 232.6L100.4 231.6L101.9 231.3L101.9 231.4L102.0 231.4L104 236.6L101.3 242.3L104.4 239.7L105.3 236.8L104.3 233.5L104.6 232.4L105.8 232.9L107.5 234.4L108.6 236.4L109.0 238.6L109.0 238.8L109.0 238.8L109.0 238.8L109.0 238.9L109.0 238.9L109.0 239.0L109.0 239.0L109.0 239.1L109.0 239.1L109.0 239.1L109.1 239.2L109.1 239.2L109.1 239.2L109.1 239.3L109.1 239.4L109.1 239.4L109.1 239.5L109.1 239.6L109.2 239.6L109.2 239.8L109.2 239.9L109.3 239.9L109.3 240L109.3 240.0L109.3 240.0L109.3 240.1L109.3 240.1L109.4 240.1L109.4 240.2L107.1 243.1L109.8 240.8L109.8 240.8L109.8 240.8L109.8 240.9L109.8 240.9L109.9 241.0L110.0 241.0L110.3 241.3L111.6 244.2L111.8 245.6L111.8 245.7L111.8 245.7L111.8 245.8L111.8 245.8L111.8 245.9L111.8 245.9L111.8 245.9L111.8 246.0L111.8 246.1L111.8 246.1L111.8 246.1L111.8 246.2L111.8 246.2L111.8 246.3L111.9 246.3L111.9 246.3L111.9 246.5L111.9 246.5L111.9 246.5L111.9 246.6L111.9 246.6L111.9 246.6L111.9 246.7L112.0 246.7L112.0 246.8L112.0 246.8L112.0 246.9L112.0 246.9L112.0 246.9L112.1 247.0L112.1 247.0L112.1 247.0L112.1 247.1L112.1 247.1L112.1 247.1L112.2 247.2L112.2 247.2L112.2 247.3L112.2 247.3L112.2 247.3L112.3 247.4L112.3 247.4L112.3 247.5L112.4 247.5L112.4 247.6L112.4 247.6L112.4 247.6L112.5 247.7L112.5 247.7L112.5 247.7L112.5 247.8L112.5 247.8L112.6 247.9L112.7 247.9L112.7 248.0L112.7 248.0L112.8 248.1L112.8 248.1L112.9 248.2L113.0 248.2L113.0 248.3L113.0 248.3L113.1 248.3L113.1 248.4L113.1 248.4L113.2 248.4L113.2 248.4L113.2 248.4L113.3 248.5L113.3 248.5L113.3 248.5L113.4 248.6L113.4 248.6L113.5 248.6L113.5 248.6L113.6 248.7L113.6 248.7L113.6 248.7L113.7 248.7L113.7 248.7L113.7 248.8L113.8 248.8L113.8 248.8L113.9 248.8L113.9 248.8L114.0 248.9L114.0 248.9L114.0 248.9L114.3 249.0L114.3 249.0L114.4 249.0L114.4 249.0L114.4 249.0L114.5 249.0L114.5 249.0L114.6 249.0L114.7 249.1L114.7 249.1L114.7 249.1L114.8 249.1L114.8 249.1L114.8 249.1L114.9 249.1L115 249.1L115.0 249.1L115.0 249.1L115.1 249.1L115.1 249.1L115.1 249.1L115.3 249.1L115.3 249.1L115.4 249.1L115.4 249.1L115.5 249.1L115.5 249.1L115.5 249.1L115.6 249.1L115.7 249.1L115.7 249.1L115.7 249.1L115.8 249.1L115.8 249.0L115.8 249.0L115.9 249.0L115.9 249.0L116.1 249.0L116.1 249.0L116.1 249.0L116.2 249.0L116.2 249.0L116.4 248.9L116.4 248.9L116.4 248.9L116.5 248.9L116.5 248.8L116.6 248.8L116.6 248.8L116.7 248.8L116.7 248.7L116.7 248.7L116.8 248.7L116.8 248.7L116.8 248.7L116.9 248.7L116.9 248.6L117.1 248.5L117.2 248.5L117.2 248.5L117.2 248.4L117.2 248.4L117.3 248.4L117.3 248.4L117.4 248.3L117.4 248.3L117.4 248.3L117.5 248.2L117.5 248.2L117.5 248.2L117.6 248.1L117.7 248.0L117.7 248.0L117.7 248.0L117.7 248.0L117.8 247.9L117.8 247.8L117.9 247.8L117.9 247.8L117.9 247.8L117.9 247.7L117.9 247.7L118.0 247.7L118.0 247.6L118.0 247.6L118.1 247.5L118.1 247.5L118.1 247.4L118.1 247.4L118.2 247.4L118.2 247.3L118.2 247.3L118.2 247.2L118.2 247.2L118.3 247.2L118.3 247.1L118.3 247.1L118.3 247.1L118.3 247.0L118.3 247.0L118.4 247.0L118.4 246.9L118.4 246.9L118.4 246.7L118.4 246.7L118.5 246.6L118.5 246.6L118.5 246.6L118.5 246.5L118.5 246.4L118.5 246.4L118.5 246.3L118.5 246.2L118.8 245.3L118.8 245.2L118.8 245.1L118.8 245.1L118.9 245.0L118.9 245.0L118.9 244.8L118.9 244.8L118.9 244.7L118.9 244.7L118.9 244.7L118.9 244.6L118.9 244.6L118.9 244.6L118.9 244.5L119 244.4L119.0 244.4L119.0 244.4L119.0 244.3L119.0 244.0L119.0 244.0L119.0 244.0L119 243.9L118.9 243.9L118.9 243.8L118.9 243.7L118.9 243.7L118.9 243.7L118.9 243.6L118.9 243.6L118.9 243.6L118.9 243.5L118.9 243.4L118.9 243.3L118.8 243.3L118.8 243.3L118.8 243.2L118.7 243.0L118.7 243.0L118.7 242.9L118.7 242.9L118.7 242.8L118.7 242.8L118.6 242.8L118.6 242.7L118.6 242.7L118.6 242.7L118.6 242.6L118.6 242.6L118.5 242.6L118.5 242.5L118.5 242.5L118.4 242.3L118.4 242.3L118.4 242.3L118.3 242.2L118.3 242.2L118.3 242.2L118.3 242.2L118.3 242.1L118.2 242.1L118.2 242.1L118.1 241.9L118.1 241.9L118.0 241.9L118.0 241.8L118.0 241.8L117.9 241.8L116.8 240.3L116.2 238.6L116.0 237.4L116.0 237.3L117.1 235.8L120.6 236.1L127.1 234.0L132.9 235.3L132.8 235.6L132.8 235.7L132.8 235.7L132.8 235.8L132.8 235.9L132.8 235.9L132.8 236.0L132.8 236.0L132.8 236.0L132.7 236.1L132.7 236.1L132.7 236.2L132.7 236.2L132.7 236.3L132.7 236.3L132.7 236.4L132.7 236.5L132.7 236.5L132.7 236.5L132.7 236.6L132.7 236.7L132.7 236.7L132.7 236.8L132.8 237.2L132.8 237.4L132.8 237.5L132.8 237.5L132.8 237.6L132.8 237.6L132.8 237.6L132.8 237.7L132.8 237.7L132.8 237.8L132.8 237.8L132.8 237.9L132.8 237.9L132.8 238.0L132.9 238.2L132.9 238.2L132.9 238.2L132.9 238.3L132.9 238.3L132.9 238.3L132.9 238.4L132.9 238.4L132.9 238.4L133.0 238.6L133.0 238.6L133.0 238.6L133.0 238.7L133.0 238.7L133.1 238.8L133.1 238.8L133.1 238.8L133.1 238.9L133.1 238.9L133.1 238.9L133.2 239L133.2 239.0L133.2 239.0L133.2 239.0L133.2 239.1L133.3 239.1L133.3 239.1L133.3 239.2L133.4 239.3L133.4 239.3L133.4 239.3L133.4 239.4L133.4 239.4L133.5 239.4L133.5 239.5L133.6 239.5L133.6 239.6L133.6 239.6L133.7 239.6L133.7 239.7L135.2 242.4L135.5 243.6L135.5 243.6L135.5 244.7L135.5 244.7L135.3 245.9L135.3 246.0L135.3 246.1L135.3 246.2L135.3 246.2L135.3 246.3L135.3 246.3L135.2 246.3L135.2 246.4L135.2 246.4L135.2 246.5L135.2 246.6L135.2 246.6L135.2 246.7L135.2 246.7L135.2 246.8L135.2 246.9L135.2 246.9L135.2 247.0L135.2 247.1L135.2 247.1L135.2 247.6L135.2 247.8L135.2 247.8L135.2 247.8L135.3 247.9L135.3 247.9L135.3 248.0L135.3 248.0L135.3 248.1L135.3 248.1L135.3 248.2L135.3 248.2L135.3 248.2L135.3 248.3L135.3 248.4L135.3 248.4L135.4 248.5L135.4 248.6L135.4 248.6L135.4 248.8L135.4 248.8L135.5 248.9L135.5 248.9L135.5 249.0L135.5 249.0L135.5 249.0L135.5 249.1L135.6 249.1L135.6 249.1L135.6 249.2L135.6 249.2L135.6 249.2L135.6 249.3L135.7 249.3L135.7 249.3L135.7 249.4L135.8 249.5L135.8 249.6L135.8 249.6L135.9 249.6L135.9 249.7L135.9 249.7L135.9 249.7L136 249.7L136.0 249.8L136.0 249.8L136.1 249.9L136.1 249.9L136.1 250.0L136.2 250.0L136.7 250.6L136.7 250.6L136.7 250.7L136.8 250.7L136.8 250.7L136.9 250.8L136.9 250.9L136.9 250.9L137.0 250.9L137.0 251.0L137.0 251.0L137.1 251.0L137.1 251.0L137.1 251.1L137.2 251.2L137.2 251.2L137.3 251.2L137.3 251.3L137.4 251.3L137.4 251.3L137.4 251.3L137.4 251.3L137.5 251.4L137.5 251.4L137.7 251.5L137.8 251.5L137.8 251.6L137.9 251.6L137.9 251.6L137.9 251.6L138.0 251.6L138.0 251.7L138.0 251.7L138.1 251.7L138.1 251.7L138.1 251.7L138.2 251.7L138.2 251.7L138.3 251.8L138.3 251.8L138.4 251.8L138.4 251.8L138.4 251.8L138.5 251.8L138.5 251.8L138.5 251.9L138.6 251.9L138.6 251.9L138.7 251.9L138.8 251.9L138.8 251.9L138.9 251.9L140.8 252.6L141.9 253.4L138.6 255.7L137.7 257.8L141.3 256.4L144.0 256.5L144.4 258.4L144.4 258.5L144.2 260.2L144.2 260.3L144.2 260.4L144.2 260.5L144.2 260.5L144.1 260.5L144.1 260.6L144.1 260.7L144.1 260.7L144.1 260.8L144.1 260.8L144.1 260.9L144.1 260.9L144.1 260.9L144.1 261.0L144.1 261.0L143.5 260.3L142.5 260.4L143.2 264.9L143.1 265.4L142.8 265.9L141.3 267.4L141.2 267.4L141.2 267.5L141.2 267.5L141.1 267.5L141.1 267.5L141.1 267.5L141.1 267.6L141.0 267.6L141.0 267.6L141.0 267.6L140.9 267.7L140.9 267.7L140.9 267.7L140.8 267.8L140.8 267.8L140.7 267.9L140.7 267.9L140.7 267.9L140.7 268L140.6 268.0L140.6 268.0L140.5 268.1L140.5 268.1L140.5 268.1L140.5 268.2L140.5 268.2L140.4 268.2L140.4 268.3L140.4 268.3L140.3 268.5L140.3 268.5L140.3 268.5L140.2 268.6L140.2 268.6L140.2 268.6L140.2 268.7L140.2 268.7L140.2 268.7L140.1 268.8L140.1 268.8L140.1 268.8L140.1 268.9L140.1 268.9L140.1 268.9L140.0 269.0L140.0 269.2L139.9 269.3L139.9 269.3L139.9 269.3L139.9 269.4L139.9 269.4L139.9 269.5L139.9 269.5L139.9 269.5L139.9 269.6L139.9 269.6L139.9 269.7L139.9 269.7L139.9 269.7L139.8 269.8L139.8 269.8L139.8 269.9L139.8 269.9L139.8 269.9L139.8 270.0L139.8 270.0L139.8 270.0L139.8 270.3L139.8 270.3L139.8 270.4L139.8 270.4L139.8 270.4L139.8 270.5L139.8 270.5L139.8 270.6L139.9 270.6L139.9 270.6L139.9 270.7L139.9 270.9L139.9 271.4L139.9 271.4L139.9 271.9L138.4 271.7L136.8 276.8L135.8 277.8L134.9 278.2L134.9 278.2L134.8 278.2L134.8 278.2L134.7 278.2L134.6 278.2L134.6 278.3L134.5 278.3L134.4 278.3L134.4 278.3L134.3 278.4L134.3 278.4L134.3 278.4L134.2 278.4L134.2 278.4L134.2 278.4L134.1 278.5L134.1 278.5L134.0 278.5L134.0 278.5L134.0 278.6L134 278.6L133.9 278.6L133.9 278.6L133.9 278.6L133.8 278.7L133.8 278.7L133.7 278.7L133.7 278.7L133.7 278.8L133.6 278.8L133.6 278.8L133.6 278.8L133.5 278.9L133.5 278.9L133.5 279.0L133.4 279.0L133.4 279.0L133.4 279.0L133.3 279.1L133.3 279.1L133.3 279.1L133.2 279.2L133.2 279.2L133.2 279.3L133.1 279.3L133.1 279.3L132.8 279.4L127.7 275.2L131.5 280.3L131.3 280.9L130.4 281.3L126.6 280.2L126.1 282.8L126.5 284.1L128.5 287.0L128.5 289.0L127.4 290.9L131.3 297.5L130.4 300.3L129.7 300.9L131.3 304.0L129.2 304.4L128.6 305.2L130.4 308.3L131.5 314.1L131.7 320.1L126.8 330.8L126.1 335.5L122.6 341.4L120.1 341.9L122.7 345.9L122.6 347.7L121.6 348.4L117.3 348.1L115.3 346.9L113.3 346.6L112.8 345.6L110.9 348.3L109.8 349.0L109.6 346.7L108.4 344.7L108.3 347.7L107.5 348.7L106.1 349.0L105.3 348.3L99.1 348.7L93.4 349.9L94.2 351.9L93.2 353.5L89.6 354.9L87.4 354.0L85.8 357.1L81.7 359.5L78.5 359.5L78.1 358.9L78.6 357.6L76.9 357.1L76.6 355.6L74.7 355.6L76.6 359.0L75.9 361.5L72.8 363.0L69.9 362.4L70.9 363.3L70.4 364.7L66.5 364.3L66.7 365.7L66.1 366.4L63.1 366.0L61.1 367.2L56.9 366.5L54.0 368.6L53.3 368.1L51.9 366.1L51.9 366.1L51.6 365.4L51.6 365.4L51.3 363.3L51.3 363.1L51.3 363.1L51.3 363.0L51.3 363.0L51.3 363.0L51.3 362.9L51.3 362.8L51.2 362.8L51.2 362.7L51.2 362.7L51.2 362.6L51.2 362.4L51.2 362.4L51.2 362.3L51.1 362.3L51.1 362.3L51.1 362.2L51.1 362.1L51.1 362.1L51.1 362.1L51.0 362.0L51.0 362.0L51.0 361.9L51.0 361.9L51.0 361.9L51 361.8L50.9 361.7L50.9 361.7L50.9 361.7L50.9 361.6L50.8 361.6L50.8 361.5L50.8 361.5L50.7 361.4L50.7 361.4L50.7 361.3L50.7 361.3L50.6 361.3L50.6 361.3L50.6 361.2L50.6 361.2L50.5 361.1L50.5 361.1L50.4 361.0L50.4 361.0L50.4 360.9L50.3 360.9L49.3 359.5L48.7 358.0L48.7 357.9L48.7 357.8L48.7 357.8L48.6 357.8L48.6 357.7L48.6 357.7L48.6 357.7L48.6 357.6L48.6 357.6L48.6 357.5L48.5 357.5L48.5 357.5L48.5 357.4L48.5 357.4L48.5 357.3L48.4 357.3L48.4 357.3L48.4 357.2L48.4 357.2L48.4 357.2L48.4 357.1L48.3 357.1L48.3 357.0L48.2 356.9L48.2 356.9L48.2 356.8L48.2 356.8L48.1 356.8L48.1 356.7L48.1 356.7L48.0 356.7L48.0 356.6L48.0 356.6L47.9 356.5L47.9 356.5L47.9 356.5L47.8 356.5L47.8 356.4L47.8 356.4L47.8 356.4L47.7 356.3L47.7 356.3L47.7 356.3L47.7 356.3L47.6 356.2L47.6 356.2L47.5 356.2L47.5 356.2L47.5 356.1L47.5 356.1L47.4 356.1L47.4 356.1L47.4 356.0L47.3 356.0L47.1 355.9L47.1 355.9L47.0 355.8L47.0 355.8L47.0 355.8L47 355.8L46.9 355.8L46.9 355.8L46.8 355.7L46.8 355.7L46.8 355.7L46.7 355.7L46.7 355.7L46.7 355.7L46.6 355.6L46.6 355.6L46.4 355.6L46.4 355.6L46.4 355.6L46.3 355.6L46.3 355.5L46.2 355.5L46.2 355.5L46.1 355.5L46.1 355.5L46.0 355.5L46.0 355.5L46.0 355.5L45.9 355.5L45.9 355.5L45.8 355.5L45.7 355.5L45.7 355.5L45.7 355.4L45.6 355.4L45.6 355.4L45.6 355.4L45.5 355.4L43.7 355.1L46.9 353.8L42.9 354.8L41.8 354.2L40.4 352.9L39.4 351.2L39.3 350.8L39.0 349.0L39.0 348.9L39.2 347.1L39.2 347.0L39.2 347.0L39.2 346.9L39.2 346.9L39.2 346.9L39.2 346.8L39.2 346.8L39.2 346.8L39.2 346.7L39.2 346.7L39.2 346.7L39.3 346.6L39.3 346.5L39.3 346.4L39.3 346.4L39.3 346.4L39.3 346.3L39.3 346.2L39.3 346.2L39.3 346.1L39.3 346.1L39.3 346.0L39.3 346.0L39.3 346.0L39.3 345.9L39.3 345.8L39.2 345.4L39.3 345.3L41.1 344.0L43.5 343.7L43.7 343.0L42.3 342.6L39.6 343.3L39.6 343.1L40.4 341.6L40.5 341.5L40.5 341.5L40.5 341.4L40.5 341.4L40.5 341.4L40.6 341.3L40.6 341.3L40.6 341.2L40.6 341.2L40.7 341.2L40.7 341.1L40.7 341.1L40.7 341.0L40.7 341.0L40.8 340.9L40.8 340.9L40.8 340.9L40.8 340.8L40.8 340.8L40.9 340.6L40.9 340.5L40.9 340.5L40.9 340.5L40.9 340.4L41.0 340.4L41.0 340.3L41.0 340.2L41.0 340.2L41.0 340.1L41.0 340.1L41.0 340.1L41.0 340.0L41.0 339.9L41.0 339.9L41.0 339.8L41.0 339.8L41.0 339.8L41.0 339.7L41.0 339.7L41.0 339.5L41.0 339.5L41.0 339.4L41.0 339.4L41.0 339.4L44.6 339.1L42.7 337.6L43.1 334.8L41.8 332.8L47.6 331.0L47.9 328.8L49.1 327.8L56.6 328.1L65.6 326.0L71.8 326.2L65.2 324.6L64.9 321.5L63.5 322.4L61.2 325.6L59.4 326.7L56.8 327.3L56.4 326.3L53.5 326.4L50.9 324.7L46.4 327.0 Z M 45.4 327.0 "/>
<path style=" stroke:none;fill-rule:nonzero;fill:rgb(77.6%,78.8%,62.3%);fill-opacity:1;" d="M 132.7 232.0L132.8 232.3L132.9 233.1L131.5 232.0L132.5 231.9 Z M 132.7 232.0 "/>
<path style=" stroke:none;fill-rule:nonzero;fill:rgb(77.6%,78.8%,62.3%);fill-opacity:1;" d="M 52.8 309.9L52.9 309.6L53.0 309.5L53.7 309.8 Z M 52.8 309.9 "/>
<path style=" stroke:none;fill-rule:nonzero;fill:rgb(77.6%,78.8%,62.3%);fill-opacity:1;" d="M 82.9 240.3L82.5 239.2L82.7 239.2 Z M 82.9 240.3 "/>
















</g>
</svg>
