<?xml version="1.0" encoding="UTF-8"?>
<svg xmlns="http://www.w3.org/2000/svg" xmlns:xlink="http://www.w3.org/1999/xlink" width="378pt" height="504pt" viewBox="0 0 378 504" version="1.1">
<g id="data">
<rect x="0" y="0" width="378" height="504" style="fill:rgb(100%,100%,100%);fill-opacity:1;stroke:none;"/>
<path style=" stroke:none;fill-rule:nonzero;fill:rgb(100%,100%,100%);fill-opacity:1;" d="M 21 504L357 504L357 0L21 0 Z M 21 504 "/>
<path style=" stroke:none;fill-rule:nonzero;fill:#C2B855;fill-opacity:1;" d="M 163.8 310.2L164.1 308.7L164.1 308.5L164.6 308.8L164.8 311.0 Z M 165.2 306.7L166.5 305.4L168.3 304.4L169.0 304.3L171.6 305.0L172.8 308.1L176.8 308.9L169.7 315.4L166.9 313.3L165.1 309.7 Z M 181.3 253.2L180.9 252.3L180.5 250.3L180.6 249.6L181.0 247.8L181.9 246.2L183.3 244.9L184.9 244.0L186.2 243.6L187.3 243.5L189.1 243.8L190.8 244.6L192.2 245.7L192.7 246.4L188.8 246.1L187.7 250.4L183.5 251.3 Z M 193.8 249.2L194.0 250.0L194.0 250.1L193.6 252.5L192.7 254.3L191.5 255.5L193.1 255.7L194.9 256.5L195.1 256.5L195.1 256.6L195.1 256.6L195.2 256.6L195.2 256.6L195.2 256.6L195.3 256.6L195.3 256.7L195.3 256.7L195.3 256.7L195.4 256.7L195.4 256.7L195.5 256.8L195.5 256.8L195.6 256.8L195.7 256.8L195.7 256.8L195.7 256.8L195.8 256.9L195.9 256.9L195.9 256.9L195.9 256.9L196.0 256.9L196.0 256.9L196.0 256.9L196.2 257L196.2 257.0L196.2 257.0L196.3 257.0L196.3 257.0L196.3 257.0L196.4 257.0L196.4 257.0L196.5 257.0L196.5 257.0L196.6 257.0L196.6 257.0L196.6 257.0L196.7 257.0L196.9 257.0L196.9 257.0L197.0 257.0L197.1 257.0L197.6 257.0L199.7 257.4L201.6 258.5L203.1 260.2L203.1 260.3L203.2 260.3L203.2 260.4L203.2 260.4L203.2 260.4L203.3 260.5L203.3 260.5L203.3 260.5L203.4 260.6L203.4 260.7L203.5 260.7L203.5 260.8L203.6 260.8L203.6 260.8L203.7 260.9L203.7 261.0L203.8 261.0L203.8 261.1L203.9 261.1L203.9 261.1L203.9 261.1L203.9 261.1L204.0 261.2L204.0 261.2L204.0 261.2L204.1 261.2L204.1 261.3L204.1 261.3L204.2 261.3L204.2 261.3L206.4 263.5L206.5 263.7L206.5 263.7L206.6 263.8L206.6 263.8L206.6 263.8L206.6 263.8L206.7 263.9L206.8 264.0L206.8 264.1L206.8 264.1L206.9 264.2L207.0 264.2L207.0 264.2L207.0 264.3L207.1 264.3L207.1 264.3L207.2 264.4L207.2 264.4L207.2 264.4L207.2 264.5L207.3 264.5L207.3 264.5L207.3 264.5L207.4 264.5L207.4 264.6L207.4 264.6L207.4 264.6L207.5 264.7L207.5 264.7L207.6 264.7L209.0 265.9L210.1 267.4L210.8 270.4L210.8 271.0L210.7 271.5L210.7 271.6L210.7 271.6L210.7 271.7L210.7 271.7L210.7 271.8L210.7 271.8L210.7 271.9L210.7 271.9L210.7 272.1L210.6 272.1L210.6 272.1L210.7 272.2L210.7 272.3L210.7 272.3L210.7 272.4L210.7 272.4L210.7 272.5L210.7 272.6L210.7 272.6L210.7 272.6L210.7 272.7L210.8 274.1L210.8 274.1L210.2 276.5L208.8 278.5L208.8 278.6L208.7 278.6L208.7 278.6L208.6 278.7L208.6 278.8L208.6 278.8L208.6 278.8L208.5 278.9L208.5 278.9L208.4 279.0L208.4 279.0L208.4 279.0L208.4 279.1L208.4 279.1L208.3 279.2L208.3 279.2L208.2 279.3L208.2 279.3L208.2 279.3L208.2 279.4L208.2 279.4L208.1 279.5L208.1 279.5L208.1 279.5L208.1 279.6L208.1 279.6L208.1 279.6L208.1 279.7L208.0 279.7L208.0 279.7L208.0 279.8L208.0 279.8L208.0 279.9L208.0 279.9L206.9 281.9L206.5 282.3L207.1 282.4L209.0 283.5L209.0 283.6L209.1 283.6L209.1 283.6L209.1 283.6L209.1 283.7L209.2 283.7L209.2 283.7L209.2 283.7L209.3 283.7L209.3 283.8L209.4 283.8L209.5 283.9L209.5 283.9L209.5 283.9L209.6 283.9L209.6 283.9L209.6 284L209.6 284.0L209.7 284.0L209.7 284.0L209.7 284.0L209.8 284.0L209.8 284.0L209.8 284.1L209.9 284.1L209.9 284.1L210.0 284.1L210.0 284.1L210.2 284.2L210.3 284.2L210.3 284.2L210.4 284.2L210.4 284.2L210.5 284.3L210.6 284.3L210.6 284.3L210.6 284.3L210.7 284.3L210.7 284.3L210.8 284.3L210.8 284.3L210.9 284.3L210.9 284.3L211.0 284.3L211.1 284.3L211.1 284.3L211.2 284.3L211.2 284.3L211.3 284.3L211.4 284.3L211.4 284.3L211.4 284.3L211.5 284.3L211.5 284.3L211.5 284.3L211.6 284.3L211.6 284.3L211.6 284.3L211.7 284.3L211.7 284.3L211.8 284.3L211.8 284.3L211.9 284.2L212.0 284.2L212.0 284.2L212.1 284.2L212.1 284.2L212.2 284.2L212.5 284.1L214.2 283.9L216.5 284.3L218.5 285.5L220.0 287.2L220.8 289.4L220.9 290.6L220.3 293.3L218.8 295.5L218.7 295.5L218.7 295.5L218.7 295.6L218.6 295.6L218.6 295.6L218.6 295.7L218.6 295.7L218.5 295.7L218.5 295.7L218.5 295.8L218.4 295.8L218.4 295.8L218.4 295.9L218.4 295.9L218.4 295.9L218.3 296.0L218.3 296.0L218.3 296.1L218.2 296.1L218.2 296.1L218.2 296.2L218.1 296.3L218.1 296.3L218.1 296.3L218.1 296.4L218.1 296.4L218.0 296.4L218.0 296.5L218.0 296.5L218.0 296.5L217.9 296.6L217.9 296.7L217.9 296.7L217.9 296.8L217.8 297.0L217.8 297.0L217.8 297.1L217.8 297.1L217.8 297.1L217.8 297.2L217.8 297.2L217.8 297.3L217.7 297.4L217.7 297.4L217.7 297.4L217.7 297.5L217.7 297.5L217.7 297.6L217.7 297.6L217.7 297.6L217.7 297.7L217.7 297.7L217.7 297.8L217.7 297.8L217.7 297.8L217.7 298.1L217.7 298.1L217.7 298.1L217.7 298.2L217.7 298.2L217.7 298.3L217.7 298.3L217.7 298.3L217.7 298.4L217.7 298.4L217.7 298.5L217.7 298.5L217.7 298.5L217.7 298.6L217.7 298.6L217.8 298.6L217.8 298.7L217.8 298.7L217.8 298.8L217.8 298.9L217.8 298.9L217.8 298.9L217.9 299.1L217.9 299.1L217.9 299.2L217.9 299.2L217.9 299.2L218.0 299.3L218.0 299.3L218.0 299.4L218.0 299.4L218.0 299.4L218.1 299.5L218.1 299.5L218.1 299.5L218.1 299.6L218.1 299.6L218.2 299.8L218.3 299.8L218.3 299.9L218.3 299.9L218.3 300L218.4 300.0L218.4 300.0L218.4 300.0L218.4 300.1L218.5 300.1L218.5 300.2L218.6 300.2L218.6 300.2L218.6 300.3L218.6 300.3L218.7 300.3L218.7 300.3L218.7 300.4L218.7 300.4L218.8 300.4L218.8 300.5L218.8 300.5L218.9 300.5L218.9 300.6L219.0 300.6L219.0 300.6L219.0 300.6L219.1 300.7L219.1 300.7L219.1 300.7L219.1 300.7L219.2 300.7L219.2 300.8L219.2 300.8L219.3 300.8L219.3 300.8L219.3 300.8L219.4 300.9L219.4 300.9L219.5 300.9L219.5 300.9L219.5 300.9L219.6 301.0L219.6 301.0L219.6 301.0L219.7 301.0L219.7 301.0L219.8 301.1L219.8 301.1L219.9 301.1L221.7 302.1L223.0 303.6L223.9 305.4L224.2 307.4L224.2 307.4L224.0 309.3L223.2 311.0L221.9 312.5L221.2 313.0L221.1 313.1L221.0 313.1L221.0 313.1L221.0 313.2L220.9 313.2L220.9 313.2L220.9 313.3L220.8 313.3L220.8 313.3L220.8 313.3L220.7 313.4L220.7 313.4L220.6 313.5L220.6 313.5L220.5 313.5L220.5 313.6L220.5 313.6L220.5 313.6L220.4 313.7L220.4 313.7L220.3 313.8L220.3 313.8L220.3 313.8L220.3 313.9L220.2 313.9L220.2 313.9L220.2 313.9L220.2 314.0L220.1 314.0L220.0 314.2L220.0 314.2L220.0 314.3L220.0 314.3L220.0 314.3L219.9 314.4L219.9 314.4L219.9 314.5L219.9 314.5L219.8 314.6L219.8 314.6L219.8 314.6L219.8 314.7L219.8 314.7L219.8 314.8L219.8 314.8L219.7 314.8L219.7 314.9L219.7 315.0L219.7 315.0L219.7 315.1L219.7 315.2L219.6 315.2L219.6 315.3L219.6 315.3L219.6 315.3L219.6 315.4L219.6 315.5L219.6 315.5L219.6 315.5L219.6 315.6L219.6 315.6L219.6 315.6L219.6 315.7L219.6 315.7L219.6 315.8L219.6 316.0L219.6 316.0L219.6 316.1L219.6 316.1L219.6 316.2L219.6 316.2L219.6 316.2L219.6 316.3L219.6 316.3L219.6 316.4L219.6 316.4L219.6 316.5L219.6 316.5L219.7 316.6L219.7 316.7L219.7 316.7L219.7 316.7L219.7 316.8L219.7 316.8L219.7 316.9L219.7 316.9L219.8 317.0L219.8 317.0L219.8 317.1L219.8 317.1L219.8 317.2L219.9 317.3L219.9 317.3L219.9 317.3L219.9 317.4L219.9 317.4L220.0 317.4L220.0 317.5L220.0 317.5L220.0 317.6L220.5 318.6L220.5 318.6L220.5 318.7L220.6 318.8L220.6 318.8L220.6 318.8L220.6 318.9L220.6 318.9L220.6 319.0L220.7 319.0L220.7 319.0L220.7 319.1L220.7 319.1L220.7 319.1L220.8 319.2L220.8 319.2L220.9 319.4L220.9 319.4L220.9 319.4L220.9 319.5L221.0 319.5L221.0 319.5L221.0 319.5L221.0 319.6L221.1 319.6L221.1 319.7L221.2 319.7L221.2 319.8L221.2 319.8L221.3 319.9L221.4 319.9L221.4 320.0L221.5 320.0L221.5 320.0L221.5 320.1L221.6 320.1L221.6 320.1L221.6 320.2L221.7 320.2L221.7 320.2L221.8 320.3L222.0 320.4L222.0 320.4L222.1 320.4L222.1 320.5L222.1 320.5L222.2 320.5L222.2 320.5L222.2 320.5L222.3 320.5L222.3 320.6L222.4 320.6L222.4 320.6L222.4 320.6L222.5 320.6L222.5 320.6L222.5 320.7L222.7 320.7L222.7 320.7L222.8 320.7L222.8 320.7L222.8 320.7L222.9 320.8L223.0 320.8L223.1 320.8L223.1 320.8L223.1 320.8L223.2 320.8L223.2 320.8L223.3 320.8L223.3 320.8L223.3 320.8L223.4 320.8L223.4 320.8L223.4 320.8L223.5 320.8L223.5 320.8L223.6 320.8L223.7 320.8L223.8 320.8L223.8 320.8L223.9 320.8L224.5 320.8L226.4 321.2L228.1 322.0L229.5 323.3L230.4 325.0L230.9 327.3L230.9 328.2L230.9 328.2L230.5 330.0L230.5 330.1L230.5 330.1L230.4 330.1L230.4 330.3L230.4 330.3L230.4 330.3L230.4 330.4L230.3 330.5L230.3 330.5L230.3 330.6L230.3 330.6L230.3 330.7L230.3 330.7L230.3 330.7L230.3 330.8L230.3 330.8L230.3 330.9L230.3 330.9L230.3 330.9L230.3 331.0L230.3 331.0L230.3 331.0L230.2 331.1L230.2 331.1L230.2 331.2L230.2 331.3L230.2 331.4L230.2 331.4L230.3 331.5L230.3 331.5L230.3 331.6L230.3 331.6L230.3 331.7L230.3 331.7L230.3 331.7L230.3 331.8L230.3 331.8L230.3 331.9L230.3 331.9L230.3 331.9L230.3 332.0L230.3 332.0L230.3 332.1L230.4 332.1L230.4 332.1L230.4 332.2L230.4 332.2L230.4 332.2L230.4 332.3L230.5 332.4L230.5 332.5L230.5 332.5L230.5 332.5L230.5 332.6L230.5 332.6L230.6 332.7L230.6 332.7L230.6 332.8L230.6 332.8L230.6 332.9L230.7 332.9L230.7 332.9L230.7 333.0L230.8 333.1L230.8 333.1L230.8 333.1L230.8 333.1L230.8 333.2L230.9 333.2L230.9 333.2L230.9 333.3L230.9 333.3L231.0 333.3L231.0 333.4L231.0 333.4L231.0 333.4L231.1 333.5L231.1 333.5L231.1 333.6L231.2 333.6L231.2 333.6L231.3 333.7L231.3 333.7L231.3 333.7L231.3 333.7L231.4 333.8L231.4 333.8L231.4 333.8L231.5 333.9L231.5 333.9L231.6 333.9L231.6 334.0L231.6 334.0L231.7 334.0L231.7 334.1L231.8 334.1L231.9 334.2L231.9 334.2L232.0 334.2L232.0 334.2L232.0 334.2L232.1 334.3L232.1 334.3L232.1 334.3L232.2 334.3L232.2 334.3L232.3 334.3L232.3 334.4L232.3 334.4L232.4 334.4L232.4 334.4L232.4 334.4L232.5 334.4L232.6 334.5L232.6 334.5L232.7 334.5L232.8 334.5L234.3 335.2L235.7 336.2L236.6 337.3L236.6 337.4L236.7 337.4L236.7 337.5L236.7 337.5L236.7 337.6L236.8 337.6L236.8 337.6L236.8 337.6L236.9 337.7L236.9 337.7L236.9 337.8L237.0 337.8L237.0 337.8L237.0 337.9L237.0 337.9L237.1 338.0L237.2 338.0L237.2 338.1L237.2 338.1L237.2 338.1L237.3 338.1L237.3 338.1L237.3 338.2L237.4 338.2L237.4 338.2L237.4 338.2L237.4 338.3L237.5 338.3L237.5 338.3L237.5 338.3L237.6 338.4L237.7 338.4L237.7 338.5L237.8 338.5L237.8 338.5L237.9 338.5L237.9 338.5L237.9 338.6L238.0 338.6L238.0 338.6L238.1 338.6L238.1 338.6L238.1 338.6L238.2 338.7L238.2 338.7L238.3 338.7L238.5 338.8L238.5 338.8L238.6 338.8L238.6 338.8L238.7 338.8L238.7 338.8L238.8 338.9L238.8 338.9L238.9 338.9L238.9 338.9L238.9 338.9L239.0 338.9L239.0 338.9L239.1 338.9L239.1 338.9L239.2 338.9L239.2 338.9L239.2 338.9L239.3 338.9L239.3 338.9L239.3 338.9L239.5 338.9L239.6 338.9L239.6 338.9L239.7 338.9L239.7 338.9L239.8 338.9L239.8 338.9L239.8 338.9L239.9 338.9L239.9 338.9L239.9 338.9L240.0 338.9L240.0 338.9L240.1 338.9L240.1 338.9L240.2 338.8L240.3 338.8L240.3 338.8L240.4 338.8L240.4 338.8L240.6 338.7L240.7 338.7L240.7 338.7L240.7 338.7L240.8 338.7L240.9 338.6L240.9 338.6L240.9 338.6L241.0 338.6L241.0 338.5L241.0 338.5L241.1 338.5L241.1 338.5L241.2 338.5L241.6 338.2L244.0 337.6L244.0 337.6L244.4 337.6L245.5 337.7L245.5 337.7L245.6 337.7L245.7 337.7L245.7 337.7L245.8 337.8L245.9 337.8L245.9 337.8L246.0 337.8L246.0 337.8L246.1 337.8L246.2 337.8L246.2 337.8L246.3 337.8L246.3 337.8L246.3 337.8L246.4 337.8L246.5 337.7L246.6 337.7L246.6 337.7L246.7 337.7L247.6 337.6L247.6 337.6L249.4 337.8L251.1 338.5L252.5 339.6L253.7 341.1L254.3 343.0L254.4 343.8L254.5 343.8L254.5 343.9L254.5 343.9L254.5 344.0L254.5 344.0L254.5 344.1L254.5 344.1L254.5 344.1L254.5 344.2L254.5 344.2L254.5 344.3L254.5 344.3L254.5 344.4L254.6 344.4L254.6 344.4L254.6 344.5L254.6 344.5L254.6 344.6L254.6 344.6L254.6 344.7L254.7 344.7L254.7 344.8L254.7 344.8L254.7 344.8L254.7 344.9L254.7 344.9L254.8 345.0L254.8 345.0L254.8 345.0L254.8 345.1L254.8 345.1L254.8 345.1L254.9 345.2L254.9 345.2L254.9 345.2L254.9 345.3L255.0 345.3L255.0 345.4L255.0 345.4L255.0 345.4L255.1 345.5L255.1 345.5L255.1 345.5L255.1 345.6L255.1 345.6L255.2 345.6L255.2 345.6L255.3 345.8L255.3 345.8L255.4 345.8L255.4 345.9L255.4 345.9L255.4 345.9L255.5 345.9L255.5 346.0L255.5 346.0L255.6 346.1L257.1 348.1L257.4 348.8L257.5 348.9L257.5 348.9L257.5 348.9L257.5 349.0L257.5 349.0L257.5 349.1L257.6 349.1L257.6 349.1L257.6 349.2L257.6 349.2L257.6 349.3L257.7 349.3L257.7 349.3L257.7 349.4L257.7 349.4L257.8 349.6L257.8 349.6L257.9 349.7L257.9 349.7L257.9 349.7L257.9 349.8L258.0 349.8L258.0 349.8L258.0 349.9L258.1 349.9L258.1 350L258.1 350.0L258.2 350.0L258.3 350.1L258.3 350.2L258.3 350.2L258.4 350.2L258.4 350.2L258.5 350.3L258.5 350.3L258.5 350.4L258.6 350.4L258.6 350.4L258.6 350.4L258.6 350.4L258.7 350.5L258.7 350.5L258.8 350.5L258.8 350.6L258.8 350.6L258.9 350.6L258.9 350.6L259.0 350.6L259.0 350.7L259.0 350.7L259.1 350.7L259.1 350.7L259.1 350.7L259.2 350.8L259.2 350.8L259.2 350.8L259.3 350.8L259.3 350.8L259.3 350.8L259.4 350.8L259.4 350.9L259.4 350.9L259.7 351L259.7 351.0L259.7 351.0L259.8 351.0L259.8 351.0L259.9 351.0L260.0 351.0L260.0 351.0L260.0 351.0L260.1 351.0L260.1 351.0L260.1 351.1L260.2 351.1L260.3 351.1L260.3 351.1L260.3 351.1L260.4 351.1L260.4 351.1L260.4 351.1L260.5 351.1L260.8 351.1L260.8 351.1L260.9 351.1L260.9 351.1L262.9 351.3L264.8 352.1L266.5 353.6L267.5 355.6L267.9 357.8L267.7 359.4L267.7 359.4L267.6 359.8L267.6 359.8L267.6 359.9L267.6 360.0L267.5 360.0L267.5 360.1L267.5 360.1L267.5 360.2L267.5 360.2L267.5 360.3L267.5 360.3L267.5 360.3L267.5 360.4L267.5 360.4L267.5 360.4L267.5 360.5L267.5 360.5L267.5 360.6L267.5 360.6L267.5 360.6L267.5 360.7L267.5 360.9L267.5 361.0L267.5 361.0L267.5 361.0L267.5 361.1L267.5 361.1L267.5 361.1L267.5 361.2L267.5 361.3L267.5 361.3L267.5 361.3L267.5 361.4L267.5 361.4L267.5 361.4L267.5 361.5L267.5 361.5L267.6 361.6L267.6 361.6L267.6 361.7L267.6 361.7L267.6 361.7L267.6 361.9L267.6 361.9L267.7 361.9L267.7 362.0L267.7 362.0L267.7 362.0L267.7 362.1L267.7 362.1L267.8 362.2L267.8 362.2L267.8 362.3L267.8 362.3L267.8 362.3L267.9 362.4L267.9 362.4L267.9 362.4L267.9 362.5L267.9 362.5L268.0 362.6L268.0 362.6L268.1 362.7L268.1 362.7L268.1 362.8L268.1 362.8L268.1 362.8L268.2 362.8L268.2 362.9L268.2 362.9L268.2 362.9L268.3 363.0L268.3 363.0L268.3 363.0L268.4 363.1L268.4 363.1L268.4 363.2L268.5 363.2L268.5 363.2L268.5 363.2L268.5 363.3L268.6 363.3L268.6 363.4L268.7 363.4L268.7 363.4L268.8 363.4L268.8 363.5L268.8 363.5L268.9 363.5L268.9 363.5L268.9 363.6L268.9 363.6L269.1 363.7L269.1 363.7L269.2 363.7L269.2 363.7L269.2 363.8L269.3 363.8L269.3 363.8L269.3 363.8L269.4 363.8L269.4 363.8L269.5 363.9L269.5 363.9L269.6 363.9L269.6 363.9L269.6 363.9L269.8 364.0L269.9 364.0L270.0 364.0L270.0 364.1L270.1 364.1L270.1 364.1L270.2 364.1L270.2 364.1L270.3 364.1L270.3 364.1L270.4 364.1L270.4 364.1L270.4 364.1L270.5 364.1L270.5 364.1L270.5 364.1L270.6 364.1L270.6 364.1L270.7 364.1L270.7 364.1L270.9 364.1L271 364.1L271.0 364.1L271.0 364.1L271.1 364.1L271.1 364.1L271.2 364.1L271.2 364.1L271.3 364.1L271.3 364.1L271.4 364.1L271.4 364.1L271.4 364.1L271.5 364.1L271.5 364.1L271.6 364.1L271.6 364.0L271.7 364.0L271.7 364.0L271.8 364.0L272.0 363.9L272.1 363.9L272.1 363.9L272.2 363.8L272.3 363.8L272.3 363.8L272.3 363.8L272.4 363.8L272.4 363.7L272.4 363.7L272.5 363.7L272.5 363.7L272.7 363.6L272.7 363.6L272.8 363.5L272.8 363.5L272.8 363.5L272.8 363.5L272.9 363.4L272.9 363.4L272.9 363.4L273.0 363.4L273.0 363.3L273.1 363.3L273.1 363.3L273.1 363.2L273.2 363.2L273.2 363.1L273.6 362.8L273.6 362.8L275.5 361.6L277.7 361.2L278.0 361.1L279.1 361.2L279.7 361.4L281.7 362.2L283.3 363.7L284.3 365.6L284.7 367.8L284.7 367.8L284.4 370.0L283.3 371.9L283.0 372.3L283.0 372.4L283.0 372.4L282.9 372.4L282.9 372.5L282.9 372.5L282.9 372.5L282.8 372.6L282.8 372.6L282.8 372.6L282.8 372.6L282.7 372.7L282.7 372.7L282.7 372.7L282.7 372.8L282.6 372.9L282.6 372.9L282.6 373.0L282.5 373.0L282.5 373.1L282.5 373.1L282.5 373.1L282.5 373.2L282.5 373.2L282.4 373.3L282.4 373.3L282.4 373.4L282.4 373.4L282.4 373.4L282.3 373.6L282.3 373.7L282.3 373.7L282.3 373.7L282.2 373.8L282.2 373.8L282.2 373.9L282.2 373.9L282.2 374.0L282.2 374.0L282.2 374.0L282.2 374.1L282.2 374.1L282.2 374.2L282.2 374.2L282.2 374.3L282.2 374.3L282.2 374.3L282.2 374.4L282.1 374.4L282.1 374.5L282.1 374.5L282.1 374.7L282.1 374.7L282.1 374.8L282.2 374.8L282.2 374.8L282.2 374.9L282.2 374.9L282.2 375.0L282.2 375.0L282.2 375.0L282.2 375.1L282.2 375.1L282.2 375.2L282.2 375.2L280.1 375.9L278.2 377.9L281.7 376.4L282.8 376.5L282.8 376.5L282.8 376.6L282.8 376.6L282.8 376.6L282.9 376.7L282.9 376.7L282.9 376.7L283.0 376.8L283.0 376.8L283.0 376.9L283.7 377.8L283.8 377.9L283.8 378.0L283.8 378.0L283.9 378.0L283.9 378.1L283.9 378.1L283.9 378.1L284.0 378.1L284.0 378.2L284.0 378.2L284.0 378.2L282.4 379.3L282.9 380.0L286.7 380.8L287.1 381.1L287.1 381.2L287.1 381.2L287.1 381.3L287.2 381.3L287.2 381.4L287.2 381.4L287.3 381.4L287.3 381.4L287.3 381.5L287.3 381.5L287.3 381.5L287.4 381.6L287.4 381.6L287.4 381.6L287.5 381.7L287.6 381.8L287.6 381.8L287.7 381.9L287.7 381.9L287.9 382.1L287.9 382.1L288.0 382.1L288.0 382.1L288.0 382.2L288.1 382.2L288.1 382.3L288.2 382.3L288.2 382.3L289.2 383.0L290.5 384.5L291.2 386.4L291.4 388.9L291.3 389.1L291.3 389.2L291.3 389.2L291.3 389.4L291.3 389.4L291.3 389.5L291.3 389.5L291.3 389.5L291.3 389.6L291.3 389.7L291.3 389.8L291.3 389.8L291.3 389.9L291.3 389.9L291.3 389.9L291.3 390.0L291.3 390.0L291.3 390.2L291.3 390.2L291.3 390.3L291.4 390.7L291.4 390.8L291.4 390.9L291.4 390.9L291.4 391.0L291.4 391.0L291.4 391.1L291.4 391.1L291.4 391.1L291.5 391.2L291.5 391.2L291.5 391.4L291.5 391.4L291.5 391.5L291.5 391.5L291.5 391.5L291.6 391.7L291.6 391.7L291.6 391.8L291.6 391.8L291.6 391.8L291.7 391.9L291.7 391.9L291.7 391.9L291.7 392.0L291.7 392.0L291.7 392.0L291.8 392.1L291.8 392.1L291.8 392.2L291.8 392.2L291.8 392.2L291.9 392.3L292.0 392.4L292.0 392.4L292.0 392.5L292.0 392.5L292.0 392.5L292.1 392.6L292.1 392.6L292.1 392.6L292.1 392.7L292.1 392.7L292.2 392.8L292.3 392.8L292.3 392.9L292.5 393.0L292.6 393.1L293.2 393.9L292.8 394.4L292.8 396.8L288.2 396.8L285.5 399.4L278.2 401.9L275.7 404.6L263.9 401.7L254.0 403.6L251.1 405.7L248.4 404.0L249.5 402.9L248.0 401.5L242.6 401.4L243.5 402.8L242.8 403.9L238.4 403.4L232.2 405.9L224.1 406.4L221.6 405.6L220.7 407.1L223.7 408.1L223.6 410.7L221.2 411.1L213.2 409.0L211.5 410.6L212.2 412.7L206.9 407.8L200.7 405.5L193.0 407.6L188.4 410.1L183.0 423.9L181.4 424.8L179.1 424.4L176.0 420.7L173.5 421.3L170.6 418.1L165.7 418.5L163.2 419.9L156.5 420.2L154.1 423.1L149.5 425.1L149.0 429.9L146.5 431.2L145.6 433.0L143.5 428.7L139.2 426.4L137.6 426.8L136.8 429.1L133.3 428.8L133.9 425.1L138.8 423L140.4 423.9L149.7 415.8L150.8 411.2L156.4 409.6L157.4 406.9L162.1 402.6L163.1 394.1L168.3 394.7L170.6 392.1L170.3 387.8L180.5 386.2L187.1 386.9L189.9 388.6L198.4 387.8L200.1 381.5L213.6 366.8L207.1 372.6L205.9 373.9L196.6 377.1L194.9 380.7L189.8 381.2L186.1 380.1L179.8 371.9L171.2 375.0L169.5 374.0L169.3 372.0L173.4 371.3L174.4 369.7L170.0 369.5L166.1 367.2L162.9 367.2L160.5 367.7L159.6 370.2L156.0 370.4L154.1 372.1L151.6 371.0L152.4 369.2L156.2 367.7L155.7 366.4L155.2 367.6L152.7 367.9L147.2 366.7L150.7 365.0L150.2 362.2L147.2 361.4L147.7 359.8L151.1 358.2L151.6 356.9L157.3 356.4L161.2 352.3L165.2 352.2L171.4 348.2L173.8 345.1L175.6 339.5L174.2 335.0L176.0 330.8L173.9 327.7L174.4 323.4L168.0 324.3L165.1 327.6L160.0 327.6L163.4 323.2L169.5 318.9L170.2 315.9L173.3 312.5L181.0 309.7L187.0 310.0L192.7 307.7L197.9 311.5L198.3 310.6L195.9 306.3L198.7 305.4L202.8 310.1L205.2 309.9L206.9 307.7L203.5 308.8L201.3 307.3L197.9 300.1L200.9 294.8L202.7 293.8L199.3 292.2L199.3 286.9L202.0 285.2L204.3 280.3L204.8 275.1L197.3 280.3L195.6 279.6L191.8 272.9L191.3 270.2L187.0 264.0L192.8 250.2 Z M 290.1 321.1L291.8 322.0L293.3 323.3L294.3 325.0L294.8 326.9L294.7 328.3L294.7 328.6L294.7 328.7L294.7 328.7L294.7 328.8L294.7 328.9L294.7 328.9L294.7 329.0L294.7 329.0L294.7 329.0L294.7 329.1L294.7 329.2L294.6 329.2L294.6 329.2L294.7 329.3L294.7 329.4L294.7 329.4L294.7 329.5L294.7 329.5L294.7 329.5L294.7 329.6L294.7 329.7L294.7 329.7L294.7 329.8L294.7 329.8L294.8 330.3L294.8 330.4L294.8 330.6L294.6 332.3L293.4 335.0L291.5 336.7L289.2 337.5L288.1 337.6L288.1 337.6L286.1 337.3L284.3 336.5L282.9 335.2L282.9 335.2L282.9 335.2L282.8 335.1L282.8 335.1L282.8 335.0L282.7 335.0L282.7 335.0L282.7 335.0L282.7 334.9L282.6 334.9L282.6 334.9L282.5 334.8L282.5 334.8L282.5 334.8L282.5 334.8L282.4 334.7L282.4 334.7L282.3 334.7L282.3 334.7L282.3 334.6L282.3 334.6L282.2 334.6L282.2 334.6L282.0 334.5L282.0 334.4L281.9 334.4L281.9 334.4L281.9 334.4L281.8 334.4L281.8 334.3L281.8 334.3L281.7 334.3L281.7 334.3L281.7 334.3L281.6 334.3L281.6 334.2L281.5 334.2L281.5 334.2L281.5 334.2L281.3 334.1L281.3 334.1L281.2 334.1L281.2 334.1L281.2 334.1L281.1 334.1L281.1 334.1L280.9 334.1L280.9 334.0L280.9 334.0L280.8 334.0L280.8 334.0L280.8 334.0L280.7 334.0L280.6 334.0L280.6 334.0L280.6 334.0L280.5 334.0L280.5 334.0L280.5 334.0L280.2 334.0L280.1 334.0L280.1 334.0L280.1 334.0L280.0 334.0L279.9 334.0L279.9 334.0L279.8 334.0L279.8 334.0L279.8 334.0L279.7 334.1L279.7 334.1L279.6 334.1L279.5 334.1L278.3 334.3L277.5 334.3L277.5 334.3L275.4 333.7L273.5 332.6L272.2 330.9L271.4 328.9L271.3 327.8L271.3 327.8L271.3 327.0L271.3 326.8L271.4 326.5L271.4 326.4L271.4 326.4L271.4 326.3L271.4 326.3L271.4 326.2L271.4 326.1L271.4 326.1L271.4 326.1L271.4 326.0L271.4 325.9L273.3 327.7L276.1 328.3L280.0 321.2L287.5 320.8L290.0 321.1 Z M 245.1 273.4L245.2 273.4L244.7 272.3L244.4 270.4L244.7 268.5L245.5 266.7L245.5 266.7L247.0 265.1L249.0 264.0L250.7 263.8L253.8 265.3L258.0 273.6L260.7 276.5L263.1 277.8L262.8 278.4L261.4 279.5L261.3 279.5L261.3 279.6L261.2 279.6L261.2 279.6L261.1 279.6L261.1 279.7L261.1 279.7L261.1 279.7L261.0 279.7L261.0 279.8L260.9 279.8L260.9 279.8L260.9 279.9L260.8 279.9L260.8 279.9L260.8 279.9L260.8 280.0L260.7 280.0L260.7 280.0L260.7 280.0L260.7 280.1L260.6 280.1L260.6 280.2L260.6 280.2L260.5 280.2L260.5 280.3L260.5 280.3L260.4 280.3L260.4 280.4L260.4 280.4L260.3 280.4L260.3 280.5L260.3 280.5L260.3 280.5L260.3 280.6L260.2 280.6L260.2 280.7L259.9 281.1L258.6 282.4L257.0 283.4L255.3 283.8L254.6 283.9L252.8 283.6L251.0 282.9L249.5 281.7L248.5 280.2 Z M 227.7 271.6L227.6 269.6L228.1 267.9L229.7 265.5L231.3 264.4L233.0 263.8L234.9 263.7L236.8 264.2L236.8 264.2L238.4 265.1L239.8 266.5L239.8 266.5L239.8 266.6L240.7 268.4L241.0 270.3L240.8 272.3L239.9 274.1L239.8 274.3L238.2 275.9L236.3 276.9L234.1 277.1L234.1 277.1L231.9 276.7L229.9 275.5L228.5 273.8L227.7 271.6 Z M 228.2 259.8L226.6 258.8L225.4 257.4L224.6 255.8L224.2 253.4L224.2 253.4L224.7 251.2L225.8 249.3L227.6 247.8L229.7 247.0L229.7 247.0L230.5 246.9L231 246.9L233.2 247.3L235.2 248.4L236.6 250.1L237.6 254.2L237.0 256.5L235.5 258.6L235.5 258.6L233.9 259.7L232.0 260.3L230.1 260.3L228.2 259.8 Z M 147.1 160.6L148.2 161.5L148.1 161.9L144.3 165.2L142.5 167.6L140.8 168.1L140.4 166.9L141.8 164.1L140.7 162.3L139.7 164.2L137.8 162.4L134.9 162.7L134.8 162.4L135.8 161.2L137.5 160.1L140.2 159.5L141.3 159.6L141.4 159.6L141.5 159.7L141.5 159.7L141.5 159.7L141.6 159.7L141.6 159.7L141.6 159.7L141.7 159.7L141.7 159.7L141.7 159.7L141.8 159.7L142.0 159.7L142.1 159.7L142.1 159.7L142.2 159.7L142.2 159.7L142.3 159.7L142.4 159.7L142.4 159.7L142.4 159.6L142.5 159.6L142.8 159.6L143.8 160.2L144.8 159.7L145.3 159.8 Z M 148.6 161.8L148.7 161.9L149.8 163.7L150.1 164.9L148.4 163.3 Z M 150.3 166.1L150.3 166.3L149.9 168.5L149.9 168.6L149.9 168.7L149.9 168.7L149.9 168.7L149.8 168.8L149.8 168.8L149.8 168.9L149.8 168.9L149.8 169L149.8 169.0L149.8 169.0L149.8 169.1L149.8 169.1L149.8 169.2L149.8 169.2L149.8 169.3L149.7 169.4L149.7 169.4L149.7 169.4L149.7 169.5L149.7 169.5L149.7 169.5L149.7 169.8L148.5 169.9L145.5 167.4L146.8 165.1 Z M 149.7 169.9L149.7 170.0L149.8 170.0L149.8 170.1L149.8 170.1L149.8 170.1L149.8 170.2L149.8 170.2L149.8 170.2L149.8 170.3L149.8 170.3L149.8 170.4L149.8 170.4L149.8 170.5L149.8 170.5L149.9 170.6L149.9 170.6L149.9 170.7L149.9 170.7L149.9 170.7L149.9 170.8L149.9 170.8L150.0 170.8L150.0 170.9L150.0 171.0L150.0 171.0L150.0 171.0L150.0 171.1L150.1 171.1L150.1 171.1L150.1 171.2L150.1 171.2L150.2 171.3L150.2 171.3L150.2 171.4L150.3 171.5L150.3 171.5L150.3 171.6L150.4 171.6L150.4 171.6L150.4 171.7L150.4 171.7L150.5 171.8L150.5 171.8L150.5 171.8L150.6 171.9L150.6 171.9L150.6 171.9L150.7 172.0L150.7 172.0L150.7 172.0L150.8 172.1L150.9 172.2L150.9 172.2L150.9 172.2L151.0 172.3L151.0 172.3L151.0 172.3L151.1 172.3L151.1 172.4L151.1 172.4L151.2 172.4L151.2 172.4L151.2 172.4L151.3 172.5L151.3 172.5L151.4 172.5L151.4 172.5L151.4 172.6L151.5 172.6L151.5 172.6L151.5 172.6L151.6 172.6L151.6 172.7L151.6 172.7L151.7 172.7L151.7 172.7L151.7 172.7L151.8 172.7L151.8 172.7L151.9 172.8L151.9 172.8L151.9 172.8L152.0 172.8L152.0 172.8L152.1 172.8L152.1 172.9L152.1 172.9L152.2 172.9L152.2 172.9L152.3 172.9L152.3 172.9L152.3 172.9L152.4 172.9L152.4 172.9L152.5 173.0L152.5 173.0L152.6 173.0L152.7 173.0L152.7 173.0L152.7 173.0L152.8 173.0L152.8 173.0L152.8 173.0L152.9 173.0L152.9 173.0L153 173.0L153.0 173.0L153.2 173.0L153.2 173.0L153.3 173.0L153.7 173.0L153.7 173.0L154.8 173.1L157.0 173.9L157.0 173.9L158.5 175.1L159.6 176.6L160.3 178.5L160.3 178.5L160.4 180.0L160.4 180.0L160.3 180.8L160.2 181.3L159.5 183.0L159.5 183.0L159.5 183.1L159.5 183.1L159.5 183.1L159.4 183.2L159.4 183.2L159.4 183.3L159.3 183.4L159.3 183.4L159.3 183.4L159.3 183.5L159.3 183.6L159.3 183.6L159.2 183.7L159.2 183.8L159.2 183.8L159.2 183.8L159.2 183.9L159.2 183.9L159.2 184.0L159.2 184.0L159.2 184.1L159.1 184.1L159.1 184.2L159.1 184.2L159.1 184.2L159.1 184.3L159.1 184.3L159.1 184.3L159.1 184.4L159.1 184.4L159.1 184.5L159.1 184.5L159.1 184.5L159.1 184.8L159.1 184.8L159.1 184.9L159.1 184.9L159.1 184.9L159.1 185.0L159.1 185.0L159.1 185.0L159.1 185.1L159.1 185.2L159.1 185.2L159.1 185.2L159.2 185.3L159.2 185.3L159.2 185.3L159.2 185.4L159.2 185.5L159.2 185.5L159.2 185.5L159.2 185.6L159.3 185.8L159.3 185.9L159.3 185.9L159.4 185.9L159.4 186.0L159.4 186.0L159.4 186.1L159.4 186.1L159.4 186.1L159.5 186.2L159.5 186.2L159.5 186.2L159.5 186.3L159.6 186.3L159.6 186.5L159.7 186.5L159.7 186.6L159.7 186.6L159.7 186.6L159.8 186.7L159.8 186.7L159.8 186.7L159.8 186.7L159.9 186.8L159.9 186.8L159.9 186.9L159.9 186.9L160.0 186.9L160.0 187.0L160.0 187.0L160.1 187.0L160.1 187.0L160.2 187.1L160.2 187.1L160.2 187.1L160.3 187.2L160.3 187.3L160.4 187.3L160.4 187.3L160.4 187.3L160.5 187.4L160.5 187.4L160.5 187.4L160.6 187.4L160.6 187.4L160.6 187.5L160.7 187.5L162.3 189.0L163.4 190.9L163.8 193.1L163.8 193.1L163.7 194.2L163.7 194.3L163.6 194.3L163.6 194.5L163.6 194.5L163.6 194.6L163.6 194.6L163.6 194.7L163.6 194.7L163.6 194.8L163.6 194.9L163.6 194.9L163.6 195.0L163.6 195.0L163.6 195.1L163.6 195.2L163.6 195.2L163.6 195.3L163.7 195.4L163.7 195.4L163.7 195.7L163.7 197.4L163.4 198.6L162.6 200.2L161.5 201.5L161.5 201.6L161.4 201.6L161.4 201.6L161.3 201.7L161.3 201.8L161.2 201.8L161.2 201.9L161.1 201.9L161.1 202.0L161.0 202.0L161.0 202.1L161.0 202.1L161.0 202.1L161.0 202.1L160.9 202.2L160.9 202.3L160.9 202.3L160.8 202.3L160.8 202.4L160.8 202.4L160.8 202.4L160.8 202.5L160.7 202.5L160.7 202.5L160.7 202.6L160.7 202.6L160.7 202.6L160.6 202.7L160.6 202.8L160.6 202.8L160.6 202.8L160.6 202.9L160.5 203.1L160.5 203.2L160.5 203.2L160.4 203.4L160.4 203.4L160.4 203.5L160.4 203.5L160.4 203.5L160.4 203.6L160.4 203.6L160.4 203.6L160.4 203.7L160.4 203.7L160.4 203.8L159.9 205.8L158.8 207.6L157.2 209L157.1 209.0L157.1 209.0L157.1 209.0L157.0 209.0L157.0 209.1L157.0 209.1L157.0 209.1L156.9 209.1L156.9 209.2L156.9 209.2L156.8 209.2L156.8 209.2L156.8 209.3L156.7 209.3L156.6 209.4L156.6 209.4L156.5 209.5L156.5 209.5L156.5 209.5L156.4 209.6L156.4 209.6L156.3 209.7L156.3 209.7L156.2 209.8L156.2 209.8L156.2 209.9L156.2 209.9L156.1 209.9L156.1 210.0L156.1 210.0L156.0 209.9L154.9 210.8L154.9 211.5L154.8 211.6L154.7 211.6L154.7 211.7L154.7 211.7L154.7 211.7L154.6 211.8L154.6 211.8L154.5 211.9L154.5 211.9L154.5 211.9L154.5 211.9L154.4 212.0L154.4 212.0L154.4 212.0L154.3 212.1L154.3 212.1L154.3 212.1L154.3 212.2L154.3 212.2L154.2 212.2L154.2 212.3L154.2 212.3L154.2 212.3L154.1 212.4L154.1 212.4L154.1 212.5L154.0 212.5L154.0 212.6L154.0 212.6L154.0 212.6L154.0 212.7L154.0 212.7L153.9 212.8L153.9 212.8L153.9 212.9L153.9 212.9L153.8 213.0L153.8 213.0L153.8 213.0L153.1 212.7L152.4 210.6L153.3 206.8L155.7 202.8L161.8 197.2L154.9 202.7L151.5 207.0L150.7 206.5L151.3 216.4L149.3 219.6L149.2 219.6L147.3 220.0L147.3 220.0L146.0 220.0L146 220.0L145.4 219.9L145.4 219.8L145.3 219.8L145.3 219.8L145.3 219.8L145.2 219.8L145.2 219.8L145.1 219.8L145.1 219.8L145.1 219.8L145.0 219.8L146.5 215.8L145.2 213.9L145.4 210.0L147.8 205.4L145.6 207.7L145.5 207.0L149.4 200.1L147.5 200.8L148.3 194.7L151.7 190.8L155.9 190.9L158.3 188.3L159.2 186.3L156.3 190.2L152.3 189.1L152.8 187.6L155.5 186.4L153.4 186.7L152.8 185.2L158.6 176.8L146.5 188.3L141.5 185.1L140.0 182.5L149.5 180.9L145.2 180.0L141.9 181.2L136.3 180.7L135.5 179.2L136.5 178.1L141.4 177.2L143.4 178.8L144.6 177.1L143.6 175.6L147.5 174.4L146.1 173.2L142.3 173.2L144.9 168.8L148.2 170.4 Z M 155.9 210.3L155.8 210.3L155.9 210.2 Z M 130.3 181.3L130.3 181.3L130.3 181.2L130.3 181.2L130.3 181.2L130.3 181.1L130.3 181.0L130.3 180.9L130.2 180.9L130.2 180.8L130.2 180.7L130.2 180.4L130.9 180.0 Z M 134.8 170.7L134.8 170.7L134.8 170.7L134.7 170.6L134.7 170.6L134.7 170.5L134.7 170.5L134.7 170.4L134.7 170.4L134.7 170.3L134.7 170.3L134.7 170.3L134.6 170.2L134.6 170.0L134.6 170.0L134.6 169.9L134.5 169.9L134.5 169.8L134.5 169.8L134.5 169.7L134.4 169.7L134.4 169.7L134.4 169.6L134.4 169.6L134.4 169.5L133.7 168.0L133.6 167.1L134.4 166.5L135.9 167.8L135.6 170.1 Z M 244.9 407.2L242.4 410.4L239.7 411.3L234.6 408.1L232.8 408.3L239.0 404.1L243.5 405.3 Z M 246.9 401.8L247.2 403.9L245.7 403.5 Z M 135.9 208.6L137.6 218.2L132.1 221.9L131.0 221.3L132.9 214.4L131.2 214.1L127.8 218.1L127.8 215.6L129.2 211.2L132.0 211.0 Z M 136.3 201.7L134.7 205.0L133.4 204.6L134.1 203.2 Z M 145.5 202.7L138.9 214.3L136.8 213.3L136.9 209.8L139.5 205.5L145.3 201.0 Z M 145.9 200.4L144.7 200.7L145.9 199.4 Z M 147.5 197.3L146.7 199.8L146.8 197.0 Z M 148.0 194.8L147.2 196.8L146.8 195.5 Z M 131.5 193.1L130.9 194.5L130.4 194.2 Z M 149.8 191.5L148.9 192.7L148.6 191.6 Z M 136.5 188.5L135.7 188.9L134.5 188.2L135.0 187.5 Z M 140.6 186.0L147.0 189.9L146.7 191.7L142.8 195.0L142.0 193.3L139.1 194.9L132.7 196.1L132.2 193.3L134.7 194.1L139.2 192.5L135.7 192.8L135.4 192.0L139.8 187.9L137.2 188.5L133.0 185.5L133.5 183.4L137.8 181.9 Z M 138.6 171.8L137.4 173.7L136.4 172.3L137.8 170.8 Z M 138.6 171.8 "/>
<path style=" stroke:none;fill-rule:nonzero;fill:#C2B855;fill-opacity:1;" d="M 51.5 274.9L53.0 275.1L53.2 275.1L53.2 275.1L53.3 275.1L53.3 275.1L53.3 275.1L53.4 275.1L53.4 275.1L53.5 275.2L53.5 275.2L53.6 275.2L53.6 275.2L53.6 275.2L53.7 275.2L53.7 275.2L54.0 275.2L54.0 275.2L54.0 275.2L54.1 275.2L54.2 275.2L54.9 275.1L54.9 275.1L57.1 275.6L59.0 276.7L60.5 278.4L61.3 280.5L61.4 281.9L61.2 283.5L61.2 283.6L61.2 283.7L61.1 283.7L61.1 283.8L61.1 283.8L61.1 283.9L61.1 283.9L61.1 283.9L61.1 284.0L61.1 284.1L61.1 284.1L61.1 284.2L61.1 284.2L61.1 284.3L61.1 284.3L61.1 284.4L61.1 284.5L61.1 284.5L61.1 284.6L61.1 284.6L61.1 284.7L61.1 285.2L61.1 285.6L61.1 285.6L60.5 288.0L60.5 288.0L60.5 288.1L60.5 288.1L60.4 288.1L60.4 288.2L60.4 288.3L60.4 288.3L60.4 288.4L60.3 288.4L60.3 288.5L60.3 288.5L60.3 288.6L60.3 288.6L60.3 288.7L60.3 288.8L60.3 288.8L60.2 288.9L60.2 288.9L60.2 288.9L60.2 289.0L60.2 289.0L60.2 289.1L60.2 289.1L60.2 289.1L60.2 289.2L60.2 289.2L60.2 289.3L60.2 289.3L60.2 289.5L60.2 289.6L60.2 289.6L60.2 289.6L60.2 289.7L60.2 289.7L60.2 289.8L60.2 289.8L60.2 289.9L60.2 290.0L60.3 290.0L60.3 290.0L60.3 290.1L60.3 290.1L60.3 290.1L60.3 290.2L60.3 290.2L60.3 290.3L60.3 290.4L60.3 290.4L60.4 290.6L60.4 290.6L60.4 290.6L60.4 290.7L60.5 290.7L60.5 290.8L60.5 290.8L60.5 290.8L60.5 290.9L60.6 290.9L60.6 291.0L60.6 291.0L60.6 291.0L60.6 291.1L60.7 291.1L60.7 291.1L60.8 291.3L60.8 291.3L60.8 291.3L61.4 292.5L62.6 292.6L62.7 292.6L62.7 292.7L62.7 292.7L62.9 292.7L62.9 292.7L63.0 292.7L63.1 292.7L63.1 292.7L63.1 292.7L63.2 292.8L63.3 292.8L63.3 292.8L63.3 292.8L63.4 292.8L63.4 292.8L63.4 292.8L63.5 292.8L65.5 293.1L67.3 294.0L68.7 295.5L69.8 297.5L70.0 299.9L70.0 299.9L69.5 302.1L68.3 304.0L66.8 305.2L66.3 304.9L66.5 303.5L65.9 303.2L55.4 303.2L55.4 303.2L55.4 303.2L55.4 303.1L55.4 303.1L55.3 303.1L55.3 303.1L55.3 303.0L55.3 303.0L55.2 302.9L55.2 302.9L54.7 301.8L53.4 301.6L53.4 301.6L53.3 301.6L53.3 301.6L53.3 301.6L53.2 301.5L53.1 301.5L53.1 301.5L53.0 301.5L53.0 301.5L53.0 301.5L52.9 301.5L52.9 301.5L52.8 301.5L52.8 301.5L52.8 301.5L52.7 301.5L52.7 301.5L52.6 301.5L52.6 301.5L52.5 301.5L52.5 301.5L52.4 301.5L52.4 301.5L52.3 301.5L52.3 301.5L52.3 301.5L53.2 298.0L52.2 298.6L51.4 297.9L48.7 299.8L46.9 299.6L46.4 298.1L48.0 296.4L47.1 295.4L44.4 296.4L40.7 294.6L42.5 293.5L43.0 292.6L41.3 291.1L41.1 289.7L42.7 289.3L44.4 289.6L44.5 288.4L45.0 288.2L48.0 288.2L50.7 289.0L48.4 287.9L47.3 286.5L47.1 284.8L48.0 283.0L49.7 282.4L54.8 282.0L54.2 280.9L55.2 279.3L54.8 278.7L51.8 278.0L48.4 278.4L47.6 277.0L46.7 277.9L46.3 277.2L46.4 277.0L48.7 275.4L50.6 276.2L50.1 275.0L51.5 274.9 Z M 63.1 307.6L63.8 308.1L65.0 309.8L65.3 310.8L65.3 310.9L65.3 310.9L65.4 311.0L65.4 311.0L65.4 311.0L65.4 311.1L65.5 311.2L65.5 311.3L65.5 311.3L65.5 311.3L65.5 311.4L65.5 311.4L65.6 311.5L65.6 311.5L65.6 311.5L65.6 311.6L65.6 311.6L65.6 311.6L65.7 311.7L65.8 311.8L65.8 311.8L65.8 311.9L65.8 311.9L65.8 311.9L65.9 312.0L65.9 312.0L65.9 312.0L65.9 312.0L66.0 312.1L66.0 312.2L66.1 312.2L66.1 312.2L66.1 312.2L66.1 312.3L66.2 312.3L66.2 312.3L66.2 312.4L66.3 312.4L66.3 312.4L66.3 312.5L66.4 312.5L66.4 312.5L66.4 312.5L66.5 312.6L66.5 312.6L66.6 312.6L66.6 312.7L66.6 312.7L66.6 312.7L66.7 312.7L66.7 312.8L66.8 312.8L66.8 312.8L66.9 312.8L66.9 312.9L66.9 312.9L67.0 312.9L67.0 312.9L67.0 312.9L67.1 312.9L67.1 313.0L67.1 313.0L67.2 313.0L67.2 313.0L67.3 313.0L67.3 313.1L67.3 313.1L67.4 313.1L67.4 313.1L67.5 313.1L67.6 313.2L67.6 313.2L67.7 313.2L67.7 313.2L67.7 313.2L67.8 313.2L67.9 313.2L67.9 313.2L68.0 313.2L68.0 313.3L68.1 313.3L68.1 313.3L68.1 313.3L68.2 313.3L68.2 313.3L68.2 313.3L68.3 313.3L68.3 313.3L68.4 313.3L68.4 313.3L68.4 313.3L68.6 313.3L68.7 313.3L68.7 313.3L68.8 313.3L68.8 313.3L68.8 313.3L68.9 313.3L68.9 313.3L68.9 313.3L69.0 313.3L69.0 313.3L69.1 313.3L69.1 313.3L69.1 313.2L69.2 313.2L69.2 313.2L69.3 313.2L69.3 313.2L69.4 313.2L69.4 313.2L69.5 313.2L69.5 313.2L69.7 313.1L69.8 313.1L69.8 313.1L69.8 313.0L69.9 313.0L69.9 313.0L70.0 313.0L70.0 313.0L70.0 312.9L70.1 312.9L70.1 312.9L70.1 312.9L70.2 312.9L70.3 312.8L70.3 312.8L70.3 312.8L70.4 312.8L70.4 312.7L70.5 312.7L70.5 312.7L70.5 312.7L70.6 312.6L70.6 312.6L70.6 312.6L70.6 312.6L70.7 312.5L70.7 312.5L70.8 312.5L70.8 312.4L70.8 312.4L72.4 311.4L74.1 310.8L74.2 310.8L74.2 310.8L74.3 310.8L74.4 310.7L74.4 310.7L74.5 310.7L74.5 310.7L74.6 310.6L74.7 310.6L74.7 310.6L74.7 310.6L74.8 310.6L74.8 310.6L74.9 310.6L74.9 310.5L74.9 310.5L75.0 310.5L75.0 310.5L75.0 310.5L75.1 310.5L75.1 310.4L75.1 310.4L75.2 310.4L75.2 310.4L75.2 310.4L75.4 310.3L75.4 310.3L75.5 310.2L75.5 310.2L75.5 310.2L75.5 310.2L75.6 310.1L75.6 310.1L75.6 310.1L75.7 310.0L75.7 310.0L75.8 310.0L75.8 310.0L75.8 309.9L75.8 309.9L75.9 309.8L75.9 309.8L76.0 309.8L76.0 309.8L76.0 309.7L76.0 309.7L76.1 309.6L76.1 309.6L76.1 309.6L76.2 309.5L76.2 309.5L76.2 309.5L76.3 309.4L76.3 309.4L76.3 309.4L76.4 309.2L76.4 309.1L76.5 309.1L76.5 309.1L76.5 309.1L76.5 309.0L76.5 309.0L76.6 308.9L76.6 308.8L76.6 308.8L76.6 308.8L76.6 308.7L76.6 308.7L76.7 308.7L76.7 308.6L76.7 308.4L76.8 308.4L76.8 308.4L76.8 308.3L76.8 308.3L76.8 308.2L76.8 308.1L76.8 308.1L76.8 308.0L76.8 308.0L76.8 308.0L76.9 307.9L76.9 307.9L76.9 307.9L76.9 307.8L76.9 307.7L76.9 307.7L76.9 307.7L76.9 307.6L76.9 307.6L76.9 307.3L76.9 307.3L76.9 307.3L76.9 307.2L76.9 307.2L76.9 307.2L76.9 307.1L76.9 307.1L76.9 307.0L76.9 307.0L76.8 307.0L76.8 306.9L76.8 306.9L76.8 306.9L76.8 306.8L76.8 306.7L76.8 306.7L76.8 306.6L76.8 306.6L76.8 306.6L76.8 306.5L76.7 306.5L76.5 304.9L76.5 303.9L76.9 302.2L76.9 302.2L77.0 302.0L77.0 302.0L78.0 300.3L79.4 299.0L81.1 298.1L83.0 297.8L85.5 298.2L87.2 299.2L88.5 300.5L88.6 300.6L88.6 300.6L88.6 300.6L88.6 300.6L88.7 300.7L88.7 300.8L88.8 300.8L88.8 300.8L88.8 300.9L88.9 300.9L88.9 300.9L88.9 300.9L89.0 301.0L89.0 301.0L89.1 301.1L89.1 301.1L89.2 301.2L89.2 301.2L89.3 301.2L89.3 301.2L89.3 301.3L89.3 301.3L89.6 301.4L89.6 301.4L89.6 301.5L89.7 301.5L89.7 301.5L89.7 301.5L89.8 301.5L89.8 301.5L89.8 301.6L89.9 301.6L89.9 301.6L89.9 301.6L90.0 301.6L90.0 301.6L90.0 301.6L90.1 301.7L90.1 301.7L90.2 301.7L90.3 301.7L90.3 301.7L90.3 301.8L90.4 301.8L90.4 301.8L90.6 301.8L90.6 301.8L90.7 301.8L90.7 301.8L91.2 301.9L91.3 302.0L91.4 302.0L91.4 302.0L91.5 302.0L91.5 302.0L91.6 302.0L91.6 302.0L91.6 302.0L91.7 302.0L91.7 302.0L91.8 302.0L91.8 302.0L91.8 302.0L91.9 302.0L91.9 302.1L92 302.1L92.0 302.1L92.2 302.1L92.2 302.1L92.3 302.1L92.3 302.0L92.3 302.0L92.4 302.0L93.1 302.0L93.4 302.0L93.4 302.0L93.7 302.1L94.6 302.2L94.7 302.2L94.8 302.3L94.8 302.3L94.9 302.3L94.9 302.3L95.0 302.3L95.0 302.3L95.1 302.3L95.2 302.3L95.2 302.3L95.2 302.3L95.3 302.3L95.3 302.3L95.3 302.3L95.6 302.3L95.6 302.3L95.7 302.3L95.7 302.3L95.8 302.3L96.3 302.3L96.5 302.3L96.5 302.3L96.5 302.3L96.6 302.3L96.6 302.3L96.6 302.3L96.7 302.3L96.8 302.3L96.8 302.3L96.9 302.3L96.9 302.3L97.0 302.2L97.0 302.2L97.2 302.2L97.2 302.2L97.3 302.2L97.5 302.1L97.5 302.1L97.6 302.1L97.6 302.1L97.6 302.0L97.7 302.0L97.7 302.0L97.7 302.0L97.8 302.0L97.8 302.0L97.8 301.9L97.9 301.9L97.9 301.9L98.0 301.9L98.3 301.7L98.3 301.7L98.3 301.7L98.3 301.6L98.4 301.6L98.4 301.6L98.4 301.6L98.5 301.5L98.5 301.5L98.6 301.5L98.6 301.4L98.6 301.4L98.7 301.3L100.8 300.0L103.3 299.5L103.4 299.5L103.4 299.5L103.5 299.5L103.5 299.5L103.5 299.5L103.6 299.5L103.6 299.5L103.6 299.5L103.7 299.5L103.8 299.5L103.9 299.5L103.9 299.5L104.0 299.5L104.0 299.4L104.0 299.4L104.1 299.4L104.1 299.4L104.2 299.4L104.2 299.4L104.2 299.4L104.3 299.4L104.4 299.4L104.4 299.3L104.5 299.3L104.5 299.3L104.6 299.3L104.6 299.3L104.6 299.2L104.7 299.2L104.7 299.2L104.7 299.2L104.8 299.2L104.8 299.2L104.9 299.1L104.9 299.1L104.9 299.1L105.0 299.1L105.0 299.1L105.0 299.1L105.2 299.0L105.2 298.9L105.2 298.9L105.3 298.9L105.3 298.9L105.3 298.8L105.4 298.8L105.4 298.8L105.4 298.8L105.6 298.6L105.6 298.6L105.7 298.6L107.5 297.3L109.6 296.8L109.6 296.8L110.5 296.7L112.4 297.1L114.1 297.9L115.6 299.4L115.7 299.5L115.7 299.5L115.7 299.5L115.8 299.5L115.8 299.6L115.8 299.7L115.9 299.7L115.9 299.7L115.9 299.8L116.0 299.8L116.0 299.8L116.0 299.8L116.1 299.9L116.1 299.9L116.2 300.0L116.3 300.1L116.3 300.1L116.3 300.1L116.4 300.1L116.4 300.1L116.4 300.2L116.5 300.2L116.7 300.3L116.7 300.3L116.7 300.4L116.8 300.4L116.8 300.4L116.9 300.4L116.9 300.4L116.9 300.5L117.0 300.5L117.0 300.5L117.1 300.5L117.1 300.5L117.1 300.6L117.2 300.6L117.2 300.6L117.3 300.6L117.3 300.6L117.4 300.7L117.5 300.7L117.5 300.7L117.6 300.7L117.7 300.7L117.8 300.7L117.8 300.7L120.5 301.8L120.6 301.9L120.6 301.9L120.6 301.9L120.7 302L120.7 302.0L120.8 302.0L120.8 302.0L120.8 302.0L120.9 302.1L120.9 302.1L121.0 302.1L121.0 302.1L121.0 302.1L121.1 302.2L121.1 302.2L121.2 302.2L121.3 302.2L121.3 302.3L121.4 302.3L121.4 302.3L121.4 302.3L121.5 302.3L121.5 302.3L121.6 302.3L121.6 302.3L121.7 302.4L121.7 302.4L121.8 302.4L121.8 302.4L121.9 302.4L121.9 302.4L121.9 302.4L122.0 302.4L122.0 302.4L122.1 302.4L122.1 302.4L122.2 302.4L122.2 302.4L122.3 302.4L122.3 302.4L122.3 302.4L122.4 302.5L122.5 302.5L122.6 302.4L122.6 302.4L122.7 302.4L122.7 302.4L122.7 302.4L122.8 302.4L122.8 302.4L122.9 302.4L122.9 302.4L123.0 302.4L123.0 302.4L123.0 302.4L123.1 302.4L123.1 302.4L123.2 302.4L123.3 302.4L123.3 302.3L123.3 302.3L123.4 302.3L123.5 302.3L123.5 302.3L123.5 302.3L123.6 302.2L123.7 302.2L123.7 302.2L123.7 302.2L123.8 302.2L123.8 302.1L123.9 302.1L126.7 301.5L127.8 301.6L130.0 302.4L130.7 302.9L131.3 304.0L129.2 304.4L128.6 305.2L130.4 308.3L131.5 314.1L131.7 320.1L126.8 330.8L126.1 335.5L122.6 341.4L120.1 341.9L122.7 345.9L122.6 347.7L121.9 348.2L121.9 348.1L121.9 348.1L121.7 348.1L121.7 348.1L121.7 348.1L121.6 348.1L121.6 348.1L121.6 348.1L121.3 348.1L121.3 348.1L121.2 348.1L121.2 348.1L121.1 348.1L120.6 348.2L120.5 348.2L120.4 348.2L120.4 348.2L120.4 348.2L120.3 348.2L120.3 348.2L120.2 348.2L120.2 348.2L120.1 348.2L120.1 348.2L120.0 348.2L120.0 348.2L120.0 348.2L119.9 348.2L119.8 348.2L119.8 348.2L117.3 348.1L115.3 346.9L113.3 346.6L112.8 345.6L110.9 348.3L109.8 349.0L109.6 346.7L108.4 344.7L108.3 347.7L107.5 348.7L106.1 349.0L105.3 348.3L99.1 348.7L93.4 349.9L94.2 351.9L93.2 353.5L89.6 354.9L87.4 354.0L85.8 357.1L81.7 359.5L78.5 359.5L78.1 358.9L78.6 357.6L76.9 357.1L76.6 355.6L74.7 355.6L76.6 359.0L75.9 361.5L72.8 363.0L69.9 362.4L70.9 363.3L70.4 364.7L66.5 364.3L66.7 365.7L66.1 366.4L63.1 366.0L61.1 367.2L56.9 366.5L53.9 368.6L51.3 369.0L50.2 368.4L49.3 366.4L43.8 367.4L41.9 368.6L40.7 368.6L40.5 367.9L41.0 367.1L46.4 363.8L41.1 365.2L40.7 364.9L48.7 361.1L49.2 360.4L49.1 359.7L47.8 359.2L45.4 360.5L39.9 361.3L36.1 362.8L33.4 362.3L35.1 360.3L37.1 359.3L38.0 358.1L41.2 356.9L43.3 355.3L46.9 353.8L34.6 356.8L32.9 355.7L32.5 353.7L29.7 354.3L28.9 352.0L28.9 351.9L28.9 351.8L29.0 351.8L29.0 351.7L29.0 351.7L29.0 351.7L29.0 351.6L29.1 351.4L29.1 351.4L29.1 351.4L29.1 351.3L29.1 351.3L29.1 351.1L29.2 351.1L29.2 351.1L29.2 351.0L29.2 351.0L29.2 351.0L29.2 350.9L29.2 350.9L29.2 350.8L29.2 350.8L29.2 350.7L29.2 350.7L29.2 350.7L29.2 350.6L29.2 350.6L29.2 350.6L29.2 350.4L29.6 350.0L30.3 350.2L30.6 350.9L31.6 350.5L32.7 349.2L31.6 348.6L32.7 347.7L38.1 346.1L41.1 344.0L43.5 343.7L43.7 343.0L42.3 342.6L39.5 343.3L32.3 342.7L30.6 342.8L30.6 342.8L30.6 342.8L30.6 342.8L30.6 342.7L30.6 342.7L30.6 342.7L30.7 342.6L30.7 342.6L30.7 342.5L30.7 342.5L30.7 342.5L30.7 342.4L30.7 342.4L30.7 342.4L30.7 342.3L30.7 342.3L30.7 342.3L30.7 342.0L30.7 342.0L30.7 341.9L30.7 341.9L30.7 341.8L30.7 341.8L30.7 341.8L30.7 341.7L30.7 341.7L30.7 341.7L30.7 341.6L30.7 341.6L30.6 341.6L30.6 341.5L30.6 341.5L30.6 341.4L30.6 341.3L30.6 341.3L30.6 341.2L30.6 341.2L30.6 341.2L30.5 341.1L30.5 341.1L30.5 341.1L30.5 341.0L30.5 340.9L30.5 340.9L30.4 340.9L30.4 340.8L30.4 340.8L30.4 340.7L30.4 340.6L30.1 339.8L30.1 339.8L32.0 338.1L34.5 337.2L36.3 338.5L38.7 337.0L39.8 338.8L41.0 339.4L44.6 339.1L42.7 337.6L43.1 334.8L41.8 332.8L47.6 331.0L47.9 328.8L49.1 327.8L56.6 328.1L65.6 326.0L71.8 326.2L65.2 324.6L64.9 321.5L63.5 322.4L61.2 325.6L59.4 326.7L56.8 327.3L56.4 326.3L53.5 326.4L50.9 324.7L46.4 327.0L44.5 327.1L44.3 326.4L44.3 326.0L50.1 321.8L52.5 320.6L56.0 315.3L54.7 314.1L54.9 313.0L59.0 307.8L59.8 307.4L61.9 307.7 Z M 128.8 293.3L128.0 293.9L125.9 294.5L125.9 294.5L125.0 294.6L125.0 294.6L122.9 294.2L121.0 293.2L119.6 291.6L118.6 289.7L118.4 287.6L118.4 287.6L118.4 287.3L118.9 285.3L119.9 283.6L121.4 282.2L123.2 281.4L125.2 281.1L125.2 281.1L126.4 281.3L126.1 282.8L126.5 284.1L128.5 287.0L128.5 289.0L127.4 290.9 Z M 128.8 293.3 "/>
<path style=" stroke:none;fill-rule:nonzero;fill:#C2B855;fill-opacity:1;" d="M 40.8 362.3L39.3 362.6L38.8 362.1L39.3 361.7L41.0 361.9 Z M 40.8 362.3 "/>
<path style=" stroke:none;fill-rule:nonzero;fill:#C2B855;fill-opacity:1;" d="M 51.2 301.6L50.9 301.7L50.2 301.7L50.6 300.3L51.2 300.5 Z M 51.2 301.6 "/>
<path style=" stroke:none;fill-rule:nonzero;fill:#C2B855;fill-opacity:1;" d="M 40.8 287.2L40.3 287.5L39.5 286.8L40.6 286.7 Z M 40.8 287.2 "/>
<path style=" stroke:none;fill-rule:nonzero;fill:#C2B855;fill-opacity:1;" d="M 44.7 281.0L46.1 280.3L46.7 280.8 Z M 44.7 281.0 "/>
<path style=" stroke:none;fill-rule:nonzero;fill:#C2B855;fill-opacity:1;" d="M 32.8 362.1L31.2 362.8L31.8 362.2 Z M 32.8 362.1 "/>
<path style=" stroke:none;fill-rule:nonzero;fill:#C2B855;fill-opacity:1;" d="M 48.3 369.8L47.7 370.4L47.0 370.3 Z M 48.3 369.8 "/>
<path style=" stroke:none;fill-rule:nonzero;fill:#C2B855;fill-opacity:1;" d="M 52.8 309.9L52.9 309.6L53.0 309.5L53.7 309.8 Z M 52.8 309.9 "/>
<path style=" stroke:none;fill-rule:nonzero;fill:#C2B855;fill-opacity:1;" d="M 42.4 284.5L42.4 284.5L42.4 284.5L42.4 284.5L42.5 284.4L42.5 284.4L42.5 284.4L42.6 284.4L42.6 284.4L42.7 284.3L42.7 284.3L42.8 284.3L42.8 284.3L42.8 284.3L42.9 284.2L42.9 284.2L43.0 284.2L43.0 284.2L43.0 284.5 Z M 42.4 284.5 "/>
















</g>
</svg>
