<?xml version="1.0" encoding="UTF-8"?>
<svg xmlns="http://www.w3.org/2000/svg" xmlns:xlink="http://www.w3.org/1999/xlink" width="378pt" height="504pt" viewBox="0 0 378 504" version="1.1">
<g id="data">
<rect x="0" y="0" width="378" height="504" style="fill:rgb(100%,100%,100%);fill-opacity:1;stroke:none;"/>
<path style=" stroke:none;fill-rule:nonzero;fill:rgb(100%,100%,100%);fill-opacity:1;" d="M 21 504L357 504L357 0L21 0 Z M 21 504 "/>
<path style=" stroke:none;fill-rule:nonzero;fill:rgb(77.6%,78.8%,62.3%);fill-opacity:1;" d="M 283.6 335.9L282.3 334.4L281.6 332.6L281.4 330.6L281.9 328.3L282.9 326.6L284.3 325.3L286.6 324.3L288.1 324.2L290.0 324.5L291.8 325.3L293.4 326.8L294.4 328.6L294.8 330.7L294.8 330.7L294.6 332.6L293.9 334.3L292.5 336.0L290.6 337.1L288.5 337.6L286.7 337.5L285.0 336.9 Z M 234.3 381.1L234.5 379.8L234.5 379.7L234.5 379.6L234.5 379.6L234.5 379.5L234.5 379.5L234.5 379.5L234.6 379.4L234.6 379.4L234.6 379.3L234.6 379.2L234.6 379.2L234.6 379.2L234.6 379.1L234.6 379.0L234.6 379.0L234.6 379L234.6 378.9L234.6 378.8L234.6 378.8L234.6 378.8L234.6 378.7L234.6 378.7L234.6 378.7L234.6 378.6L234.6 378.6L234.6 378.5L234.5 378.5L234.5 378.5L234.5 378.4L234.5 378.4L234.5 378.4L234.5 378.3L234.5 378.1L234.5 378.1L234.5 378.1L234.4 378.0L234.4 378.0L234.4 377.8L234.4 377.8L234.4 377.8L234.3 377.7L234.3 377.7L234.3 377.7L234.3 377.6L234.3 377.6L234.3 377.6L234.3 377.5L234.2 377.5L234.2 377.5L234.2 377.4L234.2 377.4L234.2 377.4L234.1 377.3L234.1 377.3L234.0 377.1L234.0 377.1L234.0 377.0L233.9 377.0L233.9 377.0L233.9 377.0L233.9 376.9L233.9 376.9L233.8 376.9L233.8 376.8L233.7 376.8L233.7 376.7L233.7 376.7L233.7 376.7L233.6 376.6L233.6 376.6L233.6 376.6L233.6 376.6L233.5 376.5L233.5 376.5L233.5 376.5L233.4 376.4L233.4 376.4L233.3 376.4L231.8 374.5L231.0 372.3L231.0 372.3L231.0 370.4L231.0 370.1L231.0 370.1L231.1 370.0L231.1 370.0L231.1 369.9L231.1 369.9L231.1 369.8L231.1 369.8L231.1 369.8L231.1 369.7L231.1 369.6L231.1 369.6L231.1 369.5L231.1 369.5L231.1 369.4L231.1 369.3L231.1 369.3L231.1 369.3L231.1 369.2L231.1 369.2L231.1 369.1L231.1 369.1L231.0 369.0L231.0 369.0L231.0 367.3L231.3 365.7L232.2 363.9L233.6 362.5L235.4 361.5L235.5 361.5L235.5 361.5L235.6 361.5L235.6 361.5L235.6 361.5L235.7 361.4L235.7 361.4L235.8 361.4L235.8 361.4L235.8 361.4L235.9 361.3L235.9 361.3L235.9 361.3L236.0 361.3L236.0 361.3L236.0 361.2L236.2 361.1L236.2 361.1L236.3 361.1L236.3 361.1L236.3 361.1L236.4 361.0L236.4 361.0L236.4 361.0L236.5 361L236.5 360.9L236.5 360.9L236.6 360.8L236.6 360.8L236.7 360.8L236.8 360.7L236.8 360.6L236.8 360.6L236.9 360.6L236.9 360.5L237.0 360.5L237.0 360.4L237.0 360.4L237.0 360.4L237.0 360.3L237.1 360.3L237.1 360.3L237.1 360.2L237.2 360.0L237.3 360.0L237.3 360.0L237.3 359.9L237.3 359.9L237.3 359.9L237.3 359.8L237.4 359.8L237.4 359.8L237.4 359.7L237.4 359.7L237.4 359.6L237.5 359.6L237.5 359.5L237.5 359.4L237.8 358.9L237.7 358.2L237.7 358.2L237.7 357.8L237.8 356.7L237.8 356.7L238.2 355.1L239.1 353.6L240.4 352.4L242.2 351.4L244.2 351.1L244.2 351.1L245.0 351.1L247.0 351.6L248.7 352.6L250.0 354.1L250.8 355.9L251.1 357.9L251.1 357.9L250.7 360.0L250.7 360.0L250.4 360.7L250.5 361.3L250.5 361.4L250.5 361.4L250.5 361.5L250.5 361.5L250.6 361.6L250.6 361.6L250.6 361.6L250.6 361.7L250.6 361.7L250.6 361.8L250.6 361.8L250.6 361.8L250.6 361.9L250.6 361.9L250.6 362.0L250.6 362.0L250.7 362.1L250.7 362.1L250.7 362.1L250.7 362.3L250.8 362.4L250.8 362.4L250.8 362.4L250.8 362.5L250.8 362.5L250.8 362.6L250.9 362.6L250.9 362.7L250.9 362.7L250.9 362.8L251.0 362.8L251.0 362.8L251.1 363.1L251.1 363.1L251.2 363.1L251.2 363.2L251.2 363.2L251.2 363.2L251.3 363.3L251.3 363.3L251.3 363.3L251.4 363.4L251.4 363.4L251.4 363.5L251.5 363.5L251.5 363.5L251.5 363.6L251.6 363.6L251.6 363.6L251.6 363.6L251.6 363.7L251.7 363.7L251.7 363.7L251.8 363.8L251.8 363.8L251.8 363.8L251.9 363.8L251.9 363.9L251.9 363.9L252.0 363.9L252.0 363.9L252.0 364.0L252.1 364.0L252.1 364.0L252.2 364.1L252.2 364.1L252.3 364.1L252.3 364.1L252.3 364.1L252.4 364.2L252.4 364.2L252.4 364.2L252.5 364.2L252.5 364.2L252.6 364.3L252.6 364.3L252.6 364.3L252.7 364.3L252.8 364.3L252.8 364.3L252.8 364.4L253 364.4L253.0 364.4L253.0 364.4L253.1 364.4L253.1 364.4L253.2 364.5L253.2 364.5L253.3 364.5L253.3 364.5L253.3 364.5L253.4 364.5L253.4 364.5L253.5 364.5L253.5 364.5L253.5 364.5L253.6 364.5L253.6 364.5L253.7 364.5L253.7 364.5L253.8 364.5L253.8 364.5L254.0 364.5L254.0 364.5L254.1 364.5L254.3 364.5L254.3 364.5L254.7 364.5L257.0 365.0L258.8 366.1L260.2 367.7L260.2 367.8L260.3 367.8L260.3 367.9L260.3 367.9L260.3 367.9L260.3 367.9L260.4 368.0L260.4 368.0L260.4 368.0L260.4 368.1L260.5 368.1L260.5 368.1L260.5 368.2L260.6 368.2L260.6 368.2L260.6 368.3L260.6 368.3L260.6 368.3L260.7 368.3L260.7 368.4L260.7 368.4L260.8 368.4L260.8 368.5L260.8 368.5L260.9 368.5L260.9 368.5L260.9 368.6L260.9 368.6L261.0 368.6L261.0 368.6L261.0 368.6L261.1 368.7L261.1 368.7L261.1 368.7L261.1 368.7L261.2 368.8L261.2 368.8L261.2 368.8L261.3 368.8L261.4 368.9L262.9 370.2L264.0 371.9L264.5 373.8L264.5 373.8L264.5 374.0L264.5 374.1L264.5 374.1L264.5 374.1L264.5 374.2L264.5 374.2L264.6 374.3L264.6 374.3L264.6 374.3L264.6 374.4L264.6 374.5L264.6 374.5L264.6 374.6L264.6 374.7L264.6 374.7L264.7 374.9L264.7 375.0L264.8 375.0L264.8 375.0L264.8 375.1L264.8 375.1L264.8 375.1L264.8 375.2L264.8 375.2L264.9 375.2L264.9 375.3L264.9 375.3L264.9 375.3L264.9 375.4L264.9 375.4L265.0 375.4L265.1 375.6L265.1 375.7L265.1 375.7L265.2 375.7L265.2 375.8L265.2 375.8L265.2 375.9L265.3 375.9L265.3 376.0L265.4 376.0L265.4 376.0L265.5 376.1L265.5 376.1L265.5 376.2L265.5 376.2L265.6 376.2L265.6 376.2L265.6 376.3L265.7 376.3L266.0 376.7L267.4 378.8L267.9 381.3L267.9 381.4L267.9 381.4L267.9 381.5L267.9 381.5L267.9 381.5L267.9 381.6L267.9 381.6L267.9 381.6L267.9 381.7L267.9 381.7L267.9 381.8L267.9 381.8L268.0 381.8L268.0 381.9L268.0 381.9L268.0 381.9L268.0 382.0L268.0 382.0L268.0 382.1L268.0 382.1L268.0 382.2L268.0 382.2L268.0 382.3L268.1 382.4L268.1 382.5L268.1 382.5L268.2 382.6L268.2 382.6L268.2 382.6L268.2 382.7L268.2 382.7L268.3 382.8L268.3 382.8L268.3 382.8L268.3 382.9L268.3 382.9L268.3 382.9L268.4 383.0L268.4 383.0L268.4 383.1L268.4 383.1L268.5 383.2L268.5 383.2L268.5 383.2L268.5 383.3L268.6 383.3L268.6 383.3L268.6 383.3L268.6 383.4L268.7 383.4L268.8 383.5L268.8 383.6L268.8 383.6L268.8 383.6L268.9 383.7L268.9 383.7L269.0 383.8L269.0 383.8L269.0 383.8L269.1 383.9L269.2 383.9L269.2 384.0L269.2 384.0L269.3 384.0L269.3 384.0L269.3 384.0L269.4 384.1L269.4 384.1L269.4 384.1L269.5 384.1L269.5 384.2L269.5 384.2L269.6 384.2L269.6 384.2L269.7 384.3L269.7 384.3L269.7 384.3L269.8 384.3L269.8 384.3L269.9 384.4L269.9 384.4L269.9 384.4L270.0 384.4L270.0 384.4L270.0 384.4L270.1 384.5L270.1 384.5L270.3 384.5L270.4 384.5L270.4 384.6L270.4 384.6L270.5 384.6L270.5 384.6L270.6 384.6L270.6 384.6L270.7 384.6L270.8 384.6L270.8 384.6L270.8 384.6L270.9 384.6L270.9 384.6L270.9 384.7L271.0 384.7L271.0 384.7L271.0 384.7L271.1 384.7L271.2 384.7L271.2 384.7L271.4 384.7L272.4 384.8L272.4 384.8L272.5 384.8L272.5 384.8L272.5 384.8L272.6 384.8L272.7 384.8L272.7 384.8L272.8 384.8L272.8 384.8L272.8 384.8L272.9 384.8L273.0 384.8L273.1 384.8L273.1 384.8L273.1 384.8L273.2 384.8L273.2 384.8L273.4 384.8L273.4 384.8L273.4 384.8L273.5 384.8L273.5 384.8L274.8 384.7L274.8 384.7L277.0 385.1L278.7 386.0L280.0 387.4L281.0 389.1L281.0 389.2L281.0 389.2L281.0 389.3L281.0 389.3L281.1 389.4L281.1 389.4L281.2 389.7L281.2 389.7L281.2 389.7L281.3 389.8L281.3 389.8L281.3 389.8L281.3 389.9L282.1 391.7L282.2 391.9L282.3 391.8L284.2 391.4L284.2 391.4L284.5 391.4L284.5 391.4L285.3 391.4L286.8 391.7L288.8 392.8L290.4 394.5L291.1 396.2L291.2 396.8L288.2 396.8L285.5 399.4L279.0 401.6L278.2 399.9L278.2 399.7L278.0 399.8L276.1 400.2L276.0 400.2L276 400.2L275.9 400.2L275.9 400.2L275.8 400.2L275.8 400.2L275.8 400.2L275.7 400.2L275.7 400.2L275.6 400.2L275.5 400.3L275.5 400.3L275.4 400.3L275.3 400.3L275.3 400.3L275.3 400.3L275.2 400.3L275.1 400.4L275.1 400.4L275.0 400.4L275.0 400.4L275.0 400.4L274.9 400.4L274.9 400.4L274.9 400.5L274.8 400.5L274.8 400.5L274.8 400.5L274.7 400.5L274.7 400.6L274.6 400.6L274.6 400.6L274.5 400.6L271.6 401.5L271.1 401.5L271.1 401.5L269.5 401.2L268.0 400.6L267.9 400.6L267.9 400.6L267.8 400.5L267.8 400.5L267.8 400.5L267.7 400.5L267.7 400.5L267.6 400.4L267.6 400.4L267.5 400.4L267.5 400.4L267.5 400.4L267.4 400.4L267.4 400.3L267.3 400.3L267.3 400.3L267.2 400.3L267.2 400.3L267.1 400.3L267.1 400.3L267.1 400.3L267.0 400.2L266.9 400.2L266.9 400.2L266.8 400.2L266.8 400.2L266.7 400.2L266.7 400.2L266.6 400.2L266.6 400.2L266.6 400.2L266.5 400.2L266.5 400.2L266.5 400.2L266.4 400.2L266.2 400.2L266.2 400.2L266.2 400.2L266.1 400.2L266.1 400.2L266.0 400.2L266.0 400.2L266.0 400.2L265.9 400.2L265.9 400.2L265.8 400.2L265.8 400.2L265.7 400.2L265.7 400.2L265.7 400.2L265.6 400.2L265.6 400.3L265.5 400.3L265.5 400.3L265.4 400.3L265.4 400.3L265.4 400.3L265.3 400.3L265.2 400.4L265.1 400.4L265.1 400.4L265.1 400.4L265.0 400.5L265.0 400.5L264.9 400.5L264.9 400.5L264.9 400.5L264.8 400.5L264.8 400.5L264.8 400.6L264.7 400.6L264.7 400.6L264.7 400.6L264.6 400.7L264.6 400.7L264.5 400.7L264.5 400.7L264.5 400.7L264.5 400.8L264.4 400.8L264.4 400.8L264.4 400.8L264.3 400.8L264.3 400.9L264.3 400.9L264.2 400.9L264.2 400.9L264.2 401L264.2 401.0L264.1 401.0L264.1 401.0L264.0 401.1L264.0 401.1L263.9 401.2L263.9 401.2L263.9 401.3L263.8 401.3L263.8 401.3L263.8 401.4L263.7 401.4L263.7 401.4L263.7 401.5L263.6 401.5L263.6 401.5L263.6 401.6L263.6 401.6L263.6 401.6L263.5 401.7L263.5 401.7L254.0 403.5L253 402.7L252.9 402.7L252.8 402.6L252.8 402.6L252.8 402.5L252.7 402.5L252.7 402.5L252.6 402.4L252.6 402.4L252.6 402.4L252.5 402.4L252.5 402.3L252.5 402.3L252.5 402.3L252.4 402.3L252.4 402.2L252.4 402.2L252.2 402.1L252.2 402.1L252.1 402.1L252.1 402.1L252.1 402.1L252.0 402.0L252.0 402.0L252.0 402.0L251.9 402.0L251.9 402.0L251.9 402L251.8 401.9L251.8 401.9L251.8 401.9L251.7 401.9L251.7 401.9L251.7 401.9L251.6 401.8L251.6 401.8L251.5 401.8L251.5 401.8L251.4 401.8L251.4 401.8L251.3 401.8L251.3 401.7L251.2 401.7L251.1 401.7L251.1 401.7L251.0 401.7L251.0 401.7L251.0 401.7L250.9 401.7L250.8 401.7L250.8 401.7L250.7 401.6L250.7 401.6L250.6 401.6L250.5 401.6L250.5 401.6L250.4 401.6L250.3 401.6L250.3 401.6L250.3 401.6L250.2 401.7L250.2 401.7L250.1 401.7L250.1 401.7L250.0 401.7L250.0 401.7L250.0 401.7L249.9 401.7L249.9 401.7L249.8 401.7L249.7 401.7L249.7 401.7L249.7 401.7L249.6 401.8L249.6 401.8L249.6 401.8L249.5 401.8L249.3 401.8L249.3 401.9L249.2 401.9L249.2 401.9L249.1 401.9L249.1 401.9L249.1 401.9L249.0 402.0L249.0 402.0L249.0 402.0L248.9 402.0L248.9 402.0L248.9 402.0L248.8 402.1L248.7 402.1L248.7 402.2L248.0 401.5L242.6 401.4L243.5 402.8L242.8 403.9L238.4 403.4L232.2 405.9L224.1 406.4L221.6 405.6L220.7 407.1L223.7 408.1L223.6 410.7L221.2 411.1L213.2 409.0L211.5 410.6L212.2 412.7L206.9 407.8L204.4 406.9L204.1 404.3L204.1 404.3L204.2 403.5L204.8 401.8L205.9 400.2L207.3 399.1L210.0 398.2L210.0 398.2L211.0 398.1L211.0 398.1L213.0 398.5L213.1 398.5L213.1 398.5L213.1 398.5L213.2 398.5L213.2 398.5L213.2 398.6L213.3 398.6L213.3 398.6L213.5 398.6L213.5 398.6L213.6 398.6L213.6 398.6L213.6 398.6L213.7 398.6L213.7 398.7L213.7 398.7L213.8 398.7L213.8 398.7L213.9 398.7L213.9 398.7L213.9 398.7L214.0 398.7L214.0 398.7L214.0 398.7L214.3 398.7L214.3 398.7L214.3 398.7L214.4 398.7L214.4 398.7L214.4 398.7L214.5 398.7L214.5 398.7L214.6 398.7L214.6 398.7L214.6 398.6L214.7 398.6L214.7 398.6L214.7 398.6L214.8 398.6L214.8 398.6L215 398.6L215.0 398.6L215.0 398.6L215.1 398.6L215.1 398.5L215.1 398.5L215.2 398.5L215.3 398.5L216.9 398.1L217.0 398.1L217.0 398.1L217.1 398.1L217.2 398.1L217.2 398.1L217.3 398.1L217.3 398.1L217.3 398.1L217.4 398.1L217.5 398.1L217.5 398.0L217.5 398.0L217.6 398.0L217.6 398.0L217.6 398.0L217.7 398.0L217.7 398.0L217.9 397.9L217.9 397.9L217.9 397.9L218.0 397.9L218.0 397.9L218.0 397.9L218.1 397.8L218.1 397.8L218.1 397.8L218.2 397.8L218.2 397.8L218.3 397.8L218.3 397.7L218.3 397.7L218.3 397.7L218.4 397.7L218.5 397.6L218.5 397.6L218.6 397.6L218.6 397.5L218.6 397.5L218.7 397.5L218.7 397.5L218.7 397.5L218.7 397.4L218.8 397.4L218.8 397.4L218.8 397.4L218.9 397.3L218.9 397.3L219.0 397.2L219.0 397.2L219.0 397.2L219.1 397.1L219.1 397.1L219.1 397.1L219.2 397.0L219.2 397.0L220.7 395.8L220.8 395.7L220.8 395.7L220.9 395.6L220.9 395.6L220.9 395.6L221.0 395.6L221.0 395.5L221.0 395.5L221.1 395.5L221.1 395.4L221.2 395.4L221.2 395.4L221.3 395.3L221.3 395.3L221.4 395.2L221.4 395.2L221.4 395.2L221.5 395.1L221.5 395.1L221.6 395.0L221.6 395.0L221.6 394.9L221.6 394.9L221.7 394.9L221.7 394.9L221.7 394.8L221.7 394.8L221.8 394.8L221.8 394.7L221.8 394.7L221.8 394.6L221.9 394.6L223.4 392.8L225.5 391.7L227.8 391.4L227.8 391.4L227.9 391.4L228.0 391.4L228.0 391.4L228.3 391.4L228.3 391.4L228.4 391.4L228.4 391.4L228.5 391.4L228.5 391.4L228.6 391.4L228.6 391.4L228.6 391.4L228.7 391.4L228.7 391.4L228.7 391.4L228.8 391.3L228.8 391.3L228.9 391.3L228.9 391.3L229.0 391.3L229.0 391.3L229.1 391.3L229.1 391.3L229.3 391.2L229.3 391.2L229.4 391.2L229.4 391.2L229.5 391.1L229.5 391.1L229.6 391.1L229.6 391.1L229.7 391.1L229.7 391.0L229.8 391.0L229.8 391.0L229.8 391.0L229.9 390.9L229.9 390.9L230.0 390.9L230.0 390.8L230.1 390.8L230.1 390.8L230.1 390.8L230.2 390.7L230.2 390.7L230.2 390.7L230.2 390.7L230.3 390.7L230.4 390.6L230.4 390.6L230.4 390.5L230.4 390.5L230.5 390.5L230.6 390.4L230.6 390.3L230.7 390.3L230.7 390.2L230.7 390.2L230.8 390.2L230.8 390.1L230.8 390.1L230.8 390.1L230.9 390.0L230.9 390.0L230.9 390.0L230.9 390L231 389.9L231.1 389.7L231.1 389.7L231.1 389.7L231.1 389.6L231.1 389.6L231.2 389.6L231.2 389.5L231.2 389.5L231.2 389.5L231.2 389.4L231.2 389.4L231.3 389.3L231.3 389.3L231.3 389.3L231.3 389.2L231.3 389.1L232.1 387.6L233.3 386.2L233.4 386.2L233.4 386.2L233.5 386.1L233.5 386.1L233.5 386.1L233.6 386.1L233.6 386.0L233.6 386.0L233.7 385.9L233.7 385.9L233.8 385.8L233.8 385.8L233.9 385.7L233.9 385.7L233.9 385.7L233.9 385.6L233.9 385.6L234.0 385.6L234.0 385.5L234.0 385.5L234.1 385.3L234.1 385.3L234.2 385.3L234.2 385.2L234.2 385.2L234.2 385.2L234.2 385.1L234.3 385.1L234.3 385.0L234.3 385.0L234.3 385.0L234.3 384.9L234.4 384.9L234.4 384.8L234.4 384.8L234.4 384.6L234.4 384.6L234.5 384.5L234.5 384.5L234.5 384.5L234.5 384.4L234.5 384.4L234.5 384.3L234.5 384.3L234.5 384.2L234.5 384.2L234.5 384.1L234.6 384.1L234.6 384.0L234.6 384.0L234.6 384.0L234.6 383.9L234.6 383.9L234.6 383.9L234.6 383.8L234.6 383.8L234.6 383.7L234.6 383.7L234.6 383.6L234.6 383.6L234.6 383.5L234.6 383.4L234.6 383.4L234.6 383.4L234.6 383.3L234.6 383.3L234.6 383.2L234.5 383.2L234.5 383.1L234.5 383.0L234.5 383.0L234.5 382.9L234.5 382.8L234.4 382.2L234.3 381.1 Z M 244.7 407.0L244.1 407.5L242.3 408.1L241.6 408.2L241.5 408.2L241.5 408.2L241.4 408.2L241.4 408.2L241.3 408.2L241.3 408.2L241.3 408.2L241.0 408.3L241.0 408.3L241.0 408.3L240.9 408.3L240.8 408.3L240.8 408.3L240.8 408.3L240.7 408.4L240.6 408.4L240.6 408.4L240.6 408.4L240.5 408.4L240.5 408.5L240.5 408.5L240.4 408.5L240.4 408.5L240.4 408.5L240.3 408.5L240.3 408.5L240.3 408.6L240.2 408.6L240.2 408.6L240.1 408.7L240.1 408.7L240.0 408.7L240.0 408.7L239.9 408.8L239.9 408.8L239.9 408.8L239.9 408.8L239.8 408.8L239.8 408.9L239.7 408.9L239.6 409.1L239.5 409.1L239.5 409.1L239.5 409.1L239.5 409.2L239.4 409.2L239.4 409.2L239.4 409.2L239.3 409.3L238.1 410.3L234.6 408.1L232.8 408.3L239.0 404.1L243.5 405.3 Z M 208.7 378.1L210.6 378.7L212.2 380.0L213.4 381.6L214.1 383.6L214.1 384.2L214.1 384.2L213.9 386.6L212.8 388.7L211.5 390.1L209.8 391.0L207.9 391.4L207.0 391.4L205.0 390.9L203.3 390.0L201.9 388.5L201.0 386.7L200.7 384.9L200.8 383.6L201.5 381.6L202.7 379.9L204.5 378.6L206.5 378.0 Z M 190.7 366.8L190.9 366.2L190.7 365.7L190.7 365.7L190.7 365.3L190.6 364.6L190.9 362.6L191.7 360.8L193.1 359.3L194.8 358.3L196.8 357.8L199.0 358.0L201.1 358.9L202.7 360.4L203.6 362.0L204.0 363.8L204.0 365.6L204.0 365.6L203.8 366.2L204.0 366.7L204.0 366.7L204.0 367.1L204.0 367.1L204.1 368.3L203.6 370.3L202.6 372.0L201.2 373.4L199.4 374.3L197.4 374.6L197.3 374.6L195.4 374.3L193.7 373.5L193.7 373.5L192.3 372.3L191.3 370.9L190.8 369.2L190.6 367.7L190.6 367.7L190.6 367.4L190.6 367.4L190.7 366.8 Z M 162.6 398.2L162.7 398.2L163.8 398.1L165.3 398.3L165.3 398.3L165.4 398.3L165.5 398.3L165.5 398.3L165.5 398.3L165.6 398.3L165.6 398.3L165.6 398.4L165.7 398.4L165.7 398.4L165.8 398.4L165.9 398.4L165.9 398.4L165.9 398.4L166.0 398.4L166.2 398.4L166.3 398.4L166.3 398.4L166.3 398.4L166.4 398.4L166.4 398.4L166.4 398.4L166.5 398.4L166.6 398.3L166.6 398.3L166.6 398.3L166.7 398.3L166.7 398.3L166.7 398.3L166.8 398.3L166.9 398.3L167 398.3L167.0 398.3L167.1 398.2L167.1 398.2L167.2 398.2L167.2 398.2L167.3 398.2L167.3 398.2L167.3 398.1L167.4 398.1L167.4 398.1L167.4 398.1L167.5 398.1L167.5 398.1L167.6 398.0L167.6 398.0L167.7 398.0L167.7 398.0L167.8 397.9L167.8 397.9L167.9 397.8L168.0 397.8L168.0 397.8L168.0 397.8L168.0 397.7L168.1 397.7L168.1 397.7L168.2 397.7L168.2 397.6L168.2 397.6L168.2 397.6L168.3 397.6L168.4 397.5L168.4 397.4L168.4 397.4L168.5 397.3L168.5 397.3L168.6 397.3L168.6 397.2L168.7 397.1L170.1 395.9L171.8 395.1L173.6 394.8L173.6 394.8L173.8 394.7L173.8 394.7L176.1 395.1L178.1 396.2L179.6 397.9L179.6 398.0L179.6 398.0L179.6 398.1L179.6 398.1L179.7 398.1L179.7 398.2L179.7 398.2L179.7 398.2L179.8 398.2L179.8 398.3L179.8 398.3L179.8 398.3L180.0 398.5L180.0 398.5L180.0 398.6L180.1 398.6L180.1 398.7L180.2 398.7L180.2 398.7L180.2 398.7L180.3 398.8L180.4 398.9L180.4 398.9L180.4 398.9L180.5 398.9L180.5 399L180.5 399.0L180.5 399.0L180.6 399.1L180.7 399.1L180.7 399.1L181.6 399.8L181.7 399.8L181.8 399.9L181.8 399.9L181.8 400.0L181.9 400.0L181.9 400.0L182.0 400.1L182.0 400.1L182.0 400.1L182.2 400.2L182.2 400.2L182.3 400.3L182.3 400.3L182.3 400.3L182.4 400.3L182.4 400.3L182.4 400.3L182.5 400.4L182.5 400.4L182.5 400.4L182.6 400.4L182.6 400.4L182.6 400.4L182.7 400.4L182.7 400.5L182.8 400.5L182.9 400.5L182.9 400.5L183.0 400.5L183.0 400.6L183.1 400.6L183.1 400.6L183.2 400.6L183.2 400.6L183.3 400.6L183.4 400.6L183.4 400.6L183.4 400.6L183.5 400.6L183.5 400.6L183.5 400.7L183.6 400.7L183.6 400.7L183.6 400.7L183.7 400.7L183.7 400.7L183.8 400.7L183.8 400.7L184.0 400.7L184.1 400.7L184.1 400.7L184.1 400.7L184.2 400.7L184.2 400.7L184.2 400.7L184.3 400.7L184.3 400.6L184.4 400.6L184.4 400.6L184.4 400.6L184.5 400.6L184.5 400.6L184.6 400.6L184.6 400.6L184.7 400.6L184.8 400.6L184.8 400.6L184.8 400.5L184.9 400.5L185.0 400.5L185.0 400.5L185.1 400.5L185.1 400.4L185.2 400.4L185.2 400.4L185.3 400.4L185.3 400.4L185.3 400.4L185.4 400.3L185.4 400.3L185.4 400.3L185.5 400.3L185.5 400.3L185.5 400.2L185.6 400.2L185.8 400.1L185.8 400.1L185.9 400.1L185.9 400.0L185.9 400.0L186 400.0L186.0 400.0L186.0 399.9L186.0 399.9L186.1 399.9L186.1 399.8L186.2 399.8L187.9 398.7L189.8 398.2L190.6 398.1L192.7 398.4L192.7 398.4L194.4 399.3L195.8 400.5L196.8 402.1L197.3 403.9L197.3 405.3L197.3 405.9L197.3 406.0L197.2 406.1L197.2 406.1L197.2 406.1L197.2 406.2L197.2 406.2L197.2 406.2L197.2 406.3L197.2 406.3L197.2 406.4L197.2 406.5L193.0 407.6L188.4 410.1L185.3 418.1L185.0 418.2L184.5 418.2L184.4 418.3L184.4 418.3L184.3 418.3L184.3 418.3L184.3 418.3L184.2 418.3L184.2 418.3L184.1 418.3L184.1 418.3L184.1 418.3L184.0 418.3L184.0 418.3L183.9 418.3L183.8 418.4L183.8 418.4L183.8 418.4L183.6 418.4L183.5 418.5L183.5 418.5L183.5 418.5L183.4 418.5L183.4 418.5L183.4 418.5L183.3 418.5L183.3 418.6L183.2 418.6L183.2 418.6L183.1 418.6L183.1 418.7L183.1 418.7L183.0 418.7L183.0 418.7L182.9 418.8L182.9 418.8L182.9 418.8L182.8 418.8L182.8 418.9L182.8 418.9L182.7 418.9L182.7 418.9L182.7 418.9L182.6 419.0L182.6 419.0L182.5 419.1L182.5 419.1L182.5 419.1L182.4 419.2L182.4 419.2L182.3 419.2L182.3 419.3L182.3 419.3L182.2 419.3L182.2 419.4L180.7 420.6L180.6 420.7L180.6 420.7L180.5 420.7L180.5 420.8L180.5 420.8L180.4 420.8L180.4 420.8L180.4 420.9L180.4 420.9L180.3 420.9L180.3 420.9L180.2 421.0L180.2 421.0L180.2 421.0L180.2 421.0L180.1 421.1L180.0 421.2L180.0 421.2L180.0 421.2L179.8 421.4L179.8 421.4L179.8 421.5L179.8 421.5L179.7 421.5L179.7 421.6L179.7 421.6L179.7 421.6L179.6 421.6L179.6 421.7L179.6 421.7L179.6 421.7L179.6 421.8L178.2 423.3L176.0 420.7L173.5 421.3L170.6 418.1L165.7 418.5L163.2 419.9L156.5 420.2L154.1 423.1L149.5 425.1L149.0 429.9L146.5 431.2L145.6 433.0L143.5 428.7L139.2 426.4L137.6 426.8L136.8 429.1L133.3 428.8L133.9 425.1L138.8 423L140.4 423.9L149.7 415.8L150.8 411.2L156.4 409.6L157.4 406.9L162.1 402.6 Z M 161.4 327.6L160.8 326.6L163.4 323.2L169.5 318.9L169.7 317.7L169.7 317.7L169.8 317.7L169.8 317.7L169.9 317.7L169.9 317.7L170.0 317.7L170.0 317.7L170.0 317.7L170.1 317.7L170.1 317.7L170.1 317.7L170.2 317.7L170.2 317.7L170.2 317.6L170.3 317.6L170.4 317.6L170.4 317.6L170.6 317.5L170.6 317.5L170.7 317.5L170.7 317.5L170.7 317.5L170.8 317.5L170.8 317.5L170.8 317.4L170.9 317.4L170.9 317.4L170.9 317.4L171.0 317.4L171.0 317.4L171.0 317.3L171.1 317.3L171.1 317.3L171.1 317.3L171.3 317.2L171.3 317.1L171.4 317.1L171.4 317.1L171.4 317.1L171.5 317.1L171.5 317.0L171.5 317.0L171.6 317.0L171.6 317.0L171.7 316.9L171.7 316.8L171.7 316.8L171.9 316.7L171.9 316.7L171.9 316.6L172 316.6L172.0 316.6L172.0 316.6L172.0 316.5L173.6 315.1L175.6 314.3L177.7 314.1L178.1 314.2L180.4 314.9L182.2 316.4L183.4 318.4L183.9 320.7L183.9 321.2L183.9 321.3L183.9 321.3L183.9 321.5L183.9 321.5L183.9 321.6L183.9 321.6L183.9 321.7L183.9 321.7L183.9 321.8L183.9 321.8L183.9 321.8L183.9 321.9L183.9 321.9L183.9 322.0L184.0 322.0L184.0 322.1L184.0 322.1L184.0 322.2L184.0 322.2L184.0 322.2L184.0 322.3L184.0 322.3L184.0 322.3L184.1 322.6L184.1 322.6L184.1 322.7L184.2 322.7L184.2 322.7L184.2 322.8L184.2 322.8L184.2 322.8L184.2 322.9L184.2 322.9L184.3 322.9L184.3 323.0L184.3 323.0L184.3 323.0L184.3 323.1L184.5 323.3L184.5 323.3L184.5 323.4L184.6 323.4L184.6 323.5L184.6 323.5L184.7 323.5L184.7 323.6L184.7 323.6L184.8 323.7L184.8 323.7L184.9 323.8L184.9 323.8L185.0 323.9L185.0 323.9L185.0 323.9L185.1 324.0L185.1 324.0L185.2 324.1L185.2 324.1L185.3 324.1L185.3 324.1L185.3 324.1L185.3 324.2L185.4 324.2L185.4 324.2L185.5 324.3L185.6 324.3L185.6 324.3L185.6 324.3L185.7 324.4L185.7 324.4L185.7 324.4L185.8 324.4L185.8 324.4L185.8 324.5L185.9 324.5L185.9 324.5L186.0 324.5L186.0 324.5L186.0 324.5L186.1 324.6L186.3 324.6L186.3 324.6L186.4 324.7L186.4 324.7L186.4 324.7L186.5 324.7L186.6 324.7L186.6 324.7L186.7 324.7L186.7 324.7L186.7 324.7L186.8 324.7L186.8 324.7L186.8 324.7L186.9 324.8L186.9 324.8L187.0 324.8L187.0 324.8L187.0 324.8L187.1 324.8L187.8 324.9L188.4 324.6L188.4 324.6L190.2 324.2L191.0 324.2L193.3 324.7L195.3 326.0L196.6 327.9L197.1 329.1L197.3 330.0L197.2 332.3L196.4 334.4L194.8 336.2L192.8 337.3L190.5 337.6L190.5 337.6L190.3 337.6L190.2 337.6L189.6 337.5L189.0 337.8L188.9 337.8L188.9 337.8L188.8 337.8L188.8 337.9L188.8 337.9L188.7 337.9L188.7 337.9L188.6 337.9L188.6 338L188.6 338.0L188.5 338.0L188.5 338.0L188.5 338.0L188.4 338.0L188.4 338.1L188.4 338.1L188.3 338.1L188.2 338.2L188.2 338.2L188.1 338.2L188.1 338.3L188.1 338.3L188.0 338.3L188.0 338.3L187.9 338.4L187.9 338.4L187.8 338.5L187.8 338.5L187.8 338.5L187.7 338.5L187.7 338.6L187.7 338.6L187.7 338.6L187.6 338.6L187.6 338.7L187.6 338.7L187.5 338.8L187.5 338.8L187.5 338.8L187.4 338.9L187.4 338.9L187.4 339.0L187.4 339.0L187.3 339.0L187.3 339.0L187.3 339.1L187.3 339.1L187.1 339.3L187.1 339.4L187.1 339.4L187.1 339.4L187.1 339.5L187.0 339.5L187.0 339.5L187.0 339.6L187.0 339.6L187.0 339.7L187.0 339.7L186.9 339.7L186.9 339.8L186.9 339.8L186.9 339.9L186.4 341.0L186.4 341.0L186.3 341.1L186.3 341.1L186.3 341.1L186.3 341.2L186.3 341.2L186.2 341.3L186.2 341.3L186.2 341.4L186.2 341.4L186.2 341.4L186.1 341.5L186.1 341.5L186.1 341.5L186.1 341.6L186.1 341.6L186.1 341.6L186.1 341.7L186.1 341.7L186.1 341.7L186.0 341.8L186.0 341.8L186.0 341.8L186.0 341.9L186.0 342.0L186.0 342.0L186.0 342.1L186.0 342.1L186.0 342.1L186.0 342.2L186.0 342.2L186 342.2L185.9 342.3L185.9 342.4L185.9 342.4L185.9 342.4L185.9 342.5L185.9 342.5L185.9 342.5L185.9 342.8L185.9 342.8L185.9 342.9L185.9 342.9L185.9 342.9L185.9 343.0L185.9 343.1L186 343.1L186.0 343.1L186.0 343.2L186.0 343.2L186.0 343.2L186.0 343.3L186.0 343.4L186.0 343.5L186.0 343.6L186.1 343.6L186.1 343.6L186.1 343.8L186.1 343.9L186.2 343.9L186.2 344.0L186.2 344.0L186.2 344.1L186.3 344.1L186.3 344.2L186.3 344.2L186.3 344.3L186.3 344.3L186.4 344.3L186.4 344.4L187.0 345.9L187.3 347.4L187.3 347.4L187.3 347.7L187.3 347.7L186.9 350.0L185.7 352.0L183.9 353.5L181.7 354.3L180.9 354.4L180.2 354.4L180.1 354.4L180.1 354.4L180.1 354.4L179.9 354.4L179.9 354.4L179.8 354.4L179.7 354.4L179.7 354.4L179.6 354.4L179.6 354.4L179.5 354.4L179.5 354.5L179.5 354.5L179.4 354.5L179.4 354.5L179.4 354.5L179.3 354.5L179.2 354.5L179.1 354.5L179.1 354.5L179.1 354.5L179.0 354.6L179.0 354.6L178.9 354.6L178.8 354.6L178.8 354.6L178.7 354.7L178.7 354.7L178.6 354.7L178.6 354.7L178.5 354.8L178.5 354.8L178.5 354.8L178.4 354.8L178.4 354.8L178.4 354.8L178.3 354.9L178.2 354.9L178.2 355L178.1 355.0L178.1 355.0L178.1 355.0L178.0 355.0L178.0 355.1L178.0 355.1L178 355.1L177.9 355.1L177.9 355.1L177.9 355.2L177.8 355.2L177.8 355.2L177.8 355.2L177.7 355.3L177.7 355.3L177.7 355.3L177.6 355.4L177.6 355.4L177.6 355.4L177.6 355.4L177.5 355.5L177.5 355.5L177.5 355.5L177.5 355.6L177.4 355.6L177.4 355.7L177.3 355.7L177.3 355.8L177.3 355.8L177.3 355.8L177.2 355.8L177.2 355.9L177.2 355.9L177.2 355.9L177.1 356.0L177.1 356.0L177.1 356.1L177.1 356.1L177.0 356.2L177.0 356.2L177.0 356.2L177.0 356.3L177.0 356.3L176.9 356.4L176.9 356.4L176.9 356.5L176.9 356.5L176.8 356.6L176.8 356.6L176.8 356.7L176.6 357.3L176.6 357.3L176.1 358.0L174.8 359.6L174.7 359.6L174.7 359.6L174.7 359.7L174.6 359.7L174.6 359.7L174.6 359.8L174.6 359.8L174.5 359.8L174.5 359.8L174.5 359.9L174.5 359.9L174.4 359.9L174.3 360.0L174.3 360.1L174.3 360.1L174.3 360.1L174.2 360.2L174.2 360.2L174.2 360.2L174.2 360.2L174.1 360.3L174.1 360.3L174.1 360.4L174.1 360.4L174.1 360.4L174.0 360.5L174.0 360.5L174.0 360.6L174.0 360.6L173.9 360.6L173.9 360.7L173.9 360.7L173.9 360.7L173.9 360.8L173.9 360.8L173.8 360.9L173.8 360.9L173.8 361.0L173.8 361.0L173.8 361.0L173.7 361.2L173.7 361.3L173.7 361.3L173.7 361.3L173.7 361.4L173.6 361.5L173.6 361.5L173.6 361.6L173.6 361.6L173.6 361.6L173.6 361.7L173.6 361.7L173.6 361.7L173.6 361.8L173.6 361.8L173.6 361.9L173.6 361.9L173.6 362.0L173.6 362.0L173.6 362.0L173.6 362.1L173.6 362.3L173.6 362.3L173.6 362.4L173.6 362.4L173.6 362.4L173.6 362.5L173.6 362.6L173.6 362.6L173.6 362.6L173.6 362.7L173.6 362.7L173.6 362.7L173.6 362.8L173.6 362.8L173.6 362.8L173.6 362.9L173.7 363.0L173.8 363.9L173.8 364.6L173.5 366.5L172.7 368.2L171.5 369.6L170.0 369.5L166.1 367.2L162.9 367.2L160.5 367.7L160.4 367.8L160.4 367.8L160.3 367.7L160.3 367.7L160.2 367.7L160.2 367.7L160.1 367.7L160.1 367.7L160.0 367.7L160.0 367.7L160.0 367.7L159.9 367.6L159.9 367.6L159.8 367.6L159.8 367.6L159.8 367.6L159.7 367.6L159.6 367.6L159.6 367.6L159.6 367.6L159.5 367.6L159.5 367.6L159.4 367.6L159.3 367.6L159.2 367.6L159.2 367.6L159.2 367.6L159.1 367.6L159.1 367.6L159.1 367.6L159.0 367.6L158.9 367.6L158.9 367.6L158.8 367.6L158.8 367.6L158.8 367.7L158.7 367.7L158.6 367.7L158.5 367.7L157.0 367.9L157 367.9L156.1 367.7L156.2 367.7L155.7 366.4L155.2 367.6L153.7 367.0L153.6 367.0L153.6 366.9L153.6 366.9L153.5 366.9L153.5 366.9L153.4 366.9L153.4 366.8L153.4 366.8L153.3 366.8L153.3 366.8L153.3 366.8L153.2 366.8L153.2 366.8L153.1 366.7L153.1 366.7L153.1 366.7L153.0 366.7L152.9 366.7L152.9 366.6L152.9 366.6L152.8 366.6L152.8 366.6L152.8 366.6L152.7 366.6L152.6 366.6L152.5 366.6L152.5 366.6L152.5 366.6L152.4 366.5L152.4 366.5L152.3 366.5L152.2 366.5L152.2 366.5L152.1 366.5L152.0 366.5L152.0 366.5L152.0 366.5L151.9 366.5L151.9 366.5L151.8 366.5L151.8 366.5L151.7 366.5L151.7 366.5L150.9 366.5L150.3 367.0L150.3 367.0L149.6 367.2L147.2 366.7L150.7 365.0L150.2 362.2L147.2 361.4L147.7 359.8L151.1 358.2L151.6 356.9L157.3 356.4L161.2 352.3L165.2 352.2L171.4 348.2L173.8 345.1L175.6 339.5L174.2 335.0L176.0 330.8L173.9 327.7L174.4 323.4L168.0 324.3L165.1 327.6 Z M 175.3 308.6L175.2 308.8L173.7 309.9L171.9 310.6L170.0 310.7L170.0 310.7L168.1 310.3L166.3 309.3L165.1 308.1L165.2 305.3L168.5 304.1L171.6 305.0L172.8 308.1 Z M 246.9 401.8L247.2 403.9L245.7 403.5 Z M 246.9 401.8 "/>
















</g>
</svg>
