<?xml version="1.0" encoding="UTF-8"?>
<svg xmlns="http://www.w3.org/2000/svg" xmlns:xlink="http://www.w3.org/1999/xlink" width="378pt" height="504pt" viewBox="0 0 378 504" version="1.1">
<g id="data">
<rect x="0" y="0" width="378" height="504" style="fill:rgb(100%,100%,100%);fill-opacity:1;stroke:none;"/>
<path style=" stroke:none;fill-rule:nonzero;fill:rgb(100%,100%,100%);fill-opacity:1;" d="M 21 504L357 504L357 0L21 0 Z M 21 504 "/>
<path style=" stroke:none;fill-rule:nonzero;fill:rgb(77.6%,78.8%,62.3%);fill-opacity:1;" d="M 216.7 401.5L217.5 401.5L217.5 401.5L217.8 401.5L218.0 401.4L218.1 401.4L218.1 401.4L218.2 401.4L218.2 401.4L218.2 401.4L218.4 401.4L218.4 401.3L218.4 401.3L218.5 401.3L218.5 401.3L218.6 401.3L218.6 401.3L218.7 401.3L218.7 401.2L218.7 401.2L218.8 401.2L218.8 401.2L218.8 401.2L218.9 401.2L218.9 401.1L219.0 401.1L219.4 401.0L219.6 400.7L219.7 400.7L219.7 400.6L219.8 400.6L219.8 400.6L219.8 400.5L219.9 400.4L220.0 400.4L220.0 400.4L220.1 400.3L220.1 400.2L220.1 400.2L220.2 400.2L220.2 400.1L220.2 400.1L220.2 400.1L220.3 400.1L220.3 400.0L220.3 400.0L220.3 399.9L220.4 399.9L220.4 399.9L220.4 399.8L220.4 399.8L220.5 399.7L220.5 399.7L220.5 399.6L220.5 399.6L220.5 399.6L220.5 399.5L220.6 399.5L220.6 399.4L220.6 399.4L220.6 399.4L220.6 399.3L220.6 399.3L220.7 399.3L220.7 399.2L220.7 399.2L220.7 399.2L220.7 399.1L220.7 399.1L220.7 399.0L220.8 399.0L220.8 399L220.8 398.8L220.8 398.8L220.8 398.7L220.8 398.7L220.8 398.6L220.8 398.6L220.8 398.6L220.8 398.5L220.8 398.5L220.9 398.4L220.9 398.4L220.9 398.4L220.9 398.3L220.9 398.3L220.9 398.3L220.9 398.2L220.9 398.0L220.9 397.4L220.9 397.4L221.4 395.5L222.4 393.8L223.8 392.5L225.6 391.7L225.7 391.7L225.7 391.7L225.7 391.6L225.9 391.6L225.9 391.6L226 391.6L226.1 391.5L226.1 391.5L226.1 391.5L226.2 391.5L226.2 391.4L226.3 391.4L226.3 391.4L226.3 391.4L226.4 391.4L226.4 391.3L226.4 391.3L226.5 391.3L226.6 391.2L226.6 391.2L226.6 391.2L226.7 391.2L226.7 391.1L226.7 391.1L226.7 391.1L226.8 391.1L226.8 391.0L226.9 391.0L226.9 391.0L226.9 390.9L227.0 390.9L227.0 390.9L227.0 390.9L227.1 390.8L227.1 390.8L227.2 390.7L227.2 390.7L227.2 390.7L227.3 390.6L227.3 390.6L227.3 390.5L227.3 390.5L227.4 390.5L227.4 390.4L227.4 390.4L227.4 390.4L227.5 390.3L227.5 390.2L227.5 390.2L227.5 390.2L227.6 390.1L227.6 390.1L227.6 390.0L227.7 390.0L227.7 389.9L227.7 389.9L227.7 389.9L227.7 389.8L227.8 389.8L227.8 389.7L227.8 389.7L227.8 389.6L227.8 389.6L227.8 389.6L227.9 389.5L227.9 389.4L228.9 387.4L228.9 387.4L230.9 385.6L232.5 384.9L234.2 384.7L236.5 385.0L238.5 386.1L240.0 387.9L240.1 387.9L240.1 388.0L240.1 388.0L240.1 388.0L240.2 388.1L240.2 388.1L240.2 388.1L240.2 388.2L240.3 388.2L240.3 388.2L240.3 388.3L240.3 388.3L240.4 388.3L240.4 388.4L240.4 388.4L240.4 388.4L240.5 388.4L240.5 388.5L240.5 388.5L240.5 388.5L240.6 388.5L240.6 388.6L240.6 388.6L240.7 388.6L240.7 388.7L240.8 388.7L240.8 388.7L240.9 388.8L240.9 388.8L240.9 388.8L241.0 388.9L241.0 388.9L241.0 388.9L241.0 388.9L241.1 389.0L241.1 389.0L241.1 389.0L241.2 389.0L242.9 390.5L244.0 392.4L244.4 395.0L244.3 395.8L244.3 395.9L244.3 395.9L244.3 396.0L244.3 396.1L244.3 396.2L244.3 396.2L244.3 396.2L244.3 396.3L244.3 396.3L244.3 396.3L244.3 396.5L244.3 396.6L244.3 396.6L244.3 396.6L244.3 396.7L244.3 396.7L244.3 396.8L244.3 396.8L244.3 396.9L244.3 397.0L244.3 397.0L244.4 398.1L244.4 398.7L244.3 399.2L244.3 399.3L244.3 399.3L244.3 399.4L244.3 399.4L244.3 399.5L244.3 399.5L244.3 399.6L244.3 399.6L244.3 399.6L244.3 399.7L244.3 399.7L244.3 399.9L244.3 399.9L244.3 400.0L244.3 400.0L244.3 400.0L244.3 400.1L244.3 400.2L244.3 400.2L244.3 400.3L244.3 400.3L244.3 400.4L244.3 401.4L242.6 401.4L243.5 402.8L242.8 403.9L238.4 403.4L232.2 405.9L224.1 406.4L221.6 405.6L220.7 407.1L223.7 408.1L223.6 410.7L221.2 411.1L213.2 409.0L211.5 410.6L211.9 411.7L211.2 410.6L210.8 408.4L210.8 408.2L210.9 406.9L211.6 404.9L212.9 403.3L214.7 402.1 Z M 243.1 405.3L242.7 405.9L241.2 407.2L241.1 407.2L241.1 407.3L241.0 407.3L241.0 407.3L241.0 407.3L241.0 407.3L240.9 407.4L240.9 407.4L240.9 407.4L240.8 407.4L240.8 407.5L240.8 407.5L240.7 407.5L240.7 407.6L240.6 407.6L240.6 407.6L240.6 407.7L240.6 407.7L240.5 407.7L240.5 407.7L240.5 407.8L240.5 407.8L240.4 407.8L240.4 407.8L240.4 407.9L240.4 407.9L240.3 407.9L240.3 407.9L240.3 408.0L240.3 408.0L240.2 408.1L240.2 408.1L240.2 408.1L240.2 408.1L240.1 408.2L240.1 408.2L240.1 408.3L240.1 408.3L240.0 408.4L238.5 410.1L238.1 410.3L234.6 408.1L232.8 408.3L239.0 404.1 Z M 231.1 372.9L231.0 371.6L231 371.2L231 371.2L231.0 370.1L231.0 370.1L231.2 369.6L231.0 369.0L231.0 369.0L231.0 368.1L231.0 367.6L231.3 365.7L232.2 364.0L233.5 362.6L235.1 361.6L237.0 361.2L238.9 361.3L240.6 361.8L240.6 361.8L242.2 362.9L243.4 364.3L244.1 366.0L244.4 367.9L244.4 367.9L244.3 369.0L244.3 369.0L244.1 369.5L244.3 370.1L244.3 370.1L244.4 370.9L244.4 371.6L244.0 373.6L243.0 375.3L241.6 376.7L239.8 377.6L239.8 377.6L237.9 378L237.9 378L236.9 377.9L235.9 377.7L233.8 376.7L232.2 375.1L231.2 373.0 Z M 182.1 418.0L180.4 417.3L178.9 416.0L178.9 416.0L178.8 416.0L178.8 415.9L178.8 415.9L178.8 415.9L178.7 415.8L178.6 415.8L178.6 415.7L178.5 415.6L178.5 415.6L178.4 415.6L178.4 415.6L178.4 415.5L178.3 415.5L178.3 415.5L178.3 415.5L178.2 415.4L178.1 415.4L178.1 415.3L178.0 415.3L178.0 415.3L178.0 415.3L177.9 415.3L177.9 415.3L177.9 415.2L177.8 415.2L177.8 415.2L177.8 415.2L177.7 415.2L177.7 415.2L177.7 415.1L177.6 415.1L177.6 415.1L177.6 415.1L177.4 415.1L177.4 415.0L177.4 415.0L177.3 415.0L177.3 415.0L177.3 415.0L177.2 415.0L177.2 415.0L177.0 414.9L177.0 414.9L176.9 414.9L176.9 414.9L176.9 414.9L176.8 414.9L176.8 414.9L176.8 414.9L176.7 414.9L176.7 414.9L176.6 414.9L174.6 414.4L172.8 413.3L171.5 411.7L171.4 411.6L171.4 411.6L171.4 411.5L171.3 411.5L171.3 411.5L171.3 411.5L171.3 411.4L171.2 411.4L171.2 411.4L171.1 411.2L171.0 411.1L171.0 411.1L170.9 411.0L170.9 411.0L170.9 411.0L170.7 410.8L170.6 410.8L170.6 410.8L170.6 410.7L170.5 410.7L170.5 410.7L170.5 410.7L170.4 410.6L170.4 410.6L170.3 410.6L168.6 409.1L167.5 407.2L167.1 405.0L167.1 405.0L167.1 404.2L167.3 403.1L168.1 401.3L169.3 399.9L170.8 398.8L173.8 398.1L174.0 398.1L174.9 398.2L175.0 398.2L175.0 398.2L175.1 398.2L175.2 398.2L175.2 398.2L175.2 398.2L175.3 398.2L175.3 398.2L175.3 398.2L175.5 398.2L175.5 398.3L175.5 398.3L175.6 398.2L175.7 398.2L175.7 398.2L175.7 398.2L175.8 398.2L175.8 398.2L175.9 398.2L176.0 398.2L176.0 398.2L176.0 398.2L176.1 398.2L176.9 398.1L177.2 398.1L179.1 398.4L181.6 399.8L181.7 399.8L181.8 399.9L181.8 399.9L181.8 400.0L181.9 400.0L181.9 400.0L181.9 400.0L182.0 400.1L182.0 400.1L182.0 400.1L182.2 400.2L182.2 400.2L182.2 400.2L182.3 400.2L182.3 400.3L182.3 400.3L182.4 400.3L182.4 400.3L182.4 400.3L182.5 400.4L182.5 400.4L182.5 400.4L182.6 400.4L182.6 400.4L182.6 400.4L182.7 400.4L182.7 400.5L182.8 400.5L182.9 400.5L182.9 400.5L183.0 400.5L183.0 400.6L183.1 400.6L183.1 400.6L183.2 400.6L183.2 400.6L183.3 400.6L183.4 400.6L183.4 400.6L183.4 400.6L183.5 400.6L183.5 400.6L183.5 400.7L183.6 400.7L183.6 400.7L183.6 400.7L183.7 400.7L183.7 400.7L183.8 400.7L183.8 400.7L184.1 400.7L184.1 400.7L184.1 400.7L184.2 400.7L184.2 400.7L184.2 400.7L184.3 400.7L184.4 400.6L184.4 400.6L184.4 400.6L184.5 400.6L184.5 400.6L184.6 400.6L184.7 400.6L184.7 400.6L184.8 400.6L184.8 400.6L184.8 400.5L184.9 400.5L185.1 400.5L185.1 400.5L185.1 400.4L185.2 400.4L185.2 400.4L185.3 400.4L185.3 400.4L185.3 400.4L185.4 400.3L185.4 400.3L185.4 400.3L185.5 400.3L185.5 400.3L185.5 400.3L185.6 400.2L185.8 400.1L185.8 400.1L185.9 400.1L185.9 400.0L185.9 400.0L186 400.0L186.0 400.0L186.0 399.9L186.0 399.9L186.1 399.9L186.1 399.8L186.2 399.8L187.2 399.1L187.2 399.0L187.2 399.0L188.9 398.3L190.8 398.1L190.8 398.1L191.6 398.2L191.6 398.2L193.8 398.9L195.7 400.4L196.9 402.4L197.3 404.6L197.3 404.6L197.3 405.9L197.3 406.0L197.2 406.0L197.2 406.1L197.2 406.1L197.2 406.2L197.2 406.2L197.2 406.2L197.2 406.3L197.2 406.3L197.2 406.4L197.2 406.5L193.0 407.6L188.4 410.1L185.3 418.1L183.8 418.3L183.4 418.3L182.1 418.0 Z M 165.1 367.2L166.5 365.8L168.4 364.8L170.5 364.5L170.6 364.5L171.6 364.6L171.6 364.6L171.7 364.6L171.7 364.6L171.8 364.6L171.9 364.6L171.9 364.6L172 364.6L172.0 364.6L172.0 364.6L172.1 364.6L172.2 364.6L172.3 364.6L172.3 364.6L172.3 364.6L172.4 364.6L172.4 364.6L172.5 364.6L172.6 364.6L172.6 364.6L172.7 364.6L172.7 364.6L173.8 364.5L174.9 364.6L177.1 365.4L177.2 365.4L177.2 365.4L177.2 365.4L177.3 365.4L177.3 365.5L177.3 365.5L177.4 365.5L177.4 365.5L177.4 365.5L177.5 365.5L177.5 365.5L177.5 365.6L177.6 365.6L177.6 365.6L177.6 365.6L177.7 365.6L177.7 365.6L177.8 365.6L177.8 365.7L177.8 365.7L177.9 365.7L177.9 365.7L177.9 365.7L178.0 365.7L178.0 365.7L178.1 365.7L178.2 365.8L178.2 365.8L178.3 365.8L178.3 365.8L178.3 365.8L178.4 365.8L178.4 365.8L178.5 365.8L178.5 365.8L178.5 365.8L178.6 365.8L180.6 366.2L180.8 366.3L180.9 365.8L181.8 363.9L181.8 363.9L183.2 362.5L185.0 361.5L187.0 361.2L187.0 361.2L187.3 361.1L189.3 361.5L191.2 362.4L192.6 363.8L193.6 365.7L194.0 367.7L194.0 367.7L194.0 368.2L193.5 370.5L192.2 372.5L190.3 373.9L188.7 374.4L187.1 374.6L186.9 374.6L186.9 374.6L184.9 374.2L184.7 374.1L184.7 374.3L183.9 376.1L183.9 376.2L183.8 376.2L183.8 376.2L183.8 376.2L183.8 376.3L183.8 376.3L183.7 376.3L183.7 376.4L183.7 376.4L183.6 376.6L183.6 376.6L183.6 376.6L183.6 376.7L183.6 376.7L183.6 376.7L183.5 376.8L179.8 371.9L171.2 375.0L169.5 374.0L169.3 372.0L173.4 371.3L174.4 369.7L170.0 369.5L166.1 367.2 Z M 175.7 311.6L175.6 311.7L173.7 313.3L172.0 313.8L173.3 312.5 Z M 171.2 314.1L170.7 314.1L168.4 313.8L166.7 312.9L165.1 309.7L165.2 305.3L168.5 304.1L171.6 305.0L172.8 308.1L176.8 308.9 Z M 164.8 310.9L164.0 309.4L163.9 308.4L164.6 308.8 Z M 164.1 352.2L164.1 352.2L165.6 353.6L166.6 355.3L166.9 356.3L167.1 358.5L167.0 358.9L167.0 358.9L167.0 359.0L167.0 359.1L167.0 359.1L167.0 359.2L167.0 359.2L167.0 359.2L167.0 359.3L167.0 359.3L167.0 359.4L167.0 359.4L167.0 359.5L167.0 359.6L167.0 359.6L167.0 359.7L167.0 359.7L167.0 359.7L167.0 359.8L167.0 359.9L167.0 360.0L167.0 360.0L167.0 360.1L167.1 361.0L167.1 361.2L166.8 363.3L165.8 365.1L164.3 366.6L163.2 367.2L162.9 367.2L160.5 367.7L160.4 367.8L160.3 367.9L160.3 367.9L158.2 367.5L158.0 367.4L157.9 367.4L157.9 367.4L157.9 367.4L157.8 367.4L157.8 367.4L157.8 367.4L157.7 367.4L157.6 367.3L157.6 367.3L157.5 367.3L157.5 367.3L157.4 367.3L157.4 367.3L157.3 367.3L157.3 367.3L157.3 367.3L157.2 367.3L157.2 367.3L157.1 367.3L157.0 367.3L157.0 367.3L156.9 367.3L156.8 367.3L156.8 367.3L156.8 367.3L156.7 367.3L156.6 367.3L156.6 367.3L156.6 367.3L156.5 367.3L156.5 367.3L156.4 367.3L156.4 367.4L156.3 367.4L156.3 367.4L156.2 367.4L156.2 367.4L156.2 367.4L156.1 367.4L156.1 367.4L156.1 367.4L155.7 366.4L155.2 367.6L154.0 367.8L151.5 367.5L151.4 367.5L151.4 367.5L151.3 367.5L151.3 367.4L151.3 367.4L151.2 367.4L151.1 367.4L150.2 367.0L149.6 367.2L147.2 366.7L150.7 365.0L150.2 362.2L147.2 361.4L147.7 359.8L151.1 358.2L151.6 356.9L157.3 356.4L161.2 352.3 Z M 164.1 352.2 "/>
















</g>
</svg>
