<?xml version="1.0" encoding="UTF-8"?>
<svg xmlns="http://www.w3.org/2000/svg" xmlns:xlink="http://www.w3.org/1999/xlink" width="378pt" height="504pt" viewBox="0 0 378 504" version="1.1">
<g id="data">
<rect x="0" y="0" width="378" height="504" style="fill:rgb(100%,100%,100%);fill-opacity:1;stroke:none;"/>
<path style=" stroke:none;fill-rule:nonzero;fill:rgb(100%,100%,100%);fill-opacity:1;" d="M 21 504L357 504L357 0L21 0 Z M 21 504 "/>
<path style=" stroke:none;fill-rule:nonzero;fill:rgb(77.6%,78.8%,62.3%);fill-opacity:1;" d="M 239.0 300.5L237.7 300.7L237.7 300.7L236.4 300.6L235.0 300.1L233.2 298.9L231.8 297.2L231.0 294.3L231.0 293.1L231.7 291.0L233.0 289.1L234.8 287.9L237.5 287.2L237.5 287.2L239.2 287.4L240.9 288.0L242.1 288.9L242.1 288.9L243.0 290.0L244.4 289.8L244.5 289.8L244.5 289.8L244.6 289.8L244.6 289.8L244.6 289.8L244.7 289.8L244.8 289.8L244.8 289.8L244.9 289.8L244.9 289.8L244.9 289.8L245.0 289.7L245.0 289.7L245.0 289.7L245.2 289.7L245.2 289.7L245.3 289.7L245.3 289.7L245.3 289.7L245.4 289.6L245.4 289.6L245.4 289.6L245.5 289.6L245.5 289.6L245.5 289.6L245.6 289.6L245.6 289.6L245.7 289.5L245.7 289.5L245.7 289.5L245.8 289.5L245.8 289.5L245.8 289.5L245.9 289.5L245.9 289.4L245.9 289.4L246.0 289.4L246.0 289.4L246.1 289.3L246.1 289.3L246.3 289.2L246.3 289.2L246.3 289.2L246.3 289.2L246.4 289.1L246.4 289.1L246.4 289.1L246.5 289.1L246.5 289.1L246.5 289.0L246.5 289.0L246.6 289.0L246.6 289.0L246.7 288.9L248.6 287.7L250.9 287.2L250.9 287.2L253.2 287.6L255.2 288.6L256.8 290.4L257.7 292.5L257.7 292.5L257.8 293.4L257.8 293.4L257.8 293.5L257.8 293.5L257.8 293.6L254.8 294.2L252.9 293.4L251.0 294.5L255.4 295.0L258.0 294.4L258.0 294.4L258.0 294.4L258.1 294.4L258.1 294.5L258.1 294.5L258.1 294.5L258.1 294.6L258.2 294.6L258.2 294.7L258.2 294.7L258.2 294.7L258.2 294.8L258.3 294.8L258.3 294.9L258.4 295.0L258.4 295.0L258.4 295.0L258.4 295.1L258.4 295.1L258.5 295.1L258.5 295.2L258.5 295.2L258.5 295.2L258.5 295.2L258.6 295.3L258.6 295.3L258.7 295.4L258.7 295.4L258.7 295.5L258.8 295.6L258.9 295.6L259.0 295.7L260.2 297.1L260.9 298.9L261.2 300.7L261.2 300.7L261.0 302.2L261.0 302.3L261.0 302.3L261.0 302.4L261.0 302.4L261.0 302.4L261.0 302.5L261.0 302.5L260.9 302.6L260.9 302.6L260.9 302.7L260.9 302.7L260.9 302.7L260.9 302.8L260.9 302.8L260.9 302.9L260.9 302.9L260.9 303.1L260.9 303.1L260.9 303.2L260.9 303.2L260.9 303.3L260.9 303.3L260.9 303.3L260.9 303.4L260.9 303.4L261 303.5L261.0 303.5L261.0 303.5L261.0 303.6L261.0 303.6L261.0 303.7L261.0 303.7L261.0 303.8L261.0 303.8L261.0 303.9L261.0 303.9L261.1 303.9L261.1 304.0L261.1 304.0L261.1 304.2L261.1 304.2L261.2 304.3L261.2 304.3L261.2 304.3L261.2 304.4L261.2 304.4L261.3 304.5L261.3 304.5L261.3 304.5L261.3 304.6L261.3 304.6L261.3 304.6L261.4 304.7L261.5 304.9L261.5 304.9L261.6 305.0L261.6 305.0L261.6 305.0L261.6 305.1L261.6 305.1L261.7 305.1L261.7 305.2L261.8 305.2L261.8 305.3L261.8 305.3L261.9 305.4L262.0 305.4L262.0 305.5L262.0 305.5L262.0 305.5L262.1 305.5L262.2 305.6L263.7 307.5L264.5 309.9L264.5 310.2L264.5 310.3L264.5 310.3L264.5 310.3L264.6 310.4L264.6 310.5L264.6 310.5L264.6 310.5L264.6 310.6L264.6 310.6L264.6 310.6L264.6 310.7L264.6 310.8L264.6 310.9L264.6 310.9L264.7 310.9L264.7 311.0L264.7 311.0L264.7 311.1L264.7 311.1L264.7 311.1L264.7 311.2L264.8 311.2L264.8 311.2L264.8 311.3L264.8 311.3L264.8 311.3L264.8 311.4L264.8 311.4L264.9 311.5L264.9 311.5L264.9 311.5L264.9 311.6L264.9 311.6L265.0 311.6L265.0 311.7L265.1 311.9L265.1 311.9L265.1 311.9L265.2 312.0L265.2 312.0L265.2 312.0L265.2 312.0L265.3 312.1L265.3 312.2L265.3 312.2L265.4 312.2L265.4 312.3L265.5 312.3L265.5 312.3L265.5 312.3L265.6 312.5L265.6 312.5L265.7 312.5L265.7 312.5L265.7 312.6L265.8 312.6L265.8 312.6L265.8 312.6L265.9 312.7L265.9 312.7L266.0 312.7L266.0 312.8L266.0 312.8L266.2 312.9L266.2 312.9L266.2 312.9L266.3 312.9L266.3 312.9L266.3 313.0L266.4 313.0L266.4 313.0L266.4 313.0L266.5 313.0L266.5 313.1L266.6 313.1L266.6 313.1L266.6 313.1L266.7 313.1L266.7 313.1L266.9 313.2L267.0 313.2L267.0 313.2L267.0 313.2L267.1 313.2L267.2 313.3L267.2 313.3L267.3 313.3L267.3 313.3L267.4 313.3L267.4 313.3L267.4 313.3L267.5 313.3L267.5 313.3L267.5 313.3L267.6 313.3L267.6 313.3L267.6 313.3L267.7 313.3L267.7 313.3L267.8 313.3L267.8 313.3L267.9 313.3L268.0 313.3L269.3 313.5L270.2 312.4L270.2 312.4L272.0 311.3L274.1 310.8L274.5 310.8L274.8 310.8L275.1 311.3L275.3 316.5L267.8 324.8L269.7 324.4L271.7 326.2L271.7 326.3L271.7 326.3L271.7 326.3L271.7 326.4L271.6 326.6L271.6 326.6L271.6 326.7L271.6 326.7L271.5 326.8L271.5 326.8L271.5 326.8L271.5 326.9L271.5 327.0L271.5 327.0L271.5 327.0L271.5 327.1L271.5 327.1L271.5 327.2L271.5 327.2L271.5 327.2L271.5 327.3L271.5 327.3L271.5 327.3L271.5 327.4L271.5 327.4L271.5 327.7L271.5 327.7L271.5 327.7L271.5 327.8L271.5 327.8L271.5 327.9L271.5 327.9L271.5 327.9L271.5 328.0L271.5 328.0L271.5 328.0L271.5 328.1L271.5 328.1L271.5 328.2L271.5 328.2L271.5 328.2L271.5 328.3L271.5 328.3L271.6 328.4L271.6 328.4L271.6 328.4L271.6 328.5L271.6 328.5L271.6 328.6L271.6 328.6L271.6 328.7L271.7 328.7L271.7 328.8L271.7 328.8L271.7 328.8L271.7 328.9L271.8 328.9L271.8 329.0L271.8 329.0L271.8 329.1L271.8 329.1L271.8 329.1L271.9 329.2L271.9 329.2L271.9 329.3L271.9 329.3L272.0 329.3L272.0 329.4L272.0 329.5L272.1 329.5L272.1 329.5L272.1 329.5L272.1 329.6L272.1 329.6L272.2 329.6L272.2 329.7L272.2 329.7L272.3 329.7L272.3 329.8L272.3 329.8L272.3 329.8L272.4 329.9L272.4 329.9L272.5 330.0L272.6 330.0L272.6 330.1L272.7 330.2L272.7 330.2L272.8 330.2L272.8 330.2L272.8 330.3L272.8 330.3L272.9 330.3L272.9 330.3L272.9 330.3L273.0 330.4L273.0 330.4L273.0 330.4L273.2 330.5L273.2 330.5L273.2 330.5L273.3 330.5L273.3 330.5L273.3 330.6L273.4 330.6L273.4 330.6L273.5 330.6L273.5 330.6L273.5 330.7L273.6 330.7L273.6 330.7L273.7 330.7L273.7 330.7L273.8 330.8L273.9 330.8L273.9 330.8L273.9 330.8L274.0 330.8L274.0 330.8L274.1 330.8L274.2 330.8L274.2 330.9L274.3 330.9L274.3 330.9L274.3 330.9L274.4 330.9L274.4 330.9L274.5 330.9L274.5 330.9L274.5 330.9L274.6 330.9L274.6 330.9L274.6 330.9L274.7 330.9L274.8 330.9L274.8 330.9L276.4 331.1L278.0 331.8L278.0 331.8L278.1 331.8L278.1 331.9L278.1 331.9L278.2 331.9L278.2 331.9L278.2 331.9L278.3 331.9L278.3 332.0L278.3 332.0L278.4 332.0L278.4 332.0L278.4 332.0L278.5 332.0L278.5 332.0L278.5 332.1L278.7 332.1L278.7 332.1L278.8 332.1L278.8 332.1L278.8 332.2L278.9 332.2L279.0 332.2L279.1 332.2L279.1 332.2L279.1 332.2L279.2 332.2L279.2 332.2L279.2 332.2L279.3 332.2L279.3 332.2L279.4 332.2L279.4 332.3L279.5 332.3L279.5 332.3L279.5 332.3L279.6 332.3L279.8 332.3L279.8 332.3L279.8 332.3L279.9 332.3L279.9 332.3L279.9 332.2L280.0 332.2L280.0 332.2L280.1 332.2L280.1 332.2L280.2 332.2L280.2 332.2L280.2 332.2L280.3 332.2L280.3 332.2L280.4 332.2L280.5 332.2L280.5 332.1L280.6 332.1L280.6 332.1L280.7 332.1L280.8 332.1L280.8 332.0L280.9 332.0L280.9 332.0L281 332.0L281.0 332.0L281.1 332.0L281.1 331.9L281.2 331.9L281.2 331.9L281.2 331.9L281.3 331.9L281.3 331.8L281.3 331.8L281.4 331.8L282.9 331.2L283.0 331.1L283.0 331.1L283.2 331.1L283.3 331.0L283.3 331.0L283.3 331.0L283.4 331.0L283.4 331.0L283.4 331.0L283.5 331.0L283.5 330.9L283.6 330.9L283.6 330.9L283.6 330.9L283.7 330.9L283.7 330.8L283.8 330.8L283.8 330.8L283.9 330.7L283.9 330.7L284 330.7L284.0 330.7L284.0 330.6L284.1 330.6L284.1 330.6L284.1 330.5L284.2 330.5L284.2 330.5L284.3 330.4L284.3 330.4L284.3 330.4L284.4 330.4L284.5 330.3L284.5 330.2L284.5 330.2L284.5 330.2L284.6 330.1L284.6 330.1L284.7 330.0L284.7 330.0L284.7 330.0L284.7 329.9L284.8 329.9L284.8 329.9L284.8 329.9L284.8 329.8L284.9 329.8L284.9 329.7L284.9 329.6L285.0 329.6L285.0 329.6L285.0 329.5L285.0 329.5L285.0 329.5L285.0 329.4L285.1 329.4L285.1 329.4L285.1 329.3L285.1 329.3L285.1 329.2L285.2 329.2L285.2 329.1L285.2 329.1L285.2 329.1L285.2 329.0L285.2 329.0L285.3 328.9L285.3 328.9L285.3 328.9L285.3 328.8L285.3 328.7L285.3 328.7L285.3 328.7L285.3 328.6L285.4 328.6L285.4 328.5L285.4 328.5L285.4 328.5L285.4 328.4L285.4 328.4L285.4 328.3L285.4 328.3L285.4 328.3L285.4 328.2L285.4 328.2L285.4 328.1L285.4 328.1L285.4 328.0L285.4 327.8L285.4 327.7L285.4 327.7L285.4 327.6L285.4 327.6L285.4 327.6L285.4 327.5L285.4 327.5L285.4 327.4L285.4 327.4L285.4 327.3L285.4 327.3L285.4 327.3L285.3 327.2L285.3 327.2L285.3 327.1L285.3 327.0L285.3 327.0L285.2 326.7L285.2 326.7L285.2 326.6L284.7 324.7L284.7 324.7L284.7 324.6L284.7 324.6L284.7 324.6L284.7 324.5L284.7 324.5L284.7 324.4L284.7 324.4L284.7 324.3L284.7 324.3L284.6 324.1L284.6 324.1L284.6 324.0L284.6 324.0L284.6 323.9L284.6 323.9L284.5 323.9L284.5 323.8L284.5 323.8L284.1 321.8L284.2 321.0L287.5 320.8L296.7 321.9L305.5 327.6L307.8 332.9L307.9 341.4L305.0 353.4L299.5 359.2L298.1 357.0L295.4 355.8L298.8 361.1L297.2 363.8L295.6 364.4L294.2 364.5L292.1 363.9L291.7 363.4L291.5 363.6L289.8 362.3L289.7 362.2L289.7 362.2L289.7 362.2L289.7 362.1L289.6 362.1L289.6 362.0L289.5 362.0L289.5 362.0L289.4 361.9L289.4 361.9L289.3 361.8L289.3 361.8L289.3 361.8L289.2 361.8L289.2 361.8L289.2 361.7L289.1 361.7L289.1 361.7L289.0 361.6L288.9 361.6L288.9 361.5L288.8 361.5L288.8 361.5L288.8 361.5L288.7 361.5L288.7 361.4L288.6 361.4L288.6 361.4L288.5 361.4L288.5 361.4L288.5 361.4L288.4 361.3L288.4 361.3L288.4 361.3L288.3 361.3L288.2 361.3L288.2 361.3L288.2 361.2L288.1 361.2L288.1 361.2L288.0 361.2L288.0 361.2L287.9 361.2L287.9 361.2L287.8 361.2L287.8 361.2L287.8 361.2L287.7 361.2L287.7 361.1L287.7 361.1L287.6 361.1L287.6 361.1L287.5 361.1L287.4 361.1L285.5 360.6L283.8 359.6L282.5 358.2L282.5 358.1L282.4 358.1L282.4 358.1L282.4 358.0L282.4 358.0L282.3 357.9L282.3 357.9L282.2 357.8L282.2 357.8L282.2 357.8L282.1 357.7L282.1 357.7L282.0 357.6L282.0 357.6L282.0 357.6L281.9 357.5L281.9 357.5L281.9 357.5L281.8 357.4L281.8 357.4L281.7 357.4L281.7 357.3L281.7 357.3L281.7 357.3L281.6 357.3L281.6 357.3L281.6 357.2L281.5 357.2L281.4 357.1L281.4 357.1L281.3 357.1L281.3 357.1L281.2 357.0L281.2 357.0L281.2 357.0L281.1 357.0L281.1 357.0L281.0 356.9L281.0 356.9L281.0 356.9L280.9 356.9L280.9 356.9L280.9 356.9L280.8 356.9L280.8 356.8L280.7 356.8L280.7 356.8L280.7 356.8L280.6 356.8L280.6 356.8L280.6 356.8L280.5 356.8L280.5 356.7L280.4 356.7L280.3 356.7L280.3 356.7L280.3 356.7L280.2 356.7L280.2 356.7L280.2 356.7L280.1 356.7L280.1 356.7L280.0 356.7L280.0 356.7L280.0 356.7L279.9 356.7L279.9 356.7L279.9 356.6L279.8 356.6L279.7 356.6L279.6 356.6L279.6 356.6L279.5 356.6L279.4 356.7L279.4 356.7L279.4 356.7L279.3 356.7L279.3 356.7L279.3 356.7L279.2 356.7L279.2 356.7L279.1 356.7L279.1 356.7L279.0 356.7L279.0 356.7L279.0 356.7L278.9 356.7L278.9 356.7L278.8 356.8L278.8 356.8L278.8 356.8L278.7 356.8L278.5 356.9L278.5 356.9L278.4 356.9L278.4 356.9L278.4 356.9L278.3 356.9L278.3 357.0L278.2 357.0L278.2 357.0L278.1 357.0L278.1 357.0L278.1 357.1L278.0 357.1L278.0 357.1L277.9 357.1L277.9 357.1L277.9 357.2L277.8 357.2L277.7 357.3L277.7 357.3L277.7 357.3L277.7 357.3L277.6 357.3L277.6 357.4L277.6 357.4L277.5 357.4L277.4 357.5L277.4 357.5L277.4 357.6L277.3 357.6L277.3 357.6L277.3 357.6L277.3 357.7L277.2 357.7L277.2 357.7L277.2 357.7L277.2 357.8L277.1 357.8L277.1 357.9L277.0 357.9L277.0 357.9L277.0 358.0L277.0 358.0L277.0 358.0L276.9 358.1L276.9 358.1L276.9 358.1L276.8 358.2L276.0 359.2L274.3 360.4L272.4 361.1L272.2 361.1L271.9 361.1L271.8 361.1L271.7 361.1L271.7 361.1L271.6 361.2L271.6 361.2L271.5 361.2L271.5 361.2L271.4 361.2L271.4 361.2L271.3 361.2L271.3 361.2L271.2 361.2L271.2 361.2L271.2 361.2L271.1 361.3L271.1 361.3L271.0 361.3L270.9 361.3L270.9 361.3L270.9 361.4L270.8 361.4L270.8 361.4L270.8 361.4L270.7 361.4L270.7 361.4L270.7 361.4L270.6 361.5L270.6 361.5L270.5 361.5L270.5 361.5L270.5 361.5L270.4 361.6L270.4 361.6L270.2 361.7L270.2 361.7L270.2 361.7L270.2 361.7L270.1 361.8L270.1 361.8L270.1 361.8L270.0 361.8L270.0 361.8L270.0 361.9L270 361.9L269.9 361.9L269.9 361.9L269.9 362.0L269.8 362.0L269.8 362.0L269.8 362.1L269.7 362.1L269.7 362.1L269.7 362.1L269.7 362.2L269.6 362.2L269.6 362.3L267.9 363.6L267.9 363.6L265.0 364.5L264.9 364.5L263.4 364.4L263.4 364.4L262.6 364.2L262.5 364.2L262.5 364.2L262.4 364.2L262.4 364.2L262.4 364.2L262.3 364.1L262.3 364.1L262.3 364.1L262.2 364.1L262.1 364.1L262.1 364.1L262.0 364.1L262.0 364.1L262.0 364.1L261.9 364.1L261.9 364.1L261.9 364.1L261.8 364.1L261.8 364.1L261.7 364.1L261.6 364.1L261.6 364.1L261.5 364.1L261.5 364.1L261.4 364.1L261.3 364.1L261.3 364.1L261.3 364.1L261.2 364.1L261.2 364.1L261.1 364.1L261.1 364.1L261.0 364.1L261.0 364.1L261.0 364.1L260.9 364.1L260.9 364.1L260.8 364.1L260.8 364.1L260.7 364.2L260.7 364.2L260.6 364.2L260.6 364.2L260.6 364.2L260.5 364.2L260.4 364.2L260.4 364.3L260.4 364.3L260.3 364.3L260.3 364.3L260.3 364.3L260.2 364.3L260.2 364.3L260.1 364.4L260.1 364.4L260.0 364.4L260.0 364.4L260.0 364.5L259.9 364.5L259.9 364.5L259.9 364.5L259.8 364.5L259.8 364.6L259.8 364.6L259.7 364.6L259.7 364.6L259.6 364.7L259.6 364.7L259.6 364.7L259.6 364.7L259.5 364.7L259.5 364.8L259.5 364.8L259.4 364.8L259.4 364.9L259.3 364.9L259.3 364.9L259.3 365.0L259.1 365.1L259.0 365.2L259.0 365.2L259.0 365.3L258.9 365.3L258.9 365.4L258.9 365.4L258.8 365.4L258.8 365.5L258.8 365.5L258.8 365.5L258.6 365.8L258.6 365.8L258.6 365.8L258.6 365.9L258.6 365.9L258.5 365.9L258.5 366.0L258.5 366.0L258.5 366.0L258.4 366.1L258.4 366.2L258.4 366.2L258.4 366.2L258.3 366.5L258.3 366.5L258.3 366.6L258.3 366.6L258.3 366.7L258.3 366.7L258.3 366.7L258.3 366.8L258.3 366.8L258.2 366.8L258.2 366.9L258.2 366.9L258.2 367.0L258.2 367.0L258.2 367.1L258.2 367.1L258.2 367.1L258.2 367.2L258.2 367.2L258.2 367.3L258.2 367.3L258.2 367.6L258.2 367.6L258.2 367.6L258.2 367.7L258.2 367.7L258.2 367.7L258.2 367.8L258.2 367.8L258.2 367.8L258.2 367.9L258.2 368.0L258.2 368.0L258.3 368.0L258.3 368.1L258.3 368.1L258.3 368.2L258.3 368.3L258.3 368.3L258.3 368.4L258.3 368.4L258.3 368.4L258.4 368.5L258.4 368.6L258.4 368.6L258.4 368.7L258.5 368.7L258.5 368.8L258.5 368.8L258.5 368.9L258.5 368.9L258.6 368.9L258.6 369.0L258.6 369.0L258.6 369.0L258.6 369.1L258.6 369.1L258.8 369.3L258.8 369.3L258.8 369.4L258.8 369.4L258.9 369.4L258.9 369.4L258.9 369.5L258.9 369.5L258.9 369.5L259.0 369.6L259.0 369.6L259.1 369.7L259.1 369.7L259.1 369.7L259.2 369.8L260.2 371.1L260.2 371.2L260.3 371.2L260.3 371.2L260.3 371.2L260.3 371.3L260.3 371.3L260.4 371.3L260.4 371.4L260.4 371.4L260.5 371.4L260.5 371.5L260.5 371.5L260.5 371.5L260.6 371.6L260.6 371.6L260.6 371.6L260.6 371.6L260.7 371.7L260.7 371.7L260.7 371.7L260.7 371.7L260.8 371.8L260.8 371.8L260.8 371.8L260.8 371.8L260.9 371.9L260.9 371.9L260.9 371.9L261.0 372.0L261.0 372.0L261.0 372.0L261.1 372.0L261.1 372.0L261.1 372.1L261.1 372.1L261.2 372.1L261.2 372.1L261.2 372.2L261.4 372.2L263.6 374.4L263.6 374.5L263.6 374.5L263.6 374.5L263.6 374.6L263.7 374.6L263.7 374.6L263.7 374.7L263.7 374.7L263.8 374.7L263.8 374.8L263.8 374.8L263.8 374.8L263.9 374.9L263.9 374.9L263.9 374.9L264.0 375.0L264.0 375.0L264.0 375.1L264.1 375.1L264.1 375.1L264.1 375.1L264.2 375.2L264.2 375.2L264.2 375.3L264.3 375.3L264.4 375.3L264.4 375.4L264.4 375.4L264.4 375.4L264.5 375.4L264.5 375.5L264.5 375.5L264.6 375.5L264.6 375.5L264.7 375.6L265.7 376.3L266.9 377.7L267.6 379.3L267.9 381.1L267.9 381.1L267.8 382.3L267.7 382.8L267.7 382.9L267.7 382.9L267.7 383.0L267.7 383.0L267.7 383.1L267.7 383.1L267.7 383.2L267.7 383.2L267.7 383.2L267.7 383.3L267.7 383.3L267.6 383.4L267.6 383.4L267.6 383.4L267.6 383.5L267.6 383.6L267.6 383.6L267.6 383.7L267.6 383.7L267.6 383.8L267.6 383.8L267.6 383.9L267.6 383.9L267.7 383.9L267.7 384.0L267.7 384.0L267.7 384.1L267.7 384.1L267.7 384.2L267.7 384.2L267.7 384.3L267.7 384.3L267.7 384.4L267.7 384.5L267.8 384.5L267.8 384.5L267.8 384.6L267.8 384.6L267.8 384.8L267.9 384.8L267.9 384.9L267.9 384.9L267.9 385.0L267.9 385.0L267.9 385.0L268.0 385.1L268.0 385.1L268.0 385.2L268.0 385.2L268.0 385.2L268.1 385.3L268.1 385.3L268.1 385.3L268.2 385.5L268.2 385.5L268.3 385.6L268.3 385.6L268.3 385.6L268.3 385.7L268.3 385.7L268.4 385.7L268.4 385.8L268.4 385.8L268.5 385.8L268.5 385.9L268.5 385.9L268.7 386.1L268.8 386.1L268.8 386.2L268.8 386.2L268.9 386.2L270.3 387.9L270.3 388.0L270.3 388.0L270.4 388.0L270.4 388.1L270.5 388.1L270.5 388.2L270.5 388.2L270.5 388.2L270.6 388.3L270.6 388.3L270.6 388.4L270.7 388.4L270.7 388.4L270.7 388.4L270.7 388.5L270.9 388.6L270.9 388.7L271.0 388.7L271.0 388.7L271.0 388.7L271.1 388.8L271.1 388.8L271.1 388.8L271.1 388.8L271.2 388.8L271.2 388.9L271.3 388.9L271.3 388.9L271.3 389L271.3 389.0L271.4 389.0L271.4 389.0L272.4 389.7L272.4 389.8L272.5 389.8L272.5 389.8L272.5 389.9L272.6 389.9L272.6 389.9L272.6 389.9L272.6 390L272.7 390.0L272.7 390.0L272.8 390.0L272.8 390.1L272.9 390.1L273.0 390.1L273.0 390.2L273.0 390.2L273.1 390.2L273.1 390.2L273.1 390.2L273.2 390.3L273.2 390.3L273.2 390.3L273.3 390.3L273.3 390.3L273.4 390.3L273.4 390.4L273.4 390.4L273.5 390.4L273.7 390.5L273.7 390.5L273.7 390.5L273.8 390.5L273.8 390.5L273.9 390.5L273.9 390.5L274.0 390.5L274.0 390.5L274.1 390.6L274.1 390.6L274.2 390.6L274.2 390.6L274.3 390.6L274.3 390.6L274.3 390.6L274.4 390.6L274.4 390.6L274.5 390.6L274.6 390.6L274.7 390.6L274.7 390.6L274.8 390.6L274.9 390.6L274.9 390.6L275.0 390.6L275.0 390.6L275.0 390.6L275.1 390.6L275.1 390.6L275.2 390.5L275.2 390.5L275.3 390.5L275.3 390.5L275.3 390.5L275.4 390.5L275.5 390.5L275.5 390.5L275.5 390.5L275.6 390.5L275.8 390.4L275.8 390.4L275.9 390.4L275.9 390.3L275.9 390.3L276.0 390.3L276.1 390.3L276.1 390.3L276.1 390.2L276.2 390.2L276.2 390.2L276.2 390.2L276.3 390.1L276.3 390.1L276.4 390.1L276.5 390.1L276.5 390.0L276.5 390.0L276.5 390.0L276.6 390.0L276.6 390L276.6 389.9L276.7 389.9L276.7 389.9L276.8 389.8L276.8 389.8L276.8 389.8L276.8 389.8L276.9 389.7L278.9 388.5L279.5 388.3L279.6 388.3L279.7 388.2L279.7 388.2L279.8 388.2L279.9 388.2L279.9 388.1L280.0 388.1L280.0 388.1L280.0 388.1L280.1 388.1L280.1 388.1L280.2 388.0L280.2 388.0L280.2 388.0L280.3 388.0L280.3 388.0L280.3 388.0L280.4 387.9L280.4 387.9L280.6 387.8L280.6 387.8L280.6 387.8L280.7 387.7L280.7 387.7L280.8 387.7L280.8 387.6L280.8 387.6L280.9 387.6L280.9 387.5L281.0 387.5L281.0 387.5L281.0 387.4L281.1 387.4L281.1 387.4L281.1 387.3L281.2 387.3L281.2 387.3L281.2 387.3L281.3 387.2L281.3 387.2L281.3 387.1L281.3 387.1L281.4 387.1L281.4 387.0L281.4 387.0L281.4 387.0L281.5 386.9L281.5 386.9L281.5 386.8L281.5 386.8L281.6 386.8L281.6 386.7L281.6 386.7L281.6 386.7L281.6 386.6L281.7 386.6L281.7 386.6L281.7 386.5L281.7 386.5L281.8 386.4L281.8 386.4L281.8 386.4L281.8 386.3L281.8 386.3L281.8 386.2L281.9 386.1L281.9 386.0L281.9 386.0L281.9 385.9L281.9 385.9L282 385.9L282.0 385.8L282.0 385.8L282.0 385.7L282.0 385.7L282.0 385.6L282.0 385.6L282.0 385.6L282.0 385.5L282.0 385.5L282.0 385.4L282.0 385.4L282.0 385.4L282.0 385.3L282.0 385.3L282.1 385.2L282.1 385.2L282.1 385.2L282.1 384.9L282.1 384.8L282.0 384.8L282.0 384.8L282.0 384.7L282.0 384.7L282.0 384.6L282.0 384.6L282.0 384.5L282.0 384.5L282.0 384.5L282.0 384.4L282.0 384.3L282.0 384.3L282 384.2L281.9 384.1L281.9 384.1L281.9 384.1L281.8 383.9L281.8 383.8L281.8 383.8L281.6 383.3L281.6 383.2L281.6 383.2L281.6 383.2L281.6 383.1L281.6 383.1L281.3 381.3L279.4 381.0L279.4 381.0L278.9 380.8L278.9 380.8L277.2 379.9L275.8 378.5L275.0 376.7L274.6 374.8L274.7 373.8L274.7 373.8L275.2 371.9L276.2 370.3L277.7 369.0L279.4 368.1L281.3 367.9L282.1 367.9L282.1 367.9L283.6 368.3L285.1 369.0L286.7 370.5L287.7 372.4L287.7 372.4L288.0 374.2L288.3 374.2L287.6 374.8L284.3 374.5L280.1 375.9L278.2 377.9L281.7 376.4L285.5 376.9L286.1 378.1L284.2 378.1L282.4 379.3L282.9 380.0L290.6 381.6L301.7 379.3L302.8 381.4L302.2 388.1L294.3 392.3L292.8 394.4L292.8 396.8L288.2 396.8L285.5 399.4L278.2 401.9L275.7 404.6L263.9 401.7L254.0 403.6L251.1 405.7L248.4 404.0L249.5 402.9L248.0 401.5L242.6 401.4L243.5 402.8L242.8 403.8L241.8 402.6L241.0 400.7L240.8 398.7L241.2 396.7L241.2 396.6L241.2 396.6L241.2 396.5L241.2 396.5L241.2 396.4L241.2 396.4L241.3 396.4L241.3 396.3L242.0 394.6L243.3 393.1L243.3 393.0L243.4 393.0L243.4 393.0L243.5 392.9L243.5 392.9L243.5 392.8L243.7 392.7L243.7 392.7L243.7 392.6L243.7 392.6L243.8 392.6L243.8 392.5L243.8 392.5L243.8 392.4L243.9 392.4L243.9 392.4L243.9 392.4L243.9 392.3L243.9 392.3L244.0 392.2L244.0 392.2L244.0 392.2L244.0 392.1L244.1 392.1L244.1 392.1L244.1 392.0L244.1 392.0L244.1 392.0L244.1 391.9L244.1 391.9L244.2 391.9L244.2 391.8L244.2 391.8L244.2 391.7L244.2 391.7L244.3 391.6L244.3 391.6L244.3 391.6L244.3 391.5L244.3 391.5L244.3 391.4L244.3 391.4L244.3 391.3L244.4 391.2L244.4 391.2L244.4 391.1L244.4 391.1L244.4 391.1L244.4 391.0L244.4 391.0L244.4 391L244.4 390.9L244.4 390.8L244.8 389.2L244.8 389.1L244.8 389.1L244.8 389.0L244.8 388.9L244.8 388.9L244.9 388.9L244.9 388.8L244.9 388.7L244.9 388.7L244.9 388.6L244.9 388.6L244.9 388.5L244.9 388.5L244.9 388.5L244.9 388.4L244.9 388.4L245 388.3L245.0 388.3L245.0 388.3L245.0 388.2L245.0 388.2L245.0 388.1L245.0 388.1L245.0 388.0L245.0 388.0L245.0 387.9L245.0 387.8L245.0 387.8L245.0 387.8L244.9 387.7L244.9 387.7L244.9 387.6L244.9 387.6L244.9 387.5L244.9 387.4L244.9 387.4L244.9 387.3L244.9 387.3L244.9 387.2L244.9 387.2L244.8 387.1L244.8 387.1L244.8 387.0L244.8 386.9L244.8 386.9L244.7 386.7L244.7 386.6L244.7 386.6L244.6 386.5L244.6 386.5L244.6 386.4L244.6 386.3L244.6 386.3L244.6 386.3L244.5 386.2L244.5 386.2L244.5 386.1L244.5 386.1L244.5 386.1L244.4 386.0L244.4 386.0L244.4 386.0L244.4 385.9L244.3 385.9L244.3 385.8L244.3 385.7L244.2 385.7L244.2 385.7L244.2 385.6L244.2 385.6L244.1 385.5L244.1 385.5L244.1 385.5L244.0 385.4L244.0 385.4L244.0 385.3L243.9 385.3L243.9 385.2L243.8 385.2L243.8 385.2L243.7 385.1L243.7 385.1L243.7 385.1L243.6 385.0L243.5 385.0L243.5 384.9L243.5 384.9L243.4 384.9L243.4 384.9L243.4 384.8L243.3 384.8L243.3 384.8L243.2 384.8L243.2 384.7L243.1 384.7L243.1 384.7L243.1 384.6L243.0 384.6L243.0 384.6L242.9 384.6L242.9 384.6L242.9 384.5L242.8 384.5L242.8 384.5L242.7 384.5L242.7 384.5L242.6 384.4L242.6 384.4L242.5 384.4L242.4 384.4L241.4 384.0L239.9 382.9L238.7 381.6L238.0 379.9L237.9 379.8L237.9 379.8L237.9 379.7L237.9 379.7L237.9 379.7L237.9 379.6L237.8 379.6L237.8 379.6L237.8 379.5L237.8 379.5L237.8 379.4L237.8 379.4L237.7 379.4L237.7 379.3L237.7 379.3L237.7 379.2L237.6 379.2L237.6 379.0L237.5 379.0L237.5 379.0L237.5 378.9L237.5 378.9L237.4 378.9L237.4 378.9L237.4 378.8L237.4 378.8L237.4 378.8L237.3 378.7L237.3 378.7L237.2 378.6L237.2 378.6L237.2 378.6L237.1 378.5L237.1 378.4L237.0 378.4L237.0 378.4L237.0 378.4L236.9 378.3L236.9 378.3L236.8 378.2L236.8 378.2L236.8 378.2L236.7 378.2L236.7 378.2L236.7 378.1L236.6 378.1L236.6 378.0L236.5 378.0L236.5 378.0L236.4 378.0L236.4 377.9L236.3 377.9L236.3 377.9L236.3 377.9L236.2 377.9L236.2 377.9L236.2 377.8L236.1 377.8L236.1 377.8L236.0 377.8L236.0 377.8L236.0 377.7L235.9 377.7L235.9 377.7L235.8 377.7L235.7 377.7L234.3 377.1L234.3 377.1L232.6 375.6L231.4 373.7L231.0 371.6L231.0 371.6L231.0 370.1L231.0 370.1L231.1 370.0L231.1 370.0L231.1 370.0L231.1 369.9L231.1 369.8L231.1 369.8L231.1 369.8L231.1 369.7L231.1 369.6L231.1 369.6L231.1 369.5L231.1 369.5L231.1 369.4L231.1 369.4L231.1 369.3L231.1 369.2L231.1 369.2L231.1 369.1L231.0 369.0L231.0 369.0L231.0 368.5L231 367.7L231.2 366.1L231.8 364.5L231.9 364.5L231.9 364.4L231.9 364.4L231.9 364.4L231.9 364.3L232.0 364.3L232.0 364.2L232.0 364.2L232.0 364.1L232.1 364.1L232.1 364.0L232.1 364.0L232.1 364.0L232.2 363.8L232.2 363.8L232.2 363.7L232.2 363.7L232.2 363.7L232.2 363.6L232.2 363.5L232.2 363.5L232.2 363.4L232.3 363.4L232.3 363.4L232.3 363.3L232.3 363.3L232.3 363.2L232.3 363.2L232.3 363.1L232.3 363.1L232.3 363.1L232.3 363.0L232.3 363.0L232.3 362.9L232.3 362.7L232.3 362.7L232.3 362.6L232.3 362.6L232.3 362.6L232.3 362.5L232.3 362.5L232.3 362.4L232.3 362.4L232.3 362.3L232.3 362.3L232.3 362.3L232.2 362.2L232.2 362.2L232.2 362.1L232.2 362.0L232.2 362.0L232.2 362.0L232.2 361.9L232.2 361.9L232.2 361.9L232.1 361.7L232.1 361.6L232.1 361.6L232.0 361.5L232.0 361.5L232.0 361.4L232.0 361.4L232.0 361.3L231.9 361.3L231.9 361.3L231.9 361.2L231.9 361.2L231.9 361.2L231.8 361.1L231.0 358.9L231.0 358.5L231 358.0L231.2 355.8L232.2 353.9L232.9 353.0L232.9 353.0L234.9 351.6L237.3 351.1L240.0 351.5L242.4 353.0L242.5 353.1L242.6 353.2L242.6 353.2L242.6 353.2L242.7 353.3L242.7 353.3L242.7 353.3L242.8 353.3L242.8 353.4L242.8 353.4L242.8 353.4L242.9 353.4L242.9 353.5L242.9 353.5L243.0 353.5L243.1 353.6L243.2 353.6L243.2 353.6L243.3 353.7L243.3 353.7L243.3 353.7L243.4 353.7L243.5 353.8L243.5 353.8L243.6 353.8L243.6 353.8L243.6 353.8L243.7 353.8L243.7 353.9L243.9 353.9L243.9 353.9L243.9 353.9L244.0 354L244.0 354.0L244.0 354.0L244.1 354.0L244.2 354.0L244.2 354.0L244.3 354.0L244.3 354.0L244.3 354.0L244.4 354.0L244.4 354.0L244.5 354.0L244.5 354.0L244.5 354.1L244.6 354.1L244.6 354.1L244.7 354.1L244.7 354.1L244.8 354.1L244.8 354.1L244.9 354.1L244.9 354.1L245.0 354.1L245.1 354.1L245.1 354.1L245.2 354.1L245.2 354.0L245.2 354.0L245.3 354.0L245.3 354.0L245.3 354.0L245.4 354.0L245.4 354.0L245.5 354.0L245.5 354.0L245.5 354.0L245.6 354.0L245.6 354.0L245.7 354.0L245.7 354.0L245.7 353.9L245.8 353.9L245.8 353.9L245.9 353.9L245.9 353.9L246 353.9L246.1 353.8L246.1 353.8L246.1 353.8L246.2 353.8L246.2 353.8L246.3 353.8L246.3 353.7L246.4 353.7L246.4 353.7L246.5 353.7L246.5 353.6L246.6 353.6L246.6 353.6L246.6 353.5L246.7 353.5L246.7 353.5L246.7 353.5L246.8 353.5L246.8 353.4L246.8 353.4L246.9 353.4L246.9 353.4L246.9 353.3L247.0 353.3L247.0 353.3L247.1 353.2L247.1 353.2L247.1 353.1L247.2 353.1L247.2 353.1L247.2 353.1L247.3 353.0L247.3 353.0L247.3 353.0L247.3 353.0L247.4 352.9L247.4 352.9L247.5 352.8L247.5 352.8L247.5 352.8L247.5 352.7L247.6 352.7L247.6 352.6L247.6 352.6L247.6 352.6L247.7 352.4L247.7 352.4L247.8 352.4L247.8 352.3L247.8 352.3L247.8 352.3L247.8 352.2L247.9 352.2L247.9 352.1L247.9 352.1L247.9 352.0L248.0 352.0L248.0 351.9L248.0 351.9L248.0 351.9L248.1 351.7L248.1 351.6L248.1 351.6L248.1 351.6L248.1 351.5L248.1 351.5L248.1 351.4L248.1 351.4L248.1 351.4L248.1 351.3L248.2 351.3L248.2 351.2L248.2 351.2L248.2 351.1L248.2 351.1L248.2 351.0L248.2 351.0L248.2 351.0L248.2 350.9L248.2 350.9L248.2 350.8L248.2 350.8L248.2 350.6L248.2 350.6L248.2 350.5L248.2 350.5L248.2 350.5L248.2 350.4L248.2 350.4L248.2 350.4L248.2 350.3L248.2 350.3L248.2 350.2L248.2 350.2L248.2 350.1L248.1 350.1L248.1 350.0L248.1 350.0L248.1 349.9L248.1 349.9L248.1 349.8L248.1 349.8L248.1 349.8L248.1 349.7L248.0 349.7L247.8 347.6L247.8 347.6L248.0 346.0L248.6 344.4L248.6 344.4L248.6 344.3L248.7 344.3L248.7 344.3L248.7 344.3L248.7 344.2L248.7 344.2L248.7 344.1L248.8 344.1L248.8 344.1L248.8 344.0L248.8 344.0L248.8 344.0L248.8 343.9L248.8 343.9L248.9 343.7L248.9 343.7L248.9 343.7L248.9 343.6L248.9 343.6L249.0 343.5L249.0 343.4L249.0 343.4L249.0 343.3L249.0 343.3L249.0 343.3L249.0 343.2L249.0 343.2L249.0 343.1L249.0 343.1L249.0 343.1L249.0 343.0L249.0 343.0L249.0 343.0L249.0 342.9L249.0 342.9L249.0 342.8L249.0 342.7L249.0 342.7L249.0 342.6L249.0 342.6L249.0 342.5L249.0 342.5L249.0 342.4L249.0 342.4L249.0 342.3L249.0 342.3L249.0 342.3L249.0 342.2L249.0 342.2L249.0 342.2L249.0 342.1L249.0 342.1L249.0 342.0L249.0 342.0L248.9 341.9L248.9 341.9L248.9 341.9L248.9 341.8L248.9 341.8L248.8 341.6L248.8 341.6L248.8 341.5L248.8 341.5L248.8 341.5L248.8 341.4L248.7 341.4L248.7 341.3L248.7 341.3L248.7 341.2L248.7 341.2L248.6 341.2L248.6 341.1L248.6 341.1L248.6 341.1L248.5 340.9L248.4 340.9L248.4 340.8L248.4 340.8L248.4 340.8L248.4 340.7L248.3 340.7L248.3 340.7L248.3 340.6L248.3 340.6L248.2 340.6L248.2 340.5L248.2 340.5L248.1 340.5L248.0 340.3L247.9 340.3L247.9 340.2L247.9 340.2L247.8 340.2L247.8 340.2L247.8 340.1L247.7 340.1L247.7 340.1L247.7 340.1L247.6 340.0L247.6 340.0L247.6 340.0L247.5 340.0L247.5 339.9L246.1 338.8L246.0 338.7L246.0 338.6L246.0 338.6L245.9 338.5L245.9 338.5L245.8 338.5L245.8 338.4L245.8 338.4L245.7 338.3L245.7 338.3L245.6 338.3L245.6 338.3L245.6 338.3L245.5 338.2L245.5 338.2L245.5 338.2L245.4 338.2L245.4 338.2L245.4 338.1L245.3 338.1L245.3 338.1L245.2 338.0L245.2 338.0L245.2 338.0L245.1 338.0L245.1 338.0L245.1 338.0L245.0 337.9L245.0 337.9L245.0 337.9L244.9 337.9L244.9 337.9L244.9 337.9L244.8 337.8L244.8 337.8L244.8 337.8L244.7 337.8L244.6 337.8L244.6 337.8L244.6 337.7L244.5 337.7L244.5 337.7L244.5 337.7L244.4 337.7L244.4 337.7L244.3 337.7L244.2 337.7L244.2 337.7L244.2 337.7L244.1 337.6L244.1 337.6L244.1 337.6L244.0 337.6L244 337.6L243.9 337.6L243.8 337.6L243.2 337.5L243.2 337.5L241.0 336.7L239.3 335.3L238.1 333.3L237.7 331.0L237.8 329.8L237.8 329.8L237.8 329.7L237.8 329.5L237.8 329.5L237.8 329.5L237.8 329.4L237.8 329.4L237.8 329.4L237.8 329.3L237.8 329.1L237.8 329.1L237.8 329.1L237.8 329.0L237.8 329.0L237.8 328.9L237.8 328.8L237.8 328.7L237.8 328.7L237.8 328.6L237.7 328.3L237.7 327.6L237.7 327.5L237.9 325.9L238.5 324.3L238.5 324.3L239.9 322.5L240.0 322.5L240.0 322.5L240.0 322.4L240.1 322.4L240.1 322.3L240.1 322.3L240.2 322.3L240.2 322.3L240.3 322.2L240.3 322.1L240.4 322.1L240.4 322.0L240.4 322.0L240.4 322.0L240.4 321.9L240.5 321.9L240.5 321.8L240.6 321.8L240.6 321.7L240.6 321.7L240.6 321.6L240.7 321.6L240.7 321.6L240.7 321.5L240.7 321.5L240.7 321.5L240.8 321.4L240.8 321.3L240.8 321.3L240.8 321.3L240.8 321.2L240.8 321.2L240.9 321.1L240.9 321.1L240.9 321.0L240.9 320.9L240.9 320.9L241.0 320.9L241.0 320.7L241.0 320.7L241.0 320.6L241.0 320.6L241.0 320.5L241.0 320.5L241.0 320.5L241.0 320.4L241.0 320.4L241.0 320.3L241.1 320.2L241.2 319.1L242.3 316.9L244.0 315.3L244.1 315.2L244.1 315.2L244.1 315.2L244.2 315.1L244.2 315.1L244.2 315.1L244.3 315.1L244.3 315.0L244.4 315.0L244.4 314.9L244.5 314.9L244.5 314.8L244.5 314.8L244.6 314.8L244.6 314.8L244.6 314.7L244.7 314.7L244.7 314.6L244.7 314.6L244.8 314.6L244.8 314.5L244.8 314.5L244.8 314.5L244.9 314.4L244.9 314.4L244.9 314.4L245.0 314.3L245.1 314.1L245.1 314.1L245.1 314.1L245.1 314.0L245.1 314.0L245.2 314.0L245.2 313.9L245.2 313.9L245.2 313.9L245.2 313.8L245.2 313.8L245.3 313.8L245.3 313.7L245.3 313.7L245.3 313.6L245.3 313.6L245.4 313.5L245.4 313.5L245.4 313.4L245.4 313.3L245.4 313.3L245.4 313.3L245.4 313.2L245.4 313.2L245.5 313.2L245.5 313.1L245.5 313.1L245.5 313.1L245.5 313.0L245.5 313.0L245.5 313L245.5 312.9L245.5 312.9L245.5 312.8L245.5 312.8L245.5 312.8L245.5 312.7L245.5 312.7L245.5 312.7L245.5 312.6L245.5 312.6L245.5 312.5L245.5 312.5L245.5 312.4L245.5 312.4L245.5 312.3L245.5 312.2L245.5 312.2L245.5 312.2L245.5 312.1L245.5 312.1L245.5 312.1L245.5 312.0L245.5 312L245.5 311.9L245.5 311.9L245.5 311.8L245.5 311.8L245.5 311.8L245.5 311.7L245.4 311.7L245.4 311.6L245.4 311.6L245.4 311.5L245.4 311.5L245.4 311.5L245.4 311.4L245.4 311.3L245.3 311.3L245.3 311.3L245.3 311.2L245.3 311.2L245.3 311.2L245.3 311.1L245.2 311.1L245.2 311.0L245.2 311.0L245.2 310.9L245.2 310.9L245.1 310.9L245.1 310.8L245.1 310.8L245.1 310.8L245.0 310.6L245 310.5L244.9 310.5L244.9 310.5L244.9 310.4L244.8 310.4L244.8 310.4L244.8 310.3L244.8 310.3L244.7 310.2L244.7 310.2L244.7 310.2L244.6 310.1L244.6 310.1L244.5 310.0L244.5 310.0L244.4 310L244.4 309.9L244.4 309.9L244.3 309.9L244.3 309.8L244.2 309.8L244.2 309.8L244.2 309.7L244.2 309.7L244.1 309.7L244.1 309.7L244.1 309.6L244.0 309.6L242.6 308.3L241.4 306.3L241.0 304.1L241.0 303.9L241.0 303.9L241.0 303.8L241.0 303.8L241.0 303.8L241.0 303.7L241.0 303.7L241.0 303.6L241.0 303.6L241.0 303.6L241.0 303.5L241.0 303.5L241.0 303.4L241.0 303.4L241.0 303.3L240.9 303.3L240.9 303.2L240.9 303.1L240.9 303.1L240.8 302.8L240.8 302.8L240.8 302.8L240.8 302.7L240.8 302.7L240.7 302.7L240.7 302.6L240.7 302.6L240.7 302.6L240.7 302.5L240.7 302.5L240.6 302.5L240.6 302.4L240.6 302.4L240.6 302.3L240.6 302.3L240.5 302.2L240.5 302.2L240.4 302.1L240.4 302.1L240.4 302.1L240.4 302.0L240.4 302.0L240.3 302.0L240.3 302.0L240.3 301.9L240.2 301.8L240.2 301.8L240.1 301.7L240.1 301.7L240.1 301.7L240.0 301.7L240.0 301.6L239.9 301.6L239.9 301.5 Z M 280.2 321.2L279.7 321.8L280.0 321.2 Z M 214.2 408.6L214.1 408.2L214.6 405.9L215.7 403.9L217.5 402.4L219.7 401.6L219.7 401.6L220.3 401.5L220.3 401.5L221.8 401.6L222.5 400.4L222.5 400.4L224.0 399.2L225.7 398.4L227.6 398.1L227.6 398.1L229.8 398.5L229.8 398.5L231 399.1L232.1 398.5L232.1 398.5L233.6 398.1L234.3 398.1L234.8 398.1L236.9 398.6L236.9 398.6L238.7 399.7L240.0 401.3L240.8 403.1L240.9 403.6L238.4 403.4L232.2 405.9L224.1 406.4L221.6 405.6L220.7 407.1L223.7 408.1L223.6 410.7L221.2 411.1L214.3 409.3 Z M 241.0 404.7L241.0 405.2L240.6 407.2L239.4 409.3L238.1 410.3L234.6 408.1L232.8 408.3L239.0 404.1 Z M 207.0 341.0L204.9 340.5L203.1 339.4L201.7 337.8L200.9 335.8L200.9 335.8L200.7 334.9L200.7 334.8L200.7 334.7L200.7 334.7L200.7 334.6L200.7 334.6L200.7 334.6L200.7 334.5L200.7 334.5L200.7 334.5L200.7 334.4L200.6 334.2L200.6 334.2L200.6 334.2L200.6 334.1L200.6 334.1L200.6 334.1L200.6 334.0L200.5 334.0L200.5 333.9L200.5 333.9L200.5 333.9L200.5 333.8L200.5 333.8L200.5 333.7L200.4 333.7L200.4 333.7L200.4 333.6L200.4 333.6L200.4 333.6L200.4 333.5L200.3 333.5L200.3 333.5L200.3 333.4L200.2 333.3L200.2 333.3L200.2 333.2L200.1 333.2L200.1 333.2L200.1 333.1L200.1 333.1L200.1 333.1L200.0 333.0L200.0 333.0L200.0 333.0L200.0 333L199.9 332.9L199.8 332.8L199.8 332.8L199.8 332.8L199.7 332.7L199.6 332.6L199.6 332.6L199.0 332.0L197.8 329.9L197.3 327.6L197.3 327.5L197.4 326.5L197.4 326.4L197.5 326.4L197.5 326.3L197.5 326.2L197.5 326.1L197.5 326.1L197.5 326.0L197.5 326.0L197.5 326.0L197.5 325.8L197.5 325.7L197.5 325.7L197.5 325.7L197.5 325.6L197.5 325.5L197.5 325.5L197.5 325.4L197.4 325.3L197.4 325.3L197.3 324.2L197.4 323.7L197.7 322.0L197.8 321.8L197.8 321.7L197.8 321.7L197.8 321.7L197.8 321.6L197.8 321.6L197.8 321.6L197.9 321.5L197.9 321.4L197.9 321.4L197.9 321.3L197.9 321.3L197.9 321.2L197.9 321.2L197.9 321.1L197.9 321.1L197.9 321.1L197.9 321.0L197.9 321.0L197.9 320.7L197.9 320.6L197.9 320.6L197.9 320.6L197.9 320.5L197.9 320.5L197.9 320.4L197.9 320.4L197.9 320.4L197.9 320.3L197.9 320.3L197.9 320.2L197.9 320.2L197.9 320.1L197.8 320.1L197.8 320.0L197.8 320.0L197.8 320.0L197.8 319.9L197.8 319.9L197.8 319.8L197.8 319.8L197.8 319.8L197.7 319.7L197.4 318.1L197.4 318.0L197.4 317.9L197.4 317.9L197.4 317.8L197.3 317.8L197.3 317.8L197.3 317.7L197.3 317.7L197.3 317.6L197.3 317.5L197.3 317.5L197.3 317.4L197.3 317.4L197.2 317.2L197.2 317.1L197.2 317.1L197.1 317.1L197.1 317.0L197.1 317.0L197.1 317.0L197.1 316.9L197.1 316.9L197.1 316.9L197.0 316.8L197.0 316.8L197.0 316.7L197.0 316.7L197.0 316.7L196.9 316.6L196.8 316.4L196.8 316.4L196.8 316.4L196.7 316.3L196.7 316.3L196.7 316.3L196.7 316.2L196.7 316.2L196.5 316.1L196.5 316.0L196.5 316.0L196.5 316.0L196.4 316.0L196.4 315.9L196.4 315.9L196.4 315.9L196.3 315.9L196.3 315.8L196.2 315.8L195.7 315.2L194.6 313.6L194.1 311.8L194.0 310.3L194.3 308.8L197.9 311.5L198.3 310.6L195.9 306.3L198.7 305.4L202.8 310.1L205.2 309.9L206.9 307.7L203.5 308.8L201.3 307.3L199.8 304.1L200.3 304.0L200.7 304.0L201.1 304.0L202.9 304.4L203.1 304.5L203.2 304.5L203.2 304.5L203.2 304.5L203.3 304.5L203.3 304.5L203.3 304.5L203.4 304.5L203.5 304.5L203.5 304.6L203.5 304.6L203.6 304.6L203.6 304.6L203.7 304.6L203.7 304.6L203.7 304.6L203.8 304.6L203.8 304.6L203.9 304.6L203.9 304.6L204.0 304.6L204.1 304.6L204.1 304.6L204.2 304.6L204.3 304.6L204.3 304.6L204.3 304.6L204.4 304.6L204.4 304.6L204.5 304.6L204.5 304.6L204.5 304.6L204.6 304.6L204.6 304.6L204.7 304.6L204.7 304.5L204.7 304.5L204.8 304.5L204.9 304.5L204.9 304.5L204.9 304.5L205.0 304.5L205.0 304.5L205.1 304.5L205.1 304.4L205.1 304.4L205.2 304.4L205.2 304.4L206.7 304.1L208.1 304.1L209.9 304.5L210.4 304.7L212.5 306.3L213.8 308.5L213.8 308.6L213.8 308.6L213.8 308.6L213.8 308.7L213.8 308.7L213.9 308.7L213.9 308.8L213.9 308.8L213.9 308.8L213.9 308.9L213.9 308.9L213.9 308.9L214.0 309.0L214.0 309.0L214.0 309.0L214.0 309.1L214.0 309.1L214.1 309.1L214.1 309.2L214.2 309.3L214.2 309.3L214.2 309.4L214.2 309.4L214.3 309.4L214.3 309.5L214.4 309.5L214.4 309.6L214.4 309.7L214.5 309.7L214.5 309.7L214.5 309.7L214.5 309.8L214.6 309.8L214.6 309.8L214.7 309.9L214.7 309.9L214.8 310.0L214.9 310.0L214.9 310.1L214.9 310.1L215.0 310.1L215.0 310.1L215.0 310.2L215.1 310.2L215.1 310.2L215.2 310.3L215.2 310.3L215.3 310.3L215.3 310.3L215.3 310.3L215.3 310.4L215.4 310.4L215.4 310.4L215.4 310.4L215.5 310.4L215.5 310.4L215.5 310.5L215.6 310.5L215.6 310.5L215.7 310.5L215.7 310.5L215.8 310.5L215.9 310.6L215.9 310.6L215.9 310.6L216.0 310.6L216.0 310.6L216.0 310.6L216.1 310.6L216.1 310.7L216.1 310.7L216.2 310.7L216.2 310.7L216.3 310.7L216.3 310.7L216.4 310.7L216.4 310.7L216.4 310.7L216.5 310.7L216.5 310.7L216.5 310.7L216.6 310.7L216.7 310.8L216.7 310.8L216.8 310.8L216.8 310.8L217.1 310.8L217.2 310.8L217.4 310.8L217.4 310.8L218.1 310.8L218.1 310.8L220.1 311.3L221.9 312.4L223.2 313.9L223.3 314.1L223.3 314.1L223.4 314.2L223.4 314.2L223.4 314.2L223.4 314.2L223.5 314.3L223.5 314.3L223.5 314.3L223.6 314.5L223.7 314.5L223.7 314.5L223.7 314.6L223.8 314.6L223.8 314.6L223.8 314.7L223.8 314.7L224.0 314.8L224.0 314.9L224.1 314.9L224.1 314.9L224.1 314.9L224.2 315L224.2 315.0L224.2 315.0L224.3 315.1L224.4 315.1L225.6 316.1L225.6 316.1L227.0 318.0L227.6 320.3L227.6 320.6L227.4 322.4L226.5 324.6L224.8 326.3L222.7 327.3L222.6 327.3L222.6 327.3L222.5 327.3L222.4 327.4L222.4 327.4L222.3 327.4L222.3 327.4L222.3 327.4L222.2 327.5L222.2 327.5L222.1 327.5L222.1 327.5L222.0 327.5L222.0 327.6L222.0 327.6L222 327.6L221.9 327.6L221.9 327.6L221.8 327.7L221.8 327.7L221.6 327.8L221.6 327.8L221.6 327.8L221.5 327.9L221.5 327.9L221.5 327.9L221.4 327.9L221.4 328.0L221.3 328.0L221.3 328.0L221.3 328.1L221.2 328.1L221.2 328.1L221.2 328.2L221.1 328.2L221.1 328.2L221.1 328.2L221.1 328.3L221.0 328.3L221.0 328.3L221.0 328.4L220.9 328.4L220.9 328.4L220.9 328.5L220.9 328.5L220.8 328.5L220.8 328.6L220.8 328.6L220.8 328.6L220.7 328.7L220.7 328.8L220.6 328.8L220.6 328.9L220.6 328.9L220.6 328.9L220.6 329.0L220.6 329.0L220.5 329.0L220.5 329.1L220.5 329.1L220.5 329.1L220.5 329.2L220.4 329.2L220.4 329.3L220.4 329.3L220.4 329.4L220.4 329.4L220.3 329.6L220.3 329.6L220.3 329.7L220.3 329.7L220.3 329.8L220.3 329.8L220.2 329.8L220.2 329.9L220.2 329.9L220.2 329.9L220.2 330.0L220.2 330.0L220.2 330.0L220.2 330.1L220.2 330.1L220.2 330.2L220.2 330.2L220.2 330.3L220.2 330.3L220.2 330.4L220.2 330.4L220.2 330.7L220.2 330.7L220.2 330.8L220.2 330.8L220.2 330.9L220.2 330.9L220.2 330.9L220.2 331.0L220.2 331.0L220.2 331.0L220.2 331.1L220.2 331.1L220.2 331.2L220.2 331.2L220.2 331.3L220.3 331.4L220.3 331.4L220.3 331.4L220.3 331.5L220.4 331.7L220.4 331.8L220.4 331.8L220.6 332.3L220.6 332.3L220.9 334.3L222.9 334.6L222.9 334.6L224.5 335.4L225.9 336.6L225.9 336.6L226.9 338.1L227.5 339.9L227.6 340.8L227.6 340.8L227.5 342.2L227.5 342.2L226.8 344.2L225.4 346.0L223.5 347.2L221.3 347.7L218.5 347.3L216.7 346.3L215.3 344.8L214.4 343.0L214.4 343L214.2 341.0L212.2 340.7L212.2 340.7L211.9 340.6L211.8 340.6L211.8 340.6L211.7 340.5L211.7 340.5L211.6 340.5L211.6 340.5L211.6 340.5L211.5 340.5L211.4 340.5L211.4 340.5L211.3 340.5L211.3 340.5L211.3 340.5L211.2 340.4L211.2 340.4L211.1 340.4L211.1 340.4L211.0 340.4L211.0 340.4L210.9 340.4L210.9 340.4L210.7 340.4L210.7 340.4L210.6 340.4L210.6 340.4L210.5 340.4L210.5 340.4L210.5 340.4L210.4 340.4L210.3 340.4L210.3 340.5L210.2 340.5L210.2 340.5L210.2 340.5L210.1 340.5L210.0 340.5L209.9 340.5L209.9 340.5L209.8 340.6L209.8 340.6L209.7 340.6L209.7 340.6L209.6 340.6L207.4 341.0 Z M 164.9 364.1L164.7 364.1L162.8 362.9L162.8 362.9L161.4 361.3L160.5 359.2L160.4 358.0L160.4 358.0L160.7 355.9L161.5 354.0L163.0 352.5L163.5 352.2L165.2 352.2L166.9 351.1L168.5 351.2L170.1 351.8L171.8 353.0L173.0 354.6L173.7 356.5L173.7 356.5L173.8 357.9L173.6 359.4L173.6 359.4L172.7 361.5L172.7 361.5L172.8 361.6L174.7 362.7L174.7 362.7L175.0 362.9L175.0 362.9L175.7 363.8L176.9 363.7L177.0 363.7L177.0 363.7L177.1 363.7L177.1 363.7L177.1 363.7L177.3 363.7L177.3 363.7L177.4 363.7L177.4 363.7L177.5 363.7L177.5 363.7L177.5 363.7L177.6 363.7L177.6 363.7L177.6 363.7L177.7 363.7L177.7 363.7L177.8 363.7L177.8 363.7L177.8 363.7L177.9 363.7L177.9 363.7L178.0 363.7L178.0 363.6L178.1 363.6L178.1 363.6L178.2 363.6L178.2 363.6L178.2 363.6L178.3 363.6L178.3 363.6L178.4 363.5L178.4 363.5L178.4 363.5L178.5 363.5L178.5 363.5L178.5 363.5L178.6 363.5L178.6 363.4L178.6 363.4L178.7 363.4L178.7 363.4L178.7 363.4L178.8 363.4L178.8 363.3L178.8 363.3L178.9 363.3L178.9 363.3L179.1 363.2L179.1 363.2L179.1 363.1L179.2 363.1L179.2 363.1L179.2 363.1L179.3 363.0L179.3 363.0L179.3 363.0L179.4 363.0L179.4 362.9L179.5 362.9L179.5 362.8L179.5 362.8L179.5 362.8L179.6 362.8L179.6 362.7L179.6 362.7L179.7 362.7L179.7 362.7L179.7 362.6L179.7 362.6L179.8 362.6L179.8 362.6L179.8 362.5L179.8 362.5L179.9 362.4L179.9 362.4L179.9 362.4L179.9 362.4L180.0 362.3L180.0 362.3L180.0 362.3L180.0 362.2L180.1 362.2L180.1 362.1L180.1 362.1L180.1 362.0L180.2 362.0L180.2 362.0L180.2 361.9L180.2 361.9L180.2 361.9L180.2 361.8L180.3 361.8L180.3 361.7L180.3 361.7L180.3 361.7L180.3 361.6L180.3 361.6L180.4 361.6L180.4 361.5L180.4 361.5L180.4 361.4L180.4 361.3L180.5 361.3L180.5 361.3L180.5 361.2L180.5 361.2L180.5 361.1L180.5 361.0L180.5 361.0L180.5 361.0L180.5 360.9L180.5 360.9L180.5 360.8L180.6 360.8L180.6 360.7L180.6 360.7L180.6 360.7L180.6 360.6L181.2 358.3L182.5 356.4L184.5 355.0L186.9 354.4L187.5 354.4L189.5 354.8L189.5 354.8L189.6 354.9L189.7 354.9L189.7 354.9L189.8 354.9L189.8 354.9L190.0 354.9L190.0 354.9L190.0 355.0L190.1 355.0L190.1 355.0L190.2 355.0L190.2 355.0L190.3 355.0L190.3 355.0L190.4 355.0L190.4 355.0L190.4 355.0L190.5 355.0L190.6 355.0L190.7 355.0L190.7 355.0L190.8 355.0L190.9 355.0L190.9 355.0L190.9 355.0L191.0 355.0L191.0 355.0L191.1 355.0L191.1 355.0L191.2 355.0L191.2 355.0L191.3 354.9L191.5 354.9L191.5 354.9L191.5 354.9L191.6 354.9L191.6 354.9L191.8 354.8L193.4 354.5L195.1 354.5L195.1 354.5L197.3 355.3L199.1 356.8L200.3 358.8L200.3 358.8L200.3 358.9L200.3 358.9L200.3 358.9L200.4 359.0L200.4 359.1L200.5 359.2L200.5 359.2L200.5 359.2L200.5 359.3L200.5 359.3L200.5 359.3L200.6 359.4L200.6 359.5L200.7 359.5L200.7 359.6L200.7 359.6L200.7 359.6L200.8 359.7L200.8 359.7L200.8 359.8L200.9 359.8L200.9 359.9L201.0 359.9L201.0 360.0L201.1 360.0L201.1 360.0L201.1 360.1L201.1 360.1L201.2 360.1L201.2 360.2L201.3 360.2L201.3 360.2L201.3 360.2L201.4 360.3L201.4 360.3L201.4 360.3L201.5 360.3L201.5 360.4L201.6 360.4L201.6 360.4L201.6 360.4L201.6 360.5L201.7 360.5L201.7 360.5L201.8 360.5L201.8 360.6L201.8 360.6L201.9 360.6L201.9 360.6L201.9 360.6L202.0 360.6L202.0 360.7L202.1 360.7L202.1 360.7L202.1 360.7L202.2 360.7L202.2 360.8L202.3 360.8L202.3 360.8L202.4 360.8L202.5 360.8L202.5 360.8L202.5 360.9L202.6 360.9L202.6 360.9L202.7 360.9L202.7 360.9L202.8 360.9L202.8 360.9L202.9 360.9L202.9 360.9L203.0 360.9L203.0 361L203.0 361.0L203.1 361.0L203.1 361.0L203.1 361.0L203.2 361.0L203.2 361.0L203.3 361.0L203.3 361.0L203.4 361.0L203.5 361.0L203.6 361.0L203.6 361.0L203.6 361.0L203.7 361.0L203.7 361.0L203.7 361.0L203.8 361.0L203.8 361.0L203.8 361L203.9 360.9L203.9 360.9L204.0 360.9L204.0 360.9L204.0 360.9L204.1 360.9L204.1 360.9L204.2 360.9L204.2 360.9L204.3 360.9L204.3 360.9L204.4 360.8L204.4 360.8L204.4 360.8L204.5 360.8L204.5 360.8L204.6 360.8L204.6 360.8L204.6 360.8L204.7 360.7L204.7 360.7L204.8 360.7L204.8 360.7L204.8 360.7L204.9 360.7L204.9 360.6L204.9 360.6L205.0 360.6L205.0 360.6L205.1 360.5L205.1 360.5L205.1 360.5L205.3 360.4L205.4 360.4L205.4 360.4L205.4 360.3L205.5 360.3L205.5 360.3L205.5 360.2L205.6 360.2L205.6 360.2L205.8 360.1L205.9 359.9L205.9 359.9L207.4 358.7L209.2 358.0L209.2 358.0L210.6 357.8L210.8 357.8L212.4 358.0L214.3 358.8L215.9 360.2L217.0 362.0L217.5 364.0L217.5 364.0L217.5 364.3L217.3 366.3L216.4 368.1L215.1 369.7L215.1 369.7L214.9 369.8L214.8 369.9L214.8 370.0L214.7 370.0L214.7 370.1L214.6 370.1L214.6 370.1L214.6 370.2L214.6 370.2L214.5 370.3L214.5 370.3L214.5 370.3L214.5 370.4L214.4 370.4L214.4 370.5L214.4 370.5L214.4 370.5L214.3 370.6L214.3 370.7L214.3 370.7L214.2 370.7L214.2 370.8L214.2 370.9L214.2 370.9L214.1 371.0L214.1 371.0L214.1 371.0L214.1 371.1L214.1 371.2L214.0 371.2L214.0 371.3L214.0 371.4L214.0 371.4L214.0 371.4L214.0 371.5L214.0 371.5L213.9 371.6L213.9 371.7L213.9 371.7L213.9 371.8L213.9 371.8L213.9 371.9L213.9 371.9L213.9 372.0L213.9 372.0L213.9 372.1L213.9 372.1L213.9 372.2L213.9 372.4L213.9 372.4L213.9 372.5L213.9 372.5L213.9 372.5L213.9 372.6L213.9 372.6L213.9 372.7L213.9 372.7L213.9 372.7L213.9 372.8L213.9 372.8L213.9 372.9L213.9 372.9L214.0 373.0L214.0 373.1L214.1 374.0L213.9 376.4L213.1 378.2L211.9 379.6L211.9 379.6L211.8 379.7L211.8 379.7L211.7 379.8L211.6 379.9L211.6 379.9L211.6 379.9L211.5 380.0L211.5 380.0L211.5 380.1L211.4 380.1L211.4 380.1L211.4 380.2L211.4 380.2L211.4 380.2L211.3 380.3L211.2 380.4L211.2 380.4L211.2 380.5L211.2 380.5L211.1 380.6L211.1 380.6L211.1 380.7L211.1 380.7L211.1 380.7L211.1 380.8L211.0 380.8L211.0 380.9L211.0 380.9L211.0 380.9L211.0 381.0L211.0 381.0L210.9 381.1L210.9 381.2L210.9 381.2L210.9 381.3L210.8 381.4L210.8 381.4L210.8 381.5L210.8 381.5L210.8 381.6L210.8 381.6L210.8 381.6L210.8 381.7L210.8 381.8L210.8 381.8L210.8 381.8L210.8 381.9L210.7 382.4L210.7 382.5L210.7 382.5L210.7 382.5L210.7 382.6L210.7 382.7L210.7 382.8L210.7 382.8L210.7 382.9L210.6 383.0L210.6 383.0L210.7 383.0L210.7 383.2L210.7 383.2L210.7 383.2L210.7 383.3L210.7 383.4L210.7 383.4L210.7 383.4L210.7 383.5L210.7 383.5L210.7 383.6L210.8 384.7L210.8 384.7L210.7 385.8L210.7 385.8L210.7 385.9L210.7 385.9L210.7 386.0L210.7 386.0L210.7 386.1L210.7 386.1L210.7 386.1L210.7 386.2L210.7 386.3L210.6 386.3L210.6 386.4L210.7 386.4L210.7 386.5L210.7 386.5L210.7 386.6L210.7 386.6L210.7 386.7L210.7 386.7L210.7 386.8L210.7 386.8L210.7 386.9L210.7 386.9L210.8 388.1L210.8 388.3L210.8 388.3L210.7 389.1L210.7 389.2L210.7 389.2L210.7 389.3L210.7 389.3L210.7 389.4L210.7 389.4L210.7 389.5L210.7 389.5L210.7 389.5L210.7 389.7L210.6 389.7L210.6 389.7L210.7 389.8L210.7 389.9L210.7 389.9L210.7 389.9L210.7 390.0L210.7 390.0L210.7 390.1L210.7 390.2L210.7 390.2L210.7 390.2L210.7 390.3L210.8 391.5L210.7 392.5L210.7 392.5L210.7 392.6L210.7 392.6L210.7 392.7L210.7 392.7L210.7 392.8L210.7 392.8L210.7 392.9L210.7 392.9L210.7 393.0L210.6 393.1L210.6 393.1L210.7 393.1L210.7 393.2L210.7 393.3L210.7 393.3L210.7 393.4L210.7 393.4L210.7 393.5L210.7 393.6L210.7 393.6L210.7 393.7L210.8 395.3L210.7 395.5L210.5 396.7L209.8 398.2L208.8 399.5L207.6 400.5L206.1 401.2L203.9 401.5L203.7 401.5L203.7 401.5L203.0 401.4L202.9 401.4L202.9 401.4L202.8 401.4L202.7 401.3L202.7 401.3L202.6 401.3L202.6 401.3L202.6 401.3L202.5 401.3L202.3 401.3L202.2 401.3L202.2 401.3L202.2 401.3L202.1 401.3L202.1 401.3L202.0 401.3L201.9 401.4L201.9 401.4L201.9 401.4L201.8 401.4L200.6 401.5L200.0 401.4L198.2 401.0L196.5 400.0L195.2 398.6L194.3 396.8L194.0 394.9L194.0 394.9L194.0 394.4L194.1 393.7L194.1 393.6L194.1 393.6L194.1 393.5L194.1 393.4L194.1 393.3L194.1 393.3L194.1 393.3L194.1 393.2L194.1 393.2L194.1 393.2L194.1 393.0L194.1 392.9L194.1 392.9L194.1 392.9L194.1 392.8L194.1 392.8L194.1 392.7L194.1 392.6L194.1 392.5L194.1 392.5L194.0 391.6L194.1 390.3L194.1 390.2L194.1 390.2L194.1 390.0L194.1 390.0L194.1 389.9L194.1 389.9L194.1 389.9L194.1 389.8L194.1 389.8L194.1 389.6L194.1 389.6L194.1 389.5L194.1 389.5L194.1 389.5L194.1 389.4L194.1 389.4L194.1 389.3L194.1 389.2L194.1 389.2L194.1 389.1L194.0 388.2L198.4 387.8L200.1 381.5L213.6 366.8L207.1 372.6L205.9 373.9L196.6 377.1L194.9 380.7L193.7 380.8L193.7 380.8L193.7 380.7L193.7 380.6L193.6 380.6L193.6 380.5L193.6 380.5L193.6 380.5L193.6 380.4L193.5 380.3L193.4 380.3L193.4 380.2L193.4 380.2L193.4 380.2L193.3 380.1L193.3 380.1L193.3 380.0L193.2 379.9L193.1 379.9L193.1 379.8L193.1 379.8L193.1 379.8L193.0 379.7L193.0 379.7L193.0 379.7L192.9 379.7L192.9 379.6L191.8 378.4L191.1 377.0L191.0 376.9L191.0 376.9L191.0 376.8L191.0 376.8L191.0 376.7L191.0 376.7L190.9 376.6L190.9 376.6L190.9 376.6L190.9 376.5L190.9 376.5L190.8 376.5L190.8 376.4L190.7 376.2L190.7 376.2L190.6 376.2L190.6 376.1L190.6 376.1L190.5 376.0L190.5 376.0L190.5 376.0L190.5 375.9L190.4 375.9L190.4 375.8L190.4 375.8L190.3 375.8L190.3 375.8L190.3 375.7L190.3 375.7L190.2 375.7L190.2 375.7L190.2 375.6L190.1 375.6L190.1 375.6L190.1 375.6L190.1 375.5L190.0 375.5L190.0 375.5L189.9 375.5L189.9 375.4L189.9 375.4L189.8 375.4L189.8 375.3L189.7 375.3L189.6 375.2L189.6 375.2L189.6 375.2L189.5 375.2L189.5 375.2L189.5 375.1L189.4 375.1L189.4 375.1L189.4 375.1L189.3 375.1L189.2 375.0L189.2 375.0L189.2 375.0L189.1 375.0L189.1 375.0L188.9 374.9L188.9 374.9L188.8 374.9L188.7 374.9L188.7 374.9L188.7 374.9L188.5 374.8L188.5 374.8L188.5 374.8L188.4 374.8L188.4 374.8L188.3 374.8L188.3 374.8L188.2 374.8L188.2 374.8L188.2 374.8L188.1 374.8L188.1 374.8L188.0 374.8L188.0 374.8L187.8 374.8L187.8 374.8L187.8 374.8L187.7 374.8L187.7 374.8L187.6 374.8L187.6 374.8L187.6 374.8L187.5 374.8L187.5 374.8L187.4 374.8L187.4 374.8L187.3 374.8L187.3 374.8L187.2 374.8L187.1 374.9L187.1 374.9L187.1 374.9L187.0 374.9L187.0 374.9L187.0 374.9L186.9 374.9L186.9 374.9L186.8 374.9L186.8 374.9L186.8 375.0L186.7 375.0L186.7 375.0L186.6 375.0L186.6 375.0L186.5 375.1L186.5 375.1L186.5 375.1L186.4 375.1L186.4 375.1L186.4 375.1L186.3 375.2L186.3 375.2L186.3 375.2L186.2 375.2L186.2 375.2L186.2 375.2L186.1 375.3L186.1 375.3L186.0 375.3L186.0 375.4L185.9 375.4L185.9 375.4L185.8 375.5L185.8 375.5L185.8 375.5L185.8 375.5L185.6 375.6L185.6 375.7L185.6 375.7L185.5 375.7L185.5 375.8L185.5 375.8L185.4 375.9L183.7 377.0L179.8 371.9L171.5 374.9L171.1 374.5L170.4 374.5L169.5 374.0L169.3 372.0L173.4 371.3L174.4 369.7L170.0 369.5L166.1 367.2L163.8 367.2L163.9 366.3L163.9 366.3L164.8 364.2 Z M 159.5 255.4L159.2 255.2L157.7 253.3L157.1 251.0L157.1 251.0L157.1 249.7L157.6 247.7L158.6 245.9L160.2 244.5L160.3 244.5L160.3 244.5L160.3 244.5L160.4 244.5L160.4 244.4L160.4 244.4L160.5 244.4L160.5 244.4L160.5 244.3L160.5 244.3L160.6 244.3L160.6 244.3L160.6 244.3L160.7 244.2L160.7 244.2L160.7 244.2L160.8 244.1L160.8 244.1L160.9 244.1L160.9 244.0L160.9 244.0L160.9 244.0L161.0 243.9L161.0 243.9L161.0 243.9L161.1 243.8L161.1 243.8L161.1 243.8L161.2 243.7L161.2 243.7L161.2 243.6L161.2 243.6L161.3 243.6L161.3 243.6L161.3 243.5L161.3 243.5L161.4 243.4L162.9 241.7L164.8 240.6L167.0 240.2L168.2 240.3L168.3 240.3L168.3 240.3L168.4 240.3L168.4 240.3L168.4 240.3L168.5 240.3L168.5 240.3L168.6 240.3L168.6 240.3L168.7 240.3L168.7 240.3L168.9 240.3L168.9 240.3L169.0 240.3L169.0 240.3L169.1 240.3L169.1 240.3L169.1 240.3L169.2 240.3L169.2 240.3L169.2 240.3L169.3 240.3L169.4 240.3L169.7 240.2L170.4 240.2L170.6 240.2L170.6 240.2L170.7 240.2L170.7 240.2L170.7 240.2L170.8 240.2L170.8 240.2L170.8 240.2L170.9 240.2L170.9 240.2L171.0 240.1L171.0 240.1L171.1 240.1L171.1 240.1L171.2 240.1L171.2 240.1L171.3 240.1L171.3 240.1L171.4 240.1L171.4 240.1L171.4 240.1L171.6 240.0L171.7 240.0L171.7 240.0L171.7 239.9L171.8 239.9L171.8 239.9L171.9 239.9L171.9 239.8L172.0 239.8L172.0 239.8L172.0 239.8L172.1 239.8L172.1 239.8L172.2 239.7L172.2 239.7L172.2 239.7L172.3 239.7L172.3 239.6L172.3 239.6L172.4 239.6L172.4 239.6L172.4 239.6L172.5 239.5L172.5 239.5L172.5 239.5L172.6 239.5L172.6 239.4L172.6 239.4L172.7 239.4L172.7 239.3L172.7 239.3L172.8 239.3L172.8 239.3L172.8 239.2L172.9 239.2L172.9 239.1L172.9 239.1L172.9 239.1L173.0 239.1L173.1 239.0L173.1 238.9L173.1 238.9L173.1 238.9L173.2 238.8L173.2 238.8L173.2 238.8L173.2 238.8L173.2 238.7L173.3 238.7L173.3 238.6L173.3 238.6L173.3 238.6L173.4 238.5L173.4 238.5L173.4 238.4L173.4 238.4L173.5 238.4L173.5 238.3L173.5 238.3L173.5 238.3L173.5 238.2L173.6 238.1L173.6 238.1L173.6 238.1L173.6 238.0L173.6 238.0L173.7 237.8L173.7 237.8L173.7 237.7L173.7 237.7L173.7 237.6L173.7 237.6L173.7 237.6L173.8 237.5L173.8 237.5L173.8 237.4L173.8 237.3L173.8 237.3L173.8 237.3L173.8 237.2L173.8 237.2L173.8 237.2L173.8 237.1L173.8 237.1L173.8 237.0L173.8 236.9L173.8 236.9L173.8 236.8L173.8 236.4L174.2 234.5L175.2 232.8L176.6 231.4L178.4 230.5L178.4 230.5L178.4 230.5L188.5 227.1L190.7 226.8L190.7 226.8L192.9 227.1L194.9 228.2L196.3 229.9L197.2 232.0L197.2 232.0L197.3 232.7L197.3 232.9L197.3 233.0L197.3 233.1L197.3 233.1L197.4 233.1L197.4 233.2L197.4 233.2L197.4 233.3L197.4 233.3L197.4 233.4L197.4 233.4L197.4 233.5L197.4 233.5L197.4 233.6L197.5 233.6L197.5 233.7L197.5 233.8L197.5 233.8L197.5 233.8L197.6 233.9L197.6 233.9L197.6 233.9L197.6 234.0L197.6 234.0L197.6 234.1L197.7 234.1L197.7 234.1L197.7 234.2L197.7 234.2L197.7 234.2L197.7 234.3L197.8 234.3L197.8 234.4L197.8 234.4L197.9 234.5L197.9 234.5L197.9 234.6L197.9 234.6L198.0 234.6L198.0 234.6L198.0 234.7L198.0 234.7L198.0 234.7L198.1 234.8L198.1 234.8L198.1 234.8L198.1 234.8L198.2 234.9L198.2 235.0L198.3 235.0L198.3 235.0L198.3 235.0L198.3 235.1L198.4 235.1L198.4 235.1L198.5 235.2L199.8 236.8L200.6 238.8L200.6 238.8L200.7 240.5L200.7 240.9L200.2 242.9L199.1 244.6L197.5 245.9L197.5 245.9L197.4 246.0L197.4 246.0L197.4 246.0L197.3 246.0L197.3 246.0L197.3 246.1L197.2 246.1L197.2 246.1L197.2 246.1L197.2 246.2L197.1 246.3L197.0 246.3L197.0 246.3L197.0 246.3L196.9 246.3L196.9 246.4L196.9 246.4L196.9 246.4L196.8 246.4L196.8 246.5L196.8 246.5L196.7 246.6L196.7 246.6L196.7 246.6L196.6 246.7L196.6 246.7L196.6 246.7L196.6 246.8L196.6 246.8L188.8 246.1L187.7 250.4L183.5 251.3L180.1 254.3L176.4 253.9L171.9 250.6L171.0 248.7L170.2 250.3L171.8 256.2L170.9 257.4L168.3 256.3L166.4 253.3L161.1 249.8L158.6 252.4 Z M 195.3 248.2L194.4 249.1L194.3 249.2L194.3 249.2L194.3 249.2L194.2 249.2L194.2 249.3L194.1 249.3L194.1 249.3L194.1 249.3L194.1 249.4L194.0 249.4L194.0 249.4L194.0 249.4L193.9 249.5L193.9 249.5L193.9 249.5L193.8 249.6L193.8 249.6L193.8 249.6L193.8 249.7L193.7 249.7L193.7 249.7L193.7 249.8L193.6 249.8L193.6 249.8L193.6 249.8L193.6 249.9L193.5 249.9L193.5 249.9L193.5 250.0L193.5 250.0L193.5 250.0L193.4 250.1L193.4 250.1L193.3 250.2L193.3 250.2L193.3 250.3L193.3 250.3L193.3 250.3L193.2 250.4L193.2 250.4L193.2 250.4L193.2 250.5L193.2 250.5L193.1 250.6L193.1 250.6L193.1 250.6L193.1 250.7L193.1 250.7L193.1 250.7L193.1 250.8L193.0 251.0L193.0 251.0L193.0 251.1L193.0 251.1L192.9 251.1L192.9 251.2L192.9 251.3L192.9 251.3L192.9 251.4L192.9 251.5L192.9 251.5L192.9 251.5L192.9 251.6L192.9 251.6L192.9 251.6L192.9 251.7L192.9 251.7L192.9 251.8L192.8 251.8L192.8 251.9L192.8 251.9L192.8 252.0L192.8 252.1L192.8 252.1L192.9 252.2L192.9 252.2L192.9 252.2L192.9 252.3L192.9 252.3L192.9 252.3L192.9 252.4L192.9 252.4L192.9 252.5L192.9 252.5L192.9 252.5L192.9 252.6L192.9 252.6L192.9 252.7L193 252.8L193.0 252.8L193.0 252.9L193.0 252.9L193.0 252.9L193.0 253.1L193.3 254.2L194.3 254.7L194.3 254.7L195.8 256.0L196.8 257.6L197.3 259.4L197.3 261.2L197.0 262.6L197.0 262.6L196.4 263.7L197.0 264.8L197.0 264.9L197.0 264.9L197.4 267.0L197.4 267.0L197.1 269.0L196.2 270.8L194.9 272.3L193.1 273.3L192.1 273.5L191.8 272.9L191.3 270.2L187.0 264.0L192.8 250.2L194.9 248.2 Z M 164.8 327.6L164.1 326.4L163.8 324.5L163.8 323.3L163.8 323.1L163.8 323.0L163.9 323.0L163.9 323.0L163.9 322.9L163.9 322.9L169.5 318.9L170.2 315.9L173.3 312.5L181.0 309.7L183.8 309.9L183.9 310.9L183.9 311.2L183.4 313.2L182.4 315.0L180.8 316.4L180.7 316.5L180.7 316.5L180.7 316.5L180.7 316.5L180.6 316.5L180.6 316.6L180.5 316.6L180.5 316.7L180.4 316.7L180.4 316.8L180.3 316.8L180.3 316.9L180.2 316.9L180.2 316.9L180.2 317.0L180.1 317.0L180.1 317.0L180.1 317.1L180.0 317.1L180.0 317.2L180.0 317.2L179.9 317.2L179.9 317.2L179.9 317.3L179.9 317.3L179.8 317.4L179.8 317.4L179.7 317.6L179.7 317.6L179.7 317.7L179.6 317.7L179.6 317.7L179.6 317.8L179.6 317.8L179.6 317.8L179.6 317.9L179.5 317.9L179.5 318.0L179.5 318.0L179.5 318.0L179.5 318.1L179.5 318.1L179.4 318.2L179.4 318.2L179.4 318.2L179.4 318.3L179.4 318.4L179.4 318.4L179.3 318.5L179.3 318.6L179.3 318.6L179.3 318.7L179.3 318.7L179.3 318.7L179.3 318.8L179.3 318.8L179.3 318.9L179.3 318.9L179.3 318.9L179.3 319.0L179.3 319.0L179.3 319.0L179.3 319.1L179.3 319.1L179.3 319.4L179.3 319.4L179.3 319.4L179.3 319.5L179.3 319.5L179.3 319.6L179.3 319.6L179.3 319.6L179.3 319.7L179.3 319.7L179.3 319.7L179.3 319.8L179.3 319.8L179.3 319.9L179.3 319.9L179.3 320.0L179.3 320.0L179.3 320.0L179.4 320.1L179.4 320.1L179.4 320.1L179.4 320.2L179.4 320.3L179.4 320.3L179.4 320.4L179.5 320.5L179.5 320.5L179.5 320.6L179.6 320.6L179.6 320.7L179.6 320.7L179.6 320.8L179.6 320.8L179.7 320.9L179.7 320.9L180.5 323.9L180.5 323.9L180.4 325.5L179.6 327.7L178.0 329.4L176.2 330.5L175.8 330.6L173.9 327.7L174.4 323.4L168.0 324.3L165.1 327.6 Z M 156.0 196.7L154.6 198.4L152.6 199.5L150.5 199.9L148.2 199.5L147.7 199.3L148.3 194.7L151.7 190.8L155.9 190.9L158.3 188.3L159.2 186.3L156.3 190.2L152.3 189.1L152.8 187.6L155.5 186.4L153.4 186.7L152.8 185.2L154.2 183.1L154.6 183.1L156.8 183.8L158.6 185.2L159.8 187.1L160.4 189.3L160.4 189.3L160.4 190.0L160.0 192.1L158.9 194.1L157.2 195.5L157.1 195.5L157.1 195.6L157.0 195.6L157.0 195.6L157.0 195.7L156.9 195.7L156.9 195.7L156.9 195.7L156.8 195.8L156.8 195.8L156.8 195.8L156.7 195.8L156.7 195.9L156.6 195.9L156.6 196.0L156.6 196.0L156.5 196.0L156.5 196.0L156.5 196.1L156.4 196.1L156.4 196.2L156.4 196.2L156.3 196.2L156.3 196.3L156.3 196.3L156.3 196.3L156.2 196.4L156.2 196.4L156.2 196.4L156.2 196.5L156.1 196.5L156.1 196.6L156.1 196.6L156.1 196.6 Z M 147.0 198.9L146.8 198.7L146.8 197.0L147.5 197.3 Z M 143.7 194.2L143.6 193.3L143.7 192.1L143.7 192.0L143.7 192.0L143.7 191.9L143.7 191.9L143.7 191.8L143.7 191.8L143.7 191.7L143.7 191.7L143.7 191.7L143.7 191.6L143.7 191.6L143.7 191.3L143.7 191.3L143.7 191.3L143.7 191.2L143.7 191.2L143.7 191.2L143.7 191.1L143.7 191.0L143.7 191.0L143.7 190.9L143.7 190.9L143.6 190.0L143.6 189.8L143.7 188.8L143.7 188.8L143.9 188.0L147.0 189.9L146.7 191.7 Z M 144.3 186.9L145.4 185.2L147.0 183.9L148.7 183.3L150.5 183.1L151.4 183.2L151.5 183.2L151.5 183.2L151.6 183.2L151.7 183.2L151.7 183.2L151.8 183.2L151.8 183.2L151.8 183.2L146.5 188.3 Z M 246.9 401.8L247.2 403.9L245.7 403.5 Z M 291.5 380.3L290.4 381.0L287.3 380.4L286.8 377.9L290.5 378.7 Z M 164.6 308.8L164.8 311.0L162.6 309.3L162.6 307.8 Z M 176.8 308.9L169.7 315.4L166.9 313.3L165.1 309.7L165.2 305.3L168.5 304.1L171.6 305.0L172.8 308.1 Z M 148.0 194.8L147.2 196.8L146.8 195.5 Z M 149.8 191.5L148.9 192.7L148.6 191.6 Z M 149.8 191.5 "/>
<path style=" stroke:none;fill-rule:nonzero;fill:rgb(77.6%,78.8%,62.3%);fill-opacity:1;" d="M 45.3 275.9L45.4 275.7L46.5 273.8L47.2 273.3L47.3 273.4L48.0 275.1L50.6 276.2L49.2 272.5L49.4 272.0L50.2 271.6L50.3 271.6L50.4 271.6L50.4 271.6L50.4 271.6L50.5 271.6L50.5 271.6L50.6 271.5L50.7 271.5L50.7 271.5L50.8 271.5L50.8 271.5L50.8 271.4L50.9 271.4L50.9 271.4L50.9 271.4L51.0 271.4L51.0 271.4L51.1 271.3L51.1 271.3L51.1 271.3L51.2 271.3L51.2 271.3L51.2 271.2L51.4 271.2L51.4 271.1L51.4 271.1L51.5 271.1L51.5 271.1L51.5 271.0L51.6 271.0L51.6 271.0L51.7 270.9L51.7 270.9L51.8 270.8L52.0 270.7L52.0 270.6L52.0 270.6L52.1 270.5L52.1 270.5L52.1 270.5L52.2 270.4L52.2 270.4L52.2 270.4L52.2 270.3L52.3 270.3L52.3 270.3L52.3 270.2L52.3 270.2L52.3 270.2L52.4 270.1L52.4 270.1L52.4 270.1L52.4 270.0L52.5 270.0L52.5 269.9L52.5 269.9L52.5 269.9L52.5 269.8L52.6 269.8L52.6 269.8L52.6 269.7L52.6 269.7L52.6 269.7L52.6 269.6L52.7 269.6L52.8 269.3L53.8 267.7L55.1 266.5L56.8 265.7L58.6 265.4L58.9 265.4L59.0 265.4L59.1 265.3L59.1 265.3L59.1 265.3L59.2 265.3L59.2 265.3L59.2 265.3L59.3 265.3L59.4 265.3L59.4 265.3L59.5 265.3L59.5 265.3L59.5 265.3L59.7 265.3L59.8 265.3L59.8 265.2L59.8 265.2L59.9 265.2L59.9 265.2L60.1 265.2L60.1 265.1L60.1 265.1L60.2 265.1L60.2 265.1L60.2 265.1L60.3 265.1L60.3 265.0L60.4 265.0L60.4 265.0L60.4 265.0L60.5 265.0L60.5 264.9L60.6 264.9L60.6 264.9L60.7 264.9L60.7 264.9L60.7 264.8L60.8 264.8L60.9 264.8L60.9 264.7L60.9 264.7L60.9 264.7L61.0 264.7L61.0 264.6L61.1 264.6L61.1 264.5L61.2 264.5L61.2 264.5L61.2 264.5L61.3 264.4L62.7 263.5L63.3 263.6L64.5 264.9L64.5 266.3L66.1 269.2L68.3 265.6L69.5 264.9L76.0 266.5L79.1 268.4L78.4 266.8L80.0 265.9L79.6 264.5L77.7 263.8L77.6 262.9L82.0 260.0L86.6 258.6L89.3 253.9L86.8 254.1L85.6 253.7L83.1 255.0L83.5 254.2L83.3 253.7L80.1 253.6L78.0 252.9L76.8 252.1L76.7 252.0L76.7 252.0L76.6 251.9L76.6 251.8L76.6 251.8L76.6 251.8L76.5 251.7L76.5 251.7L76.5 251.7L76.5 251.6L76.5 251.6L76.4 251.6L76.4 251.5L76.3 251.4L76 250.9L75.8 250.5L77.1 248.9L78.7 248.0L82.5 248.3L82.2 247.8L83.0 247.8L81.9 246.1L82.3 245.6L86.6 245.4L85.7 245.0L85.7 243.9L84.1 242.5L84.7 241.6L84.6 240.5L84.7 240.5L87.0 240.9L87.7 241.2L89.4 242.5L90.5 243.9L91.2 245.5L91.4 246.8L91.4 247.8L91.4 247.8L91.4 247.9L91.4 247.9L91.4 247.9L91.4 248.0L91.4 248.0L91.4 248.2L91.4 248.3L91.4 248.3L91.4 248.3L91.4 248.4L91.4 248.4L91.4 248.5L91.4 248.5L91.4 248.6L91.4 248.6L91.4 248.6L91.4 248.7L91.4 248.7L91.4 248.8L91.4 248.9L91.5 248.9L91.5 249.0L91.5 249.0L91.5 249.0L91.5 249.1L91.5 249.3L91.6 249.3L91.6 249.3L91.6 249.4L91.6 249.4L91.6 249.5L91.6 249.5L91.7 249.5L91.7 249.6L91.7 249.6L91.7 249.6L91.7 249.7L91.7 249.7L91.8 249.7L91.8 249.8L91.8 249.8L91.8 249.9L91.9 249.9L91.9 249.9L91.9 250.0L92 250.0L92.0 250.1L92.0 250.1L92.0 250.1L92.0 250.2L92.1 250.2L92.1 250.2L92.1 250.3L92.2 250.3L92.2 250.3L92.2 250.4L92.3 250.4L92.4 250.6L92.5 250.6L92.5 250.7L92.5 250.7L92.6 250.7L92.6 250.8L92.7 250.8L92.7 250.8L92.7 250.8L92.8 250.8L92.8 250.9L92.8 250.9L92.8 250.9L93.0 251.0L93.0 251.0L93.1 251.0L93.1 251.1L93.1 251.1L93.2 251.1L93.2 251.1L93.2 251.1L93.3 251.1L93.3 251.2L93.3 251.2L93.4 251.2L93.4 251.2L93.5 251.2L93.5 251.3L93.6 251.3L93.6 251.3L93.6 251.3L93.7 251.3L93.7 251.3L93.7 251.3L93.8 251.3L93.8 251.4L93.8 251.4L93.9 251.4L94.0 251.4L94.0 251.4L94.1 251.4L94.1 251.4L94.2 251.4L94.2 251.4L94.2 251.5L94.3 251.5L94.3 251.5L94.4 251.5L94.5 251.5L94.5 251.5L94.5 251.5L95.9 251.8L96.0 251.8L96.1 251.8L96.2 251.8L96.2 251.9L96.3 251.9L96.4 251.9L96.4 251.9L96.4 251.9L96.5 251.9L96.5 251.9L96.6 251.9L96.6 251.9L96.6 251.9L96.7 251.9L96.7 251.9L96.8 251.9L96.8 252L96.8 252L96.9 252.0L97.0 252.0L97.0 252.0L97.1 252.0L97.2 252.0L97.2 252L97.3 252L97.3 251.9L97.4 251.9L97.4 251.9L97.5 251.9L97.5 251.9L97.5 251.9L97.6 251.9L97.6 251.9L97.7 251.9L97.7 251.9L97.8 251.9L97.8 251.9L97.9 251.8L97.9 251.8L98.0 251.8L98.2 251.7L98.3 251.7L98.3 251.7L98.3 251.7L98.4 251.7L98.4 251.7L98.5 251.6L98.5 251.6L98.6 251.6L98.6 251.6L98.6 251.6L98.7 251.5L98.7 251.5L98.8 251.5L98.8 251.4L98.9 251.4L98.9 251.4L99.0 251.3L99.0 251.3L99.0 251.3L99.1 251.3L99.1 251.2L99.1 251.2L99.2 251.2L99.2 251.1L99.3 251.1L99.3 251.1L99.3 251.1L99.4 251.0L99.5 250.9L100.0 250.4L100.1 250.4L100.1 250.4L100.1 250.3L101.7 249.3L103.6 248.9L105.4 248.9L107.2 249.4L107.3 249.5L107.3 249.5L107.4 249.5L107.4 249.5L107.4 249.5L107.5 249.5L107.5 249.6L107.5 249.6L107.6 249.6L107.7 249.6L107.8 249.6L107.8 249.7L107.9 249.7L107.9 249.7L108.1 249.7L108.1 249.7L108.1 249.7L108.2 249.7L108.2 249.7L108.3 249.7L108.3 249.8L108.4 249.8L108.4 249.8L108.5 249.8L108.5 249.8L108.5 249.8L108.6 249.8L108.6 249.8L108.7 249.8L108.8 249.8L108.8 249.8L108.9 249.8L108.9 249.8L108.9 249.8L109.0 249.8L109.1 249.8L109.1 249.7L109.2 249.7L109.2 249.7L109.3 249.7L109.3 249.7L109.3 249.7L109.4 249.7L109.5 249.7L111.1 249.5L111.8 249.6L111.9 249.6L112.0 249.6L112.1 249.6L112.1 249.6L112.2 249.6L112.2 249.6L112.3 249.6L112.3 249.6L112.4 249.6L112.5 249.6L112.5 249.6L112.6 249.6L112.6 249.6L112.7 249.6L112.7 249.6L112.8 249.6L112.8 249.6L112.9 249.6L112.9 249.6L113.0 249.6L113.0 249.6L113.0 249.6L113.1 249.5L113.1 249.5L113.2 249.5L113.2 249.5L113.2 249.5L113.3 249.5L113.3 249.5L113.4 249.5L113.4 249.5L113.4 249.5L113.5 249.4L113.5 249.4L113.6 249.4L113.6 249.4L113.6 249.4L113.7 249.4L113.7 249.3L113.8 249.3L113.8 249.3L113.8 249.3L113.9 249.3L113.9 249.2L113.9 249.2L114.0 249.2L114.0 249.2L114.1 249.2L114.1 249.1L114.1 249.1L114.2 249.1L114.2 249.1L114.3 249.0L114.3 249.0L114.3 249.0L114.3 249.0L114.4 248.9L114.4 248.9L114.4 248.9L114.5 248.9L114.5 248.9L114.5 248.8L114.6 248.8L114.6 248.8L114.6 248.7L114.7 248.7L114.7 248.7L114.7 248.7L114.7 248.6L114.8 248.6L114.8 248.5L114.9 248.5L114.9 248.4L114.9 248.4L115.0 248.3L115.0 248.3L115.0 248.3L115.1 248.2L115.1 248.2L115.1 248.2L115.3 248L115.3 247.9L115.3 247.9L115.3 247.9L115.3 247.8L115.3 247.8L115.4 247.8L115.4 247.7L115.4 247.7L115.4 247.6L115.5 247.4L117.5 245.0L117.6 245.0L117.6 245.0L117.6 244.9L117.7 244.9L117.8 244.8L117.8 244.8L117.8 244.8L118.0 244.6L118.0 244.6L118.0 244.6L118.1 244.5L118.1 244.5L118.2 244.4L118.2 244.3L118.2 244.3L118.2 244.3L118.3 244.3L118.3 244.2L118.4 244.0L118.4 244.0L118.5 243.9L118.5 243.9L118.5 243.9L118.5 243.8L118.5 243.8L118.6 243.8L118.6 243.7L118.6 243.7L118.6 243.7L118.6 243.6L118.6 243.6L118.7 243.5L118.7 243.5L118.7 243.3L118.7 243.3L118.8 243.2L118.8 243.1L118.8 243.1L118.8 243.1L118.8 243.0L118.8 243.0L118.8 242.9L118.8 242.8L119.0 242.2L119.3 241.3L119.4 241.2L119.4 241.2L119.4 241.1L119.4 241.1L119.4 241.1L119.4 241.0L119.5 241L119.5 240.9L119.5 240.8L119.5 240.8L119.5 240.7L119.5 240.7L119.5 240.7L119.5 240.6L119.6 240.6L119.6 240.5L119.6 240.5L119.6 240.4L119.6 240.4L119.6 240.3L119.6 240.3L119.6 240.3L119.6 240.2L119.6 240.2L119.6 240.1L119.6 240.1L119.6 240.1L119.6 240.0L119.6 240.0L119.6 239.9L119.6 239.7L119.6 239.7L119.6 239.6L119.6 239.6L119.6 239.6L119.6 239.5L119.6 239.5L119.6 239.4L119.6 239.4L119.6 239.4L119.6 239.3L119.6 239.3L119.6 239.2L119.6 239.1L119.6 239.1L119.5 239.0L119.5 239.0L119.3 237.4L119.5 236.0L120.6 236.1L127.1 234.0L134.5 235.6L135.8 237.2L135.9 240.6L136.9 243.1L136.0 243.8L135.9 243.8L135.9 243.8L135.8 243.9L135.8 243.9L135.8 243.9L135.7 243.9L135.7 244.0L135.6 244.0L135.6 244.0L135.6 244.0L135.5 244.0L135.5 244.1L135.5 244.1L135.5 244.1L135.4 244.1L135.3 244.2L135.3 244.2L135.3 244.3L135.3 244.3L135.2 244.3L135.2 244.4L135.2 244.4L135.1 244.4L135.1 244.4L135.1 244.5L135.0 244.5L135.0 244.6L135.0 244.6L134.9 244.6L134.9 244.7L134.9 244.7L134.9 244.7L134.8 244.8L134.8 244.8L134.8 244.8L134.8 244.8L134.7 245.0L134.7 245.0L134.6 245.1L134.6 245.1L134.6 245.1L134.6 245.2L134.6 245.2L134.6 245.2L134.5 245.3L134.5 245.3L134.5 245.3L134.5 245.4L134.5 245.5L134.4 245.5L134.4 245.5L134.4 245.7L134.4 245.8L134.3 245.8L134.3 245.8L134.3 245.9L134.3 245.9L134.3 245.9L134.3 246.0L134.3 246.0L134.3 246.1L134.3 246.1L134.3 246.1L134.3 246.2L134.2 246.2L134.2 246.3L134.2 246.3L134.2 246.3L134.2 246.4L134.2 246.4L134.2 246.4L134.2 246.5L134.2 246.5L134.2 246.6L134.2 246.6L134.2 246.7L134.2 246.7L134.2 246.8L134.2 246.9L134.2 246.9L134.2 247.0L134.2 247.0L134.2 247.1L134.2 247.1L134.2 247.2L134.2 247.2L134.2 247.3L134.3 247.3L134.3 247.3L134.3 247.4L134.3 247.4L134.3 247.4L134.3 247.5L134.3 247.6L134.3 247.6L134.3 247.7L134.4 247.7L134.4 247.8L134.4 247.9L134.4 247.9L134.4 248.0L134.5 248.0L134.5 248.0L134.5 248.1L134.5 248.1L134.5 248.1L134.5 248.2L134.6 248.2L134.6 248.2L134.6 248.3L134.6 248.3L134.6 248.3L134.6 248.4L134.7 248.4L134.7 248.4L134.7 248.5L134.8 248.6L134.8 248.6L134.8 248.6L134.8 248.7L134.9 248.7L134.9 248.8L134.9 248.8L134.9 248.8L135 248.8L135.0 248.9L135.0 249L135.1 249.0L135.1 249.0L135.2 249.1L135.2 249.1L135.2 249.1L135.3 249.2L135.3 249.2L135.4 249.3L135.4 249.3L135.4 249.3L135.5 249.4L136.7 250.6L136.7 250.6L136.7 250.7L136.8 250.7L136.8 250.7L136.9 250.8L136.9 250.9L136.9 250.9L137.1 251.0L137.1 251.0L137.1 251.1L137.1 251.1L137.2 251.1L137.2 251.1L137.2 251.2L137.3 251.2L137.3 251.3L137.4 251.3L137.4 251.3L137.4 251.3L137.4 251.3L137.5 251.4L137.7 251.5L137.8 251.5L137.8 251.6L137.9 251.6L137.9 251.6L137.9 251.6L138.0 251.6L138.0 251.7L138.0 251.7L138.1 251.7L138.1 251.7L138.2 251.7L138.2 251.7L138.3 251.8L138.3 251.8L138.4 251.8L138.4 251.8L138.5 251.8L138.5 251.9L138.6 251.9L138.6 251.9L138.7 251.9L138.8 251.9L138.8 251.9L138.9 251.9L139.4 252.0L139.4 252.0L139.6 252.1L139.6 252.1L139.7 252.1L139.7 252.1L139.7 252.1L139.8 252.1L139.9 252.1L140.0 252.1L140.0 252.1L140.0 252.1L140.1 252.1L140.1 252.1L140.1 252.1L140.3 252.1L140.4 252.1L140.4 252.1L140.4 252.1L140.5 252.1L140.5 252.1L140.6 252.1L141.4 252.1L141.4 252.1L142.4 252.3L142.2 253.1L138.6 255.7L137.7 257.8L141.3 256.4L144.8 256.5L145.9 258.0L147.4 263.6L146.7 267.1L145.7 268.3L144.9 266.8L145.3 264.0L145.0 262.0L143.5 260.3L142.5 260.4L143.2 264.9L142.5 267.5L144.6 267.9L144.9 270.1L143.9 271.4L142.6 272.2L138.4 271.7L136.8 276.8L135.5 278.1L135.5 278.1L135.4 278.1L135.4 278.1L135.3 278.1L135.3 278.1L135.2 278.1L135.2 278.1L135.2 278.1L135.0 278.1L135.0 278.1L134.9 278.1L134.9 278.2L134.6 278.2L134.6 278.2L134.5 278.2L134.5 278.3L134.5 278.3L134.4 278.3L134.4 278.3L134.4 278.3L134.3 278.3L134.3 278.3L134.3 278.3L134.2 278.3L134.1 278.4L134.1 278.4L134.0 278.4L134.0 278.4L134.0 278.4L133.9 278.5L133.9 278.5L133.8 278.5L133.8 278.5L133.8 278.5L133.7 278.5L133.7 278.6L133.6 278.6L133.6 278.6L133.5 278.7L133.4 278.7L133.4 278.8L133.4 278.8L133.3 278.8L133.3 278.8L133.3 278.8L133.2 278.9L133.2 278.9L133.2 278.9L133.1 279.0L133.1 279.0L133.0 279.0L133.0 279.1L133.0 279.1L133.0 279.1L132.9 279.2L132.9 279.2L132.9 279.2L132.8 279.2L132.8 279.3L132.8 279.3L132.8 279.3L127.7 275.2L131.5 280.3L131.3 280.9L130.4 281.3L126.6 280.2L126.1 282.8L126.5 284.1L128.5 287.0L128.5 289.0L127.4 290.9L131.3 297.5L130.4 300.3L129.7 300.9L131.3 304.0L129.2 304.4L128.6 305.2L130.4 308.3L131.5 314.1L131.7 320.1L129.4 325.3L129.1 325.3L127.0 324.9L125.2 323.9L123.8 322.4L123.7 322.4L123.7 322.3L123.7 322.3L123.7 322.3L123.6 322.2L123.6 322.2L123.6 322.2L123.5 322.1L123.5 322.1L123.5 322.0L123.4 322.0L123.4 322.0L123.4 322.0L123.4 321.9L123.3 321.9L123.3 321.9L123.3 321.9L123.3 321.8L123.2 321.8L123.2 321.8L123.1 321.7L123.1 321.7L123.1 321.7L123.0 321.6L123.0 321.6L123.0 321.6L122.9 321.6L122.9 321.6L122.9 321.5L122.8 321.5L122.8 321.5L122.8 321.5L122.7 321.4L122.6 321.4L122.6 321.4L122.6 321.3L122.5 321.3L122.5 321.3L122.5 321.3L122.4 321.3L122.4 321.3L122.3 321.2L122.3 321.2L122.3 321.2L122.2 321.2L122.2 321.2L122.2 321.2L122.1 321.2L122.1 321.1L122.0 321.1L122.0 321.1L121.9 321.1L121.9 321.1L121.8 321.1L121.8 321.1L121.8 321.0L121.7 321.0L121.7 321.0L121.6 321.0L121.6 321.0L121.6 321.0L121.5 321.0L121.5 321.0L121.4 321.0L121.4 321.0L121.4 321.0L121.3 321.0L121.3 321.0L121.3 321.0L121.2 321.0L121.1 321.0L121.1 321.0L120.9 321.0L120.9 321.0L120.8 321.0L120.7 321.0L120.7 321.0L120.7 321.0L120.6 321.0L120.6 321.0L120.5 321.0L120.4 321.0L119.7 321.1L117.9 320.9L117.6 320.8L115.7 319.9L115.6 319.8L115.4 319.7L115.3 319.7L115.3 319.7L115.3 319.6L115.2 319.6L115.2 319.6L115.2 319.6L115.1 319.6L115.1 319.6L115.0 319.5L115.0 319.5L114.9 319.5L114.6 319.4L114.6 319.4L114.6 319.4L114.4 319.3L114.4 319.3L114.3 319.3L114.3 319.3L114.2 319.3L114.2 319.3L114.2 319.3L114.1 319.3L114.1 319.3L114.0 319.3L114.0 319.3L114 319.3L113.9 319.3L113.9 319.3L113.8 319.3L113.6 319.3L113.5 319.3L113.5 319.3L113.5 319.3L113.4 319.3L113.4 319.3L113.3 319.3L113.3 319.3L113.2 319.3L113.2 319.3L113.2 319.3L113.1 319.3L113.1 319.3L113.1 319.3L113.0 319.3L113.0 319.4L112.9 319.4L112.8 319.4L112.8 319.4L112.8 319.4L112.7 319.4L112.7 319.4L112.6 319.5L112.5 319.5L112.5 319.5L112.5 319.5L112.4 319.5L112.4 319.5L112.4 319.6L112.3 319.6L110.7 320.1L110.6 320.1L110.6 320.1L110.5 320.2L110.4 320.2L110.4 320.2L110.4 320.2L110.3 320.2L110.2 320.2L110.1 320.3L110.1 320.3L110.0 320.3L110.0 320.3L109.9 320.3L109.9 320.3L109.9 320.4L109.8 320.4L109.8 320.4L109.8 320.4L109.7 320.4L109.7 320.4L109.7 320.5L109.6 320.5L109.6 320.5L109.5 320.5L109.5 320.5L109.4 320.6L109.4 320.6L109.3 320.7L109.3 320.7L109.3 320.7L109.2 320.7L109.2 320.8L109.2 320.8L109.1 320.8L109.1 320.9L109.0 320.9L109.0 320.9L109.0 320.9L108.9 321.0L108.8 321.1L108.8 321.1L108.8 321.1L108.8 321.2L108.7 321.2L108.7 321.2L108.7 321.2L108.6 321.3L108.6 321.4L108.6 321.4L108.5 321.4L108.5 321.5L108.5 321.5L108.4 321.6L108.3 321.8L108.3 321.8L108.3 321.8L108.3 321.8L108.3 321.9L108.2 321.9L108.2 321.9L108.2 322.0L108.2 322.0L108.2 322.1L108.1 322.1L108.1 322.1L108.1 322.2L108.1 322.2L108.1 322.3L108.1 322.3L108.0 322.4L108.0 322.5L108.0 322.5L108.0 322.5L108.0 322.6L108.0 322.6L108.0 322.6L108.0 322.7L107.9 322.8L107.9 322.8L107.9 322.9L107.9 322.9L107.9 322.9L107.9 323.0L107.9 323.0L107.9 323.0L107.9 323.1L107.9 323.2L107.9 323.2L107.9 323.2L107.9 323.3L107.9 323.3L107.9 323.5L107.9 323.6L107.9 323.6L107.9 323.6L107.9 323.7L107.9 323.7L107.9 323.7L107.9 323.8L107.9 323.9L107.9 323.9L107.9 323.9L107.9 324.0L107.9 324.0L107.9 324.0L108 324.1L108.0 324.2L108.0 324.3L108.0 324.3L108.0 324.3L108.0 324.4L108.0 324.4L108.3 326.3L108.0 328.4L108.0 328.5L108.0 328.5L107.9 328.6L107.9 328.6L107.9 328.7L107.9 328.7L107.9 328.8L107.9 328.9L107.9 328.9L107.9 329L107.9 329.0L107.9 329.0L107.8 329.1L107.8 329.1L107.8 329.1L107.8 329.2L107.8 329.2L107.8 329.2L107.8 329.3L107.8 329.3L107.8 329.4L107.8 329.4L107.8 329.5L107.8 329.5L107.8 329.6L107.8 329.6L107.8 329.7L107.8 329.7L107.8 329.8L107.8 329.8L107.8 329.9L107.8 329.9L107.8 329.9L107.9 330.0L107.9 330.0L107.9 330.1L107.9 330.1L107.9 330.1L107.9 330.2L107.9 330.2L107.9 330.2L107.9 330.3L107.9 330.4L107.9 330.4L108.0 330.4L108.0 330.5L108.0 330.5L108.0 330.6L108.0 330.6L108.0 330.7L108.0 330.7L108.1 330.7L108.1 330.8L108.1 330.8L108.1 330.9L108.1 330.9L108.2 331.0L108.2 331.0L108.2 331.0L108.2 331.1L108.2 331.1L108.3 331.2L108.3 331.2L108.3 331.3L108.3 331.3L108.4 331.3L108.4 331.3L108.4 331.4L108.4 331.4L108.4 331.4L108.5 331.5L108.5 331.5L108.5 331.5L108.5 331.6L108.6 331.6L108.6 331.7L108.6 331.7L108.7 331.7L108.7 331.8L108.8 331.9L110.0 333.4L110.0 333.5L110.1 333.5L110.1 333.6L110.2 333.7L110.2 333.8L110.2 333.8L110.3 333.9L110.3 333.9L110.3 333.9L110.3 333.9L110.4 334.0L110.4 334.0L110.4 334.0L110.4 334.1L110.5 334.1L110.5 334.2L110.6 334.2L110.6 334.2L110.6 334.2L110.7 334.3L110.7 334.3L110.7 334.4L110.8 334.4L110.8 334.4L110.9 334.5L110.9 334.5L110.9 334.5L111.0 334.5L111.0 334.6L111.0 334.6L111.1 334.6L111.1 334.6L111.2 334.7L111.3 334.7L111.3 334.8L111.3 334.8L111.4 334.8L111.4 334.8L111.4 334.8L111.5 334.8L111.5 334.9L111.6 334.9L111.6 334.9L111.7 334.9L111.7 335.0L111.7 335.0L111.8 335.0L111.8 335.0L111.8 335.0L111.9 335.0L111.9 335.0L111.9 335.0L112.0 335.1L112.1 335.1L112.1 335.1L112.1 335.1L112.2 335.1L112.2 335.1L112.3 335.1L112.3 335.1L112.4 335.1L112.4 335.2L112.5 335.2L112.5 335.2L112.6 335.2L112.6 335.2L112.6 335.2L112.7 335.2L112.7 335.2L112.7 335.2L112.8 335.2L112.8 335.2L113.1 335.2L113.1 335.2L113.2 335.2L113.2 335.2L113.3 335.2L113.3 335.2L113.3 335.2L113.4 335.2L113.5 335.2L113.5 335.2L113.5 335.1L113.6 335.1L113.6 335.1L113.7 335.1L113.7 335.1L113.8 335.1L113.8 335.1L113.9 335.1L113.9 335.1L113.9 335.1L114.0 335.0L114.1 335.0L114.1 335.0L114.2 335.0L114.2 335.0L114.2 334.9L114.3 334.9L114.3 334.9L114.4 334.9L114.4 334.8L114.5 334.8L114.5 334.8L114.5 334.8L114.6 334.8L114.6 334.8L114.6 334.7L114.8 334.6L114.8 334.6L114.9 334.6L114.9 334.6L115 334.5L115.0 334.5L115.0 334.5L115.0 334.5L115.1 334.4L115.1 334.4L115.2 334.4L115.2 334.3L115.2 334.3L115.3 334.3L115.3 334.3L115.4 334.2L115.4 334.1L115.4 334.1L115.5 334.1L115.5 334.0L115.5 334.0L115.6 333.9L115.6 333.9L117.5 332.3L119.8 331.4L120.8 331.4L120.8 331.4L122.5 331.6L122.6 331.6L122.7 331.6L122.8 331.6L122.8 331.6L122.8 331.6L122.9 331.6L122.9 331.6L122.9 331.6L123.0 331.6L123.1 331.7L123.1 331.7L123.1 331.7L123.2 331.7L123.2 331.7L123.3 331.7L123.5 331.7L123.5 331.7L123.6 331.7L123.6 331.7L123.7 331.7L124.1 331.6L126.0 331.9L126.6 332.1L126.1 335.5L122.6 341.4L120.1 341.9L122.7 345.9L122.6 347.7L121.6 348.4L117.3 348.1L115.3 346.9L113.3 346.6L112.8 345.6L110.9 348.3L109.8 349.0L109.6 346.7L108.4 344.7L108.3 347.7L107.5 348.7L106.1 349.0L105.3 348.3L99.1 348.7L97.1 349.1L96.8 348.5L96.8 348.4L96.8 348.4L96.7 348.3L96.7 348.3L96.7 348.1L96.7 348.1L96.6 348.0L96.6 348.0L96.6 348.0L96.6 347.9L96.6 347.9L96.6 347.8L96.5 347.8L96.5 347.8L96.5 347.7L96.5 347.7L96.5 347.7L96.5 347.6L96.4 347.6L96.4 347.6L96.3 347.5L96.3 347.4L96.3 347.4L96.3 347.3L96.2 347.3L96.2 347.2L96.2 347.2L96.1 347.2L96.1 347.2L96.1 347.1L96.0 347.1L96.0 347.0L96.0 347.0L96 347.0L95.9 346.9L95.9 346.9L95.8 346.9L95.8 346.8L95.8 346.8L95.7 346.7L95.7 346.7L95.6 346.7L95.6 346.7L95.6 346.6L95.5 346.6L95.5 346.6L95.5 346.5L95.4 346.5L95.4 346.5L95.4 346.5L95.2 346.4L95.2 346.4L95.2 346.3L95.1 346.3L95.1 346.3L95.1 346.3L95.0 346.3L95.0 346.3L95.0 346.2L94.9 346.2L94.9 346.2L94.8 346.2L94.8 346.2L94.7 346.1L94.4 346.0L94.4 346.0L94.4 346.0L94.3 346.0L94.3 346.0L94.2 346.0L94.2 346.0L94.2 346.0L94.1 346.0L94.1 346.0L94.0 346.0L94.0 346.0L93.9 345.9L93.9 345.9L93.9 345.9L93.8 345.9L93.8 345.9L93.7 345.9L93.6 345.9L93.6 345.9L92.4 345.8L91.4 345.5L89.9 344.7L88.6 343.5L88.3 343.1L87.2 340.6L87.2 340.6L87.2 340.5L87.2 340.5L87.2 340.4L87.1 340.4L87.1 340.4L87.1 340.3L87.1 340.3L87.1 340.2L87.1 340.2L87.1 340.1L87.0 340.1L87.0 340.0L87.0 340.0L87.0 340.0L87.0 339.9L87.0 339.9L86.9 339.8L86.9 339.8L86.9 339.8L86.9 339.7L86.9 339.7L86.9 339.7L86.8 339.6L86.8 339.6L86.7 339.4L86.7 339.4L86.7 339.4L86.6 339.3L86.6 339.3L86.6 339.3L86.5 339.2L86.5 339.2L86.5 339.2L86.5 339.1L86.4 339.1L86.4 339.1L86.4 339.0L86.3 339.0L86.3 339.0L86.2 338.9L86.2 338.9L86.2 338.8L86.1 338.8L86.1 338.7L86.0 338.7L86.0 338.7L86.0 338.7L86.0 338.6L85.9 338.6L85.9 338.6L85.9 338.6L85.8 338.6L85.8 338.5L85.7 338.5L85.6 338.4L85.6 338.4L85.5 338.4L85.5 338.3L85.5 338.3L85.4 338.3L85.4 338.3L85.4 338.3L85.3 338.3L85.3 338.2L85.2 338.2L85.2 338.2L85.1 338.2L84.9 338.1L84.8 338.0L84.8 338.0L84.8 338.0L84.7 338.0L84.7 338.0L84.7 338.0L84.4 337.9L84.4 337.9L84.3 337.9L84.3 337.9L84.3 337.9L84.2 337.8L84.1 337.8L84.1 337.8L84.0 337.8L84.0 337.8L83.9 337.8L83.9 337.8L83.8 337.8L83.8 337.8L83.7 337.8L83.7 337.8L83.7 337.8L83.6 337.8L83.4 337.8L83.3 337.8L83.3 337.8L83.2 337.8L83.2 337.8L83.1 337.8L83.1 337.8L83.1 337.8L83.0 337.8L83.0 337.8L83.0 337.8L82.9 337.8L82.9 337.8L82.8 337.8L82.8 337.8L82.8 337.8L82.7 337.9L82.7 337.9L82.6 337.9L80.9 338.1L80.7 338.1L80.4 338.1L80.3 338.1L80.3 338.1L80.2 338.1L80.2 338.1L80.1 338.1L80.0 338.1L79.9 338.1L79.9 338.1L79.9 338.1L79.8 338.1L79.8 338.1L79.7 338.1L79.7 338.1L79.6 338.1L79.6 338.1L79.6 338.1L79.5 338.1L79.5 338.1L79.4 338.1L79.4 338.1L79.3 338.1L79.3 338.2L79.2 338.2L79.2 338.2L79.1 338.2L78.9 338.3L78.8 338.3L78.8 338.3L78.8 338.3L78.7 338.4L78.7 338.4L78.6 338.4L78.6 338.4L78.6 338.4L78.5 338.4L78.5 338.5L78.4 338.5L78.4 338.5L78.4 338.5L78.2 338.6L78.1 338.7L78.1 338.7L78.1 338.7L78.1 338.7L78.0 338.8L78.0 338.8L78.0 338.8L77.9 338.8L77.9 338.8L77.8 338.9L77.8 338.9L77.8 339.0L77.7 339.1L77.6 339.1L77.6 339.1L77.6 339.1L77.5 339.2L77.5 339.2L77.5 339.3L77.4 339.3L77.4 339.3L77.4 339.4L77.4 339.4L77.3 339.5L77.3 339.5L77.3 339.5L77.3 339.6L77.2 339.6L77.2 339.7L77.2 339.7L77.2 339.7L77.1 339.8L77.1 339.8L77.1 339.8L77.1 339.9L77.1 339.9L77.0 339.9L77.0 340.0L77.0 340.0L77.0 340.0L77.0 340.1L77.0 340.1L76.9 340.2L76.9 340.2L76.9 340.2L76.8 340.5L76.8 340.5L76.8 340.5L76.8 340.6L76.8 340.6L76.8 340.7L76.8 340.7L76.8 340.8L76.8 340.9L76.7 340.9L76.7 340.9L76.7 341.0L76.7 341.0L76.7 341.1L76.7 341.1L76.7 341.2L76.7 341.2L76.5 342.3L75.8 344.0L74.4 345.7L72.4 346.9L70.2 347.3L68.0 347.0L66.0 346.0L66 346.0L64.5 344.5L64.5 344.4L64.5 344.4L64.4 344.4L64.4 344.3L64.4 344.3L64.4 344.3L64.3 344.2L64.3 344.2L64.3 344.1L64.2 344.1L64.2 344.1L64.2 344.0L64.2 344.0L64.1 344.0L64.1 344.0L64.1 343.9L64.0 343.9L64.0 343.9L64.0 343.9L63.9 343.8L63.8 343.8L63.8 343.7L63.8 343.7L63.8 343.7L63.7 343.7L63.7 343.6L63.7 343.6L63.6 343.6L63.4 343.4L63.4 343.4L63.3 343.4L63.3 343.4L63.3 343.4L63.2 343.4L63.2 343.3L63.1 343.3L63.1 343.3L63.1 343.3L63.0 343.3L63.0 343.3L63.0 343.2L62.9 343.2L62.9 343.2L62.8 343.2L62.7 343.2L62.7 343.1L62.6 343.1L62.6 343.1L62.6 343.1L62.5 343.1L62.4 343.1L62.4 343.1L62.3 343.1L62.3 343.1L62.3 343.1L62.2 343.0L62.2 343.0L62.2 343.0L62.1 343.0L62.1 343.0L62.1 343.0L62.0 343.0L61.9 343.0L61.9 343.0L61.8 343.0L61.6 343.0L61.6 343.0L61.6 343.0L61.5 343.0L61.5 343.0L61.5 343.0L61.4 343.0L61.4 343.0L61.4 343.0L61.3 343.0L61.3 343.0L61.2 343.1L60.2 343.1L60.2 343.1L60.1 343.1L59.3 343.1L59.2 343.1L59.2 343.1L59.2 343.0L59.1 343.0L59.1 343.0L59.1 343.0L59.0 343.0L59.0 343.0L58.9 343.0L58.9 343.0L58.7 343.0L58.6 343.0L58.6 343.0L58.6 343.0L58.5 343.0L58.5 343.0L58.4 343.0L58.4 343.1L58.4 343.1L58.3 343.1L58.3 343.1L58.2 343.1L58.2 343.1L58.2 343.1L58.1 343.1L58.0 343.1L58.0 343.1L58.0 343.1L57.9 343.1L57.8 343.2L57.8 343.2L57.8 343.2L57.7 343.2L57.7 343.2L57.7 343.2L57.6 343.2L57.6 343.3L57.6 343.3L57.5 343.3L57.5 343.3L57.5 343.3L57.4 343.3L57.4 343.4L57.3 343.4L57.3 343.4L57.3 343.4L57.2 343.4L57.2 343.4L57.2 343.5L57.1 343.5L57.1 343.5L57.1 343.5L56.9 343.6L56.9 343.6L56.9 343.6L56.9 343.7L56.8 343.7L56.8 343.7L56.7 343.7L56.7 343.8L56.6 343.8L56.6 343.8L56.6 343.9L56.5 343.9L56.5 343.9L56.5 344.0L56.4 344.0L56.4 344.0L56.4 344.1L56.3 344.1L56.3 344.1L56.3 344.2L56.3 344.2L56.2 344.2L56.2 344.3L56.2 344.3L56.1 344.3L56.1 344.4L56.1 344.4L56.1 344.4L56.0 344.5L56.0 344.5L55.9 344.7L55.9 344.8L55.9 344.8L55.8 344.8L55.8 344.9L55.8 344.9L55.8 344.9L55.8 345L55.8 345.0L55.7 345.0L55.7 345.1L55.7 345.1L55.7 345.1L55.7 345.2L55.6 345.4L55.6 345.4L55.6 345.4L55.6 345.5L55.6 345.5L55.6 345.5L55.5 345.6L55.5 345.7L55.5 345.7L55.5 345.7L55.5 345.8L55.5 345.8L55.5 345.9L55.5 345.9L55.5 345.9L55.5 346.0L55.5 346.0L55.5 346.0L55.4 346.1L55.4 346.1L55.4 346.1L55.4 346.2L55.4 346.2L55.4 346.3L55.4 346.3L55.4 346.6L55.4 346.6L55.4 346.6L55.4 346.7L55.4 346.7L55.4 346.7L55.5 346.8L55.5 346.8L55.5 346.9L55.5 346.9L55.5 347.0L55.5 347.0L55.5 347.0L55.5 347.1L55.5 347.1L55.5 347.1L55.5 347.2L55.5 347.2L55.5 347.3L55.6 347.4L55.6 347.4L55.7 348.2L55.8 348.8L55.8 348.8L55.8 349.0L55.8 349.1L55.8 349.2L55.8 349.2L55.8 349.2L55.8 349.3L55.8 349.3L55.8 349.4L55.8 349.4L55.8 349.5L55.8 349.5L55.8 349.6L55.8 349.6L55.8 349.7L55.8 349.7L55.8 349.8L55.9 349.8L55.9 349.8L55.9 349.9L55.9 349.9L55.9 350.0L55.9 350.0L55.9 350.1L56 350.1L56.0 350.2L56.0 350.2L56.0 350.3L56.0 350.3L56.0 350.3L56.0 350.4L56.1 350.4L56.1 350.4L56.1 350.5L56.1 350.5L56.1 350.5L56.1 350.6L56.2 350.6L56.2 350.6L56.2 350.7L56.3 350.9L56.3 350.9L56.4 350.9L56.4 351.0L56.4 351.0L56.5 351.1L56.5 351.1L56.5 351.1L56.5 351.1L56.6 351.2L56.6 351.2L56.7 351.3L56.7 351.4L57.3 352.1L57.4 352.2L57.4 352.2L57.4 352.2L57.5 352.3L57.5 352.3L57.5 352.4L57.6 352.4L57.6 352.5L57.7 352.5L57.7 352.5L57.7 352.6L57.7 352.6L57.8 352.6L57.8 352.7L57.8 352.7L57.9 352.7L57.9 352.8L58.0 352.8L58.0 352.8L58.0 352.9L58.1 352.9L58.1 352.9L58.1 352.9L58.2 353L58.2 353.0L58.2 353.0L58.3 353.0L58.4 353.1L58.4 353.1L58.4 353.1L58.5 353.1L58.5 353.2L58.5 353.2L58.6 353.2L58.6 353.2L58.6 353.2L58.7 353.3L58.7 353.3L58.7 353.3L58.8 353.3L58.8 353.3L58.8 353.3L58.9 353.3L58.9 353.4L59.0 353.4L59.1 353.4L59.1 353.4L59.2 353.5L59.3 353.5L59.3 353.5L59.3 353.5L59.4 353.5L59.5 353.5L59.5 353.5L59.5 353.5L59.6 353.5L59.6 353.5L59.7 353.5L59.7 353.5L59.7 353.6L59.8 353.6L59.8 353.6L59.8 353.6L59.9 353.6L59.9 353.6L60.0 353.6L60.0 353.6L60.2 353.6L60.2 353.6L60.3 353.6L60.3 353.6L60.4 353.6L60.4 353.6L60.4 353.6L60.5 353.6L60.5 353.6L60.5 353.5L60.6 353.5L60.7 353.5L61.8 353.5L62.4 353.5L62.5 353.5L62.6 353.5L62.7 353.5L62.7 353.5L62.7 353.5L62.8 353.5L62.8 353.5L62.8 353.6L62.9 353.6L62.9 353.6L63.0 353.6L63.0 353.6L63.1 353.6L63.1 353.6L63.2 353.6L63.2 353.6L63.3 353.6L63.3 353.5L63.4 353.5L63.4 353.5L63.4 353.5L63.5 353.5L63.5 353.5L63.6 353.5L63.6 353.5L63.6 353.5L63.7 353.5L63.7 353.5L63.8 353.5L63.8 353.5L63.9 353.5L63.9 353.4L63.9 353.4L64.0 353.4L64.0 353.4L64.0 353.4L64.1 353.4L64.1 353.4L64.2 353.4L64.2 353.4L64.2 353.3L64.3 353.3L64.3 353.3L64.4 353.3L64.4 353.3L64.4 353.3L64.5 353.2L64.5 353.2L64.5 353.2L64.6 353.2L64.6 353.2L64.7 353.1L64.7 353.1L64.8 353.1L64.8 353.1L64.9 353.0L65.0 353L65.0 352.9L65.0 352.9L65.1 352.9L65.1 352.9L65.1 352.8L65.2 352.8L65.2 352.8L65.2 352.8L65.2 352.7L65.3 352.7L65.3 352.7L65.3 352.6L65.4 352.6L65.5 352.5L65.5 352.5L65.5 352.5L65.6 352.4L65.6 352.4L65.6 352.3L65.7 352.3L65.7 352.3L65.7 352.2L65.7 352.2L65.8 352.2L65.8 352.1L65.8 352.1L65.8 352.1L65.9 352.0L66 351.9L66.0 351.9L66.0 351.8L66.0 351.8L66.0 351.8L66.0 351.7L66.1 351.7L66.1 351.7L66.1 351.6L66.1 351.6L66.1 351.5L66.7 350.5L66.7 350.5L66.7 350.5L66.8 350.4L66.8 350.4L66.8 350.4L66.8 350.3L68.3 348.6L70.2 347.5L72.4 347.0L74.6 347.4L76.6 348.4L76.7 348.4L76.7 348.4L76.8 348.5L76.8 348.5L76.9 348.5L76.9 348.6L77.0 348.6L77.0 348.6L77.0 348.6L77.1 348.7L77.1 348.7L77.1 348.7L77.2 348.7L77.2 348.7L77.3 348.8L77.3 348.8L77.4 348.8L77.4 348.8L77.5 348.9L77.5 348.9L77.8 349L77.8 349.0L77.8 349.0L77.9 349.0L77.9 349.0L78.0 349.0L78.1 349.0L78.1 349.0L78.1 349.0L78.2 349.0L78.2 349.1L78.3 349.1L78.4 349.1L78.4 349.1L78.5 349.1L78.5 349.1L78.6 349.1L78.6 349.1L78.7 349.1L78.7 349.1L79.3 349.2L79.9 348.9L79.9 348.9L80.2 348.8L80.7 348.6L81.0 348.5L82.6 348.4L83.0 348.4L84.5 348.8L86.3 349.7L87.8 351.2L88.7 353.0L89.0 354.6L87.4 354.0L85.8 357.1L81.7 359.5L78.5 359.5L78.1 358.9L78.6 357.6L76.9 357.1L76.6 355.6L74.7 355.6L76.6 359.0L75.9 361.5L72.8 363.0L69.9 362.4L70.9 363.3L70.4 364.7L66.5 364.3L66.7 365.7L66.1 366.4L63.1 366.0L61.1 367.2L56.9 366.5L53.9 368.6L51.3 369.0L50.2 368.4L49.3 366.4L47.1 366.8L47.1 366.8L47.1 366.7L47.1 366.7L47.0 366.7L47.0 366.7L47.0 366.6L46.9 366.6L46.9 366.5L46.9 366.5L46.8 366.4L46.7 366.4L46.7 366.4L46.7 366.4L46.7 366.3L46.6 366.3L46.6 366.3L46.6 366.3L46.5 366.3L46.4 366.2L46.3 366.1L46.3 366.1L46.3 366.1L46.3 366.1L46.2 366.1L46.2 366.0L46.1 366.0L46.1 366.0L46.1 366.0L46.1 366.0L46.0 366.0L46 365.9L45.9 365.9L45.9 365.9L45.8 365.9L45.8 365.9L45.7 365.8L45.6 365.8L45.6 365.8L45.6 365.8L45.5 365.8L45.5 365.8L45.5 365.8L45.4 365.8L45.3 365.7L45.3 365.7L45.2 365.7L45.2 365.7L45.2 365.7L45.1 365.7L45.1 365.7L45.1 365.7L45.0 365.7L45.0 365.7L44.9 365.7L44.9 365.7L44.9 365.7L44.8 365.7L44.8 365.7L44.8 365.7L44.6 365.7L44.5 365.7L44.5 365.7L44.4 365.7L44.4 365.7L44.4 365.7L44.3 365.7L44.3 365.7L44.2 365.7L44.2 365.7L44.1 365.7L44.1 365.7L44.1 365.7L44.0 365.7L44.0 365.7L43.9 365.8L43.9 365.8L43.8 365.8L43.8 365.8L43.7 365.8L43.7 365.8L43.6 365.9L43.6 365.9L43.5 365.9L43.5 365.9L43.5 365.9L43.4 365.9L43.4 365.9L43.4 365.9L43.3 366.0L43.3 366.0L43.2 366.0L43.1 366.1L43.1 366.1L43.1 366.1L43.0 366.1L43.0 366.1L43.0 366.1L42.9 366.2L42.9 366.2L42.8 366.2L42.8 366.2L42.8 366.3L42.7 366.3L42.7 366.3L42.7 366.3L42.6 366.3L42.6 366.4L42.6 366.4L42.6 366.4L42.5 366.5L42.5 366.5L42.4 366.5L42.4 366.5L42.4 366.6L40.6 367.7L41.0 367.1L46.4 363.8L41.1 365.2L40.7 364.9L48.7 361.1L49.2 360.4L49.1 359.7L47.8 359.2L45.4 360.5L39.9 361.3L36.1 362.8L33.4 362.3L35.1 360.3L37.1 359.3L38.0 358.1L41.2 356.9L43.3 355.3L46.9 353.8L34.6 356.8L32.9 355.7L32.5 353.7L32.3 353.8L32.3 353.8L32.3 353.7L32.3 353.6L32.3 353.6L32.3 353.6L32.3 353.5L32.2 353.5L32.2 353.5L32.2 353.4L32.2 353.3L32.2 353.3L32.2 353.2L32.0 351.5L32.2 349.9L32.2 349.8L32.2 349.8L32.7 349.2L32.3 349.0L32.3 349L32.3 348.9L32.3 348.8L32.3 348.8L32.3 348.7L32.3 348.0L32.7 347.7L38.1 346.1L41.1 344.0L43.5 343.7L43.7 343.0L42.3 342.6L39.5 343.3L34.8 342.9L35.9 342.2L36.0 342.1L36.0 342.1L36.1 342.1L36.1 342.1L36.1 342.1L36.1 342.0L36.3 341.9L36.4 341.9L36.4 341.9L36.5 341.8L36.5 341.8L36.5 341.8L36.5 341.8L36.6 341.8L36.7 341.6L36.8 341.6L36.8 341.5L36.8 341.5L36.9 341.5L36.9 341.4L36.9 341.4L37.0 341.4L37.0 341.3L37.1 341.3L37.1 341.2L37.1 341.2L37.1 341.2L37.2 341.1L37.8 340.3L38.7 339.6L38.8 339.5L38.8 339.5L38.8 339.5L38.9 339.5L38.9 339.5L39.0 339.4L39.0 339.4L39.1 339.3L39.1 339.3L39.1 339.3L39.2 339.2L39.2 339.2L39.2 339.2L39.2 339.2L39.3 339.1L39.3 339.1L39.4 339.0L39.4 339.0L39.4 338.9L39.5 338.9L39.5 338.9L39.5 338.8L39.5 338.8L39.6 338.8L39.6 338.7L39.6 338.7L39.6 338.7L39.7 338.6L39.8 338.8L41.0 339.4L44.6 339.1L42.7 337.6L43.1 334.8L41.8 332.8L47.6 331.0L47.9 328.8L49.1 327.8L56.6 328.1L65.6 326.0L71.8 326.2L65.2 324.6L64.9 321.5L63.5 322.4L61.2 325.6L59.4 326.7L56.8 327.3L56.4 326.3L53.5 326.4L50.9 324.7L46.4 327.0L42.8 327.1L50.1 321.8L52.5 320.6L56.0 315.3L54.7 314.1L54.9 313.0L59.0 307.8L59.8 307.4L61.9 307.7L66.6 307.1L67.4 305.5L66.3 304.9L66.5 303.5L65.9 303.2L54.2 303.3L53.1 301.9L52.1 302.1L53.2 298.0L52.2 298.6L51.4 297.9L48.7 299.8L46.9 299.6L46.4 298.1L48.0 296.4L47.1 295.4L44.4 296.4L40.7 294.6L42.5 293.5L43.0 292.6L41.3 291.1L41.1 289.7L42.7 289.3L44.4 289.6L44.5 288.4L45.0 288.2L48.0 288.2L50.7 289.0L48.4 287.9L47.3 286.5L47.1 284.8L48.0 283.0L49.7 282.4L54.8 282.0L54.2 280.9L55.2 279.3L54.8 278.7L51.8 278.0L48.4 278.4L47.6 277.0L46.7 277.9 Z M 99.3 244.7L97.1 242.9L97.1 242.9L97.0 242.8L97.0 242.8L97.0 242.7L96.9 242.7L96.9 242.7L96.9 242.6L96.8 242.6L96.8 242.6L96.8 242.6L96.7 242.5L96.6 242.4L96.6 242.4L96.5 242.4L96.5 242.3L96.5 242.3L96.5 242.3L96.4 242.3L96.4 242.3L96.4 242.2L96.2 242.2L96.2 242.1L94.8 241.0L93.7 239.5L93.1 237.9L93.1 237.8L93.1 237.8L93.1 237.7L93.1 237.7L93.0 237.7L93.0 237.6L93.0 237.6L93.0 237.6L93.0 237.5L93.0 237.5L93.0 237.5L92.9 237.3L92.5 235.3L92.5 235.3L92.5 234.6L92.6 234.0L94.6 232.8L97.0 235.3L97.6 232.8L98.3 232.1L100.7 236.4L100.6 233.8L99.5 233.5L99.3 232.6L100.4 231.6L101.9 231.3L104 236.6L101.3 242.3L104.4 239.7L105.3 236.8L104.3 233.5L105.0 231.3L107.3 230.6L107.9 231.2L108.9 232.9L109.3 234.7L109.3 234.8L109.3 234.8L109.1 236.9L109.1 237.0L109.1 237.0L109.1 237.1L109.1 237.1L109.1 237.1L109.0 237.2L109.0 237.2L109.0 237.3L109.0 237.3L109.0 237.3L109.0 237.4L109.0 237.5L109.0 237.5L109.0 237.5L109.0 237.6L109.0 237.6L109.0 237.6L109.0 237.7L109.0 237.9L109.0 238.0L109.0 238.0L109.0 238.0L109.0 238.1L109.0 238.5L109.0 238.5L109.0 238.6L108.8 240.3L107.9 242.1L107.1 243.1L107.5 242.7L107.4 243.0L106.5 243.8L104.9 244.8L103.1 245.3L101.1 245.3L99.3 244.7 Z M 99.3 244.7 "/>
<path style=" stroke:none;fill-rule:nonzero;fill:rgb(77.6%,78.8%,62.3%);fill-opacity:1;" d="M 51.2 301.9L50.9 303.0L50.0 302.6L50.6 300.3L51.2 300.5 Z M 51.2 301.9 "/>
<path style=" stroke:none;fill-rule:nonzero;fill:rgb(77.6%,78.8%,62.3%);fill-opacity:1;" d="M 49.8 306.5L51.0 307.5L49.5 307.5L47.4 305.9 Z M 49.8 306.5 "/>
<path style=" stroke:none;fill-rule:nonzero;fill:rgb(77.6%,78.8%,62.3%);fill-opacity:1;" d="M 40.8 362.3L39.3 362.6L38.8 362.1L39.3 361.7L41.0 361.9 Z M 40.8 362.3 "/>
<path style=" stroke:none;fill-rule:nonzero;fill:rgb(77.6%,78.8%,62.3%);fill-opacity:1;" d="M 133.4 232.6L133.0 233.1L131.5 232.0L132.5 231.9 Z M 133.4 232.6 "/>
<path style=" stroke:none;fill-rule:nonzero;fill:rgb(77.6%,78.8%,62.3%);fill-opacity:1;" d="M 40.8 287.2L40.3 287.5L39.5 286.8L40.6 286.7 Z M 40.8 287.2 "/>
<path style=" stroke:none;fill-rule:nonzero;fill:rgb(77.6%,78.8%,62.3%);fill-opacity:1;" d="M 44.8 281.0L44.8 280.9L44.8 280.9L46.1 280.3L46.7 280.8 Z M 44.8 281.0 "/>
<path style=" stroke:none;fill-rule:nonzero;fill:rgb(77.6%,78.8%,62.3%);fill-opacity:1;" d="M 52.3 308.8L51.4 309.1L52.0 308.2 Z M 52.3 308.8 "/>
<path style=" stroke:none;fill-rule:nonzero;fill:rgb(77.6%,78.8%,62.3%);fill-opacity:1;" d="M 31.3 362.8L31.3 362.8L31.8 362.2L32.8 362.1 Z M 31.3 362.8 "/>
<path style=" stroke:none;fill-rule:nonzero;fill:rgb(77.6%,78.8%,62.3%);fill-opacity:1;" d="M 43.0 283.9L43.0 284.5L42.3 284.5 Z M 43.0 283.9 "/>
<path style=" stroke:none;fill-rule:nonzero;fill:rgb(77.6%,78.8%,62.3%);fill-opacity:1;" d="M 53.7 309.8L52.6 309.9L53.0 309.5 Z M 53.7 309.8 "/>
<path style=" stroke:none;fill-rule:nonzero;fill:rgb(77.6%,78.8%,62.3%);fill-opacity:1;" d="M 81.8 240.4L82.9 240.4L82.9 240.4L81.8 240.4 Z M 81.8 240.4 "/>
















</g>
</svg>
