<?xml version="1.0" encoding="UTF-8" standalone="no"?>
<svg width="378px" height="504px" viewBox="0 0 378 504" version="1.1" xmlns="http://www.w3.org/2000/svg" xmlns:xlink="http://www.w3.org/1999/xlink" xmlns:sketch="http://www.bohemiancoding.com/sketch/ns">
    <!-- Generator: Sketch 3.2.2 (9983) - http://www.bohemiancoding.com/sketch -->
    <title>Coenagrion_hastulatum_new_final_</title>
    <desc>Created with Sketch.</desc>
    <defs></defs>
    <g id="Page-1" stroke="none" stroke-width="1" fill="none" fill-rule="evenodd" sketch:type="MSPage">
        <g id="data" sketch:type="MSLayerGroup">
            <rect id="Rectangle-path" fill="#FFFFFF" sketch:type="MSShapeGroup" x="0" y="0" width="378" height="504"></rect>
            <path d="M21,504 L357,504 L357,0 L21,0 L21,504 Z" id="Shape" fill="#FFFFFF" sketch:type="MSShapeGroup"></path>
            <path d="M179.1,154.2 L178.9,154 L178.9,153.9 L177.9,152.3 L187.4,147.5 L190.6,147.1 L190.7,147.1 L190.8,147.1 L192.6,148.8 L193.8,151.4 L194,152.2 L194,152.3 L194,152.4 L194,152.5 L194,152.6 L194,152.7 L194,152.8 L194.1,152.8 L194.1,152.9 L194.1,153 L194.2,153.1 L194.2,153.2 L194.2,153.3 L194.3,153.4 L194.3,153.5 L194.3,153.6 L194.4,153.6 L194.4,153.7 L194.5,153.8 L194.5,153.9 L194.6,154 L194.7,154.1 L194.8,154.2 L194.9,154.3 L194.9,154.4 L195,154.4 L195,154.5 L195.1,154.5 L195.4,154.8 L196.4,156.2 L197.1,157.7 L197.1,157.8 L197.1,157.9 L197.2,158.1 L197.2,158.2 L197.3,158.2 L197.3,158.3 L197.3,158.4 L197.4,158.4 L197.4,158.5 L197.5,158.6 L197.6,158.8 L197.6,158.9 L197.7,158.9 L197.7,159 L197.8,159 L197.8,159.1 L197.9,159.2 L198,159.2 L198,159.3 L198.1,159.4 L198.2,159.5 L198.3,159.5 L198.3,159.6 L198.4,159.6 L198.4,159.7 L198.5,159.7 L198.7,159.8 L198.8,159.9 L198.9,159.9 L199,160 L199.1,160 L199.2,160 L199.2,160.1 L199.3,160.1 L199.4,160.1 L199.5,160.1 L199.5,160.2 L199.6,160.2 L199.7,160.2 L199.8,160.2 L199.9,160.2 L200,160.2 L200.1,160.2 L200.1,160.3 L200.2,160.3 L200.3,160.3 L200.4,160.3 L200.5,160.3 L200.6,160.3 L200.6,160.2 L200.7,160.2 L200.8,160.2 L200.9,160.2 L201,160.2 L201.1,160.2 L201.2,160.1 L201.3,160.1 L201.6,160 L203,159.6 L204.5,159.6 L204.6,159.6 L205.6,159.7 L205.7,159.7 L205.7,159.8 L205.8,159.8 L205.9,159.8 L206,159.8 L206.1,159.8 L206.2,159.8 L208,160.2 L209,158.6 L210.6,157.2 L212.5,156.4 L213.9,156.2 L215.8,156.4 L217.6,157.1 L219.1,158.3 L220.2,159.9 L220.9,162.7 L220.6,164.8 L219.7,166.7 L218.2,168.3 L216.3,169.3 L214.2,169.6 L213.7,169.6 L212,169.2 L211,170.8 L211,170.9 L210.9,170.9 L210.9,171 L210.8,171 L210.8,171.1 L210.7,171.3 L210.6,171.3 L210.6,171.4 L210.6,171.5 L210.5,171.6 L210.5,171.7 L210.5,171.8 L210.4,171.8 L210.4,171.9 L209.5,173.6 L208.2,174.9 L206.6,175.8 L204.8,176.3 L203.9,176.3 L203,176.3 L202.9,176.3 L202.9,176.2 L202.8,176.2 L202.7,176.2 L202.6,176.2 L202.5,176.2 L202.3,176.2 L202.2,176.2 L202.1,176.2 L202,176.2 L201.9,176.2 L201.9,176.3 L201.8,176.3 L201.2,176.3 L200.5,176.3 L198.7,176.1 L198.7,176 L198.6,176 L198.5,176 L198.4,176 L198.3,176 L198.3,175.9 L198.2,175.9 L198.1,175.9 L198,175.9 L197.9,175.9 L197.8,175.9 L197.7,175.9 L197.6,175.9 L197.5,175.9 L197.4,175.9 L197.3,175.9 L197.2,175.9 L197.1,175.9 L197.1,176 L197,176 L196.9,176 L196.8,176 L196.7,176 L196.7,176.1 L196.6,176.1 L196.5,176.1 L196.4,176.2 L196.3,176.2 L196.2,176.2 L196.2,176.3 L196.1,176.3 L196,176.4 L195.9,176.5 L195.8,176.5 L195.7,176.5 L195.7,176.6 L195.6,176.6 L195.6,176.7 L195.5,176.7 L195.5,176.8 L195.4,176.8 L195.3,177 L195.2,177 L195.2,177.1 L195.1,177.1 L193.6,178.4 L194.5,180.2 L194.5,180.3 L194.5,180.4 L194.6,180.4 L194.6,180.5 L194.6,180.6 L194.7,180.7 L194.7,180.8 L194.8,180.9 L194.8,181 L194.9,181 L195,181.4 L195.3,181.6 L196.7,183.6 L197.3,186 L197.1,188.4 L196.1,190.4 L194.5,191.9 L192.5,192.9 L190.3,193.1 L189,193 L187.3,192.3 L185.9,191.2 L185.6,190.9 L184.9,189.9 L184.7,189.5 L184.4,189.3 L184.3,189.2 L184.2,189.1 L184.1,189.1 L184.1,189 L184,189 L184,188.9 L183.9,188.9 L183.8,188.8 L183.7,188.8 L182.1,187.3 L181,185.4 L180.5,183.2 L180.6,182 L181.3,179.9 L182.6,178.2 L182.7,178.1 L182.8,178.1 L182.8,178 L182.9,178 L182.9,177.9 L183,177.9 L184.5,176.6 L183.6,174.8 L183.6,174.7 L183.5,174.6 L183.5,174.5 L183.5,174.4 L183.4,174.3 L183.4,174.2 L183.3,174.1 L183.3,174 L183.2,173.9 L183.2,173.8 L183.1,173.8 L183.1,173.7 L183,173.6 L182.9,173.5 L182.8,173.4 L182.8,173.3 L182.7,173.2 L182.6,173.2 L182.5,173.1 L182.4,173 L182.3,173 L182.3,172.9 L182.2,172.9 L182.1,172.8 L182,172.8 L182,172.7 L181.9,172.7 L181.8,172.7 L181.8,172.6 L181.7,172.6 L181.6,172.6 L181.5,172.6 L179.8,171.6 L178.4,170.1 L177.5,168.3 L177.2,166.3 L177.3,165.2 L177.3,165.1 L177.3,165 L177.3,164.9 L177.3,164.8 L177.3,164.7 L177.3,164.5 L177.3,164.4 L177.3,164.3 L177.3,164.2 L177.3,164.1 L177.3,164 L177.2,162.9 L177.4,161.3 L178.1,159.6 L178.9,158.5 L178.9,158.4 L179,158.3 L179.1,158.2 L179.1,158.1 L179.2,158.1 L179.2,158 L179.3,158 L179.3,157.9 L179.3,157.8 L179.4,157.8 L179.4,157.7 L179.4,157.6 L179.5,157.6 L179.5,157.5 L179.5,157.4 L179.6,157.3 L179.6,157.2 L179.6,157.1 L179.6,157 L179.7,157 L179.7,156.9 L179.7,156.8 L179.7,156.7 L179.7,156.6 L179.7,156.5 L179.7,156.4 L179.8,156.3 L179.8,156.1 L179.8,156 L179.7,155.9 L179.7,155.8 L179.7,155.7 L179.7,155.6 L179.7,155.5 L179.7,155.4 L179.6,155.4 L179.6,155.3 L179.6,155.2 L179.6,155.1 L179.5,155 L179.5,154.9 L179.5,154.8 L179.4,154.8 L179.4,154.7 L179.4,154.6 L179.3,154.6 L179.3,154.5 L179.2,154.4 L179.1,154.2 Z M177.8,152.2 L177.7,152 L177.2,149.7 L177.3,148.4 L178,146.2 L178.3,145.9 L180.9,145.8 L181.5,146.7 L178.1,150.6 L177.8,152.2 Z M180.9,143.6 L181.6,143.2 L183.9,142.7 L184.3,142.8 L183,144.7 L181.9,143.4 L180.9,143.6 Z" id="Shape" fill="#C2B855" sketch:type="MSShapeGroup"></path>
        </g>
    </g>
</svg>