<?xml version="1.0" encoding="UTF-8"?>
<svg xmlns="http://www.w3.org/2000/svg" xmlns:xlink="http://www.w3.org/1999/xlink" width="378pt" height="504pt" viewBox="0 0 378 504" version="1.1">
<g id="data">
<rect x="0" y="0" width="378" height="504" style="fill:rgb(100%,100%,100%);fill-opacity:1;stroke:none;"/>
<path style=" stroke:none;fill-rule:nonzero;fill:rgb(100%,100%,100%);fill-opacity:1;" d="M 21 504L357 504L357 0L21 0 Z M 21 504 "/>
<path style=" stroke:none;fill-rule:nonzero;fill:#C2B855;fill-opacity:1;" d="M 287.4 374.6L287.6 374.6L287.8 374.6L287.6 374.8L286.9 374.8L287.4 374.6 Z M 294.7 380.7L294.8 381.3L294.6 383.0L293.9 384.6L292.4 386.4L290.4 387.6L288.1 388.0L286.2 387.8L284.5 387.0L282.7 385.3L281.6 383.2L281.4 382.2L281.4 380.2L282.1 378.2L283.3 376.6L285.5 376.9L286.1 378.1L284.2 378.1L282.4 379.3L282.9 380.0L290.6 381.6 Z M 291.5 380.3L290.4 381.0L287.3 380.4L286.8 377.9L290.5 378.7 Z M 291.5 380.3 "/>
















</g>
</svg>
