<?xml version="1.0" encoding="UTF-8"?>
<svg xmlns="http://www.w3.org/2000/svg" xmlns:xlink="http://www.w3.org/1999/xlink" width="378pt" height="504pt" viewBox="0 0 378 504" version="1.1">
<g id="data">
<rect x="0" y="0" width="378" height="504" style="fill:rgb(100%,100%,100%);fill-opacity:1;stroke:none;"/>
<path style=" stroke:none;fill-rule:nonzero;fill:rgb(100%,100%,100%);fill-opacity:1;" d="M 21 504L357 504L357 0L21 0 Z M 21 504 "/>
<path style=" stroke:none;fill-rule:nonzero;fill:rgb(77.6%,78.8%,62.3%);fill-opacity:1;" d="M 195.7 175.2L197.7 173.7L200.0 173.0L200.1 173.0L201.4 173.0L203.5 173.6L205.1 174.6L205.1 174.6L205.7 175.2L205.8 175.3L205.8 175.3L205.9 175.4L205.9 175.4L206.0 175.5L206.1 175.6L206.1 175.6L206.2 175.7L206.2 175.7L206.2 175.7L206.3 175.7L206.3 175.7L206.3 175.8L206.3 175.8L206.6 175.9L206.6 176.0L206.7 176.0L206.7 176.0L206.7 176.0L206.8 176.0L206.8 176.0L206.8 176.1L206.9 176.1L206.9 176.1L206.9 176.1L207.0 176.1L207.0 176.1L207.0 176.1L207.1 176.2L207.3 176.3L207.4 176.3L207.4 176.3L207.5 176.3L207.6 176.3L207.7 176.3L207.7 176.3L207.7 176.3L207.8 176.3L207.8 176.4L207.8 176.4L207.9 176.4L207.9 176.4L208.0 176.4L209.8 176.8L211.4 177.6L212.7 178.9L212.7 178.9L213.8 180.9L212.8 182.0L213.3 183.0L211.7 187.1L207.7 190.4L200.4 191.7L196.0 195.1L204.3 191.8L205.8 192.2L206.0 195.8L209.2 196.8L210.5 198.7L206.1 201.6L202.6 201.1L198.5 205.4L193.4 208.0L189.5 206.3L186.2 206.2L186.5 207.3L200.5 210.7L203.5 209.5L205.4 206.5L209.4 206.6L220.9 213.7L226.4 222.4L230.3 224.4L233.0 240.5L235.9 247.0L237.8 254.9L240.7 259.1L253.8 265.3L258.0 273.6L260.7 276.5L264.9 278.8L262.7 280.0L261.9 282.5L264.0 288.1L270.2 296.8L269.7 299.1L269.5 297.1L267.7 296.3L265.1 297.0L260.9 293.0L254.8 294.2L252.9 293.4L251.0 294.5L255.4 295.0L260.3 293.8L262.4 296.8L270.5 302.5L272.5 305.2L275.1 311.3L275.3 316.5L267.8 324.8L269.7 324.4L273.3 327.7L276.1 328.3L280.0 321.2L287.5 320.8L296.7 321.9L305.5 327.6L307.8 332.9L307.9 341.4L305.0 353.4L299.5 359.2L298.1 357.0L295.4 355.8L298.8 361.1L297.2 363.8L293.3 365.4L291.7 363.4L285.2 367.6L286.6 368.6L290.6 366.7L291.2 371.6L287.6 374.8L284.3 374.5L280.1 375.9L278.2 377.9L281.7 376.4L285.5 376.9L286.1 378.1L284.2 378.1L282.4 379.3L282.9 380.0L290.6 381.6L301.7 379.3L302.8 381.4L302.2 388.1L294.3 392.3L292.8 394.4L292.8 396.8L288.2 396.8L285.5 399.4L278.2 401.9L275.7 404.6L263.9 401.7L254.0 403.6L251.1 405.7L248.4 404.0L249.5 402.9L248.0 401.5L242.6 401.4L243.5 402.8L242.8 403.9L238.4 403.4L232.2 405.9L224.1 406.4L221.6 405.6L220.7 407.1L223.7 408.1L223.6 410.7L221.2 411.1L213.2 409.0L211.5 410.6L212.2 412.7L206.9 407.8L200.7 405.5L193.0 407.6L188.4 410.1L183.0 423.9L181.4 424.8L179.1 424.4L176.0 420.7L173.5 421.3L170.6 418.1L165.7 418.5L163.2 419.9L156.5 420.2L154.1 423.1L149.5 425.1L149.0 429.9L146.5 431.2L145.6 433.0L143.5 428.7L139.2 426.4L137.6 426.8L136.8 429.1L133.3 428.8L133.9 425.1L138.8 423L140.4 423.9L149.7 415.8L150.8 411.2L156.4 409.6L157.4 406.9L162.1 402.6L163.1 394.1L168.3 394.7L170.6 392.1L170.3 387.8L180.5 386.2L187.1 386.9L189.9 388.6L198.4 387.8L200.1 381.5L213.6 366.8L207.1 372.6L205.9 373.9L196.6 377.1L194.9 380.7L189.8 381.2L186.1 380.1L179.8 371.9L171.2 375.0L169.5 374.0L169.3 372.0L173.4 371.3L174.4 369.7L170.0 369.5L166.1 367.2L162.9 367.2L160.5 367.7L159.6 370.2L156.0 370.4L154.1 372.1L151.6 371.0L152.4 369.2L156.2 367.7L155.7 366.4L155.2 367.6L152.7 367.9L147.2 366.7L150.7 365.0L150.2 362.2L147.2 361.4L147.7 359.8L151.1 358.2L151.6 356.9L157.3 356.4L161.2 352.3L165.2 352.2L171.4 348.2L173.8 345.1L175.6 339.5L174.2 335.0L176.0 330.8L173.9 327.7L174.4 323.4L168.0 324.3L165.1 327.6L160.0 327.6L163.4 323.2L169.5 318.9L170.2 315.9L173.3 312.5L181.0 309.7L187.0 310.0L192.7 307.7L197.9 311.5L198.3 310.6L195.9 306.3L198.7 305.4L202.8 310.1L205.2 309.9L206.9 307.7L203.5 308.8L201.3 307.3L197.9 300.1L200.9 294.8L202.7 293.8L199.3 292.2L199.3 286.9L202.0 285.2L204.3 280.3L204.8 275.1L197.3 280.3L195.6 279.6L191.8 272.9L191.3 270.2L187.0 264.0L192.8 250.2L194.9 248.2L198.8 248.4L200.5 248.0L200.6 247.1L188.8 246.1L187.7 250.4L183.5 251.3L180.1 254.3L176.4 253.9L171.9 250.6L171.0 248.7L170.2 250.3L171.8 256.2L170.9 257.4L168.3 256.3L166.4 253.3L161.1 249.8L158.6 252.4L160.2 258.0L160.2 258.0L160.2 258L160.2 257.9L160.1 257.9L160.1 257.9L160.1 257.8L160.1 257.8L160.0 257.7L160.0 257.7L160.0 257.7L160.0 257.7L159.9 257.6L159.9 257.6L159.8 257.5L159.8 257.5L159.7 257.5L159.7 257.4L159.7 257.4L159.7 257.4L159.6 257.3L159.5 257.3L159.5 257.3L159.5 257.2L159.5 257.2L159.4 257.2L159.4 257.2L159.4 257.1L159.3 257.1L159.3 257.1L159.2 257.1L159.2 257.0L159.2 257.0L159.1 257.0L159.1 257.0L159.0 256.9L159.0 256.9L158.9 256.9L158.9 256.9L158.8 256.8L158.8 256.8L158.7 256.8L158.7 256.8L158.6 256.8L158.6 256.8L158.6 255.2L154.3 248.7L154.4 244.6L157.0 243.0L158.1 239.7L161.3 236.6L164.1 229.7L166.4 228.6L167.1 226.9L165.5 222.4L161.0 218.8L162.1 209.9L163.9 209.3L170.5 210.8L162.8 208.0L163.5 203.3L160.0 212.4L156.0 209.9L154.9 210.8L155.1 213.7L153.1 212.7L152.4 210.6L153.3 206.8L155.7 202.8L161.8 197.2L154.9 202.7L151.5 207.0L150.7 206.5L151.3 216.4L148.9 220.3L147.1 228.0L147 226.9L147 226.9L147.0 226.4L147.0 226.3L147.0 226.3L147.0 226.2L147.0 226.1L147.0 226.1L147.0 226.0L147.0 226.0L147.0 226.0L147 225.9L147 225.9L146.9 225.8L146.9 225.8L146.9 225.7L146.9 225.7L146.9 225.7L146.9 225.6L146.9 225.6L146.9 225.6L146.9 225.5L146.9 225.4L146.9 225.3L146.8 225.3L146.8 225.3L146.7 225.0L146.7 225.0L146.7 224.9L146.7 224.9L146.7 224.9L146.7 224.8L146.7 224.8L146.6 224.8L146.6 224.7L146.6 224.7L146.6 224.7L146.6 224.6L146.6 224.6L146.5 224.6L146.5 224.5L146.5 224.5L146.4 224.3L146.4 224.3L146.3 224.2L146.3 224.2L146.3 224.2L146.3 224.1L146.3 224.1L146.2 224.1L146.2 224.0L146.1 224.0L146.1 224L146.1 223.9L146.0 223.9L146.0 223.8L146.0 223.8L146.0 223.8L145.9 223.8L145.9 223.7L145.9 223.7L145.9 223.7L145.8 223.7L145.8 223.6L145.7 223.6L145.7 223.5L145.7 223.5L145.6 223.5L145.6 223.5L145.5 223.4L145.5 223.4L145.3 223.3L145.2 223.2L145.2 223.2L145.2 223.2L145.1 223.2L145.1 223.2L145.0 223.1L145.0 223.1L144.9 223.1L144.9 223.1L144.8 223.0L144.7 223.0L144.5 222.9L144.1 222.7L144.2 222.0L146.5 215.8L145.2 213.9L145.4 210.0L147.8 205.4L145.6 207.7L145.5 207.0L149.4 200.1L147.5 200.8L148.3 194.7L151.7 190.8L155.9 190.9L158.3 188.3L159.2 186.3L156.3 190.2L152.3 189.1L152.8 187.6L155.5 186.4L153.4 186.7L152.8 185.2L153.9 183.6L153.9 183.6L153.9 183.6L154.0 183.6L154.0 183.6L154.0 183.6L154.1 183.6L154.1 183.6L154.1 183.6L154.2 183.6L154.2 183.6L154.3 183.6L154.3 183.6L154.4 183.6L154.4 183.6L154.5 183.5L154.5 183.5L154.6 183.5L154.6 183.5L154.7 183.5L154.8 183.5L154.8 183.4L155.4 183.3L157.0 183.1L157.0 183.1L159.6 183.6L160.4 184.0L162.2 185.4L163.3 187.4L163.3 187.5L163.4 187.5L163.4 187.5L163.4 187.6L163.4 187.6L163.4 187.7L163.4 187.7L163.5 187.7L163.5 187.8L163.5 187.8L163.5 187.8L163.5 187.9L163.5 187.9L163.6 187.9L163.6 188.0L163.6 188.0L163.6 188.0L163.7 188.2L163.7 188.2L163.7 188.2L163.8 188.3L163.8 188.3L163.8 188.3L163.9 188.4L163.9 188.4L164 188.5L164.0 188.5L164.0 188.5L164.0 188.6L164.1 188.6L164.1 188.6L164.1 188.6L164.1 188.7L164.2 188.7L164.2 188.7L164.2 188.7L164.3 188.8L164.3 188.8L164.3 188.8L164.4 188.9L164.4 188.9L164.4 188.9L164.5 189.0L164.5 189.0L164.6 189.0L164.7 189.1L164.7 189.1L164.7 189.1L164.8 189.2L164.8 189.2L164.8 189.2L164.9 189.2L164.9 189.2L164.9 189.2L165.0 189.3L165.0 189.3L165.0 189.3L165.1 189.3L165.1 189.3L165.1 189.3L165.2 189.4L165.2 189.4L165.3 189.4L165.3 189.4L165.5 189.5L165.5 189.5L165.6 189.5L165.6 189.5L165.6 189.5L165.7 189.5L165.7 189.5L165.8 189.5L165.8 189.6L165.9 189.6L165.9 189.6L166.0 189.6L166.0 189.6L166.0 189.6L166.1 189.6L166.1 189.6L166.1 189.6L166.2 189.6L166.2 189.6L166.3 189.6L166.3 189.6L166.4 189.6L166.4 189.6L166.6 189.6L166.6 189.6L166.6 189.6L166.7 189.6L166.7 189.6L166.7 189.6L166.8 189.6L166.8 189.6L166.8 189.6L166.9 189.6L167.0 189.6L167.0 189.6L167.0 189.6L167.1 189.6L167.1 189.6L167.1 189.6L167.2 189.5L167.3 189.5L167.4 189.5L167.4 189.5L167.5 189.5L167.5 189.5L167.5 189.4L167.6 189.4L167.6 189.4L167.6 189.4L167.7 189.4L167.7 189.4L167.7 189.4L167.8 189.4L167.8 189.3L167.9 189.3L167.9 189.3L167.9 189.3L168.0 189.3L168.0 189.2L168.0 189.2L168.1 189.2L168.1 189.2L168.2 189.2L168.2 189.1L168.2 189.1L168.3 189.1L168.3 189.1L168.3 189.1L168.4 189.0L168.4 189.0L168.5 189.0L168.5 189L168.5 188.9L168.6 188.9L168.6 188.9L168.6 188.8L168.7 188.8L168.7 188.7L168.8 188.7L168.8 188.7L168.8 188.7L168.8 188.6L168.9 188.6L168.9 188.6L169 188.5L170.7 187.2L172.4 186.6L174.2 186.4L174.2 186.4L174.4 186.4L174.4 186.4L174.4 186.4L174.5 186.4L174.5 186.4L174.6 186.4L174.6 186.4L174.7 186.4L174.7 186.4L174.8 186.4L174.8 186.4L174.9 186.4L174.9 186.4L174.9 186.4L175.0 186.4L175.0 186.4L175.1 186.4L175.1 186.4L175.2 186.3L175.2 186.3L175.3 186.3L175.3 186.3L175.3 186.3L175.6 186.2L175.6 186.2L175.7 186.2L175.7 186.2L175.7 186.2L175.8 186.2L175.8 186.1L175.8 186.1L175.9 186.1L175.9 186.1L175.9 186.1L176.0 186.1L176.0 186.0L176.0 186.0L176.1 186.0L176.1 186.0L176.2 185.9L176.3 185.9L176.3 185.8L176.4 185.8L176.4 185.8L176.4 185.8L176.5 185.7L176.5 185.7L176.5 185.7L176.6 185.6L176.6 185.6L176.7 185.6L176.7 185.5L176.8 185.4L176.8 185.4L176.9 185.4L176.9 185.3L176.9 185.3L177.0 185.3L177.0 185.2L177.0 185.2L177.1 185.1L177.1 185.1L177.1 185.0L177.1 185.0L177.2 185.0L177.2 184.9L177.3 184.8L177.3 184.8L177.3 184.7L177.3 184.7L177.4 184.7L177.4 184.6L177.4 184.6L177.4 184.6L177.4 184.5L177.4 184.5L177.5 184.4L177.5 184.4L177.5 184.4L177.5 184.3L177.5 184.3L177.6 184.2L177.6 184.2L177.6 184.2L177.6 184.1L177.6 184.1L177.6 184.1L177.6 184.0L177.6 184.0L177.6 183.9L177.7 183.9L177.7 183.9L177.7 183.8L177.7 183.8L177.7 183.7L177.7 183.7L177.7 183.6L177.7 183.6L177.7 183.5L177.7 183.5L177.7 183.4L177.7 183.4L177.8 183.3L177.8 183.3L177.8 183.3L177.8 183.2L177.8 182.9L177.8 182.9L177.8 182.8L177.8 182.8L177.8 182.8L177.7 182.7L177.7 182.7L177.7 182.6L177.7 182.6L177.7 182.5L177.7 182.5L177.7 182.4L177.7 182.3L177.7 182.2L177.6 182.2L177.6 182.2L177.6 182.1L177.6 181.9L177.3 180.9L177.2 179.4L177.7 177.2L178.9 175.2L180.6 173.8L182.7 173.1L185.0 173.1L187.1 173.8L188.9 175.2L188.9 175.2L189.1 175.4L189.2 175.5L189.2 175.5L189.2 175.6L189.3 175.6L189.3 175.6L189.3 175.7L189.4 175.7L189.4 175.8L189.4 175.8L189.5 175.9L189.6 175.9L189.6 175.9L189.6 175.9L189.7 176.0L189.7 176.0L189.7 176.0L189.8 176.0L189.8 176.1L189.9 176.1L190.0 176.2L190.0 176.2L190.0 176.2L190.1 176.2L190.1 176.2L190.1 176.3L190.2 176.3L190.2 176.3L190.3 176.3L190.3 176.4L190.4 176.4L190.4 176.4L190.4 176.4L190.5 176.4L190.5 176.4L190.7 176.5L190.8 176.5L190.8 176.5L190.8 176.5L190.9 176.5L190.9 176.5L191.0 176.6L191.0 176.6L191.1 176.6L191.1 176.6L191.2 176.6L191.2 176.6L191.2 176.6L191.3 176.6L191.3 176.6L191.4 176.6L191.4 176.6L191.4 176.6L191.5 176.6L191.6 176.6L191.6 176.6L191.7 176.6L191.8 176.6L191.8 176.6L191.9 176.6L191.9 176.6L191.9 176.6L192.0 176.6L192.0 176.6L192.1 176.6L192.1 176.6L192.1 176.6L192.2 176.6L192.2 176.6L192.3 176.6L192.3 176.6L192.4 176.5L192.5 176.5L193.2 176.4L193.2 176.4L193.4 176.4L193.5 176.4L193.5 176.4L193.6 176.4L193.6 176.4L193.7 176.3L193.7 176.3L193.7 176.3L193.8 176.3L193.8 176.3L193.8 176.3L194.0 176.3L194.0 176.3L194.1 176.3L194.3 176.2L194.4 176.2L194.4 176.1L194.4 176.1L194.5 176.1L194.5 176.1L194.5 176.1L194.6 176.1L194.6 176.1L194.6 176.0L194.7 176.0L194.7 176.0L194.7 176.0L194.8 176.0L194.8 176.0L194.8 175.9L194.9 175.9L195.0 175.9L195.0 175.8L195.0 175.8L195.1 175.8L195.1 175.8L195.1 175.7L195.2 175.7L195.2 175.7L195.2 175.7L195.3 175.6L195.3 175.6L195.4 175.5L195.5 175.5L195.5 175.5L195.6 175.4L195.6 175.4L195.6 175.3L195.7 175.3 Z M 138.4 214.0L137.6 212.9L136.9 210.6L136.9 210.0L136.9 209.7L139.5 205.5L145.3 201.0L145.5 202.7L138.9 214.3 Z M 140.8 194.0L141.0 193.4L142.5 191.5L142.5 191.5L142.6 191.4L142.6 191.4L142.6 191.4L142.6 191.3L142.7 191.3L142.8 191.2L142.8 191.2L142.8 191.1L142.8 191.1L142.9 191.1L142.9 191.0L142.9 191.0L143.0 191.0L143.0 190.9L143.0 190.9L143.0 190.9L143.0 190.8L143.1 190.8L143.1 190.7L143.1 190.7L143.2 190.6L143.2 190.6L143.2 190.5L143.3 190.5L143.3 190.4L143.3 190.4L143.3 190.4L143.3 190.3L143.3 190.3L143.4 190.3L143.4 190.2L143.4 190.2L143.4 190.2L143.4 190.1L143.4 190.1L143.5 190.0L143.5 189.9L143.5 189.9L143.5 189.9L143.5 189.8L143.5 189.7L143.5 189.7L143.5 189.7L143.6 189.6L143.6 189.6L143.6 189.5L143.6 189.5L143.6 189.5L143.6 189.4L143.6 189.3L143.6 189.3L143.6 189.2L143.9 188.0L147.0 189.9L146.7 191.7L142.8 195.0L142.0 193.3 Z M 144.3 186.9L145.2 185.4L146.7 184.1L147.3 183.8L149.0 183.2L150.7 183.1L150.7 183.1L150.9 183.1L151.8 183.3L146.5 188.3 Z M 236.0 52.3L237.7 52.0L238.4 52.1L238.9 53.5L237.3 55.2L236.4 64.6L234.3 62.7L236.3 55.0 Z M 207.5 163.7L207.4 162.9L207.7 161.0L208.5 159.3L209.7 157.8L210.3 157.4L212.3 156.5L214.5 156.2L214.5 156.2L216.4 156.6L216.4 156.6L217.5 157.2L218.6 156.6L218.6 156.6L219.6 156.3L220.9 156.2L220.9 156.2L223.1 156.6L224.7 157.4L221.5 163.2L219.9 169.4L218.6 169.2L218.6 169.2L217.5 168.6L216.4 169.2L216.4 169.2L216.0 169.4L213.6 169.6L213.5 169.6L210.8 168.7L209.2 167.4L208.0 165.7 Z M 177.2 166.3L177.5 164.1L178.5 162.3L179.9 160.9L181.7 159.9L183.7 159.6L185.7 159.8L185.7 159.8L187.9 160.9L189.6 162.7L189.6 162.7L190.5 164.9L190.6 166.3L190.6 166.9L190.6 166.9L190.1 169.0L188.9 170.8L187.2 172.2L185.0 172.9L182.8 172.9L180.7 172.2L178.9 170.8L178.1 169.6L177.4 168.0 Z M 173.7 146.1L174.9 146.2L175.0 146.2L175.3 146.3L175.7 146.2L175.7 146.2L174.1 148.0L173.8 149.1L177.3 146.1L179.0 146.4L180.2 146.9L180.2 146.8L180.4 146.9L180.6 147.1L180.6 147.1L180.9 147.4L178.1 150.6L177.8 152.3L183.0 149.7L183.4 150.2L183.9 152.6L183.8 153.9L183.6 154.8L183.5 155.3L183.4 155.3L183.4 155.4L183.4 155.4L183.4 155.5L182.4 157.2L181.0 158.6L179.3 159.5L177.3 159.9L175.3 159.7L175.3 159.6L175.2 159.6L175.2 159.6L175.1 159.6L175.1 159.6L175.0 159.6L175.0 159.6L174.9 159.6L174.6 159.5L174.2 159.5L173.5 159.5L171.0 158.9L169.4 157.9L168.1 156.4L167.3 154.6L167.1 152.6L167.1 152.5L167.1 152.5L167.5 150.5L168.5 148.8L169.9 147.4L171.7 146.5 Z M 150.2 136.0L150.3 136.0L150.9 136.1L152.6 136.5L153.7 137.5L153.8 137.1L155.4 138.3L156.4 139.9L157.0 141.8L157.0 142.8L156.7 144.9L155.6 146.9L155.6 146.9L154.2 148.3L152.4 149.1L151.1 149.4L148.8 148.9L146.2 145.4L146.4 138.5L146.8 137.2L148.5 136.8L150.6 140.7L151.2 138.4L150.0 136.6 Z M 244.9 407.2L242.4 410.4L239.7 411.3L234.6 408.1L232.8 408.3L239.0 404.1L243.5 405.3 Z M 246.9 401.8L247.2 403.9L245.7 403.5 Z M 291.5 380.3L290.4 381.0L287.3 380.4L286.8 377.9L290.5 378.7 Z M 164.6 308.8L164.8 311.0L162.6 309.3L162.6 307.8 Z M 176.8 308.9L169.7 315.4L166.9 313.3L165.1 309.7L165.2 305.3L168.5 304.1L171.6 305.0L172.8 308.1 Z M 157.2 227.7L155.1 228.6L151.7 226.7L150.6 221.9L151.1 219.4L153.0 217.7L155.8 219.2L157.2 223.9 Z M 158.7 213.4L158.8 217.8L155.3 211.9L155.9 210.2 Z M 145.9 200.4L144.7 200.7L145.9 199.4 Z M 147.5 197.3L146.7 199.8L146.8 197.0 Z M 148.0 194.8L147.2 196.8L146.8 195.5 Z M 149.8 191.5L148.9 192.7L148.6 191.6 Z M 149.8 191.5 "/>
<path style=" stroke:none;fill-rule:nonzero;fill:rgb(77.6%,78.8%,62.3%);fill-opacity:1;" d="M 135.9 240.6L134.7 241.0L134.7 241.0L133.5 241.2L132.9 242.2L132.8 242.3L132.8 242.3L132.8 242.3L132.8 242.4L132.8 242.4L132.7 242.5L132.7 242.5L132.7 242.6L132.6 242.6L132.6 242.6L132.6 242.7L132.6 242.7L132.6 242.7L132.5 242.8L132.5 242.8L132.5 242.8L132.5 242.9L132.5 242.9L132.5 242.9L132.4 243.0L132.4 243.0L132.4 243.0L132.4 243.1L132.4 243.1L132.4 243.2L132.4 243.2L132.4 243.2L132.3 243.3L132.3 243.3L132.3 243.4L132.3 243.4L132.3 243.4L132.3 243.5L132.3 243.5L132.2 243.6L132.2 243.6L132.2 243.7L132.2 243.7L132.2 243.8L132.2 243.8L132.2 243.8L132.2 243.9L132.2 243.9L132.2 244.0L132.2 244.0L132.2 244.1L132.2 244.1L132.2 244.1L132.2 244.2L132.2 244.2L132.2 244.5L132.2 244.6L132.2 244.7L132.1 244.7L132.1 244.7L132.1 244.8L132.1 245.0L132.1 245.0L132.1 245.1L132.2 245.1L132.2 245.1L132.2 245.2L132.2 245.2L132.2 245.2L132.2 245.3L132.2 245.3L132.2 245.4L132.2 245.4L132.2 245.5L132.2 245.5L132.2 245.6L132.2 245.6L132.2 245.6L132.2 245.7L132.3 245.7L132.3 245.8L132.3 245.8L132.3 245.9L132.3 245.9L132.3 245.9L132.3 246.0L132.4 246.1L132.4 246.1L132.4 246.1L132.4 246.2L132.4 246.2L132.5 246.3L132.5 246.3L132.5 246.4L132.5 246.4L132.5 246.4L132.6 246.5L132.6 246.5L132.6 246.6L132.6 246.6L132.6 246.6L132.7 246.7L132.7 246.7L132.7 246.7L132.7 246.8L132.8 246.8L132.8 246.8L132.8 246.9L132.8 246.9L132.8 246.9L132.9 246.9L132.9 247.0L132.9 247.0L132.9 247.0L133.0 247.1L133.0 247.1L133.0 247.1L133.1 247.2L133.1 247.2L133.2 247.3L133.2 247.3L133.2 247.4L133.3 247.4L133.4 247.5L133.4 247.5L133.4 247.5L133.4 247.5L133.5 247.5L133.5 247.6L133.5 247.6L133.6 247.6L133.6 247.6L133.7 247.7L133.7 247.7L133.8 247.8L133.8 247.8L133.8 247.8L133.9 247.8L133.9 247.8L133.9 247.8L134.0 247.9L134.0 247.9L134.0 247.9L134.1 247.9L134.1 247.9L134.2 248.0L134.2 248.0L134.2 248.0L134.3 248.0L134.3 248.0L134.4 248.0L134.4 248.0L134.5 248.1L134.5 248.1L134.5 248.1L134.6 248.1L134.6 248.1L134.6 248.1L134.7 248.1L134.7 248.1L134.8 248.1L134.8 248.2L134.9 248.2L134.9 248.2L135.0 248.2L135.0 248.2L135.0 248.2L135.1 248.2L135.1 248.2L135.1 248.2L135.2 248.2L135.3 248.2L135.4 248.2L137.2 248.7L138.9 249.7L140.1 251.0L140.2 251.1L140.2 251.1L140.2 251.2L140.2 251.2L140.3 251.2L140.3 251.2L140.3 251.3L140.4 251.3L140.4 251.4L140.5 251.4L140.5 251.5L140.5 251.5L140.5 251.5L140.6 251.5L140.6 251.6L140.6 251.6L140.6 251.6L140.7 251.6L140.8 251.7L140.8 251.8L140.8 251.8L140.9 251.8L140.9 251.8L140.9 251.9L141.0 251.9L141.0 251.9L141.0 251.9L141.3 252.1L141.3 252.1L141.3 252.1L141.4 252.1L141.4 252.1L141.4 252.2L141.5 252.2L141.5 252.2L141.6 252.2L141.6 252.3L141.7 252.3L141.7 252.3L141.8 252.3L141.8 252.3L141.9 252.4L142 252.4L142.0 252.4L142.1 252.4L142.1 252.4L142.2 252.4L142.3 252.4L142.3 252.5L142.3 252.5L142.4 252.5L142.2 253.1L138.6 255.7L137.7 257.8L141.3 256.4L144.8 256.5L145.9 258.0L147.4 263.6L146.7 267.1L145.7 268.3L144.9 266.8L145.3 264.0L145.0 262.0L143.5 260.3L142.5 260.4L143.2 264.9L142.5 267.5L144.6 267.9L144.9 270.1L143.9 271.4L142.6 272.2L138.4 271.7L136.8 276.8L134.4 279.1L132.8 279.4L127.7 275.2L131.5 280.3L131.3 280.9L130.4 281.3L126.6 280.2L126.1 282.8L126.5 284.1L128.5 287.0L128.5 289.0L127.4 290.9L131.3 297.5L130.4 300.3L129.7 300.9L131.3 304.0L129.2 304.4L128.6 305.2L130.4 308.3L131.5 314.1L131.7 320.1L126.8 330.8L126.1 335.5L122.6 341.4L120.1 341.9L122.7 345.9L122.6 347.7L121.6 348.4L117.3 348.1L115.3 346.9L113.3 346.6L112.8 345.6L110.9 348.3L109.8 349.0L109.6 346.7L108.4 344.7L108.3 347.7L107.5 348.7L106.1 349.0L105.3 348.3L99.1 348.7L93.4 349.9L94.2 351.9L93.2 353.5L89.6 354.9L87.4 354.0L85.8 357.1L81.7 359.5L78.5 359.5L78.1 358.9L78.6 357.6L76.9 357.1L76.6 355.6L74.7 355.6L76.6 359.0L75.9 361.5L72.8 363.0L69.9 362.4L70.9 363.3L70.4 364.7L66.5 364.3L66.7 365.7L66.1 366.4L63.1 366.0L61.1 367.2L56.9 366.5L53.9 368.6L51.3 369.0L50.2 368.4L49.3 366.4L43.8 367.4L41.9 368.6L41.6 368.6L41.2 367.5L41.1 367.4L41.1 367.4L41.1 367.4L41.1 367.3L41.1 367.2L41.0 367.2L41.0 367.1L41.0 367.1L41.0 367.1L46.4 363.8L41.1 365.2L40.7 364.9L48.7 361.1L49.2 360.4L49.1 359.7L47.8 359.2L45.4 360.5L39.9 361.3L36.1 362.8L33.4 362.3L35.1 360.3L37.1 359.3L38.0 358.1L41.2 356.9L43.3 355.3L46.9 353.8L34.6 356.8L32.9 355.7L32.5 353.7L29.7 354.3L28.5 351.0L29.6 350.0L30.3 350.2L30.6 350.9L31.6 350.5L32.7 349.2L31.6 348.6L32.7 347.7L38.1 346.1L41.1 344.0L43.5 343.7L43.7 343.0L42.3 342.6L39.5 343.3L35.0 342.9L35.9 342.2L36.0 342.1L36.1 342.1L36.1 342.1L36.1 342.1L36.1 342.0L36.3 341.9L36.4 341.9L36.4 341.9L36.4 341.9L36.5 341.8L36.5 341.8L36.5 341.8L36.6 341.8L36.7 341.6L36.8 341.5L36.8 341.5L36.9 341.5L36.9 341.4L36.9 341.4L37.0 341.4L37.0 341.3L37.1 341.3L37.1 341.2L37.1 341.2L37.1 341.2L37.1 341.2L37.2 341.1L38.7 339.6L38.8 339.5L38.8 339.5L38.8 339.5L38.9 339.5L38.9 339.5L39.0 339.4L39.0 339.4L39.1 339.3L39.1 339.3L39.1 339.3L39.2 339.2L39.2 339.2L39.2 339.2L39.2 339.2L39.3 339.1L39.4 339.0L39.4 339.0L39.4 338.9L39.5 338.9L39.5 338.9L39.5 338.8L39.5 338.8L39.6 338.8L39.6 338.7L39.6 338.7L39.6 338.7L39.7 338.6L39.8 338.8L41.0 339.4L44.6 339.1L42.7 337.6L43.1 334.8L41.8 332.8L47.6 331.0L47.9 328.8L49.1 327.8L56.6 328.1L65.6 326.0L71.8 326.2L65.2 324.6L64.9 321.5L63.5 322.4L61.2 325.6L59.4 326.7L56.8 327.3L56.4 326.3L53.5 326.4L50.9 324.7L46.4 327.0L42.8 327.1L44.5 325.8L45.6 325.4L45.8 325.3L45.8 325.3L45.8 325.3L45.9 325.3L45.9 325.3L45.9 325.3L46.0 325.3L46.1 325.2L46.2 325.2L46.2 325.2L46.2 325.2L46.3 325.2L46.3 325.1L46.4 325.1L46.4 325.1L46.4 325.1L46.5 325.1L46.5 325.1L46.5 325.0L46.6 325.0L46.6 325.0L46.6 325.0L46.7 325.0L46.7 324.9L46.8 324.9L46.8 324.9L46.9 324.8L46.9 324.8L47 324.8L47.0 324.8L47.0 324.8L47.0 324.7L47.1 324.7L47.1 324.7L47.2 324.6L47.2 324.6L47.3 324.5L47.3 324.5L47.3 324.5L47.4 324.4L47.4 324.4L47.4 324.4L47.5 324.3L47.5 324.3L47.5 324.2L47.6 324.2L47.6 324.2L47.6 324.1L47.7 324.1L47.7 324.1L47.7 324.0L47.7 324.0L47.7 324.0L47.8 324.0L47.9 323.7L47.9 323.7L47.9 323.7L48 323.6L48.0 323.6L48.0 323.6L48.0 323.5L48.0 323.4L48.1 323.4L48.1 323.4L48.1 323.3L48.1 323.3L48.2 323.2L50.1 321.8L52.5 320.6L53.7 318.8L53.7 318.8L53.7 318.8L53.7 318.8L53.8 318.8L53.8 318.7L53.8 318.7L53.9 318.7L53.9 318.6L54.0 318.6L54.0 318.6L54.1 318.5L54.1 318.5L54.1 318.5L54.3 318.3L54.3 318.3L54.3 318.3L54.4 318.2L54.4 318.2L54.4 318.2L54.4 318.1L54.5 318.1L54.5 318.1L54.5 318.1L54.5 318.0L54.5 318.0L54.6 318.0L54.6 317.9L54.6 317.9L54.6 317.9L54.7 317.7L54.8 317.7L54.8 317.6L54.8 317.6L54.8 317.6L54.8 317.5L54.9 317.5L54.9 317.4L54.9 317.4L54.9 317.4L54.9 317.3L54.9 317.3L55.0 317.3L55.0 317.2L55.0 317.2L55.0 317.2L55.0 317.0L55.1 317.0L55.1 316.9L55.1 316.9L55.1 316.8L55.1 316.8L55.1 316.7L55.1 316.7L55.1 316.6L56.0 315.3L55.4 314.7L55.4 314.6L55.4 314.6L55.5 314.3L55.5 314.3L55.5 314.3L55.5 314.2L55.5 314.1L55.5 314.1L55.5 314.1L55.5 314.0L55.5 314.0L55.5 314L55.5 313.9L55.5 313.9L55.5 313.8L55.5 313.7L55.5 313.7L55.5 313.6L55.5 313.6L55.5 313.5L55.5 313.4L55.5 312.9L55.5 312.9L55.6 312.2L59.0 307.8L59.8 307.4L61.9 307.7L66.6 307.1L67.4 305.5L66.3 304.9L66.5 303.5L65.9 303.2L54.4 303.3L54.4 303.2L54.3 303.2L54.3 303.2L54.2 303.2L54.2 303.1L54.2 303.1L54.1 303.1L54.1 303.1L53.1 301.9L52.1 302.1L53.2 298.0L52.2 298.6L51.4 297.9L48.7 299.8L46.9 299.6L46.4 298.1L48.0 296.4L47.1 295.4L44.4 296.4L40.7 294.6L42.5 293.5L43.0 292.6L41.3 291.1L41.1 289.7L42.7 289.3L44.4 289.6L44.5 288.4L45.0 288.2L48.0 288.2L50.7 289.0L48.4 287.9L47.3 286.5L47.1 284.8L48.0 283.0L49.7 282.4L54.8 282.0L54.2 280.9L55.2 279.3L54.8 278.7L51.8 278.0L48.4 278.4L47.6 277.0L46.7 277.9L44.6 274.8L43.6 274.4L45.1 274.3L47.5 274.9L49.5 276.4L49.5 276.4L49.6 276.5L49.6 276.5L49.7 276.6L49.7 276.6L49.7 276.6L49.8 276.7L49.9 276.7L49.9 276.7L49.9 276.8L49.9 276.8L50.0 276.8L50.0 276.8L50.1 276.9L50.1 276.9L50.3 277.0L50.3 277.0L50.4 277.1L50.4 277.1L50.4 277.1L50.5 277.1L50.5 277.1L50.5 277.1L50.7 277.2L50.7 277.2L50.7 277.2L50.8 277.2L50.8 277.3L50.9 277.3L50.9 277.3L50.9 277.3L51.0 277.3L51.0 277.3L51.1 277.3L51.1 277.4L51.2 277.4L51.2 277.4L51.3 277.4L51.4 277.4L51.4 277.4L51.5 277.4L51.5 277.4L51.6 277.4L51.6 277.4L51.7 277.4L51.7 277.4L51.7 277.5L51.8 277.5L51.8 277.5L51.9 277.5L52.1 277.5L52.1 277.5L52.1 277.5L52.2 277.5L52.2 277.5L52.3 277.4L52.4 277.4L52.4 277.4L52.4 277.4L52.5 277.4L52.5 277.4L52.6 277.4L52.6 277.4L52.6 277.4L52.7 277.4L52.8 277.4L52.8 277.3L52.9 277.3L52.9 277.3L53.1 277.2L53.2 277.2L53.2 277.2L53.2 277.2L53.3 277.2L53.3 277.2L53.3 277.2L53.4 277.1L53.4 277.1L53.5 277.1L53.5 277.1L53.6 277.0L53.6 277.0L53.6 277.0L53.7 277.0L53.7 276.9L53.8 276.9L53.8 276.9L53.9 276.9L53.9 276.8L53.9 276.8L54 276.8L54.0 276.8L54.2 276.6L54.2 276.6L54.3 276.6L54.3 276.6L54.3 276.5L54.3 276.5L54.4 276.5L54.4 276.5L54.5 276.4L54.5 276.4L54.5 276.3L54.6 276.3L54.7 276.2L54.8 276.1L54.8 276.1L54.8 276.1L54.8 276.0L54.9 276.0L54.9 275.9L54.9 275.9L55.0 275.9L55.0 275.9L55.0 275.8L55.0 275.8L55.1 275.8L55.2 275.6L55.2 275.5L55.2 275.5L55.2 275.5L55.2 275.4L55.3 275.4L55.3 275.4L55.3 275.3L55.3 275.3L55.3 275.2L55.4 275.2L55.4 275.2L55.4 275.1L55.4 275.1L55.4 275.0L55.5 274.8L55.5 274.8L55.5 274.8L55.5 274.7L55.5 274.7L55.6 274.6L55.6 274.5L55.6 274.5L55.6 274.4L55.6 274.4L55.6 274.4L55.6 274.3L55.6 274.3L55.6 274.2L55.6 274.2L55.6 274.1L55.6 274.1L55.6 274.1L55.6 274.0L55.6 274.0L55.6 274.0L55.6 273.8L55.6 273.8L55.6 273.7L55.6 273.7L55.6 273.6L55.6 273.6L55.6 273.5L55.6 273.5L55.6 273.4L55.6 273.4L55.6 273.3L55.5 272.6L55.5 272.3L55.9 270.3L56.7 268.5L58.1 267.1L59.9 266.1L61.8 265.7L62.9 265.7L62.9 265.7L64.5 266.1L64.5 266.3L66.1 269.2L67.9 266.2L67.9 266.2L67.9 266.2L68 266.2L68.0 266.2L68.0 266.2L68.0 266.1L68.1 266.1L68.1 266.1L68.2 266.1L68.2 266.1L68.3 266.0L68.3 266.0L68.4 266.0L68.4 265.9L68.5 265.9L68.5 265.9L68.5 265.8L68.5 265.8L68.6 265.8L68.6 265.8L68.7 265.7L68.7 265.7L68.7 265.6L68.8 265.6L68.8 265.6L68.8 265.6L68.8 265.5L68.9 265.5L68.9 265.5L68.9 265.5L68.9 265.4L69.0 265.4L69.0 265.4L69.0 265.4L69.0 265.3L69.1 265.3L69.1 265.3L69.1 265.2L69.1 265.2L69.2 265.2L69.2 265.1L69.2 265.1L69.2 265.1L69.5 264.9L76.0 266.5L79.1 268.4L78.4 266.8L80.0 265.9L79.6 264.5L77.7 263.8L77.6 262.9L82.0 260.0L82.8 259.7L82.8 259.7L82.9 259.7L82.9 259.8L83 259.8L83.0 259.8L83.0 259.8L83.1 259.8L83.1 259.8L83.2 259.8L83.2 259.8L83.3 259.8L83.3 259.8L83.3 259.9L83.4 259.9L83.5 259.9L83.5 259.9L83.5 259.9L83.6 259.9L83.6 259.9L83.7 259.9L83.7 259.9L83.8 259.9L83.8 259.9L83.9 259.9L84.0 259.9L84.0 259.9L84.1 259.9L84.1 259.9L84.2 259.9L84.2 259.9L84.2 259.9L84.3 259.9L84.3 259.9L84.4 259.9L84.5 259.8L84.5 259.8L84.5 259.8L84.6 259.8L84.6 259.8L84.7 259.8L84.7 259.8L84.7 259.8L84.8 259.8L84.8 259.8L85.1 259.7L85.1 259.7L85.1 259.7L85.2 259.6L85.2 259.6L85.2 259.6L85.3 259.6L85.3 259.6L85.3 259.6L85.4 259.5L85.4 259.5L85.4 259.5L85.5 259.5L85.5 259.5L85.5 259.5L85.6 259.4L85.8 259.3L85.8 259.3L85.8 259.3L86.0 259.2L86.0 259.1L86.0 259.1L86.0 259.1L86.1 259.0L86.2 259.0L86.2 258.9L86.3 258.8L86.4 258.8L86.4 258.8L86.5 258.7L86.5 258.7L86.6 258.6L89.3 253.9L88.7 254.0L88.9 253.6L90.4 252.4L92.2 251.7L92.2 251.6L92.3 251.6L92.3 251.6L92.5 251.6L92.5 251.5L92.6 251.5L92.6 251.5L92.7 251.5L92.7 251.5L92.8 251.4L92.8 251.4L92.8 251.4L92.9 251.4L92.9 251.4L92.9 251.4L93.0 251.3L93.1 251.3L93.1 251.3L93.1 251.3L93.2 251.2L93.2 251.2L93.2 251.2L93.3 251.2L93.3 251.1L93.3 251.1L93.4 251.1L93.4 251.1L93.4 251.1L93.5 251.0L93.5 251.0L93.6 250.9L93.6 250.9L93.6 250.9L93.7 250.8L93.7 250.8L93.7 250.8L93.7 250.8L93.8 250.7L93.8 250.7L93.8 250.7L93.9 250.5L94.0 250.5L94.0 250.5L94.0 250.5L94.0 250.4L94.1 250.4L94.1 250.4L94.1 250.3L94.1 250.3L94.2 250.2L94.3 250.1L94.3 250.1L94.3 250.0L94.3 250.0L94.3 250.0L94.3 249.9L94.4 249.9L94.4 249.9L94.4 249.8L94.4 249.8L94.4 249.7L94.5 249.7L94.5 249.6L94.5 249.5L94.5 249.5L94.5 249.5L94.5 249.4L94.6 249.4L94.6 249.4L94.6 249.3L94.6 249.3L94.6 249.3L94.6 249.2L94.6 249.2L94.6 249.1L94.6 249.1L94.7 249.0L94.7 249.0L94.7 248.9L94.7 248.9L94.7 248.9L94.7 248.8L94.7 248.8L94.7 248.8L94.7 248.7L94.7 248.7L94.7 248.6L94.7 248.6L94.7 248.6L94.7 248.5L94.7 248.5L94.8 247.4L94.9 247.0L94.9 247.0L94.9 246.9L95.0 246.8L95.0 246.8L95.0 246.7L95.0 246.7L95.0 246.6L95.0 246.5L95.0 246.5L95.0 246.4L95.0 246.4L95.0 246.4L95.0 246.3L95.0 246.2L95.0 246.2L95.0 246.1L95.0 246.1L95.0 246.0L95.0 245.9L95.0 245.8L95.0 245.6L95.0 245.6L95.0 245.3L95.0 245.1L95.0 245.1L95.0 245.0L95.0 245.0L95.0 245.0L95.0 244.9L95.0 244.9L95.0 244.8L95.0 244.7L95.0 244.7L95.0 244.7L94.9 244.6L94.9 244.6L94.9 244.6L94.9 244.4L94.9 244.4L94.9 244.4L94.9 244.3L94.9 244.3L94.9 244.2L94.8 244.1L94.8 244.0L94.8 244.0L94.8 244.0L94.7 243.9L94.7 243.9L94.7 243.9L94.7 243.8L94.7 243.8L94.7 243.7L94.6 243.7L94.6 243.7L94.6 243.6L94.6 243.6L93.8 241.3L93.9 239.0L94.8 236.8L96.4 235.1L96.5 235.0L96.5 235.0L96.5 235.0L96.6 234.9L96.6 234.9L96.6 234.9L96.6 234.9L97.0 235.3L97.3 234.2L98.6 233.0L98.8 232.9L100.7 236.4L100.6 233.8L99.5 233.5L99.3 232.7L100.5 232.2L102.2 232.0L104 236.6L101.3 242.3L104.4 239.7L105.3 236.8L104.3 233.5L104.7 232.2L105.0 232.2L105.0 232.2L105.0 232.2L105.1 232.2L105.1 232.2L105.6 232.2L105.6 232.2L107.6 232.5L109.4 233.3L109.5 233.4L109.6 233.5L109.7 233.5L109.7 233.5L109.7 233.5L109.8 233.6L109.8 233.6L109.8 233.6L109.9 233.6L109.9 233.6L109.9 233.6L110.0 233.7L110.0 233.7L110.0 233.7L110.1 233.7L110.2 233.7L110.2 233.8L110.2 233.8L110.3 233.8L110.4 233.8L110.4 233.8L110.4 233.8L110.5 233.8L110.5 233.9L110.6 233.9L110.6 233.9L110.7 233.9L110.7 233.9L110.8 233.9L110.8 233.9L110.8 233.9L110.9 233.9L110.9 233.9L111.0 233.9L111.0 233.9L111.0 233.9L111.1 233.9L111.1 233.9L111.1 234L111.2 234L111.2 234.0L111.5 234.0L111.5 234L111.6 233.9L111.6 233.9L111.6 233.9L111.7 233.9L111.7 233.9L111.7 233.9L111.8 233.9L111.8 233.9L111.8 233.9L111.9 233.9L111.9 233.9L112.0 233.9L112.0 233.9L112.0 233.9L112.1 233.9L112.1 233.9L112.2 233.8L112.2 233.8L112.2 233.8L112.3 233.8L112.3 233.8L112.5 233.8L112.5 233.7L112.6 233.7L112.6 233.7L112.7 233.7L112.7 233.7L112.8 233.6L112.8 233.6L112.9 233.6L112.9 233.6L112.9 233.5L113.0 233.5L113.0 233.5L113.0 233.5L113.1 233.5L113.1 233.5L113.1 233.4L113.2 233.4L113.3 233.4L113.3 233.3L113.3 233.3L113.4 233.3L113.4 233.2L113.4 233.2L113.5 233.2L113.5 233.1L113.6 233.1L113.6 233.1L113.6 233.1L113.7 233.0L113.7 233.0L113.7 233.0L113.7 232.9L113.8 232.9L113.8 232.8L113.9 232.8L113.9 232.8L113.9 232.7L114.0 232.7L114.0 232.6L114.4 232.2L114.7 231.9L116.2 232.7L116.8 233.9L111.6 237.3L107.1 243.1L110.4 240.2L114.2 239.8L117.1 235.8L120.6 236.1L127.1 234.0L134.5 235.6L135.8 237.2 Z M 91.6 234.5L92.1 235.7L92.2 237.6L91.8 239.5L90.9 241.2L89.6 242.6L87.8 243.5L85.8 243.9L85.7 243.9L84.1 242.5L84.7 241.6L84.6 239.7L86.8 238.0L87.9 234.9L88.8 234.5L91.1 234.9 Z M 91.6 234.5 "/>
<path style=" stroke:none;fill-rule:nonzero;fill:rgb(77.6%,78.8%,62.3%);fill-opacity:1;" d="M 51.2 301.9L50.9 303.0L50.0 302.6L50.6 300.3L51.2 300.5 Z M 51.2 301.9 "/>
<path style=" stroke:none;fill-rule:nonzero;fill:rgb(77.6%,78.8%,62.3%);fill-opacity:1;" d="M 40.8 362.3L39.3 362.6L38.8 362.1L39.3 361.7L41.0 361.9 Z M 40.8 362.3 "/>
<path style=" stroke:none;fill-rule:nonzero;fill:rgb(77.6%,78.8%,62.3%);fill-opacity:1;" d="M 82.7 239.2L82.9 240.4L81.8 240.4L81.9 239.1 Z M 82.7 239.2 "/>
<path style=" stroke:none;fill-rule:nonzero;fill:rgb(77.6%,78.8%,62.3%);fill-opacity:1;" d="M 133.4 232.6L133.0 233.1L131.5 232.0L132.5 231.9 Z M 133.4 232.6 "/>
<path style=" stroke:none;fill-rule:nonzero;fill:rgb(77.6%,78.8%,62.3%);fill-opacity:1;" d="M 40.8 287.2L40.3 287.5L39.5 286.8L40.6 286.7 Z M 40.8 287.2 "/>
<path style=" stroke:none;fill-rule:nonzero;fill:rgb(77.6%,78.8%,62.3%);fill-opacity:1;" d="M 46.7 280.8L44.7 281.0L46.1 280.3 Z M 46.7 280.8 "/>
<path style=" stroke:none;fill-rule:nonzero;fill:rgb(77.6%,78.8%,62.3%);fill-opacity:1;" d="M 48.3 369.8L47.7 370.4L47.0 370.3 Z M 48.3 369.8 "/>
<path style=" stroke:none;fill-rule:nonzero;fill:rgb(77.6%,78.8%,62.3%);fill-opacity:1;" d="M 43.0 283.9L43.0 284.5L42.3 284.5 Z M 43.0 283.9 "/>
<path style=" stroke:none;fill-rule:nonzero;fill:rgb(77.6%,78.8%,62.3%);fill-opacity:1;" d="M 32.6 362.1L32.6 362.1L32.6 362.1L32.8 362.1 Z M 32.6 362.1 "/>
















</g>
</svg>
