<?xml version="1.0" encoding="UTF-8"?>
<svg xmlns="http://www.w3.org/2000/svg" xmlns:xlink="http://www.w3.org/1999/xlink" width="378pt" height="504pt" viewBox="0 0 378 504" version="1.1">
<g id="data">
<rect x="0" y="0" width="378" height="504" style="fill:rgb(100%,100%,100%);fill-opacity:1;stroke:none;"/>
<path style=" stroke:none;fill-rule:nonzero;fill:rgb(100%,100%,100%);fill-opacity:1;" d="M 21 504L357 504L357 0L21 0 Z M 21 504 "/>
<path style=" stroke:none;fill-rule:nonzero;fill:#C2B855;fill-opacity:1;" d="M 215.2 307.6L214.4 305.9L214.1 304.0L214.1 304.0L214.2 303.6L214.6 301.6L215.6 299.8L217.1 298.4L218.9 297.6L220.9 297.3L220.9 297.3L221.5 297.3L223.1 297.7L224.5 298.4L224.5 298.4L226.1 299.8L227.2 301.7L227.6 303.8L227.6 304.4L227.2 306.4L226.2 308.1L224.8 309.5L223.0 310.4L220.8 310.8L220.8 310.8L218.6 310.4L216.7 309.3L215.2 307.6 Z M 179.1 154.2L178.9 154.0L178.9 153.9L177.9 152.3L187.4 147.5L190.6 147.1L190.7 147.1L190.7 147.1L190.8 147.1L192.6 148.8L192.6 148.8L193.8 151.4L194.0 152.2L194.0 152.3L194.0 152.4L194.0 152.4L194.0 152.5L194.0 152.5L194.0 152.6L194.0 152.6L194.0 152.6L194.0 152.7L194.0 152.7L194.0 152.8L194.1 152.8L194.1 152.9L194.1 152.9L194.1 152.9L194.1 153.0L194.1 153.0L194.1 153.0L194.2 153.1L194.2 153.2L194.2 153.2L194.2 153.2L194.2 153.3L194.2 153.3L194.2 153.3L194.3 153.4L194.3 153.4L194.3 153.5L194.3 153.5L194.3 153.6L194.4 153.6L194.4 153.6L194.4 153.7L194.4 153.7L194.5 153.8L194.5 153.8L194.5 153.8L194.5 153.9L194.5 153.9L194.6 154L194.6 154.0L194.6 154.0L194.7 154.1L194.7 154.1L194.7 154.1L194.7 154.1L194.8 154.2L194.8 154.2L194.8 154.2L194.9 154.3L194.9 154.3L194.9 154.3L194.9 154.4L195.0 154.4L195.0 154.4L195.0 154.4L195.0 154.5L195.1 154.5L195.1 154.5L195.4 154.8L196.4 156.2L197.1 157.7L197.1 157.8L197.1 157.9L197.2 158.1L197.2 158.1L197.2 158.1L197.2 158.2L197.3 158.2L197.3 158.3L197.3 158.3L197.3 158.4L197.4 158.4L197.4 158.4L197.4 158.5L197.4 158.5L197.4 158.5L197.5 158.6L197.5 158.6L197.6 158.8L197.6 158.8L197.6 158.8L197.6 158.9L197.7 158.9L197.7 158.9L197.7 159.0L197.7 159.0L197.8 159.0L197.8 159.1L197.8 159.1L197.9 159.2L197.9 159.2L197.9 159.2L198.0 159.2L198.0 159.3L198.0 159.3L198.0 159.3L198.1 159.4L198.1 159.4L198.1 159.4L198.2 159.5L198.2 159.5L198.3 159.5L198.3 159.5L198.3 159.6L198.4 159.6L198.4 159.6L198.4 159.7L198.5 159.7L198.5 159.7L198.7 159.8L198.7 159.8L198.7 159.8L198.8 159.9L198.8 159.9L198.8 159.9L198.9 159.9L198.9 159.9L199.0 160.0L199.1 160.0L199.1 160.0L199.1 160.0L199.2 160.0L199.2 160.0L199.2 160.1L199.3 160.1L199.3 160.1L199.3 160.1L199.4 160.1L199.4 160.1L199.5 160.1L199.5 160.2L199.6 160.2L199.7 160.2L199.7 160.2L199.7 160.2L199.8 160.2L199.8 160.2L199.8 160.2L199.9 160.2L199.9 160.2L200.0 160.2L200.0 160.2L200.1 160.2L200.1 160.2L200.1 160.3L200.2 160.3L200.2 160.3L200.3 160.3L200.4 160.3L200.4 160.3L200.5 160.3L200.5 160.3L200.6 160.3L200.6 160.2L200.7 160.2L200.7 160.2L200.7 160.2L200.8 160.2L200.8 160.2L200.8 160.2L200.9 160.2L200.9 160.2L201 160.2L201.0 160.2L201.1 160.2L201.1 160.2L201.2 160.1L201.2 160.1L201.3 160.1L201.6 160.0L201.6 160.0L203.0 159.6L203.0 159.6L204.5 159.6L204.6 159.6L205.6 159.7L205.7 159.7L205.7 159.8L205.8 159.8L205.8 159.8L205.9 159.8L205.9 159.8L206.0 159.8L206.0 159.8L206.1 159.8L206.1 159.8L206.2 159.8L206.2 159.8L208.0 160.2L209.0 158.6L210.6 157.2L212.5 156.4L213.9 156.2L213.9 156.2L215.8 156.4L217.6 157.1L219.1 158.3L220.2 159.9L220.9 162.7L220.9 162.7L220.6 164.8L219.7 166.7L218.2 168.3L216.3 169.3L214.2 169.6L214.2 169.6L213.7 169.6L213.7 169.6L212 169.2L211.0 170.8L211.0 170.9L211.0 170.9L210.9 170.9L210.9 171.0L210.9 171.0L210.8 171.0L210.8 171.1L210.8 171.1L210.8 171.1L210.7 171.3L210.7 171.3L210.6 171.3L210.6 171.4L210.6 171.4L210.6 171.4L210.6 171.5L210.5 171.6L210.5 171.6L210.5 171.6L210.5 171.7L210.5 171.7L210.5 171.7L210.5 171.8L210.4 171.8L210.4 171.8L210.4 171.9L209.5 173.6L208.2 174.9L206.6 175.8L204.8 176.3L203.9 176.3L203.0 176.3L202.9 176.3L202.9 176.2L202.8 176.2L202.8 176.2L202.8 176.2L202.7 176.2L202.7 176.2L202.7 176.2L202.6 176.2L202.6 176.2L202.5 176.2L202.3 176.2L202.2 176.2L202.2 176.2L202.2 176.2L202.1 176.2L202.1 176.2L202.0 176.2L202.0 176.2L201.9 176.2L201.9 176.2L201.9 176.3L201.8 176.3L201.2 176.3L200.5 176.3L198.7 176.1L198.7 176.0L198.6 176.0L198.6 176.0L198.6 176.0L198.5 176.0L198.5 176.0L198.4 176.0L198.4 176.0L198.3 176L198.3 175.9L198.2 175.9L198.2 175.9L198.2 175.9L198.1 175.9L198.1 175.9L198.0 175.9L198.0 175.9L198 175.9L197.9 175.9L197.9 175.9L197.8 175.9L197.7 175.9L197.7 175.9L197.7 175.9L197.6 175.9L197.5 175.9L197.5 175.9L197.5 175.9L197.4 175.9L197.4 175.9L197.4 175.9L197.3 175.9L197.3 175.9L197.2 175.9L197.2 175.9L197.2 175.9L197.1 175.9L197.1 176.0L197.0 176.0L196.9 176.0L196.9 176.0L196.8 176.0L196.8 176.0L196.7 176.0L196.7 176.1L196.6 176.1L196.6 176.1L196.5 176.1L196.5 176.1L196.4 176.2L196.4 176.2L196.4 176.2L196.3 176.2L196.3 176.2L196.2 176.2L196.2 176.3L196.2 176.3L196.1 176.3L196.1 176.3L196.1 176.3L196.0 176.4L195.9 176.5L195.8 176.5L195.8 176.5L195.7 176.5L195.7 176.6L195.7 176.6L195.7 176.6L195.6 176.6L195.6 176.7L195.5 176.7L195.5 176.7L195.5 176.8L195.4 176.8L195.4 176.8L195.4 176.8L195.3 177L195.2 177.0L195.2 177.0L195.2 177.1L195.1 177.1L193.6 178.4L194.5 180.2L194.5 180.3L194.5 180.3L194.5 180.4L194.6 180.4L194.6 180.4L194.6 180.5L194.6 180.5L194.6 180.5L194.6 180.6L194.6 180.6L194.7 180.7L194.7 180.7L194.7 180.7L194.7 180.8L194.7 180.8L194.7 180.8L194.8 180.9L194.8 180.9L194.8 180.9L194.8 181.0L194.9 181.0L195.0 181.4L195.3 181.6L195.3 181.6L196.7 183.6L197.3 186.0L197.1 188.4L197.1 188.4L196.1 190.4L194.5 191.9L192.5 192.9L190.3 193.1L189.0 193L187.3 192.3L185.9 191.2L185.6 190.9L184.9 189.9L184.9 189.9L184.7 189.5L184.4 189.3L184.3 189.2L184.3 189.2L184.3 189.2L184.2 189.1L184.2 189.1L184.2 189.1L184.1 189.1L184.1 189.0L184.1 189.0L184.0 189.0L184.0 189.0L184.0 188.9L183.9 188.9L183.9 188.9L183.8 188.8L183.7 188.8L182.1 187.3L181.0 185.4L180.5 183.2L180.6 182.0L181.3 179.9L182.6 178.2L182.7 178.1L182.7 178.1L182.7 178.1L182.8 178.1L182.8 178.1L182.8 178.0L182.8 178.0L182.9 178.0L182.9 178.0L182.9 177.9L182.9 177.9L183.0 177.9L184.5 176.6L183.6 174.8L183.6 174.7L183.5 174.6L183.5 174.6L183.5 174.5L183.5 174.4L183.5 174.4L183.5 174.4L183.4 174.3L183.4 174.3L183.4 174.2L183.4 174.2L183.4 174.2L183.3 174.1L183.3 174.1L183.3 174.0L183.3 174.0L183.2 173.9L183.2 173.8L183.1 173.8L183.1 173.8L183.1 173.7L183.1 173.7L183.1 173.7L183.0 173.6L183.0 173.6L183.0 173.6L182.9 173.5L182.9 173.5L182.9 173.5L182.8 173.4L182.8 173.4L182.8 173.4L182.8 173.3L182.7 173.2L182.6 173.2L182.6 173.2L182.6 173.2L182.5 173.1L182.5 173.1L182.4 173.0L182.4 173.0L182.4 173.0L182.3 173.0L182.3 172.9L182.2 172.9L182.2 172.9L182.2 172.9L182.2 172.9L182.1 172.8L182.1 172.8L182.0 172.8L182.0 172.8L182.0 172.7L181.9 172.7L181.9 172.7L181.9 172.7L181.8 172.7L181.8 172.7L181.8 172.6L181.7 172.6L181.7 172.6L181.6 172.6L181.6 172.6L181.5 172.6L179.8 171.6L178.4 170.1L177.5 168.3L177.2 166.3L177.3 165.2L177.3 165.1L177.3 165.0L177.3 165.0L177.3 165.0L177.3 164.9L177.3 164.9L177.3 164.9L177.3 164.8L177.3 164.8L177.3 164.7L177.3 164.7L177.3 164.5L177.3 164.5L177.3 164.4L177.3 164.4L177.3 164.3L177.3 164.3L177.3 164.2L177.3 164.2L177.3 164.2L177.3 164.1L177.3 164.0L177.2 162.9L177.4 161.3L178.1 159.6L178.9 158.5L178.9 158.4L179.0 158.3L179.0 158.3L179.0 158.3L179.0 158.3L179.1 158.2L179.1 158.2L179.1 158.2L179.1 158.1L179.2 158.1L179.2 158.0L179.2 158.0L179.3 158.0L179.3 157.9L179.3 157.8L179.3 157.8L179.4 157.8L179.4 157.7L179.4 157.7L179.4 157.7L179.4 157.6L179.5 157.6L179.5 157.5L179.5 157.5L179.5 157.4L179.5 157.4L179.6 157.3L179.6 157.2L179.6 157.1L179.6 157.1L179.6 157.1L179.6 157.0L179.7 157.0L179.7 157.0L179.7 156.9L179.7 156.8L179.7 156.8L179.7 156.7L179.7 156.7L179.7 156.7L179.7 156.6L179.7 156.6L179.7 156.5L179.7 156.5L179.7 156.5L179.7 156.4L179.7 156.4L179.8 156.3L179.8 156.3L179.8 156.3L179.8 156.1L179.8 156.1L179.8 156.0L179.7 155.9L179.7 155.9L179.7 155.9L179.7 155.8L179.7 155.8L179.7 155.8L179.7 155.7L179.7 155.6L179.7 155.6L179.7 155.6L179.7 155.5L179.7 155.4L179.7 155.4L179.6 155.4L179.6 155.3L179.6 155.3L179.6 155.2L179.6 155.2L179.6 155.1L179.5 155.0L179.5 155.0L179.5 154.9L179.5 154.9L179.5 154.9L179.5 154.8L179.4 154.8L179.4 154.7L179.4 154.7L179.4 154.6L179.4 154.6L179.3 154.6L179.3 154.5L179.3 154.5L179.3 154.5L179.2 154.4 Z M 177.8 152.2L177.7 152.0L177.2 149.7L177.3 148.4L178.0 146.2L178.3 145.9L180.9 145.8L181.5 146.7L178.1 150.6 Z M 180.9 143.6L181.6 143.2L183.9 142.7L183.9 142.7L184.3 142.8L183.0 144.7L181.9 143.4 Z M 180.9 143.6 "/>
















</g>
</svg>
