<?xml version="1.0" encoding="UTF-8"?>
<svg xmlns="http://www.w3.org/2000/svg" xmlns:xlink="http://www.w3.org/1999/xlink" width="378pt" height="504pt" viewBox="0 0 378 504" version="1.1">
<g id="data">
<rect x="0" y="0" width="378" height="504" style="fill:rgb(100%,100%,100%);fill-opacity:1;stroke:none;"/>
<path style=" stroke:none;fill-rule:nonzero;fill:rgb(100%,100%,100%);fill-opacity:1;" d="M 21 504L357 504L357 0L21 0 Z M 21 504 "/>
<path style=" stroke:none;fill-rule:nonzero;fill:rgb(77.6%,78.8%,62.3%);fill-opacity:1;" d="M 126.9 184.1L126.8 183.1L126.8 182.9L126.9 182.5L127.5 181.8L130.9 180.0L129.8 182.3 Z M 206.7 98.5L206.1 99.7L205.7 100.2L203.8 98.7L199.6 99.7L196.6 97.6L197.2 91.4L199.5 90.8L201.9 91.8L204.3 96.5 Z M 204.1 102.8L204.0 102.8L204.1 103.0L204.0 103.0L204.0 103.3L203.9 104.0L203.9 104.0L203.7 104.5L203.8 104.9L203.8 105.0L203.8 105.0L203.8 105.1L203.8 105.1L203.8 105.2L203.8 105.2L203.8 105.3L203.8 105.3L203.9 105.3L203.9 105.4L203.9 105.5L203.9 105.5L203.9 105.6L203.9 105.6L203.9 105.7L203.9 105.7L203.9 105.7L204.0 105.8L204.0 105.8L204.0 105.8L204.0 105.9L204.0 106.0L204.0 106.0L204.1 106.1L204.1 106.1L204.1 106.1L202.5 103.2 Z M 207.3 145.2L207.4 145.9L207.1 148.1L206.1 150.1L204.5 151.6L202.5 152.6L202.4 152.6L202.4 152.6L202.2 152.7L202.2 152.7L202.1 152.7L202.1 152.7L202.1 152.7L202.0 152.8L201.9 152.8L201.9 152.8L201.9 152.8L201.8 152.9L201.8 152.9L201.7 152.9L201.7 152.9L201.6 153.0L201.6 153.0L201.6 153.0L201.5 153.1L201.4 153.1L201.4 153.1L201.4 153.1L201.3 153.1L201.3 153.2L201.3 153.2L201.3 153.2L201.2 153.2L201.1 153.3L201.1 153.4L201.1 153.4L201.0 153.4L201.0 153.4L201.0 153.5L200.9 153.5L200.9 153.5L200.9 153.6L200.9 153.6L200.8 153.7L200.8 153.7L200.7 153.7L200.7 153.8L200.7 153.8L200.6 153.9L200.6 153.9L200.6 153.9L200.6 154L200.5 154.0L200.5 154.0L200.5 154.1L200.5 154.1L200.5 154.1L200.4 154.2L200.4 154.2L200.4 154.3L200.4 154.3L200.4 154.3L200.3 154.4L200.3 154.4L200.3 154.5L200.3 154.5L200.2 154.6L200.2 154.7L200.2 154.7L200.2 154.7L200.2 154.8L200.2 154.8L200.1 154.9L200.1 154.9L200.1 154.9L200.1 155.0L200.1 155.0L200.1 155.0L200.1 155.1L200.1 155.1L200.1 155.2L200.1 155.2L200.1 155.2L200.0 155.3L200.0 155.3L200.0 155.4L200.0 155.4L200.0 155.5L200.0 155.5L200.0 155.5L200.0 155.6L200.0 155.6L200.0 155.7L200.0 155.7L200.0 156.0L200.0 156.0L200.0 156.1L200.0 156.1L200.0 156.1L200.0 156.2L200.0 156.2L200.0 156.2L200.0 156.3L200.0 156.3L200.0 156.4L200.1 156.4L200.1 156.4L200.1 156.5L200.1 156.5L200.1 156.6L200.1 156.7L200.1 156.7L200.1 156.8L200.1 156.8L200.2 157.0L200.2 157.0L200.3 157.1L200.3 157.3L200.3 157.4L200.4 157.4L200.4 157.5L200.4 157.5L200.4 157.5L200.4 157.6L200.5 157.6L200.5 157.7L200.5 157.7L200.5 157.8L200.6 157.8L200.6 157.9L200.6 157.9L200.7 158.1L200.8 158.1L200.8 158.2L200.8 158.2L200.8 158.2L200.9 158.3L200.9 158.4L201.0 158.4L201.0 158.4L201.0 158.5L201.0 158.5L201.1 158.5L201.1 158.5L201.1 158.6L201.1 158.6L201.2 158.6L201.2 158.6L201.2 158.7L201.3 158.7L201.3 158.7L201.3 158.8L201.4 158.8L201.4 158.8L201.4 158.9L201.5 158.9L201.5 158.9L201.5 158.9L201.6 158.9L201.6 159.0L201.7 159.0L201.7 159.0L201.8 159.1L201.8 159.1L201.8 159.1L201.9 159.1L201.9 159.2L201.9 159.2L202.0 159.2L202.0 159.2L202.1 159.2L202.1 159.3L202.1 159.3L202.2 159.3L202.2 159.3L202.3 159.3L202.3 159.4L202.6 159.4L202.6 159.4L202.6 159.5L202.7 159.5L202.7 159.5L202.7 159.5L202.8 159.5L202.9 159.5L202.9 159.5L203.0 159.5L203.0 159.5L203.0 159.5L203.1 159.5L203.1 159.5L203.1 159.5L203.2 159.6L203.2 159.6L203.3 159.6L203.3 159.6L203.4 159.6L203.6 159.6L203.7 159.6L203.7 159.6L203.7 159.6L205.2 159.6L205.2 159.6L205.3 159.7L205.3 159.7L205.4 159.7L205.4 159.7L205.5 159.7L205.5 159.7L205.6 159.7L205.6 159.7L205.6 159.7L205.9 159.7L205.9 159.7L206 159.7L206.0 159.7L206.0 159.7L206.1 159.7L206.1 159.7L206.2 159.7L206.2 159.7L206.3 159.6L206.3 159.6L206.8 159.6L206.8 159.6L207.2 159.6L209.6 159.9L211.6 161.0L212.4 161.8L212.5 161.8L212.5 161.9L212.5 161.9L212.6 161.9L212.6 162.0L212.7 162.0L212.7 162.0L212.7 162.1L212.7 162.1L212.8 162.1L212.9 162.2L212.9 162.2L212.9 162.2L212.9 162.3L213.0 162.3L213.0 162.3L213.0 162.3L213.1 162.3L213.1 162.4L213.1 162.4L213.2 162.4L213.2 162.5L213.3 162.5L213.3 162.5L213.4 162.5L213.4 162.6L213.4 162.6L213.5 162.6L213.5 162.6L213.6 162.6L213.6 162.6L213.7 162.7L213.7 162.7L213.7 162.7L213.8 162.7L213.8 162.7L213.8 162.7L214.0 162.8L214.0 162.8L214.1 162.8L214.1 162.8L214.1 162.8L214.2 162.8L214.2 162.9L214.3 162.9L214.3 162.9L214.3 162.9L214.4 162.9L214.4 162.9L214.5 162.9L214.5 162.9L214.6 162.9L214.6 162.9L214.7 162.9L214.7 162.9L214.8 162.9L214.8 162.9L216.4 163.3L216.4 163.3L216.5 163.3L216.5 163.3L216.5 163.3L216.6 163.3L216.6 163.4L216.6 163.4L216.7 163.4L216.8 163.4L216.9 163.4L216.9 163.4L217.0 163.4L217.0 163.4L217.0 163.5L217.1 163.5L217.1 163.5L217.1 163.5L217.2 163.5L217.2 163.5L217.3 163.5L217.3 163.5L217.4 163.5L217.4 163.5L217.6 163.5L217.6 163.5L217.7 163.5L217.7 163.5L217.8 163.5L217.8 163.5L217.9 163.5L217.9 163.5L217.9 163.5L218.0 163.5L218.0 163.4L218.1 163.4L218.1 163.4L218.1 163.4L218.2 163.4L218.2 163.4L218.2 163.4L218.3 163.4L218.3 163.4L218.4 163.4L218.4 163.4L218.5 163.4L218.6 163.3L218.6 163.3L218.6 163.3L218.6 163.3L218.6 163.3L218.7 163.3L219.3 163.2L220.6 163.0L220.9 163.1L221.6 163.0L221.5 163.2L218.1 176.3L212.8 182.0L213.3 183.0L211.7 187.1L207.7 190.4L200.4 191.7L196.0 195.1L204.3 191.8L205.8 192.2L206.0 195.8L209.2 196.8L210.4 198.6L210.3 198.8L206.1 201.6L202.6 201.1L198.5 205.4L193.4 208.0L189.5 206.3L186.2 206.2L186.5 207.3L199.4 210.4L199.2 210.9L197.6 212.2L197.6 212.3L197.5 212.3L197.5 212.3L197.5 212.4L197.4 212.4L197.4 212.4L197.3 212.5L197.3 212.5L197.3 212.5L197.2 212.5L197.2 212.6L197.1 212.6L197.1 212.6L197.0 212.7L197.0 212.8L197.0 212.8L196.9 212.8L196.9 212.9L196.9 212.9L196.8 212.9L196.8 213.0L196.8 213.0L196.7 213.1L196.7 213.1L196.7 213.1L196.7 213.1L196.7 213.2L196.6 213.2L196.5 213.4L196.5 213.4L196.5 213.5L196.5 213.5L196.4 213.5L196.4 213.6L196.4 213.6L196.4 213.6L196.4 213.7L196.4 213.7L196.3 213.8L196.3 213.8L196.3 213.9L196.3 213.9L196.2 214.0L196.2 214.1L196.2 214.1L196.2 214.2L196.2 214.2L206.6 216.4L206.6 216.4L206.7 216.3L206.7 216.3L206.7 216.3L206.8 216.2L206.8 216.2L206.8 216.2L206.9 216.1L206.9 216.1L206.9 216.1L206.9 216.1L207.0 216.0L207.0 216.0L207.0 215.9L207.1 215.9L207.1 215.9L207.1 215.8L207.2 215.8L207.2 215.8L207.2 215.7L207.2 215.7L207.3 215.6L207.3 215.6L207.3 215.6L207.4 215.5L207.4 215.5L207.4 215.4L207.4 215.4L207.5 215.3L207.5 215.3L207.5 215.2L207.5 215.2L207.5 215.2L207.6 215.1L207.6 215.1L207.6 215.0L207.6 215.0L207.6 215.0L207.6 214.9L207.7 214.9L207.7 214.9L207.7 214.8L207.7 214.7L207.8 214.7L208.5 213.1L210.0 211.4L212.1 210.3L214.5 210.0L214.9 210.0L219.8 213.0L219.8 213.1L220.6 214.9L220.6 214.9L220.7 215.0L220.7 215.0L220.7 215.1L220.7 215.2L220.8 215.3L220.8 215.3L220.8 215.3L220.8 215.4L220.8 215.4L220.8 215.4L220.9 215.5L220.9 215.5L220.9 215.6L220.9 215.6L220.9 215.6L220.9 215.7L221.0 215.8L221.0 215.8L221.1 215.9L221.1 215.9L221.1 215.9L221.1 216.0L221.2 216.0L221.2 216.0L221.2 216.1L221.3 216.1L221.3 216.2L221.3 216.2L221.4 216.3L221.4 216.3L221.4 216.3L221.5 216.3L221.5 216.4L221.5 216.4L221.5 216.4L221.6 216.5L221.6 216.5L221.7 216.5L221.7 216.6L221.7 216.6L221.8 216.6L221.8 216.7L221.8 216.7L221.9 216.7L221.9 216.7L221.9 216.8L222.0 216.8L222.0 216.8L222.2 216.9L222.2 217.0L222.3 217.0L222.3 217.0L222.3 217.0L222.4 217.0L222.4 217.0L222.4 217.1L222.5 217.1L222.5 217.1L222.5 217.1L222.6 217.1L222.6 217.1L222.6 217.1L222.7 217.2L222.8 217.2L222.8 217.2L222.9 217.2L222.9 217.2L223.0 217.3L223.0 217.3L223.0 217.3L223.1 217.3L223.2 217.3L226.4 222.4L230.3 224.4L232.5 238L232.3 238.2L231.9 238.6L231.9 238.7L231.8 238.7L231.8 238.7L231.8 238.8L231.7 238.8L231.6 238.9L231.6 238.9L231.6 238.9L231.5 239.0L231.5 239.0L231.5 239.1L231.4 239.1L231.4 239.1L231.4 239.2L231.4 239.2L231.3 239.2L231.3 239.3L231.3 239.3L231.3 239.3L231.2 239.4L231.1 239.5L231.1 239.6L231.1 239.6L231.1 239.6L231.1 239.7L231.0 239.7L231.0 239.7L231.0 239.8L231.0 239.8L231.0 239.8L230.9 239.9L230.9 240.0L230.9 240.0L230.9 240.1L230.9 240.1L230.9 240.1L230.8 240.2L230.8 240.2L230.8 240.2L230.8 240.3L230.8 240.3L230.8 240.4L230.8 240.4L230.8 240.5L230.8 240.5L230.7 240.6L230.7 240.6L230.7 240.7L230.7 240.7L230.7 240.8L230.7 240.8L230.7 240.9L230.7 240.9L230.7 240.9L230.7 241.0L230.7 241.0L230.7 241.1L230.7 241.3L230.7 241.4L230.7 241.4L230.7 241.5L230.7 241.5L230.7 241.5L230.7 241.6L230.7 241.6L230.7 241.7L230.7 241.7L230.7 241.7L230.7 241.8L230.7 241.8L230.8 241.9L230.8 242.0L230.8 242.0L230.9 242.8L230.9 243.1L230.9 243.1L231 243.6L230.8 245.1L230.8 245.1L230.7 245.2L230.7 245.3L230.7 245.3L230.7 245.4L230.7 245.4L230.7 245.4L230.7 245.5L230.7 245.5L230.7 245.6L230.7 245.6L230.7 245.6L230.7 245.7L230.7 245.7L230.7 245.8L230.7 246.0L230.7 246.1L230.7 246.1L230.7 246.2L230.7 246.2L230.7 246.3L230.7 246.4L230.7 246.4L230.7 246.4L230.7 246.5L230.7 246.5L230.8 246.6L230.8 246.6L230.8 246.7L230.8 246.7L230.8 246.8L230.8 246.8L230.8 246.9L230.8 246.9L230.9 247.0L230.9 247.0L230.9 247.1L230.9 247.1L230.9 247.1L230.9 247.2L231 247.2L231.0 247.3L231.0 247.3L231.0 247.3L231.0 247.4L231.0 247.4L231.1 247.4L231.1 247.5L231.1 247.5L231.1 247.6L231.1 247.6L231.2 247.7L231.2 247.7L231.3 247.8L231.3 247.8L231.3 247.8L231.3 247.9L231.4 247.9L231.4 247.9L231.4 248.0L231.4 248.0L231.4 248.0L231.5 248.1L231.5 248.1L231.6 248.2L231.6 248.2L231.6 248.2L231.6 248.2L231.7 248.3L231.7 248.3L231.7 248.3L231.8 248.4L231.8 248.4L231.9 248.4L231.9 248.5L232.0 248.5L232.0 248.5L233.2 249.9L234.0 251.6L234.3 253.4L234.3 253.4L234.3 253.6L234.2 254.7L234.2 254.8L234.2 254.8L234.2 254.9L234.2 254.9L234.2 254.9L234.2 255.0L234.2 255.0L234.2 255.1L234.2 255.1L234.2 255.1L234.2 255.2L234.2 255.4L234.2 255.5L234.2 255.5L234.2 255.5L234.2 255.6L234.2 255.7L234.2 255.7L234.2 255.8L234.2 255.8L234.2 255.8L234.2 255.9L234.3 256.2L234.3 256.2L234.3 257.0L234.3 257.1L234.3 257.2L234.3 257.2L234.3 257.2L234.3 257.3L234.3 257.4L234.3 257.4L234.3 257.5L234.4 257.5L234.4 257.5L234.4 257.6L234.4 257.7L234.4 257.7L234.4 257.8L234.4 257.9L234.4 257.9L234.5 258.0L234.5 258.0L234.5 258.1L234.5 258.2L234.5 258.2L234.6 258.3L234.6 258.3L234.6 258.4L234.6 258.4L234.6 258.4L234.7 258.5L234.7 258.5L234.7 258.5L234.7 258.6L234.7 258.6L234.7 258.6L234.8 258.7L234.8 258.7L234.8 258.7L234.9 258.8L234.9 258.9L234.9 258.9L234.9 258.9L235.0 259.0L235.0 259.0L235.0 259.0L235.0 259.1L235.0 259.1L235.1 259.1L235.1 259.2L235.2 259.2L235.2 259.3L235.3 259.4L235.3 259.4L235.3 259.4L235.4 259.4L235.4 259.5L235.4 259.5L235.5 259.5L235.5 259.6L235.6 259.6L235.6 259.7L235.7 259.7L235.7 259.7L235.7 259.7L235.8 259.7L235.8 259.8L235.8 259.8L235.9 259.9L236.0 259.9L236.0 259.9L236.0 259.9L236.1 259.9L236.1 260.0L236.1 260.0L236.2 260.0L236.2 260.0L236.3 260.0L236.3 260.1L236.3 260.1L236.4 260.1L236.4 260.1L236.4 260.1L236.5 260.1L236.5 260.1L236.5 260.2L236.6 260.2L236.6 260.2L236.7 260.2L236.8 260.2L236.8 260.2L236.8 260.2L236.9 260.3L236.9 260.3L237.0 260.3L237.0 260.3L237.1 260.3L237.1 260.3L237.2 260.3L237.2 260.3L237.2 260.3L237.3 260.3L237.3 260.3L237.4 260.3L237.4 260.3L237.5 260.3L237.5 260.3L237.6 260.3L237.6 260.3L237.7 260.3L238.3 260.4L239.1 260.5L239.9 260.7L240.1 260.8L240.1 260.8L240.2 260.8L240.2 260.8L240.2 260.8L240.3 260.8L240.3 260.9L240.4 260.9L240.4 260.9L240.5 260.9L240.5 260.9L240.6 260.9L240.6 260.9L240.7 260.9L240.7 260.9L240.8 260.9L240.8 260.9L240.8 260.9L240.9 260.9L241.2 260.9L241.2 260.9L241.3 260.9L241.3 260.9L241.3 260.9L241.4 260.9L241.4 260.9L241.5 260.9L241.5 260.9L241.5 260.9L241.6 260.9L241.6 260.9L241.7 260.9L241.8 260.8L241.8 260.8L241.8 260.8L241.9 260.8L241.9 260.8L241.9 260.8L242.0 260.8L242.2 260.7L243.6 260.5L253.8 265.3L258.0 273.6L259.3 275.0L258.0 276.1L257.9 276.2L257.8 276.2L257.8 276.3L257.8 276.3L257.8 276.3L257.7 276.3L257.7 276.4L257.7 276.4L257.6 276.4L257.6 276.4L257.6 276.4L257.5 276.5L257.4 276.6L257.4 276.6L257.3 276.7L257.2 276.8L257.2 276.8L257.1 276.9L257.1 276.9L257.1 277.0L257.1 277.0L257.0 277.0L257.0 277.0L257.0 277.1L257 277.1L256.9 277.2L256.8 277.3L255.3 279.0L253.4 280.1L253.3 280.1L253.2 280.2L253.2 280.2L253.2 280.2L253.1 280.2L253.1 280.2L253.0 280.3L253.0 280.3L253.0 280.3L252.9 280.3L252.9 280.3L252.9 280.3L252.8 280.4L252.8 280.4L252.8 280.4L252.7 280.4L252.6 280.5L252.6 280.5L252.6 280.5L252.5 280.6L252.5 280.6L252.5 280.6L252.4 280.6L252.4 280.6L252.4 280.7L252.3 280.7L252.3 280.7L252.2 280.8L252.2 280.8L252.1 280.9L252.1 280.9L252.1 280.9L252.0 281.0L252.0 281.0L252.0 281.0L252.0 281.0L251.9 281.2L251.8 281.2L251.8 281.2L251.8 281.2L251.8 281.3L251.8 281.3L251.7 281.3L251.7 281.4L251.7 281.4L251.7 281.4L251.6 281.5L251.6 281.5L251.6 281.5L251.6 281.6L251.5 281.6L251.5 281.7L251.5 281.7L251.5 281.7L251.5 281.8L251.4 281.8L251.4 281.8L251.4 281.9L251.4 281.9L251.4 282.0L251.4 282.0L251.3 282.0L251.3 282.1L251.3 282.1L251.3 282.2L251.3 282.3L251.3 282.3L251.2 282.3L251.2 282.4L251.2 282.4L251.2 282.5L251.2 282.5L251.2 282.6L251.2 282.7L251.1 282.7L251.1 282.8L251.1 282.8L251.1 282.8L251.1 282.9L251.1 282.9L251.1 282.9L251.1 283.0L251.1 283.0L251.1 283.0L251.1 283.1L251.1 283.1L251.1 283.2L251.1 283.2L251.1 283.2L251.1 283.3L251.1 283.4L251.1 283.5L251.1 283.5L251.1 283.9L250.8 286.0L250.1 287.5L249.0 288.7L247.5 289.8L245.8 290.5L243.9 290.6L242.1 290.2L242.1 290.2L241.1 289.7L241.1 289.7L241.0 289.7L241.0 289.7L241.0 289.7L240.9 289.6L240.9 289.6L240.9 289.6L240.8 289.6L240.8 289.6L240.7 289.6L240.7 289.5L240.7 289.5L240.6 289.5L240.4 289.4L240.3 289.4L240.3 289.4L240.3 289.4L240.2 289.4L240.2 289.4L240.2 289.4L240.1 289.4L240.1 289.4L240.1 289.4L240.0 289.3L240.0 289.3L239.9 289.3L239.9 289.3L239.9 289.3L239.8 289.3L239.8 289.3L239.8 289.3L239.7 289.3L239.7 289.3L239.6 289.3L239.6 289.3L239.6 289.3L239.3 289.3L239.3 289.3L239.3 289.3L239.2 289.3L239.2 289.3L239.2 289.3L239.1 289.3L239.1 289.3L239.0 289.3L239.0 289.3L238.9 289.3L238.9 289.3L238.9 289.3L238.8 289.4L238.8 289.4L238.7 289.4L238.7 289.4L238.6 289.4L238.6 289.4L238.6 289.4L238.5 289.4L238.5 289.4L238.3 289.5L238.2 289.5L238.2 289.5L238.1 289.6L238.1 289.6L238.1 289.6L238.0 289.6L238.0 289.6L238.0 289.6L237.9 289.7L237.9 289.7L237.9 289.7L237.8 289.7L237.8 289.8L237.7 289.8L237.6 289.8L237.6 289.9L237.5 289.9L237.5 289.9L237.5 289.9L237.4 290.0L237.4 290.0L237.4 290.0L237.3 290.0L237.3 290.1L237.3 290.1L237.2 290.1L237.2 290.2L237.2 290.2L237.1 290.2L237.1 290.2L237.1 290.3L237.1 290.3L237.0 290.3L237.0 290.4L237.0 290.4L237.0 290.4L236.9 290.4L236.9 290.5L236.9 290.5L236.8 290.6L236.8 290.6L236.8 290.6L236.7 290.7L236.7 290.7L236.7 290.8L236.6 290.8L236.6 290.9L235.2 292.5L233.3 293.5L233.3 293.5L233.2 293.6L233.2 293.6L233.2 293.6L233.1 293.6L233.1 293.6L233.0 293.6L233.0 293.7L233.0 293.7L232.9 293.7L232.9 293.7L232.9 293.7L232.8 293.7L232.8 293.8L232.8 293.8L232.6 293.9L232.6 293.9L232.5 293.9L232.5 294.0L232.4 294.0L232.4 294.0L232.3 294.1L232.3 294.1L232.3 294.1L232.3 294.2L232.2 294.2L232.2 294.2L232.2 294.3L232.1 294.3L232.1 294.3L232.1 294.3L232.0 294.4L232.0 294.4L232.0 294.4L232 294.5L231.9 294.5L231.9 294.6L231.8 294.6L231.8 294.6L231.8 294.7L231.7 294.7L231.7 294.8L231.7 294.8L231.7 294.9L231.6 294.9L231.6 294.9L231.6 294.9L231.6 295.0L231.5 295.0L231.5 295.1L231.5 295.1L231.5 295.2L231.5 295.2L231.4 295.2L231.4 295.3L231.4 295.3L231.4 295.4L231.4 295.4L231.3 295.5L231.3 295.5L231.3 295.5L231.3 295.7L231.3 295.8L231.2 295.8L231.2 295.8L231.2 295.9L231.2 295.9L231.2 295.9L231.2 296.0L231.2 296.1L231.2 296.1L231.2 296.1L231.2 296.2L231.2 296.2L231.1 296.3L231.1 296.3L231.1 296.3L231.1 296.4L231.1 296.4L231.1 296.5L231.1 296.5L231.1 296.5L231.1 296.6L231.1 296.6L231.1 296.7L231.1 296.8L231.1 296.8L231.1 296.9L231.1 296.9L231.1 296.9L231.1 297.0L231.1 297.0L231.1 297.0L231.1 297.1L231.2 297.1L231.2 297.2L231.2 297.2L231.2 297.2L231.2 297.3L231.2 297.3L231.2 297.4L231.2 297.5L231.2 297.5L231.2 297.6L231.3 297.6L231.3 297.6L231.3 297.7L231.3 297.7L231.3 297.7L231.3 297.8L231.3 297.8L231.3 297.9L231.4 297.9L231.4 297.9L231.4 298.0L231.4 298.0L231.4 298.1L231.5 298.1L231.5 298.2L231.5 298.2L231.5 298.3L231.5 298.3L231.6 298.3L231.6 298.4L231.7 298.6L231.7 298.6L231.7 298.6L231.8 298.7L231.8 298.7L231.8 298.7L231.8 298.7L231.9 298.8L231.9 298.8L232.0 298.9L232.0 298.9L232.0 299.0L232.1 299.0L232.1 299.0L232.1 299.1L232.2 299.1L232.2 299.1L233.3 300.5L233.3 300.6L233.4 300.6L233.4 300.7L233.5 300.7L233.5 300.7L233.5 300.8L233.5 300.8L233.5 300.8L233.6 300.9L233.6 300.9L233.7 301.0L233.7 301.1L233.8 301.1L233.8 301.1L233.8 301.2L233.8 301.2L233.9 301.2L233.9 301.3L234.1 301.4L234.1 301.4L234.1 301.4L234.2 301.5L234.2 301.5L234.2 301.5L234.3 301.5L234.3 301.6L234.3 301.6L234.4 301.6L234.4 301.6L234.4 301.6L234.5 301.7L235.4 302.4L235.5 302.4L235.5 302.4L235.6 302.5L235.6 302.5L235.6 302.6L235.7 302.6L235.7 302.6L235.7 302.6L235.8 302.6L235.8 302.7L235.9 302.8L236.0 302.8L236.1 302.8L236.1 302.8L236.1 302.9L236.1 302.9L236.2 302.9L236.2 302.9L236.3 302.9L236.3 302.9L236.4 303.0L236.4 303.0L236.4 303.0L236.5 303.0L236.5 303.0L236.5 303.0L236.8 303.1L236.8 303.1L236.8 303.1L236.9 303.2L237 303.2L237.0 303.2L237.0 303.2L237.1 303.2L237.1 303.2L237.1 303.2L237.2 303.2L237.2 303.2L237.2 303.2L237.3 303.2L237.4 303.2L237.4 303.2L237.4 303.2L237.5 303.3L237.5 303.3L237.6 303.3L237.6 303.3L237.8 303.3L237.8 303.3L237.9 303.3L237.9 303.3L237.9 303.3L238.0 303.2L238.1 303.2L238.1 303.2L238.2 303.2L238.2 303.2L238.2 303.2L238.3 303.2L238.3 303.2L238.4 303.2L238.4 303.2L238.4 303.2L238.5 303.2L238.5 303.2L238.5 303.2L238.6 303.1L238.6 303.1L238.7 303.1L238.9 303.1L238.9 303.0L238.9 303.0L239.0 303.0L239.0 303.0L239.0 303.0L239.1 303.0L239.1 302.9L239.2 302.9L239.2 302.9L239.3 302.9L239.3 302.9L239.3 302.8L239.4 302.8L239.4 302.8L239.5 302.7L239.6 302.7L239.6 302.6L239.7 302.6L239.7 302.6L239.7 302.6L239.8 302.6L239.8 302.5L239.8 302.5L239.8 302.5L239.9 302.4L239.9 302.4L240.0 302.4L240.0 302.3L240.1 302.3L240.1 302.3L240.1 302.2L240.1 302.2L240.2 302.2L240.2 302.1L240.3 302.1L240.3 302.0L240.3 302.0L240.3 302.0L240.4 301.9L240.4 301.9L240.4 301.9L240.4 301.9L240.5 301.8L240.5 301.8L240.5 301.8L240.6 301.6L240.6 301.6L240.6 301.6L240.6 301.5L241.1 300.9L241.0 300.1L241.0 300.1L241.7 297.7L243.2 295.7L245.3 294.4L247.7 294L250.1 294.4L250.1 294.4L251.8 295.3L253.1 296.6L254.1 298.5L254.5 300.7L254.5 300.7L254.3 302.2L253.7 303.7L253.7 303.7L253.1 304.6L253.2 305.3L253.2 305.4L253.2 305.4L253.2 305.5L253.2 305.5L253.2 305.5L253.2 305.7L253.2 305.7L253.2 305.8L253.2 305.8L253.2 305.9L253.2 305.9L253.2 305.9L253.2 306.0L253.2 306.1L253.2 306.1L253.2 306.1L253.2 306.2L253.2 306.2L253.2 306.2L253.3 306.3L253.3 306.3L253.3 306.4L253.3 306.5L253.3 306.5L253.3 306.5L253.3 306.6L253.3 306.6L253.4 306.7L253.4 306.8L253.4 306.8L253.4 306.8L253.4 306.9L253.4 306.9L253.5 306.9L253.5 307.0L253.5 307.0L253.5 307.1L253.5 307.1L253.6 307.2L253.6 307.2L253.6 307.2L253.6 307.3L253.6 307.3L253.7 307.3L253.7 307.5L253.8 307.5L253.8 307.5L253.8 307.6L253.8 307.6L253.8 307.6L253.9 307.6L253.9 307.7L253.9 307.7L253.9 307.7L254.0 307.8L254.0 307.8L254.1 307.9L254.1 307.9L254.1 308.0L254.2 308.0L254.2 308.0L254.3 308.1L254.3 308.1L254.4 308.2L254.5 308.3L254.5 308.3L254.5 308.3L254.6 308.3L254.6 308.4L254.6 308.4L254.7 308.4L254.7 308.4L254.8 308.5L256.3 309.9L257.4 311.7L257.8 313.7L257.8 313.7L257.8 313.9L257.6 315.9L256.7 317.8L255.3 319.4L253.5 320.4L251.4 320.8L251.1 320.8L249.2 320.5L247.5 319.8L246.1 318.5L245.0 317.0L244.5 315.2L244.4 314.1L244.4 313.2L244.4 313.2L245.2 310.8L245.3 310.8L245.3 310.8L245.3 310.7L245.3 310.7L245.3 310.6L245.4 310.6L245.4 310.6L245.4 310.5L245.4 310.5L245.4 310.4L245.4 310.4L245.5 310.4L245.5 310.3L245.5 310.3L245.5 310.3L245.5 310.2L245.5 310.2L245.5 310.1L245.6 310.1L245.6 310.1L245.6 310.0L245.6 310.0L245.6 310.0L245.6 309.9L245.6 309.8L245.6 309.8L245.6 309.8L245.6 309.7L245.6 309.7L245.6 309.7L245.7 309.6L245.7 309.6L245.7 309.6L245.7 309.5L245.7 309.5L245.7 309.4L245.7 309.4L245.7 309.4L245.7 309.3L245.7 309.3L245.7 309.2L245.7 309.1L245.7 309.1L245.7 309.0L245.7 309.0L245.7 309.0L245.7 308.9L245.7 308.9L245.7 308.8L245.7 308.8L245.7 308.8L245.7 308.7L245.6 308.7L245.6 308.7L245.6 308.6L245.6 308.6L245.6 308.5L245.6 308.5L245.6 308.4L245.6 308.3L245.6 308.3L245.6 308.3L245.5 308.2L245.5 308.2L245.5 308.1L245.5 308.0L245.5 308.0L245.5 308.0L245.5 307.9L245.4 307.9L245.4 307.9L245.4 307.8L245.4 307.8L245.4 307.7L245.3 307.7L245.3 307.7L245.3 307.6L245.3 307.6L245.3 307.6L245.3 307.5L245.2 307.5L245.1 307.4L245.1 307.3L245.1 307.3L245.1 307.3L245.1 307.2L245.0 307.2L245.0 307.2L245.0 307.1L244.9 307.1L244.9 307.0L244.8 306.9L244.8 306.9L244.8 306.9L244.7 306.8L244.7 306.7L244.6 306.7L244.6 306.7L244.5 306.6L244.5 306.6L244.5 306.6L244.4 306.6L244.4 306.5L244.4 306.5L244.3 306.5L244.3 306.5L244.3 306.4L244.3 306.4L244.2 306.4L244.2 306.4L244.1 306.3L243.3 305.7L243.2 305.7L243.2 305.6L243.2 305.6L243.2 305.6L243.2 305.6L243.1 305.5L243.1 305.5L243.1 305.5L243.0 305.5L243.0 305.5L243.0 305.4L242.9 305.4L242.9 305.4L242.8 305.3L242.8 305.3L242.7 305.3L242.7 305.3L242.7 305.3L242.6 305.2L242.6 305.2L242.6 305.2L242.5 305.2L242.5 305.2L242.5 305.1L242.5 305.1L242.4 305.1L242.3 305.1L242.3 305.1L242.2 305.0L242.2 305.0L242.2 305.0L242.1 305.0L242.1 305.0L242.1 305.0L242.0 305.0L242.0 305.0L241.9 304.9L241.9 304.9L241.9 304.9L241.8 304.9L241.8 304.9L241.7 304.9L241.7 304.9L241.6 304.9L241.6 304.9L241.6 304.8L241.5 304.8L241.5 304.8L241.5 304.8L241.4 304.8L241.3 304.8L241.3 304.8L241.3 304.8L241.2 304.8L241.2 304.8L241.2 304.8L241.1 304.8L240.9 304.8L240.9 304.8L240.8 304.8L240.8 304.8L240.7 304.8L240.7 304.8L240.7 304.8L240.6 304.8L240.6 304.8L240.6 304.8L240.5 304.8L240.5 304.8L240.5 304.8L240.4 304.9L240.4 304.9L240.3 304.9L240.3 304.9L240.2 304.9L240.2 304.9L240.1 304.9L240.1 304.9L240.0 305L240.0 305.0L239.9 305.0L239.9 305.0L239.8 305.0L239.8 305.0L239.7 305.0L239.7 305.1L239.7 305.1L239.6 305.1L239.6 305.1L239.6 305.1L239.5 305.1L239.5 305.2L239.5 305.2L239.4 305.2L239.4 305.2L239.4 305.2L239.3 305.2L239.3 305.3L239.1 305.4L239.1 305.4L239.1 305.4L239.0 305.4L239.0 305.5L239.0 305.5L238.9 305.5L238.9 305.5L238.8 305.6L238.8 305.6L238.8 305.6L238.7 305.7L238.7 305.7L238.7 305.7L238.7 305.8L238.6 305.8L238.6 305.8L238.6 305.8L238.6 305.9L238.5 305.9L238.5 305.9L238.5 306.0L238.4 306.0L238.4 306.1L238.4 306.1L238.3 306.1L238.3 306.1L238.3 306.2L238.2 306.2L238.2 306.3L238.2 306.4L238.1 306.4L238.1 306.4L238.1 306.5L238.1 306.5L238.1 306.5L238.1 306.6L238.0 306.6L238.0 306.6L238.0 306.7L238.0 306.7L238 306.8L237.9 306.8L237.9 306.9L237.9 306.9L237.9 306.9L237.9 307.0L237.8 307.0L237.8 307.2L237.8 307.2L237.8 307.3L237.8 307.3L237.7 307.4L237.7 307.4L237.7 307.5L237.7 307.5L237.7 307.5L237.7 307.6L237.7 307.6L237.7 307.6L237.7 307.7L237.7 307.7L237.7 307.8L237.7 307.8L237.7 307.8L237.7 307.9L237.6 307.9L237.6 308.5L237.6 308.5L237.6 308.6L237.6 308.7L237.6 308.7L237.5 308.8L237.5 308.8L237.5 308.8L237.5 308.9L237.5 308.9L237.5 308.9L237.5 309.2L237.5 309.2L237.5 309.3L237.5 309.3L237.5 309.4L237.6 309.5L237.6 309.5L237.6 309.6L237.6 309.7L237.6 309.9L237.6 311.7L237.6 311.8L237.6 311.9L237.6 311.9L237.6 312.0L237.6 312.0L237.6 312.1L237.5 312.1L237.5 312.2L237.5 312.2L237.5 312.2L237.5 312.3L237.5 312.3L237.5 312.6L237.5 312.6L237.5 312.6L237.5 312.7L237.5 312.7L237.5 312.7L237.6 312.8L237.6 312.9L237.6 313.0L237.6 313.0L237.6 313.3L237.7 313.9L237.3 316.4L236.1 318.5L236.1 318.5L234.7 319.7L233.1 320.5L231.3 320.8L229.8 320.7L229.8 320.7L228.7 320.5L228.7 320.4L228.6 320.4L228.6 320.4L228.6 320.4L228.5 320.4L228.5 320.4L228.4 320.4L228.3 320.3L228.2 320.3L228.2 320.3L228.1 320.3L228.1 320.3L228.0 320.3L228.0 320.3L227.9 320.3L227.9 320.3L227.8 320.3L227.8 320.3L227.8 320.3L227.7 320.3L227.7 320.3L227.7 320.3L227.5 320.3L227.5 320.3L227.4 320.3L227.4 320.3L227.4 320.3L227.3 320.3L227.3 320.3L227.2 320.3L227.2 320.3L227.1 320.3L227.1 320.3L227.1 320.3L227.0 320.3L227.0 320.3L227.0 320.3L226.9 320.3L226.8 320.4L226.8 320.4L226.7 320.4L226.7 320.4L226.6 320.4L226.6 320.4L226.5 320.4L226.4 320.5L224.1 320.8L224.1 320.8L221.8 320.4L219.8 319.1L219.7 319.1L219.7 319.1L219.6 319.0L219.6 319.0L219.6 319.0L219.5 318.9L219.5 318.9L219.4 318.9L219.4 318.8L219.3 318.8L219.3 318.8L219.2 318.7L219.1 318.7L219.1 318.6L219.0 318.6L219.0 318.6L219.0 318.6L218.9 318.6L218.9 318.6L218.8 318.5L218.8 318.5L218.7 318.5L218.7 318.5L218.6 318.4L218.5 318.4L218.5 318.4L218.5 318.4L218.4 318.4L218.4 318.4L218.4 318.4L218.3 318.4L218.3 318.3L218.3 318.3L218.2 318.3L218.2 318.3L218.1 318.3L218.1 318.3L218.0 318.3L218.0 318.3L218.0 318.3L217.9 318.3L217.9 318.3L217.9 318.3L217.8 318.3L217.8 318.3L217.7 318.3L217.7 318.2L217.6 318.2L217.3 318.2L217.3 318.2L217.3 318.2L217.2 318.3L217.2 318.3L217.2 318.3L217.1 318.3L217.1 318.3L217.0 318.3L217.0 318.3L217.0 318.3L216.9 318.3L216.9 318.3L216.9 318.3L216.8 318.3L216.8 318.3L216.7 318.3L216.7 318.3L216.6 318.4L216.6 318.4L216.5 318.4L216.5 318.4L216.3 318.4L216.3 318.5L216.3 318.5L216.2 318.5L216.2 318.5L216.1 318.5L216.1 318.5L216.0 318.6L216.0 318.6L216.0 318.6L215.9 318.6L215.9 318.6L215.9 318.6L215.8 318.7L215.8 318.7L215.8 318.7L215.8 318.7L215.7 318.7L215.7 318.8L215.6 318.8L215.6 318.8L215.5 318.9L215.5 318.9L215.5 318.9L215.4 318.9L215.4 319.0L215.4 319.0L215.4 319.0L215.3 319.0L215.3 319.1L215.2 319.1L215.2 319.1L215.2 319.2L215.1 319.2L215.1 319.2L215.1 319.3L215.0 319.3L215.0 319.4L215.0 319.4L214.9 319.4L214.9 319.4L214.9 319.5L214.8 319.5L214.8 319.6L214.8 319.6L214.8 319.6L214.7 319.7L214.7 319.8L214.6 319.8L214.6 319.9L214.6 319.9L214.6 319.9L214.5 320.0L214.5 320.0L214.5 320.0L214.5 320.1L214.5 320.1L214.4 320.2L214.4 320.2L214.4 320.3L214.4 320.3L214.4 320.3L214.4 320.4L214.3 320.4L214.3 320.4L214.3 320.6L214.3 320.7L214.2 320.7L214.2 320.8L214.2 320.8L214.2 320.8L214.2 320.9L214.2 321.0L214.2 321.0L214.2 321.0L214.2 321.1L214.2 321.1L214.2 321.2L214.1 321.2L214.1 321.2L214.1 321.3L214.1 321.4L214.1 321.6L214.1 321.6L213.4 323.9L211.9 325.9L209.8 327.1L209.8 327.1L209.7 327.2L209.7 327.2L209.6 327.2L209.6 327.2L209.5 327.2L209.5 327.2L209.5 327.3L209.4 327.3L209.4 327.3L209.4 327.3L209.3 327.3L209.3 327.3L209.3 327.4L209.3 327.4L209.2 327.4L209.1 327.5L209.0 327.5L209.0 327.5L209.0 327.6L208.9 327.6L208.9 327.6L208.9 327.6L208.9 327.7L208.8 327.7L208.7 327.8L208.7 327.8L208.7 327.8L208.6 327.9L208.6 327.9L208.6 327.9L208.6 327.9L208.5 328.0L208.5 328.0L208.5 328.0L208.4 328.1L208.4 328.1L208.4 328.1L208.4 328.2L208.3 328.2L208.3 328.2L208.3 328.3L208.2 328.3L208.2 328.3L208.2 328.4L208.2 328.4L208.2 328.4L208.1 328.5L208.1 328.5L208.1 328.5L208.1 328.5L208.1 328.6L208.0 328.6L208.0 328.7L208.0 328.7L208.0 328.7L208.0 328.8L207.9 328.8L207.9 328.9L207.9 328.9L207.9 328.9L207.9 329.0L207.8 329.0L207.8 329.0L207.8 329.1L207.7 329.4L207.7 329.4L207.7 329.4L207.7 329.5L207.7 329.6L207.7 329.6L207.7 329.7L207.6 329.7L207.6 329.8L207.6 329.8L207.6 329.8L207.6 329.9L207.6 329.9L207.6 329.9L207.6 330.0L207.6 330.0L207.6 330.1L207.6 330.1L207.6 330.2L207.6 330.2L207.6 330.4L207.6 330.4L207.6 330.4L207.6 330.5L207.6 330.5L207.6 330.6L207.6 330.6L207.6 330.6L207.6 330.7L207.6 330.7L207.6 330.8L207.6 330.8L207.6 330.8L207.7 330.9L207.7 330.9L207.7 330.9L207.7 331.0L207.7 331.0L207.7 331.1L207.7 331.1L207.7 331.2L207.7 331.2L207.8 331.3L207.8 331.4L207.8 331.4L207.8 331.5L207.9 331.5L207.9 331.6L207.9 331.6L207.9 331.6L207.9 331.7L207.9 331.7L208.0 331.8L208.0 331.8L208.0 331.8L208.0 331.9L208.0 331.9L208.0 331.9L208.1 332.0L208.1 332.0L208.1 332.1L208.1 332.1L208.2 332.1L208.2 332.2L208.3 332.3L208.3 332.3L208.3 332.3L208.3 332.3L208.3 332.4L208.4 332.4L208.4 332.5L208.5 332.5L208.5 332.5L208.5 332.6L208.6 332.6L208.6 332.6L208.6 332.7L208.6 332.7L208.7 332.8L209.1 333.1L209.1 333.2L209.2 333.3L209.2 333.3L209.3 333.4L209.3 333.4L209.4 333.4L209.4 333.5L209.4 333.5L209.5 333.6L209.6 333.6L209.6 333.6L209.6 333.6L209.6 333.7L209.7 333.7L209.7 333.7L209.7 333.7L209.9 333.8L209.9 333.8L210.0 333.9L210.0 333.9L210.0 333.9L210.1 333.9L210.1 334.0L210.2 334.0L210.2 334.0L210.2 334.0L210.3 334.0L210.3 334.1L210.4 334.1L210.4 334.1L210.5 334.1L210.5 334.1L210.6 334.2L210.7 334.2L210.7 334.2L210.8 334.2L210.8 334.2L210.9 334.2L210.9 334.2L210.9 334.2L211.0 334.2L211.0 334.3L211.1 334.3L211.1 334.3L211.2 334.3L211.2 334.3L211.2 334.3L211.3 334.3L211.3 334.3L211.4 334.3L211.9 334.4L211.9 334.4L212.0 334.4L212.0 334.4L212.1 334.4L212.1 334.4L212.2 334.4L212.2 334.4L212.2 334.4L212.3 334.4L212.4 334.4L212.5 334.4L212.5 334.4L212.5 334.4L212.6 334.4L212.7 334.4L212.7 334.4L212.8 334.4L212.9 334.4L212.9 334.4L213.0 334.4L213.0 334.4L213.1 334.4L214.1 334.3L216.0 334.5L217.7 335.3L219.2 336.5L219.2 336.6L219.3 336.6L219.3 336.7L219.4 336.7L219.4 336.8L219.5 336.8L219.5 336.9L219.6 336.9L219.6 337.0L219.7 337.0L219.7 337.0L219.7 337.0L219.8 337.0L219.8 337.1L219.8 337.1L219.8 337.1L219.9 337.1L220.0 337.2L220.0 337.2L220.1 337.3L220.1 337.3L220.2 337.3L220.2 337.3L220.2 337.3L220.3 337.3L220.3 337.4L220.3 337.4L220.4 337.4L220.4 337.4L220.5 337.4L220.5 337.4L220.5 337.5L220.7 337.5L220.7 337.5L221.0 337.7L221.4 337.6L221.4 337.7L222.1 337.7L223.2 338.1L225.1 339.1L226.5 340.7L226.5 340.7L227.3 342.5L227.6 344.4L227.3 346.4L226.4 348.2L226.4 348.2L225.2 349.5L223.7 350.4L221.3 351.1L221.3 351.1L218.9 350.8L218.9 350.8L218.5 350.6L218.2 350.6L218.1 350.6L218.1 350.6L218.0 350.6L218.0 350.6L217.7 350.6L217.7 350.6L217.7 350.6L217.6 350.6L217.6 350.6L217.6 350.6L217.5 350.6L217.5 350.6L217.4 350.6L217.4 350.7L217.3 350.7L217.3 350.7L217.2 350.7L217.1 350.7L217.1 350.7L217.0 350.7L216.9 350.8L216.9 350.8L216.9 350.8L216.7 350.8L216.7 350.8L216.7 350.8L216.6 350.9L216.6 350.9L216.5 350.9L216.5 350.9L216.4 350.9L216.4 351.0L216.4 351.0L216.3 351.0L216.3 351.0L216.3 351.0L216.2 351.1L216.2 351.1L216.2 351.1L216.1 351.1L216.1 351.1L216.0 351.2L216.0 351.2L215.9 351.2L215.9 351.3L215.8 351.3L215.8 351.3L215.8 351.3L215.7 351.4L215.7 351.4L215.7 351.4L215.6 351.5L215.6 351.5L215.6 351.5L215.5 351.6L215.5 351.6L215.5 351.6L215.4 351.7L215.4 351.7L215.4 351.7L215.4 351.8L215.3 351.8L215.3 351.8L215.3 351.9L215.2 351.9L215.2 351.9L215.2 352L215.2 352.0L215.1 352.0L215.1 352.0L215.1 352.1L215.0 352.2L215.0 352.2L215.0 352.3L215.0 352.3L214.9 352.4L214.9 352.4L214.9 352.4L214.9 352.5L214.9 352.5L214.8 352.5L214.8 352.6L214.8 352.6L214.8 352.7L214.8 352.7L214.7 352.8L214.7 352.8L214.7 352.8L214.7 353.0L214.6 353.0L214.6 353.1L214.6 353.1L214.6 353.2L214.6 353.2L214.6 353.3L214.6 353.4L214.6 353.4L214.6 353.4L214.6 353.5L214.5 353.5L214.5 353.6L214.5 353.6L214.5 353.6L214.5 353.7L214.5 353.7L214.5 353.7L214.5 353.8L214.5 353.8L214.5 353.8L214.5 354.1L214.5 354.1L214.5 354.2L214.5 354.3L214.5 354.3L214.5 354.3L214.5 354.4L214.5 354.4L214.5 354.4L214.6 354.5L214.6 354.5L214.6 354.6L214.6 354.6L214.6 354.6L214.6 354.7L214.6 354.8L214.6 354.8L214.6 354.8L214.6 354.9L214.6 354.9L214.7 355L214.7 355.1L214.7 355.2L214.7 355.2L214.8 355.2L214.8 355.3L214.8 355.4L214.8 355.4L214.9 355.5L214.9 355.5L214.9 355.6L214.9 355.6L215 355.6L215.0 355.7L215.1 355.9L215.1 355.9L215.1 355.9L215.1 355.9L215.2 356.0L215.2 356.0L215.2 356.1L215.3 356.1L215.3 356.1L215.3 356.1L215.4 356.2L215.4 356.3L215.5 356.3L215.5 356.4L216.4 357.5L216.5 357.6L216.5 357.6L216.5 357.6L216.5 357.7L216.6 357.7L216.6 357.7L216.6 357.8L216.6 357.8L216.7 357.9L216.7 357.9L216.8 357.9L216.8 358.0L216.8 358.0L216.8 358.0L216.9 358.1L216.9 358.1L216.9 358.1L216.9 358.1L217.0 358.2L217.0 358.2L217.0 358.2L217.1 358.3L217.1 358.3L217.2 358.3L217.2 358.4L217.2 358.4L217.3 358.4L217.3 358.4L217.3 358.4L217.3 358.5L217.4 358.5L217.4 358.5L217.5 358.6L217.6 358.6L217.6 358.6L217.6 358.6L217.7 358.7L217.7 358.7L217.7 358.7L217.8 358.7L217.8 358.7L217.8 358.8L217.9 358.8L217.9 358.8L217.9 358.8L218.0 358.8L218.1 358.9L218.1 358.9L218.3 358.9L218.3 359L218.4 359.0L218.4 359.0L218.5 359.0L218.5 359.0L218.5 359.0L218.6 359.0L218.7 359.0L218.7 359.0L218.7 359.0L218.8 359.0L218.8 359.1L218.9 359.1L218.9 359.1L218.9 359.1L219.0 359.1L219.0 359.1L219.1 359.1L219.1 359.1L219.1 359.1L219.2 359.1L219.4 359.1L219.4 359.1L219.5 359.1L219.5 359.1L219.6 359.1L219.6 359.1L219.6 359.1L219.7 359.1L219.7 359.1L219.7 359.1L219.8 359.0L219.8 359.0L219.9 359.0L219.9 359.0L220.0 359.0L220.0 359.0L220.1 359.0L220.1 359.0L220.2 359.0L220.2 359.0L220.5 358.9L220.5 358.9L220.5 358.8L220.6 358.8L220.6 358.8L220.6 358.8L220.7 358.8L220.7 358.8L220.8 358.7L220.8 358.7L220.8 358.7L220.9 358.7L220.9 358.7L221.0 358.6L222.1 358.1L222.1 358.1L224.5 357.8L224.5 357.8L226.5 358.2L228.3 359.1L229.7 360.6L230.6 362.3L231 364.3L230.9 365.0L230.9 365.0L230.3 367.4L230.3 367.4L230.3 367.5L230.2 367.5L230.2 367.6L230.2 367.6L230.2 367.7L230.2 367.7L230.2 367.8L230.1 367.8L230.1 367.8L230.1 367.9L230.1 367.9L230.1 367.9L230.1 368.0L230.1 368.0L230.1 368.0L230.1 368.1L230.1 368.1L230.0 368.1L230.0 368.2L230.0 368.2L230.0 368.3L230.0 368.3L230.0 368.3L230.0 368.4L230.0 368.4L230.0 368.4L230.0 368.5L230.0 368.5L230.0 368.5L230.0 368.6L230.0 368.7L230.0 368.7L230.0 368.8L230.0 369.0L230.0 369.0L230.0 369.0L230.0 369.1L230.0 369.1L230.0 369.1L230.0 369.2L230.0 369.2L230.0 369.3L230.0 369.3L230.0 369.3L230.0 369.4L230.0 369.4L230.0 369.4L230.0 369.5L230.0 369.5L230.1 369.6L230.1 369.7L230.1 369.7L230.1 369.7L230.1 369.8L230.2 370.0L230.2 370.1L230.2 370.1L230.2 370.1L230.3 370.3L230.3 370.3L230.3 370.3L230.3 370.4L230.3 370.4L230.4 370.4L230.4 370.5L230.4 370.5L230.4 370.5L230.4 370.6L230.5 370.7L230.6 370.7L230.6 370.8L230.6 370.8L230.6 370.8L230.7 370.9L230.7 370.9L230.7 371L230.8 371.0L230.8 371.0L230.8 371.1L230.9 371.1L230.9 371.1L230.9 371.2L230.9 371.2L231.0 371.2L231.0 371.3L231.0 371.3L231.0 371.3L231.1 371.3L231.1 371.4L231.1 371.4L231.2 371.5L231.2 371.5L231.3 371.5L231.3 371.5L231.3 371.6L231.4 371.6L231.4 371.6L231.5 371.6L231.5 371.7L231.5 371.7L231.6 371.7L231.6 371.7L231.7 371.8L231.7 371.8L231.7 371.8L231.8 371.8L231.8 371.8L231.8 371.9L231.9 371.9L231.9 371.9L232.0 371.9L232.0 371.9L232.0 372L232.1 372.0L232.1 372.0L232.1 372.0L232.2 372.0L232.4 372.1L232.4 372.1L232.5 372.1L232.5 372.1L232.5 372.1L232.6 372.1L232.6 372.1L232.7 372.2L232.7 372.2L232.8 372.2L232.9 372.2L232.9 372.2L232.9 372.2L233.0 372.2L233.0 372.2L233.0 372.2L233.1 372.2L233.1 372.2L233.2 372.2L233.3 372.2L233.3 372.2L233.4 372.2L233.4 372.2L233.5 372.2L233.5 372.2L233.6 372.2L233.6 372.2L233.6 372.2L233.7 372.2L233.7 372.2L233.7 372.2L233.8 372.2L233.8 372.2L233.9 372.2L233.9 372.2L233.9 372.2L234.0 372.1L234.0 372.1L234.1 372.1L234.2 372.1L234.2 372.1L234.3 372.1L234.3 372.1L234.5 372.0L234.5 372.0L234.6 372.0L234.6 372.0L234.6 371.9L234.7 371.9L234.7 371.9L234.7 371.9L234.8 371.9L235.2 371.7L236.9 371.3L238.2 371.2L240.0 371.7L241.0 372.1L241.1 372.1L241.1 372.2L241.1 372.2L241.2 372.2L241.2 372.2L241.3 372.3L241.3 372.3L241.3 372.3L241.4 372.3L241.4 372.3L241.5 372.3L241.5 372.4L241.6 372.4L241.6 372.4L241.7 372.4L241.7 372.4L241.8 372.5L241.8 372.5L241.9 372.5L242.0 372.5L242.0 372.5L242.1 372.5L242.1 372.5L242.2 372.5L242.2 372.5L242.3 372.5L242.3 372.6L242.4 372.6L242.4 372.6L242.5 372.6L242.5 372.6L242.5 372.6L242.6 372.6L242.7 372.6L242.8 372.6L242.8 372.6L242.9 372.6L242.9 372.6L243 372.6L243.0 372.6L243.1 372.6L243.1 372.6L243.2 372.5L243.2 372.5L243.2 372.5L243.3 372.5L243.3 372.5L243.4 372.5L243.5 372.5L243.5 372.5L243.6 372.5L243.7 372.4L243.7 372.4L243.9 372.4L243.9 372.4L243.9 372.4L244.0 372.3L244.0 372.3L244.0 372.3L244.1 372.3L244.1 372.3L244.1 372.3L244.2 372.3L244.2 372.2L244.2 372.2L244.3 372.2L244.3 372.2L244.3 372.2L244.4 372.1L244.4 372.1L246.0 371.5L247.8 371.2L247.9 371.2L248.8 371.3L248.9 371.3L249.0 371.3L249.0 371.3L249.1 371.3L249.1 371.4L249.2 371.4L249.2 371.4L249.2 371.4L249.3 371.4L249.3 371.4L249.6 371.4L249.6 371.4L249.6 371.4L249.7 371.4L249.7 371.4L249.8 371.3L249.9 371.3L249.9 371.3L250.0 371.3L250.0 371.3L250.9 371.2L252.0 371.3L252.2 371.3L252.3 371.3L252.3 371.3L252.3 371.3L252.4 371.3L252.5 371.4L252.5 371.4L252.6 371.4L252.6 371.4L252.7 371.4L252.9 371.4L253.0 371.4L253.0 371.4L253.0 371.4L253.1 371.4L253.1 371.4L253.1 371.4L253.2 371.3L253.2 371.3L253.2 371.3L253.3 371.3L253.4 371.3L255.6 371.3L255.6 371.3L255.7 371.3L255.7 371.3L255.8 371.3L255.8 371.4L255.9 371.4L255.9 371.4L256 371.4L256.0 371.4L256.0 371.4L256.3 371.4L256.3 371.4L256.3 371.4L256.4 371.4L256.4 371.4L256.5 371.4L256.5 371.3L256.6 371.3L256.6 371.3L256.7 371.3L256.7 371.3L257.7 371.2L257.7 371.2L260.0 371.6L260.0 371.6L260.8 371.9L262.9 373.5L264.2 375.8L264.3 376.0L264.5 377.4L264.5 377.5L264.5 377.5L264.5 377.6L264.6 377.7L264.6 377.7L264.6 377.7L264.6 377.8L264.6 377.8L264.6 377.8L264.6 377.9L264.6 378L264.6 378.0L264.6 378.0L264.6 378.1L264.7 378.1L264.7 378.2L264.7 378.2L264.7 378.3L264.7 378.3L264.7 378.4L264.8 378.4L264.8 378.4L264.8 378.5L264.8 378.5L264.8 378.6L264.8 378.6L264.8 378.6L264.9 378.6L264.9 378.7L264.9 378.7L264.9 378.8L264.9 378.8L264.9 378.8L265.0 378.9L265.0 379.0L265.1 379.0L265.1 379.1L265.1 379.1L265.1 379.1L265.2 379.2L265.2 379.2L265.2 379.2L265.2 379.3L265.3 379.3L265.3 379.3L265.3 379.4L265.4 379.4L265.4 379.4L265.4 379.5L265.4 379.5L265.5 379.5L265.5 379.5L265.5 379.6L265.5 379.6L265.6 379.6L265.6 379.7L265.7 379.7L265.7 379.7L265.7 379.8L265.8 379.8L265.8 379.8L265.8 379.8L265.8 379.8L265.9 379.9L265.9 379.9L265.9 379.9L266.0 379.9L266.0 380.0L266.0 380.0L266.1 380.0L266.2 380.1L266.2 380.1L266.2 380.1L266.3 380.1L266.3 380.1L266.3 380.2L266.4 380.2L266.4 380.2L266.5 380.2L266.5 380.2L266.6 380.3L266.7 380.3L266.7 380.3L266.7 380.3L266.8 380.4L266.9 380.4L266.9 380.4L266.9 380.4L267.0 380.4L267.0 380.4L267.1 380.4L267.1 380.5L267.2 380.5L267.3 380.5L267.3 380.5L267.3 380.5L267.4 380.5L267.4 380.5L267.4 380.5L267.5 380.5L267.6 380.5L267.6 380.5L267.6 380.5L267.7 380.5L267.8 380.5L267.8 380.5L268.0 380.5L268.0 380.5L268.0 380.5L268.1 380.5L268.1 380.5L268.2 380.5L268.2 380.5L268.3 380.5L268.3 380.5L268.3 380.5L268.4 380.5L268.4 380.5L268.4 380.5L268.5 380.5L268.5 380.5L268.6 380.5L268.6 380.5L268.6 380.5L268.7 380.4L268.7 380.4L268.8 380.4L268.8 380.4L268.8 380.4L269.1 380.3L269.1 380.3L269.1 380.3L269.2 380.3L269.2 380.3L269.3 380.2L269.3 380.2L269.4 380.2L269.4 380.2L269.4 380.2L269.5 380.1L269.5 380.1L269.5 380.1L269.6 380.1L269.7 380.0L269.7 380.0L269.7 380.0L269.8 380.0L269.8 379.9L269.9 379.9L269.9 379.9L269.9 379.8L270.0 379.8L270.0 379.8L270.0 379.8L270.1 379.7L270.2 379.7L270.7 379.2L271.1 379L271.3 378.9L271.3 378.8L271.3 378.8L271.3 378.8L271.4 378.8L271.4 378.7L271.4 378.7L271.5 378.7L271.5 378.7L271.7 378.5L271.7 378.5L271.8 378.4L271.8 378.4L271.8 378.4L271.9 378.3L271.9 378.3L272.0 378.2L272.0 378.1L272.0 378.1L272.1 378.1L272.1 378.1L272.1 378.0L272.1 378.0L272.2 378.0L272.2 377.9L272.3 377.8L274.4 375.6L276.1 374.8L278.0 374.6L278.0 374.6L280.0 374.9L281.3 375.5L280.1 375.9L278.2 377.9L281.7 376.4L282.6 376.5L283.2 377.1L283.9 378.3L282.4 379.3L282.9 380.0L284.6 380.4L284.7 380.7L284.7 380.8L284.7 380.9L284.7 380.9L284.7 380.9L284.7 381.0L284.7 381.0L284.7 381.1L284.7 381.1L284.7 381.2L284.8 381.2L284.8 381.3L284.8 381.3L284.8 381.4L284.9 381.7L284.9 381.7L284.9 381.7L284.9 381.8L284.9 381.8L285.0 381.8L285.0 381.9L285.0 381.9L285.0 381.9L285.0 382.0L285.0 382.0L285.0 382.0L285.1 382.1L285.1 382.1L285.1 382.1L285.1 382.1L285.3 382.4L285.3 382.4L285.3 382.5L285.3 382.5L285.4 382.5L285.4 382.5L285.4 382.6L285.5 382.6L285.5 382.7L285.5 382.7L285.6 382.8L285.6 382.8L285.7 382.9L285.8 383.0L285.8 383.0L287.1 384.5L287.1 384.6L287.2 384.7L287.2 384.7L287.2 384.7L287.3 384.8L287.3 384.8L287.3 384.8L287.3 384.9L287.5 385.1L287.5 385.1L287.5 385.1L287.6 385.2L287.7 385.2L287.7 385.3L287.9 385.4L287.9 385.4L287.9 385.5L288.0 385.5L288.0 385.5L288.0 385.5L288.1 385.6L288.1 385.6L288.1 385.6L288.1 385.6L288.2 385.6L288.2 385.7L290.0 387.2L291.1 389.2L291.4 391.5L291.4 391.5L291.3 392.5L291.3 392.5L291.3 392.6L291.3 392.7L291.3 392.7L291.3 392.8L291.3 392.8L291.3 392.9L291.3 392.9L291.3 393.0L291.3 393.0L291.3 393.1L291.3 393.2L291.3 393.2L291.3 393.3L291.3 393.3L291.3 393.3L291.3 393.4L291.3 393.5L291.3 393.5L291.3 393.6L291.3 393.6L291.3 393.7L291.4 395.2L291.4 395.2L291.3 395.8L291.3 395.9L291.3 395.9L291.3 396.0L291.3 396.1L291.3 396.2L291.3 396.2L291.3 396.3L291.3 396.3L291.3 396.4L291.3 396.5L291.3 396.5L291.3 396.6L291.3 396.6L291.3 396.7L291.3 396.7L291.3 396.7L291.3 396.8L291.3 396.8L288.2 396.8L285.5 399.4L278.2 401.9L275.7 404.6L263.9 401.7L254.0 403.6L251.1 405.7L248.4 404.0L249.5 402.9L248.0 401.5L242.6 401.4L243.5 402.8L242.8 403.9L238.4 403.4L232.2 405.9L224.1 406.4L221.6 405.6L220.7 407.1L223.7 408.1L223.6 410.7L221.2 411.1L213.2 409.0L211.5 410.6L212.2 412.7L206.9 407.8L200.7 405.5L193.0 407.6L188.4 410.1L183.0 423.9L181.4 424.8L179.1 424.4L176.0 420.7L173.5 421.3L170.6 418.1L165.7 418.5L163.2 419.9L156.5 420.2L154.1 423.1L149.5 425.1L149.0 429.9L146.5 431.2L145.6 433.0L143.5 428.7L139.2 426.4L137.6 426.8L136.8 429.1L133.3 428.8L133.9 425.1L138.8 423L140.4 423.9L149.7 415.8L150.8 411.2L156.4 409.6L157.4 406.9L162.1 402.6L163.1 394.1L168.3 394.7L170.6 392.1L170.3 387.8L180.5 386.2L187.1 386.9L189.9 388.6L198.4 387.8L200.1 381.5L213.6 366.8L207.1 372.6L205.9 373.9L196.6 377.1L194.9 380.7L189.8 381.2L186.1 380.1L179.8 371.9L171.2 375.0L169.5 374.0L169.3 372.0L173.4 371.3L174.4 369.7L170.0 369.5L166.1 367.2L162.9 367.2L160.5 367.7L159.6 370.2L156.0 370.4L154.1 372.1L151.6 371.0L152.4 369.2L156.2 367.7L155.7 366.4L155.2 367.6L152.7 367.9L147.2 366.7L150.7 365.0L150.2 362.2L147.2 361.4L147.7 359.8L151.1 358.2L151.6 356.9L157.3 356.4L161.2 352.3L165.2 352.2L171.4 348.2L173.8 345.1L175.6 339.5L174.2 335.0L176.0 330.8L173.9 327.7L174.4 323.4L168.0 324.3L165.1 327.6L160.0 327.6L163.4 323.2L169.5 318.9L170.2 315.9L173.3 312.5L181.0 309.7L187.0 310.0L192.7 307.7L197.9 311.5L198.3 310.6L197.0 308.1L197.5 308.3L198.9 309.5L198.9 309.5L198.9 309.6L199.0 309.6L199.0 309.6L199.1 309.7L199.1 309.7L199.1 309.7L199.2 309.8L199.3 309.8L199.3 309.9L199.3 309.9L199.3 309.9L199.4 310.0L199.4 310.0L199.5 310.0L199.5 310.0L199.7 310.1L199.7 310.1L199.7 310.2L199.8 310.2L199.8 310.2L199.8 310.2L199.9 310.2L199.9 310.3L199.9 310.3L200.0 310.3L200.0 310.3L200.1 310.3L200.1 310.3L200.1 310.4L200.4 310.5L200.5 310.5L200.5 310.5L200.6 310.5L200.6 310.5L200.7 310.5L200.8 310.5L200.8 310.5L200.8 310.5L200.9 310.5L200.9 310.5L200.9 310.6L201.0 310.6L201.0 310.6L201.1 310.6L201.1 310.6L201.2 310.6L201.2 310.6L201.5 310.6L201.5 310.6L201.6 310.6L201.6 310.6L201.6 310.6L201.7 310.6L201.7 310.6L201.8 310.5L201.8 310.5L201.9 310.5L201.9 310.5L202.0 310.5L202.0 310.5L202.0 310.5L202.1 310.5L202.1 310.5L202.2 310.5L202.2 310.5L202.3 310.5L202.3 310.4L202.4 310.4L202.4 310.4L202.4 310.4L202.5 310.4L202.5 310.4L202.6 310.3L202.6 310.3L202.6 310.3L202.7 310.3L202.7 310.3L202.8 310.3L202.8 310.2L202.8 310.2L202.9 310.2L202.9 310.2L202.9 310.2L203.0 310.2L203.0 310.1L203.0 310.1L203.1 310.1L205.2 309.9L206.9 307.7L204.4 308.5L204.5 308.5L204.5 308.5L204.5 308.4L204.5 308.4L205.8 306.3L205.8 306.2L205.8 306.2L205.9 306.1L205.9 306.1L206.0 306.0L206.0 306.0L206.0 306.0L206.0 306L206.1 305.9L206.1 305.9L206.2 305.7L206.2 305.7L206.2 305.6L206.2 305.6L206.3 305.6L206.3 305.5L206.3 305.5L206.3 305.5L206.3 305.4L206.4 305.4L206.4 305.3L206.4 305.3L206.4 305.2L206.4 305.2L206.4 305.2L206.5 305.1L206.5 305.1L206.5 305.0L206.5 304.9L206.5 304.9L206.5 304.9L206.5 304.8L206.5 304.8L206.6 304.7L206.6 304.7L206.6 304.6L206.6 304.6L206.6 304.5L206.6 304.5L206.6 304.5L206.6 304.4L206.6 304.4L206.6 304.4L206.6 304.3L206.6 304.3L206.6 304.3L206.6 304.2L206.6 304.2L206.6 304.1L206.6 303.9L206.6 303.9L206.6 303.8L206.6 303.8L206.6 303.8L206.6 303.7L206.6 303.7L206.6 303.6L206.6 303.6L206.6 303.5L206.6 303.5L206.6 303.5L206.6 303.4L206.6 303.4L206.6 303.3L206.5 303.3L206.5 303.2L206.5 303.2L206.5 303.1L206.5 303.1L206.5 303.1L206.5 303.0L206.5 302.9L206.4 302.9L206.4 302.9L206.4 302.8L206.4 302.8L206.4 302.8L206.4 302.7L206.4 302.7L206.3 302.6L206.3 302.5L206.3 302.5L206.2 302.5L206.2 302.4L206.2 302.4L206.2 302.4L206.1 302.2L206.1 302.1L206.0 302.1L206.0 302.1L205.9 302.0L205.9 302.0L205.9 301.9L205.9 301.9L205.9 301.9L205.8 301.8L205.8 301.8L205.8 301.8L204.6 300.0L204.1 298.1L204.1 298.1L204.1 297.9L204.1 297.2L204.2 295.8L204.3 295.7L204.3 295.6L204.3 295.6L204.3 295.6L204.3 295.5L204.3 295.5L204.3 295.4L204.3 295.4L204.3 295.4L204.3 295.3L204.3 295.3L204.3 295.2L204.3 295.2L204.3 295.2L204.3 295.1L204.3 295.1L204.3 294.9L204.3 294.8L204.3 294.8L204.3 294.8L204.3 294.7L204.3 294.7L204.3 294.7L204.3 294.6L204.3 294.5L204.3 294.5L204.3 294.5L204.3 294.4L204.3 294.4L204.3 294.4L204.3 294.3L204.3 294.3L204.2 294.2L204.2 294.1L204.2 294.1L204.2 294.1L204.2 294.0L204.1 293.8L204.1 293.8L204.1 293.8L204.1 293.7L204.1 293.7L204.1 293.7L204.0 293.6L204.0 293.5L204.0 293.5L204.0 293.4L203.9 293.4L203.9 293.4L203.9 293.3L203.9 293.3L203.9 293.3L203.9 293.2L203.8 293.2L203.8 293.1L203.8 293.1L203.8 293.1L203.7 293.0L203.7 293.0L203.7 293.0L203.7 293.0L203.6 292.9L203.6 292.9L203.6 292.8L203.5 292.7L203.5 292.7L203.4 292.7L203.4 292.6L203.4 292.6L203.3 292.6L203.3 292.6L203.3 292.5L203.3 292.5L203.2 292.5L203.2 292.4L203.2 292.4L203.1 292.4L201.8 291.0L201.0 289.3L200.7 287.4L200.7 287.4L200.8 286.1L200.8 286.1L200.8 286.0L200.8 286.0L200.8 286.0L202.0 285.2L204.3 280.3L204.8 275.1L197.3 280.3L195.6 279.6L191.8 272.9L191.3 270.2L187.0 264.0L192.8 250.2L194.9 248.2L198.8 248.4L200.5 248.0L200.6 247.1L188.8 246.1L187.7 250.4L183.5 251.3L180.1 254.3L176.4 253.9L171.9 250.6L171.0 248.7L170.2 250.3L171.8 256.2L170.9 257.4L168.3 256.3L166.4 253.3L161.1 249.8L158.6 252.4L160.5 258.8L158.7 257.8L158.6 255.2L154.3 248.7L154.4 244.6L157.0 243.0L158.1 239.7L161.3 236.6L164.1 229.7L166.4 228.6L167.1 226.9L165.5 222.4L161.0 218.8L162.1 209.9L163.9 209.3L170.5 210.8L162.8 208.0L163.5 203.3L160.0 212.4L156.0 209.9L154.9 210.8L155.1 213.7L153.1 212.7L152.4 210.6L153.3 206.8L155.7 202.8L161.8 197.2L154.9 202.7L151.5 207.0L150.7 206.5L151.3 216.4L148.9 220.3L147.0 228.7L147.7 230.7L145.9 232.7L141.8 232.5L141.9 229.4L143.5 227.6L144.2 222.0L146.5 215.8L145.2 213.9L145.4 210.0L147.8 205.4L145.6 207.7L145.5 207.0L149.4 200.1L147.5 200.8L148.3 194.7L151.7 190.8L155.9 190.9L158.3 188.3L159.2 186.3L156.3 190.2L152.3 189.1L152.8 187.6L155.5 186.4L153.4 186.7L152.8 185.2L158.6 176.8L146.5 188.3L141.5 185.1L140.0 182.5L149.5 180.9L145.2 180.0L141.9 181.2L136.3 180.7L135.5 179.2L136.5 178.1L141.4 177.2L143.4 178.8L144.6 177.1L143.6 175.6L147.5 174.4L146.1 173.2L142.3 173.2L144.9 168.8L148.2 170.4L150.7 169.6L148.5 169.9L145.5 167.4L146.8 165.1L150.6 166.2L153.4 165.7L150.4 165.1L148.4 163.3L148.6 160.6L150.6 159.9L153.5 161.0L150.3 158.8L149.8 157.1L153.0 153.9L146.4 156.5L145.4 155.6L144.6 151.2L145.4 147.7L149.1 150.4L152.0 149.5L148.8 148.9L146.2 145.4L146.4 138.5L146.8 137.2L148.5 136.8L150.6 140.7L151.2 138.4L150.0 136.6L150.7 134.9L153.7 137.5L154.3 135.9L156.1 135.3L160.7 138.1L159.2 134.4L154.1 129.3L154.7 128.5L156.8 129.9L157.6 129.4L157.8 126.8L155.7 122.6L162.0 122.7L160.2 119.4L164.1 109.3L168.5 110.3L169.8 112.0L170.2 113.3L168.5 116.3L172.5 111.4L178.0 113.2L187.7 112.3L190.2 110.4L195.9 111.4L196.2 109.0L202.8 109.7L200.5 119.9L198.8 122.3L195.7 123.4L192.6 127.5L182.9 135.2L182.4 138.3L180.3 138.9L175 136.7L175.8 138.4L181.8 140.3L185.2 140.3L187.2 138.8L183.0 144.7L181.9 143.4L180.6 143.6L176.6 145.3L174.1 148.0L173.8 149.1L177.5 145.9L180.9 145.8L181.5 146.7L178.1 150.6L177.8 152.3L187.4 147.5L190.6 147.1L192.8 144.5L196.8 144.0L201.7 146.4L204.6 144.8 Z M 238.2 351.1L237.3 351.1L235.2 350.6L233.4 349.6L232.1 348.0L232.1 348.0L231.2 346.3L230.9 344.3L231.2 342.4L232.1 340.6L233.6 339.0L235.1 338.1L236.8 337.7L238.4 337.7L238.4 337.7L240.3 338.2L242.0 339.2L243.1 340.5L244.0 342.0L244.4 344.7L244.4 344.7L243.6 347.6L243.6 347.6L242.2 349.3L240.4 350.5L238.2 351.1 Z M 244.9 407.2L242.4 410.4L239.7 411.3L234.6 408.1L232.8 408.3L239.0 404.1L243.5 405.3 Z M 246.9 401.8L247.2 403.9L245.7 403.5 Z M 164.6 308.8L164.8 311.0L162.6 309.3L162.6 307.8 Z M 176.8 308.9L169.7 315.4L166.9 313.3L165.1 309.7L165.2 305.3L168.5 304.1L171.6 305.0L172.8 308.1 Z M 157.2 227.7L155.1 228.6L151.7 226.7L150.6 221.9L151.1 219.4L153.0 217.7L155.8 219.2L157.2 223.9 Z M 158.7 213.4L158.8 217.8L155.3 211.9L155.9 210.2 Z M 135.9 208.6L137.6 218.2L132.1 221.9L131.0 221.3L132.9 214.4L131.2 214.1L127.8 218.1L127.8 215.6L129.2 211.2L132.0 211.0 Z M 136.3 201.7L134.7 205.0L133.4 204.6L134.1 203.2 Z M 145.5 202.7L138.9 214.3L136.8 213.3L136.9 209.8L139.5 205.5L145.3 201.0 Z M 145.9 200.4L144.7 200.7L145.9 199.4 Z M 147.5 197.3L146.7 199.8L146.8 197.0 Z M 148.0 194.8L147.2 196.8L146.8 195.5 Z M 131.5 193.1L130.9 194.5L130.4 194.2 Z M 149.8 191.5L148.9 192.7L148.6 191.6 Z M 136.5 188.5L135.7 188.9L134.5 188.2L135.0 187.5 Z M 140.6 186.0L147.0 189.9L146.7 191.7L142.8 195.0L142.0 193.3L139.1 194.9L132.7 196.1L132.2 193.3L134.7 194.1L139.2 192.5L135.7 192.8L135.4 192.0L139.8 187.9L137.2 188.5L133.0 185.5L133.5 183.4L137.8 181.9 Z M 138.6 171.8L137.4 173.7L136.4 172.3L137.8 170.8 Z M 135.6 170.1L134.3 171.0L131.8 168.3L134.4 166.5L135.9 167.8 Z M 131.1 166.2L129.2 166.6L129.9 165.7 Z M 143.1 157.5L142.7 158.6L141.4 157.2 Z M 141.9 155.9L140.6 156.8L140.4 152.8L142.0 150.0 Z M 143.0 147.5L142.7 149.7L142.3 148.8 Z M 138.7 145.8L139.1 157.4L143.8 160.2L146.6 158.9L148.7 159.8L148.1 161.9L144.3 165.2L142.5 167.6L140.8 168.1L140.4 166.9L141.8 164.1L140.7 162.3L139.7 164.2L137.8 162.4L134.9 162.7L131.9 157.0L133.4 155.9L135.4 157.2L131.1 153.0L130.1 155.8L127.4 154.3L126.1 151.1L129.5 145.5L133.4 149.6L134.6 148.9L133.9 144.6L135.6 143.0 Z M 200.5 104.3L198.7 104.7L197.3 104.6L194.9 101.1L195.5 99.4L196.7 99.0L199.0 101.0 Z M 200.5 104.3 "/>
<path style=" stroke:none;fill-rule:nonzero;fill:rgb(77.6%,78.8%,62.3%);fill-opacity:1;" d="M 100.3 344.8L100.2 344.2L100.2 344.2L100.2 343.5L100.2 343.1L100.6 341.3L100.9 340.7L101.9 339.1L103.4 338L105.1 337.2L106.9 336.9L109.2 337.3L111.2 338.5L112.7 340.3L113.5 342.4L113.5 345.1L113.5 345.1L113.2 345.9L113.3 346.4L113.3 346.5L113.3 346.6L113.3 346.6L112.8 345.6L110.9 348.3L109.8 349.0L109.6 346.7L108.4 344.7L108.3 347.7L107.5 348.7L106.1 349.0L105.3 348.3L100.2 348.6L99.9 347.5L99.9 346.9L100.1 345.4L100.1 345.3 Z M 100.3 344.8 "/>
















</g>
</svg>
