<?xml version="1.0" encoding="UTF-8"?>
<svg xmlns="http://www.w3.org/2000/svg" xmlns:xlink="http://www.w3.org/1999/xlink" width="378pt" height="504pt" viewBox="0 0 378 504" version="1.1">
<g id="data">
<rect x="0" y="0" width="378" height="504" style="fill:rgb(100%,100%,100%);fill-opacity:1;stroke:none;"/>
<path style=" stroke:none;fill-rule:nonzero;fill:rgb(100%,100%,100%);fill-opacity:1;" d="M 21 504L357 504L357 0L21 0 Z M 21 504 "/>
<path style=" stroke:none;fill-rule:nonzero;fill:#C2B855;fill-opacity:1;" d="M 291.5 328.3L291.4 327.6L291.4 327.5L291.8 325.5L292.7 323.6L294.2 322.1L295.0 321.7L296.7 321.9L305.5 327.6L307.8 332.9L307.8 336.9L306.8 337.4L304.9 337.6L304.6 337.6L303.1 337.4L301.4 336.6L299.9 335.4L299.9 335.4L299.6 334.9L299.1 334.8L299.0 334.7L299.0 334.7L299.0 334.7L299.0 334.7L298.9 334.6L298.9 334.6L298.8 334.6L298.8 334.6L298.7 334.5L298.7 334.5L298.7 334.5L298.6 334.5L298.6 334.5L298.6 334.5L298.5 334.5L298.5 334.5L298.5 334.4L298.4 334.4L298.4 334.4L298.4 334.4L298.3 334.4L298.3 334.4L298.2 334.4L298.2 334.3L297.9 334.3L297.9 334.3L297.8 334.3L297.7 334.2L297.6 334.3L297.6 334.2L296.1 334.0L294.4 333.1L293.0 331.8L292.0 330.2 Z M 190.6 394.3L191.2 392.1L192.4 390.3L192.4 390.2L192.9 389.8L193.0 389.2L193.1 389.0L193.1 389.0L193.1 388.9L193.1 388.9L193.1 388.9L193.1 388.8L193.1 388.8L193.1 388.8L193.1 388.7L193.1 388.7L193.2 388.7L193.2 388.6L193.2 388.6L193.2 388.5L193.2 388.5L193.2 388.5L193.2 388.4L193.2 388.4L193.2 388.3L193.2 388.3L193.2 388.3L198.4 387.8L200.1 381.5L201.0 380.5L201.0 380.5L201.1 380.5L201.1 380.5L201.2 380.5L201.2 380.5L201.3 380.5L201.3 380.5L201.3 380.5L201.5 380.4L201.6 380.4L201.6 380.4L201.7 380.4L201.7 380.4L201.8 380.3L201.8 380.3L201.9 380.3L201.9 380.3L201.9 380.3L202.0 380.3L202.0 380.3L202.0 380.3L202.1 380.2L202.1 380.2L202.2 380.2L202.2 380.2L202.2 380.2L202.3 380.1L202.3 380.1L202.3 380.1L202.4 380.1L202.6 380.0L202.6 380L202.6 379.9L202.6 379.9L202.7 379.9L202.7 379.9L202.7 379.8L202.8 379.8L202.8 379.8L203.0 379.7L203.1 379.5L203.2 379.5L203.2 379.5L203.2 379.4L203.3 379.4L203.3 379.4L203.3 379.3L203.3 379.3L203.4 379.3L203.4 379.3L203.4 379.2L203.5 379.2L203.5 379.2L203.6 379.1L203.6 379.0L203.6 379.0L203.7 378.9L203.7 378.9L203.7 378.9L203.8 378.8L203.8 378.8L203.8 378.8L203.8 378.7L203.9 378.7L203.9 378.6L203.9 378.6L203.9 378.6L203.9 378.5L203.9 378.5L204.0 378.5L204.0 378.4L204.0 378.4L204.0 378.4L204.0 378.3L204.1 378.3L204.1 378.2L204.1 378.2L204.1 378.2L204.1 378.1L204.1 378.1L204.2 377.9L204.2 377.8L204.2 377.8L204.2 377.8L204.2 377.7L204.3 377.6L204.3 377.6L204.3 377.5L204.3 377.5L204.3 377.5L204.3 377.4L204.3 377.4L204.3 377.4L204.3 377.3L204.3 377.2L204.3 377.2L204.3 377.2L204.3 377.1L204.3 377.1L204.3 377.1L204.3 377.0L204.3 376.9L213.6 366.8L207.1 372.6L205.9 373.9L204.1 374.5L204.1 373.6L204.4 372.4L204.5 372.3L204.5 372.3L204.5 372.2L204.5 372.2L204.5 372.2L204.5 372.1L204.5 372.1L204.5 372.1L204.6 371.9L204.6 371.9L204.6 371.8L204.6 371.8L204.6 371.7L204.6 371.7L204.6 371.6L204.6 371.6L204.6 371.5L204.6 371.5L204.6 371.5L204.6 371.4L204.6 371.3L204.6 371.3L204.6 371.2L204.6 371.1L204.6 371.0L204.6 371.0L204.6 371.0L204.6 370.9L204.6 370.9L204.6 370.8L204.6 370.8L204.6 370.8L204.6 370.7L204.6 370.7L204.6 370.6L204.6 370.6L204.6 370.5L204.6 370.5L204.5 370.4L204.5 370.4L204.5 370.3L204.5 370.3L204.5 370.2L204.5 370.1L204.4 370.1L204.1 368.3L204.1 368.3L204.2 366.8L204.2 366.7L204.2 366.7L204.2 366.6L204.2 366.5L204.2 366.5L204.2 366.5L204.2 366.4L204.2 366.4L204.2 366.4L204.2 366.3L204.2 366.1L204.2 366.0L204.2 366.0L204.2 366.0L204.2 365.9L204.2 365.9L204.2 365.8L204.2 365.7L204.2 365.7L204.2 365.7L204.2 365.6L204.1 364.6L204.4 362.3L204.5 362.2L204.5 362.2L204.5 362.1L204.5 362.1L204.5 362.0L204.5 362.0L204.6 361.9L204.6 361.9L204.6 361.8L204.6 361.7L204.6 361.7L204.6 361.6L204.6 361.6L204.6 361.5L204.6 361.4L204.6 361.4L204.6 361.3L204.8 360.6L204.5 360.0L204.5 360.0L204.1 357.8L204.1 357.1L204.1 357.1L204.6 355.2L205.6 353.6L207.0 352.2L208.7 351.4L210.7 351.1L210.7 351.1L210.8 351.1L212.8 351.4L214.6 352.3L216.1 353.6L217.1 355.4L217.5 357.3L217.5 358.1L217.5 358.1L217.4 358.9L217.7 359.4L217.7 359.5L217.7 359.5L217.7 359.6L217.7 359.6L217.8 359.6L217.8 359.7L217.8 359.7L217.8 359.8L217.8 359.8L217.8 359.8L217.8 359.9L217.9 359.9L217.9 359.9L217.9 360L217.9 360.0L217.9 360.0L218.1 360.2L218.1 360.3L218.1 360.3L218.1 360.3L218.2 360.4L218.2 360.4L218.2 360.4L218.2 360.4L218.2 360.5L218.3 360.5L218.3 360.5L218.4 360.6L218.4 360.6L218.4 360.7L218.4 360.7L218.5 360.7L218.5 360.8L218.5 360.8L218.5 360.8L218.6 360.8L218.6 360.9L218.7 360.9L218.7 361.0L218.8 361.0L218.8 361.0L218.8 361.0L218.9 361.1L218.9 361.1L218.9 361.1L219.0 361.1L219.0 361.2L219.2 361.3L219.2 361.3L219.2 361.3L219.3 361.3L219.3 361.3L219.3 361.4L219.4 361.4L219.4 361.4L219.4 361.4L219.5 361.4L219.5 361.4L219.6 361.5L219.6 361.5L219.7 361.5L219.7 361.5L219.8 361.5L220 361.6L220.0 361.6L220.1 361.6L220.1 361.7L220.2 361.7L220.3 361.7L220.3 361.7L220.4 361.7L220.4 361.8L220.5 361.8L220.5 361.8L220.6 361.8L220.6 361.8L220.7 361.8L220.7 361.8L220.8 361.8L220.8 361.8L220.8 361.8L220.9 361.8L220.9 361.8L221.0 361.8L221.0 361.8L221.0 361.9L221.1 361.9L221.1 361.9L221.3 361.9L221.4 361.9L221.4 361.9L221.4 361.8L221.5 361.8L221.5 361.8L221.6 361.8L221.6 361.8L221.6 361.8L221.7 361.8L221.7 361.8L221.7 361.8L221.8 361.8L221.8 361.8L221.9 361.8L221.9 361.8L222.0 361.8L222.1 361.8L222.1 361.7L222.1 361.7L222.2 361.7L222.2 361.7L222.2 361.7L222.3 361.7L222.3 361.7L222.4 361.6L222.4 361.6L222.5 361.6L222.5 361.6L222.6 361.6L222.6 361.6L222.7 361.5L222.7 361.5L222.7 361.5L222.8 361.5L222.8 361.5L222.9 361.4L222.9 361.4L223.1 361.3L223.1 361.3L223.2 361.2L223.2 361.2L223.2 361.2L223.3 361.2L223.3 361.1L223.3 361.1L223.3 361.1L223.4 361.1L223.4 361.0L223.5 361.0L223.5 361.0L223.5 361L223.5 360.9L223.6 360.9L223.6 360.9L223.6 360.8L223.7 360.8L223.7 360.7L223.8 360.7L223.8 360.7L223.8 360.6L223.8 360.6L223.9 360.6L223.9 360.5L223.9 360.5L223.9 360.5L224.0 360.5L224.0 360.4L224.0 360.4L224.0 360.4L224.0 360.3L224.1 360.3L224.1 360.3L224.1 360.2L224.2 360.1L224.2 360.1L224.2 360.1L224.2 360.0L224.2 360.0L224.2 360.0L224.3 359.9L224.3 359.9L224.3 359.9L224.3 359.8L224.3 359.8L224.3 359.7L224.4 359.7L224.4 359.7L224.4 359.5L224.4 359.5L224.5 359.4L224.5 359.3L225.3 357.5L226.7 356.0L228.4 354.9L230.4 354.5L230.8 354.4L232.0 354.5L232.1 354.5L232.1 354.5L232.2 354.5L232.2 354.5L232.3 354.6L232.3 354.6L232.4 354.6L232.4 354.6L232.4 354.6L232.5 354.6L232.5 354.6L232.8 354.6L232.8 354.6L232.8 354.6L232.9 354.6L232.9 354.6L233.0 354.6L233.0 354.5L233.1 354.5L233.1 354.5L233.2 354.5L233.2 354.5L234.3 354.4L234.8 354.4L235.4 354.5L235.5 354.5L235.5 354.5L235.5 354.5L235.6 354.5L235.7 354.6L235.8 354.6L235.8 354.6L235.8 354.6L235.9 354.6L236.1 354.6L236.2 354.6L236.2 354.6L236.2 354.6L236.3 354.6L236.4 354.5L236.4 354.5L236.4 354.5L236.5 354.5L236.5 354.5L236.6 354.5L237.1 354.5L237.2 354.4L237.2 354.4L237.3 354.4L237.3 354.4L237.4 354.4L237.4 354.4L237.5 354.4L237.5 354.4L237.6 354.4L237.7 354.4L237.7 354.3L237.8 354.3L237.8 354.3L237.8 354.3L238.0 354.3L238.0 354.2L238.1 354.2L238.1 354.2L238.1 354.2L238.2 354.2L238.3 354.2L238.3 354.1L238.3 354.1L238.4 354.1L238.4 354.1L238.5 354.0L238.5 354.0L238.6 354.0L238.6 354.0L238.7 353.9L238.7 353.9L238.8 353.9L238.8 353.8L238.8 353.8L238.8 353.8L238.9 353.8L238.9 353.8L238.9 353.7L239.0 353.7L239.0 353.7L239.0 353.6L239.1 353.6L239.1 353.6L239.2 353.5L239.2 353.5L239.2 353.5L239.2 353.5L239.3 353.4L239.3 353.4L239.3 353.4L239.3 353.4L239.4 353.3L241.4 351.8L242.4 351.4L242.5 351.3L242.5 351.3L242.6 351.3L242.7 351.3L242.7 351.3L242.8 351.2L242.8 351.2L242.9 351.2L242.9 351.2L242.9 351.2L243.0 351.1L243.0 351.1L243.1 351.1L243.1 351.1L243.1 351.1L243.3 351.0L243.3 351L243.3 350.9L243.4 350.9L243.4 350.9L243.5 350.8L243.5 350.8L243.5 350.8L243.6 350.8L243.6 350.7L243.7 350.7L243.7 350.7L243.7 350.6L243.8 350.6L243.9 350.5L243.9 350.5L244.0 350.4L244.0 350.4L244.0 350.3L244.0 350.3L244.1 350.3L244.1 350.2L244.1 350.2L244.1 350.2L244.2 350.1L244.2 350.1L244.2 350.0L244.3 350.0L244.3 349.9L244.3 349.9L244.4 349.8L244.4 349.8L244.4 349.7L244.4 349.7L244.5 349.7L244.5 349.6L244.5 349.5L244.5 349.5L244.6 349.5L244.6 349.4L244.6 349.4L244.6 349.4L244.6 349.3L244.6 349.3L244.7 349.2L244.7 349.2L244.7 349.1L245.7 347.1L247.3 345.5L249.4 344.6L249.4 344.6L250.5 344.4L252.6 344.5L253.2 344.7L255.1 345.6L256.5 347.1L257.5 348.9L257.8 350.5L257.8 350.6L257.8 350.6L257.8 350.7L257.8 350.7L257.8 350.8L257.8 350.8L257.9 350.8L257.9 350.9L257.9 351.0L257.9 351.0L257.9 351.0L257.9 351.1L257.9 351.1L257.9 351.2L257.9 351.2L257.9 351.2L258.0 351.4L258.0 351.4L258.0 351.5L258.0 351.5L258.1 351.5L258.1 351.6L258.1 351.6L258.1 351.6L258.1 351.7L258.2 351.8L258.2 351.8L258.2 351.8L258.2 351.9L258.3 351.9L258.3 352.0L258.4 352.1L258.4 352.1L258.4 352.2L258.4 352.2L258.5 352.2L258.5 352.3L258.5 352.3L258.5 352.3L258.5 352.4L258.6 352.4L258.6 352.5L258.7 352.5L258.7 352.6L258.7 352.6L258.8 352.7L258.8 352.7L258.9 352.7L258.9 352.7L259.0 352.8L259.3 353.2L259.5 353.4L259.6 353.4L259.6 353.4L259.6 353.4L259.7 353.5L259.7 353.5L259.8 353.5L259.8 353.6L259.8 353.6L259.8 353.6L259.9 353.7L259.9 353.7L260.0 353.7L260.0 353.7L260.1 353.8L260.1 353.8L260.2 353.8L260.2 353.8L260.2 353.8L260.3 353.9L260.3 353.9L260.3 353.9L260.4 353.9L260.4 354L260.5 354.0L260.5 354.0L260.6 354.0L260.6 354.0L260.7 354.0L260.7 354.1L260.8 354.1L260.9 354.1L260.9 354.1L261 354.1L261.0 354.2L261.1 354.2L261.1 354.2L261.2 354.2L261.2 354.2L261.2 354.2L261.3 354.2L261.3 354.2L261.3 354.2L261.4 354.2L261.5 354.2L261.5 354.2L261.5 354.2L261.6 354.3L261.6 354.3L261.7 354.3L261.8 354.3L261.8 354.3L261.8 354.3L261.9 354.3L262.0 354.3L262.0 354.3L262.1 354.3L262.1 354.2L262.1 354.2L262.2 354.2L262.2 354.2L262.3 354.2L262.3 354.2L262.3 354.2L262.4 354.2L262.5 354.2L262.5 354.2L262.6 354.2L262.6 354.2L262.7 354.1L262.7 354.1L262.8 354.1L263.0 354.0L263.0 354.0L263.1 354.0L263.1 354.0L263.1 354.0L263.2 354.0L263.2 353.9L263.3 353.9L263.3 353.9L263.3 353.9L263.4 353.9L263.4 353.9L263.4 353.8L263.5 353.8L263.5 353.8L263.6 353.8L263.6 353.8L263.6 353.7L263.7 353.7L263.7 353.7L263.7 353.7L263.8 353.6L263.8 353.6L263.8 353.6L263.9 353.5L264.0 353.5L264.0 353.5L264.1 353.4L264.1 353.3L264.2 353.3L264.2 353.3L264.2 353.3L264.2 353.2L264.3 353.2L264.3 353.2L264.4 353.1L264.8 352.7L265.0 352.1L265.0 352.1L265.8 350.5L267.1 349.1L268.7 348.2L271.2 347.7L271.2 347.7L273.2 348.0L275.1 348.9L276.6 350.3L277.6 352.2L278.0 354.2L278.0 354.4L277.6 356.6L276.6 358.5L276.6 358.5L275.8 359.3L275.7 359.9L275.6 360.0L275.6 360.0L275.6 360.1L275.6 360.2L275.5 360.3L275.5 360.3L275.5 360.3L275.5 360.4L275.5 360.4L275.5 360.5L275.5 360.5L275.5 360.6L275.5 360.6L275.5 360.6L275.5 360.7L275.5 360.7L275.5 360.8L275.4 360.8L275.4 360.9L275.4 360.9L275.4 360.9L275.4 361.0L275.4 361.0L275.4 361.1L275.4 361.3L275.4 361.3L275.4 361.3L275.4 361.4L275.4 361.5L275.4 361.5L275.4 361.5L275.5 361.6L275.5 361.6L275.5 361.6L275.5 361.7L275.5 361.7L275.5 361.8L275.5 361.8L275.5 361.8L275.5 361.9L275.5 361.9L275.5 362.0L275.5 362.0L275.5 362.0L275.6 362.1L275.6 362.1L275.6 362.1L275.6 362.3L275.6 362.3L275.6 362.4L275.7 362.4L275.7 362.4L275.7 362.5L275.7 362.5L275.7 362.5L275.7 362.6L275.8 362.6L275.8 362.6L275.8 362.7L275.8 362.7L275.8 362.7L275.8 362.8L275.9 362.8L275.9 362.9L275.9 362.9L275.9 362.9L275.9 363L276.0 363.0L276.0 363.0L276.0 363.1L276.1 363.1L276.1 363.1L276.1 363.2L276.1 363.2L276.1 363.2L276.2 363.2L276.2 363.3L276.2 363.3L276.3 363.4L276.3 363.4L277.0 364.3L277.0 364.4L277.1 364.5L277.1 364.5L277.1 364.6L277.1 364.6L277.2 364.6L277.2 364.6L277.2 364.7L277.2 364.7L277.3 364.7L277.3 364.8L277.3 364.8L277.4 364.8L277.4 364.9L277.5 364.9L277.5 365.0L277.5 365.0L277.5 365.0L277.6 365.0L277.6 365.1L277.6 365.1L277.7 365.1L277.7 365.2L277.7 365.2L277.7 365.2L277.8 365.2L277.8 365.3L277.9 365.3L277.9 365.3L277.9 365.4L277.9 365.4L278.0 365.4L278.0 365.4L278.1 365.5L278.2 365.5L279.2 366.3L279.6 366.7L279.7 366.8L279.7 366.8L279.7 366.9L279.8 366.9L279.8 366.9L279.8 366.9L279.8 367.0L279.9 367.0L279.9 367.0L280.1 367.1L280.1 367.2L280.1 367.2L280.2 367.2L280.2 367.3L280.2 367.3L280.3 367.3L280.3 367.3L280.3 367.3L280.5 367.5L280.5 367.5L280.6 367.5L280.6 367.5L280.6 367.5L280.7 367.5L280.7 367.6L280.8 367.6L280.8 367.6L280.9 367.6L280.9 367.7L280.9 367.7L281.0 367.7L281.1 367.7L281.1 367.7L281.1 367.7L281.3 367.8L281.3 367.8L281.3 367.8L281.4 367.8L281.4 367.8L281.4 367.8L281.5 367.8L281.6 367.8L281.6 367.9L281.6 367.9L281.7 367.9L281.7 367.9L281.8 367.9L281.9 367.9L281.9 367.9L282.0 367.9L283.8 368.3L285.4 369.2L286.7 370.6L287.7 372.4L288.1 374.4L288.1 374.4L287.6 374.8L284.3 374.5L280.1 375.9L278.2 377.9L281.7 376.4L285.5 376.9L286.1 378.1L284.2 378.1L282.4 379.3L282.9 380.0L290.6 381.6L291.7 381.3L292.8 381.4L294.9 382.3L296.6 383.8L297.7 385.7L297.9 386.3L298.1 388.6L298.1 389.1L298.1 389.2L298.0 389.2L298.0 389.3L298.0 389.3L298.0 389.4L298.0 389.4L298.0 389.5L298.0 389.5L298.0 389.5L298.0 389.6L298.0 389.8L298.0 389.9L298.0 389.9L298.0 389.9L298.0 390.0L298.0 390.0L298.0 390.1L298.0 390.2L298.0 390.2L298.1 390.2L298.1 390.3L294.3 392.3L292.8 394.4L292.8 396.8L288.2 396.8L285.5 399.4L278.2 401.9L275.7 404.6L263.9 401.7L254.0 403.6L251.1 405.7L248.4 404.0L249.5 402.9L248.0 401.5L242.6 401.4L243.5 402.8L242.8 403.9L238.4 403.4L232.2 405.9L224.1 406.4L221.6 405.6L220.7 407.1L223.7 408.1L223.6 410.7L221.2 411.1L213.2 409.0L211.5 410.6L212.2 412.7L207.5 408.3L207.4 408.2L207.4 408.2L207.4 408.0L207.8 405.9L208.8 404.1L210.4 402.6L210.5 402.6L210.5 402.5L210.5 402.5L210.6 402.5L210.6 402.5L210.6 402.5L210.6 402.4L210.7 402.4L210.7 402.4L210.8 402.3L210.8 402.3L210.8 402.3L210.9 402.2L210.9 402.2L211.0 402.1L211.1 402.1L211.1 402.0L211.1 402.0L211.1 402.0L211.2 401.9L211.2 401.9L211.2 401.8L211.3 401.8L211.3 401.8L211.3 401.7L211.3 401.7L211.4 401.6L211.4 401.6L211.5 401.5L211.5 401.5L211.5 401.5L211.5 401.4L211.5 401.4L211.5 401.4L211.6 401.3L211.6 401.3L211.6 401.3L211.6 401.2L211.6 401.2L211.7 401.1L211.7 401.1L211.7 401.1L211.7 401.0L211.7 401.0L211.7 401.0L211.8 400.7L211.8 400.7L211.8 400.7L211.8 400.6L211.8 400.6L211.9 400.5L211.9 400.5L211.9 400.4L211.9 400.4L211.9 400.3L211.9 400.3L211.9 400.3L211.9 400.2L211.9 400.2L211.9 400.1L211.9 400.1L211.9 400.1L211.9 400.0L211.9 400.0L211.9 399.9L211.9 399.9L211.9 399.7L211.9 399.7L211.9 399.6L211.9 399.5L211.9 399.5L211.9 399.5L211.9 399.4L211.9 399.4L211.9 399.3L211.9 399.3L211.9 399.3L211.9 399.2L211.9 399.2L211.9 399.1L211.9 399.1L211.8 399.0L211.8 398.9L211.8 398.9L211.8 398.9L211.8 398.8L211.7 398.6L211.7 398.6L211.7 398.6L211.7 398.5L211.7 398.5L211.7 398.5L211.6 398.3L211.6 398.3L211.6 398.3L211.5 398.2L211.5 398.2L211.5 398.2L211.5 398.1L211.5 398.1L211.5 398.1L211.4 398.0L211.4 398.0L211.4 398.0L211.3 397.9L211.3 397.8L211.3 397.8L211.3 397.8L211.2 397.8L211.2 397.7L211.2 397.7L211.2 397.7L211.1 397.6L211.1 397.6L211.1 397.5L211.1 397.5L211.0 397.5L210.9 397.4L210.9 397.3L210.8 397.3L210.8 397.3L210.8 397.2L210.7 397.2L210.7 397.2L210.6 397.1L210.6 397.1L210.6 397.1L210.6 397.1L210.5 397.1L210.5 397.0L210.5 397.0L210.4 397.0L209.3 396.0L209.2 396.0L209.1 395.9L209.1 395.8L209.0 395.8L209.0 395.7L209 395.7L208.9 395.7L208.9 395.7L208.9 395.6L208.8 395.6L208.8 395.6L208.8 395.6L208.7 395.5L208.7 395.5L208.6 395.5L208.6 395.5L208.5 395.4L208.5 395.4L208.4 395.3L208.4 395.3L208.3 395.3L208.3 395.3L208.3 395.3L208.2 395.2L208.2 395.2L208.1 395.2L208.1 395.2L208.1 395.2L208.0 395.2L208.0 395.1L207.9 395.1L207.8 395.1L207.7 395.1L207.7 395.1L207.7 395.0L207.6 395.0L207.6 395.0L207.5 395.0L207.5 395.0L207.4 395.0L207.4 395.0L207.3 395.0L207.3 395.0L207.3 395.0L207.2 395L207.2 394.9L207.1 394.9L207.1 394.9L207.1 394.9L207.0 394.9L207.0 394.9L206.9 394.9L206.9 394.9L206.9 394.9L206.7 394.9L206.7 394.9L206.6 394.9L206.6 394.9L206.5 394.9L206.5 394.9L206.4 394.9L206.4 394.9L206.4 395.0L206.3 395.0L206.3 395.0L206.2 395.0L206.2 395.0L206.1 395.0L206.1 395.0L206.0 395.0L206.0 395.0L206 395.0L205.9 395.0L205.9 395.1L205.8 395.1L205.8 395.1L205.8 395.1L205.7 395.1L205.7 395.1L205.7 395.1L205.6 395.1L205.6 395.2L205.5 395.2L205.5 395.2L205.5 395.2L205.4 395.2L205.4 395.2L205.3 395.3L205.3 395.3L205.2 395.3L205.2 395.3L205.2 395.3L205.1 395.4L205.1 395.4L204.9 395.5L204.9 395.5L204.8 395.5L204.8 395.6L204.8 395.6L204.8 395.6L204.7 395.7L204.6 395.8L204.6 395.8L204.5 395.8L204.5 395.8L204.5 395.9L204.4 395.9L204.4 395.9L204.3 396.0L204.3 396.0L204.3 396.1L203.8 396.5L203.6 397.1L203.6 397.1L202.6 398.9L201.1 400.3L199.2 401.2L199.2 401.2L197.2 401.5L195.3 401.2L193.6 400.3L192.1 399.0L191.1 397.3L190.6 394.3 Z M 184.0 377.3L184.0 376.8L184.1 376.2L185.1 374.2L186.6 372.6L188.4 371.6L190.4 371.2L192.7 371.6L194.9 372.7L196.4 374.6L197.3 376.8L197.3 376.9L196.6 377.1L194.9 380.7L189.8 381.2L186.1 380.1 Z M 287.5 378.0L287.5 378.1L287.5 378.1L287.5 378.1L287.5 378.2L287.5 378.2L287.5 378.2L287.5 378.3L287.5 378.3L287.5 378.4L287.5 378.4L287.5 378.5L287.5 378.5L287.6 378.6L287.6 378.6L287.6 378.7L287.6 378.8L287.6 378.8L287.6 378.8L287.6 378.9L287.6 378.9L287.7 379.0L287.7 379.1L287.7 379.1L287.7 379.1L287.7 379.2L287.7 379.2L287.8 379.3L287.8 379.3L287.8 379.3L287.8 379.4L287.8 379.4L287.8 379.5L287.9 379.5L287.9 379.5L287.9 379.6L287.9 379.6L287.9 379.6L288.1 379.8L288.1 379.9L288.1 379.9L288.2 380.0L288.2 380.0L288.2 380.0L288.2 380.0L288.2 380.1L288.3 380.1L288.3 380.2L288.3 380.2L288.4 380.2L288.4 380.3L288.4 380.3L288.5 380.4L288.5 380.4L288.5 380.4L288.6 380.4L288.6 380.5L288.7 380.5L288.7 380.5L288.7 380.6L288.8 380.6L288.8 380.6L288.8 380.6L288.9 380.7L288.9 380.7L288.9 380.7L287.3 380.4L286.8 377.9 Z M 215.8 310.5L216.9 312.4L217.3 314.5L217.0 316.6L216.0 318.5L214.5 320.1L212.6 321.1L210.5 321.4L208.4 321.0L208.3 321.0L208.2 321.0L208.2 321.0L208.1 321L208.1 320.9L208.1 320.9L208.0 320.9L208.0 320.9L207.9 320.9L207.8 320.9L207.8 320.9L207.7 320.9L207.7 320.9L207.7 320.9L207.6 320.8L207.5 320.8L207.5 320.8L207.5 320.8L207.4 320.8L207.3 320.8L207.3 320.8L205.3 320.5L203.4 319.5L202.0 318.1L201.1 316.2L201.1 316.2L200.7 314.3L200.7 314.3L200.7 314.1L200.8 313.0L200.8 313.0L200.8 312.8L200.8 312.8L200.8 312.7L200.8 312.7L200.8 312.6L200.8 312.6L200.8 312.6L200.8 312.3L200.8 312.3L200.8 312.2L200.8 312.2L200.8 312.2L200.8 312.1L200.8 312.0L200.8 312.0L200.8 311.9L200.8 311.8L200.7 310.6L200.7 310.6L201.2 308.3L201.2 308.3L202.8 310.1L205.2 309.9L206.9 307.7L203.5 308.8L201.6 307.6L202.4 306.3L204.2 304.8L206.5 304.1L206.8 304.1L207.6 304.0L207.6 304.0L209.5 304.4L211.3 305.2L212.7 306.6 Z M 214.0 335.6L213.3 337.5L212.1 339.1L210.4 340.3L208.4 340.9L207.3 341.0L207.3 341.0L206.3 340.9L206.3 340.9L204.4 340.3L202.7 339.1L201.5 337.5L200.8 335.6L200.7 333.6L201.2 331.7L202.2 330.0L203.7 328.6L205.6 327.8L207.5 327.5L207.6 327.6L208.5 327.6L208.9 327.7L211.2 328.7L211.2 328.7L211.9 329.2L213.3 331.1L214.1 333.3L214.0 335.6 Z M 190.7 259.5L191.4 257.3L192.8 255.4L194.7 254.2L196.9 253.6L197.2 253.6L197.2 253.6L199.2 253.9L201.1 254.7L202.6 256.1L203.6 257.8L204.0 259.8L204.1 259.8L204.0 259.9L204.1 260.0L204.1 260.1L204.1 260.1L204.1 260.3L204.1 260.3L204.1 260.4L204.2 260.4L204.2 260.4L204.2 260.5L204.2 260.5L204.2 260.5L204.2 260.6L204.2 260.6L204.2 260.6L204.2 260.7L204.3 260.7L204.3 260.8L204.3 260.8L204.3 260.8L204.3 260.9L204.4 261L204.4 261.0L204.4 261.0L204.4 261.1L204.4 261.1L204.4 261.1L204.5 261.1L204.5 261.2L204.5 261.2L204.5 261.2L204.6 261.4L204.6 261.4L204.6 261.4L204.7 261.5L204.7 261.5L204.7 261.5L204.7 261.6L204.7 261.6L204.8 261.6L204.8 261.6L204.8 261.7L204.9 261.8L204.9 261.8L204.9 261.8L205.0 261.8L205.0 261.9L205.1 262.0L205.1 262.0L205.1 262.0L205.2 262.1L206.4 263.5L206.5 263.6L206.5 263.7L206.6 263.8L206.6 263.8L206.6 263.8L206.6 263.8L206.7 263.9L206.7 263.9L206.7 264.0L206.8 264.0L206.8 264.1L206.9 264.1L206.9 264.1L207.0 264.3L207.1 264.3L207.1 264.3L207.1 264.4L207.2 264.4L207.2 264.4L207.2 264.4L207.2 264.5L207.3 264.5L207.3 264.5L207.3 264.5L207.4 264.6L207.4 264.6L207.4 264.6L207.5 264.7L207.6 264.7L209.1 266.0L210.2 267.6L210.7 269.5L210.8 270.3L210.8 270.3L210.7 271.5L210.7 271.6L210.7 271.6L210.7 271.7L210.7 271.7L210.7 271.7L210.7 271.8L210.7 271.9L210.7 271.9L210.7 272.1L210.6 272.1L210.6 272.1L210.7 272.2L210.7 272.3L210.7 272.3L210.7 272.4L210.7 272.5L210.7 272.6L210.7 272.6L210.7 272.6L210.7 272.7L210.7 272.7L210.8 274.3L210.7 274.9L210.7 274.9L210.7 275.0L210.7 275.0L210.7 275.1L210.7 275.1L210.7 275.2L210.7 275.2L210.7 275.2L210.7 275.3L210.7 275.3L210.7 275.4L210.6 275.5L210.6 275.5L210.7 275.5L210.7 275.6L210.7 275.7L210.7 275.7L210.7 275.9L210.7 275.9L210.7 276.0L210.7 276.0L210.7 276.1L210.8 276.5L210.8 276.5L210.8 277.3L210.4 279.3L209.5 281.1L208.0 282.6L206.2 283.5L204.2 283.9L204.2 283.9L202.7 283.7L204.3 280.3L204.8 275.1L197.7 279.9L197.7 279.9L197.7 279.9L197.7 279.9L197.7 279.8L197.6 279.8L197.6 279.8L197.6 279.8L197.5 279.8L197.5 279.7L197.5 279.7L197.5 279.7L197.4 279.7L197.4 279.6L197.4 279.6L197.3 279.6L197.3 279.6L197.3 279.6L197.2 279.5L195.0 277.3L194.9 277.2L194.9 277.1L194.9 277.1L194.8 277.1L194.8 277.0L194.8 277.0L194.8 277.0L194.7 276.9L194.7 276.9L194.6 276.8L194.5 276.7L194.5 276.7L194.4 276.6L194.4 276.6L194.3 276.5L194.2 276.4L194.1 276.4L194.1 276.4L194.1 276.3L194.1 276.3L194.0 276.3L194.0 276.3L194.0 276.2L193.9 276.2L193.8 276.1L193.5 275.9L191.8 272.9L191.3 270.2L190.7 269.4L190.7 269.3L190.7 269.3L190.7 269.2L190.7 269.2L190.7 269.2L190.8 269.1L190.8 269.1L190.8 269.0L190.8 269L190.8 268.9L190.8 268.8L190.8 268.8L190.8 268.7L190.8 268.7L190.8 268.6L190.8 268.6L190.8 268.5L190.7 268.4L190.7 268.3L190.7 268.3L190.7 268.2L190.7 268.2L190.6 267.4L190.6 267.1L190.6 267.1L190.7 266.0L190.7 265.9L190.7 265.9L190.8 265.7L190.8 265.7L190.8 265.6L190.8 265.6L190.8 265.6L190.8 265.5L190.8 265.4L190.8 265.3L190.8 265.3L190.8 265.2L190.8 265.2L190.8 265.2L190.8 265.1L190.8 265.0L190.7 264.9L190.7 264.9L190.7 264.8L190.6 263.5L190.7 262.6L190.7 262.6L190.7 262.5L190.8 262.3L190.8 262.3L190.8 262.2L190.8 262.2L190.8 262.1L190.8 262.1L190.8 262.0L190.8 262.0L190.8 261.9L190.8 261.8L190.8 261.8L190.8 261.8L190.8 261.7L190.8 261.6L190.7 261.5L190.7 261.5L190.7 259.5 Z M 183.7 421.6L181.7 421.3L179.9 420.3L178.4 418.8L177.5 417.0L177.2 414.9L177.3 413.8L177.3 413.8L177.3 413.7L177.3 413.7L177.3 413.6L177.3 413.6L177.3 413.6L177.3 413.5L177.3 413.5L177.3 413.4L177.3 413.4L177.3 413.3L177.3 413.1L177.3 413.1L177.3 413.0L177.3 413.0L177.3 412.9L177.3 412.9L177.3 412.8L177.3 412.8L177.3 412.7L177.3 412.6L177.2 411.4L177.2 411.4L177.5 409.5L178.4 407.7L179.7 406.3L181.4 405.3L183.3 404.9L183.4 404.8L183.5 404.8L183.5 404.8L183.6 404.8L183.6 404.8L183.6 404.8L183.7 404.8L183.7 404.8L183.8 404.8L183.9 404.8L183.9 404.8L184.0 404.7L184.0 404.7L184.0 404.7L184.1 404.7L185.1 404.6L185.7 403.6L185.7 403.6L187.2 402.4L188.9 401.7L191.3 401.5L193.5 402.1L195.5 403.5L196.8 405.5L196.8 405.5L197.0 406.5L193.0 407.6L188.4 410.1L183.9 421.6 Z M 186.8 334.3L187.8 334.3L189.8 334.8L192.0 336.2L193.2 337.8L193.8 339.6L194.0 341.5L193.6 343.1L193.0 344.6L191.2 346.5L189.2 347.4L186.9 347.7L185.3 347.4L183.9 346.8L183.2 346.4L182.0 345.1L181.1 343.6L180.6 341.8L180.6 341.3L180.5 341.0L180.8 339.3L181.5 337.6L182.5 336.2L182.5 336.2L184.5 334.9L186.8 334.3 Z M 170.6 323.9L170.8 322.1L171.8 320.2L173.4 318.7L175.3 317.7L177.4 317.5L177.4 317.5L177.7 317.5L177.8 317.5L179.7 318L181.4 319.0L182.8 320.4L183.6 322.2L183.9 324.2L183.9 324.6L183.1 327.4L183.1 327.4L181.5 329.4L179.5 330.5L177.2 330.9L177.2 330.9L175.9 330.7L173.9 327.7L174.4 323.4 Z M 165.9 196.6L168.2 196.6L170.3 197.3L172.0 198.7L173.3 200.5L173.8 202.7L173.8 202.7L173.8 203.2L173.8 203.2L173.8 204.3L173.2 206.1L172.1 207.7L170.6 209.0L168.8 209.7L167.9 209.8L162.8 208.0L163.5 203.3L161.9 207.4L160.8 205.6L160.8 205.6L160.4 203.7L160.6 201.7L161.3 199.9L162.5 198.4L164.1 197.2L165.9 196.6 Z M 166.6 209.9L165.1 209.6L164.9 209.5 Z M 157.3 153.6L159.8 152.9L159.9 152.8L160.0 152.9L160.1 152.8L160.1 152.8L160.2 152.8L160.3 152.8L160.3 152.8L160.4 152.8L160.4 152.8L160.4 152.7L160.5 152.7L160.6 152.7L160.6 152.7L160.6 152.7L160.7 152.7L160.8 152.6L160.8 152.6L160.8 152.6L160.9 152.6L160.9 152.6L160.9 152.6L161.0 152.6L161.0 152.5L161.1 152.5L161.1 152.5L161.1 152.5L161.2 152.5L161.2 152.4L161.2 152.4L161.3 152.4L161.3 152.4L161.4 152.3L161.5 152.3L161.5 152.2L161.5 152.2L161.6 152.2L161.6 152.2L161.6 152.2L161.6 152.1L161.7 152.1L161.7 152.1L161.8 152.0L161.8 152.0L161.8 152.0L162.0 151.8L162.0 151.8L162.1 151.8L162.1 151.7L163.8 150.4L165.8 149.6L167.1 149.5L169.0 149.7L170.9 150.7L172.5 152.2L173.5 154.0L173.8 156.0L173.7 157.3L173.7 157.3L173.7 157.4L173.7 157.4L173.7 157.5L173.7 157.6L173.7 157.6L173.7 157.6L173.7 157.7L173.7 157.7L173.7 157.7L173.7 158.0L173.7 158.0L173.7 158.1L173.7 158.1L173.7 158.1L173.7 158.2L173.7 158.2L173.7 158.3L173.7 158.4L173.7 158.4L173.7 158.5L173.8 160.2L173.2 162.3L172.0 164.1L170.5 165.3L168.7 166.1L166.8 166.3L166.8 166.3L166.0 166.2L166.0 166.2L165.9 166.2L165.9 166.2L165.8 166.2L165.7 166.1L165.7 166.1L165.6 166.1L165.6 166.1L165.5 166.1L165.5 166.1L165.4 166.1L165.3 166.1L165.3 166.1L165.2 166.1L165.2 166.1L165.2 166.1L165.1 166.2L165.0 166.2L164.9 166.2L164.9 166.2L164.8 166.2L163.8 166.3L162.7 166.2L162.6 166.2L162.6 166.2L162.5 166.2L162.3 166.1L162.3 166.1L162.2 166.1L162.2 166.1L162.1 166.1L162.0 166.1L162.0 166.1L161.9 166.1L161.9 166.1L161.9 166.1L161.8 166.1L161.7 166.1L161.6 166.1L161.5 166.2L161.5 166.2L160.4 166.3L160.1 166.3L158.1 165.9L156.4 165.0L155.0 163.6L154.3 162.4L154.3 162.4L154.0 161.7L153.7 159.6L153.7 159.3L153.9 157.7L154.6 156.2L155.7 154.7L157.3 153.6 Z M 149.4 183.1L151.4 183.2L151.5 183.2L151.5 183.2L151.5 183.2L151.7 183.2L151.7 183.2L151.8 183.2L151.8 183.2L151.8 183.2L146.5 188.3L144.3 186.9L144.4 186.6L145.6 185L147.3 183.8 Z M 154.2 183.1L154.5 183.1L156.4 183.6L158.0 184.7L159.3 186.1L160.1 187.9L160.4 189.8L160.4 190.2L159.8 192.6L159.7 192.7L159.7 192.8L159.7 192.8L159.7 192.9L159.6 192.9L159.6 192.9L159.6 193.0L159.6 193.0L159.6 193.0L159.6 193.1L159.6 193.1L159.5 193.2L159.5 193.2L159.5 193.3L159.5 193.3L159.5 193.4L159.5 193.4L159.5 193.5L159.5 193.5L159.5 193.5L159.5 193.6L159.5 193.6L159.4 193.6L159.4 193.7L159.4 193.7L159.4 193.7L159.4 193.8L159.4 193.8L159.4 193.9L159.4 193.9L159.4 193.9L159.4 194.0L159.4 194.0L159.4 194.3L159.4 194.3L159.4 194.3L159.4 194.4L159.4 194.4L159.4 194.5L159.4 194.5L159.4 194.6L159.4 194.6L159.4 194.6L159.5 194.7L159.5 194.7L159.5 194.7L159.5 194.8L159.5 194.8L159.5 194.9L159.5 195.0L159.5 195.0L159.5 195.1L159.6 195.1L159.6 195.3L159.6 195.3L160.0 197.3L159.9 198.7L154.9 202.7L152.2 206.2L150.8 206.6L150.7 206.5L150.7 206.6L150.3 206.6L148.5 206.3L147.6 205.9L147.8 205.4L147.4 205.9L146.8 205.6L146.4 205.3L149.4 200.1L147.5 200.8L148.3 194.7L151.7 190.8L155.9 190.9L158.3 188.3L159.2 186.3L156.3 190.2L152.3 189.1L152.8 187.6L155.5 186.4L153.4 186.7L152.8 185.2 Z M 159.9 199.0L159.9 199.2L159.1 201.1L157.9 202.6L156.3 203.7L156.2 203.7L156.1 203.8L156.1 203.8L156.0 203.8L156.0 203.8L156.0 203.9L155.9 203.9L155.9 203.9L155.8 203.9L155.8 204.0L155.8 204.0L155.8 204.0L155.7 204.0L155.7 204.0L155.7 204.1L155.6 204.1L155.6 204.1L155.6 204.1L155.6 204.1L155.4 204.3L155.4 204.3L155.4 204.3L155.3 204.4L155.3 204.4L155.3 204.4L155.2 204.4L155.2 204.5L154.3 205.1L155.7 202.8 Z M 144.9 203.7L144.3 202.9L144.0 202.0L145.3 201.0L145.5 202.7 Z M 144.6 193.4L144.6 193.4L144.6 193.3L144.6 193.3L144.6 193.3L144.5 193.2L144.5 193.2L144.5 193.2L144.5 193.1L143.9 191.9L143.6 189.8L143.7 188.5L143.9 188.0L147.0 189.9L146.7 191.7 Z M 244.9 407.2L242.4 410.4L239.7 411.3L234.6 408.1L232.8 408.3L239.0 404.1L243.5 405.3 Z M 246.9 401.8L247.2 403.9L245.7 403.5 Z M 145.9 200.4L144.7 200.7L145.9 199.4 Z M 147.5 197.3L146.7 199.8L146.8 197.0 Z M 148.0 194.8L147.2 196.8L146.8 195.5 Z M 149.8 191.5L148.9 192.7L148.6 191.6 Z M 149.8 191.5 "/>
<path style=" stroke:none;fill-rule:nonzero;fill:#C2B855;fill-opacity:1;" d="M 46.0 288.2L47.3 288.9L47.3 288.9L48.8 290.3L48.9 290.4L48.9 290.3L50.6 289.2L50.7 289.2L52.2 288.7L53.8 288.6L54.2 288.6L56.4 289.2L58.3 290.5L59.5 292.2L59.6 292.3L59.6 292.4L59.9 293.1L60.5 293.4L60.5 293.4L60.5 293.4L60.5 293.5L60.6 293.5L60.8 293.7L60.8 293.7L60.8 293.7L62.0 294.9L63.0 296.7L63.3 298.7L63.1 300.7L62.3 302.5L61.7 303.2L54.2 303.3L53.1 301.9L52.1 302.1L53.2 298.0L52.2 298.6L51.4 297.9L48.7 299.8L48.4 299.7L48.1 299.4L48.1 299.3L48.0 299.4L47.6 299.6L46.9 299.6L46.4 298.1L48.0 296.4L47.1 295.4L44.4 296.4L40.7 294.6L42.5 293.5L43.0 292.6L41.3 291.1L41.1 289.7L42.7 289.3L44.4 289.6L44.5 288.4L45.0 288.2 Z M 34.8 342.9L36.7 341.8L39.0 341.4L39.1 341.4L41.7 342.0L41.8 342.1L41.8 342.1L41.8 342.1L41.9 342.1L41.9 342.1L41.9 342.1L42.2 342.2L42.3 342.2L42.3 342.2L42.4 342.3L42.4 342.3L42.5 342.3L42.5 342.3L42.6 342.3L42.6 342.3L42.7 342.3L42.7 342.3L42.7 342.3L42.8 342.3L42.8 342.3L42.8 342.3L42.9 342.3L42.9 342.3L43 342.3L43.0 342.3L43.2 342.3L43.3 342.3L43.3 342.3L43.4 342.3L43.4 342.3L43.4 342.3L43.5 342.3L43.5 342.3L43.5 342.3L43.6 342.3L43.6 342.3L43.6 342.3L43.7 342.3L43.7 342.3L43.8 342.3L43.8 342.3L43.9 342.2L43.9 342.2L44.0 342.2L45.8 342.0L47.3 342.2L47.4 342.2L47.6 342.3L47.6 342.3L47.6 342.3L47.7 342.3L47.8 342.3L47.8 342.3L47.9 342.3L48.0 342.3L48.0 342.3L48.0 342.3L48.1 342.3L48.1 342.3L48.2 342.3L48.3 342.3L48.3 342.3L48.4 342.3L48.4 342.3L48.4 342.3L48.5 342.3L49.0 342.3L49.0 342.3L51.4 342.7L53.5 343.9L55.0 345.8L55.0 345.8L55.6 347.4L55.8 349.0L55.8 349.0L55.5 351.0L54.6 352.8L54.5 352.9L54.5 352.9L54.4 353.1L54.4 353.1L54.4 353.1L54.4 353.1L54.3 353.2L54.3 353.2L54.3 353.2L54.3 353.3L54.3 353.3L54.3 353.3L54.3 353.4L54.2 353.4L54.2 353.4L54.2 353.5L54.2 353.5L54.2 353.5L54.1 353.7L54.1 353.7L54.1 353.7L54.1 353.8L54.1 353.8L54.1 353.8L54.1 353.9L54.1 353.9L54.0 354.1L54.0 354.1L54.0 354.2L54.0 354.2L54.0 354.3L54.0 354.4L54.0 354.4L54.0 354.4L54.0 354.5L54.0 354.5L54.0 354.6L54.0 354.6L54.0 354.6L54.0 354.7L54.0 354.8L54.0 354.9L54.0 354.9L54.0 355.0L54.0 355.0L54.0 355.0L54.0 355.1L54.0 355.1L54.0 355.2L54.0 355.2L54.0 355.3L54.0 355.3L54.0 355.4L54.0 355.4L54.0 355.4L54.0 355.5L54.1 355.5L54.1 355.6L54.1 355.6L54.1 355.7L54.1 355.7L54.1 355.7L54.2 355.9L54.2 355.9L54.2 356.0L54.2 356.0L54.2 356.0L54.2 356.1L54.2 356.1L54.3 356.1L54.3 356.2L54.3 356.2L54.9 358.9L54.9 358.9L54.8 360.3L54.1 362.3L52.9 363.9L51.2 365.1L49.2 365.7L49.2 365.7L48.2 365.8L46.0 365.4L46.0 365.4L44.8 364.7L46.4 363.8L44.2 364.4L43.8 364.1L43.4 363.6L48.7 361.1L49.2 360.4L49.1 359.7L47.8 359.2L45.4 360.5L41.4 361.1L41.4 361.1L41.4 361.1L41.4 361.0L41.3 361.0L41.3 360.9L41.2 360.9L41.2 360.9L41.1 360.8L39.5 359.1L38.9 357.7L41.2 356.9L43.3 355.3L46.9 353.8L38.2 355.9L38.2 355.9L38.2 355.9L38.2 355.8L38.1 355.8L38.1 355.8L38.1 355.7L38.1 355.7L38.0 355.6L38.0 355.6L38.0 355.6L38.0 355.5L37.9 355.5L37.9 355.5L37.9 355.4L37.8 355.4L37.8 355.4L37.8 355.3L37.8 355.3L37.7 355.3L37.7 355.2L37.7 355.2L37.6 355.2L37.6 355.1L37.6 355.1L37.5 355.1L37.5 355.0L37.4 354.9L37.4 354.9L37.3 354.9L37.3 354.9L37.3 354.9L37.3 354.8L37.2 354.8L37.2 354.8L37.2 354.8L36.9 354.6L36.9 354.6L36.8 354.6L36.8 354.6L36.8 354.5L36.8 354.5L36.7 354.5L36.7 354.5L36.6 354.5L36.6 354.4L36.6 354.4L36.6 354.4L36.5 354.4L34.7 353.4L33.3 351.9L32.5 350.0L32.4 349.5L32.7 349.2L32.4 349.0L32.3 348.1L32.7 347.7L38.1 346.1L41.1 344.0L43.5 343.7L43.7 343.0L42.3 342.6L39.5 343.3 Z M 34.8 342.9 "/>
<path style=" stroke:none;fill-rule:nonzero;fill:#C2B855;fill-opacity:1;" d="M 51.0 302.5L50.7 302.0L50.6 302.0L50.4 301.3L50.3 301.2L50.6 300.3L51.2 300.5L51.2 301.9 Z M 51.0 302.5 "/>
















</g>
</svg>
