<?xml version="1.0" encoding="UTF-8"?>
<svg xmlns="http://www.w3.org/2000/svg" xmlns:xlink="http://www.w3.org/1999/xlink" width="378pt" height="504pt" viewBox="0 0 378 504" version="1.1">
<g id="data">
<rect x="0" y="0" width="378" height="504" style="fill:rgb(100%,100%,100%);fill-opacity:1;stroke:none;"/>
<path style=" stroke:none;fill-rule:nonzero;fill:rgb(100%,100%,100%);fill-opacity:1;" d="M 21 504L357 504L357 0L21 0 Z M 21 504 "/>
<path style=" stroke:none;fill-rule:nonzero;fill:#C2B855;fill-opacity:1;" d="M 175.7 404.5L174.2 404.8L174.2 404.8L172.2 404.6L170.4 403.9L168.8 402.6L167.6 400.7L167.1 398.5L167.3 396.4L168.1 394.6L168.3 394.7L170.2 392.5L171.5 391.8L172.4 391.5L173.8 391.4L175.9 391.7L177.7 392.6L177.7 392.6L179.2 394.1L179.3 394.3L180.7 394L180.8 393.9L180.8 393.9L180.9 393.9L181.0 393.9L181.0 393.9L181.1 393.9L181.1 393.9L181.1 393.9L181.4 393.8L181.4 393.8L181.5 393.8L181.5 393.8L181.5 393.8L181.7 393.8L181.7 393.7L181.8 393.7L181.8 393.7L181.8 393.7L181.9 393.7L181.9 393.7L181.9 393.7L182.0 393.6L182.0 393.6L182.1 393.6L182.1 393.6L182.1 393.6L182.2 393.5L182.2 393.5L182.3 393.5L182.3 393.5L182.3 393.5L182.4 393.4L182.4 393.4L182.4 393.4L182.5 393.3L182.5 393.3L182.5 393.3L182.6 393.3L182.6 393.3L182.6 393.2L182.7 393.2L182.8 393.1L185.5 391.6L185.6 391.6L186.8 391.4L186.8 391.4L187.6 391.4L187.7 391.4L188.0 391.4L188.0 391.4L188.1 391.4L188.1 391.4L188.1 391.4L188.2 391.4L188.3 391.4L188.3 391.4L188.3 391.4L188.4 391.4L188.4 391.4L188.4 391.4L188.5 391.3L188.5 391.3L188.5 391.3L188.6 391.3L188.6 391.3L188.7 391.3L188.7 391.3L188.7 391.3L188.8 391.3L188.8 391.3L189.0 391.2L189.0 391.2L189.1 391.2L189.1 391.2L189.2 391.1L189.2 391.1L189.3 391.1L189.3 391.1L189.4 391.0L189.4 391.0L189.4 391.0L189.5 391.0L189.5 391.0L189.5 390.9L189.7 390.8L189.7 390.8L189.8 390.8L189.8 390.8L189.9 390.7L189.9 390.7L189.9 390.7L189.9 390.7L190.0 390.6L190.0 390.6L190.0 390.6L190.1 390.6L190.1 390.6L190.1 390.5L190.1 390.5L190.2 390.5L190.3 390.4L190.3 390.3L190.3 390.3L190.4 390.3L190.4 390.2L190.4 390.2L190.4 390.2L190.5 390.1L190.5 390.1L190.5 390.1L190.6 390.0L190.6 390.0L190.6 390.0L190.6 389.9L190.6 389.9L190.7 389.8L190.7 389.8L190.8 389.7L190.8 389.7L190.8 389.6L190.8 389.6L190.9 389.6L190.9 389.5L190.9 389.5L190.9 389.4L190.9 389.4L191.0 389.3L191.0 389.3L191.0 389.3L191.0 389.2L191.1 389.0L191.1 389.0L191.1 388.9L191.1 388.9L191.1 388.9L191.1 388.8L191.1 388.8L191.1 388.7L191.1 388.7L191.2 388.6L191.2 388.6L191.2 388.6L191.2 388.5L191.2 388.5L191.2 388.5L198.4 387.8L200.1 381.5L213.6 366.8L207.1 372.6L205.9 373.9L196.6 377.1L194.9 380.7L189.8 381.2L186.1 380.1L184.0 377.4L184.2 375.9L185.0 374.2L186.3 372.8L187.9 371.8L188.4 371.6L188.4 371.6L188.5 371.6L188.5 371.6L188.6 371.5L188.6 371.5L188.7 371.5L188.7 371.5L188.7 371.5L188.8 371.5L188.8 371.4L188.8 371.4L188.9 371.4L188.9 371.4L189.0 371.3L189.0 371.3L189.1 371.3L189.2 371.2L189.2 371.2L189.3 371.2L189.3 371.1L189.3 371.1L189.3 371.1L189.4 371.1L189.4 371.1L189.4 371.0L189.5 371.0L189.5 370.9L189.6 370.9L189.6 370.8L189.7 370.8L189.7 370.8L189.7 370.8L189.7 370.7L189.8 370.7L189.9 370.6L189.9 370.6L189.9 370.5L189.9 370.5L190.0 370.4L190.0 370.4L190.0 370.4L190.0 370.3L190.1 370.3L190.1 370.3L190.1 370.2L190.1 370.2L190.2 370.2L190.2 370.1L190.2 370.1L190.2 370.1L190.2 370.0L190.3 370.0L190.3 370.0L190.3 369.9L190.3 369.9L190.3 369.9L190.3 369.8L190.4 369.8L190.4 369.7L190.4 369.7L190.4 369.7L190.5 369.6L190.5 369.5L190.5 369.5L190.5 369.4L190.5 369.3L190.5 369.3L190.5 369.3L190.5 369.2L190.6 369.2L190.6 369.1L190.6 369.1L190.6 369.0L190.6 369.0L190.6 369L190.6 368.9L190.6 368.9L190.6 368.8L190.6 368.8L190.6 368.8L190.6 368.7L190.6 368.7L190.6 368.6L190.6 368.5L190.6 368.5L190.6 368.4L190.6 368.3L190.6 368.3L190.6 368.2L190.6 368.1L190.8 366.3L191.5 364.6L192.6 363.1L193.6 362.3L195.0 361.6L195.0 361.6L195.1 361.5L195.1 361.5L195.1 361.5L195.2 361.5L195.2 361.5L195.3 361.5L195.3 361.4L195.3 361.4L195.4 361.4L195.4 361.4L195.5 361.4L195.5 361.3L195.6 361.3L195.6 361.3L195.6 361.3L195.7 361.2L195.7 361.2L195.8 361.2L195.8 361.1L195.8 361.1L195.9 361.1L195.9 361.1L195.9 361.0L196.0 361.0L196.0 361.0L196.0 361L196.1 360.9L196.1 360.9L196.2 360.8L196.2 360.8L196.2 360.8L196.3 360.7L196.3 360.7L196.3 360.7L196.4 360.6L196.4 360.6L196.4 360.5L196.4 360.5L196.5 360.5L196.5 360.5L196.5 360.4L196.5 360.4L196.6 360.4L196.6 360.3L196.6 360.3L196.7 360.1L196.7 360.1L196.8 360.1L196.8 360.0L196.8 360.0L196.8 360.0L196.8 359.9L196.8 359.9L196.9 359.9L196.9 359.8L196.9 359.8L196.9 359.8L196.9 359.7L196.9 359.7L196.9 359.7L197.0 359.6L197.0 359.6L197.0 359.4L197.0 359.4L197.0 359.4L197.1 359.3L197.1 359.3L197.1 359.3L197.1 359.2L197.1 359.2L197.1 359.1L197.1 359.0L197.1 359.0L197.1 358.9L197.1 358.9L197.1 358.9L197.2 358.8L197.2 358.8L197.2 358.7L197.2 358.6L197.2 358.6L197.2 358.6L197.2 358.5L197.2 358.3L197.2 358.3L197.2 358.2L197.2 358.2L197.2 358.2L197.2 358.1L197.2 358.1L197.2 358.1L197.2 358.0L197.1 358.0L197.1 357.9L197.1 357.9L197.1 357.9L197.1 357.8L197.1 357.8L197.1 357.8L197.1 357.7L197.1 357.6L197.1 357.6L197.1 357.5L197.0 357.5L197.0 357.5L197.0 357.3L197.0 357.3L197.0 357.3L197.0 357.2L196.9 357.2L196.9 357.2L196.9 357.1L196.9 357.1L196.9 357.0L196.9 357.0L196.8 357.0L196.8 356.9L196.8 356.9L196.8 356.8L196.8 356.8L196.7 356.8L196.7 356.7L196.7 356.7L196.6 356.6L196.6 356.6L196.6 356.5L196.6 356.5L196.6 356.5L196.5 356.4L196.5 356.4L196.5 356.4L196.5 356.4L196.4 356.3L196.4 356.3L196.4 356.3L196.4 356.2L196.3 356.2L196.3 356.2L196.3 356.1L196.2 356.1L196.1 356.0L196.1 356L194.7 354.1L194.0 351.8L194.0 351.2L194.0 351.2L194.0 350.7L194.0 350.6L194.0 350.6L194.0 350.4L194.0 350.3L194.0 350.3L194.0 350.3L194.0 350.2L194.0 350.2L194.0 350.2L194.0 350.1L194.0 350.1L194.0 350.1L194.0 350.0L194.0 350.0L194.0 349.9L194.0 349.9L193.9 349.8L193.9 349.8L193.9 349.7L193.9 349.6L193.9 349.6L193.9 349.5L193.8 349.5L193.8 349.4L193.8 349.3L193.8 349.3L193.7 349.2L193.7 349.2L193.7 349.1L193.7 349.1L193.7 349.0L193.6 349.0L193.6 348.9L193.6 348.9L193.6 348.9L193.6 348.8L193.5 348.8L193.5 348.7L193.4 348.6L193.4 348.6L193.4 348.5L193.4 348.5L193.3 348.5L193.3 348.4L193.3 348.4L193.2 348.3L193.2 348.3L193.2 348.3L193.1 348.2L193.1 348.2L193.1 348.2L193.1 348.1L192.9 348.0L192.9 348.0L192.9 348.0L192.9 348.0L192.8 347.9L192.8 347.9L192.7 347.8L192.7 347.8L192.7 347.8L192.6 347.8L192.6 347.8L192.6 347.7L192.5 347.7L192.4 347.7L192.4 347.6L192.3 347.6L192.3 347.6L192.3 347.5L192.2 347.5L192.2 347.5L192.2 347.5L192.1 347.5L192.1 347.4L192.0 347.4L192.0 347.4L191.9 347.4L191.9 347.4L191.8 347.4L191.8 347.3L191.8 347.3L191.7 347.3L191.7 347.3L191.7 347.3L191.6 347.3L191.5 347.3L191.5 347.2L191.5 347.2L191.4 347.2L191.4 347.2L191.4 347.2L191.3 347.2L191.3 347.2L191.2 347.2L191.2 347.2L191.2 347.2L191.1 347.2L191.1 347.2L191.1 347.2L191.0 347.2L191.0 347.1L190.9 347.1L190.9 347.1L190.9 347.1L190.8 347.1L190.8 347.1L190.8 347.1L190.7 347.1L190.6 347.1L190.5 347.1L190.5 347.1L190.4 347.1L190.4 347.1L190.4 347.1L190.3 347.1L190.3 347.1L190.2 347.2L190.2 347.2L190.2 347.2L190.1 347.2L190.1 347.2L190.1 347.2L190.0 347.2L189.9 347.2L189.9 347.2L189.8 347.2L189.8 347.2L189.8 347.2L189.7 347.3L189.5 347.3L187.3 347.7L185.2 347.4L183.3 346.4L181.9 345.0L180.9 343.1L180.9 343.1L180.6 341.3L180.5 341.0L180.9 339.0L181.8 337.1L183.2 335.6L185.0 334.7L185.1 334.6L185.1 334.6L185.1 334.6L185.2 334.6L185.3 334.6L185.3 334.5L185.3 334.5L185.4 334.5L185.4 334.5L185.4 334.5L185.5 334.5L185.5 334.4L185.5 334.4L185.6 334.4L185.6 334.4L185.8 334.3L185.8 334.3L185.9 334.2L185.9 334.2L185.9 334.2L186 334.2L186.0 334.1L186.0 334.1L186.0 334.1L186.1 334.1L186.1 334.0L186.2 334.0L186.2 333.9L186.2 333.9L186.4 333.8L186.4 333.7L186.4 333.7L186.5 333.6L186.6 333.6L186.6 333.5L186.6 333.5L186.6 333.5L186.7 333.4L186.7 333.4L186.7 333.4L186.7 333.3L186.8 333.2L186.8 333.1L186.9 333.1L186.9 333.0L186.9 333.0L186.9 333.0L187.0 332.9L187.0 332.9L187.0 332.8L187.0 332.8L187.0 332.7L187.1 332.7L187.1 332.7L187.1 332.6L187.1 332.6L187.1 332.5L187.1 332.4L187.2 332.4L187.2 332.4L187.2 332.3L187.2 332.3L187.2 332.2L187.2 332.2L187.2 332.1L187.2 332.1L187.2 332.1L187.2 332.0L187.3 332.0L187.3 331.9L187.3 331.9L187.3 331.8L187.3 331.8L187.3 331.8L187.3 331.7L187.3 331.7L187.3 331.7L187.3 331.6L187.3 331.5L187.3 331.5L187.3 331.4L187.3 331.4L187.3 331.3L187.3 331.3L187.3 331.2L187.3 330.4L187.4 329.7L188.0 327.9L189.0 326.4L190.5 325.2L190.5 325.2L190.6 325.1L190.6 325.1L190.6 325.1L190.7 325.0L190.7 325.0L190.8 325.0L190.8 325.0L190.8 324.9L190.8 324.9L190.9 324.9L190.9 324.9L191.0 324.8L191.0 324.8L191.0 324.8L191.2 324.6L191.2 324.6L191.2 324.6L191.2 324.5L191.3 324.5L191.3 324.5L191.3 324.5L191.4 324.4L191.4 324.3L191.4 324.3L191.5 324.3L191.5 324.3L191.5 324.2L191.5 324.2L191.5 324.2L191.6 324.1L191.6 324.0L192.3 323.1L192.4 323.0L192.4 323.0L192.4 323.0L192.4 323.0L192.5 322.9L192.5 322.9L192.5 322.8L192.5 322.8L192.6 322.8L192.6 322.8L192.6 322.7L192.7 322.6L192.7 322.5L192.8 322.5L192.8 322.4L192.8 322.4L192.8 322.4L192.8 322.3L192.9 322.3L192.9 322.3L192.9 322.2L192.9 322.2L192.9 322.1L192.9 322.1L193.0 322.1L193.0 322.0L193.0 322.0L193.0 321.9L193.0 321.9L193.0 321.8L193.1 321.7L193.1 321.7L193.1 321.7L193.1 321.6L193.1 321.6L193.1 321.6L193.1 321.5L193.1 321.5L193.1 321.5L193.1 321.4L193.1 321.4L193.2 321.3L193.2 321.3L193.2 321.2L193.2 321.2L193.2 321.2L193.2 321.1L193.2 321.1L193.2 321.1L193.2 321.0L193.2 321.0L193.2 320.7L193.2 320.6L193.2 320.6L193.2 320.6L193.2 320.5L193.2 320.5L193.2 320.5L193.2 320.4L193.2 320.4L193.2 320.3L193.2 320.3L193.1 320.3L193.1 320.2L193.1 320.2L193.1 320.1L193.1 320.1L193.1 320.1L193.1 320.0L193.1 320L193.1 319.9L193.1 319.9L193.0 319.8L193.0 319.8L193.0 319.7L193.0 319.7L193.0 319.6L193.0 319.6L192.9 319.6L192.9 319.5L192.9 319.5L192.9 319.5L192.9 319.4L192.9 319.4L192.8 319.3L192.8 319.3L192.8 319.3L192.8 319.2L192.8 319.2L192.8 319.2L192.6 318.9L192.6 318.9L192.6 318.9L192.5 318.8L192.5 318.8L192.5 318.8L192.5 318.8L192.5 318.7L192.4 318.7L192.4 318.7L192.4 318.6L192.3 318.6L191.0 316.3L190.6 313.8L190.6 313.8L190.9 312.1L192.0 310.0L193.8 308.4L197.9 311.5L198.3 310.6L195.9 306.3L198.7 305.4L202.8 310.1L205.2 309.9L206.9 307.7L203.5 308.8L201.3 307.3L198.3 300.8L198.8 299.8L200.2 298.5L202.0 297.6L203.9 297.3L204.3 297.3L206.3 297.7L206.5 297.8L206.5 297.8L206.6 297.8L206.6 297.8L206.6 297.8L206.7 297.8L206.8 297.8L206.8 297.8L206.9 297.8L206.9 297.8L207.0 297.9L207.0 297.9L207.0 297.9L207.1 297.9L207.1 297.9L207.2 297.9L207.2 297.9L207.2 297.9L207.3 297.9L207.3 297.9L207.5 297.9L207.6 297.9L207.6 297.9L207.6 297.9L207.7 297.9L207.7 297.9L207.8 297.9L207.8 297.9L207.9 297.9L207.9 297.8L208.0 297.8L208.0 297.8L208.1 297.8L208.1 297.8L208.1 297.8L208.2 297.8L208.2 297.8L208.3 297.8L208.3 297.8L208.4 297.8L208.5 297.7L208.6 297.7L210.5 297.3L211.2 297.3L213.7 298.0L215.8 299.5L215.9 299.6L216.0 299.7L216.0 299.8L216.1 299.8L216.1 299.8L216.2 300L216.2 300.0L216.3 300.0L216.3 300.0L216.3 300.0L216.4 300.1L216.4 300.1L216.4 300.1L216.5 300.1L216.5 300.2L216.6 300.2L216.7 300.3L216.7 300.3L216.7 300.3L216.8 300.3L216.8 300.3L216.9 300.4L216.9 300.4L216.9 300.4L217.0 300.4L217.0 300.4L217.0 300.4L217.1 300.5L217.1 300.5L217.1 300.5L217.2 300.5L217.3 300.5L217.4 300.6L217.4 300.6L217.4 300.6L217.5 300.6L217.5 300.6L217.7 300.6L217.7 300.6L217.8 300.7L217.8 300.7L217.8 300.7L217.9 300.7L218 300.7L218.0 300.7L218.0 300.7L218.1 300.7L220.4 301.3L222.4 302.8L222.4 302.8L222.5 302.8L222.5 302.9L222.6 303.0L222.6 303.0L222.7 303.0L222.7 303.1L222.7 303.1L222.8 303.1L222.8 303.1L222.8 303.2L222.9 303.2L222.9 303.2L222.9 303.2L222.9 303.3L223.0 303.3L223.0 303.3L223.2 303.4L223.2 303.4L223.2 303.4L223.3 303.5L223.3 303.5L223.3 303.5L223.4 303.5L223.4 303.5L223.4 303.5L223.5 303.6L223.5 303.6L223.6 303.6L223.6 303.6L223.6 303.6L223.7 303.6L223.7 303.6L223.9 303.7L224 303.7L224.0 303.7L224.0 303.7L224.1 303.8L224.1 303.8L224.2 303.8L224.2 303.8L224.3 303.8L224.3 303.8L224.3 303.8L224.4 303.8L224.4 303.8L224.5 303.8L224.5 303.8L224.5 303.8L224.6 303.8L224.6 303.8L224.6 303.8L224.7 303.9L224.7 303.9L224.8 303.9L225.0 303.9L225.0 303.9L225.0 303.9L225.1 303.8L225.1 303.8L225.2 303.8L225.2 303.8L225.2 303.8L225.3 303.8L225.3 303.8L225.4 303.8L225.4 303.8L225.5 303.8L225.5 303.8L225.5 303.8L225.6 303.8L225.7 303.8L225.7 303.8L225.7 303.7L225.8 303.7L225.8 303.7L225.9 303.7L226.0 303.7L226.0 303.6L226.1 303.6L226.1 303.6L226.2 303.6L226.2 303.6L226.2 303.6L226.3 303.6L226.3 303.5L226.4 303.5L226.4 303.5L226.4 303.5L226.5 303.5L226.5 303.4L226.6 303.4L226.7 303.3L226.8 303.3L226.8 303.3L226.8 303.2L226.8 303.2L226.9 303.2L226.9 303.2L226.9 303.1L227.0 303.1L227.0 303.1L227.0 303.1L227.1 303.0L227.1 303.0L227.1 303.0L227.2 303.0L227.2 302.9L227.2 302.9L227.3 302.8L227.3 302.8L227.3 302.8L227.4 302.7L227.4 302.7L227.4 302.7L227.4 302.7L227.5 302.6L227.5 302.6L227.5 302.6L227.5 302.5L227.6 302.5L227.6 302.5L227.6 302.4L227.7 302.4L227.7 302.3L227.8 302.1L227.8 302.1L227.8 302.1L227.8 302.0L227.9 302.0L227.9 302.0L227.9 301.9L227.9 301.9L227.9 301.8L228.0 301.8L228.0 301.7L228.0 301.7L228.0 301.6L228.9 300.0L230.0 298.9L230.0 298.8L230.1 298.8L230.1 298.8L230.1 298.7L230.2 298.7L230.3 298.6L230.3 298.6L230.3 298.6L230.4 298.5L230.4 298.5L230.4 298.5L230.4 298.4L230.5 298.4L230.5 298.4L230.5 298.3L230.5 298.3L230.6 298.3L230.6 298.2L230.6 298.2L230.6 298.2L230.6 298.2L230.7 298.1L230.8 298.0L230.8 298.0L230.8 297.9L230.8 297.9L230.8 297.9L230.8 297.8L230.9 297.8L230.9 297.8L230.9 297.7L230.9 297.7L230.9 297.7L230.9 297.6L231 297.6L231.0 297.6L231.0 297.5L231.0 297.5L231.0 297.4L231.0 297.4L231.1 297.3L231.1 297.3L231.1 297.2L231.1 297.1L231.1 297.1L231.1 297.1L231.2 296.9L231.2 296.9L231.2 296.9L231.2 296.8L231.2 296.8L231.2 296.8L231.2 296.7L231.2 296.6L231.2 296.6L231.2 296.5L231.2 296.5L231.2 296.5L231.2 296.4L231.2 296.2L231.2 296.1L231.2 296.1L231.2 296.1L231.2 296.0L231.2 296.0L231.2 295.9L231.2 295.9L231.2 295.8L231.2 295.8L231.2 295.8L231.2 295.7L231.2 295.7L231.2 295.6L231.2 295.6L231.1 295.5L231 293.8L231.2 292.1L231.9 290.5L233.2 288.9L233.3 288.9L233.3 288.8L233.3 288.8L233.3 288.8L233.4 288.8L233.4 288.7L233.4 288.7L233.5 288.7L233.5 288.6L233.6 288.5L233.6 288.5L233.6 288.5L233.7 288.4L233.7 288.4L233.7 288.4L233.7 288.3L233.7 288.3L233.8 288.3L233.8 288.3L233.9 288.1L233.9 288.1L233.9 288.0L233.9 288.0L234.0 287.9L234.0 287.9L234.0 287.9L234.0 287.8L234.0 287.8L234.1 287.8L234.1 287.7L234.1 287.7L234.1 287.6L234.1 287.6L234.1 287.5L234.2 287.5L234.2 287.4L234.2 287.3L234.2 287.3L234.2 287.3L234.2 287.2L234.3 287.2L234.3 287.1L234.3 287.0L234.3 287.0L234.3 287.0L234.3 286.9L234.3 286.9L234.3 286.8L234.3 286.8L234.3 286.7L234.3 286.6L234.3 286.6L234.8 284.6L235.8 283.0L237.3 281.6L239.1 280.8L241.0 280.5L241.0 280.5L242.1 280.6L242.2 280.6L242.2 280.6L242.3 280.6L242.4 280.6L242.5 280.6L242.5 280.6L242.5 280.6L242.6 280.6L242.6 280.6L242.8 280.6L242.8 280.6L242.9 280.6L242.9 280.6L242.9 280.6L243.0 280.6L243.0 280.6L243.2 280.6L243.2 280.6L243.2 280.6L243.3 280.6L244.5 280.5L245.5 280.6L245.5 280.6L245.6 280.6L245.7 280.6L245.7 280.6L245.8 280.6L245.9 280.6L245.9 280.6L245.9 280.6L246.0 280.6L246.2 280.6L246.2 280.6L246.2 280.6L246.3 280.6L246.3 280.6L246.3 280.6L246.4 280.6L246.5 280.6L246.5 280.6L246.6 280.6L246.6 280.6L246.7 280.6L247.3 280.5L247.3 280.5L248.8 280.6L248.9 280.6L248.9 280.6L249.0 280.6L249.1 280.6L249.2 280.6L249.2 280.6L249.2 280.6L249.3 280.6L249.3 280.6L249.3 280.6L249.5 280.6L249.6 280.6L249.6 280.6L249.6 280.6L249.7 280.6L249.7 280.6L249.7 280.6L249.9 280.6L249.9 280.6L250.0 280.6L250.0 280.6L250.5 280.5L250.6 280.5L250.6 280.5L250.7 280.5L250.7 280.5L250.7 280.5L250.8 280.5L250.8 280.5L250.9 280.5L250.9 280.5L251.0 280.5L251.0 280.5L251.1 280.4L251.1 280.4L251.2 280.4L251.4 280.3L251.5 280.3L251.5 280.3L251.5 280.3L251.6 280.3L251.6 280.3L251.6 280.3L251.7 280.3L251.7 280.2L251.8 280.2L251.8 280.2L251.8 280.2L251.9 280.1L251.9 280.1L252 280.1L252.2 280.0L252.2 279.9L252.2 279.9L252.3 279.9L252.3 279.9L252.3 279.9L252.4 279.8L252.4 279.8L252.5 279.7L252.5 279.7L252.5 279.7L252.6 279.6L252.6 279.6L252.6 279.6L252.6 279.6L252.7 279.5L252.7 279.5L252.7 279.5L252.8 279.4L252.8 279.4L254.8 277.9L257.2 277.2L258.1 277.2L259.6 277.4L261.9 278.5L263.0 279.8L262.7 280.0L261.9 282.5L264.0 288.1L266.4 291.5L266.1 291.8L264.8 292.9L264.7 292.9L264.7 293.0L264.7 293.0L264.7 293.0L264.6 293.0L264.6 293.0L264.6 293.1L264.5 293.1L264.5 293.1L264.5 293.1L264.5 293.2L264.4 293.2L264.3 293.3L264.3 293.3L264.2 293.4L264.2 293.4L264.2 293.4L264.2 293.4L264.1 293.5L264.1 293.5L264.1 293.6L264.0 293.6L264.0 293.6L264.0 293.7L263.9 293.7L263.9 293.7L263.9 293.8L263.9 293.8L263.8 293.8L263.8 293.9L263.7 294.0L263.7 294.1L263.7 294.1L263.6 294.2L263.6 294.2L263.6 294.2L263.6 294.3L263.6 294.3L263.5 294.4L263.5 294.4L263.5 294.5L263.5 294.5L263.5 294.5L263.4 294.6L263.4 294.7L263.4 294.7L263.4 294.8L263.4 294.9L263.4 294.9L263.3 295.0L263.3 295.0L263.3 295.1L263.3 295.1L263.3 295.2L263.3 295.2L263.3 295.3L260.9 293.0L254.8 294.2L252.9 293.4L251.0 294.5L255.4 295.0L260.3 293.8L262.4 296.8L263.9 297.9L264.2 298.4L264.2 298.5L264.2 298.5L264.2 298.5L264.2 298.6L264.2 298.6L264.3 298.6L264.3 298.7L264.3 298.7L264.3 298.8L264.3 298.8L264.3 298.8L264.4 298.9L264.4 298.9L264.4 298.9L264.4 299.0L264.5 299.0L264.5 299.1L264.5 299.2L264.6 299.2L264.6 299.2L264.6 299.3L264.6 299.3L264.6 299.3L264.7 299.3L264.7 299.4L264.7 299.4L264.8 299.5L264.8 299.5L264.8 299.6L264.8 299.6L264.9 299.6L264.9 299.7L265.1 299.8L265.1 299.9L265.2 299.9L265.2 299.9L265.3 300.0L265.3 300.0L265.3 300.0L265.4 300.0L265.4 300.1L265.4 300.1L265.5 300.1L265.7 300.2L265.7 300.3L265.7 300.3L265.8 300.3L265.8 300.3L265.8 300.3L265.9 300.3L265.9 300.4L265.9 300.4L266.0 300.4L266.0 300.4L266.1 300.4L266.1 300.5L266.2 300.5L266.2 300.5L266.3 300.5L266.4 300.5L266.4 300.6L266.5 300.6L266.5 300.6L266.5 300.6L266.6 300.6L266.7 300.6L266.8 300.6L266.8 300.6L266.8 300.6L266.9 300.6L266.9 300.7L266.9 300.7L267.0 300.7L267.0 300.7L267.1 300.7L267.1 300.7L267.2 300.7L267.2 300.7L267.2 300.7L267.4 300.7L267.5 300.7L267.5 300.7L267.6 300.7L267.6 300.7L267.9 300.7L270.5 302.5L272.5 305.2L275.1 311.3L275.3 316.5L267.8 324.8L269.7 324.4L273.3 327.7L276.1 328.3L280.0 321.2L287.5 320.8L296.7 321.9L305.5 327.6L307.8 332.9L307.9 341.4L305.0 353.4L299.5 359.2L298.1 357.0L295.4 355.8L298.8 361.1L297.2 363.8L293.3 365.4L291.7 363.4L285.2 367.6L286.6 368.6L290.6 366.7L291.2 371.6L287.6 374.8L284.3 374.5L280.1 375.9L278.2 377.9L281.7 376.4L285.5 376.9L286.1 378.1L284.2 378.1L282.4 379.3L282.9 380.0L290.6 381.6L301.7 379.3L302.8 381.4L302.2 388.1L294.3 392.3L292.8 394.4L292.8 396.8L288.2 396.8L285.5 399.4L278.2 401.9L275.7 404.6L263.9 401.7L254.0 403.6L251.1 405.7L248.4 404.0L249.5 402.9L248.0 401.5L242.6 401.4L243.5 402.8L242.8 403.9L238.4 403.4L232.2 405.9L224.1 406.4L221.6 405.6L220.7 407.1L223.7 408.1L223.6 410.7L221.2 411.1L213.2 409.0L211.5 410.6L212.1 412.2L212.0 412.2L212.0 412.1L212.0 412.1L211.9 412.0L211.8 412.0L211.8 412.0L211.8 412.0L211.8 411.9L211.7 411.9L211.7 411.9L211.7 411.9L211.4 411.7L211.4 411.7L211.4 411.7L211.3 411.7L211.3 411.7L211.3 411.6L211.3 411.6L211.2 411.6L211.2 411.6L211.1 411.6L211.1 411.6L211.0 411.5L211.0 411.5L210.9 411.5L210.8 411.5L206.9 407.8L200.7 405.5L193.0 407.6L188.4 410.1L183.9 421.6L181.9 421.3L180.1 420.5L178.6 419.1L177.6 417.3L177.2 415.4L177.2 415.4L177.2 414.9L177.3 413.8L177.3 413.8L177.3 413.7L177.3 413.6L177.3 413.6L177.3 413.6L177.3 413.5L177.3 413.5L177.3 413.4L177.3 413.4L177.3 413.3L177.3 413.1L177.3 413.1L177.3 413.0L177.3 413.0L177.3 412.9L177.3 412.9L177.3 412.8L177.3 412.8L177.3 412.7L177.3 412.6L177.2 411.2L177.2 411.2L177.6 409.3L177.6 409.1L177.7 409.0L177.7 409.0L177.7 408.9L177.7 408.9L177.7 408.8L177.7 408.8L177.7 408.7L177.7 408.7L177.7 408.6L177.7 408.6L177.7 408.6L177.8 408.5L177.8 408.5L177.8 408.5L177.8 408.4L177.8 408.4L177.8 408.4L177.8 408.3L177.8 408.2L177.8 408.1L177.8 408.1L177.8 408.0L177.8 408.0L177.8 407.9L177.8 407.9L177.8 407.9L177.8 407.8L177.7 407.8L177.7 407.7L177.7 407.7L177.7 407.7L177.7 407.6L177.7 407.5L177.7 407.5L177.7 407.4L177.7 407.4L177.7 407.3L177.6 407.3L177.6 407.3L177.6 407.2L177.6 407.2L177.6 407.1L177.6 407.1L177.6 407.0L177.6 407.0L177.5 407.0L177.5 406.9L177.5 406.9L177.5 406.8L177.5 406.8L177.4 406.7L177.4 406.7L177.4 406.7L177.4 406.6L177.4 406.6L177.4 406.6L177.3 406.5L177.3 406.5L177.2 406.3L177.2 406.3L177.2 406.3L177.1 406.2L177.1 406.2L177.1 406.1L177.1 406.1L177.0 406.1L177.0 406.0L177.0 406.0L176.9 406.0L176.9 405.9L176.9 405.9L176.8 405.8L176.8 405.8L176.8 405.8L176.8 405.8L176.7 405.7L176.7 405.7L176.6 405.6 Z M 178.4 254.1L177.5 252.4L177.2 250.3L177.6 248.0L178.8 245.9L180.6 244.4L182.8 243.6L183.0 243.6L184.3 243.6L186.2 244.0L187.9 244.9L189.2 246.1L188.8 246.1L187.7 250.4L183.5 251.3L180.1 254.3 Z M 167.8 368.2L169.0 366.6L170.7 365.3L172.6 364.6L173.4 364.5L174.2 364.5L174.2 364.5L174.9 364.6L174.9 364.6L175.5 364.8L176.1 364.6L176.1 364.6L177.1 364.5L177.1 364.5L179.3 364.8L181.2 365.9L182.8 367.5L183.7 369.5L183.7 369.5L183.9 371.5L183.5 373.4L182.6 375.2L182.4 375.4L179.8 371.9L171.2 375.0L169.5 374.0L169.3 372.0L173.4 371.3L174.4 369.7L170.0 369.5 Z M 244.9 407.2L242.4 410.4L239.7 411.3L234.6 408.1L232.8 408.3L239.0 404.1L243.5 405.3 Z M 246.9 401.8L247.2 403.9L245.7 403.5 Z M 291.5 380.3L290.4 381.0L287.3 380.4L286.8 377.9L290.5 378.7 Z M 291.5 380.3 "/>
















</g>
</svg>
