<?xml version="1.0" encoding="UTF-8"?>
<svg xmlns="http://www.w3.org/2000/svg" xmlns:xlink="http://www.w3.org/1999/xlink" width="378pt" height="504pt" viewBox="0 0 378 504" version="1.1">
<g id="data">
<rect x="0" y="0" width="378" height="504" style="fill:rgb(100%,100%,100%);fill-opacity:1;stroke:none;"/>
<path style=" stroke:none;fill-rule:nonzero;fill:rgb(100%,100%,100%);fill-opacity:1;" d="M 21 504L357 504L357 0L21 0 Z M 21 504 "/>
<path style=" stroke:none;fill-rule:nonzero;fill:rgb(77.6%,78.8%,62.3%);fill-opacity:1;" d="M 210.7 319.7L210.8 320.8L210.8 321.2L210.8 321.2L210.8 321.3L210.8 321.4L210.8 321.4L210.8 321.5L210.8 321.5L210.8 321.6L210.8 321.6L210.8 321.7L210.8 321.7L210.8 321.7L210.8 321.8L210.8 321.8L210.8 321.8L210.8 321.9L210.8 321.9L210.8 321.9L210.8 322.0L210.8 322.1L210.8 322.1L210.9 322.2L210.9 322.2L210.9 322.3L210.9 322.5L211.0 322.5L211.0 322.5L211.0 322.6L211.0 322.6L211.0 322.7L211.0 322.7L211.0 322.7L211.1 322.8L211.1 322.8L211.1 322.8L211.1 322.9L211.1 322.9L211.1 322.9L211.2 323.0L211.2 323.0L211.2 323.0L211.2 323.1L211.2 323.1L211.3 323.3L211.4 323.3L211.4 323.3L211.4 323.4L211.4 323.4L211.5 323.4L211.5 323.5L211.5 323.5L211.6 323.5L211.6 323.6L211.6 323.7L211.7 323.7L211.7 323.7L211.8 323.8L211.8 323.8L211.9 323.9L211.9 323.9L211.9 323.9L212.0 324.0L212.0 324.0L212.1 324.0L212.1 324.1L212.1 324.1L212.1 324.1L212.2 324.1L212.2 324.1L212.2 324.2L212.5 324.3L212.5 324.3L212.6 324.4L212.6 324.4L212.6 324.4L212.7 324.4L212.7 324.4L212.7 324.5L212.8 324.5L212.8 324.5L212.9 324.5L212.9 324.5L213.0 324.6L213.1 324.6L213.1 324.6L215.0 325.7L216.5 327.4L216.6 327.5L216.6 327.5L216.6 327.5L216.6 327.6L216.6 327.6L216.7 327.6L216.7 327.7L216.7 327.7L216.7 327.7L216.8 327.7L216.8 327.8L216.8 327.8L216.9 327.9L216.9 327.9L216.9 328.0L217.0 328.0L217.0 328.0L217.0 328.0L217.0 328.1L217.1 328.1L217.1 328.1L217.2 328.2L217.2 328.2L217.2 328.2L217.3 328.3L217.3 328.3L217.3 328.3L217.3 328.3L217.4 328.3L217.4 328.4L217.4 328.4L217.5 328.4L217.5 328.5L217.6 328.5L217.6 328.5L217.7 328.5L218.3 329.0L219.7 330.5L220.6 332.3L220.9 334.3L220.9 334.5L220.9 334.5L220.8 335.4L220.8 335.4L220.8 335.5L220.8 335.6L220.7 335.6L220.7 335.6L220.7 335.7L220.7 335.7L220.7 335.8L220.7 335.8L220.7 335.9L220.7 336.0L220.7 336.1L220.7 336.1L220.7 336.2L220.7 336.2L220.7 336.3L220.7 336.3L220.8 336.3L220.8 336.4L220.8 336.5L220.8 336.5L220.8 337.0L220.9 337.1L220.9 337.2L220.9 337.2L220.9 337.3L220.9 337.3L220.9 337.3L220.9 337.4L220.9 337.4L220.9 337.5L220.9 337.5L220.9 337.7L221.0 337.7L221.0 337.7L221.1 338.0L221.1 338.0L221.1 338.1L221.1 338.1L221.1 338.1L221.1 338.2L221.1 338.2L221.2 338.2L221.2 338.3L221.2 338.3L221.2 338.3L221.2 338.4L221.2 338.4L221.3 338.4L221.3 338.5L221.4 338.7L221.5 338.7L221.5 338.8L221.5 338.8L221.5 338.8L221.5 338.9L221.6 338.9L221.6 339.0L221.7 339.0L221.7 339.1L221.8 339.1L221.8 339.2L221.9 339.2L221.9 339.3L222.0 339.3L222.5 339.9L222.6 339.9L222.6 339.9L222.6 340.0L222.6 340.0L222.7 340.0L222.7 340.1L222.8 340.1L222.8 340.2L222.9 340.2L222.9 340.3L223.0 340.3L223.0 340.3L223.1 340.4L223.1 340.4L223.1 340.4L223.1 340.4L223.2 340.5L223.3 340.5L223.3 340.5L223.4 340.6L223.4 340.6L223.5 340.6L223.5 340.6L223.5 340.6L223.6 340.7L223.6 340.7L223.7 340.7L223.7 340.7L223.7 340.7L223.8 340.8L223.8 340.8L223.8 340.8L223.9 340.8L224.0 340.8L224.0 340.9L224.1 340.9L224.1 340.9L224.1 340.9L224.2 340.9L224.2 340.9L224.2 340.9L224.4 341.0L224.4 341.0L224.5 341.0L224.5 341.0L224.5 341.0L224.6 341.0L224.6 341.0L224.6 341.0L224.7 341.0L224.7 341.0L224.8 341.0L226.4 341.4L226.6 341.4L226.7 341.4L226.7 341.5L226.8 341.5L226.8 341.5L226.8 341.5L226.9 341.5L226.9 341.5L227.0 341.5L227.0 341.5L227.1 341.5L227.1 341.5L227.1 341.5L227.2 341.5L227.3 341.5L227.3 341.6L227.3 341.6L227.4 341.6L227.4 341.6L227.4 341.6L227.5 341.6L227.7 341.6L227.7 341.6L227.8 341.6L227.8 341.6L227.8 341.6L227.9 341.6L227.9 341.5L228.0 341.5L228.0 341.5L228.1 341.5L228.1 341.5L228.1 341.5L228.2 341.5L228.2 341.5L228.3 341.5L228.4 341.5L228.4 341.5L228.5 341.5L228.5 341.4L228.5 341.4L228.6 341.4L228.6 341.4L228.7 341.4L228.7 341.4L231.3 341.0L231.3 341.0L232.0 341.1L232.1 341.1L232.1 341.1L232.2 341.1L232.2 341.1L232.3 341.1L232.4 341.1L232.4 341.1L232.4 341.1L232.5 341.1L232.5 341.1L232.5 341.1L232.7 341.1L232.8 341.1L232.8 341.1L232.8 341.1L232.9 341.1L232.9 341.1L233.0 341.1L233.0 341.1L233.1 341.1L233.2 341.1L233.2 341.1L234.8 341.0L234.8 341.0L235.3 341.1L237.2 341.6L238.8 342.7L240.0 344.1L240.8 345.9L241.0 347.8L241.0 347.8L240.6 350.1L239.3 352.2L239.3 352.2L239.2 352.3L239.2 352.3L239.2 352.3L239.2 352.4L239.2 352.4L239.1 352.4L239.1 352.5L239.1 352.5L239.1 352.5L239.0 352.5L239.0 352.6L239.0 352.6L239.0 352.7L238.9 352.7L238.9 352.7L238.9 352.8L238.9 352.8L238.9 352.8L238.9 352.9L238.8 352.9L238.8 352.9L238.8 353.0L238.8 353.0L238.8 353.0L238.7 353.1L238.7 353.2L238.7 353.2L238.7 353.2L238.7 353.3L238.6 353.5L238.6 353.5L238.6 353.5L238.6 353.6L238.6 353.6L238.5 353.7L238.5 353.7L238.5 353.8L238.5 353.8L238.5 353.9L238.5 354L238.5 354.0L238.5 354.0L238.5 354.1L238.5 354.1L238.5 354.2L238.5 354.2L238.5 354.2L238.5 354.3L238.5 354.4L238.5 354.5L238.5 354.5L238.5 354.6L238.5 354.7L238.5 354.7L238.5 354.8L238.5 354.8L238.5 354.9L238.5 354.9L238.5 355.0L238.5 355.0L238.5 355.1L238.5 355.1L238.5 355.2L238.6 355.2L238.6 355.3L238.6 355.3L238.6 355.3L238.6 355.4L238.7 355.6L238.7 355.6L238.7 355.7L238.7 355.7L238.7 355.7L238.8 355.8L238.8 355.8L238.8 355.9L238.8 355.9L238.8 355.9L238.8 356.0L238.9 356.0L238.9 356.1L238.9 356.1L238.9 356.1L239.0 356.2L239.0 356.2L239.0 356.3L239.0 356.3L239.0 356.3L239.1 356.3L239.1 356.4L239.1 356.4L239.1 356.4L239.2 356.5L239.2 356.5L239.2 356.5L239.2 356.6L239.2 356.6L239.3 356.6L239.3 356.6L239.3 356.7L240.0 357.6L240.1 357.8L240.1 357.8L240.2 357.9L240.2 357.9L240.2 357.9L240.3 358.0L240.3 358.0L240.3 358.0L240.4 358.1L240.4 358.1L240.5 358.2L240.5 358.2L240.5 358.3L240.6 358.3L240.6 358.4L240.7 358.4L240.8 358.5L240.8 358.5L240.8 358.5L240.9 358.6L240.9 358.6L240.9 358.6L241.0 358.6L241.0 358.6L241.0 358.7L241.0 358.7L241.1 358.7L241.2 358.8L243.3 360.8L243.4 361.0L243.4 361.0L243.5 361.1L243.5 361.1L243.5 361.2L243.5 361.2L243.5 361.2L243.6 361.3L243.6 361.3L243.6 361.3L243.6 361.3L243.7 361.4L243.7 361.4L243.7 361.5L243.8 361.5L243.8 361.6L243.9 361.6L243.9 361.6L243.9 361.6L244.0 361.7L244.0 361.7L244.0 361.8L244.1 361.8L244.1 361.8L244.2 361.9L244.2 361.9L244.3 361.9L244.3 362.0L244.3 362.0L244.3 362.0L244.5 362.1L244.6 362.1L246.0 363.4L246.1 363.4L246.1 363.5L246.1 363.5L246.2 363.6L246.2 363.6L246.3 363.6L246.3 363.6L246.3 363.7L246.4 363.7L246.4 363.8L246.5 363.8L246.5 363.8L246.5 363.9L246.6 363.9L246.6 363.9L246.6 363.9L246.7 363.9L246.9 364.1L246.9 364.1L247.0 364.1L247.0 364.2L247.0 364.2L247.1 364.2L247.2 364.2L247.2 364.3L247.2 364.3L247.3 364.3L247.3 364.3L247.3 364.3L247.4 364.3L247.4 364.3L247.6 364.4L247.7 364.4L247.7 364.4L247.7 364.4L247.8 364.4L247.9 364.5L247.9 364.5L248.0 364.5L248.0 364.5L248.0 364.5L248.1 364.5L248.1 364.5L248.2 364.5L248.2 364.5L248.3 364.5L248.3 364.5L250.8 365.2L250.8 365.2L252.8 366.7L252.8 366.8L252.9 366.9L252.9 366.9L252.9 366.9L252.9 366.9L253.0 367.0L253.0 367.0L253.0 367.0L253.1 367.1L253.1 367.1L253.2 367.1L253.2 367.2L253.3 367.2L253.3 367.2L253.3 367.3L253.4 367.3L253.4 367.3L253.4 367.3L253.6 367.5L253.7 367.5L253.7 367.5L253.7 367.5L253.8 367.5L253.8 367.5L253.8 367.6L253.9 367.6L253.9 367.6L254.0 367.6L254.0 367.6L254.0 367.7L254.1 367.7L254.1 367.7L254.2 367.7L254.4 367.8L254.4 367.8L254.4 367.8L254.5 367.8L254.6 367.8L254.7 367.8L254.7 367.9L254.8 367.9L254.8 367.9L254.8 367.9L254.9 367.9L255.0 367.9L255.1 367.9L255.5 368L257.3 368.5L259.0 369.6L260.2 371.1L260.2 371.1L260.3 371.2L260.3 371.2L260.3 371.2L260.3 371.3L260.4 371.3L260.4 371.4L260.4 371.4L260.5 371.4L260.5 371.5L260.5 371.5L260.5 371.5L260.6 371.6L260.6 371.6L260.7 371.7L260.7 371.7L260.7 371.7L260.7 371.7L260.8 371.8L260.8 371.8L260.8 371.8L260.9 371.9L261.0 372.0L261.0 372.0L261.0 372.0L261.1 372.1L261.1 372.1L261.2 372.1L261.2 372.1L261.2 372.2L261.3 372.2L261.4 372.2L261.8 372.5L261.8 372.5L263.6 374.4L263.6 374.5L263.6 374.5L263.6 374.5L263.6 374.6L263.7 374.6L263.7 374.6L263.7 374.7L263.7 374.7L263.8 374.7L263.8 374.8L263.8 374.8L263.8 374.8L264.0 375.0L264.0 375.0L264.0 375.1L264.1 375.1L264.2 375.2L264.2 375.2L264.2 375.2L264.2 375.3L264.3 375.3L264.4 375.3L264.4 375.4L264.4 375.4L264.4 375.4L264.5 375.4L264.5 375.5L264.5 375.5L264.6 375.5L264.7 375.6L264.7 375.6L266.1 376.7L267.1 378.0L267.8 380.0L267.9 382.0L267.6 383.3L267.3 384.2L266.2 385.7L264.8 387.0L264.8 387.0L264.7 387.1L264.7 387.1L264.6 387.1L264.6 387.1L264.6 387.1L264.5 387.2L264.5 387.2L264.4 387.3L264.4 387.3L264.3 387.3L264.3 387.4L264.3 387.4L264.3 387.4L264.2 387.4L264.2 387.5L264.2 387.5L264.2 387.5L264.1 387.6L264.1 387.6L264.0 387.7L264.0 387.7L264.0 387.7L263.9 387.8L263.9 387.8L263.9 387.8L263.9 387.9L263.9 387.9L263.8 387.9L263.8 388.0L263.8 388.0L263.8 388.1L263.7 388.1L263.7 388.1L263.7 388.2L263.7 388.2L263.6 388.3L263.6 388.3L263.6 388.3L263.6 388.4L263.6 388.4L263.5 388.4L263.5 388.5L263.5 388.5L263.5 388.6L263.5 388.6L263.5 388.7L263.4 388.7L263.4 388.8L263.4 388.8L263.4 388.9L263.4 388.9L263.4 388.9L263.4 389.0L263.3 389.0L263.3 389.1L263.3 389.2L263.3 389.2L263.3 389.2L263.3 389.3L263.3 389.3L263.3 389.3L263.3 389.4L263.3 389.4L263.3 389.5L263.3 389.5L263.3 389.5L263.3 389.6L263.3 389.6L263.3 389.7L263.3 389.9L263.3 390.0L263.3 390.0L263.3 390.0L263.3 390.1L263.3 390.1L263.3 390.2L263.3 390.2L263.3 390.3L263.3 390.3L263.3 390.3L263.3 390.4L263.3 390.4L263.3 390.4L263.3 390.5L263.3 390.6L263.4 390.6L263.4 390.7L263.4 390.7L263.4 390.7L263.4 390.8L263.4 390.8L263.4 390.9L263.5 390.9L263.5 391.0L263.5 391.1L263.5 391.1L263.5 391.1L263.5 391.2L263.6 391.2L263.6 391.3L263.6 391.3L263.6 391.3L263.6 391.4L263.7 391.4L263.7 391.4L263.7 391.5L264.4 393.4L264.5 395.8L264.5 395.9L264.4 396.0L264.4 396.1L264.4 396.1L264.4 396.2L264.4 396.2L264.4 396.2L264.4 396.3L264.4 396.3L264.4 396.5L264.4 396.6L264.4 396.6L264.4 396.7L264.4 396.7L264.4 396.7L264.4 396.8L264.4 396.8L264.4 396.8L264.4 396.9L264.5 397.0L264.5 397.0L264.6 398.2L264.6 398.2L264.5 399.2L263.7 401.4L263.4 401.7L254.0 403.6L252.7 404.5L251.9 404.3L250.2 403.3L248.9 401.9L248.0 400.1L248.0 400.0L248.0 399.9L248.0 399.9L248.0 399.8L247.9 399.8L247.9 399.7L247.9 399.7L247.9 399.6L247.9 399.6L247.8 399.6L247.8 399.5L247.8 399.5L247.8 399.5L247.8 399.4L247.8 399.4L247.7 399.4L247.7 399.3L247.7 399.3L247.7 399.2L247.6 399.2L247.6 399.1L247.6 399.1L247.5 399.1L247.5 399.0L247.5 399.0L247.5 399.0L247.5 399.0L247.4 398.9L247.4 398.9L247.4 398.9L247.4 398.8L247.3 398.8L247.3 398.8L247.3 398.7L247.2 398.7L247.2 398.7L247.1 398.6L247.1 398.5L247.1 398.5L247.0 398.5L247.0 398.5L246.9 398.4L246.9 398.4L246.9 398.4L246.8 398.4L246.8 398.3L246.8 398.3L246.8 398.3L246.7 398.3L246.7 398.3L246.7 398.2L246.6 398.2L246.6 398.2L246.5 398.1L246.5 398.1L246.4 398.1L246.4 398.1L246.4 398.1L246.3 398.0L246.3 398.0L246.3 398.0L246.2 398.0L246.2 398.0L246.1 398L246.1 397.9L246.1 397.9L246.0 397.9L246.0 397.9L246.0 397.9L245.8 397.8L245.8 397.8L243.9 396.9L242.5 395.5L241.5 393.8L241.0 391.6L241.0 391.6L241.0 391.0L241.0 391.0L241.0 390.9L241.0 390.7L241.0 390.7L241.0 390.6L241.0 390.6L241.0 390.6L241.0 390.5L241.0 390.5L241.0 390.4L241.0 390.4L241.0 390.3L241.0 390.3L241.0 390.3L241.0 390.2L241.0 390.2L241.0 390.1L241.0 390.1L240.9 390.0L240.9 390.0L240.9 389.9L240.9 389.9L240.9 389.8L240.8 389.7L240.8 389.6L240.8 389.6L240.8 389.6L240.8 389.5L240.8 389.5L240.7 389.4L240.7 389.4L240.7 389.4L240.7 389.3L240.7 389.3L240.7 389.3L240.6 389.2L240.6 389.2L240.6 389.1L240.6 389.1L240.5 389.0L240.5 389.0L240.5 388.9L240.4 388.9L240.4 388.8L240.4 388.8L240.4 388.8L240.3 388.8L240.3 388.7L240.3 388.7L240.2 388.6L240.2 388.6L240.1 388.5L240.1 388.5L240.1 388.5L240.1 388.5L240.0 388.4L240.0 388.4L240.0 388.4L240.0 388.4L239.9 388.3L239.9 388.3L239.9 388.3L239.9 388.3L239.8 388.2L239.8 388.2L239.7 388.2L239.7 388.1L239.7 388.1L239.6 388.1L239.6 388.1L239.6 388.1L239.5 388.0L239.5 388.0L239.4 388.0L239.4 387.9L239.4 387.9L239.3 387.9L239.3 387.9L239.2 387.8L239.2 387.8L239.2 387.8L239.1 387.8L239.1 387.8L239.1 387.8L239.0 387.7L239.0 387.7L238.9 387.7L238.9 387.7L238.8 387.7L238.8 387.6L238.0 387.3L236.5 386.2L235.3 384.8L234.5 383.0L234.3 381.3L234.3 381.3L234.3 381.2L234.3 381.2L234.3 381.1L234.3 381.1L234.3 381.0L234.3 380.9L234.3 380.9L234.3 380.8L234.3 380.8L234.3 380.8L234.3 380.7L234.3 380.7L234.2 380.6L234.2 380.6L234.2 380.5L234.2 380.5L234.2 380.4L234.2 380.4L234.2 380.3L234.1 380.2L234.1 380.1L234.1 380.1L234.1 380.1L234.1 380.0L234.0 380.0L234.0 380.0L234.0 379.9L234.0 379.9L234.0 379.8L234 379.8L233.9 379.8L233.9 379.7L233.9 379.7L233.9 379.7L233.7 379.4L233.7 379.4L233.7 379.4L233.7 379.3L233.6 379.3L233.6 379.3L233.6 379.2L233.6 379.2L233.5 379.2L233.5 379.1L233.5 379.1L233.5 379.1L233.4 379.0L233.3 379.0L233.3 378.9L233.3 378.9L233.3 378.9L233.2 378.9L233.2 378.8L233.2 378.8L233.2 378.8L233.1 378.7L233.1 378.7L233.0 378.7L233.0 378.6L232.9 378.6L232.9 378.6L232.9 378.6L232.8 378.5L232.8 378.5L232.8 378.5L232.7 378.5L232.7 378.5L232.6 378.4L232.6 378.4L232.5 378.3L232.5 378.3L232.5 378.3L232.4 378.3L232.4 378.3L232.4 378.3L232.3 378.2L232.3 378.2L232.3 378.2L232.2 378.2L232.2 378.2L232.1 378.2L232.1 378.1L232.0 378.1L232.0 378.1L231.9 378.1L231.9 378.1L231.9 378.1L231.8 378.1L231.8 378.1L231.7 378.0L231.7 378.0L231.6 378.0L231.6 378.0L231.5 378.0L231.5 378.0L231.4 378.0L231.4 378.0L231.3 378.0L231.2 378.0L231.2 378.0L231.2 378.0L231.1 378.0L231.1 378.0L231.0 378.0L230.9 378L230.4 377.9L228.7 377.6L228.7 377.6L228.6 377.5L228.6 377.5L228.5 377.5L228.5 377.5L228.5 377.5L228.4 377.5L228.4 377.5L228.3 377.5L228.3 377.5L228.3 377.4L228.2 377.4L228.2 377.4L228.1 377.4L228.1 377.4L228.1 377.4L228.0 377.4L228.0 377.4L228.0 377.4L227.9 377.4L227.8 377.4L227.8 377.4L227.8 377.4L227.7 377.4L227.7 377.4L227.5 377.4L227.4 377.4L227.4 377.4L227.4 377.4L227.3 377.4L227.3 377.4L227.3 377.4L227.2 377.4L227.2 377.4L227.1 377.4L227.1 377.4L227.1 377.4L227.0 377.4L227.0 377.4L227.0 377.4L226.9 377.4L226.8 377.5L226.8 377.5L226.8 377.5L226.7 377.5L226.7 377.5L226.6 377.5L226.6 377.5L226.4 377.6L225.8 377.8L225.8 377.8L224.6 377.9L224.6 377.9L222.4 377.7L221.0 377.1L219.2 375.7L218 373.6L217.9 373.6L217.9 373.5L217.9 373.5L217.9 373.5L217.8 373.4L217.8 373.3L217.8 373.3L217.8 373.2L217.8 373.2L217.8 373.2L217.7 373.1L217.7 373.1L217.7 373.1L217.7 373.1L217.6 373.0L217.6 372.9L217.5 372.8L217.5 372.8L217.5 372.8L217.5 372.7L217.5 372.7L217.4 372.7L217.4 372.7L217.4 372.6L217.3 372.5L217.3 372.5L217.3 372.5L217.2 372.4L217.2 372.4L217.2 372.4L217.1 372.4L217.1 372.3L217.0 372.3L217.0 372.2L216.9 372.2L216.9 372.2L216.9 372.1L216.8 372.1L216.8 372.1L216.8 372.1L216.8 372.0L216.7 372.0L216.7 372.0L216.7 372.0L216.6 372.0L216.5 371.9L216.5 371.8L216.4 371.8L216.4 371.8L216.4 371.8L216.3 371.8L216.3 371.8L216.3 371.7L216.2 371.7L216.2 371.7L216.2 371.7L216.1 371.7L216.1 371.7L216.0 371.6L216.0 371.6L216.0 371.6L215.9 371.6L215.9 371.6L215.8 371.6L215.8 371.6L215.7 371.5L215.7 371.5L215.6 371.5L215.5 371.5L215.5 371.5L215.4 371.5L215.4 371.5L215.3 371.5L215.3 371.4L215.3 371.4L215.2 371.4L215.2 371.4L215.1 371.4L215.1 371.4L215.0 371.4L215.0 371.4L215.0 371.4L214.9 371.4L214.9 371.4L214.7 371.4L214.7 371.4L214.6 371.4L214.6 371.4L214.5 371.4L214.5 371.4L214.4 371.4L214.4 371.4L214.3 371.4L214.3 371.4L214.3 371.4L214.2 371.5L214.2 371.5L214.2 371.5L214.1 371.5L214.1 371.5L214.0 371.5L214.0 371.5L213.9 371.5L213.9 371.5L213.8 371.5L213.8 371.6L213.7 371.6L213.6 371.6L213.6 371.6L213.5 371.7L213.5 371.7L213.4 371.7L213.3 371.7L213.3 371.7L213.3 371.8L213.2 371.8L213.2 371.8L213.1 371.8L213.1 371.8L213.1 371.9L213.1 371.9L213.0 371.9L213.0 371.9L213.0 371.9L212.9 372.0L212.9 372.0L212.8 372.0L212.8 372.0L212.8 372.1L212.7 372.1L212.7 372.1L212.7 372.1L212.6 372.2L212.6 372.2L212.6 372.2L212.5 372.3L212.5 372.3L212.5 372.3L212.4 372.4L212.4 372.4L212.4 372.4L212.4 372.4L212.3 372.5L210.9 373.6L209.2 374.3L207.4 374.6L207.3 374.6L206.6 374.5L213.6 366.8L207.1 372.6L205.9 373.9L205.1 374.2L205.1 374.2L203.2 373.1L201.7 371.4L201.7 371.3L201.7 371.3L201.6 371.2L201.6 371.2L201.6 371.2L201.6 371.2L201.5 371.1L201.5 371.1L201.5 371.1L201.5 371.0L201.4 371.0L201.4 371.0L201.4 371.0L201.4 370.9L201.3 370.8L201.2 370.8L201.2 370.8L201.2 370.7L201.2 370.7L201.1 370.7L201.1 370.6L201.0 370.6L201.0 370.5L200.9 370.5L200.8 370.4L200.8 370.4L200.8 370.4L200.8 370.4L200.7 370.3L200.6 370.3L200.6 370.3L200.5 370.2L199.0 368.9L197.9 367.2L197.4 365.2L197.3 364.5L197.3 364.4L197.3 364.4L197.3 364.3L197.3 364.3L197.3 364.3L197.3 364.2L197.3 364.2L197.3 364.1L197.3 364.1L197.3 364.1L197.3 364.0L197.3 364.0L197.3 364.0L197.3 363.9L197.3 363.9L197.3 363.8L197.3 363.8L197.3 363.7L197.2 363.7L197.2 363.6L197.2 363.6L197.2 363.6L197.2 363.5L197.2 363.4L197.2 363.4L197.1 363.3L197.1 363.3L197.1 363.3L197.1 363.2L197.1 363.2L197.1 363.2L197.1 363.1L197.0 363.1L197.0 363.0L197.0 363.0L197.0 363.0L197.0 362.9L196.9 362.9L196.9 362.9L196.9 362.8L196.9 362.8L196.8 362.7L196.8 362.7L196.7 362.6L196.7 362.6L196.7 362.5L196.7 362.5L196.7 362.5L196.6 362.4L196.5 362.3L196.5 362.3L196.5 362.3L196.5 362.2L196.4 362.2L196.4 362.2L196.4 362.2L196.4 362.1L196.3 362.1L196.3 362.0L196.2 362.0L196.2 362.0L196.2 362.0L196.1 361.9L196.1 361.9L196.1 361.9L196.0 361.8L196.0 361.8L195.9 361.8L195.9 361.8L195.9 361.7L195.8 361.7L195.7 361.6L195.7 361.6L195.7 361.6L195.6 361.6L195.6 361.6L195.6 361.5L195.5 361.5L195.5 361.5L195.5 361.5L195.4 361.5L195.4 361.5L195.4 361.4L195.3 361.4L195.3 361.4L195.2 361.4L195.2 361.4L194.9 361.3L194.9 361.3L194.8 361.3L194.7 361.2L194.7 361.2L194.6 361.2L194.6 361.2L194.5 361.2L194.5 361.2L194.5 361.2L194.4 361.2L194.4 361.2L194.4 361.2L194.3 361.2L194.3 361.2L194.2 361.2L194.2 361.2L194.2 361.2L194.1 361.2L194 361.2L191.3 360.6L191.3 360.6L190.0 359.8L190.0 359.8L188.0 357.4L187.3 355.1L187.3 354.4L187.6 352.4L188.6 350.4L190.2 348.8L190.3 348.8L190.3 348.8L190.4 348.8L190.4 348.7L190.4 348.7L190.5 348.7L190.5 348.6L190.6 348.6L190.6 348.6L190.7 348.5L190.7 348.5L190.8 348.4L190.8 348.4L190.8 348.4L190.8 348.4L190.9 348.3L190.9 348.3L190.9 348.3L191.0 348.2L191.0 348.2L191.0 348.1L191.1 348.1L191.1 348.0L191.1 348.0L191.1 348.0L191.2 348L191.2 347.9L191.2 347.9L191.2 347.9L191.3 347.8L191.3 347.8L191.3 347.7L191.3 347.7L191.3 347.7L191.4 347.6L191.4 347.6L191.4 347.6L191.4 347.5L191.4 347.5L191.5 347.5L191.5 347.4L191.5 347.4L191.5 347.3L191.5 347.3L191.5 347.3L191.6 347.2L191.6 347.2L191.6 347.2L191.6 347.0L191.6 347.0L191.6 346.9L191.7 346.9L191.7 346.9L191.7 346.8L191.7 346.8L191.7 346.8L191.7 346.7L191.7 346.7L191.7 346.6L191.7 346.6L191.7 346.5L191.7 346.5L191.7 346.5L191.8 346.4L191.8 346.4L191.8 346.4L191.8 346.3L191.8 346.3L191.8 346.3L191.8 346.2L191.8 346.2L191.8 346.1L191.8 345.9L191.8 345.9L191.8 345.8L191.8 345.8L191.8 345.8L191.8 345.7L191.8 345.7L191.8 345.7L191.7 345.6L191.7 345.5L191.7 345.5L191.7 345.5L191.7 345.4L191.7 345.4L191.7 345.4L191.7 345.3L191.7 345.3L191.7 345.2L191.7 345.2L191.7 345.1L191.6 345.1L191.6 345.1L191.6 344.9L191.6 344.8L191.5 344.8L191.5 344.8L191.5 344.7L191.5 344.7L191.5 344.6L191.5 344.6L191.4 344.6L191.4 344.5L191.4 344.5L191.4 344.4L191.3 344.4L191.3 344.4L191.3 344.3L191.3 344.3L191.3 344.2L191.2 344.2L191.2 344.2L191.2 344.1L191.2 344.1L191.1 344.1L191.1 344.0L191.1 344.0L191.1 344.0L191.0 343.9L191.0 343.9L190.9 343.8L190.9 343.8L190.9 343.7L190.8 343.7L190.8 343.7L190.8 343.6L190.7 343.6L190.7 343.6L190.7 343.6L190.7 343.5L190.5 343.4L190.5 343.4L190.5 343.4L190.4 343.3L190.4 343.3L190.3 343.3L190.3 343.3L190.2 343.2L188.9 342.1L188.0 340.6L187.5 339.5L187.3 338.6L187.3 338.6L187.3 336.7L187.8 335.0L189.5 332.6L189.6 332.6L189.6 332.6L189.7 332.5L189.7 332.5L189.7 332.4L189.7 332.4L189.8 332.3L189.8 332.3L189.9 332.2L190.0 332.1L190.0 332.1L190.0 332.1L190.0 332.0L190.1 332.0L190.1 332.0L190.1 331.9L190.2 331.8L190.2 331.8L190.2 331.7L190.3 331.7L190.3 331.6L190.3 331.6L190.3 331.6L190.3 331.5L190.4 331.5L190.4 331.5L190.4 331.4L190.4 331.4L190.4 331.3L190.4 331.3L190.5 331.3L190.5 331.2L190.5 331.0L190.5 331.0L190.5 331.0L190.6 330.9L190.6 330.9L190.6 330.7L190.6 330.7L190.6 330.6L190.6 330.6L190.6 330.5L190.6 330.5L190.6 330.4L190.6 330.4L190.7 330.3L190.7 329.8L190.7 329.8L190.7 329.7L190.8 329.6L190.8 329.5L190.8 329.5L190.8 329.4L190.8 329.4L190.8 329.3L190.8 329.3L190.8 329.2L190.8 329.1L190.8 329.1L190.8 329.0L190.8 329.0L190.8 328.9L190.7 328.8L190.7 328.7L190.7 328.7L190.7 328.6L190.6 327.3L190.6 327.3L190.9 325.6L191.7 323.9L192.9 322.5L192.9 322.5L193.0 322.4L193.0 322.4L193.0 322.4L193.1 322.4L193.1 322.3L193.1 322.3L193.1 322.3L193.2 322.3L193.2 322.2L193.3 322.1L193.3 322.1L193.3 322.0L193.4 322.0L193.4 322.0L193.4 322L193.4 321.9L193.6 321.7L193.6 321.7L193.6 321.6L193.6 321.6L193.6 321.5L193.7 321.5L193.7 321.5L193.7 321.4L193.7 321.4L193.7 321.4L193.7 321.3L193.8 321.3L193.8 321.3L193.8 321.2L193.8 321.2L193.8 321.2L193.9 321.0L193.9 320.9L193.9 320.9L193.9 320.9L193.9 320.8L194.0 320.6L194.0 320.6L194.0 320.6L194.0 320.5L194.0 320.5L194.0 320.5L194.0 320.4L194.0 320.4L194.0 320.3L194.0 320.2L194.1 319.7L194.1 319.7L194.1 319.6L194.1 319.5L194.1 319.5L194.1 319.4L194.1 319.3L194.1 319.3L194.1 319.3L194.1 319.2L194.1 319.1L194.1 319.0L194.1 319.0L194.1 319L194.1 318.9L194.1 318.9L194.1 318.8L194.1 318.7L194.1 318.7L194.1 318.6L194.1 318.6L194.0 317.8L194.0 317.7L194.0 317.5L194.1 316.4L194.1 316.3L194.1 316.3L194.1 316.2L194.1 316.2L194.1 316.1L194.1 316.1L194.1 316.0L194.1 316.0L194.1 316.0L194.1 315.9L194.1 315.9L194.1 315.7L194.1 315.7L194.1 315.6L194.1 315.6L194.1 315.6L194.1 315.5L194.1 315.5L194.1 315.3L194.1 315.3L194.1 315.3L194.1 315.2L194.0 314.1L194.2 312.6L194.2 312.6L194.8 311.0L194.8 311.0L195.7 309.9L197.9 311.5L198.3 310.6L197.2 308.5L198.5 307.8L200.5 307.4L202.8 310.1L205.2 309.9L206.7 308.0L208.1 308.7L209.5 310.1L210.4 311.9L210.8 313.9L210.8 313.9L210.8 314.2L210.7 315.2L210.7 315.3L210.7 315.3L210.7 315.3L210.7 315.4L210.7 315.5L210.7 315.5L210.7 315.6L210.7 315.6L210.7 315.7L210.6 315.8L210.6 315.8L210.7 315.8L210.7 316.0L210.7 316.0L210.7 316.1L210.7 316.2L210.7 316.2L210.7 316.2L210.7 316.3L210.7 316.3L210.7 316.4L210.8 317.5L210.7 318.4L210.7 318.6L210.7 318.6L210.7 318.7L210.7 318.7L210.7 318.8L210.7 318.9L210.7 318.9L210.7 319.0L210.7 319.1L210.6 319.1L210.6 319.2L210.7 319.2L210.7 319.3L210.7 319.4L210.7 319.4L210.7 319.6L210.7 319.6L210.7 319.6L210.7 319.7 Z M 201.5 307.5L201.8 307.5L201.9 307.5L201.9 307.5L202.0 307.5L202.0 307.5L202.0 307.5L202.1 307.5L202.1 307.5L202.2 307.5L202.2 307.5L202.2 307.5L202.3 307.5L202.5 307.5L202.6 307.5L202.6 307.5L202.7 307.5L202.7 307.5L202.8 307.5L202.8 307.5L202.9 307.5L202.9 307.5L203.0 307.5L203.9 307.4L203.9 307.4L204.4 307.4L206.3 307.8L206.5 307.9L203.5 308.8 Z M 160.8 361.1L158.4 360.8L156.2 359.7L154.6 357.9L154.2 356.7L157.3 356.4L161.2 352.3L165.2 352.2L168.7 349.9L169.1 350.4L170.1 352.2L170.1 352.2L170.1 352.3L170.1 352.3L170.2 352.4L170.5 354.1L172.2 354.3L172.3 354.3L172.3 354.3L172.4 354.3L172.4 354.3L172.7 354.4L172.7 354.4L172.7 354.4L172.8 354.4L172.8 354.4L172.8 354.4L172.9 354.4L173.0 354.4L173.0 354.4L173.1 354.4L173.1 354.4L173.1 354.4L173.2 354.4L173.2 354.4L173.3 354.4L173.3 354.4L173.4 354.4L173.5 354.4L173.8 354.4L173.8 354.4L174.6 354.5L176.8 355.1L178.7 356.5L180.0 358.4L180.5 360.7L180.5 360.7L180.6 361.1L180.5 362.2L180.5 362.3L180.4 362.3L180.4 362.4L180.4 362.5L180.4 362.5L180.4 362.6L180.4 362.7L180.4 362.7L180.4 362.9L180.4 363.0L180.4 363.0L180.4 363.1L180.4 363.1L180.4 363.2L180.4 363.2L180.4 363.3L180.4 363.3L180.5 363.4L180.5 363.4L180.5 364.7L180.2 366.6L179.3 368.4L178.0 369.8L176.4 370.7L174.6 371.2L174.6 371.2L174.4 371.2L173.4 371.1L174.4 369.7L170.0 369.5L168.4 368.5L165.7 365.9L164.1 363.4L164.1 363.4L164.1 363.3L164.1 363.3L164.1 363.3L164.1 363.2L163.7 361.5L162.0 361.3L161.9 361.3L161.9 361.3L161.8 361.3L161.8 361.2L161.7 361.2L161.7 361.2L161.7 361.2L161.6 361.2L161.6 361.2L161.5 361.2L161.5 361.2L161.1 361.1L160.8 361.1 Z M 160.8 361.1 "/>
















</g>
</svg>
