<?xml version="1.0" encoding="UTF-8"?>
<svg xmlns="http://www.w3.org/2000/svg" xmlns:xlink="http://www.w3.org/1999/xlink" width="378pt" height="504pt" viewBox="0 0 378 504" version="1.1">
<g id="data">
<rect x="0" y="0" width="378" height="504" style="fill:rgb(100%,100%,100%);fill-opacity:1;stroke:none;"/>
<path style=" stroke:none;fill-rule:nonzero;fill:rgb(100%,100%,100%);fill-opacity:1;" d="M 21 504L357 504L357 0L21 0 Z M 21 504 "/>
<path style=" stroke:none;fill-rule:nonzero;fill:rgb(77.6%,78.8%,62.3%);fill-opacity:1;" d="M 298.4 329.2L298.2 328.7L298.2 328.7L298.2 327.9L298.2 326.7L298.7 324.9L299.4 323.7L305.5 327.6L307.8 332.9L307.8 336.9L306.1 337.5L304.6 337.6L303.7 337.5L303.7 337.5L301.8 336.9L300.2 335.7L299.0 334.1L298.3 332.2L298.3 332.2L298.2 331.3L298.2 330.5L298.2 329.8L298.2 329.8 Z M 249.7 369.2L248.4 367.3L247.8 365.1L248.0 362.8L248.9 360.7L251.0 358.8L251.0 358.8L251.5 358.5L251.8 358.1L251.8 358.0L251.8 358.0L251.9 358.0L251.9 357.9L251.9 357.9L251.9 357.9L252.0 357.9L252.0 357.8L252.0 357.8L252.0 357.8L252.0 357.7L252.1 357.7L252.1 357.7L252.1 357.6L254.2 355.5L254.2 355.5L255.9 354.7L257.8 354.4L258.0 354.4L258.0 354.4L258.1 354.4L258.1 354.4L258.1 354.4L258.2 354.4L258.2 354.4L258.3 354.4L258.3 354.4L258.3 354.4L258.4 354.4L258.4 354.4L258.5 354.4L258.5 354.4L258.5 354.4L258.6 354.3L258.6 354.3L258.6 354.3L258.7 354.3L258.7 354.3L258.7 354.3L258.8 354.3L258.8 354.3L259.0 354.2L259.0 354.2L259.1 354.2L259.1 354.2L259.1 354.2L259.2 354.1L259.2 354.1L259.3 354.1L259.4 354.1L259.4 354.0L259.4 354.0L259.5 354.0L259.5 354.0L259.7 353.9L259.7 353.8L259.8 353.8L259.8 353.8L259.8 353.8L259.9 353.7L259.9 353.7L260 353.7L260.0 353.6L261.5 352.8L261.2 351.1L261.2 351.0L261.2 350.3L261.9 348.1L263.3 346.2L265.2 344.9L267.4 344.4L267.4 344.4L267.5 344.4L269.5 344.5L271.3 345.3L272.9 346.5L274.0 348.2L274.6 350.4L274.6 350.4L274.6 351.5L274.3 353.3L273.4 354.9L272.2 356.2L272.2 356.2L270.7 357.1L271.0 358.8L271.0 359.0L271.0 359.0L271.0 359.0L271.0 359.1L271.0 359.1L271.0 359.2L271.0 359.2L271.0 359.2L271.0 359.3L271.0 359.4L271.0 359.4L271.1 359.4L271.1 359.5L271.1 359.6L271.1 359.7L271.2 361.8L270.8 363.6L269.8 365.4L268.3 366.8L266.4 367.6L264.3 367.9L264.3 367.9L263.8 367.8L263.0 367.7L263.0 367.7L262.9 367.7L262.9 367.7L262.8 367.7L262.8 367.6L262.7 367.6L262.7 367.6L262.6 367.6L262.6 367.6L262.6 367.6L262.5 367.6L262.5 367.6L262.4 367.6L262.4 367.6L262.3 367.6L262.3 367.6L262.2 367.6L262.1 367.6L262.0 367.6L262.0 367.6L262.0 367.6L261.9 367.6L261.9 367.6L261.9 367.6L261.8 367.6L261.8 367.6L261.7 367.6L261.7 367.6L261.7 367.6L261.6 367.6L261.6 367.7L261.6 367.7L261.5 367.7L261.5 367.7L261.5 367.7L261.4 367.7L261.3 367.7L261.3 367.7L261.3 367.7L261.2 367.7L261.2 367.8L261.2 367.8L261.1 367.8L261.1 367.8L261.0 367.8L261.0 367.8L261.0 367.8L260.9 367.9L260.8 367.9L260.8 367.9L260.8 367.9L260.7 368L260.7 368.0L260.7 368.0L260.6 368.0L260.6 368.0L260.5 368.1L260.5 368.1L260.4 368.1L259.9 368.3L259.6 368.8L259.6 368.8L258.1 370.1L256.0 371.1L253.7 371.2L251.5 370.6 Z M 208.6 405.2L209.8 405.0L210.4 404.2L210.5 404.0L210.5 404.0L210.5 404.0L210.5 403.9L210.6 403.9L210.6 403.9L210.6 403.8L210.6 403.8L210.7 403.8L210.7 403.7L210.8 403.6L210.8 403.5L210.8 403.5L210.8 403.5L210.9 403.4L210.9 403.4L210.9 403.3L210.9 403.3L210.9 403.3L211.0 403.2L211.0 403.2L211.0 403.2L211.0 403.1L211.0 403.1L211.0 403.0L211.0 403.0L211.1 402.9L211.1 402.9L211.1 402.8L211.5 401.8L211.8 401.3L213.1 399.8L214.7 398.7L216.6 398.2L216.9 398.1L217.0 398.1L217.0 398.1L217.1 398.1L217.1 398.1L217.2 398.1L217.2 398.1L217.3 398.1L217.3 398.1L217.3 398.1L217.5 398.1L217.5 398.0L217.6 398.0L217.6 398.0L217.6 398.0L217.7 398.0L217.7 398.0L217.7 398.0L217.9 397.9L217.9 397.9L217.9 397.9L218.0 397.9L218.0 397.9L218.0 397.9L218.1 397.8L218.1 397.8L218.1 397.8L218.2 397.8L218.2 397.8L218.3 397.8L218.3 397.7L218.3 397.7L218.3 397.7L218.4 397.7L218.4 397.7L218.4 397.6L218.5 397.6L218.5 397.6L218.6 397.6L218.6 397.5L218.6 397.5L218.7 397.5L218.7 397.5L218.7 397.5L218.7 397.4L218.8 397.4L218.8 397.4L218.9 397.3L218.9 397.3L219.0 397.2L219.0 397.2L219.0 397.2L219.1 397.1L219.1 397.1L219.2 397.0L219.2 397.0L220.5 395.9L220.7 395.7L220.8 395.7L220.8 395.7L220.9 395.7L220.9 395.6L220.9 395.6L220.9 395.6L221.0 395.6L221.0 395.5L221.0 395.5L221.1 395.5L221.1 395.5L221.1 395.4L221.2 395.4L221.3 395.3L221.3 395.3L221.4 395.2L221.4 395.2L221.4 395.2L221.5 395.1L221.5 395.1L221.5 395.1L221.6 395.0L221.6 395.0L221.6 395.0L221.6 394.9L221.6 394.9L221.7 394.9L221.7 394.9L221.7 394.8L221.7 394.8L221.8 394.8L221.8 394.7L221.8 394.7L221.8 394.6L221.9 394.6L222.9 393.3L224.3 392.3L225.5 391.7L225.5 391.7L228.2 391.4L228.7 391.5L228.7 391.5L228.8 391.5L228.9 391.5L228.9 391.5L229.0 391.5L229.0 391.5L229.0 391.5L229.1 391.5L229.1 391.5L229.1 391.5L229.4 391.5L229.4 391.5L229.5 391.5L229.5 391.5L229.5 391.5L229.6 391.5L229.7 391.5L229.7 391.5L229.8 391.5L229.9 391.5L230.5 391.4L230.5 391.4L231.9 391.5L231.9 391.5L234.1 392.2L236.0 393.6L236.0 393.7L236.0 393.7L236.1 393.7L236.1 393.8L236.1 393.8L236.1 393.8L236.2 393.8L236.2 393.9L236.2 393.9L236.3 393.9L236.3 394.0L236.4 394.0L236.4 394.1L236.5 394.1L236.5 394.1L236.5 394.1L236.6 394.2L236.6 394.2L236.6 394.2L236.8 394.3L236.8 394.3L236.8 394.3L236.9 394.4L236.9 394.4L236.9 394.4L237.0 394.4L237.0 394.4L237.0 394.4L237.1 394.5L237.1 394.5L237.1 394.5L237.2 394.5L237.2 394.5L237.2 394.5L237.3 394.5L237.3 394.6L237.3 394.6L237.4 394.6L237.4 394.6L237.5 394.6L237.5 394.6L237.6 394.7L237.6 394.7L237.6 394.7L237.7 394.7L237.7 394.7L237.8 394.7L237.8 394.7L237.9 394.7L237.9 394.7L237.9 394.7L238.0 394.7L238.0 394.7L238.0 394.8L238.1 394.8L238.1 394.8L238.2 394.8L238.3 394.8L239.2 394.9L239.2 394.9L241.3 395.8L241.4 395.9L241.6 395.4L242.6 393.7L242.6 393.7L243.2 393.2L243.2 393.2L245.0 392.0L245.6 391.8L245.1 391.4L244.0 389.6L244.0 389.5L244.0 389.4L243.9 389.4L243.9 389.3L243.9 389.3L243.9 389.3L243.9 389.2L243.8 389.2L243.8 389.2L243.8 389.1L243.8 389.1L243.8 389.1L243.6 388.9L243.6 388.8L243.6 388.8L243.6 388.8L243.6 388.7L243.5 388.7L243.5 388.7L243.5 388.7L243.5 388.6L243.4 388.5L243.3 388.5L243.3 388.4L243.3 388.4L243.2 388.4L243.2 388.4L243.2 388.3L243.2 388.3L243.1 388.3L243.1 388.2L243.0 388.2L243.0 388.2L242.9 388.1L242.9 388.1L242.9 388.1L242.8 388.0L242.8 388.0L242.8 388.0L242.5 387.8L242.5 387.8L242.5 387.8L242.4 387.8L242.4 387.8L242.4 387.8L242.3 387.7L242.3 387.7L242.3 387.7L242.2 387.7L242.2 387.7L242.2 387.7L242.1 387.6L242.1 387.6L242.1 387.6L242.0 387.6L240.2 386.6L238.8 385.0L238.4 384.3L237.7 381.4L237.7 381.4L237.9 379.7L238.1 379.0L239.0 377.2L240.5 375.8L242.2 374.9L244.2 374.6L246.2 374.8L246.2 374.8L246.4 374.9L246.4 374.9L246.5 374.9L246.5 374.9L246.5 374.9L246.6 374.9L246.6 375L246.6 375.0L246.8 375.0L246.8 375.0L246.9 375.0L246.9 375.0L246.9 375.0L247.0 375.0L247.0 375.0L247.1 375.0L247.1 375.0L247.1 375.0L247.2 375.0L247.2 375.0L247.3 375.0L247.3 375.0L247.5 375.0L247.5 375.0L247.6 375.0L247.6 375.0L247.6 375.0L247.7 375.0L247.7 375.0L247.8 375.0L247.8 375.0L247.9 375.0L247.9 375.0L248.0 375.0L248.1 375.0L248.1 375.0L248.2 374.9L248.2 374.9L248.3 374.9L248.5 374.9L248.5 374.8L248.6 374.8L248.6 374.8L248.7 374.8L248.7 374.8L248.7 374.8L248.8 374.8L248.8 374.7L248.8 374.7L248.9 374.7L248.9 374.7L249.0 374.7L249.0 374.6L249.0 374.6L249.1 374.6L249.1 374.5L249.2 374.5L249.2 374.5L249.3 374.5L251.4 373.6L253.6 373.4L255.8 374.0L257.7 375.3L257.7 375.3L257.7 375.3L257.8 375.4L257.8 375.4L257.9 375.5L257.9 375.5L258.0 375.5L258.0 375.6L258.0 375.6L258.0 375.6L258.1 375.6L258.1 375.6L258.1 375.7L258.2 375.7L258.2 375.7L259.6 377.0L260.6 378.6L261.1 380.4L261.1 380.4L261.2 381.7L261.2 381.7L261.1 382.4L261.1 382.5L261.1 382.5L261.1 382.5L261.1 382.6L261.1 382.7L261.1 382.7L261.1 382.8L261.1 382.8L261.1 382.9L261.1 383.1L261.1 383.2L261.1 383.2L261.1 383.2L261.1 383.3L261.1 383.3L261.1 383.4L261.1 383.4L261.1 383.4L261.1 383.5L261.1 383.6L261.2 384.5L261.2 384.5L260.9 386.6L260.0 388.4L260.0 388.4L258.4 390.1L256.3 391.1L256.2 391.2L256.2 391.2L256.1 391.2L256.0 391.2L255.9 391.3L255.9 391.3L255.9 391.3L255.8 391.3L255.8 391.3L255.8 391.3L255.7 391.4L255.6 391.4L255.6 391.4L255.6 391.4L255.5 391.4L255.5 391.5L255.5 391.5L255.4 391.5L255.4 391.5L255.4 391.5L255.3 391.5L255.3 391.6L255.2 391.6L255.2 391.6L255.2 391.7L255.1 391.7L255.1 391.7L255.1 391.7L255.0 391.8L255.0 391.8L254.9 391.9L254.8 392.0L253.0 393.2L252.4 393.3L252.9 393.8L254.0 395.6L254.0 395.6L254.5 398.4L254.5 398.5L254.3 399.7L253.4 401.7L252 403.4L250.1 404.4L249.3 404.6L248.4 404.0L249.5 402.9L248.0 401.5L242.6 401.4L243.5 402.8L242.8 403.9L238.4 403.4L232.2 405.9L224.1 406.4L221.6 405.6L220.7 407.1L223.7 408.1L223.6 410.7L221.2 411.1L213.2 409.0L211.5 410.6L212.2 412.7L206.9 407.8L205.6 407.3L206.7 406.2L208.6 405.2 Z M 243.1 405.3L242.9 405.7L242.9 405.7L241.2 407.2L241.1 407.2L241.1 407.2L241.1 407.3L241.0 407.3L241.0 407.3L241.0 407.3L241.0 407.3L240.9 407.4L240.9 407.4L240.9 407.4L240.8 407.5L240.8 407.5L240.8 407.5L240.7 407.5L240.7 407.6L240.7 407.6L240.6 407.6L240.6 407.7L240.6 407.7L240.5 407.7L240.5 407.7L240.5 407.8L240.5 407.8L240.4 407.8L240.4 407.8L240.4 407.9L240.3 407.9L240.3 408.0L240.3 408.0L240.3 408.0L240.2 408.1L240.2 408.1L240.2 408.1L240.2 408.1L240.1 408.2L240.1 408.2L240.1 408.2L240.1 408.3L240.0 408.4L238.5 410.1L238.1 410.3L234.6 408.1L232.8 408.3L239.0 404.1 Z M 197.2 305.9L197.2 305.9L197.3 306.6L197.3 306.8L197.3 307.9L197.2 308.5L195.9 306.3 Z M 196.5 310.5L195.7 311.8L194.0 313.2L192.0 314.0L191.1 314.1L191.1 314.1L189.9 314.0L189.2 314.9L189.1 315.0L189.1 315.0L189.1 315.0L189 315.1L188.9 315.2L188.9 315.2L188.9 315.2L188.9 315.3L188.8 315.3L188.8 315.4L188.7 315.4L188.7 315.4L188.7 315.5L188.7 315.5L188.6 315.5L188.6 315.5L188.6 315.6L188.6 315.6L188.5 315.7L188.5 315.7L188.5 315.8L188.5 315.8L188.4 315.9L188.4 315.9L188.4 316.0L188.4 316.0L188.4 316.0L188.3 316.1L188.3 316.1L188.3 316.1L188.3 316.2L188.3 316.2L188.3 316.3L188.2 316.3L188.2 316.5L188.2 316.5L188.2 316.5L188.2 316.6L188.1 316.6L188.1 316.7L188.1 316.8L188.1 316.8L188.1 316.9L188.1 316.9L188.1 316.9L188.1 317.0L188.1 317.0L188.1 317.1L188.1 317.1L188.1 317.2L188.0 317.2L188.0 317.2L188.0 317.3L188.0 317.4L188.0 317.4L188.0 317.5L188.0 317.5L188.0 317.6L188.0 317.6L188.1 317.7L188.1 317.7L188.1 317.8L188.1 317.9L188.1 317.9L188.1 318.0L188.1 318.0L188.1 318.1L188.1 318.1L188.1 318.1L188.1 318.2L188.1 318.2L188.2 318.3L188.2 318.3L188.2 318.4L188.2 318.5L188.2 318.5L188.2 318.6L188.3 318.7L188.3 318.7L188.3 318.7L188.3 318.8L188.3 318.8L188.4 318.9L188.4 318.9L188.4 319.0L188.4 319.0L188.4 319.0L188.5 319.1L188.5 319.1L188.5 319.2L188.5 319.2L188.6 319.3L188.6 319.3L188.6 319.3L188.6 319.4L188.7 319.4L188.7 319.4L188.7 319.5L188.7 319.5L188.8 319.5L188.8 319.6L188.9 319.6L188.9 319.7L188.9 319.7L189.5 320.5L189.5 320.5L189.6 320.5L189.6 320.6L189.6 320.7L189.7 320.7L189.7 320.7L189.7 320.8L189.7 320.8L189.7 320.8L189.8 320.8L189.8 320.9L189.8 320.9L189.8 320.9L189.9 321.0L189.9 321.0L190.0 321.1L190.0 321.1L190.0 321.1L190.1 321.2L190.1 321.2L190.2 321.3L190.2 321.3L190.2 321.3L190.3 321.3L190.3 321.4L190.3 321.4L190.4 321.4L190.4 321.5L190.4 321.5L190.5 321.5L190.5 321.5L190.6 321.6L190.7 321.7L190.8 321.7L190.8 321.7L190.8 321.7L190.8 321.7L190.9 321.8L190.9 321.8L190.9 321.8L191.0 321.8L191.0 321.8L191.1 321.9L191.1 321.9L191.1 321.9L191.2 321.9L191.2 321.9L191.5 322.0L191.5 322.0L191.5 322.0L191.6 322.0L191.6 322.0L191.7 322.0L191.7 322.1L191.8 322.1L191.8 322.1L191.9 322.1L191.9 322.1L191.9 322.1L192.0 322.1L192.0 322.1L192.0 322.1L192.1 322.1L192.1 322.1L192.2 322.1L192.2 322.1L192.2 322.1L192.3 322.1L192.5 322.1L192.6 322.1L192.6 322.1L192.6 322.1L192.7 322.1L192.7 322.1L192.8 322.1L192.8 322.1L192.9 322.1L192.9 322.1L192.9 322.1L193.0 322.1L193.0 322.1L193.0 322.1L193.1 322.1L193.1 322.0L193.2 322.0L193.2 322.0L193.3 322.0L193.3 322.0L193.3 322.0L193.6 321.9L193.6 321.9L193.7 321.9L193.7 321.9L193.7 321.9L193.8 321.8L193.8 321.8L193.9 321.8L193.9 321.8L194.0 321.7L194.0 321.7L194.0 321.7L194.1 321.7L196.7 320.9L196.8 320.9L196.8 320.8L196.9 320.8L196.9 320.8L196.9 320.8L197.0 320.8L197.0 320.8L197.1 320.8L197.1 320.8L197.1 320.8L197.2 320.8L197.3 320.8L197.4 320.8L197.4 320.7L197.5 320.7L197.5 320.7L197.5 320.7L197.6 320.7L197.6 320.7L197.7 320.6L197.8 320.6L197.8 320.6L197.9 320.6L197.9 320.6L197.9 320.6L198.0 320.5L198.0 320.5L198.0 320.5L198.1 320.5L198.1 320.5L198.1 320.5L198.2 320.4L198.2 320.4L198.3 320.4L198.3 320.3L198.3 320.3L198.4 320.3L198.4 320.3L198.5 320.2L198.5 320.2L198.5 320.2L198.6 320.2L198.6 320.2L198.6 320.1L198.6 320.1L198.8 320.0L198.8 320.0L198.8 319.9L198.9 319.9L198.9 319.8L199.0 319.8L199.0 319.8L199.0 319.8L199.1 319.7L200.6 318.4L202.4 317.7L204.2 317.5L206.4 317.9L208.3 319.0L209.8 320.7L209.8 320.7L210.4 321.9L210.4 322.0L210.5 322.1L210.5 322.1L210.5 322.1L210.5 322.2L210.5 322.2L210.5 322.2L210.5 322.3L210.6 322.3L210.6 322.3L210.6 322.4L210.6 322.4L210.6 322.5L210.7 322.5L210.7 322.5L210.8 322.7L210.8 322.8L210.8 322.8L210.9 322.8L210.9 322.8L210.9 322.9L210.9 322.9L210.9 322.9L211.0 323.0L211.0 323.0L211.0 323.0L211.1 323.1L211.1 323.1L211.1 323.2L211.2 323.2L211.2 323.2L211.2 323.3L211.3 323.3L211.3 323.3L211.3 323.3L211.4 323.4L211.5 323.5L211.5 323.5L211.5 323.5L211.6 323.5L211.6 323.5L211.6 323.6L211.6 323.6L211.7 323.6L211.9 323.7L211.9 323.7L212.0 323.8L212.0 323.8L212.0 323.8L212.1 323.8L212.1 323.9L212.1 323.9L212.3 323.9L212.3 323.9L212.3 324.0L212.4 324.0L212.4 324.0L212.4 324.0L212.5 324.0L212.5 324.0L212.6 324.1L212.6 324.1L212.7 324.1L212.7 324.1L212.8 324.1L212.9 324.1L212.9 324.1L213.0 324.1L213.0 324.2L213.0 324.2L213.1 324.2L213.1 324.2L213.1 324.2L213.2 324.2L213.3 324.2L213.3 324.2L213.3 324.2L213.4 324.2L213.4 324.2L213.4 324.2L213.5 324.2L213.7 324.2L213.7 324.2L213.8 324.2L214.1 324.2L214.4 324.2L214.4 324.2L216.6 324.7L218.6 325.9L219.9 327.5L220.7 329.4L220.9 330.6L220.9 330.6L220.6 332.8L219.6 334.8L218.0 336.4L216.0 337.4L215.9 337.4L215.6 337.5L215.6 337.5L215.6 337.5L215.5 337.5L215.5 337.5L215.5 337.6L215.4 337.6L215.4 337.6L215.3 337.6L215.3 337.6L215.2 337.7L215.2 337.7L215.2 337.7L215.1 337.7L215.1 337.7L215.0 337.8L214.9 337.8L214.9 337.9L214.8 337.9L214.8 337.9L214.8 337.9L214.8 338.0L214.7 338.0L214.7 338.0L214.6 338.1L214.6 338.1L214.6 338.1L214.5 338.2L214.5 338.2L214.5 338.2L214.5 338.2L214.4 338.3L214.4 338.3L214.3 338.3L214.3 338.4L214.3 338.4L214.2 338.5L214.2 338.5L214.2 338.5L214.2 338.6L214.1 338.6L214.1 338.6L214.1 338.7L214.1 338.7L214.0 338.7L214.0 338.8L214.0 338.8L214.0 338.8L214.0 338.8L213.9 338.9L213.9 338.9L213.9 339.0L213.9 339.0L213.8 339.0L213.8 339.1L213.8 339.1L213.8 339.1L213.8 339.2L213.8 339.2L213.8 339.2L213.7 339.3L213.7 339.3L213.7 339.4L213.7 339.4L213.7 339.4L213.6 339.5L213.6 339.7L213.6 339.7L213.6 339.8L213.6 339.8L213.5 339.8L213.5 339.9L213.5 340.0L213.5 340.0L213.5 340.0L213.5 340.1L213.5 340.1L213.5 340.2L213.5 340.2L213.5 340.2L213.5 340.3L213.5 340.3L213.5 340.3L213.5 340.4L213.5 340.5L213.4 340.5L213.4 340.5L213.4 340.6L213.4 340.7L213.4 340.7L213.4 340.8L213.5 340.8L213.5 340.9L213.5 340.9L213.5 340.9L213.5 341.0L213.5 341.1L213.5 341.1L213.5 341.2L213.5 341.2L213.5 341.3L213.5 341.3L213.5 341.4L213.5 341.4L213.6 341.5L213.6 341.5L213.6 341.6L213.6 341.6L213.6 341.6L213.6 341.7L213.6 341.7L213.6 341.7L213.7 341.8L213.7 341.9L214.1 343.8L214.1 343.8L214.0 345.8L213.3 347.6L212.2 349.1L211.8 349.5L211.7 349.5L211.7 349.6L211.6 349.6L211.4 349.8L211.3 349.9L211.3 350.0L211.3 350.0L211.2 350.0L211.2 350.1L211.2 350.1L211.2 350.1L211.1 350.2L211.1 350.2L211.1 350.3L211.0 350.4L211.0 350.4L210.9 350.5L210.9 350.5L210.9 350.5L210.9 350.6L210.9 350.6L210.8 350.7L210.8 350.7L210.8 350.7L210.8 350.8L210.8 350.8L210.7 350.9L210.7 351L210.7 351.0L210.7 351.1L210.7 351.1L210.6 351.2L210.6 351.2L210.6 351.3L210.6 351.3L210.6 351.3L210.6 351.4L210.6 351.5L210.6 351.5L210.6 351.6L210.6 351.6L210.6 351.6L210.5 351.7L210.5 351.7L210.5 351.7L210.5 351.8L210.5 351.8L210.5 351.9L210.5 351.9L210.5 352.0L210.5 352.2L210.5 352.3L210.5 352.3L210.5 352.3L210.5 352.4L210.5 352.4L210.5 352.5L210.5 352.5L210.6 352.6L210.6 352.6L210.6 352.7L210.6 352.7L210.6 352.8L210.6 352.8L210.6 352.9L210.8 354.1L210.8 354.7L210.8 354.8L210.8 354.8L210.8 354.9L210.8 355.0L210.8 355.0L210.8 355.1L210.8 355.1L210.8 355.2L210.8 355.2L210.8 355.3L210.8 355.3L210.8 355.3L210.8 355.4L210.8 355.4L210.8 355.4L210.8 355.5L210.8 355.5L210.8 355.5L210.8 355.6L210.8 355.6L210.8 355.7L210.9 355.7L210.9 355.8L210.9 355.8L210.9 355.9L210.9 355.9L211.0 356.1L211.0 356.1L211.0 356.2L211.0 356.2L211.0 356.3L211.0 356.3L211.0 356.3L211.1 356.4L211.1 356.4L211.1 356.5L211.1 356.5L211.1 356.5L211.2 356.6L211.2 356.6L211.2 356.7L211.2 356.7L211.3 356.8L211.4 356.9L211.4 356.9L211.4 356.9L211.4 357.0L211.4 357.0L211.5 357.0L211.5 357.1L211.5 357.1L211.5 357.1L211.6 357.2L211.6 357.3L211.7 357.3L211.7 357.3L211.8 357.4L211.8 357.4L211.8 357.4L211.8 357.4L211.9 357.5L211.9 357.5L212.0 357.6L212.0 357.6L212.1 357.6L212.1 357.7L212.1 357.7L212.1 357.7L212.2 357.7L212.2 357.7L212.2 357.8L212.3 357.8L212.5 357.9L212.5 357.9L212.5 358.0L212.6 358.0L212.6 358.0L212.6 358.0L212.7 358.0L212.7 358.1L212.8 358.1L212.8 358.1L212.9 358.1L212.9 358.1L213 358.1L213.1 358.2L213.5 358.4L215.6 359.8L217.0 362.0L217.3 362.7L217.3 362.8L217.3 362.8L217.3 363.0L217.4 363.0L217.4 363.0L217.4 363.1L217.4 363.1L217.4 363.2L217.5 363.2L217.5 363.3L217.5 363.3L217.5 363.3L217.5 363.4L217.5 363.4L217.6 363.5L217.6 363.5L217.6 363.5L217.6 363.6L217.6 363.6L217.7 363.6L217.7 363.6L217.7 363.7L217.7 363.7L217.8 363.8L217.8 363.8L217.8 363.8L217.8 363.9L217.8 363.9L217.9 363.9L217.9 364L217.9 364.0L218.0 364.0L218.0 364.1L218.0 364.1L218.1 364.1L218.1 364.2L218.1 364.2L218.1 364.2L218.2 364.3L218.2 364.3L218.2 364.3L218.2 364.3L218.3 364.4L218.4 364.4L218.4 364.5L218.4 364.5L218.5 364.5L218.5 364.5L218.5 364.6L218.6 364.6L218.6 364.6L218.6 364.6L218.7 364.7L218.7 364.7L218.8 364.7L218.8 364.7L218.8 364.8L218.9 364.8L218.9 364.8L218.9 364.8L219.0 364.8L219.0 364.9L219.0 364.9L219.1 364.9L219.1 364.9L219.2 364.9L219.2 364.9L219.2 365.0L219.3 365.0L219.3 365.0L219.6 365.1L219.6 365.1L219.6 365.1L219.7 365.1L219.7 365.1L219.8 365.1L219.8 365.1L219.9 365.2L219.9 365.2L219.9 365.2L220.0 365.2L220.0 365.2L220.0 365.2L220.1 365.2L220.2 365.2L220.2 365.2L220.2 365.2L220.3 365.2L220.3 365.2L220.3 365.2L220.4 365.2L220.6 365.2L221.2 365.3L221.8 365.0L221.8 365.0L222.6 364.7L223.0 364.6L223.0 364.6L223.7 364.5L223.7 364.5L225.1 364.6L225.9 363.4L225.9 363.4L225.9 363.4L226.0 363.3L226.0 363.3L226.1 363.3L226.1 363.2L226.1 363.2L226.2 363.1L226.2 363.1L226.2 363.0L226.4 362.8L226.4 362.7L226.4 362.7L226.4 362.7L226.5 362.6L226.5 362.6L226.5 362.6L226.5 362.5L226.5 362.5L226.5 362.5L226.6 362.4L226.6 362.4L226.6 362.4L226.6 362.3L226.6 362.3L226.7 362.1L226.7 362.1L226.7 362.0L226.7 362.0L226.7 362.0L226.8 361.7L226.8 361.7L226.8 361.6L226.8 361.6L226.8 361.6L226.8 361.5L226.8 361.4L226.8 361.4L226.8 361.4L226.8 361.3L226.8 361.2L227.1 359.9L226.0 359.0L225.9 358.9L225.9 358.8L225.8 358.8L225.8 358.7L225.8 358.7L225.7 358.6L225.7 358.6L225.6 358.6L225.5 358.5L225.5 358.5L225.5 358.4L225.5 358.4L225.4 358.4L225.4 358.4L225.4 358.4L225.3 358.3L225.2 358.3L225.2 358.3L225.2 358.2L225.1 358.2L225.1 358.2L225.1 358.2L225.1 358.2L225.0 358.1L225.0 358.1L225.0 358.1L224.9 358.1L224.9 358.1L224.9 358.1L224.8 358.1L224.8 358.0L224.7 358.0L224.7 358.0L224.6 358.0L224.6 358.0L224.5 357.9L224.5 357.9L224.5 357.9L224.4 357.9L224.4 357.9L224.3 357.9L224.3 357.9L224.2 357.8L224.0 357.8L223.7 357.8L223.7 357.8L223.5 357.8L221.3 357.1L219.5 355.8L218.1 353.9L217.5 351.7L217.5 351.6L217.7 349.4L218.6 347.4L220.0 345.8L221.7 344.8L223.5 344.4L223.5 344.4L225.8 344.5L225.8 344.5L226.0 344.6L226.3 344.6L226.3 344.6L226.4 344.6L226.4 344.6L226.4 344.6L226.5 344.6L226.6 344.6L226.7 344.6L226.7 344.6L226.8 344.6L226.8 344.6L226.8 344.6L226.9 344.6L226.9 344.6L227.0 344.6L227.0 344.6L227.0 344.6L227.1 344.6L227.1 344.6L227.1 344.6L227.2 344.6L227.2 344.6L227.4 344.5L227.4 344.5L227.4 344.5L227.5 344.5L227.5 344.5L227.5 344.5L227.7 344.4L227.7 344.4L227.8 344.4L227.8 344.4L227.9 344.3L227.9 344.3L228.0 344.3L228.0 344.3L228.1 344.3L228.1 344.3L228.1 344.2L228.1 344.2L228.2 344.2L228.2 344.2L228.3 344.1L228.4 344.1L228.5 344.0L228.5 344.0L228.5 344.0L228.6 344.0L228.6 343.9L228.6 343.9L228.6 343.9L228.7 343.9L228.8 343.8L228.8 343.8L228.8 343.8L228.9 343.7L229.0 343.6L229.1 343.4L229.1 343.4L229.4 343.1L230.8 342.0L232.5 341.2L234.3 341.0L235.4 341.1L237.5 341.8L239.3 343.2L240.5 345.1L241.0 347.3L241.0 347.3L240.9 349.3L240.1 351.1L239.2 352.2L237.6 356.4L238.6 357.2L238.7 357.3L238.8 357.4L238.8 357.4L238.8 357.4L238.8 357.5L238.9 357.5L238.9 357.6L239.1 357.7L239.1 357.7L239.1 357.7L239.1 357.7L239.2 357.7L239.2 357.8L239.2 357.8L239.3 357.8L239.3 357.8L239.3 357.8L239.4 357.9L239.4 357.9L239.5 358.0L239.6 358.0L239.6 358.0L239.7 358.1L239.7 358.1L239.7 358.1L239.8 358.1L239.8 358.1L239.9 358.1L239.9 358.2L239.9 358.2L240.0 358.2L240.0 358.2L240.1 358.2L241.9 359.2L243.3 360.8L243.3 360.8L243.3 360.9L243.3 360.9L243.4 360.9L243.4 360.9L243.4 361.0L243.4 361.0L243.4 361.0L243.5 361.1L243.5 361.1L243.5 361.1L243.6 361.2L243.6 361.3L244.9 363.1L245.4 365.3L245.2 367.5L244.3 369.5L244.3 369.6L244.3 369.6L244.3 369.6L244.2 369.7L244.2 369.7L244.2 369.7L244.2 369.8L244.2 369.8L244.1 369.8L244.1 369.9L244.1 369.9L244.0 370.0L244.0 370.1L244.0 370.1L244.0 370.1L244.0 370.2L244.0 370.2L244.0 370.3L243.9 370.4L243.9 370.4L243.9 370.4L243.9 370.5L242.9 372.2L241.5 373.6L239.7 374.6L237.8 374.9L235.8 374.7L235.7 374.7L235.7 374.7L235.6 374.7L235.6 374.6L235.5 374.6L235.5 374.6L235.4 374.6L235.4 374.6L235.3 374.6L235.2 374.6L235.1 374.6L235.1 374.6L235.1 374.6L235.0 374.6L235.0 374.6L234.8 374.6L234.8 374.6L234.7 374.6L234.6 374.6L234.0 374.6L233.2 374.5L233.2 374.5L233.1 374.5L233.1 374.5L233.0 374.5L232.9 374.5L232.9 374.5L232.9 374.5L232.8 374.5L232.8 374.5L232.7 374.5L232.7 374.5L232.6 374.5L232.5 374.5L232.5 374.5L232.4 374.5L232.4 374.5L232.4 374.5L232.3 374.5L232.2 374.5L232.1 374.5L232.1 374.5L232.0 374.5L231.5 374.6L231.5 374.6L230.1 374.5L229.3 375.7L229.3 375.7L227.9 376.9L226.2 377.7L224.3 378L224.3 378L223.6 377.8L223.0 378.2L223.0 378.2L222.9 378.2L222.9 378.2L222.9 378.2L222.8 378.3L222.8 378.3L222.8 378.3L222.7 378.3L222.7 378.3L222.7 378.3L222.6 378.4L222.6 378.4L222.5 378.4L222.5 378.4L222.3 378.5L222.3 378.6L222.3 378.6L222.3 378.6L222.2 378.6L222.2 378.6L222.2 378.7L222.1 378.7L222.1 378.7L222.0 378.8L222.0 378.8L222.0 378.8L221.9 378.9L221.9 378.9L221.9 378.9L221.9 378.9L221.8 379.0L221.8 379.0L221.8 379.0L221.8 379.0L221.7 379.1L221.7 379.1L221.7 379.2L221.6 379.2L221.6 379.2L221.6 379.3L221.5 379.3L221.5 379.4L221.5 379.4L221.4 379.5L221.4 379.5L221.3 379.6L221.3 379.6L221.3 379.7L221.3 379.7L221.3 379.7L221.2 379.8L221.2 379.8L221.2 379.8L221.2 379.9L221.2 379.9L221.2 379.9L221.1 380.0L221.1 380.0L221.1 380.1L221.1 380.1L221.1 380.1L221.0 380.3L221.0 380.3L221.0 380.3L221.0 380.4L221.0 380.4L221.0 380.4L221.0 380.5L221.0 380.5L221.0 380.5L220.9 380.6L220.9 380.7L220.9 380.7L220.9 380.8L220.9 380.8L220.9 380.8L220.9 380.9L220.9 380.9L220.9 380.9L220.9 381.0L220.9 381.0L220.9 381.1L220.9 381.1L220.9 381.1L220.9 381.2L220.9 381.2L220.9 381.3L220.8 381.9L220.8 381.9L220.3 384.1L219.0 385.9L217.2 387.3L215.1 388.0L215.0 388.0L214.1 388.0L213.9 388.0L213.9 388.0L211.9 387.6L210.1 386.6L208.6 385.2L207.7 383.3L207.7 383.2L207.7 383.1L207.7 383.1L207.6 383.0L207.6 383.0L207.6 382.9L207.6 382.9L207.6 382.9L207.6 382.8L207.5 382.8L207.5 382.7L207.5 382.7L207.5 382.7L207.5 382.6L207.4 382.6L207.4 382.6L207.4 382.5L207.4 382.5L207.4 382.5L207.3 382.4L207.3 382.3L207.2 382.3L207.2 382.3L207.2 382.2L207.2 382.2L207.2 382.2L207.1 382.2L207.1 382.1L207.1 382.1L207.0 382.0L207.0 382.0L206.8 381.8L206.7 381.7L206.7 381.7L206.6 381.6L206.6 381.6L206.6 381.6L206.5 381.6L206.5 381.5L206.5 381.5L206.4 381.5L206.4 381.5L206.4 381.5L206.3 381.4L206.3 381.4L206.3 381.4L206.3 381.4L206.2 381.4L206.2 381.3L206.1 381.3L206.1 381.3L206.1 381.3L206.0 381.2L206.0 381.2L206.0 381.2L205.9 381.2L205.9 381.2L205.8 381.1L205.8 381.1L205.7 381.1L205.7 381.1L205.7 381.1L205.5 381.0L205.4 381.0L204.2 380.5L204.1 380.4L204.1 380.4L204.0 380.4L204.0 380.4L203.9 380.3L203.9 380.3L203.9 380.3L203.8 380.3L203.8 380.3L203.7 380.3L203.7 380.2L203.7 380.2L203.6 380.2L203.5 380.2L203.5 380.2L203.4 380.1L203.4 380.1L203.3 380.1L203.3 380.1L203.3 380.1L203.2 380.1L203.1 380.1L203.1 380.1L203.1 380.1L203.0 380.1L203.0 380.1L202.9 380.0L202.9 380.0L202.8 380.0L202.8 380.0L202.7 380.0L202.7 380.0L202.6 380.0L202.6 380.0L202.6 380.0L202.4 380.0L202.4 380.0L202.3 380.0L202.3 380.0L202.2 380.0L202.2 380.0L202.2 380.0L202.1 380.0L202.1 380.0L202.1 380.0L202.0 380.1L201.9 380.1L201.8 380.1L201.8 380.1L201.8 380.1L201.7 380.1L201.7 380.1L201.6 380.1L201.5 380.2L201.5 380.2L201.3 380.2L201.3 380.2L201.3 380.2L213.6 366.8L207.1 372.6L205.9 373.9L196.6 377.1L194.9 380.7L189.8 381.2L186.1 380.1L179.8 371.9L171.2 375.0L169.5 374.0L169.3 372.0L173.4 371.3L174.4 369.7L170.0 369.5L166.1 367.2L162.9 367.2L160.5 367.7L159.6 370.2L156.0 370.4L154.1 372.1L151.6 371.0L152.4 369.2L156.2 367.7L155.7 366.4L155.2 367.6L152.7 367.9L147.2 366.7L150.7 365.0L150.2 362.2L147.2 361.4L147.7 359.8L151.1 358.2L151.6 356.9L157.3 356.4L161.2 352.3L165.2 352.2L171.4 348.2L173.8 345.1L175.6 339.5L174.2 335.0L176.0 330.8L173.9 327.7L174.4 323.4L168.0 324.3L165.1 327.6L160.0 327.6L163.4 323.2L169.5 318.9L170.2 315.9L173.3 312.5L181.0 309.7L187.0 310.0L192.7 307.7 Z M 188.3 387.6L187.0 386.9L187.1 386.9 Z M 170.4 392.3L170.4 392.3L170.4 392.3L170.5 392.3L172.3 391.6L173.8 391.4L174.6 391.4L174.6 391.4L176.9 392.1L178.8 393.6L180.0 395.6L180.5 397.4L180.5 398.5L180.5 399.2L180.5 399.3L180.4 399.3L180.4 399.3L180.4 399.5L180.4 399.5L180.4 399.6L180.4 399.6L180.4 399.6L180.4 399.7L180.4 399.7L180.4 399.9L180.4 399.9L180.4 400.0L180.4 400.0L180.4 400.0L180.4 400.1L180.4 400.1L180.4 400.1L180.4 400.2L180.4 400.2L180.4 400.3L180.5 400.3L180.5 400.4L180.6 401.4L180.6 401.5L180.6 401.6L180.6 401.7L180.6 401.7L180.6 401.8L180.6 401.8L180.6 401.8L180.6 401.9L180.6 401.9L180.6 402L180.6 402.0L180.6 402.0L180.6 402.1L180.6 402.1L180.6 402.2L180.6 402.2L180.6 402.3L180.7 402.3L180.7 402.3L180.7 402.4L180.7 402.4L180.8 402.6L180.8 402.7L180.8 402.7L180.8 402.7L180.8 402.8L180.8 402.8L180.9 402.9L180.9 402.9L180.9 403.0L181.0 403.1L181.0 403.1L181.0 403.1L181.0 403.2L181.0 403.2L181.1 403.3L181.1 403.3L181.1 403.3L181.1 403.4L181.2 403.4L181.2 403.4L181.2 403.5L181.2 403.5L181.2 403.5L181.3 403.5L181.3 403.6L181.3 403.6L181.4 403.7L181.4 403.7L181.5 403.8L181.5 403.8L181.5 403.8L181.6 403.9L181.6 403.9L181.7 404.0L181.7 404.0L181.8 404.0L181.8 404.1L181.8 404.1L181.9 404.1L181.9 404.2L181.9 404.2L182.0 404.2L182.0 404.2L182.0 404.2L182.1 404.3L182.1 404.3L182.1 404.3L182.1 404.3L182.2 404.3L182.2 404.4L182.3 404.4L182.3 404.4L182.3 404.4L182.4 404.5L182.4 404.5L182.4 404.5L182.5 404.5L182.5 404.5L182.6 404.6L182.6 404.6L182.7 404.6L182.7 404.6L182.8 404.6L182.9 404.7L183.0 404.7L183.0 404.7L183.1 404.7L183.1 404.7L183.1 404.7L183.2 404.7L183.2 404.8L183.3 404.8L183.3 404.8L183.4 404.8L183.4 404.8L183.5 404.8L183.5 404.8L183.5 404.8L183.6 404.8L183.6 404.8L183.7 404.8L183.7 404.8L183.7 404.8L183.8 404.8L183.8 404.8L184 404.8L186.0 405.1L187.8 406.1L189.3 407.5L190.2 409.1L188.4 410.1L183.0 423.9L181.4 424.8L179.1 424.4L176.0 420.7L173.5 421.3L170.6 418.1L165.7 418.5L163.2 419.9L156.5 420.2L154.1 423.1L149.5 425.1L149.0 429.9L146.5 431.2L145.6 433.0L143.5 428.7L139.2 426.4L137.6 426.8L136.8 429.1L134.9 428.9L134.0 427.5L134.0 427.5L133.7 426.2L133.9 425.1L138.8 423L140.4 423.9L149.7 415.8L150.8 411.2L156.4 409.6L157.4 406.9L162.1 402.6L163.1 394.1L168.3 394.7 Z M 246.9 401.8L247.2 403.9L245.7 403.5 Z M 164.6 308.8L164.8 311.0L162.6 309.3L162.6 307.8 Z M 176.8 308.9L169.7 315.4L166.9 313.3L165.1 309.7L165.2 305.3L168.5 304.1L171.6 305.0L172.8 308.1 Z M 176.8 308.9 "/>
<path style=" stroke:none;fill-rule:nonzero;fill:rgb(77.6%,78.8%,62.3%);fill-opacity:1;" d="M 45.5 325.2L47.5 326.1L47.6 326.2L47.6 326.2L47.7 326.2L47.7 326.2L47.7 326.2L47.8 326.3L47.8 326.3L46.4 327.0L42.8 327.1 Z M 51.8 325.3L56.7 321.2L57.2 320.8L57.3 320.8L57.3 320.8L57.3 320.8L57.3 320.7L57.4 320.7L57.4 320.7L57.4 320.7L57.5 320.6L57.5 320.6L57.6 320.5L57.6 320.5L57.6 320.5L57.6 320.5L57.7 320.4L57.7 320.4L57.7 320.4L57.8 320.4L57.8 320.3L57.8 320.3L57.9 320.2L57.9 320.2L57.9 320.1L58.0 320.1L58.0 320.1L58.0 320.1L58.0 320.0L58.1 320.0L58.1 320.0L58.2 319.8L58.2 319.7L58.2 319.7L58.3 319.7L58.3 319.6L58.3 319.6L58.3 319.6L58.3 319.5L58.3 319.5L58.4 319.4L58.4 319.4L58.4 319.3L58.4 319.3L58.4 319.3L58.5 319.2L58.5 319.2L58.5 319.1L58.5 319.1L58.5 319.0L58.5 319.0L58.6 318.9L58.6 318.9L58.6 318.8L58.6 318.8L58.6 318.7L58.6 318.7L58.6 318.7L58.6 318.6L58.6 318.6L58.6 318.6L58.6 318.5L58.6 318.5L58.6 318.5L58.6 318.4L58.6 318.4L58.6 318.3L58.7 318.3L58.7 318.2L58.7 318.2L58.7 318.0L58.7 317.9L58.7 317.9L58.7 317.9L58.7 317.8L58.6 317.8L58.6 317.7L58.6 317.7L58.6 317.6L58.6 317.6L58.6 317.5L58.6 316.8L58.6 316.8L58.8 314.7L59.7 312.8L61.1 311.3L61.1 311.2L61.2 311.2L61.2 311.2L61.3 311.1L61.3 311.1L61.3 311.1L61.4 311.0L61.4 311.0L61.4 311.0L61.4 311.0L61.5 310.9L61.5 310.9L61.5 310.9L61.6 310.8L61.6 310.8L61.6 310.8L61.7 310.7L61.7 310.7L61.7 310.7L61.7 310.6L61.8 310.6L61.8 310.6L61.8 310.5L61.8 310.5L61.9 310.5L61.9 310.4L61.9 310.4L62.0 310.3L62.0 310.3L62.0 310.2L62.0 310.2L62.0 310.2L62.0 310.1L62.1 310.1L62.1 310.1L62.1 310.0L62.1 310.0L62.1 310.0L62.2 309.9L62.2 309.9L62.2 309.8L62.2 309.8L62.2 309.7L62.2 309.7L62.3 309.6L62.3 309.5L62.3 309.5L62.3 309.5L62.3 309.4L62.3 309.4L62.3 309.3L62.3 309.2L62.4 309.2L62.4 309.2L62.4 309.1L62.4 309.1L62.4 309.0L62.4 309.0L62.4 309.0L62.4 308.9L62.4 308.9L62.4 308.8L62.4 308.8L62.4 308.8L62.4 308.5L62.4 308.5L62.4 308.4L62.4 308.4L62.4 308.3L62.4 308.3L62.4 308.3L62.4 308.2L62.4 308.2L62.4 308.2L62.4 308.1L62.4 308.1L62.4 308.1L62.3 308.0L62.3 307.7L66.6 307.1L67.4 305.5L66.3 304.9L66.5 303.5L65.9 303.2L57.9 303.2L57.2 302.2L56.6 299.9L56.6 299.4L56.6 299.4L56.7 298.6L56.3 298.0L56.3 297.9L56.3 297.9L56.3 297.9L56.2 297.8L56.2 297.8L56.2 297.7L56.2 297.7L56.1 297.7L56.1 297.6L56.1 297.6L56.1 297.5L56.0 297.5L56.0 297.5L56.0 297.5L56.0 297.4L56.0 297.4L55.9 297.4L55.9 297.3L55.9 297.3L55.9 297.3L55.8 297.2L55.8 297.2L55.7 297.1L55.7 297.1L55.7 297.0L55.6 296.9L55.6 296.9L55.5 296.9L55.5 296.8L55.4 296.8L55.4 296.8L55.4 296.7L55.3 296.7L55.3 296.7L55.3 296.7L55.2 296.7L55.2 296.6L55.2 296.6L55.2 296.6L55.1 296.6L55.1 296.6L55.1 296.5L55.0 296.5L55.0 296.5L54.9 296.5L54.9 296.4L54.9 296.4L54.8 296.4L54.8 296.4L54.8 296.4L54.7 296.4L54.7 296.3L54.6 296.3L54.6 296.3L54.6 296.3L54.5 296.3L54.5 296.2L54.5 296.2L54.4 296.2L54.4 296.2L54.2 296.1L54.2 296.1L54.1 296.1L54.0 296.1L54.0 296.1L53.9 296.1L53.2 295.8L52.5 296.1L52.5 296.1L52.4 296.1L52.4 296.1L52.4 296.1L52.3 296.1L52.3 296.1L52.2 296.2L52.2 296.2L52.1 296.2L52.1 296.2L52.0 296.2L52.0 296.2L52.0 296.2L51.9 296.3L51.9 296.3L51.9 296.3L51.8 296.3L51.8 296.3L51.8 296.3L51.7 296.4L51.7 296.4L51.6 296.4L51.6 296.4L51.6 296.5L51.5 296.5L51.4 296.5L51.4 296.5L51.3 296.6L51.3 296.6L51.3 296.6L51.3 296.6L51.2 296.7L51.2 296.7L49.3 297.7L47.1 298.1L46.6 298.0L48.0 296.4L47.1 295.4L44.4 296.4L41.7 295.1L41.2 294.3L42.5 293.5L43.0 292.6L41.3 291.1L41.1 289.7L42.7 289.3L44.4 289.6L44.5 288.4L45.0 288.2L48.0 288.2L50.7 289.0L48.4 287.9L47.3 286.5L47.1 284.8L48.0 283.0L49.7 282.4L50.8 282.3L51.2 282.4L51.2 282.5L51.2 282.5L51.3 282.5L51.3 282.5L51.4 282.6L51.4 282.6L51.5 282.6L51.5 282.6L51.5 282.7L51.6 282.7L51.6 282.7L51.6 282.7L51.7 282.7L51.7 282.8L51.8 282.8L51.8 282.8L51.8 282.8L51.9 282.8L51.9 282.8L51.9 282.8L52.1 282.9L52.1 282.9L52.2 282.9L52.2 282.9L52.2 282.9L52.3 282.9L52.3 282.9L52.3 283.0L52.4 283.0L53.1 283.2L53.8 283.0L53.9 282.9L53.9 282.9L53.9 282.9L54.0 282.9L54.0 282.9L54.1 282.9L54.2 282.8L54.2 282.8L54.3 282.8L54.3 282.8L54.3 282.8L54.4 282.8L54.4 282.8L54.5 282.7L54.5 282.7L54.6 282.7L54.6 282.7L54.6 282.7L54.7 282.6L54.7 282.6L54.7 282.6L55.0 282.5L55.0 282.4L55.1 282.4L55.1 282.4L55.1 282.3L55.2 282.3L55.2 282.3L55.2 282.3L55.3 282.2L55.3 282.2L55.4 282.1L55.4 282.1L55.4 282.1L55.4 282.1L55.5 282.0L55.5 282.0L55.5 282.0L55.5 282.0L55.6 281.9L55.6 281.9L55.7 281.8L55.7 281.8L55.7 281.7L55.8 281.7L57.0 280.5L58.4 279.6L61.1 279.1L61.1 279.1L61.5 279.1L63.8 279.6L63.9 279.7L64.0 279.7L64.0 279.7L64.0 279.7L64.1 279.8L64.2 279.8L64.2 279.8L64.2 279.8L64.3 279.8L64.3 279.8L64.4 279.8L64.4 279.8L64.4 279.9L64.5 279.9L64.5 279.9L64.6 279.9L64.7 279.9L64.7 279.9L64.8 279.9L64.8 279.9L64.9 279.9L64.9 279.9L64.9 279.9L65.0 279.9L65.0 280L65.1 280L65.1 280.0L65.1 280.0L65.2 280.0L65.4 280.0L65.4 280.0L65.5 280.0L65.5 280L65.5 279.9L65.6 279.9L65.6 279.9L65.7 279.9L65.8 279.9L65.8 279.9L65.9 279.9L65.9 279.9L66.0 279.9L66.0 279.9L66.0 279.9L66.1 279.9L66.1 279.8L66.6 279.7L66.6 279.7L68.8 279.7L68.8 279.6L69.2 277.6L69.2 277.5L69.2 277.4L69.2 277.4L69.3 277.3L69.3 277.3L69.3 277.3L69.3 277.2L69.3 277.1L69.3 277.0L69.3 277.0L69.3 276.9L69.3 276.9L69.4 276.8L69.4 276.8L69.4 276.8L69.4 276.7L69.4 276.7L69.4 276.6L69.4 276.6L69.4 276.5L69.4 276.5L69.4 276.4L69.4 276.4L69.4 276.3L69.4 276.2L69.4 276.2L69.4 276.2L69.4 276.1L69.4 276.1L69.4 276.1L69.4 276.0L69.3 276.0L69.3 275.9L69.3 275.9L69.3 275.8L69.3 275.8L69.3 275.6L69.3 275.6L69.3 275.5L69.2 275.5L69.2 275.4L68.9 273.6L68.9 273.6L69.0 273.1L69.1 271.9L69.9 270.1L71.1 268.6L72.6 267.5L72.7 267.5L72.7 267.5L72.8 267.4L72.8 267.4L72.8 267.4L72.9 267.4L73.0 267.3L73.1 267.2L73.1 267.2L73.1 267.2L73.2 267.2L73.2 267.2L73.2 267.1L73.3 267.1L73.3 267.1L73.4 267.0L73.4 267L73.5 266.9L73.5 266.9L73.6 266.8L73.6 266.8L73.7 266.7L73.7 266.7L73.7 266.6L73.8 266.6L73.8 266.5L73.9 266.5L73.9 266.4L74.3 266.1L76.0 266.5L79.1 268.4L78.4 266.8L80.0 265.9L79.6 264.5L78.0 263.9L79.0 263.7L80.2 263.8L80.3 263.8L80.4 263.8L80.4 263.8L80.5 263.8L80.5 263.8L80.5 263.8L80.6 263.8L80.6 263.8L80.7 263.8L80.7 263.8L82.9 264.2L83.3 264.4L83.5 262.6L84.4 260.7L85.8 259.3L85.9 259.3L87.8 258.2L90.0 257.9L90.0 257.9L90.7 258.0L91.4 257.6L91.4 257.5L91.5 257.5L91.5 257.5L91.6 257.5L91.6 257.4L91.7 257.4L91.7 257.4L91.7 257.4L91.9 257.3L91.9 257.3L91.9 257.2L92.0 257.2L92.0 257.2L92.0 257.2L92.0 257.1L92.1 257.1L92.1 257.1L92.2 257.0L92.2 257.0L92.3 257.0L92.3 256.9L94.5 255.6L96.9 255.1L96.9 255.1L97.4 255.1L97.4 255.1L99.7 255.7L99.7 255.7L99.8 255.7L99.8 255.7L99.8 255.7L99.9 255.8L99.9 255.8L100.2 255.9L100.2 255.9L100.2 255.9L100.3 255.9L100.3 255.9L100.3 255.9L100.4 255.9L100.4 255.9L100.4 255.9L100.5 255.9L100.5 255.9L100.5 255.9L100.6 255.9L100.6 256L100.7 256.0L100.7 256.0L100.8 256.0L100.8 256.0L100.8 256.0L100.9 256.0L100.9 256.0L101.0 256.0L101.0 256.0L101.1 256.0L101.2 256.0L101.2 256.0L101.3 256.0L101.3 256.0L101.4 256.0L101.5 256.0L101.6 256L101.6 255.9L101.6 255.9L101.7 255.9L101.7 255.9L101.8 255.9L101.8 255.9L101.9 255.9L102.0 255.9L102.2 255.8L102.3 255.8L102.3 255.8L102.3 255.8L102.4 255.8L102.5 255.8L102.5 255.7L102.5 255.7L102.7 255.7L102.7 255.7L102.7 255.7L102.8 255.6L102.8 255.6L102.8 255.6L102.9 255.6L102.9 255.6L103.0 255.5L103.1 255.5L103.1 255.5L103.1 255.5L103.2 255.5L103.2 255.4L103.2 255.4L103.3 255.4L103.3 255.4L103.3 255.4L103.4 255.3L103.4 255.3L103.5 255.3L103.5 255.2L103.5 255.2L103.6 255.2L103.6 255.2L103.6 255.1L103.7 255.1L103.7 255.1L103.8 255.0L103.8 255.0L103.8 255.0L103.9 255L103.9 254.9L103.9 254.9L103.9 254.9L104.0 254.8L104.0 254.8L104.0 254.8L104.0 254.8L104.1 254.7L104.2 254.6L104.2 254.6L104.2 254.6L104.2 254.5L104.3 254.5L104.3 254.5L104.3 254.4L104.3 254.4L104.3 254.4L104.4 254.4L104.4 254.2L104.5 254.2L104.5 254.2L104.5 254.1L104.5 254.1L104.5 254.1L104.6 254.0L104.6 253.9L104.6 253.9L104.6 253.8L104.6 253.8L104.7 253.7L105.5 252.2L107.2 250.7L109.2 249.8L109.3 249.7L109.3 249.7L109.4 249.7L109.4 249.7L109.5 249.7L109.6 249.6L109.6 249.6L109.7 249.6L109.7 249.6L109.7 249.6L109.8 249.6L109.8 249.5L109.9 249.5L109.9 249.5L109.9 249.5L110.0 249.5L110.0 249.4L110.0 249.4L110.1 249.4L110.3 249.3L110.3 249.3L110.3 249.2L110.4 249.2L110.4 249.2L110.4 249.2L110.5 249.1L110.5 249.1L110.5 249.1L110.6 249.0L110.7 249.0L110.7 249L110.7 248.9L110.8 248.8L110.8 248.8L110.9 248.8L110.9 248.7L110.9 248.7L111.0 248.7L111.0 248.6L111.0 248.6L111.1 248.5L111.1 248.5L111.1 248.5L111.1 248.4L111.2 248.4L111.2 248.3L111.2 248.3L111.3 248.2L111.3 248.2L111.3 248.2L111.3 248.1L111.3 248.1L111.4 248.1L111.4 248.0L111.4 248.0L111.4 248.0L111.4 247.9L111.5 247.8L111.5 247.7L111.5 247.7L111.6 247.6L111.6 247.6L111.6 247.5L111.6 247.5L111.6 247.4L111.6 247.3L111.7 247.3L111.7 247.2L111.7 247.1L111.7 247.1L111.7 247.1L111.7 247.0L111.7 247.0L111.7 247.0L111.7 246.9L111.7 246.9L111.7 246.8L111.7 246.8L111.7 246.7L111.7 246.7L111.8 246.7L111.8 246.6L111.8 246.5L112.0 245.1L112.0 245.0L112.0 245.0L112.0 245L112.0 244.9L112.0 244.9L112.0 244.8L112.0 244.8L112.0 244.8L112.0 244.7L112.0 244.7L112.1 244.6L112.1 244.6L112.1 244.5L112.1 244.5L112.1 244.4L112.1 244.4L112.1 244.4L112.1 244.1L112.1 244.1L112.1 244.0L112.1 244.0L112.1 243.9L112.0 243.6L112.3 241.7L113.0 239.9L114.2 239.8L116.0 237.3L117.8 236.8L118.8 236.7L118.8 236.7L121.1 237.1L123.0 238.2L124.5 239.9L125.3 242.0L125.3 242.1L125.4 242.1L125.4 242.2L125.4 242.2L125.4 242.3L125.4 242.3L125.5 242.5L125.5 242.6L125.5 242.6L125.5 242.7L125.6 242.7L125.6 242.8L125.6 242.8L125.6 242.8L125.6 242.9L125.6 242.9L125.7 242.9L125.7 243.0L125.7 243.0L125.9 243.3L125.9 243.3L125.9 243.3L126 243.4L126.0 243.4L126.0 243.4L126.0 243.5L126.1 243.5L126.1 243.5L126.1 243.6L126.2 243.6L126.2 243.7L126.3 243.8L126.3 243.8L126.3 243.8L126.4 243.8L126.4 243.9L126.5 243.9L126.5 243.9L126.5 244.0L126.6 244.0L126.6 244.0L126.6 244.0L126.7 244.1L126.7 244.1L126.7 244.1L126.8 244.2L126.8 244.2L126.9 244.2L126.9 244.2L126.9 244.2L127.0 244.3L127.0 244.3L127.0 244.3L127.1 244.3L127.1 244.3L127.1 244.4L127.2 244.4L127.2 244.4L127.3 244.4L127.3 244.4L127.3 244.4L127.4 244.5L129.1 245.4L130.4 246.8L130.4 246.9L130.4 246.9L130.5 247L130.5 247.0L130.5 247.0L130.5 247.0L130.6 247.1L130.6 247.1L130.6 247.1L130.7 247.2L130.7 247.2L130.8 247.3L130.8 247.3L130.8 247.4L130.9 247.4L130.9 247.4L130.9 247.5L131.0 247.5L131.1 247.6L131.1 247.6L131.1 247.6L131.1 247.6L131.2 247.6L131.2 247.7L131.2 247.7L131.3 247.7L131.3 247.7L131.3 247.8L131.4 247.8L131.4 247.8L131.5 247.8L131.5 247.9L131.5 247.9L131.6 247.9L131.6 247.9L131.7 248.0L131.7 248.0L131.7 248.0L131.8 248.0L131.8 248.0L131.9 248.0L131.9 248.1L131.9 248.1L132.0 248.1L132.2 248.2L132.2 248.2L132.3 248.2L132.3 248.2L132.4 248.2L132.5 248.2L132.5 248.2L132.6 248.3L132.6 248.3L132.7 248.3L132.7 248.3L132.7 248.3L132.8 248.3L132.8 248.3L132.8 248.3L132.9 248.3L133.3 248.4L133.6 248.3L133.6 248.3L134.1 248.2L136.0 248.3L137.7 248.9L139.3 250.0L140.4 251.5L141.1 253.2L141.2 253.8L138.6 255.7L137.7 257.8L141.1 256.5L140.9 257.3L139.9 259.1L138.4 260.5L136.5 261.4L136.5 261.4L134.5 261.6L134.5 261.6L134.1 261.6L134.1 261.6L133.7 261.5L133.3 261.6L133.3 261.6L133.2 261.6L133.2 261.6L133.0 261.7L133.0 261.7L132.9 261.7L132.9 261.7L132.9 261.7L132.6 261.8L132.5 261.8L132.5 261.8L132.4 261.9L132.4 261.9L132.3 261.9L132.3 261.9L132.3 262.0L132.2 262.0L132.2 262.0L132.1 262.0L132.1 262.1L132.1 262.1L132.0 262.1L132.0 262.1L132.0 262.1L131.9 262.2L131.9 262.2L131.8 262.2L131.8 262.2L131.8 262.3L131.7 262.3L131.7 262.3L131.7 262.4L131.6 262.4L131.5 262.5L131.5 262.5L131.5 262.5L131.4 262.5L131.3 262.7L131.3 262.7L131.3 262.7L131.2 262.8L131.2 262.8L131.1 262.9L131.1 262.9L131.1 262.9L131.1 263.0L131.1 263.0L131.0 263.1L130.9 263.3L130.9 263.3L130.8 263.3L130.8 263.4L130.8 263.4L130.8 263.4L130.8 263.5L130.7 263.5L130.7 263.6L130.7 263.6L130.7 263.7L130.7 263.7L130.6 263.7L130.6 263.8L130.6 263.8L130.6 263.9L130.6 263.9L130.6 263.9L130.6 264.0L130.6 264.0L130.5 264.1L130.5 264.1L130.5 264.2L130.5 264.3L130.5 264.3L130.5 264.3L130.5 264.4L130.5 264.4L130.5 264.5L130.5 264.5L130.5 264.5L130.4 264.6L130.4 264.6L130.4 264.6L130.4 264.7L130.4 264.7L129.8 266.9L128.8 268.6L127.3 269.8L125.5 270.6L123.5 270.8L121.6 270.5L120.0 269.7L119.9 269.6L119.9 269.6L119.8 269.5L119.7 269.5L119.7 269.5L119.7 269.5L119.6 269.5L119.6 269.4L119.6 269.4L119.5 269.4L119.5 269.4L119.4 269.4L119.4 269.3L119.3 269.3L119.3 269.3L119.3 269.3L119.2 269.3L119.2 269.3L119.2 269.3L119.1 269.2L119.1 269.2L119.0 269.2L118.9 269.2L118.9 269.2L118.9 269.2L118.7 269.1L118.7 269.1L118.7 269.1L118.6 269.1L118.6 269.1L118.5 269.1L118.5 269.1L118.4 269.1L118.4 269.1L118.4 269.1L118.3 269.1L118.3 269.1L118.2 269.1L118.2 269.1L118.1 269.1L118.1 269.1L118.0 269.1L117.9 269.1L117.9 269.1L117.8 269.1L117.8 269.1L117.7 269.1L117.7 269.1L117.6 269.1L117.6 269.1L117.5 269.1L117.5 269.1L117.5 269.1L117.4 269.1L117.4 269.1L117.4 269.1L117.3 269.1L117.3 269.2L117.3 269.2L117.2 269.2L117.2 269.2L117.1 269.2L117.1 269.2L117.1 269.2L116.9 269.3L116.9 269.3L116.8 269.3L116.8 269.3L116.7 269.3L116.7 269.4L116.6 269.4L116.6 269.4L116.6 269.4L116.5 269.4L116.5 269.5L116.5 269.5L116.4 269.5L116.4 269.5L116.4 269.5L116.3 269.5L116.3 269.6L116.2 269.6L116.1 269.7L116.1 269.7L116.1 269.7L116.0 269.7L116.0 269.8L116.0 269.8L115.9 269.8L115.9 269.9L115.9 269.9L115.8 269.9L115.8 270L115.8 270.0L115.6 270.1L115.6 270.1L115.6 270.2L115.5 270.2L115.5 270.2L115.5 270.3L115.5 270.3L115.4 270.4L115.4 270.4L113.5 272.1L111.1 272.9L109.4 273.0L109.4 273.0L109.2 273.0L107.7 272.6L106.2 271.8L106.2 271.8L106.0 271.7L106 271.7L105.9 271.6L105.9 271.6L105.9 271.6L105.8 271.6L105.8 271.6L105.8 271.6L105.7 271.5L105.7 271.5L105.7 271.5L105.6 271.5L105.6 271.5L105.5 271.5L105.5 271.4L105.4 271.4L105.4 271.4L105.3 271.4L105.3 271.4L105.2 271.3L105.2 271.3L105.1 271.3L105.1 271.3L105.1 271.3L105.0 271.3L105 271.3L104.9 271.3L104.9 271.3L104.8 271.3L104.8 271.3L104.8 271.2L104.7 271.2L104.7 271.2L104.7 271.2L104.6 271.2L104.6 271.2L104.5 271.2L104.5 271.2L104.5 271.2L104.4 271.2L104.4 271.2L104.2 271.2L104.1 271.2L104.1 271.2L104.1 271.2L104.0 271.2L104.0 271.2L104.0 271.2L103.9 271.2L103.8 271.2L103.8 271.2L103.8 271.3L103.7 271.3L103.7 271.3L103.7 271.3L103.6 271.3L103.6 271.3L103.6 271.3L103.5 271.3L103.4 271.3L103.4 271.3L103.4 271.3L103.3 271.3L103.3 271.4L103.1 271.4L103.1 271.4L103.1 271.4L103.0 271.5L103.0 271.5L102.9 271.5L102.9 271.5L102.8 271.5L100.9 272.1L100.3 272.2L99.8 272.2L97.9 271.8L96.2 271.0L96.1 270.9L96.1 270.9L96.0 270.9L96.0 270.9L96.0 270.8L95.9 270.8L95.9 270.8L95.9 270.8L95.8 270.8L95.8 270.7L95.7 270.7L95.7 270.7L95.7 270.7L95.6 270.7L95.6 270.6L95.5 270.6L95.5 270.6L95.4 270.6L95.4 270.6L95.4 270.6L95.2 270.5L95.2 270.5L95.1 270.5L95.1 270.5L95.1 270.5L95.0 270.5L95.0 270.4L95.0 270.4L94.9 270.4L94.8 270.4L94.8 270.4L94.7 270.4L94.7 270.4L94.7 270.4L94.6 270.4L94.6 270.4L94.6 270.4L94.5 270.4L94.5 270.4L94.5 270.4L94.4 270.4L94.3 270.4L94.3 270.4L94.2 270.4L93.5 270.2L92.8 270.7L92.8 270.7L90.2 271.3L89.8 271.3L87.7 270.9L87.3 270.7L87.3 271.1L86.8 273.3L86.7 273.3L86.7 273.4L86.7 273.4L86.7 273.5L86.7 273.5L86.7 273.5L86.6 273.7L86.6 273.7L86.6 273.8L86.6 273.8L86.6 273.9L86.5 273.9L86.5 274.0L86.5 274.0L86.5 274.1L86.5 274.1L86.5 274.2L86.5 274.2L86.5 274.2L86.5 274.3L86.5 274.3L86.5 274.4L86.5 274.4L86.5 274.4L86.5 274.5L86.5 274.5L86.5 274.5L86.5 274.8L86.5 274.8L86.5 274.9L86.5 274.9L86.5 274.9L86.5 275.0L86.5 275.0L86.5 275.1L86.5 275.1L86.5 275.2L86.5 275.2L86.5 275.3L86.5 275.3L86.5 275.4L86.6 275.5L86.6 275.5L86.6 275.6L86.6 275.6L86.6 275.6L86.6 275.7L86.6 275.7L86.6 275.7L86.6 275.8L86.7 275.8L86.7 275.9L86.7 275.9L86.7 275.9L86.7 276.0L86.7 276.0L86.8 276.0L86.8 276.1L86.8 276.2L86.8 276.2L86.9 276.2L86.9 276.3L86.9 276.3L86.9 276.3L87.1 276.6L87.1 276.6L87.1 276.6L87.1 276.7L87.2 276.7L88.2 278.6L88.5 280.6L88.5 280.6L88.3 282.4L87.6 284.1L86.6 285.5L84.5 287.0L82.0 287.5L79.0 286.9L78.8 286.8L78.8 286.8L78.7 286.8L78.7 286.7L78.7 286.7L78.6 286.7L78.6 286.7L78.6 286.7L78.5 286.7L78.5 286.7L78.5 286.6L78.4 286.6L78.4 286.6L78.3 286.6L78.3 286.6L78.2 286.6L78.1 286.5L78.1 286.5L78.1 286.5L77.9 286.5L77.9 286.5L77.9 286.5L77.8 286.5L77.8 286.5L77.7 286.5L77.7 286.5L77.6 286.5L77.6 286.5L77.6 286.5L77.5 286.4L77.5 286.4L77.5 286.4L77.4 286.4L77.2 286.4L77.1 286.4L77.1 286.4L77.1 286.4L77.0 286.5L77.0 286.5L76.9 286.5L76.9 286.5L76.9 286.5L76.8 286.5L76.8 286.5L76.8 286.5L76.7 286.5L76.7 286.5L74.7 286.5L74.5 286.5L74.4 287.8L73.5 289.9L69.4 296.6L69.4 296.7L69.4 296.7L69.9 298.1L69.9 298.1L70.0 300.2L71.8 300.7L71.8 300.7L71.9 300.8L72 300.8L72.0 300.8L72.0 300.8L72.1 300.8L72.1 300.8L72.3 300.9L72.3 300.9L72.4 300.9L72.4 300.9L72.4 301L72.5 301.0L72.6 301.0L72.7 301.0L72.7 301.0L72.7 301.0L72.8 301.0L72.8 301.0L72.9 301.0L72.9 301.0L73 301.0L73.0 301.0L73.1 301.0L73.1 301.0L73.2 301.0L73.2 301.0L73.3 301.0L73.3 301.0L73.4 301.0L73.4 301.0L73.5 301.0L73.5 301.0L73.6 301.0L73.6 301.0L73.7 301.0L73.8 301.0L73.8 301.0L73.8 301.0L73.9 301.0L73.9 301.0L73.9 301.0L74.0 301L74.1 300.9L74.1 300.9L74.2 300.9L74.3 300.9L74.3 300.9L76.4 300.6L76.9 300.6L78.8 301.2L80.5 302.2L81.8 303.7L82.5 305.2L82.9 306.7L82.9 307.1L82.8 308.7L82.8 308.7L81.9 310.9L80.2 312.7L80.2 312.7L80.1 312.8L80.1 312.8L80.1 312.8L80.1 312.8L80.0 312.9L80.0 312.9L79.9 313.0L79.8 313.1L79.8 313.1L79.8 313.1L79.7 313.1L79.7 313.2L79.7 313.2L79.6 313.3L79.6 313.3L79.5 313.4L79.5 313.4L79.5 313.4L79.5 313.5L79.5 313.5L79.4 313.5L79.4 313.5L79.3 313.7L79.3 313.8L79.3 313.8L79.2 313.8L79.2 313.9L79.2 313.9L79.2 314.0L79.1 314.0L79.1 314.1L79.1 314.1L79.1 314.1L79.1 314.2L79.1 314.2L79.1 314.2L79.1 314.3L79.0 314.3L79.0 314.4L79.0 314.4L79.0 314.5L79.0 314.5L79 314.6L78.9 314.7L78.9 314.7L78.9 314.8L78.9 314.8L78.9 314.9L78.0 317.2L76.5 319.0L76.5 319.0L75.4 319.7L75.3 319.7L75.3 319.7L75.3 319.8L75.3 319.8L75.1 319.9L75.1 319.9L75.0 319.9L75.0 319.9L75.0 320.0L74.9 320.0L74.9 320.0L74.9 320.0L74.9 320.1L74.8 320.1L74.7 320.1L74.7 320.2L74.7 320.2L74.7 320.2L74.6 320.2L74.6 320.3L74.6 320.3L74.5 320.4L74.5 320.4L74.5 320.4L74.4 320.5L74.4 320.5L74.4 320.5L74.3 320.6L74.3 320.6L74.3 320.6L74.3 320.7L74.2 320.7L74.2 320.7L74.2 320.8L74.2 320.8L74.2 320.8L74.1 320.9L74.1 320.9L74.1 321.0L74.0 321.0L74.0 321.0L74.0 321.1L74.0 321.1L74.0 321.1L74 321.2L73.9 321.2L73.9 321.3L73.9 321.4L73.8 321.4L73.8 321.4L73.8 321.5L73.8 321.5L73.8 321.5L73.7 321.7L73.7 321.8L73.7 321.8L73.7 321.9L73.7 321.9L73.7 322.0L73.7 322.0L73.6 322.1L73.6 322.1L73.6 322.1L73.6 322.2L73.6 322.2L73.6 322.3L73.6 322.3L73.6 322.4L73.6 322.4L73.6 322.5L73.6 322.5L73.6 322.5L73.6 322.8L73.6 322.8L73.6 322.9L73.6 322.9L73.6 323.0L73.6 323.0L73.6 323.1L73.6 323.1L73.6 323.2L73.6 323.2L73.6 323.3L73.6 323.4L73.7 323.4L73.7 323.5L73.7 323.5L73.7 323.6L73.7 323.6L73.8 323.7L73.8 323.8L73.8 323.8L73.8 323.9L73.8 323.9L73.8 324.0L73.9 324.0L73.9 324.1L73.9 324.1L74.2 325.1L74.5 326.7L74.5 326.7L74.5 327.6L73.9 329.6L73.9 329.7L73.9 329.7L73.8 329.8L73.8 329.8L73.8 329.9L73.8 329.9L73.8 330.1L73.7 330.1L73.7 330.1L73.7 330.2L73.7 330.2L73.7 330.3L73.7 330.3L73.7 330.4L73.7 330.4L73.7 330.5L73.7 330.5L73.6 330.5L73.6 330.6L73.6 330.6L73.6 330.7L73.6 330.7L73.6 330.8L73.6 330.8L73.6 330.8L73.6 330.9L73.6 330.9L73.6 331L73.6 331.1L73.6 331.2L73.6 331.2L73.6 331.2L73.6 331.3L73.6 331.3L73.6 331.4L73.6 331.4L73.6 331.4L73.6 331.5L73.6 331.5L73.7 331.6L73.7 331.6L73.7 331.6L73.7 331.7L73.7 331.8L73.7 331.8L73.7 331.9L73.7 331.9L73.9 332.5L73.8 335.1L73.1 336.9L71.9 338.4L70.3 339.6L68.0 340.3L67.2 340.3L67.1 340.3L67.0 340.3L67.0 340.3L67 340.3L66.9 340.3L66.9 340.3L66.8 340.4L66.8 340.4L66.7 340.4L66.7 340.4L66.7 340.4L66.6 340.4L66.6 340.4L66.5 340.4L66.4 340.4L66.4 340.4L66.4 340.4L66.3 340.4L66.3 340.5L66.3 340.5L66.2 340.5L66.1 340.5L66.1 340.5L66.0 340.5L66.0 340.6L66 340.6L65.9 340.6L65.9 340.6L65.8 340.6L65.8 340.6L65.7 340.7L65.7 340.7L65.7 340.7L65.6 340.7L65.6 340.7L65.6 340.7L65.6 340.8L65.5 340.8L65.3 340.9L65.3 340.9L65.2 341.0L65.2 341.0L65.2 341.0L65.2 341.0L65.1 341.1L65.1 341.1L64.9 341.2L64.9 341.2L64.8 341.3L63.3 342.4L63.2 342.5L63.1 342.5L63.1 342.5L63.1 342.5L63.0 342.5L62.9 342.6L62.8 342.7L62.8 342.7L62.8 342.7L62.7 342.7L62.7 342.7L62.7 342.8L62.6 342.8L62.6 342.8L62.5 343.0L62.4 343.0L62.4 343.0L62.4 343.0L62.4 343.1L62.3 343.1L62.3 343.1L62.3 343.2L62.2 343.2L62.2 343.3L62.1 343.3L62.1 343.3L62.1 343.4L62.1 343.4L62.0 343.4L62.0 343.5L60.4 345.0L58.7 345.9L56.6 346.2L56.6 346.2L56.2 346.2L53.9 345.6L53.8 345.6L53.8 345.6L53.7 345.6L53.7 345.6L53.6 345.5L53.6 345.5L53.6 345.5L53.5 345.5L53.5 345.5L53.5 345.5L53.4 345.5L53.4 345.4L53.3 345.4L53.3 345.4L53.3 345.4L53.2 345.4L53.2 345.4L53.1 345.4L53.0 345.4L53.0 345.4L52.9 345.4L52.9 345.3L52.8 345.3L52.8 345.3L52.8 345.3L52.7 345.3L52.7 345.3L52.6 345.3L52.6 345.3L52.6 345.3L52.5 345.3L52.4 345.3L52.3 345.3L52.3 345.3L52.2 345.3L52.2 345.3L52.2 345.3L52.1 345.3L52.1 345.3L52.1 345.3L52.0 345.3L52 345.3L51.9 345.4L51.9 345.4L51.8 345.4L51.7 345.4L51.7 345.4L51.6 345.4L51.6 345.4L50.1 345.6L49.7 345.6L48.8 345.6L47.1 345.1L47.1 345.0L47.0 345.0L47.0 345.0L47.0 345.0L46.9 345.0L46.9 345.0L46.9 345.0L46.7 344.9L46.7 344.9L46.7 344.9L46.6 344.9L46.6 344.9L46.6 344.9L46.5 344.8L46.4 344.8L46.3 344.8L46.3 344.8L46.2 344.8L46.2 344.8L46.2 344.8L46.1 344.8L46.1 344.8L46.0 344.8L46.0 344.8L45.9 344.8L45.9 344.8L45.9 344.8L45.8 344.8L45.6 344.8L45.6 344.8L45.5 344.8L45.5 344.8L45.5 344.8L45.4 344.8L45.3 344.8L45.3 344.8L45.3 344.8L45.2 344.8L45.2 344.8L45.2 344.8L45.1 344.8L45.1 344.8L45.0 344.8L45.0 344.8L44.9 344.8L44.9 344.9L44.8 344.9L43.4 345.1L42.7 345.1L42.7 345.1L41.1 344.8L41.0 344.7L41.0 344.7L41.0 344.7L40.9 344.7L40.9 344.7L40.9 344.7L40.7 344.6L40.6 344.6L40.6 344.6L40.6 344.6L40.5 344.6L40.4 344.6L40.4 344.6L40.4 344.6L40.3 344.6L40.3 344.6L41.1 344.0L43.5 343.7L43.7 343.0L42.3 342.6L39.5 343.3L32.3 342.7L28.9 343.0L28.1 342.0L28.7 340.2L30.1 339.8L32.0 338.1L34.5 337.2L36.3 338.5L38.7 337.0L39.8 338.8L41.0 339.4L44.6 339.1L42.7 337.6L43.1 334.8L41.8 332.8L47.6 331.0L47.9 328.8L49.1 327.8L56.6 328.1L65.6 326.0L71.8 326.2L65.2 324.6L64.9 321.5L63.5 322.4L61.2 325.6L59.4 326.7L56.8 327.3L56.4 326.3L53.5 326.4 Z M 36.1 346.7L35.7 347.0L33.4 347.6L33.4 347.6L33.1 347.6 Z M 113.0 311.0L113.7 308.1L114.3 307.0L114.3 307.0L116.1 305.4L118.3 304.4L118.4 304.4L118.5 304.4L118.5 304.4L118.6 304.4L118.7 304.3L118.7 304.3L118.8 304.3L118.8 304.3L118.8 304.3L118.9 304.3L118.9 304.3L118.9 304.3L119.0 304.2L119.0 304.2L119.1 304.2L119.1 304.2L119.2 304.1L119.2 304.1L119.2 304.1L119.3 304.1L119.3 304.1L119.3 304.1L119.5 303.9L119.6 303.9L119.6 303.9L119.6 303.9L119.7 303.8L119.7 303.8L119.7 303.8L119.8 303.8L119.8 303.7L119.9 303.7L119.9 303.6L119.9 303.6L120 303.6L120.1 303.4L120.1 303.4L120.2 303.4L120.2 303.4L120.2 303.3L120.3 303.3L120.3 303.2L120.3 303.2L120.3 303.2L120.4 303.1L120.4 303.1L120.4 303.1L120.5 303.0L120.5 303.0L120.6 302.8L120.6 302.8L120.6 302.8L120.6 302.7L120.6 302.7L120.6 302.7L120.7 302.6L120.7 302.6L120.7 302.5L120.7 302.5L120.8 302.4L120.8 302.4L120.8 302.3L122.0 300.4L123.7 299.0L125.9 298.2L127.0 298.1L128.5 298.3L130.7 299.3L130.4 300.3L129.7 300.9L131.3 304.0L129.2 304.4L128.6 305.2L130.4 308.3L131.5 314.1L131.7 320.1L128.2 327.8L126.5 328.3L125.4 328.3L123.4 328.0L121.6 327.0L120.2 325.6L119.3 323.8L118.9 321.2L118.9 321.2L119.0 320.7L119.0 320.6L119.0 320.6L119.0 320.6L119.0 320.5L119.0 320.5L119.0 320.4L119.0 320.4L119.0 320.4L119.0 320.3L119.0 320.3L119.0 320.2L119.0 320.1L119.0 320.1L119.0 320.0L119.0 320.0L119.0 320.0L119.0 319.9L119.0 319.9L119.0 319.9L119.0 319.8L119.0 319.8L119.0 319.7L119.0 319.7L119.0 319.7L118.9 319.6L118.9 319.6L118.9 319.6L118.9 319.5L118.9 319.4L118.9 319.4L118.9 319.3L118.9 319.3L118.9 319.3L118.8 319.0L118.7 318.9L118.7 318.9L118.7 318.8L118.7 318.8L118.7 318.7L118.6 318.7L118.6 318.6L118.6 318.6L118.6 318.6L118.6 318.5L118.4 318.3L118.4 318.3L118.4 318.2L118.3 318.2L118.3 318.2L118.3 318.2L118.3 318.1L118.3 318.1L118.2 318.1L118.2 318.0L118.2 318.0L118.1 318.0L118.1 317.9L118.0 317.8L118.0 317.8L118.0 317.8L118.0 317.8L117.9 317.7L117.9 317.7L117.9 317.7L117.8 317.6L117.8 317.6L117.7 317.6L117.7 317.5L117.6 317.5L117.6 317.5L117.6 317.5L117.6 317.4L117.5 317.4L117.3 317.3L117.3 317.3L117.2 317.2L117.2 317.2L117.1 317.2L117.1 317.2L117.1 317.2L117.0 317.1L117.0 317.1L115.1 315.8L113.7 314.0L113.1 311.8 Z M 125.9 278.6L126.4 275.9L127.5 274.1L129.0 272.7L130.9 271.9L133.0 271.6L133.5 271.7L133.5 271.7L134.0 271.8L136.1 272.6L137.7 274.0L136.8 276.8L134.4 279.1L132.8 279.4L127.7 275.2L131.5 280.3L131.3 280.9L130.4 281.3L126.6 280.2L126.5 280.9L126.3 280.5L125.9 278.6 Z M 116.8 347.8L117.1 346.0L118.3 344.0L119.8 342.7L120.4 342.4L122.7 345.9L122.6 347.7L121.6 348.4L117.3 348.1 Z M 110.2 329.9L111.0 332.3L111.0 332.3L111.1 333.3L110.9 335.1L110.2 336.7L109.2 338.1L107.8 339.1L107.8 339.1L106.0 339.9L104.1 340.0L102.1 339.7L100.4 338.7L99.0 337.3L98.0 335.5L97.7 333.6L97.7 333.6L97.8 332.2L97.9 331.5L98.9 329.4L100.7 327.7L102.4 326.9L104.4 326.6L106.7 327.0L108.7 328.2L110.2 329.9 Z M 95.9 234.1L95.9 234.7L95.3 236.8L94.1 238.7L92.4 240.0L90.4 240.7L88.3 240.8L86.4 240.2L85.1 239.4L86.8 238.0L87.9 234.9L88.8 234.5L91.1 234.9L94.6 232.8 Z M 88.0 246.1L87.9 248.5L87.2 250.2L86.1 251.7L84.3 253.0L82.3 253.6L82.0 253.6L80.9 253.6L79.7 253.4L79.1 253.2L77.4 252.5L76.0 251.0L75.8 250.5L77.1 248.9L78.7 248.0L82.5 248.3L82.2 247.8L83.0 247.8L81.9 246.1L82.3 245.6L86.6 245.4L85.7 245.0L85.7 243.9L84.1 242.5L84.7 241.6L84.7 241.2L86.1 242.3L87.4 244.1 Z M 70.5 362.5L70.1 362.1L69.0 360.3L68.6 358.2L68.6 358.2L68.9 355.9L69.8 354.2L71.1 352.7L72.7 351.7L75.1 351.2L77.0 351.4L78.8 352.2L80.3 353.4L81.4 355.0L82.0 356.9L82.0 356.9L82.1 357.9L81.8 359.4L81.7 359.5L78.5 359.5L78.1 358.9L78.6 357.6L76.9 357.1L76.6 355.6L74.7 355.6L76.6 359.0L75.9 361.5L72.8 363.0 Z M 52.2 261.7L52.5 262.4L52.6 263.1L52.4 262.9L52.3 262.9L52.6 263.2L52.8 264.4L52.8 264.4L52.5 265.9L52.5 265.9L52.3 266.4L52.5 267.0L52.5 267.0L52.5 267.2L52.5 267.6L52.5 268.0L52.0 269.9L51.1 271.7L49.6 273.1L49.4 273.2L49.2 272.5L50.1 269.9L48.5 270.7L47.8 270.3L48.5 268.7L48.1 265.9L47.0 265.9L45.0 269.2L44.6 269.1L46.1 263.4L47.0 262.7L47.9 262.7L49.3 264.0L48.5 265.1L49.5 265.2L51.1 263.9L52.5 263.9L51.5 262.0 Z M 47.6 274.0L45.9 274.3L45.9 274.3L43.5 273.9L42.3 273.2L42.9 272.8L46.5 272.7L47.3 273.4 Z M 36.2 362.7L35.3 361.1L35.1 360.3L35.1 360.3L37.1 359.3L38.0 358.1L41.2 356.9L43.3 355.3L46.4 354.0L46.9 354.6L47.9 356.4L48.2 358.5L48.2 358.5L48.1 359.4L47.8 359.2L45.4 360.5L39.9 361.3 Z M 35.2 356.7L35.4 355.7L35.4 355.7L36.4 354.1L37.9 352.9L39.6 352.1L41.5 351.8L41.5 351.8L43.6 352.1L45.4 353.1L46.3 354.0 Z M 47.3 361.8L47.1 362.2L45.4 364L45.0 364.2L41.1 365.2L40.7 364.9 Z M 47.3 361.8 "/>
<path style=" stroke:none;fill-rule:nonzero;fill:rgb(77.6%,78.8%,62.3%);fill-opacity:1;" d="M 40.8 362.3L39.3 362.6L38.8 362.1L39.3 361.7L41.0 361.9 Z M 40.8 362.3 "/>
<path style=" stroke:none;fill-rule:nonzero;fill:rgb(77.6%,78.8%,62.3%);fill-opacity:1;" d="M 43.0 283.9L43.0 284.5L42.3 284.5 Z M 43.0 283.9 "/>
<path style=" stroke:none;fill-rule:nonzero;fill:rgb(77.6%,78.8%,62.3%);fill-opacity:1;" d="M 81.8 240.3L82.3 240.3L82.7 240.4L81.8 240.4 Z M 81.8 240.3 "/>
<path style=" stroke:none;fill-rule:nonzero;fill:rgb(77.6%,78.8%,62.3%);fill-opacity:1;" d="M 26.5 343.1L26.5 342.9L27.0 342.9 Z M 26.5 343.1 "/>
<path style=" stroke:none;fill-rule:nonzero;fill:rgb(77.6%,78.8%,62.3%);fill-opacity:1;" d="M 40.8 287.2L40.8 287.2L40.8 287.2 Z M 40.8 287.2 "/>
















</g>
</svg>
