<?xml version="1.0" encoding="UTF-8"?>
<svg xmlns="http://www.w3.org/2000/svg" xmlns:xlink="http://www.w3.org/1999/xlink" width="378pt" height="504pt" viewBox="0 0 378 504" version="1.1">
<g id="data">
<rect x="0" y="0" width="378" height="504" style="fill:rgb(100%,100%,100%);fill-opacity:1;stroke:none;"/>
<path style=" stroke:none;fill-rule:nonzero;fill:rgb(100%,100%,100%);fill-opacity:1;" d="M 21 504L357 504L357 0L21 0 Z M 21 504 "/>
<path style=" stroke:none;fill-rule:nonzero;fill:rgb(77.6%,78.8%,62.3%);fill-opacity:1;" d="M 296.0 330.6L294.1 329.6L292.7 328.1L291.8 326.3L291.4 324.2L291.4 323.7L291.8 321.9L292.1 321.4L296.7 321.9L305.5 327.6L307.8 332.9L307.8 336.9L307.7 337.0L305.8 337.6L304.9 337.6L303.1 337.4L301.1 336.5L301.1 336.5L299.6 335.1L298.9 333.9L298.5 332.9L298.4 332.8L298.4 332.7L298.4 332.7L298.4 332.6L298.3 332.6L298.3 332.6L298.3 332.5L298.3 332.5L298.3 332.5L298.3 332.4L298.2 332.4L298.2 332.3L298.2 332.3L298.2 332.2L298.2 332.2L298.1 332.2L298.1 332.1L298.1 332.1L298.1 332.0L298.0 332.0L298.0 332.0L298.0 332L298.0 331.9L298.0 331.9L297.9 331.9L297.9 331.8L297.9 331.8L297.9 331.8L297.9 331.7L297.8 331.7L297.8 331.6L297.7 331.6L297.2 330.8L296.0 330.6 Z M 302.2 388.0L301.2 388.0L301.2 388.0L299.0 387.6L297.3 386.6L296.0 385.1L295.1 383.3L294.8 381.4L294.8 381.4L294.9 380.7L301.7 379.3L302.8 381.4 Z M 300.9 351.1L303.8 351.5L305.3 352.3L305.0 353.4L299.5 359.2L298.1 357.0L295.4 355.8L298.8 361.1L297.6 363.2L297.4 363.1L295.9 361.5L295.2 360.0L294.8 358.4L294.8 358.2L294.9 356.8L295.6 354.7L296.9 352.9L298.8 351.7 Z M 274.9 376.3L274.7 375.7L274.7 375.7L274.6 374.4L274.6 374.4L275.1 372.2L276.2 370.2L277.9 368.8L280.0 368.0L280.0 368.0L281.3 367.9L281.5 367.9L283.2 368.1L285.2 369.1L286.7 370.6L287.7 372.5L288.0 374.4L287.6 374.8L284.3 374.5L280.1 375.9L278.2 377.9L281.7 376.4L285.5 376.9L286.1 378.1L284.2 378.1L282.4 379.3L282.9 380.0L287.3 380.9L286.8 381.9L286.8 381.9L285.1 383.5L282.9 384.5L280.5 384.6L279.9 384.5L279.9 384.5L278.2 383.9L278.2 383.9L276.3 382.4L275.1 380.4L274.6 378.1L274.6 378.0L274.7 376.8L274.7 376.8 Z M 288.0 378.1L287.9 379.6L287.5 380.4L287.3 380.4L286.8 377.9 Z M 261.2 398.3L261.5 396.2L262.4 394.3L263.9 392.7L265.7 391.7L267.8 391.4L267.9 391.4L270.1 391.8L272.1 392.9L273.4 394.2L274.3 395.9L274.6 397.8L274.4 400.0L274.0 401.0L274.0 401.0L272.9 402.7L271.7 403.6L263.9 401.7L262.4 401.9L261.6 400.4L261.2 398.3 Z M 205.5 377.1L207.5 375.4L210.0 374.6L211.9 374.7L211.9 374.7L214.1 375.5L215.9 377.0L217.1 379.0L217.5 381.3L217.5 382.0L217.5 382.0L217.0 383.8L216.0 385.6L214.4 387.0L212.6 387.8L210.7 388.0L210.1 388.0L208.2 387.5L206.6 386.6L205.3 385.2L204.4 383.5L204.1 381.6L204.1 381.3L204.4 379.1 Z M 205.5 377.1 "/>
















</g>
</svg>
