<?xml version="1.0" encoding="UTF-8"?>
<svg xmlns="http://www.w3.org/2000/svg" xmlns:xlink="http://www.w3.org/1999/xlink" width="378pt" height="504pt" viewBox="0 0 378 504" version="1.1">
<g id="data">
<rect x="0" y="0" width="378" height="504" style="fill:rgb(100%,100%,100%);fill-opacity:1;stroke:none;"/>
<path style=" stroke:none;fill-rule:nonzero;fill:rgb(100%,100%,100%);fill-opacity:1;" d="M 21 504L357 504L357 0L21 0 Z M 21 504 "/>
<path style=" stroke:none;fill-rule:nonzero;fill:rgb(77.6%,78.8%,62.3%);fill-opacity:1;" d="M 271.6 377.9L269.5 377.7L267.5 376.8L266.0 375.4L264.9 373.5L264.6 371.4L264.5 371.2L264.5 371.2L264.9 369.0L266.0 367.1L267.7 365.6L269.7 364.7L269.7 364.7L271.2 364.5L271.2 364.5L271.7 364.5L271.7 364.5L273.5 364.9L273.5 364.9L274.1 365.2L274.8 365.1L274.9 365.1L274.9 365.1L275.0 365.1L275.0 365.1L275.1 365.1L275.1 365.1L275.1 365.1L275.2 365.0L275.2 365.0L275.2 365.0L275.3 365.0L275.3 365.0L275.3 365.0L275.5 365.0L275.5 365.0L275.5 365.0L275.6 365.0L275.6 365.0L275.8 364.9L275.9 364.9L275.9 364.8L276.0 364.8L276.0 364.8L276.1 364.8L276.1 364.8L276.1 364.7L276.2 364.7L276.2 364.7L276.2 364.7L276.3 364.7L276.3 364.6L276.3 364.6L276.4 364.6L276.5 364.6L276.5 364.5L276.5 364.5L276.6 364.5L276.6 364.5L276.6 364.5L276.6 364.4L276.7 364.4L276.7 364.4L276.8 364.3L276.8 364.3L276.9 364.2L276.9 364.2L276.9 364.2L277.0 364.2L277.0 364.1L277.0 364.1L277.0 364.1L277.1 364.1L277.1 364.0L277.1 364.0L277.1 364.0L277.2 364.0L277.2 363.9L277.2 363.9L277.3 363.8L277.3 363.8L277.3 363.8L277.4 363.7L277.4 363.7L277.4 363.6L277.6 363.4L277.6 363.4L277.6 363.3L277.6 363.3L277.6 363.3L277.7 363.2L277.7 363.2L277.7 363.1L277.7 363.1L277.7 363.1L277.7 363.0L277.8 363.0L277.8 363L277.8 362.9L277.9 362.7L277.9 362.6L277.9 362.6L277.9 362.6L277.9 362.5L277.9 362.5L277.9 362.5L277.9 362.4L277.9 362.3L278.0 362.3L278.0 362.3L278.0 362.2L278.0 362.2L278.0 362.2L278.0 362.1L278.0 362.1L278.0 362.0L278.0 362.0L278.0 361.9L278.0 361.9L278.0 361.9L278.0 361.8L278.0 361.6L278.0 361.6L278.0 361.5L278.0 361.2L278.0 361.1L278.4 358.9L278.4 358.7L278.4 358.7L278.5 358.7L278.5 358.6L278.5 358.6L278.5 358.5L278.5 358.4L278.5 358.4L278.5 358.3L278.5 358.3L278.5 358.3L278.5 358.2L278.5 358.2L278.5 358.2L278.6 358.1L278.6 358.0L278.6 358.0L278.6 358.0L278.6 357.9L278.6 357.9L278.6 357.6L278.6 357.6L278.6 357.5L278.5 357.5L278.5 357.4L278.5 357.4L278.5 357.3L278.5 357.3L278.5 357.3L278.5 357.2L278.5 357.2L278.5 357.1L278.5 357.1L278.5 357.0L278.5 357.0L278.5 356.9L278.4 356.9L278.4 356.8L278.4 356.8L278.4 356.8L278.4 356.6L278.1 355.8L278.0 354.4L278.1 353.3L278.1 353.3L278.1 353.2L278.1 353.2L278.1 353.1L278.1 353.1L278.1 353.0L278.1 353.0L278.1 353L278.1 352.9L278.1 352.9L278.1 352.8L278.1 352.7L278.1 352.6L278.1 352.6L278.1 352.6L278.1 352.5L278.1 352.4L278.1 352.3L278.1 352.3L278.1 352.2L278.1 352.2L278.0 351.8L278.0 351.0L278.4 348.9L278.4 348.7L278.4 348.6L278.5 348.6L278.5 348.5L278.5 348.5L278.5 348.4L278.5 348.4L278.5 348.4L278.5 348.3L278.5 348.3L278.5 348.3L278.5 348.2L278.5 348.2L278.5 348.1L278.5 348.1L278.5 348.0L278.6 348.0L278.6 348.0L278.6 347.9L278.6 347.9L278.6 347.9L278.6 347.8L278.6 347.6L278.6 347.6L278.6 347.5L278.6 347.5L278.6 347.5L278.6 347.4L278.5 347.4L278.5 347.3L278.5 347.3L278.5 347.2L278.5 347.2L278.5 347.2L278.5 347.1L278.5 347.1L278.5 347.1L278.5 347.0L278.5 347.0L278.5 346.9L278.5 346.9L278.5 346.8L278.4 346.8L278.4 346.8L278.4 346.6L278.0 344.7L278.0 344.7L278.0 344.6L278.1 342.9L278.7 341.3L278.7 341.3L279.5 340.1L280.9 338.8L282.6 338.0L284.6 337.6L285.1 337.6L287.3 338.1L289.2 339.3L289.2 339.4L289.3 339.4L289.3 339.5L289.4 339.5L289.4 339.5L289.5 339.5L289.5 339.6L289.5 339.6L289.5 339.6L289.6 339.6L289.7 339.7L289.7 339.7L289.8 339.8L289.8 339.8L289.9 339.8L289.9 339.8L289.9 339.8L290.0 339.9L290.0 339.9L290.0 339.9L290.1 339.9L290.1 339.9L290.2 339.9L290.2 340.0L290.2 340.0L290.3 340.0L290.4 340.0L290.4 340.0L290.4 340.0L290.5 340.1L290.6 340.1L290.6 340.1L290.7 340.1L290.7 340.1L290.8 340.1L290.8 340.1L290.9 340.1L290.9 340.2L291 340.2L291.0 340.2L291.1 340.2L291.2 340.2L291.2 340.2L291.2 340.2L291.3 340.2L291.6 340.2L291.6 340.2L291.7 340.2L291.7 340.2L291.7 340.2L291.8 340.2L291.8 340.2L291.8 340.2L291.9 340.2L291.9 340.2L291.9 340.2L292.0 340.1L292.0 340.1L292.1 340.1L292.2 340.1L292.2 340.1L292.3 340.1L292.3 340.1L292.3 340.1L292.4 340.0L292.5 340.0L292.5 340.0L292.6 340.0L292.6 340.0L292.7 340.0L292.7 339.9L292.7 339.9L292.8 339.9L292.8 339.9L292.8 339.9L292.9 339.9L292.9 339.8L293.0 339.8L293.0 339.8L293.0 339.8L293.1 339.8L293.3 339.7L293.3 339.6L293.3 339.6L293.3 339.6L293.4 339.6L293.4 339.5L293.4 339.5L293.5 339.5L293.5 339.5L293.5 339.5L293.6 339.4L293.6 339.4L293.6 339.4L293.7 339.3L293.8 339.2L293.9 339.2L294.0 339.1L294.0 339.1L294.0 339.0L294.1 338.9L294.1 338.9L294.2 338.9L294.2 338.8L294.2 338.8L294.3 338.8L294.3 338.7L294.3 338.7L294.4 338.7L294.4 338.6L294.4 338.6L294.4 338.6L294.5 338.5L294.5 338.5L294.5 338.5L294.5 338.4L294.6 338.3L294.6 338.3L294.6 338.2L294.7 338.2L294.7 338.2L294.7 338.1L294.7 338.1L294.7 338.0L294.8 338.0L294.8 338.0L294.8 337.9L294.8 337.9L294.8 337.9L294.8 337.8L294.8 337.8L294.9 337.8L294.9 337.7L294.9 337.6L294.9 337.6L294.9 337.5L294.9 337.5L295.0 337.4L295.0 337.3L295.0 337.2L295.0 337.2L295.0 337.1L295.0 337.1L295.0 337.1L295.0 337.0L295.0 337.0L295.0 336.9L295.0 336.9L295.1 336.8L295.1 336.8L295.1 336.8L295.1 336.7L295.1 336.5L295.1 336.4L295.1 336.4L295.1 336.4L295.1 336.3L295.0 336.3L295.0 336.3L295.0 336.2L295.0 336.1L295.0 336.1L295.0 336.0L295.0 336.0L295.0 336.0L295.0 335.9L295.0 335.8L294.8 334.9L294.9 333.2L294.9 333.1L294.9 333.1L294.9 333.0L294.9 332.9L294.9 332.8L294.9 332.8L294.9 332.7L294.9 332.7L294.9 332.6L294.9 332.5L294.9 332.4L294.9 332.4L294.9 332.4L294.9 332.3L294.9 332.3L294.9 332.2L294.9 332.0L294.9 332.0L294.8 330.3L295.0 329.4L295.0 329.4L295.8 327.3L296.0 327.2L295.8 327.1L293.8 326.0L293.8 326.0L292.6 324.7L291.8 323.1L291.8 323.1L291.5 321.3L296.7 321.9L305.5 327.6L307.8 332.9L307.9 341.4L305.0 353.4L299.5 359.2L298.1 357.0L295.4 355.8L298.8 361.1L297.2 363.8L293.3 365.4L291.7 363.4L285.2 367.6L286.6 368.6L290.6 366.7L291.2 371.6L287.6 374.8L284.3 374.5L280.1 375.9L278.2 377.9L281.7 376.4L285.5 376.9L286.1 378.1L284.2 378.1L282.4 379.3L282.9 380.0L290.6 381.6L301.7 379.3L302.8 381.4L302.4 386.5L301.4 387.2L299.7 387.8L297.9 388.0L297.9 388.0L297.0 387.9L297.0 387.9L296.9 387.9L296.8 387.9L296.7 387.9L296.7 387.9L296.6 387.9L296.6 387.9L296.3 387.9L296.3 387.9L296.3 387.9L296.2 387.9L296.2 387.9L296.2 387.9L296.1 387.9L296.1 387.9L296.1 387.9L296.0 387.9L296.0 387.9L295.9 387.9L295.9 387.9L293.4 387.9L291.2 387.0L289.5 385.4L289.5 385.4L289.1 385.0L289.1 384.9L289.1 384.9L289.1 384.8L289.0 384.8L289.0 384.8L289.0 384.8L289.0 384.7L289.0 384.7L288.9 384.7L288.8 384.5L288.7 384.4L288.5 384.1L288.1 383.9L288.0 383.8L287.9 383.8L287.9 383.8L287.8 383.7L287.8 383.7L287.8 383.7L287.7 383.7L287.7 383.7L287.7 383.7L287.6 383.7L287.6 383.6L287.6 383.6L287.5 383.6L287.5 383.6L287.5 383.6L287.2 383.5L287.2 383.5L287.2 383.5L287.1 383.5L287.1 383.5L287.0 383.5L286.9 383.4L286.9 383.4L286.8 383.4L286.8 383.4L286.8 383.4L286.7 383.4L286.7 383.4L286.6 383.4L286.6 383.4L286.5 383.4L286.5 383.4L286.4 383.4L286.4 383.4L286.3 383.4L286.2 383.4L286.2 383.4L286.1 383.4L286.1 383.4L286.0 383.4L286.0 383.4L286.0 383.4L285.9 383.4L285.9 383.4L285.9 383.4L285.8 383.4L285.8 383.4L285.8 383.4L285.7 383.4L285.7 383.4L285.6 383.4L285.6 383.4L285.6 383.5L285.5 383.5L285.4 383.5L285.4 383.5L285.4 383.5L285.1 383.6L285.1 383.6L285.0 383.6L285.0 383.6L285.0 383.6L284.9 383.7L284.9 383.7L284.9 383.7L284.8 383.7L284.8 383.7L284.8 383.7L284.7 383.8L284.7 383.8L284.7 383.8L284.6 383.8L283.0 384.5L281.4 384.7L281.3 384.7L280.1 384.6L280.1 384.6L278.9 384.2L278.9 384.2L277.3 383.3L275.9 381.9L275.0 380.2L275.0 380.1L275.0 380.1L275.0 380.0L274.9 380.0L274.9 379.9L274.9 379.9L274.9 379.9L274.9 379.8L274.9 379.8L274.8 379.8L274.8 379.7L274.8 379.7L274.8 379.7L274.8 379.6L274.7 379.6L274.6 379.4L274.6 379.4L274.6 379.4L274.6 379.3L274.5 379.3L274.5 379.3L274.5 379.2L274.5 379.2L274.4 379.2L274.4 379.1L274.4 379.1L274.3 379.0L274.3 379.0L274.3 379.0L274.2 378.9L274.2 378.9L274.2 378.9L274.2 378.9L274.1 378.8L274.1 378.8L274.0 378.8L274.0 378.7L273.9 378.7L273.9 378.6L273.9 378.6L273.8 378.6L273.8 378.6L273.8 378.6L273.8 378.5L273.7 378.5L273.7 378.5L273.5 378.4L273.5 378.4L273.5 378.4L273.4 378.3L273.4 378.3L273.4 378.3L273.3 378.3L273.3 378.3L273.3 378.3L273.2 378.2L273.2 378.2L273.1 378.2L273.1 378.2L273.1 378.2L273.0 378.2L272.9 378.1L272.3 377.8L271.6 377.9 Z M 291.5 380.3L290.4 381.0L287.3 380.4L286.8 377.9L290.5 378.7 Z M 291.5 380.3 "/>
















</g>
</svg>
