<?xml version="1.0" encoding="UTF-8"?>
<svg xmlns="http://www.w3.org/2000/svg" xmlns:xlink="http://www.w3.org/1999/xlink" width="378pt" height="504pt" viewBox="0 0 378 504" version="1.1">
<g id="data">
<rect x="0" y="0" width="378" height="504" style="fill:rgb(100%,100%,100%);fill-opacity:1;stroke:none;"/>
<path style=" stroke:none;fill-rule:nonzero;fill:rgb(100%,100%,100%);fill-opacity:1;" d="M 21 504L357 504L357 0L21 0 Z M 21 504 "/>
<path style=" stroke:none;fill-rule:nonzero;fill:#C2B855;fill-opacity:1;" d="M 264.6 369.0L264.6 368.5L264.6 368.5L264.5 367.9L264.5 367.9L264.6 367.2L265.1 365.3L266.0 363.6L267.5 362.3L269.2 361.5L271.1 361.1L271.1 361.1L273.0 361.4L274.7 362.1L276.1 363.2L276.2 363.3L276.2 363.3L276.3 363.4L276.3 363.4L276.3 363.4L276.3 363.4L276.4 363.5L276.4 363.5L276.5 363.6L276.5 363.6L276.6 363.6L276.6 363.6L276.6 363.7L276.6 363.7L276.7 363.7L276.7 363.7L276.8 363.8L276.8 363.8L276.8 363.8L276.9 363.8L276.9 363.9L276.9 363.9L277.0 363.9L277.0 363.9L277.0 363.9L277.1 363.9L277.1 364.0L277.1 364.0L277.2 364.0L277.2 364.0L277.3 364.0L277.3 364.1L277.4 364.1L277.4 364.1L277.5 364.1L277.5 364.1L277.6 364.2L277.7 364.2L277.7 364.2L277.8 364.2L277.8 364.2L277.9 364.2L277.9 364.3L278.0 364.3L278.0 364.3L278.0 364.3L278.1 364.3L278.1 364.3L278.1 364.3L278.2 364.3L278.2 364.3L278.3 364.3L278.3 364.3L278.3 364.3L278.4 364.3L278.4 364.3L278.5 364.3L278.6 364.3L278.7 364.3L278.8 364.3L278.8 364.3L278.8 364.3L278.9 364.3L278.9 364.3L279.0 364.3L279.0 364.3L279.1 364.3L279.1 364.3L279.1 364.3L279.2 364.3L279.2 364.3L279.3 364.3L279.4 364.3L279.5 364.2L279.5 364.2L279.5 364.2L279.6 364.2L279.6 364.2L279.7 364.2L279.8 364.1L279.8 364.1L279.9 364.1L279.9 364.1L279.9 364.1L280.0 364.1L280.0 364.0L280.0 364.0L280.1 364.0L280.1 364.0L280.1 364.0L280.2 364.0L280.2 364L280.2 363.9L280.3 363.9L280.3 363.9L280.3 363.9L280.4 363.8L280.5 363.8L280.5 363.8L280.5 363.8L280.5 363.7L280.6 363.7L280.6 363.7L280.6 363.7L280.7 363.7L280.7 363.6L280.7 363.6L280.8 363.6L280.8 363.5L280.9 363.5L280.9 363.4L281.0 363.4L281.0 363.4L281.0 363.3L281.0 363.3L281.1 363.3L281.1 363.3L281.1 363.2L281.2 363.1L281.2 363.1L281.3 363.1L281.3 363.0L281.3 363.0L281.3 363.0L281.4 362.9L281.4 362.9L281.4 362.8L281.5 362.8L281.5 362.7L281.5 362.7L281.6 362.6L281.6 362.6L281.6 362.6L281.6 362.5L281.6 362.5L281.7 362.4L281.7 362.4L281.7 362.3L281.7 362.3L281.7 362.3L281.7 362.2L281.8 362.2L281.8 362.1L282.5 360.7L283.6 359.5L283.6 359.5L283.7 359.4L283.8 359.3L283.8 359.3L283.9 359.2L283.9 359.2L283.9 359.1L284.0 359.1L284.0 359.0L284.1 359.0L284.1 359.0L284.1 358.9L284.1 358.9L284.1 358.9L284.2 358.8L284.3 358.6L284.3 358.6L284.3 358.6L284.4 358.5L284.4 358.5L284.4 358.5L284.4 358.4L284.4 358.4L284.4 358.4L284.5 358.3L284.5 358.3L284.5 358.3L284.5 358.2L284.5 358.2L284.5 358.2L284.5 358.1L284.5 358.1L284.6 358.1L284.6 358.0L284.6 358.0L284.6 357.9L284.6 357.9L284.6 357.8L284.6 357.7L284.7 357.7L284.7 357.7L284.7 357.6L284.7 357.6L284.7 357.5L284.7 357.5L284.7 357.5L284.7 357.4L284.7 357.4L284.7 357.3L284.7 357.3L284.7 357.2L285.6 354.5L285.6 354.5L285.6 354.4L285.7 354.3L285.7 354.3L285.7 354.2L285.7 354.2L285.7 354.2L285.7 354.1L285.8 354.1L285.8 354.1L285.8 354.0L285.8 354.0L285.8 353.9L285.9 353.8L285.9 353.7L286.7 352.0L285.3 350.8L285.2 350.7L285.2 350.7L285.2 350.7L285.2 350.6L285.1 350.6L285.1 350.5L285.1 350.5L284.9 350.4L284.8 350.3L284.8 350.2L284.7 350.2L284.7 350.2L284.7 350.2L284.6 350.1L284.6 350.1L284.6 350.1L284.5 350.1L284.5 350.0L284.4 350.0L282.3 347.9L282.3 347.8L282.3 347.8L282.3 347.8L282.2 347.7L282.2 347.7L282.2 347.6L282.2 347.6L282.1 347.6L282.1 347.5L282.0 347.4L282.0 347.4L281.9 347.3L281.9 347.3L281.9 347.3L281.9 347.2L281.8 347.2L281.8 347.2L281.8 347.2L281.8 347.1L281.7 347.1L281.7 347.1L281.7 347.1L281.6 347.0L281.6 347.0L281.6 347.0L281.5 347.0L281.5 346.9L281.5 346.9L281.5 346.9L281.4 346.9L281.4 346.8L281.4 346.8L281.3 346.8L281.3 346.8L281.3 346.8L281.2 346.8L281.2 346.7L280.5 346.2L280.5 346.2L279.3 344.9L278.4 343.3L278.0 341.6L278.0 341.5L278.0 341.5L278.0 341.4L278.0 341.4L278.0 341.3L278.0 341.3L278.0 341.3L278.0 341.2L278.0 341.2L277.9 341.1L277.9 341.0L277.9 341.0L277.9 341.0L277.9 340.9L277.9 340.9L277.9 340.9L277.8 340.7L277.8 340.6L277.8 340.6L277.8 340.6L277.8 340.5L277.8 340.5L277.7 340.5L277.7 340.4L277.7 340.4L277.7 340.4L277.7 340.3L277.7 340.3L277.6 340.3L277.6 340.2L277.6 340.2L277.6 340.1L277.5 340.0L277.4 339.9L277.4 339.9L277.4 339.9L277.4 339.8L277.4 339.8L277.3 339.8L277.3 339.8L277.3 339.7L277.3 339.7L277.2 339.6L277.1 339.5L277.1 339.5L277.1 339.5L277.1 339.5L277.0 339.4L276.9 339.3L276.9 339.3L276.9 339.3L276.1 338.5L275.6 337.8L275.5 337.6L275.5 337.6L275.5 337.6L275.5 337.6L275.5 337.5L275.4 337.5L275.4 337.5L275.4 337.4L275.4 337.4L275.2 337.2L275.2 337.2L275.1 337.2L275.1 337.1L275.1 337.1L275.1 337.1L275.0 337.1L275.0 337.0L274.8 336.9L274.8 336.9L274.8 336.9L274.8 336.8L274.7 336.8L274.7 336.8L274.7 336.8L274.6 336.7L274.6 336.7L274.5 336.6L272.9 335.3L271.8 333.4L271.3 331.4L271.3 331.4L271.3 330.7L271.8 328.3L272.6 327.1L273.3 327.7L276.1 328.3L280.0 321.2L287.5 320.8L296.7 321.9L302.2 325.5L302.3 325.6L302.3 325.6L302.3 325.6L302.3 325.6L302.4 325.7L302.4 325.7L302.5 325.8L303.7 327.1L304.5 328.7L304.9 330.5L304.9 330.7L304.9 330.7L304.8 332.0L304.8 332.1L304.8 332.2L304.8 332.2L304.7 332.2L304.7 332.3L304.7 332.3L304.7 332.4L304.7 332.4L304.7 332.5L304.7 332.5L304.7 332.7L304.7 332.7L304.7 332.8L304.7 332.9L304.7 332.9L304.8 333.0L304.8 333.0L304.8 333.0L304.8 333.1L304.8 333.2L304.9 334L304.9 334.6L304.8 335.3L304.8 335.3L304.0 337.5L302.5 339.4L300.4 340.6L300.3 340.6L300.3 340.6L300.3 340.6L300.2 340.7L300.2 340.7L300.2 340.7L300.1 340.7L300.1 340.7L300.1 340.7L300.0 340.8L300.0 340.8L299.9 340.8L299.9 340.8L299.9 340.8L299.8 340.9L299.8 340.9L299.8 340.9L299.7 341.0L299.6 341.0L299.6 341.0L299.5 341.1L299.5 341.1L299.5 341.1L299.4 341.1L299.4 341.1L299.4 341.2L299.3 341.2L299.3 341.3L299.2 341.3L299.2 341.3L299.2 341.4L299.1 341.4L299.1 341.4L299.1 341.4L299.1 341.5L299.0 341.5L299.0 341.5L299.0 341.6L298.9 341.6L298.9 341.7L298.9 341.7L298.8 341.7L298.8 341.8L298.8 341.8L298.8 341.8L298.8 341.8L298.7 341.9L298.7 341.9L298.7 341.9L298.7 342.0L298.6 342.0L298.6 342.0L298.6 342.1L298.6 342.1L298.6 342.1L298.6 342.2L298.5 342.2L298.5 342.2L298.5 342.3L298.5 342.3L298.5 342.3L298.4 342.4L298.4 342.4L298.4 342.5L298.4 342.5L298.4 342.5L298.4 342.6L298.4 342.6L298.3 342.8L298.3 342.9L298.3 342.9L298.2 342.9L298.2 343.0L298.2 343.0L298.2 343.1L298.2 343.1L298.2 343.2L298.2 343.2L298.2 343.2L298.2 343.3L298.2 343.3L298.2 343.3L298.2 343.4L298.2 343.5L298.1 343.5L298.1 343.5L298.1 343.6L298.1 343.6L298.1 343.6L298.1 343.9L298.1 344.0L298.1 345.0L297.3 347.6L297.3 347.7L297.3 347.7L297.2 347.7L297.2 347.8L297.2 347.9L297.2 347.9L297.1 347.9L297.1 348.0L297.1 348.0L297.1 348.0L297.1 348.1L297.1 348.1L297.1 348.1L297.0 348.2L297.0 348.2L297.0 348.3L297.0 348.3L297.0 348.4L296.2 350.1L297.6 351.4L297.6 351.4L297.7 351.6L297.8 351.6L297.8 351.6L297.9 351.7L297.9 351.7L297.9 351.8L298.0 351.8L298.0 351.8L298.1 351.9L298.1 351.9L298.1 351.9L298.2 352.0L298.2 352.0L298.3 352.0L298.3 352.0L298.3 352.1L298.3 352.1L298.4 352.1L298.4 352.1L300.1 353.6L301.1 355.6L301.4 357.2L299.5 359.2L298.1 357.0L295.4 355.8L298.8 361.1L297.2 363.8L293.3 365.4L291.7 363.4L285.2 367.6L286.6 368.6L290.6 366.7L291.2 371.6L287.6 374.8L284.3 374.5L280.1 375.9L278.2 377.9L281.7 376.4L285.5 376.9L286.1 378.1L284.2 378.1L282.4 379.3L282.9 380.0L290.6 381.6L298.0 380.1L298.0 380.1L298.0 380.1L298.1 380.2L298.1 380.2L298.2 381.3L298.1 381.5L297.8 383.4L296.9 385.2L295.5 386.6L293.8 387.6L293.8 387.6L293.7 387.6L293.7 387.6L293.6 387.7L293.6 387.7L293.5 387.7L293.5 387.7L293.5 387.8L293.4 387.8L293.4 387.8L293.4 387.8L293.3 387.8L293.3 387.8L293.1 388.0L293.0 388.0L293.0 388.0L293.0 388.0L292.9 388.1L292.9 388.1L292.9 388.1L292.8 388.2L292.8 388.2L292.7 388.3L292.7 388.3L292.6 388.3L292.6 388.4L292.6 388.4L292.6 388.4L292.5 388.4L292.5 388.5L292.5 388.5L292.5 388.5L292.4 388.6L292.4 388.6L292.3 388.7L292.3 388.7L292.3 388.7L292.3 388.8L292.2 388.8L292.2 388.8L292.2 388.9L292.0 389.1L292.0 389.1L292.0 389.1L292.0 389.2L292.0 389.2L292.0 389.2L291.9 389.3L291.9 389.3L291.9 389.3L291.9 389.4L291.9 389.4L291.9 389.4L291.9 389.5L291.8 389.5L291.8 389.5L291.8 389.6L291.7 389.8L291.7 389.8L291.7 389.9L291.7 389.9L291.7 389.9L291.7 390.0L291.7 390.0L291.7 390.1L291.7 390.2L291.6 390.2L291.6 390.3L291.6 390.3L291.6 390.4L291.6 390.4L291.6 390.4L291.6 390.5L291.6 390.5L291.6 390.6L291.6 390.6L291.6 390.6L291.6 390.7L291.6 390.8L291.6 390.9L291.6 390.9L291.6 391.0L291.6 391.0L291.6 391.1L291.5 392.4L292.7 393.2L292.7 393.2L293.2 393.8L292.8 394.4L292.8 396.8L288.2 396.8L285.5 399.4L281.9 400.7L281.4 398.7L281.4 398.6L281.5 397.3L280.3 396.5L280.3 396.5L280.3 396.4L280.2 396.4L279.0 394.9L279 394.9L278.9 394.8L278.9 394.7L278.9 394.7L278.8 394.7L278.8 394.6L278.8 394.6L278.8 394.6L278.7 394.6L278.6 394.4L278.6 394.3L278.5 394.3L278.4 394.2L278.4 394.2L278.4 394.2L278.2 394.0L278.1 394.0L278.1 394.0L278.1 393.9L278.1 393.9L278.0 393.9L278.0 393.9L277.9 393.8L277.8 393.8L276.3 392.5L275.2 390.7L274.7 388.6L274.6 388.5L274.6 388.5L274.6 388.5L274.6 388.4L274.6 388.4L274.6 388.4L274.6 388.3L274.6 388.3L274.6 388.2L274.6 388.0L274.6 388.0L274.5 388.0L274.5 387.9L274.5 387.9L274.5 387.9L274.5 387.8L274.5 387.7L274.4 387.7L274.4 387.6L274.4 387.6L274.4 387.5L274.4 387.5L274.4 387.5L274.3 387.4L274.3 387.4L274.3 387.4L274.3 387.3L274.3 387.3L274.3 387.3L274.2 387.2L274.2 387.2L274.2 387.2L274.1 387.0L274.1 387.0L274.1 387.0L274.1 386.9L274.0 386.9L274.0 386.9L274.0 386.9L274.0 386.8L274.0 386.8L273.9 386.8L273.9 386.7L273.8 386.6L273.8 386.6L273.7 386.5L273.7 386.5L273.7 386.5L273.7 386.5L273.6 386.4L273.6 386.4L273.6 386.4L273.5 386.3L272.8 385.6L272.8 385.6L272.8 385.6L272.7 385.5L272.6 385.4L272.6 385.4L272.6 385.4L272.6 385.3L272.5 385.3L272.5 385.3L272.5 385.3L272.4 385.2L272.3 385.1L272.3 385.1L272.3 385.1L272.3 385.1L272.2 385.1L272.2 385.0L272.2 385.0L272.1 385.0L272.1 385.0L272.1 385L272.1 384.9L272.0 384.9L271.9 384.9L271.9 384.8L271.9 384.8L271.8 384.8L271.8 384.8L271.8 384.8L271.7 384.7L271.7 384.7L271.6 384.7L271.6 384.7L271.5 384.7L271.5 384.6L271.5 384.6L271.4 384.6L271.4 384.6L271.2 384.5L271.1 384.5L271.1 384.5L271.1 384.5L271.0 384.5L271.0 384.5L271.0 384.5L270.9 384.5L270.9 384.5L270.9 384.5L270.8 384.4L270.7 384.4L270.7 384.4L270.7 384.4L270.6 384.4L270.6 384.4L270.5 384.4L270.5 384.4L270.5 384.4L270.4 384.4L270.4 384.4L270.3 384.4L270.1 384.4L270.1 384.4L270.0 384.4L270.0 384.4L270.0 384.4L269.9 384.4L269.9 384.4L269.8 384.4L269.8 384.4L269.8 384.4L269.7 384.4L269.6 384.5L269.6 384.5L269.6 384.5L269.5 384.5L269.4 384.5L268.8 384.6L268.8 384.6L267.7 384.7L267.7 384.7L265.7 384.3L263.9 383.3L262.4 381.9L261.5 380.0L261.2 377.8L261.2 377.8L261.5 375.9L262.4 374.1L263.4 372.9L263.5 372.9L263.5 372.8L263.6 372.8L263.6 372.8L263.6 372.8L263.6 372.7L263.7 372.7L263.7 372.7L263.8 372.6L263.8 372.6L263.8 372.6L263.8 372.5L263.9 372.5L263.9 372.4L263.9 372.4L263.9 372.4L264.0 372.3L264.0 372.3L264.0 372.3L264.0 372.3L264.0 372.2L264.1 372.2L264.1 372.1L264.1 372.1L264.2 372.0L264.2 372.0L264.2 372.0L264.2 371.9L264.2 371.9L264.2 371.9L264.3 371.8L264.3 371.8L264.3 371.8L264.3 371.7L264.3 371.7L264.3 371.7L264.3 371.6L264.4 371.6L264.4 371.6L264.4 371.5L264.4 371.5L264.4 371.4L264.4 371.4L264.5 371.3L264.5 371.3L264.5 371.3L264.5 371.2L264.5 371.2L264.5 371.2L264.5 371.1L264.5 371.0L264.5 371.0L264.5 371.0L264.5 370.9L264.6 370.9L264.6 370.8L264.6 370.7L264.6 370.6L264.6 370.1L264.6 370.1L264.7 370.0L264.7 370.0L264.7 370.0L264.7 369.9L264.7 369.8L264.7 369.8L264.7 369.7L264.7 369.7L264.7 369.4L264.7 369.4L264.7 369.4L264.7 369.3L264.7 369.3L264.7 369.2L264.7 369.2L264.7 369.2L264.7 369.1L264.7 369.1L264.6 369.0 Z M 238.7 361.1L238.1 360.0L238.1 360.0L237.7 357.7L237.7 357.2L237.8 356.3L238.6 354.3L240.0 352.7L241.7 351.6L243.8 351.1L245.8 351.2L247.9 352.1L249.6 353.6L250.7 355.6L251.1 357.8L251.1 358.0L250.7 360.0L250.7 360.0L250.1 361.1L250.7 362.3L250.7 362.3L251.1 363.8L251.1 364.2L251.1 364.2L250.8 366.5L249.7 368.6L247.9 370.2L247.9 370.2L246.2 371.0L244.4 371.2L244.4 371.2L242.4 370.9L240.6 370.1L239.1 368.7L238.1 367.0L237.7 365.0L237.7 364.6L237.7 364.6L237.7 363.7L237.8 363.0L238.1 362.3L238.1 362.3 Z M 291.5 380.3L290.4 381.0L287.3 380.4L286.8 377.9L290.5 378.7 Z M 291.5 380.3 "/>
<path style=" stroke:none;fill-rule:nonzero;fill:#C2B855;fill-opacity:1;" d="M 80.6 299.8L80.4 297.6L80.8 295.7L81.7 294.1L83.1 292.7L83.1 292.7L84.3 292.1L84.4 290.3L85.2 288.4L85.2 288.3L86.5 286.7L88.2 285.6L90.1 285.0L92.2 285.1L94.1 285.7L95.8 286.9L97.0 288.6L97.6 290.5L97.7 292.6L97.1 294.5L97.1 294.6L96.2 296.0L95.0 297.1L95.0 297.1L93.7 297.8L93.7 299.2L93.7 299.2L92.9 301.4L91.4 303.2L89.4 304.4L89.4 304.4L88.9 304.6L86.8 304.8L84.7 304.4L82.8 303.3L81.4 301.7L80.6 299.8 Z M 54.3 290.3L54.1 289.7L54.1 289.7L54.1 289.1L54.1 289.1L54.3 287.7L53.2 286.8L53.2 286.8L51.8 284.7L51.3 282.3L51.3 282.3L54.8 282.0L54.2 280.9L55.2 279.3L54.8 278.7L52.6 278.2L53.8 277.0L55.4 275.9L57.3 275.5L57.4 275.5L58.0 275.4L59.1 275.5L61.0 276.1L62.7 277.3L64 279.0L64.0 279.0L64.7 281.6L64.8 282.1L64.8 282.1L64.5 283.6L65.7 284.5L65.7 284.5L66.8 286.0L67.4 287.8L67.5 289.6L67.3 290.8L67.3 290.8L67.1 291.4L67.2 291.9L67.2 291.9L67.3 292.8L66.7 295.3L65.4 297.1L64.2 298.0L65.9 298.4L67.6 299.3L67.7 299.4L67.7 299.4L67.8 299.4L67.8 299.4L67.8 299.5L67.8 299.5L67.9 299.5L68.0 299.6L68.0 299.6L68.1 299.6L68.1 299.6L68.1 299.7L68.2 299.7L68.2 299.7L68.2 299.7L68.3 299.7L68.3 299.7L68.4 299.8L68.4 299.8L68.4 299.8L68.5 299.8L68.5 299.8L68.5 299.8L68.7 299.9L68.8 299.9L68.8 299.9L68.8 299.9L68.9 299.9L68.9 300L69.0 300.0L69.0 300.0L69.1 300.0L69.1 300.0L69.1 300.0L69.2 300.0L69.2 300.0L69.3 300.0L69.3 300.0L69.3 300.0L69.4 300.0L69.4 300.0L69.4 300.0L69.5 300.0L69.5 300.0L69.6 300.0L69.7 300.0L69.7 300.0L71.9 300.5L73.8 301.7L75.3 303.4L76.1 305.5L76.1 305.6L76.1 305.6L76.1 305.7L76.1 305.7L76.1 305.7L76.1 305.8L76.1 305.8L76.2 305.9L76.2 305.9L76.2 306L76.2 306.1L76.3 306.2L76.3 306.2L76.3 306.2L76.3 306.3L76.3 306.3L76.3 306.3L76.3 306.4L76.3 306.4L76.4 306.4L76.4 306.5L76.4 306.5L76.4 306.5L76.4 306.6L76.5 306.6L76.5 306.6L76.5 306.6L76.5 306.7L76.5 306.7L76.5 306.7L76.6 306.8L76.6 306.8L76.6 306.9L76.6 306.9L76.7 307.0L76.7 307.0L76.8 307.0L76.8 307.1L76.8 307.1L76.8 307.1L76.8 307.2L76.9 307.2L76.9 307.2L76.9 307.2L77.0 307.3L78.2 309.2L78.2 309.3L78.3 309.2L80.3 308.2L80.3 308.2L80.5 308.1L82.8 307.9L84.9 308.4L86.8 309.6L88.2 311.4L88.9 313.5L88.9 313.5L89.0 314.6L88.7 316.7L87.8 318.6L86.3 320.0L84.4 321.0L82.3 321.3L82.2 321.3L80.5 321.1L78.9 320.4L77.4 319.2L76.2 317.3L76.1 317.2L76.1 317.3L74.0 318.3L74.0 318.3L73.9 318.3L73.8 318.4L73.8 318.4L73.7 318.4L73.7 318.4L73.7 318.4L73.6 318.4L73.6 318.5L73.6 318.5L73.5 318.5L73.4 318.5L73.4 318.6L73.3 318.6L73.3 318.6L73.3 318.6L73.2 318.7L73.1 318.7L73.1 318.8L73.0 318.8L73.0 318.8L73.0 318.8L72.9 318.9L71.9 319.5L71.9 319.5L71.8 319.5L71.8 319.6L71.7 319.6L71.7 319.6L71.7 319.6L71.6 319.7L71.6 319.7L71.6 319.7L71.5 319.7L71.5 319.7L71.5 319.8L71.4 319.8L71.4 319.8L71.4 319.8L71.4 319.8L71.3 319.9L71.3 319.9L71.2 319.9L71.2 320.0L71.2 320.0L71.2 320.0L71.1 320.0L71.1 320.1L71.1 320.1L71.0 320.1L71.0 320.2L71.0 320.2L70.9 320.2L70.9 320.3L70.9 320.3L70.8 320.3L70.8 320.4L70.7 320.5L70.7 320.5L70.7 320.5L70.4 320.9L68.3 322.5L65.8 323.3L65.8 323.3L65.1 323.2L64.9 321.5L63.5 322.4L63.1 323.0L63.1 323.0L63.0 323.0L63 323.0L62.9 323.0L62.8 323.0L62.8 323.0L62.7 323.0L62.7 323.0L62.6 323.0L62.5 323.0L62.5 323.0L62.4 323.0L62.4 323.0L61.8 323.0L61.8 323.0L59.6 322.6L57.7 321.5L56.4 320.2L55.6 318.5L55.2 316.6L55.2 316.5L56.0 315.3L55.4 314.7L55.4 314.6L55.5 314.4L55.5 314.3L55.5 314.3L55.5 314.3L55.5 314.2L55.5 314.2L55.5 314.1L55.5 314.1L55.5 314.0L55.5 314.0L55.5 314L55.5 313.9L55.5 313.9L55.5 313.8L55.5 313.7L55.5 313.7L55.5 313.6L55.5 313.6L55.5 313.5L55.5 313.4L55.5 313.0L55.5 313.0L55.6 312.2L59.0 307.8L59.8 307.4L61.9 307.7L66.6 307.1L67.4 305.5L66.3 304.9L66.5 303.5L65.9 303.2L56.8 303.2L57.2 302.4L57.2 302.4L57.3 302.3L57.3 302.3L57.3 302.3L57.3 302.2L57.3 302.2L57.4 302.2L57.4 302.1L57.4 302.1L57.4 302.0L57.4 302.0L57.5 302.0L57.5 301.9L57.5 301.9L58.6 300.2L59.9 299.1L59.2 299.1L57.1 298.3L55.4 296.8L55.4 296.8L54.1 294.6L53.8 292.1L53.8 292.1L54.0 290.8L54.0 290.8 Z M 73.0 267.9L72.9 267.6L72.9 267.6L72.9 266.3L72.9 266.3L73.1 265.8L76.0 266.5L79.1 268.4L78.4 266.8L80.0 265.9L79.6 264.5L77.7 263.8L77.6 262.9L81.1 260.5L82.9 261.2L84.8 262.9L86.0 265.2L86.0 265.2L86.3 267.1L86.3 267.1L86.3 267.6L86.3 267.7L86.2 267.9L86.3 268.2L86.3 268.4L86.3 268.5L86.3 268.5L86.3 268.6L86.3 268.6L86.4 268.8L86.4 268.8L86.6 270.9L86.1 273.0L85.0 274.8L83.4 276.2L81.5 277.0L79.3 277.2L79.3 277.2L79.3 277.2L79.2 277.2L79.2 277.2L79.1 277.2L79.1 277.2L77.0 276.7L75.2 275.7L73.7 274.2L72.8 272.3L72.6 270.2L72.8 268.8L72.8 268.7L72.8 268.7L72.8 268.5L72.9 268.5L72.9 268.5L72.9 268.4L72.9 268.3L72.9 268.3L72.9 268.3L72.9 268.2L72.9 268.2 Z M 73.0 267.9 "/>
















</g>
</svg>
