<?xml version="1.0" encoding="UTF-8"?>
<svg xmlns="http://www.w3.org/2000/svg" xmlns:xlink="http://www.w3.org/1999/xlink" width="378pt" height="504pt" viewBox="0 0 378 504" version="1.1">
<g id="data">
<rect x="0" y="0" width="378" height="504" style="fill:rgb(100%,100%,100%);fill-opacity:1;stroke:none;"/>
<path style=" stroke:none;fill-rule:nonzero;fill:rgb(100%,100%,100%);fill-opacity:1;" d="M 21 504L357 504L357 0L21 0 Z M 21 504 "/>
<path style=" stroke:none;fill-rule:nonzero;fill:#C2B855;fill-opacity:1;" d="M 254.5 381.3L256.6 381.7L258.6 382.7L260.1 384.3L261.0 386.4L261.1 387.0L261.2 388.0L260.9 390.0L260.0 391.8L258.7 393.2L257.0 394.3L255.1 394.7L255.0 394.7L254.7 394.7L254.7 394.7L252.8 394.6L251.1 393.8L249.6 392.6L248.5 391.1L247.9 389.3L247.7 388.0L247.7 388.0L247.9 386.5L248.8 384.5L250.3 382.8L252.2 381.7 Z M 206.2 304.1L208.8 304.2L209.9 304.5L211.6 305.5L212.9 306.9L213.2 307.2L213.2 307.3L213.2 307.3L213.2 307.4L213.3 307.4L213.3 307.4L213.3 307.5L213.3 307.5L213.4 307.5L213.4 307.6L213.4 307.6L213.4 307.6L213.4 307.6L213.5 307.7L213.5 307.7L213.6 307.8L213.6 307.8L213.7 307.9L213.7 307.9L213.8 308.0L213.8 308.0L213.8 308.1L213.9 308.1L213.9 308.1L214.0 308.1L214.0 308.2L214.0 308.2L214.0 308.2L214.1 308.2L214.1 308.3L214.1 308.3L214.2 308.3L214.2 308.3L214.3 308.4L216.0 309.9L216.9 311.3L217.4 312.9L217.5 313.4L217.5 314.8L217.1 316.3L217.1 316.4L217.1 316.4L217.1 316.5L217.1 316.6L217.0 316.6L217.0 316.6L217.0 316.7L217.0 316.7L217.0 316.9L217.0 316.9L217.0 316.9L217.0 317.0L217.0 317.0L217.0 317.0L217.0 317.1L217 317.1L216.9 317.2L216.9 317.2L216.9 317.3L216.9 317.3L216.9 317.4L216.9 317.6L216.9 317.6L216.9 317.7L216.9 317.7L216.9 317.7L216.9 317.8L217 317.8L217.0 317.9L217.0 317.9L217.0 318.0L217.0 318.0L217.0 318.0L217.0 318.1L217.0 318.1L217.0 318.2L217.0 318.2L217.0 318.3L217.0 318.3L217.0 318.4L217.1 318.4L217.1 318.4L217.1 318.6L217.1 318.6L217.1 318.7L217.2 318.7L217.2 318.7L217.2 318.8L217.2 318.8L217.2 318.9L217.2 318.9L217.3 318.9L217.3 319.0L217.3 319.0L217.3 319.0L217.3 319.1L217.4 319.1L217.4 319.2L217.4 319.2L217.5 319.3L218.3 321.1L218.3 321.4L218.5 321.3L220.5 320.8L220.8 320.8L220.8 320.8L222.0 320.9L222.0 320.9L222.5 321.1L223.1 320.9L223.1 320.9L224.0 320.8L224.0 320.8L226.3 321.2L228.4 322.3L229.9 324.0L230.7 325.6L231 327.3L231 327.4L230.6 329.6L229.6 331.5L228.1 333.1L226.1 334.0L224.6 334.3L224.3 334.3L223.1 334.2L223.1 334.2L222.5 334.0L222.0 334.2L222.0 334.2L220.9 334.3L218.8 333.9L216.9 332.9L216.9 332.9L215.4 331.5L214.5 329.7L214.4 329.1L214.2 329.2L212.2 329.6L212.1 329.6L212.1 329.6L212.0 329.6L211.9 329.6L211.9 329.7L211.9 329.7L211.8 329.7L211.8 329.7L211.5 329.7L211.5 329.7L211.4 329.8L211.3 329.8L211.2 329.8L211.2 329.8L211.2 329.8L211.1 329.9L211.1 329.9L211.1 329.9L211.0 329.9L211.0 329.9L211.0 329.9L210.9 330L210.9 330.0L210.8 330.0L210.8 330.0L210.8 330.0L210.7 330.1L207.7 330.9L207.3 330.9L206.3 330.8L206.3 330.8L206.2 330.8L206.2 330.8L206.1 330.8L206.1 330.8L206.0 330.8L206 330.8L205.9 330.8L205.9 330.8L205.8 330.8L205.7 330.8L205.6 330.8L205.6 330.8L205.6 330.8L205.5 330.8L205.4 330.8L205.4 330.8L205.3 330.8L205.2 330.8L205.2 330.8L203.7 330.9L201.2 330.3L199.1 328.7L198.1 327.2L197.5 325.5L197.4 324.9L197.4 324.5L197.4 324.4L197.7 321.9L199.0 319.8L199.7 319.0L199.8 319.0L199.8 319.0L199.9 319L199.9 318.9L200.0 318.8L200.0 318.8L200.0 318.8L200.0 318.8L200.1 318.7L200.1 318.7L200.1 318.7L200.2 318.6L200.2 318.6L200.3 318.5L200.3 318.5L200.3 318.5L200.3 318.4L200.3 318.4L200.4 318.4L200.4 318.3L200.5 318.1L200.5 318.1L200.6 318.1L200.6 318.0L200.6 318.0L200.6 318.0L200.6 317.9L200.6 317.9L200.7 317.9L200.7 317.8L200.7 317.8L200.7 317.8L200.7 317.7L200.7 317.7L200.8 317.7L200.8 317.6L200.8 317.4L200.9 317.3L200.9 317.3L200.9 317.2L200.9 317.2L200.9 317.1L200.9 317.1L200.9 317.0L200.9 316.9L201 316.9L201.0 316.9L201.0 316.8L201.0 316.8L201.0 316.7L201.0 316.7L201.0 316.7L201.0 316.6L201.0 316.6L201.0 316.5L201.0 316.4L201.0 316.3L201.0 316.2L201.0 316.2L201.0 316.2L201.0 316.1L201.0 316.1L201.0 316.1L201.0 316.0L201 316.0L200.9 316.0L200.9 315.9L200.9 315.9L200.9 315.8L200.9 315.8L200.9 315.8L200.9 315.7L200.9 315.6L200.7 314.7L200.8 313.0L200.8 313.0L200.8 312.9L200.8 312.8L200.8 312.7L200.8 312.7L200.8 312.6L200.8 312.6L200.8 312.6L200.8 312.3L200.8 312.3L200.8 312.2L200.8 312.2L200.8 312.1L200.8 312.0L200.8 312.0L200.8 311.9L200.8 311.8L200.7 311.1L200.7 310.8L200.7 310.7L201.1 308.5L201.2 308.3L202.8 310.1L205.2 309.9L206.9 307.7L203.5 308.8L201.6 307.6L202.2 306.5L204.0 305.0L206.2 304.1 Z M 156.9 186.4L155.1 186.1L155.1 186.1L152.9 185.0L152.9 185.0L158.6 176.8L151.5 183.5L151.3 183.2L151.3 183.2L151.2 183.1L151.2 183.1L151.2 183.0L151.1 183.0L151.1 183.0L151.1 182.9L151.1 182.9L151.1 182.9L150.9 182.7L150.9 182.7L150.8 182.6L150.7 182.5L150.7 182.5L150.7 182.5L150.5 182.3L150.5 182.3L150.4 182.3L150.4 182.3L150.4 182.2L150.4 182.2L150.3 182.2L150.1 182.1L148.9 181.0L149.5 180.9L148.6 180.7L148.4 180.6L147.3 178.6L147.3 178.5L147.3 178.5L147.3 178.4L147.3 178.4L147.2 178.4L147.2 178.3L147.2 178.3L147.2 178.3L147.2 178.2L147.2 178.2L147.1 178.1L147.1 178.1L147.1 178.1L147.1 178.0L147.1 178.0L147 177.8L146.9 177.8L146.9 177.8L146.9 177.7L146.9 177.7L146.8 177.7L146.8 177.6L146.8 177.6L146.8 177.6L146.8 177.6L146.7 177.5L146.7 177.5L146.7 177.4L146.6 177.4L146.6 177.4L146.5 177.3L146.5 177.3L146.4 177.2L146.4 177.2L146.4 177.2L146.3 177.1L146.2 177.1L146.2 177.0L146.2 177.0L146.2 177.0L146.1 177.0L146.1 177.0L146.1 176.9L146.0 176.9L146.0 176.9L145.9 176.8L145.9 176.8L145.9 176.8L145.9 176.8L145.8 176.8L145.8 176.8L145.8 176.7L145.7 176.7L145.7 176.7L145.6 176.7L145.6 176.7L145.6 176.6L145.5 176.6L145.5 176.6L145.5 176.6L145.4 176.6L145.4 176.6L145.3 176.6L145.3 176.5L145.1 176.5L145.1 176.5L145.1 176.5L145.0 176.5L145.0 176.4L144.9 176.4L144.9 176.4L144.8 176.4L144.8 176.4L144.7 176.4L144.7 176.4L144.7 176.4L144.6 176.4L144.6 176.4L144.5 176.4L144.5 176.4L144.5 176.3L144.4 176.3L144.4 176.3L144.3 176.3L144.3 176.3L144.3 176.3L144.1 176.3L143.6 175.6L147.5 174.4L146.1 173.2L142.3 173.2L144.9 168.8L148.2 170.4L150.7 169.6L148.5 169.9L145.5 167.4L146.8 165.1L150.6 166.2L153.4 165.7L150.4 165.1L148.4 163.3L148.6 160.6L150.6 159.9L153.5 161.0L150.3 158.8L149.8 157.1L153.0 153.9L146.4 156.5L145.4 155.6L144.6 151.2L145.4 147.7L149.1 150.4L152.0 149.5L148.8 148.9L146.2 145.4L146.4 138.5L146.8 137.2L148.5 136.8L150.6 140.7L151.2 138.4L150.0 136.6L150.7 134.9L153.7 137.5L154.3 135.9L156.1 135.3L160.7 138.1L159.7 135.7L159.7 135.7L159.8 135.8L159.9 135.8L159.9 135.8L159.9 135.8L160.0 135.8L160.0 135.8L160.1 135.9L160.2 135.9L160.2 135.9L160.2 135.9L160.3 135.9L160.3 135.9L160.3 135.9L160.4 136.0L160.5 136.0L160.6 136.0L160.6 136.0L160.6 136.0L160.7 136.0L160.7 136.0L160.8 136.0L160.8 136.0L160.9 136.0L161.0 136.1L161.4 136.1L164.2 137.2L166.1 139.2L166.2 139.3L166.2 139.4L166.2 139.4L166.3 139.4L166.3 139.5L166.3 139.5L166.3 139.5L166.3 139.6L166.4 139.6L166.4 139.6L166.4 139.6L166.5 139.8L166.5 139.8L166.6 139.9L166.6 139.9L166.7 140.0L166.7 140.0L166.8 140.0L166.9 140.1L166.9 140.1L167.0 140.2L167.0 140.2L167.0 140.2L167.1 140.3L167.1 140.3L167.3 140.4L168.8 141.6L168.8 141.7L168.8 141.7L168.9 141.7L168.9 141.8L169.0 141.8L169.0 141.9L169.0 141.9L169.1 141.9L169.1 142.0L169.2 142.1L169.2 142.1L169.3 142.1L169.3 142.1L169.3 142.1L169.4 142.2L169.4 142.2L169.4 142.2L169.4 142.2L169.6 142.3L169.6 142.3L169.7 142.4L169.7 142.4L169.7 142.4L169.8 142.4L169.8 142.4L169.9 142.5L169.9 142.5L170.0 142.5L170.0 142.5L170.0 142.5L170.1 142.5L170.1 142.6L170.1 142.6L170.2 142.6L170.2 142.6L170.3 142.6L170.3 142.6L170.4 142.7L170.4 142.7L170.4 142.7L170.5 142.7L170.6 142.7L170.6 142.7L170.7 142.7L170.7 142.7L170.8 142.7L170.8 142.7L170.9 142.8L170.9 142.8L171.0 142.8L171.1 142.8L171.6 142.8L171.6 142.8L171.7 142.9L171.7 142.9L171.8 142.9L171.9 142.9L171.9 142.9L172 142.9L172.0 142.9L172.0 142.9L172.3 142.9L172.3 142.9L172.3 142.9L172.4 142.9L172.4 142.9L172.5 142.9L172.5 142.9L172.6 142.9L172.6 142.9L172.7 142.8L172.7 142.8L174.0 142.8L174.0 142.8L174.9 142.8L175.0 142.8L175.0 142.9L175.1 142.9L175.2 142.9L175.2 142.9L175.3 142.9L175.3 142.9L175.3 142.9L175.4 142.9L175.6 142.9L175.7 142.9L175.7 142.9L175.7 142.9L175.8 142.9L175.9 142.9L175.9 142.9L176.0 142.9L176.0 142.9L176.0 142.8L176.1 142.8L176.9 142.8L176.9 142.8L177.6 142.8L180.2 143.5L180.5 143.7L176.6 145.3L174.1 148.0L173.8 149.1L177.5 145.9L180.9 145.8L181.5 146.7L178.1 150.6L177.8 152.3L184.9 148.8L184.9 148.8L184.9 148.8L184.9 148.8L185.0 148.9L185.0 148.9L185.0 148.9L185.1 148.9L185.1 148.9L185.1 148.9L185.2 149.0L185.2 149.0L185.2 149.0L185.3 149.0L185.3 149.0L185.4 149.1L185.4 149.1L185.4 149.1L185.7 149.2L185.7 149.2L185.8 149.2L185.8 149.2L185.9 149.2L185.9 149.2L186.0 149.2L186.0 149.2L186.1 149.3L186.1 149.3L186.2 149.3L186.2 149.3L186.2 149.3L186.3 149.3L186.3 149.3L186.3 149.3L186.4 149.3L186.4 149.3L186.5 149.3L186.5 149.3L186.6 149.3L186.7 149.3L186.7 149.3L186.8 149.3L186.8 149.3L186.9 149.3L186.9 149.3L186.9 149.3L187.0 149.3L187.1 149.3L187.1 149.3L187.2 149.3L187.2 149.3L187.2 149.2L187.3 149.2L187.3 149.2L187.4 149.2L187.4 149.2L187.5 149.2L187.6 149.2L187.6 149.1L187.7 149.1L187.7 149.1L187.7 149.1L187.8 149.1L187.8 149.1L187.9 149.1L187.9 149.0L188.0 149.0L188.0 149.0L188.1 149.0L188.1 149.0L188.1 148.9L188.2 148.9L188.2 148.9L188.2 148.9L188.3 148.9L188.3 148.8L188.4 148.8L188.4 148.8L188.4 148.8L188.5 148.8L188.5 148.7L188.5 148.7L188.6 148.7L188.6 148.7L188.6 148.6L188.6 148.6L188.7 148.6L188.7 148.6L188.8 148.5L188.8 148.5L188.9 148.4L188.9 148.4L188.9 148.4L189.0 148.4L189.0 148.3L189.0 148.3L189.0 148.3L189.1 148.2L190.6 147.2L190.6 147.1L190.7 147.1L191.2 146.7L193.7 146.1L194.4 146.1L194.4 146.1L197.0 146.8L198.6 147.9L199.8 149.5L200.5 151.3L200.7 153.2L200.3 155.0L200.3 155.2L200.3 155.2L200.3 155.3L200.2 155.3L200.2 155.4L200.2 155.4L200.2 155.4L200.2 155.5L200.2 155.5L200.2 155.6L200.2 155.7L200.2 155.7L200.2 155.7L200.2 155.8L200.2 155.8L200.1 155.8L200.1 155.9L200.1 155.9L200.1 156L200.1 156.0L200.1 156.0L200.1 156.1L200.1 156.1L200.1 156.3L200.1 156.3L200.1 156.4L200.1 156.4L200.1 156.5L200.1 156.5L200.1 156.5L200.1 156.6L200.2 156.6L200.2 156.7L200.2 156.7L200.2 156.7L200.2 156.8L200.2 156.8L200.2 156.8L200.2 156.9L200.2 156.9L200.2 157.0L200.2 157.0L200.2 157.1L200.3 157.1L200.3 157.1L200.3 157.2L200.3 157.2L200.3 157.2L200.3 157.3L200.3 157.3L200.4 157.4L200.4 157.4L200.4 157.5L200.4 157.6L200.5 157.6L200.5 157.7L200.5 157.8L200.5 157.8L200.5 157.8L200.6 157.8L200.6 157.9L200.6 157.9L200.7 158.0L200.7 158.1L200.7 158.1L200.7 158.1L200.8 158.2L200.8 158.2L200.8 158.2L200.8 158.3L200.8 158.3L200.9 158.3L200.9 158.3L200.9 158.4L201.0 158.5L201.0 158.5L201.0 158.5L201.1 158.5L201.1 158.6L201.1 158.6L201.1 158.6L201.2 158.6L201.2 158.7L201.2 158.7L201.3 158.7L201.3 158.7L201.3 158.8L201.4 158.8L201.4 158.8L201.4 158.9L201.5 158.9L201.5 158.9L201.5 158.9L201.5 158.9L201.6 159.0L201.6 159.0L201.8 159.1L201.9 159.1L201.9 159.2L201.9 159.2L202.0 159.2L202.0 159.2L202.0 159.2L202.1 159.2L202.1 159.3L202.2 159.3L202.2 159.3L202.2 159.3L202.3 159.3L202.3 159.3L202.3 159.4L202.5 159.4L202.6 159.4L202.6 159.5L202.6 159.5L202.7 159.5L202.8 159.5L202.8 159.5L202.9 159.5L202.9 159.5L202.9 159.5L203.0 159.5L203.0 159.5L203.1 159.5L203.2 159.5L203.2 159.6L203.2 159.6L203.3 159.6L203.3 159.6L203.3 159.6L203.6 159.6L203.7 159.6L203.8 159.6L203.8 159.6L205.4 159.7L207.6 160.6L209.4 162.2L210.5 164.3L210.8 166.3L210.7 167.1L210.7 167.4L210.7 167.4L210.7 167.5L210.7 167.5L210.7 167.5L210.7 167.7L210.7 167.7L210.7 167.8L210.7 167.9L210.6 167.9L210.6 168.0L210.7 168.0L210.7 168.1L210.7 168.2L210.7 168.2L210.7 168.3L210.7 168.4L210.7 168.4L210.7 168.4L210.7 168.5L210.7 168.5L210.8 169.6L210.7 170.4L210.4 171.9L209.5 173.7L208.0 175.1L206.2 176.0L204.3 176.3L204.3 176.3L203.0 176.3L202.9 176.3L202.9 176.2L202.8 176.2L202.8 176.2L202.7 176.2L202.7 176.2L202.7 176.2L202.6 176.2L202.6 176.2L202.5 176.2L202.3 176.2L202.2 176.2L202.2 176.2L202.2 176.2L202.1 176.2L202.1 176.2L202.0 176.2L202.0 176.2L202.0 176.2L201.9 176.2L201.9 176.3L201.8 176.3L201.6 176.3L201.6 176.3L200.7 176.4L198.9 176.1L197.3 175.4L195.1 173.4L195.1 173.3L195.0 173.3L195.0 173.2L195.0 173.2L195.0 173.2L195.0 173.1L194.9 173.1L194.9 173.1L194.9 173.0L194.8 173.0L194.8 172.9L194.8 172.9L194.7 172.9L194.6 172.8L194.6 172.7L194.5 172.7L194.5 172.7L194.5 172.6L194.4 172.6L194.4 172.6L194.4 172.5L194.3 172.5L194.3 172.5L194.3 172.5L194.2 172.5L194.2 172.4L194.0 172.3L193.9 172.3L193.9 172.3L193.9 172.2L193.8 172.2L193.8 172.2L193.8 172.2L193.8 172.2L193.7 172.1L193.6 172.1L193.6 172.1L193.5 172.1L193.5 172.1L193.4 172.0L193.4 172.0L193.4 172.0L193.3 172.0L193.3 172.0L193.3 172.0L193.2 172.0L193.1 171.9L193.1 171.9L193.0 171.9L193.0 171.9L192.9 171.9L192.9 171.9L192.9 171.9L192.8 171.9L192.8 171.9L192.7 171.9L192.7 171.9L192.6 171.9L192.6 171.9L192.6 171.9L192.5 171.9L192.5 171.9L192.5 171.8L192.4 171.8L192.4 171.8L192.2 171.8L192.2 171.8L192.2 171.8L192.1 171.9L192.1 171.9L192.0 171.9L192.0 171.9L192.0 171.9L191.9 171.9L191.9 171.9L191.9 171.9L191.8 171.9L191.8 171.9L191.8 171.9L191.7 171.9L191.7 171.9L191.6 171.9L191.6 171.9L191.5 171.9L191.5 171.9L191.5 172.0L191.4 172.0L191.4 172.0L191.3 172.0L191.2 172.0L191.1 172.1L191.1 172.1L191.0 172.1L191.0 172.1L190.9 172.2L190.9 172.2L190.8 172.2L190.8 172.2L190.7 172.2L190.7 172.3L190.7 172.3L190.6 172.3L190.6 172.3L190.4 172.4L190.4 172.5L190.4 172.5L190.3 172.5L190.3 172.5L190.3 172.5L190.2 172.6L190.2 172.6L190.2 172.6L190.1 172.7L190.1 172.7L190.1 172.7L190.0 172.8L190.0 172.8L190.0 172.8L189.9 172.8L189.9 172.9L189.9 172.9L189.8 172.9L189.8 173.0L189.7 173.0L189.7 173.1L189.7 173.1L189.7 173.1L189.6 173.2L189.6 173.2L189.6 173.3L189.6 173.3L189.5 173.3L189.5 173.4L187.8 175.1L185.7 176.1L185.7 176.1L184.9 176.3L184.9 176.3L183.9 176.4L183.0 176.3L182.3 176.1L180.3 175.3L178.7 173.9L177.6 172.0L177.6 172L177.6 171.9L177.6 171.9L177.5 171.8L177.5 171.8L177.5 171.7L177.5 171.7L177.5 171.7L177.5 171.6L177.5 171.6L177.4 171.6L177.4 171.5L177.4 171.5L177.4 171.5L177.4 171.5L177.3 171.3L177.3 171.3L177.2 171.3L177.2 171.2L177.2 171.2L177.2 171.2L177.2 171.1L177.1 171.1L177.1 171.0L177.0 171.0L177.0 170.9L176.9 170.9L176.9 170.9L176.9 170.8L176.9 170.8L176.8 170.8L176.8 170.8L176.8 170.7L176.7 170.7L176.6 170.6L176.6 170.6L176.6 170.6L176.6 170.5L176.5 170.5L176.5 170.5L176.4 170.4L176.4 170.4L176.4 170.4L176.3 170.4L176.3 170.4L176.2 170.3L176.2 170.3L176.1 170.2L176.1 170.2L176.0 170.2L176.0 170.2L176.0 170.2L175.9 170.1L175.9 170.1L175.9 170.1L175.8 170.1L175.8 170.1L175.7 170.0L175.7 170.0L175.7 170.0L175.4 169.9L175.4 169.9L175.3 169.9L175.3 169.9L175.3 169.9L175.2 169.9L175.2 169.9L175.1 169.9L175.1 169.9L175.0 169.8L175.0 169.8L174.9 169.8L174.9 169.8L174.8 169.8L174.8 169.8L174.8 169.8L174.7 169.8L174.7 169.8L174.6 169.8L174.6 169.8L174.5 169.8L174.5 169.8L174.4 169.8L174.4 169.8L174.3 169.8L174.3 169.8L174.2 169.8L174.2 169.8L174.1 169.8L174.1 169.8L174.1 169.8L174.0 169.8L174.0 169.8L173.9 169.8L173.9 169.8L173.9 169.9L173.8 169.9L173.8 169.9L173.7 169.9L173.7 169.9L173.6 169.9L173.6 169.9L173.5 169.9L173.5 170.0L173.4 170.0L173.4 170.0L173.3 170.0L173.3 170.0L173.2 170.0L173.2 170.1L173.2 170.1L173.1 170.1L173.1 170.1L173.1 170.1L173.0 170.1L173.0 170.2L172.9 170.2L172.9 170.2L172.9 170.2L172.8 170.2L172.6 170.4L172.5 170.4L172.5 170.4L172.5 170.5L172.5 170.5L172.4 170.5L172.4 170.5L172.4 170.5L172.3 170.6L172.3 170.6L172.2 170.7L172.2 170.7L172.2 170.7L172.1 170.7L172.1 170.8L172.1 170.8L172.0 170.9L169.9 172.4L167.4 173.0L166.8 173.0L166.7 173.0L166.6 173.0L166.6 173.0L166.5 173.0L166.5 173.0L166.4 173.0L166.4 173.0L166.3 173.0L166.3 173.0L166.2 173.0L166.2 173.0L166.2 173.0L166.1 173.0L166.1 173.0L166.0 173.0L166.0 173.0L165.9 173.0L165.9 173.0L165.9 173.0L165.8 173.1L165.8 173.1L165.7 173.1L165.7 173.1L165.7 173.1L165.6 173.1L165.6 173.1L165.3 173.2L165.3 173.2L165.3 173.2L165.2 173.2L165.1 173.3L165.1 173.3L165.1 173.3L165.0 173.3L165.0 173.3L165.0 173.4L164.9 173.4L164.9 173.4L164.9 173.4L164.8 173.4L164.6 173.6L164.6 173.6L164.6 173.6L164.6 173.6L164.5 173.6L164.5 173.7L164.4 173.7L164.4 173.8L164.3 173.8L164.3 173.8L164.2 173.9L164.2 173.9L164.2 173.9L164.2 174.0L164.1 174.0L164.1 174.0L164.0 174.1L164.0 174.1L164.0 174.2L163.9 174.2L163.9 174.3L163.8 174.3L163.8 174.3L163.8 174.4L163.8 174.4L163.8 174.4L163.7 174.5L163.7 174.6L163.7 174.6L163.6 174.6L163.6 174.7L163.6 174.7L163.6 174.8L163.5 174.8L163.5 174.8L163.5 174.9L163.5 174.9L163.5 174.9L163.4 175.0L163.4 175.1L163.4 175.1L163.4 175.1L163.4 175.2L163.3 175.4L163.3 175.5L163.3 175.5L163.3 175.5L163.3 175.6L163.2 175.6L163.2 175.7L163.2 175.7L163.2 175.8L163.2 175.8L163.2 175.8L163.2 175.9L163.2 175.9L163.2 176.0L163.2 176.0L163.2 176.1L163.2 176.1L163.2 176.1L163.2 176.2L163.2 176.3L163.2 176.3L163.2 176.4L163.2 176.4L163.2 176.5L163.2 176.5L163.2 176.6L163.2 176.6L163.2 176.6L163.2 176.7L163.2 176.7L163.2 176.7L163.2 176.8L163.2 176.8L163.2 176.8L163.2 176.9L163.2 176.9L163.2 177.0L163.2 177.0L163.2 177.0L163.3 177.1L163.3 177.2L163.3 177.2L163.3 177.2L163.3 177.3L163.3 177.4L163.3 177.4L163.4 177.5L163.7 179.3L165.5 179.6L165.6 179.6L165.6 179.6L165.7 179.6L165.8 179.6L165.8 179.6L165.8 179.6L165.9 179.7L165.9 179.7L165.9 179.7L166.0 179.7L166.0 179.7L166.4 179.8L166.7 179.7L166.7 179.7L168.7 179.9L170.6 180.7L172.2 182.0L173.3 183.7L173.7 185.3L173.8 186.2L173.8 186.2L173.5 188.4L172.5 190.4L170.9 192.0L168.9 192.9L167.4 193.1L166.1 193.1L166.0 193.1L165.6 192.9L165.3 193.0L165.2 193.0L165.1 193.0L165.1 193.0L165.1 193.0L165.0 193.0L165.0 193.0L164.9 193.0L164.9 193.1L164.8 193.1L162.6 193.1L161.2 192.6L161.2 192.6L159.5 191.6L158.2 190.2L157.6 189.0L158.3 188.3L159.2 186.3L157.4 188.7L157.3 188.4L157.3 188.4L157.3 188.3L157.3 188.3L157.3 188.3L157.3 188.2 Z M 137.8 173.0L137.3 172.1L137.2 171.5L137.8 170.8L138.6 171.8 Z M 139.6 164.2L139.6 164.2L139.6 164.1L139.7 164.0L139.8 164.0L139.8 164.0L139.8 163.9L139.8 163.9L139.8 163.9L139.9 163.8L139.9 163.8L139.9 163.8L139.9 163.8L139.7 164.2 Z M 140.2 163.2L140.2 163.2L140.2 163.2L140.2 163.2L140.3 163.1L140.3 163.1L140.3 163.1L140.3 163.0L140.4 162.8L140.4 162.8L140.4 162.7L140.4 162.7L140.4 162.7L140.4 162.6L140.4 162.6L140.4 162.6L140.4 162.5L140.4 162.5L140.5 162.5L140.5 162.4L140.5 162.4L140.5 162.4L140.5 162.3L140.5 162.3L140.5 162.2L140.5 162.2L140.5 162.1L140.5 162.1L140.5 162.1L140.5 162.0L140.5 162.0L140.5 161.8L140.5 161.7L140.5 161.7L140.5 161.6L140.5 161.6L140.5 161.6L140.5 161.5L140.5 161.5L140.5 161.4L140.5 161.4L140.5 161.4L140.4 161.3L140.4 161.2L140.4 161.1L140.4 161.1L140.2 159.5L140.2 159.5L140.4 158.2L143.8 160.2L146.6 158.9L148.7 159.8L148.1 161.9L144.3 165.2L142.5 167.6L140.8 168.1L140.4 166.9L141.8 164.1L140.7 162.3 Z M 140.8 156.7L140.8 156.7L140.8 156.6L140.8 156.6L140.8 156.6L140.8 156.5L140.8 156.5L140.8 156.5L140.8 156.4L140.8 156.4L140.8 156.3L140.8 156.3L140.8 156.2L140.8 156.2L140.8 156.1L140.8 156.0L140.8 156.0L140.8 156.0L140.8 155.9L140.8 155.9L140.8 155.9L140.8 155.8L140.8 155.8L140.8 155.8L140.8 155.7L140.8 155.7L140.8 155.6L140.8 155.6L140.7 155.5L140.7 155.5L140.7 155.4L140.7 155.4L140.7 155.3L140.7 155.2L140.6 155.2L140.6 155.1L140.6 155.0L140.5 154.8L140.4 152.8L142.0 150.0L141.9 155.9 Z M 194.0 270.4L194.0 269.8L194.1 269.3L194.1 269.3L194.1 269.2L194.1 269.0L194.1 269.0L194.1 268.9L194.1 268.9L194.1 268.8L194.1 268.7L194.1 268.6L194.1 268.6L194.1 268.5L194.1 268.4L194.1 268.3L194.1 268.2L194.1 268.2L194.0 267.3L194.0 267.3L194.1 266.1L194.5 264.4L195.5 262.8L197.3 261.3L199.6 260.4L202.1 260.5L202.1 260.5L204.1 261.2L205.7 262.6L206.9 264.4L207.4 266.5L207.4 266.5L207.4 266.7L207.4 266.8L207.5 266.8L207.5 266.9L207.5 266.9L207.5 267.0L207.5 267.0L207.5 267.1L207.5 267.1L207.5 267.1L207.5 267.2L207.6 267.3L207.6 267.3L207.6 267.4L207.6 267.4L207.6 267.5L207.6 267.5L207.7 267.6L207.7 267.6L207.7 267.6L207.7 267.7L207.8 267.8L207.8 267.8L207.8 267.8L207.8 267.9L207.8 267.9L207.9 267.9L207.9 268.0L207.9 268.0L208.1 268.5L208.5 268.8L208.5 268.8L209.7 270.1L210.5 271.8L210.8 273.6L210.8 273.8L210.5 275.7L209.7 277.5L208.4 278.9L206.8 279.9L205.2 280.4L204.2 280.5L204.3 280.3L204.8 275.1L199.6 278.7L198.3 277.3L198.3 277.3L198.1 276.8L197.7 276.5L197.7 276.5L197.6 276.4L197.5 276.4L197.5 276.4L197.5 276.3L197.4 276.3L197.4 276.3L197.4 276.3L197.4 276.3L197.3 276.2L197.3 276.2L197.2 276.2L197.2 276.1L195.7 274.9L194.7 273.4L194.1 271.5 Z M 210.7 248.0L210.0 250.1L208.6 251.9L206.7 253.1L205.2 253.5L204.1 253.6L201.7 253.2L201.7 253.2L199.9 252.2L198.5 250.6L197.9 249.6L197.6 248.4L198.8 248.4L200.5 248.0L200.6 247.1L197.4 246.8L197.5 245.5L198.2 243.7L199.3 242.2L201.5 240.7L204.0 240.2L204.0 240.2L205.6 240.4L205.6 240.4L207.6 241.2L209.2 242.6L210.3 244.4L210.8 246.5 Z M 143.1 157.5L142.7 158.6L141.4 157.2 Z M 143.0 147.5L142.7 149.7L142.3 148.8 Z M 143.0 147.5 "/>
















</g>
</svg>
