<?xml version="1.0" encoding="UTF-8" standalone="no"?>
<svg width="378px" height="504px" viewBox="0 0 378 504" version="1.1" xmlns="http://www.w3.org/2000/svg" xmlns:xlink="http://www.w3.org/1999/xlink" xmlns:sketch="http://www.bohemiancoding.com/sketch/ns">
    <!-- Generator: Sketch 3.2.2 (9983) - http://www.bohemiancoding.com/sketch -->
    <title>Slice 1</title>
    <desc>Created with Sketch.</desc>
    <defs></defs>
    <g id="Page-1" stroke="none" stroke-width="1" fill="none" fill-rule="evenodd" sketch:type="MSPage">
        <g id="data" sketch:type="MSLayerGroup">
            <rect id="Rectangle-path" fill="#FFFFFF" sketch:type="MSShapeGroup" x="0" y="0" width="378" height="504"></rect>
            <path d="M21,504 L357,504 L357,0 L21,0 L21,504 Z" id="Shape" fill="#FFFFFF" sketch:type="MSShapeGroup"></path>
            <path d="M206.2,304.1 L208.8,304.2 L209.9,304.5 L211.6,305.5 L212.9,306.9 L213.2,307.2 L213.2,307.3 L213.2,307.4 L213.3,307.4 L213.3,307.5 L213.4,307.5 L213.4,307.6 L213.5,307.7 L213.6,307.8 L213.7,307.9 L213.8,308 L213.8,308.1 L213.9,308.1 L214,308.1 L214,308.2 L214.1,308.2 L214.1,308.3 L214.2,308.3 L214.3,308.4 L216,309.9 L216.9,311.3 L217.4,312.9 L217.5,313.4 L217.5,314.8 L217.1,316.3 L217.1,316.4 L217.1,316.5 L217.1,316.6 L217,316.6 L217,316.7 L217,316.9 L217,317 L217,317.1 L216.9,317.2 L216.9,317.3 L216.9,317.4 L216.9,317.6 L216.9,317.7 L216.9,317.8 L217,317.8 L217,317.9 L217,318 L217,318.1 L217,318.2 L217,318.3 L217,318.4 L217.1,318.4 L217.1,318.6 L217.1,318.7 L217.2,318.7 L217.2,318.8 L217.2,318.9 L217.3,318.9 L217.3,319 L217.3,319.1 L217.4,319.1 L217.4,319.2 L217.5,319.3 L218.3,321.1 L218.3,321.4 L218.5,321.3 L220.5,320.8 L220.8,320.8 L222,320.9 L222.5,321.1 L223.1,320.9 L224,320.8 L226.3,321.2 L228.4,322.3 L229.9,324 L230.7,325.6 L231,327.3 L231,327.4 L230.6,329.6 L229.6,331.5 L228.1,333.1 L226.1,334 L224.6,334.3 L224.3,334.3 L223.1,334.2 L222.5,334 L222,334.2 L220.9,334.3 L218.8,333.9 L216.9,332.9 L215.4,331.5 L214.5,329.7 L214.4,329.1 L214.2,329.2 L212.2,329.6 L212.1,329.6 L212,329.6 L211.9,329.6 L211.9,329.7 L211.8,329.7 L211.5,329.7 L211.4,329.8 L211.3,329.8 L211.2,329.8 L211.1,329.9 L211,329.9 L210.9,330 L210.8,330 L210.7,330.1 L207.7,330.9 L207.3,330.9 L206.3,330.8 L206.2,330.8 L206.1,330.8 L206,330.8 L205.9,330.8 L205.8,330.8 L205.7,330.8 L205.6,330.8 L205.5,330.8 L205.4,330.8 L205.3,330.8 L205.2,330.8 L203.7,330.9 L201.2,330.3 L199.1,328.7 L198.1,327.2 L197.5,325.5 L197.4,324.9 L197.4,324.5 L197.4,324.4 L197.7,321.9 L199,319.8 L199.7,319 L199.8,319 L199.9,319 L199.9,318.9 L200,318.8 L200.1,318.7 L200.2,318.6 L200.3,318.5 L200.3,318.4 L200.4,318.4 L200.4,318.3 L200.5,318.1 L200.6,318.1 L200.6,318 L200.6,317.9 L200.7,317.9 L200.7,317.8 L200.7,317.7 L200.8,317.7 L200.8,317.6 L200.8,317.4 L200.9,317.3 L200.9,317.2 L200.9,317.1 L200.9,317 L200.9,316.9 L201,316.9 L201,316.8 L201,316.7 L201,316.6 L201,316.5 L201,316.4 L201,316.3 L201,316.2 L201,316.1 L201,316 L200.9,316 L200.9,315.9 L200.9,315.8 L200.9,315.7 L200.9,315.6 L200.7,314.7 L200.8,313 L200.8,312.9 L200.8,312.8 L200.8,312.7 L200.8,312.6 L200.8,312.3 L200.8,312.2 L200.8,312.1 L200.8,312 L200.8,311.9 L200.8,311.8 L200.7,311.1 L200.7,310.8 L200.7,310.7 L201.1,308.5 L201.2,308.3 L202.8,310.1 L205.2,309.9 L206.9,307.7 L203.5,308.8 L201.6,307.6 L202.2,306.5 L204,305 L206.2,304.1 L206.2,304.1 Z M156.9,186.4 L155.1,186.1 L152.9,185 L158.6,176.8 L151.5,183.5 L151.3,183.2 L151.2,183.1 L151.2,183 L151.1,183 L151.1,182.9 L150.9,182.7 L150.8,182.6 L150.7,182.5 L150.5,182.3 L150.4,182.3 L150.4,182.2 L150.3,182.2 L150.1,182.1 L148.9,181 L149.5,180.9 L148.6,180.7 L148.4,180.6 L147.3,178.6 L147.3,178.5 L147.3,178.4 L147.2,178.4 L147.2,178.3 L147.2,178.2 L147.1,178.1 L147.1,178 L147,177.8 L146.9,177.8 L146.9,177.7 L146.8,177.7 L146.8,177.6 L146.7,177.5 L146.7,177.4 L146.6,177.4 L146.5,177.3 L146.4,177.2 L146.3,177.1 L146.2,177.1 L146.2,177 L146.1,177 L146.1,176.9 L146,176.9 L145.9,176.8 L145.8,176.8 L145.8,176.7 L145.7,176.7 L145.6,176.7 L145.6,176.6 L145.5,176.6 L145.4,176.6 L145.3,176.6 L145.3,176.5 L145.1,176.5 L145,176.5 L145,176.4 L144.9,176.4 L144.8,176.4 L144.7,176.4 L144.6,176.4 L144.5,176.4 L144.5,176.3 L144.4,176.3 L144.3,176.3 L144.1,176.3 L143.6,175.6 L147.5,174.4 L146.1,173.2 L142.3,173.2 L144.9,168.8 L148.2,170.4 L150.7,169.6 L148.5,169.9 L145.5,167.4 L146.8,165.1 L150.6,166.2 L153.4,165.7 L150.4,165.1 L148.4,163.3 L148.6,160.6 L150.6,159.9 L153.5,161 L150.3,158.8 L149.8,157.1 L153,153.9 L146.4,156.5 L145.4,155.6 L144.6,151.2 L145.4,147.7 L149.1,150.4 L152,149.5 L148.8,148.9 L146.2,145.4 L146.4,138.5 L146.8,137.2 L148.5,136.8 L150.6,140.7 L151.2,138.4 L150,136.6 L150.7,134.9 L153.7,137.5 L154.3,135.9 L156.1,135.3 L160.7,138.1 L159.7,135.7 L159.8,135.8 L159.9,135.8 L160,135.8 L160.1,135.9 L160.2,135.9 L160.3,135.9 L160.4,136 L160.5,136 L160.6,136 L160.7,136 L160.8,136 L160.9,136 L161,136.1 L161.4,136.1 L164.2,137.2 L166.1,139.2 L166.2,139.3 L166.2,139.4 L166.3,139.4 L166.3,139.5 L166.3,139.6 L166.4,139.6 L166.5,139.8 L166.6,139.9 L166.7,140 L166.8,140 L166.9,140.1 L167,140.2 L167.1,140.3 L167.3,140.4 L168.8,141.6 L168.8,141.7 L168.9,141.7 L168.9,141.8 L169,141.8 L169,141.9 L169.1,141.9 L169.1,142 L169.2,142.1 L169.3,142.1 L169.4,142.2 L169.6,142.3 L169.7,142.4 L169.8,142.4 L169.9,142.5 L170,142.5 L170.1,142.5 L170.1,142.6 L170.2,142.6 L170.3,142.6 L170.4,142.7 L170.5,142.7 L170.6,142.7 L170.7,142.7 L170.8,142.7 L170.9,142.8 L171,142.8 L171.1,142.8 L171.6,142.8 L171.7,142.9 L171.8,142.9 L171.9,142.9 L172,142.9 L172.3,142.9 L172.4,142.9 L172.5,142.9 L172.6,142.9 L172.7,142.8 L174,142.8 L174.9,142.8 L175,142.8 L175,142.9 L175.1,142.9 L175.2,142.9 L175.3,142.9 L175.4,142.9 L175.6,142.9 L175.7,142.9 L175.8,142.9 L175.9,142.9 L176,142.9 L176,142.8 L176.1,142.8 L176.9,142.8 L177.6,142.8 L180.2,143.5 L180.5,143.7 L176.6,145.3 L174.1,148 L173.8,149.1 L177.5,145.9 L180.9,145.8 L181.5,146.7 L178.1,150.6 L177.8,152.3 L184.9,148.8 L185,148.9 L185.1,148.9 L185.2,149 L185.3,149 L185.4,149.1 L185.7,149.2 L185.8,149.2 L185.9,149.2 L186,149.2 L186.1,149.3 L186.2,149.3 L186.3,149.3 L186.4,149.3 L186.5,149.3 L186.6,149.3 L186.7,149.3 L186.8,149.3 L186.9,149.3 L187,149.3 L187.1,149.3 L187.2,149.3 L187.2,149.2 L187.3,149.2 L187.4,149.2 L187.5,149.2 L187.6,149.2 L187.6,149.1 L187.7,149.1 L187.8,149.1 L187.9,149.1 L187.9,149 L188,149 L188.1,149 L188.1,148.9 L188.2,148.9 L188.3,148.9 L188.3,148.8 L188.4,148.8 L188.5,148.8 L188.5,148.7 L188.6,148.7 L188.6,148.6 L188.7,148.6 L188.8,148.5 L188.9,148.4 L189,148.4 L189,148.3 L189.1,148.2 L190.6,147.2 L190.6,147.1 L190.7,147.1 L191.2,146.7 L193.7,146.1 L194.4,146.1 L197,146.8 L198.6,147.9 L199.8,149.5 L200.5,151.3 L200.7,153.2 L200.3,155 L200.3,155.2 L200.3,155.3 L200.2,155.3 L200.2,155.4 L200.2,155.5 L200.2,155.6 L200.2,155.7 L200.2,155.8 L200.1,155.8 L200.1,155.9 L200.1,156 L200.1,156.1 L200.1,156.3 L200.1,156.4 L200.1,156.5 L200.1,156.6 L200.2,156.6 L200.2,156.7 L200.2,156.8 L200.2,156.9 L200.2,157 L200.2,157.1 L200.3,157.1 L200.3,157.2 L200.3,157.3 L200.4,157.4 L200.4,157.5 L200.4,157.6 L200.5,157.6 L200.5,157.7 L200.5,157.8 L200.6,157.8 L200.6,157.9 L200.7,158 L200.7,158.1 L200.8,158.2 L200.8,158.3 L200.9,158.3 L200.9,158.4 L201,158.5 L201.1,158.5 L201.1,158.6 L201.2,158.6 L201.2,158.7 L201.3,158.7 L201.3,158.8 L201.4,158.8 L201.4,158.9 L201.5,158.9 L201.6,159 L201.8,159.1 L201.9,159.1 L201.9,159.2 L202,159.2 L202.1,159.2 L202.1,159.3 L202.2,159.3 L202.3,159.3 L202.3,159.4 L202.5,159.4 L202.6,159.4 L202.6,159.5 L202.7,159.5 L202.8,159.5 L202.9,159.5 L203,159.5 L203.1,159.5 L203.2,159.5 L203.2,159.6 L203.3,159.6 L203.6,159.6 L203.7,159.6 L203.8,159.6 L205.4,159.7 L207.6,160.6 L209.4,162.2 L210.5,164.3 L210.8,166.3 L210.7,167.1 L210.7,167.4 L210.7,167.5 L210.7,167.7 L210.7,167.8 L210.7,167.9 L210.6,167.9 L210.6,168 L210.7,168 L210.7,168.1 L210.7,168.2 L210.7,168.3 L210.7,168.4 L210.7,168.5 L210.8,169.6 L210.7,170.4 L210.4,171.9 L209.5,173.7 L208,175.1 L206.2,176 L204.3,176.3 L203,176.3 L202.9,176.3 L202.9,176.2 L202.8,176.2 L202.7,176.2 L202.6,176.2 L202.5,176.2 L202.3,176.2 L202.2,176.2 L202.1,176.2 L202,176.2 L201.9,176.2 L201.9,176.3 L201.8,176.3 L201.6,176.3 L200.7,176.4 L198.9,176.1 L197.3,175.4 L195.1,173.4 L195.1,173.3 L195,173.3 L195,173.2 L195,173.1 L194.9,173.1 L194.9,173 L194.8,173 L194.8,172.9 L194.7,172.9 L194.6,172.8 L194.6,172.7 L194.5,172.7 L194.5,172.6 L194.4,172.6 L194.4,172.5 L194.3,172.5 L194.2,172.5 L194.2,172.4 L194,172.3 L193.9,172.3 L193.9,172.2 L193.8,172.2 L193.7,172.1 L193.6,172.1 L193.5,172.1 L193.4,172 L193.3,172 L193.2,172 L193.1,171.9 L193,171.9 L192.9,171.9 L192.8,171.9 L192.7,171.9 L192.6,171.9 L192.5,171.9 L192.5,171.8 L192.4,171.8 L192.2,171.8 L192.1,171.9 L192,171.9 L191.9,171.9 L191.8,171.9 L191.7,171.9 L191.6,171.9 L191.5,171.9 L191.5,172 L191.4,172 L191.3,172 L191.2,172 L191.1,172.1 L191,172.1 L190.9,172.2 L190.8,172.2 L190.7,172.2 L190.7,172.3 L190.6,172.3 L190.4,172.4 L190.4,172.5 L190.3,172.5 L190.2,172.6 L190.1,172.7 L190,172.8 L189.9,172.8 L189.9,172.9 L189.8,172.9 L189.8,173 L189.7,173 L189.7,173.1 L189.6,173.2 L189.6,173.3 L189.5,173.3 L189.5,173.4 L187.8,175.1 L185.7,176.1 L184.9,176.3 L183.9,176.4 L183,176.3 L182.3,176.1 L180.3,175.3 L178.7,173.9 L177.6,172 L177.6,171.9 L177.5,171.8 L177.5,171.7 L177.5,171.6 L177.4,171.6 L177.4,171.5 L177.3,171.3 L177.2,171.3 L177.2,171.2 L177.2,171.1 L177.1,171.1 L177.1,171 L177,171 L177,170.9 L176.9,170.9 L176.9,170.8 L176.8,170.8 L176.8,170.7 L176.7,170.7 L176.6,170.6 L176.6,170.5 L176.5,170.5 L176.4,170.4 L176.3,170.4 L176.2,170.3 L176.1,170.2 L176,170.2 L175.9,170.1 L175.8,170.1 L175.7,170 L175.4,169.9 L175.3,169.9 L175.2,169.9 L175.1,169.9 L175,169.8 L174.9,169.8 L174.8,169.8 L174.7,169.8 L174.6,169.8 L174.5,169.8 L174.4,169.8 L174.3,169.8 L174.2,169.8 L174.1,169.8 L174,169.8 L173.9,169.8 L173.9,169.9 L173.8,169.9 L173.7,169.9 L173.6,169.9 L173.5,169.9 L173.5,170 L173.4,170 L173.3,170 L173.2,170 L173.2,170.1 L173.1,170.1 L173,170.1 L173,170.2 L172.9,170.2 L172.8,170.2 L172.6,170.4 L172.5,170.4 L172.5,170.5 L172.4,170.5 L172.3,170.6 L172.2,170.7 L172.1,170.7 L172.1,170.8 L172,170.9 L169.9,172.4 L167.4,173 L166.8,173 L166.7,173 L166.6,173 L166.5,173 L166.4,173 L166.3,173 L166.2,173 L166.1,173 L166,173 L165.9,173 L165.8,173.1 L165.7,173.1 L165.6,173.1 L165.3,173.2 L165.2,173.2 L165.1,173.3 L165,173.3 L165,173.4 L164.9,173.4 L164.8,173.4 L164.6,173.6 L164.5,173.6 L164.5,173.7 L164.4,173.7 L164.4,173.8 L164.3,173.8 L164.2,173.9 L164.2,174 L164.1,174 L164,174.1 L164,174.2 L163.9,174.2 L163.9,174.3 L163.8,174.3 L163.8,174.4 L163.7,174.5 L163.7,174.6 L163.6,174.6 L163.6,174.7 L163.6,174.8 L163.5,174.8 L163.5,174.9 L163.4,175 L163.4,175.1 L163.4,175.2 L163.3,175.4 L163.3,175.5 L163.3,175.6 L163.2,175.6 L163.2,175.7 L163.2,175.8 L163.2,175.9 L163.2,176 L163.2,176.1 L163.2,176.2 L163.2,176.3 L163.2,176.4 L163.2,176.5 L163.2,176.6 L163.2,176.7 L163.2,176.8 L163.2,176.9 L163.2,177 L163.3,177.1 L163.3,177.2 L163.3,177.3 L163.3,177.4 L163.4,177.5 L163.7,179.3 L165.5,179.6 L165.6,179.6 L165.7,179.6 L165.8,179.6 L165.9,179.7 L166,179.7 L166.4,179.8 L166.7,179.7 L168.7,179.9 L170.6,180.7 L172.2,182 L173.3,183.7 L173.7,185.3 L173.8,186.2 L173.5,188.4 L172.5,190.4 L170.9,192 L168.9,192.9 L167.4,193.1 L166.1,193.1 L166,193.1 L165.6,192.9 L165.3,193 L165.2,193 L165.1,193 L165,193 L164.9,193 L164.9,193.1 L164.8,193.1 L162.6,193.1 L161.2,192.6 L159.5,191.6 L158.2,190.2 L157.6,189 L158.3,188.3 L159.2,186.3 L157.4,188.7 L157.3,188.4 L157.3,188.3 L157.3,188.2 L156.9,186.4 Z M137.8,173 L137.3,172.1 L137.2,171.5 L137.8,170.8 L138.6,171.8 L137.8,173 Z M139.6,164.2 L139.6,164.2 L139.6,164.1 L139.7,164 L139.8,164 L139.8,163.9 L139.9,163.8 L139.7,164.2 L139.6,164.2 Z M140.2,163.2 L140.2,163.2 L140.3,163.1 L140.3,163 L140.4,162.8 L140.4,162.7 L140.4,162.6 L140.4,162.5 L140.5,162.5 L140.5,162.4 L140.5,162.3 L140.5,162.2 L140.5,162.1 L140.5,162 L140.5,161.8 L140.5,161.7 L140.5,161.6 L140.5,161.5 L140.5,161.4 L140.4,161.3 L140.4,161.2 L140.4,161.1 L140.2,159.5 L140.4,158.2 L143.8,160.2 L146.6,158.9 L148.7,159.8 L148.1,161.9 L144.3,165.2 L142.5,167.6 L140.8,168.1 L140.4,166.9 L141.8,164.1 L140.7,162.3 L140.2,163.2 Z M140.8,156.7 L140.8,156.7 L140.8,156.6 L140.8,156.5 L140.8,156.4 L140.8,156.3 L140.8,156.2 L140.8,156.1 L140.8,156 L140.8,155.9 L140.8,155.8 L140.8,155.7 L140.8,155.6 L140.7,155.5 L140.7,155.4 L140.7,155.3 L140.7,155.2 L140.6,155.2 L140.6,155.1 L140.6,155 L140.5,154.8 L140.4,152.8 L142,150 L141.9,155.9 L140.8,156.7 Z M194,270.4 L194,269.8 L194.1,269.3 L194.1,269.2 L194.1,269 L194.1,268.9 L194.1,268.8 L194.1,268.7 L194.1,268.6 L194.1,268.5 L194.1,268.4 L194.1,268.3 L194.1,268.2 L194,267.3 L194.1,266.1 L194.5,264.4 L195.5,262.8 L197.3,261.3 L199.6,260.4 L202.1,260.5 L204.1,261.2 L205.7,262.6 L206.9,264.4 L207.4,266.5 L207.4,266.7 L207.4,266.8 L207.5,266.8 L207.5,266.9 L207.5,267 L207.5,267.1 L207.5,267.2 L207.6,267.3 L207.6,267.4 L207.6,267.5 L207.7,267.6 L207.7,267.7 L207.8,267.8 L207.8,267.9 L207.9,267.9 L207.9,268 L208.1,268.5 L208.5,268.8 L209.7,270.1 L210.5,271.8 L210.8,273.6 L210.8,273.8 L210.5,275.7 L209.7,277.5 L208.4,278.9 L206.8,279.9 L205.2,280.4 L204.2,280.5 L204.3,280.3 L204.8,275.1 L199.6,278.7 L198.3,277.3 L198.1,276.8 L197.7,276.5 L197.6,276.4 L197.5,276.4 L197.5,276.3 L197.4,276.3 L197.3,276.2 L197.2,276.2 L197.2,276.1 L195.7,274.9 L194.7,273.4 L194.1,271.5 L194,270.4 Z M210.7,248 L210,250.1 L208.6,251.9 L206.7,253.1 L205.2,253.5 L204.1,253.6 L201.7,253.2 L199.9,252.2 L198.5,250.6 L197.9,249.6 L197.6,248.4 L198.8,248.4 L200.5,248 L200.6,247.1 L197.4,246.8 L197.5,245.5 L198.2,243.7 L199.3,242.2 L201.5,240.7 L204,240.2 L205.6,240.4 L207.6,241.2 L209.2,242.6 L210.3,244.4 L210.8,246.5 L210.7,248 Z M143.1,157.5 L142.7,158.6 L141.4,157.2 L143.1,157.5 Z M143,147.5 L142.7,149.7 L142.3,148.8 L143,147.5 Z" id="Shape" fill="#C2B855" sketch:type="MSShapeGroup"></path>
        </g>
    </g>
</svg>