<?xml version="1.0" encoding="UTF-8"?>
<svg xmlns="http://www.w3.org/2000/svg" xmlns:xlink="http://www.w3.org/1999/xlink" width="378pt" height="504pt" viewBox="0 0 378 504" version="1.1">
<g id="data">
<rect x="0" y="0" width="378" height="504" style="fill:rgb(100%,100%,100%);fill-opacity:1;stroke:none;"/>
<path style=" stroke:none;fill-rule:nonzero;fill:rgb(100%,100%,100%);fill-opacity:1;" d="M 21 504L357 504L357 0L21 0 Z M 21 504 "/>
<path style=" stroke:none;fill-rule:nonzero;fill:#C2B855;fill-opacity:1;" d="M 188.7 266.4L189.5 265.4L191.3 264.3L193.4 263.7L193.5 263.7L193.5 263.7L193.6 263.7L193.6 263.7L193.7 263.7L193.7 263.7L193.7 263.7L193.8 263.7L193.8 263.7L194.0 263.6L194.1 263.6L194.1 263.6L194.2 263.6L194.2 263.6L194.3 263.6L194.3 263.5L194.3 263.5L194.4 263.5L194.4 263.5L194.5 263.5L194.5 263.5L194.5 263.5L194.6 263.4L194.6 263.4L194.6 263.4L194.7 263.4L194.7 263.4L194.7 263.4L194.8 263.3L194.9 263.3L194.9 263.2L195.0 263.2L195.0 263.2L195.1 263.1L195.1 263.1L195.1 263.1L195.2 263.1L195.2 263.1L195.2 263.0L195.3 263.0L195.3 262.9L195.5 262.8L195.6 262.7L195.7 262.6L195.7 262.6L197.2 261.4L198.9 260.6L199.0 260.6L199.0 260.6L199.0 260.6L199.1 260.5L199.2 260.5L199.2 260.5L199.3 260.5L199.3 260.5L199.3 260.5L199.4 260.4L199.4 260.4L199.4 260.4L199.5 260.4L199.5 260.4L199.6 260.4L199.6 260.3L199.6 260.3L199.7 260.3L199.7 260.3L199.7 260.3L199.9 260.1L200.0 260.1L200.0 260.1L200.0 260.1L200.0 260.1L200.1 260.0L200.1 260.0L200.1 260.0L200.2 260.0L200.2 259.9L200.3 259.8L200.4 259.8L202.2 258.6L202.8 258.4L202.3 258.0L201.2 256.1L201.2 256.1L201.1 255.9L201.1 255.8L201.1 255.8L201.1 255.8L201.0 255.7L201.0 255.7L201.0 255.6L201.0 255.6L201.0 255.6L201 255.5L200.9 255.5L200.9 255.5L200.9 255.4L200.9 255.4L200.9 255.4L200.8 255.3L200.8 255.3L200.8 255.2L200.8 255.2L200.8 255.2L200.7 255.1L200.7 255.1L200.7 255.1L200.7 255.1L200.6 255.0L200.6 255.0L200.6 255.0L200.6 254.9L200.6 254.9L200.5 254.9L200.4 254.7L200.4 254.7L200.3 254.7L200.3 254.6L200.2 254.6L200.2 254.5L200.1 254.4L200.1 254.4L200.0 254.4L200.0 254.3L200.0 254.3L199.9 254.3L199.9 254.3L199.9 254.2L199.8 254.2L199.8 254.2L199.8 254.2L199.7 254.1L199.7 254.1L199.7 254.1L199.6 254.1L199.6 254.1L199.5 254.0L198.8 253.4L197.8 253.6L197.7 253.6L197.7 253.6L195.2 253.3L195.2 253.3L193.5 252.5L192.3 251.3L192.8 250.2L194.9 248.2L198.8 248.4L200.5 248.0L200.6 247.1L188.8 246.1L187.8 250.2L186.9 250.3L184.5 249.7L183.0 248.7L181.8 247.4L181.0 245.9L180.5 243.5L181.0 241.1L182.3 239.0L182.9 238.4L183.0 238.4L183.0 238.3L183.1 238.3L183.1 238.2L183.2 238.2L183.2 238.2L183.2 238.2L183.3 238.1L183.3 238.1L183.3 238.1L183.3 238.0L183.4 237.9L183.5 237.9L183.5 237.9L183.5 237.8L183.5 237.8L183.5 237.8L183.6 237.7L183.6 237.7L183.6 237.6L183.6 237.6L183.7 237.6L183.7 237.6L183.7 237.5L183.7 237.5L183.8 237.4L183.8 237.4L183.8 237.4L183.8 237.3L183.8 237.3L183.8 237.3L183.9 237.2L183.9 237.2L183.9 237.2L183.9 237.1L183.9 237.1L184 237.0L184.0 237.0L184.0 237.0L184.0 236.9L184.0 236.9L184.0 236.8L184.0 236.8L184.1 236.7L184.1 236.7L184.1 236.6L184.1 236.5L184.4 235.8L184.1 235.0L184.1 235.0L183.9 233.5L184.2 231.5L185.0 229.7L186.7 228.0L189.6 226.8L191.0 226.8L191.0 226.8L193.0 227.2L195.4 228.7L196.7 230.5L197.3 232.6L197.3 232.6L197.3 234.1L197.3 234.1L197.2 235.0L197.2 235.0L196.9 235.8L197.2 236.5L197.2 236.6L197.2 236.6L197.2 236.7L197.2 236.7L197.2 236.8L197.3 237.0L197.3 237.0L197.3 237.0L197.3 237.1L197.3 237.1L197.4 237.1L197.4 237.2L197.4 237.2L197.4 237.2L197.4 237.3L197.4 237.3L197.4 237.3L197.5 237.4L197.5 237.4L197.5 237.4L197.5 237.5L197.5 237.5L197.6 237.5L197.6 237.6L197.6 237.6L197.6 237.6L197.6 237.6L197.7 237.7L197.7 237.7L197.7 237.8L197.7 237.8L197.8 237.8L197.8 237.9L197.8 237.9L197.8 237.9L197.9 238.0L197.9 238.0L198.0 238.1L198.0 238.1L198.0 238.1L198.0 238.2L198.1 238.2L198.1 238.2L198.1 238.2L198.2 238.3L198.2 238.3L198.3 238.4L199.2 239.3L200.3 240.7L200.3 240.8L200.7 241.0L200.7 241.0L200.8 241.0L200.8 241.0L200.9 241.1L201.6 241.7L202.6 241.5L202.6 241.5L202.7 241.5L202.7 241.5L202.8 241.5L202.8 241.5L202.8 241.5L202.9 241.5L203.0 241.4L203.0 241.4L203.0 241.4L203.1 241.4L203.4 241.4L203.4 241.3L203.5 241.3L203.5 241.3L203.5 241.3L203.7 241.3L203.7 241.3L203.8 241.2L203.8 241.2L203.9 241.2L203.9 241.2L204.0 241.1L204.0 241.1L204.0 241.1L204.1 241.1L204.2 241.0L204.8 240.7L207.3 240.2L207.3 240.2L208.9 240.4L209.0 240.4L209.1 240.4L209.1 240.4L209.2 240.4L209.2 240.4L209.2 240.4L209.3 240.4L209.3 240.4L209.3 240.4L209.4 240.4L209.5 240.4L209.5 240.5L209.5 240.5L209.6 240.5L209.6 240.5L209.6 240.5L209.7 240.5L209.8 240.5L209.9 240.5L209.9 240.5L210.0 240.5L210.0 240.5L210.1 240.4L210.1 240.4L210.2 240.4L210.2 240.4L210.3 240.4L210.3 240.4L210.4 240.4L210.4 240.4L210.5 240.4L210.5 240.4L210.6 240.4L210.6 240.4L210.6 240.3L210.7 240.3L210.7 240.3L210.9 240.2L211.0 240.2L211.0 240.2L211.1 240.2L211.1 240.2L211.2 240.1L211.2 240.1L211.3 240.1L211.3 240.1L211.3 240.1L211.3 240.1L211.4 240.0L211.4 240.0L211.4 240.0L211.5 240.0L211.6 239.9L211.7 239.9L211.7 239.8L211.7 239.8L211.8 239.8L211.8 239.8L211.8 239.8L211.8 239.7L211.9 239.7L212.0 239.6L212.0 239.6L212.0 239.6L212.1 239.5L212.1 239.5L212.2 239.4L212.2 239.4L212.2 239.4L212.2 239.4L212.3 239.3L212.4 239.2L213.9 237.9L215.7 237.1L215.8 237.1L215.8 237.0L215.8 237.0L216.0 237.0L216.0 237.0L216.1 237.0L216.1 236.9L216.1 236.9L216.2 236.9L216.2 236.9L216.3 236.8L216.4 236.8L216.4 236.8L216.4 236.8L216.5 236.8L216.5 236.8L216.5 236.7L216.7 236.6L216.8 236.6L216.8 236.6L216.8 236.5L216.9 236.5L216.9 236.5L216.9 236.5L217.0 236.4L217.0 236.4L217.0 236.4L217.1 236.4L217.1 236.3L217.2 236.3L217.3 236.1L217.3 236.1L217.3 236.1L217.4 236.0L217.4 236.0L217.4 236.0L217.5 235.9L217.5 235.9L217.5 235.9L217.5 235.8L217.6 235.8L217.6 235.8L217.6 235.7L217.6 235.7L217.7 235.7L217.7 235.7L217.7 235.6L217.7 235.6L217.8 235.5L217.8 235.5L217.8 235.4L217.8 235.4L217.8 235.4L217.9 235.3L217.9 235.3L217.9 235.2L217.9 235.2L218.0 235.1L218.0 235.1L218.0 235.1L218.0 235.0L218.1 234.7L218.1 234.7L218.1 234.7L218.1 234.6L218.1 234.5L218.2 234.5L218.2 234.4L218.2 234.4L218.2 234.3L218.2 234.3L218.2 234.3L218.2 234.2L218.2 234.2L218.2 234.2L218.2 234.1L218.2 234.0L218.2 234.0L218.4 233.3L218.0 232.6L218.0 232.6L217.5 230.6L217.5 230.6L217.6 228.9L218.1 227.3L219.4 225.4L221.3 224.1L223.5 223.4L225.7 223.6L227.8 224.4L227.9 224.4L229.0 225.4L229.0 225.4L230.4 227.5L231 230.0L231 230.0L230.9 230.5L230.9 230.5L230.8 231.2L231.2 231.9L231.2 232L231.2 232.0L231.2 232.0L231.2 232.1L231.2 232.1L231.3 232.1L231.3 232.1L231.3 232.2L231.3 232.2L231.3 232.3L231.3 232.3L231.4 232.3L231.4 232.3L231.4 232.4L231.4 232.4L231.5 232.5L231.5 232.6L231.5 232.6L231.6 232.6L231.6 232.7L231.6 232.7L231.6 232.7L231.6 232.7L231.7 232.8L231.7 232.8L231.7 232.8L233.0 240.5L235.9 247.0L237.8 254.9L240.7 259.1L253.8 265.3L258.0 273.6L260.7 276.5L264.9 278.8L262.7 280.0L261.9 282.5L264.0 288.1L270.2 296.8L269.7 299.1L269.5 297.1L267.7 296.3L265.1 297.0L260.9 293.0L254.8 294.2L252.9 293.4L251.0 294.5L255.4 295.0L260.3 293.8L262.4 296.8L270.5 302.5L272.5 305.2L275.1 311.3L275.3 316.5L267.8 324.8L269.7 324.4L273.3 327.7L276.1 328.3L280.0 321.2L287.5 320.8L296.7 321.9L305.5 327.6L307.8 332.9L307.9 341.4L305.0 353.4L299.5 359.2L298.1 357.0L295.4 355.8L298.8 361.1L297.2 363.8L293.3 365.4L291.7 363.4L285.2 367.6L286.6 368.6L290.6 366.7L291.2 371.6L287.6 374.8L284.3 374.5L280.1 375.9L278.2 377.9L281.7 376.4L285.5 376.9L286.1 378.1L284.2 378.1L282.4 379.3L282.9 380.0L290.6 381.6L301.7 379.3L302.8 381.4L302.2 388.1L294.3 392.3L292.8 394.4L292.8 396.8L288.2 396.8L285.5 399.4L278.2 401.9L275.7 404.6L263.9 401.7L254.0 403.6L251.1 405.7L248.4 404.0L249.5 402.9L248.0 401.5L242.6 401.4L243.5 402.8L242.8 403.9L238.4 403.4L232.2 405.9L224.1 406.4L221.6 405.6L220.7 407.1L223.7 408.1L223.6 410.7L221.2 411.1L213.2 409.0L211.5 410.6L212.2 412.7L206.9 407.8L200.7 405.5L193.0 407.6L188.4 410.1L183.0 423.9L181.4 424.8L179.1 424.4L176.0 420.7L173.5 421.3L170.6 418.1L165.7 418.5L163.2 419.9L156.5 420.2L154.1 423.1L149.5 425.1L149.0 429.9L146.5 431.2L145.6 433.0L143.5 428.7L139.2 426.4L137.6 426.8L136.8 429.1L133.3 428.8L133.9 425.1L138.8 423L140.4 423.9L149.7 415.8L150.8 411.2L156.4 409.6L157.4 406.9L162.1 402.6L163.1 394.1L168.3 394.7L170.6 392.1L170.3 387.8L180.5 386.2L187.1 386.9L189.9 388.6L198.4 387.8L200.1 381.5L213.6 366.8L207.1 372.6L205.9 373.9L196.6 377.1L194.9 380.7L189.8 381.2L186.1 380.1L179.8 371.9L171.2 375.0L169.5 374.0L169.3 372.0L173.4 371.3L174.4 369.7L170.0 369.5L166.1 367.2L162.9 367.2L160.5 367.7L159.6 370.2L156.0 370.4L154.1 372.1L151.6 371.0L152.4 369.2L156.2 367.7L155.7 366.4L155.2 367.6L152.7 367.9L147.2 366.7L150.7 365.0L150.2 362.2L147.2 361.4L147.7 359.8L151.1 358.2L151.6 356.9L157.3 356.4L161.2 352.3L165.2 352.2L171.4 348.2L173.8 345.1L175.6 339.5L174.2 335.0L176.0 330.8L173.9 327.7L174.4 323.4L168.0 324.3L165.1 327.6L160.0 327.6L163.4 323.2L169.5 318.9L170.2 315.9L173.3 312.5L181.0 309.7L187.0 310.0L192.7 307.7L197.9 311.5L198.3 310.6L195.9 306.3L198.7 305.4L202.8 310.1L205.2 309.9L206.9 307.7L203.5 308.8L201.3 307.3L197.9 300.1L200.9 294.8L202.7 293.8L199.3 292.2L199.3 286.9L202.0 285.2L204.3 280.3L204.8 275.1L197.3 280.3L195.6 279.6L191.8 272.9L191.3 270.2 Z M 209.6 259.9L210.1 260.3L211.2 262.2L211.2 262.3L211.2 262.3L211.2 262.3L211.3 262.4L211.3 262.4L211.3 262.4L211.3 262.5L211.3 262.5L211.3 262.5L211.4 262.6L211.4 262.6L211.4 262.6L211.4 262.7L211.4 262.7L211.5 262.8L211.5 262.8L211.5 262.8L211.5 262.8L211.6 262.9L211.6 262.9L211.6 263.0L211.6 263.0L211.7 263.0L211.7 263.1L211.7 263.1L211.7 263.1L211.8 263.2L211.8 263.2L211.8 263.2L211.8 263.3L211.9 263.3L211.9 263.3L211.9 263.3L211.9 263.4L212.0 263.4L212.0 263.4L212.0 263.4L212.1 263.5L212.1 263.5L212.1 263.5L212.2 263.6L212.2 263.6L212.2 263.6L212.3 263.7L212.3 263.7L212.3 263.7L212.4 263.7L212.4 263.7L212.4 263.8L212.5 263.8L212.5 263.8L212.6 263.9L212.6 263.9L212.7 263.9L212.7 263.9L212.7 264.0L212.8 264.0L212.8 264.0L212.9 264.0L212.9 264.0L212.9 264.1L213.0 264.1L213.0 264.1L213.1 264.1L213.1 264.1L213.2 264.1L213.8 264.4L215.7 265.8L217.0 267.8L217.5 270.0L217.5 270.0L217.5 271.0L217.2 272.4L217.2 272.5L217.2 272.5L217.2 272.5L217.2 272.6L217.2 272.6L217.1 272.7L217.1 272.7L217.1 272.8L217.1 272.8L217.1 272.9L217.1 272.9L217.1 272.9L217.1 273.0L217.1 273.0L217.1 273.0L217.1 273.1L217.1 273.2L217.1 273.2L217.1 273.2L217.1 273.3L217.1 273.3L217.1 273.4L217.1 273.5L217.1 273.5L217.1 273.6L217.1 273.6L217.1 273.6L217.1 273.7L217.1 273.7L217.1 273.7L217.1 273.8L217.1 273.8L217.1 273.9L217.1 273.9L217.1 273.9L217.1 274.0L217.1 274.0L217.1 274.0L217.1 274.1L217.1 274.2L217.2 274.3L217.2 274.3L217.2 274.3L217.2 274.4L217.2 274.4L217.2 274.5L217.3 274.6L217.3 274.6L217.3 274.7L217.3 274.8L217.4 274.8L217.4 274.9L217.4 274.9L217.4 274.9L217.4 275.0L217.4 275.0L217.5 275.0L217.5 275.1L217.5 275.1L217.6 275.3L217.6 275.3L217.7 275.4L217.7 275.4L217.7 275.4L217.7 275.5L217.8 275.5L217.8 275.6L217.9 275.6L217.9 275.7L217.9 275.7L218.0 275.7L218.0 275.7L218.0 275.8L218.0 275.8L218.1 275.8L218.1 275.8L218.1 275.9L218.1 275.9L218.2 275.9L218.2 275.9L218.2 276.0L218.3 276.0L218.3 276.0L218.4 276.1L218.4 276.1L218.5 276.2L218.5 276.2L218.5 276.2L218.5 276.2L218.6 276.2L218.7 276.3L218.7 276.3L218.8 276.4L218.8 276.4L218.8 276.4L218.9 276.4L218.9 276.4L218.9 276.4L219.0 276.5L219.0 276.5L219.0 276.5L219.1 276.5L219.2 276.5L219.2 276.6L219.3 276.6L219.3 276.6L219.4 276.6L219.5 276.6L219.5 276.7L219.6 276.7L219.6 276.7L219.7 276.7L219.7 276.7L219.8 276.7L219.8 276.7L219.9 276.7L219.9 276.7L220.0 276.8L220.0 276.8L220.1 276.8L220.1 276.8L220.1 276.8L220.2 276.8L220.2 276.8L220.3 276.8L220.3 276.8L220.4 276.8L220.5 276.8L220.5 276.8L220.6 276.8L220.6 276.8L220.7 276.8L220.7 276.8L220.7 276.8L220.8 276.8L220.8 276.8L220.8 276.8L220.9 276.8L220.9 276.7L221.0 276.7L221.0 276.7L221.0 276.7L221.1 276.7L221.1 276.7L221.1 276.7L221.2 276.7L221.2 276.7L221.3 276.7L221.3 276.7L221.4 276.7L221.6 276.6L221.6 276.6L221.7 276.5L221.7 276.5L221.8 276.5L221.8 276.5L221.8 276.5L221.9 276.5L221.9 276.4L221.9 276.4L222.0 276.4L222.0 276.4L222.0 276.4L222.1 276.3L222.1 276.3L222.1 276.3L222.2 276.3L222.2 276.3L222.2 276.3L222.3 276.2L222.4 276.2L222.4 276.1L222.4 276.1L222.5 276.1L222.5 276.1L222.6 276.0L222.6 276.0L222.6 276.0L222.6 275.9L222.7 275.9L222.8 275.8L222.8 275.8L222.8 275.8L224.1 274.8L224.2 274.7L224.2 274.7L224.2 274.7L224.3 274.6L224.3 274.6L224.3 274.6L224.4 274.6L224.4 274.6L224.4 274.5L224.5 274.5L224.5 274.5L224.6 274.4L224.6 274.4L224.7 274.3L224.8 274.2L224.8 274.1L224.9 274.1L225.0 274.0L225.0 274.0L225.0 274L225.0 273.9L225.0 273.9L225.1 273.9L225.1 273.8L225.1 273.8L225.1 273.8L225.2 273.6L225.9 272.7L226.0 272.6L226.0 272.6L226.0 272.6L226.0 272.6L226.1 272.5L226.1 272.5L226.1 272.5L226.1 272.4L226.1 272.4L226.2 272.4L226.2 272.3L226.2 272.3L226.2 272.3L226.3 272.2L226.3 272.2L226.3 272.2L226.4 272.1L226.4 272.1L226.4 272.0L226.4 272.0L226.4 272.0L226.4 271.9L226.5 271.9L226.5 271.9L226.5 271.8L226.5 271.8L226.5 271.7L226.6 271.7L226.6 271.6L226.6 271.6L226.7 271.4L226.7 271.3L226.7 271.3L226.7 271.3L226.7 271.2L226.7 271.2L226.7 271.2L226.7 271.1L226.7 271.1L226.7 271.0L226.7 271.0L226.8 270.9L226.8 270.9L226.8 270.9L226.8 270.8L226.8 270.8L226.8 270.7L226.8 270.7L226.8 270.7L226.8 270.6L226.8 270.6L226.8 270.5L226.8 270.3L226.8 270.3L226.8 270.2L226.8 270.2L226.8 270.2L226.8 270.1L226.8 270.1L226.8 270.0L226.8 270.0L226.8 269.9L226.8 269.9L226.7 269.9L226.7 269.8L226.7 269.7L226.7 269.7L226.7 269.6L226.7 269.6L226.7 269.5L226.7 269.5L226.7 269.5L226.6 269.3L226.6 269.2L226.6 269.2L226.5 269.2L226.5 269.1L226.5 269.1L226.5 269.1L226.5 269.0L226.5 269.0L226.4 268.9L226.4 268.9L226.4 268.9L226.4 268.8L226.4 268.8L226.4 268.8L226.3 268.7L226.3 268.7L226.2 268.6L226.2 268.5L226.2 268.5L226.2 268.5L226.1 268.5L226.1 268.4L226.1 268.4L226.1 268.4L226.1 268.3L226.0 268.3L226.0 268.2L226.0 268.2L225.9 268.2L224.8 266.4L224.3 264.3L224.2 264.2L224.2 264.2L224.2 264.1L224.2 264.1L224.2 264.0L224.2 264.0L224.2 264.0L224.2 263.9L224.2 263.9L224.2 263.7L224.1 263.6L224.1 263.6L224.1 263.6L224.1 263.5L224.1 263.5L224.1 263.5L224.1 263.4L224.1 263.4L224.1 263.4L224.0 263.3L224.0 263.3L224.0 263.2L224.0 263.2L224.0 263.2L224.0 263.1L223.9 263.1L223.9 263.1L223.9 263.0L223.9 263.0L223.8 262.9L223.8 262.8L223.8 262.8L223.8 262.8L223.7 262.7L223.7 262.7L223.6 262.6L223.6 262.6L223.6 262.5L223.6 262.5L223.6 262.5L223.5 262.4L223.5 262.4L223.5 262.4L223.4 262.3L223.4 262.3L223.4 262.3L223.3 262.2L223.3 262.2L223.3 262.2L223.3 262.1L223.2 262.1L223.2 262.1L223.2 262.0L223.1 262.0L221.3 259.4L221.3 259.4L220.9 257.5L220.9 257.5L220.9 257.4L220.9 257.4L220.9 257.4L220.9 257.3L220.9 257.3L220.9 257.2L220.9 257.2L220.8 257.2L220.8 257.1L220.8 257.1L220.8 257.0L220.8 257.0L220.8 257.0L220.8 256.9L220.8 256.8L220.8 256.8L220.8 256.8L220.7 256.6L220.7 256.6L220.7 256.5L220.6 256.5L220.6 256.4L220.6 256.4L220.6 256.3L220.6 256.3L220.5 256.3L220.5 256.2L220.5 256.2L220.5 256.2L220.5 256.1L220.5 256.1L220.3 255.9L220.3 255.8L220.3 255.8L220.3 255.8L220.2 255.8L220.2 255.7L220.2 255.7L220.2 255.7L220.1 255.6L220.1 255.6L220.1 255.6L220.1 255.5L220.0 255.5L220.0 255.5L220.0 255.4L219.9 255.4L219.9 255.4L219.9 255.3L219.8 255.3L219.8 255.3L219.8 255.3L219.8 255.2L219.7 255.2L219.7 255.2L219.6 255.1L219.6 255.1L219.6 255.1L219.5 255.1L219.5 255.0L219.5 255.0L219.5 255.0L219.4 255.0L219.4 254.9L219.3 254.9L219.2 254.9L219.2 254.8L219.1 254.8L219.1 254.8L219.1 254.8L219.0 254.8L219.0 254.7L218.9 254.7L218.9 254.7L218.8 254.7L218.8 254.6L218.8 254.6L218.7 254.6L218.7 254.6L218.5 254.5L218.5 254.5L218.5 254.5L218.4 254.5L218.4 254.5L218.3 254.5L218.3 254.5L218.2 254.5L218.2 254.5L218.1 254.5L218.1 254.4L218.1 254.4L218.0 254.4L217.9 254.4L217.9 254.4L217.8 254.4L217.8 254.4L217.7 254.4L217.7 254.4L217.6 254.4L217.6 254.4L217.5 254.4L217.5 254.4L217.4 254.4L217.3 254.4L217.3 254.4L217.3 254.4L217.2 254.4L217.2 254.4L217.2 254.4L217.1 254.4L217.1 254.4L217.0 254.4L217.0 254.4L217.0 254.5L216.9 254.5L216.9 254.5L216.8 254.5L216.8 254.5L216.7 254.5L216.7 254.5L216.6 254.5L216.6 254.5L216.6 254.5L216.5 254.6L216.5 254.6L216.5 254.6L216.4 254.6L216.4 254.6L216.3 254.6L216.3 254.6L216.2 254.7L216.2 254.7L216.2 254.7L216.1 254.7L216.1 254.7L216.1 254.7L216.0 254.8L216.0 254.8L216.0 254.8L215.9 254.8L215.9 254.8L215.9 254.8L215.8 254.9L215.7 254.9L215.7 255.0L215.6 255.0L215.6 255.0L215.6 255.0L215.5 255.1L215.5 255.1L215.5 255.1L215.5 255.1L215.4 255.1L215.4 255.2L215.4 255.2L215.3 255.2L215.3 255.3L214.3 256.0L214.2 256.1L214.1 256.1L214.1 256.1L214.1 256.1L214.0 256.2L214.0 256.2L214.0 256.2L214.0 256.2L213.9 256.3L213.9 256.3L213.8 256.4L213.8 256.4L213.7 256.4L213.6 256.6L213.6 256.6L213.5 256.6L213.5 256.7L213.4 256.7L213.4 256.8L213.4 256.8L213.4 256.9L213.3 256.9L213.3 256.9L213.3 256.9L213.3 257.0L213.2 257.0L213.2 257.0L213.1 257.2L212.0 258.5L210.2 259.8 Z M 214.8 219.4L214.0 219.1L214.0 219.1L212.4 217.6L211.3 215.8L210.8 213.6L211.0 211.7L211.8 209.8L212.7 208.7L220.9 213.7L225.7 221.3L225.3 221.7L223.5 222.9L221.4 223.4L219.2 223.2L217.2 222.3L215.1 220.2L215.1 220.2 Z M 190.6 210.5L190.7 209.5L190.6 209.5L190.7 209.4L190.7 209.2L190.7 209.2L190.9 208.4L200.5 210.7L203.5 209.5L203.9 208.8L204.0 209.0L204.0 209.0L204.0 210.6L204.0 211.2L203.7 212.1L202.9 213.7L201.3 215.4L199.2 216.4L196.9 216.7L195.1 216.3L192.5 214.6L191.2 212.7 Z M 191.3 207.1L192.1 205.8L193.5 204.4L195.4 203.5L197.3 203.2L197.4 203.2L199.3 203.5L199.9 203.8L198.5 205.4L193.4 208.0 Z M 174.2 234.6L175.6 235.9L176.6 237.5L177.1 239.4L177.1 241.3L176.5 243.2L175.4 244.8L174.0 245.9L172.3 246.7L170.5 246.9L168.4 246.6L166.5 245.6L165.0 244.1L164.1 242.3L163.7 240.2L163.8 240.1L164.2 237.9L165.3 235.9L167.0 234.4L168.8 233.7L170.7 233.5L172.5 233.8L174.2 234.6 Z M 244.9 407.2L242.4 410.4L239.7 411.3L234.6 408.1L232.8 408.3L239.0 404.1L243.5 405.3 Z M 246.9 401.8L247.2 403.9L245.7 403.5 Z M 291.5 380.3L290.4 381.0L287.3 380.4L286.8 377.9L290.5 378.7 Z M 164.6 308.8L164.8 311.0L162.6 309.3L162.6 307.8 Z M 176.8 308.9L169.7 315.4L166.9 313.3L165.1 309.7L165.2 305.3L168.5 304.1L171.6 305.0L172.8 308.1 Z M 176.8 308.9 "/>
















</g>
</svg>
