<?xml version="1.0" encoding="UTF-8"?>
<svg xmlns="http://www.w3.org/2000/svg" xmlns:xlink="http://www.w3.org/1999/xlink" width="378pt" height="504pt" viewBox="0 0 378 504" version="1.1">
<g id="data">
<rect x="0" y="0" width="378" height="504" style="fill:rgb(100%,100%,100%);fill-opacity:1;stroke:none;"/>
<path style=" stroke:none;fill-rule:nonzero;fill:rgb(100%,100%,100%);fill-opacity:1;" d="M 21 504L357 504L357 0L21 0 Z M 21 504 "/>
<path style=" stroke:none;fill-rule:nonzero;fill:rgb(77.6%,78.8%,62.3%);fill-opacity:1;" d="M 173.9 421.2L173.9 420.9L174.3 419.1L175.3 417.4L176.7 416.2L178.3 415.3L178.3 415.3L180.4 414.9L181.6 415.1L181.0 413.9L180.6 411.9L180.5 411.6L180.5 411.6L180.6 410.5L180.6 410.4L180.7 410.3L180.7 410.3L180.7 410.2L180.7 410.2L180.7 410.1L180.7 410.1L180.7 410.0L180.7 410.0L180.7 409.7L180.7 409.7L180.7 409.7L180.7 409.6L180.7 409.6L180.7 409.6L180.7 409.5L180.7 409.5L180.7 409.4L180.7 409.4L180.6 409.3L180.6 409.3L180.6 408.5L180.5 408.2L180.6 407.1L180.6 407.0L180.7 407.0L180.7 406.9L180.7 406.9L180.7 406.8L180.7 406.8L180.7 406.7L180.7 406.7L180.7 406.7L180.7 406.6L180.7 406.4L180.7 406.3L180.7 406.3L180.7 406.2L180.7 406.2L180.7 406.1L180.7 406.1L180.7 406.0L180.6 406.0L180.6 405.9L180.6 405.4L180.8 403.1L181.5 401.3L182.8 399.8L182.8 399.8L182.9 399.8L182.9 399.7L182.9 399.7L183.0 399.6L183.0 399.6L183.0 399.6L183.0 399.6L183.1 399.5L183.1 399.5L183.2 399.4L183.2 399.3L183.3 399.3L183.3 399.3L183.3 399.3L183.3 399.2L183.3 399.2L183.4 399.2L183.4 399.1L183.5 399.0L183.5 399.0L183.5 398.9L183.5 398.9L183.6 398.9L183.6 398.8L183.6 398.8L183.6 398.7L183.6 398.7L183.7 398.6L183.7 398.6L183.7 398.5L183.7 398.5L183.7 398.5L183.7 398.4L183.8 398.3L183.8 398.2L183.8 398.2L183.8 398.2L183.8 398.1L183.8 398.1L183.9 398.0L183.9 398.0L183.9 398.0L183.9 397.9L183.9 397.8L183.9 397.8L183.9 397.7L183.9 397.7L183.9 397.6L183.9 397.5L184.0 397.0L184.1 396.6L184.1 396.5L184.1 396.5L184.1 396.4L184.1 396.4L184.1 396.3L184.1 396.3L184.1 396.2L184.2 396.2L184.2 396.1L184.2 396.1L184.2 396.0L184.2 396.0L184.2 396.0L184.2 395.9L184.2 395.9L184.2 395.7L184.2 395.6L184.2 395.6L184.2 395.6L184.2 395.5L184.2 395.5L184.2 395.5L184.2 395.4L184.2 395.3L184.1 395.3L184.1 395.3L184.1 395.2L184.1 395.2L184.1 395.2L184.1 395.1L184.1 395.1L184.1 395.0L184.1 394.9L184.1 394.9L184.1 394.9L184.0 394.8L184.0 394.8L184.0 394.7L184.0 394.7L184.0 394.7L184.0 394.6L184.0 394.6L183.9 394.5L183.9 394.5L183.9 394.4L183.9 394.4L183.8 394.3L183.8 394.3L183.8 394.2L183.8 394.2L183.8 394.2L183.7 394.1L183.7 394.1L183.7 394.1L183.6 393.9L183.6 393.9L183.6 393.9L183.6 393.8L183.5 393.8L183.5 393.8L183.5 393.8L183.5 393.7L183.5 393.7L183.4 393.7L183.4 393.6L183.4 393.6L183.4 393.6L183.3 393.5L183.3 393.5L183.3 393.5L183.1 393.3L183.1 393.3L183.1 393.3L183.0 393.2L183.0 393.2L182.9 393.2L181.4 391.3L180.6 389.1L180.5 388.0L180.9 386.2L187.1 386.9L189.9 388.6L198.4 387.8L200.1 381.5L213.6 366.8L207.1 372.6L205.9 373.9L200.0 375.9L200.0 375.9L200.0 375.9L200.5 375.6L200.7 375.5L200.7 375.5L200.7 375.5L200.8 375.5L200.8 375.4L200.8 375.4L200.8 375.4L200.9 375.4L200.9 375.3L201.0 375.3L201.0 375.3L201.1 375.2L201.1 375.2L201.1 375.1L201.2 375.1L201.2 375.0L201.3 375.0L201.3 374.9L201.3 374.9L201.4 374.8L201.4 374.8L201.5 374.8L201.5 374.7L201.6 374.7L201.6 374.6L201.6 374.6L201.6 374.6L201.6 374.5L201.7 374.4L203.2 372.7L205.2 371.6L205.2 371.6L205.3 371.6L205.3 371.6L205.3 371.6L205.4 371.5L205.4 371.5L205.5 371.5L205.5 371.5L205.5 371.5L205.6 371.5L205.6 371.4L205.6 371.4L205.7 371.4L205.7 371.4L205.8 371.3L205.8 371.3L205.9 371.3L205.9 371.2L206.0 371.2L206.0 371.2L206.0 371.2L206.1 371.2L206.1 371.1L206.1 371.1L206.1 371.1L206.2 371.1L206.2 371.1L206.2 371.0L206.3 371.0L206.3 370.9L206.4 370.9L206.4 370.9L206.4 370.9L206.6 370.7L206.6 370.6L206.6 370.6L206.7 370.6L206.7 370.5L206.7 370.5L206.8 370.5L206.8 370.4L206.8 370.4L206.8 370.4L206.8 370.3L206.9 370.3L207.0 370.1L207.0 370.1L207.0 370.1L207.0 370.0L207.1 370.0L207.1 370.0L207.1 369.9L207.1 369.9L207.1 369.8L207.2 369.8L207.2 369.7L207.2 369.7L207.2 369.7L207.2 369.6L207.3 369.5L207.6 368.9L207.4 368.2L207.4 368.2L207.5 367.2L207.5 367.0L208.3 364.5L208.3 364.5L208.8 363.9L208.8 363.1L208.8 363.1L208.8 363.0L208.8 363.0L208.8 363.0L208.8 362.9L208.8 362.7L208.8 362.7L208.8 362.6L208.8 362.5L208.8 362.5L208.8 362.4L208.7 362.4L208.7 362.3L208.7 362.3L208.7 362.3L208.7 362.2L208.7 362.2L208.7 362.1L208.7 362.0L208.7 362.0L208.7 361.9L208.6 361.9L208.6 361.8L208.6 361.8L208.6 361.8L208.6 361.7L208.6 361.6L208.5 361.6L208.5 361.6L208.5 361.5L208.5 361.5L208.5 361.5L208.5 361.4L208.5 361.4L208.4 361.4L208.4 361.3L208.4 361.3L208.4 361.2L208.4 361.2L208.3 361.2L208.3 361.1L207.5 358.4L207.4 357.5L207.4 357.5L207.9 355.3L209.1 353.3L209.2 353.3L209.2 353.3L209.2 353.2L209.3 353.1L209.3 353.1L209.3 353.0L209.4 353.0L209.4 353.0L209.4 353.0L209.6 352.7L209.6 352.7L209.6 352.7L209.6 352.6L209.6 352.6L209.6 352.6L209.7 352.5L209.7 352.5L209.7 352.5L209.7 352.4L209.7 352.4L209.7 352.3L209.8 352.3L209.8 352.3L209.8 352.2L209.8 352.2L209.8 352.1L209.8 352.1L209.9 352.0L209.9 352.0L209.9 352L209.9 351.9L209.9 351.8L209.9 351.8L209.9 351.7L209.9 351.7L210 351.6L210.0 351.6L210.0 351.6L210.0 351.5L210.0 351.5L210.0 351.4L210.0 351.4L210.0 351.4L210.0 351.3L210.0 351.3L210.0 351.3L210.0 351.2L210.0 351.2L210.0 351.0L210.0 350.9L210.0 350.9L210.0 350.8L210.0 350.8L210.0 350.8L210.0 350.7L210.0 350.7L210.0 350.7L210.0 350.6L210.0 350.6L210.0 350.6L210 350.5L209.9 350.5L209.9 350.4L209.9 350.4L209.9 350.3L209.9 350.2L209.9 350.2L209.9 350.2L209.8 349.9L209.8 349.8L209.7 349.8L209.7 349.8L209.7 349.7L209.7 349.7L209.7 349.7L209.7 349.6L209.7 349.6L209.6 349.6L209.6 349.5L209.6 349.5L209.6 349.4L209.6 349.4L209.5 349.4L209.4 349.2L209.4 349.1L209.4 349.1L209.3 349.1L209.3 349.1L209.3 349.0L209.3 349.0L209.3 349.0L209.2 348.9L209.2 348.9L209.2 348.9L209.1 348.8L207.8 346.6L207.4 344.2L207.4 344.2L207.4 344.0L207.4 343.9L207.4 343.8L207.4 343.8L207.4 343.7L207.8 341.7L208.2 340.9L207.3 341.0L205.2 340.6L205.2 340.6L203.8 339.9L202.2 338.4L201.1 336.5L200.7 334.3L201.2 331.9L202.4 329.8L203.9 328.6L205.6 327.8L207.4 327.5L207.9 327.6L210.2 328.1L212.1 329.4L213.5 331.3L214.1 333.5L214.1 334.0L214.1 334.0L214.2 334.3L214.2 334.3L213.8 336.4L213.4 337.2L214.3 337.1L216.4 337.4L216.4 337.5L216.5 337.5L216.5 337.5L216.6 337.5L216.6 337.5L216.7 337.5L216.8 337.6L216.9 337.6L216.9 337.6L217.0 337.6L217.0 337.6L217.1 337.6L217.1 337.6L217.2 337.6L217.2 337.6L217.3 337.6L217.3 337.6L217.4 337.6L217.4 337.6L217.5 337.6L217.5 337.6L219.1 337.8L219.1 337.8L221.5 338.9L223.2 340.8L223.3 340.9L223.3 340.9L223.3 341.0L223.4 341.0L223.4 341.1L223.4 341.1L223.4 341.1L223.5 341.1L223.5 341.2L223.7 341.4L223.7 341.4L223.7 341.5L223.7 341.5L223.8 341.5L223.8 341.6L223.8 341.6L224.0 341.7L224.1 341.8L224.1 341.8L224.1 341.8L224.2 341.8L224.2 341.9L224.2 341.9L224.3 341.9L224.3 342L224.4 342.0L226.6 344.2L226.6 344.3L226.7 344.3L226.7 344.4L226.7 344.4L226.8 344.4L226.8 344.5L226.8 344.5L226.8 344.5L226.8 344.5L226.9 344.6L226.9 344.6L226.9 344.6L227.0 344.7L227.0 344.8L227.1 344.8L227.1 344.8L227.2 344.9L227.3 345.0L227.3 345.0L227.3 345.0L227.4 345.1L227.4 345.1L227.4 345.1L227.5 345.1L227.5 345.2L227.5 345.2L227.5 345.2L227.6 345.2L227.6 345.3L227.6 345.3L227.7 345.3L227.8 345.3L229.5 346.8L230.6 348.8L231 351.1L231 351.1L230.9 352.2L230.9 352.2L230.8 352.3L230.8 352.3L230.8 352.3L230.8 352.5L230.8 352.5L230.8 352.6L230.8 352.7L230.8 352.7L230.8 352.8L230.8 352.8L230.8 352.9L230.8 353L230.8 353.0L230.8 353.0L230.8 353.1L230.8 353.2L230.8 353.2L230.8 353.2L230.9 353.3L230.9 353.3L230.9 354.1L231 354.3L230.6 356.6L229.5 358.6L227.8 360.1L227.7 360.2L227.6 360.3L227.5 360.3L227.5 360.3L227.5 360.3L227.5 360.4L227.4 360.4L227.4 360.4L227.4 360.4L227.2 360.5L227.2 360.6L227.2 360.6L227.1 360.6L227.1 360.7L227.1 360.7L227.1 360.7L227.0 360.8L226.9 360.9L226.9 360.9L226.8 361.0L226.8 361.0L226.8 361.0L226.8 361.1L226.7 361.1L226.7 361.2L226.7 361.2L226.6 361.3L224.4 363.5L224.3 363.5L224.3 363.6L224.2 363.6L224.2 363.6L224.2 363.7L224.1 363.7L224.1 363.7L224.1 363.7L224.0 363.8L224.0 363.8L223.9 363.9L223.9 363.9L223.8 364.0L223.8 364.0L223.7 364.0L223.7 364.0L223.7 364.1L223.6 364.1L223.5 364.2L223.5 364.3L223.5 364.3L223.4 364.4L223.4 364.4L223.4 364.4L223.4 364.5L223.3 364.5L223.3 364.6L223.2 364.7L222.0 366.2L221.9 366.2L221.8 366.3L221.8 366.3L221.8 366.4L221.7 366.4L221.6 366.6L221.5 366.6L221.5 366.7L221.5 366.7L221.5 366.7L221.5 366.7L221.4 366.8L221.4 366.8L221.4 366.8L221.4 366.9L221.3 366.9L221.3 367.0L221.3 367.0L221.3 367.1L220.8 367.6L220.8 368.5L220.8 368.5L220.5 370.1L220.5 370.1L220.2 370.7L220.3 371.4L220.3 371.5L220.3 371.6L220.3 371.7L220.3 371.7L220.3 371.7L220.3 371.8L220.3 371.8L220.4 371.8L220.4 371.9L220.4 372.0L220.4 372.0L220.4 372.1L220.4 372.1L220.4 372.1L220.4 372.2L220.4 372.2L220.5 372.3L220.5 372.3L220.5 372.4L220.6 372.6L220.7 372.8L220.7 372.9L220.7 372.9L220.7 373L220.7 373.0L220.7 373.1L220.8 373.1L220.8 373.1L220.8 373.2L220.8 373.2L220.8 373.3L220.9 373.3L220.9 373.3L220.9 373.4L220.9 373.4L221.0 373.5L221.0 373.6L221.1 373.6L221.1 373.6L221.1 373.7L221.1 373.7L221.1 373.7L221.2 373.7L221.2 373.8L221.2 373.8L221.2 373.8L221.3 373.9L221.3 373.9L221.3 373.9L221.4 374.0L221.4 374.0L221.5 374.1L221.5 374.1L221.5 374.1L221.6 374.2L221.6 374.2L221.7 374.3L221.7 374.3L221.7 374.3L221.7 374.3L221.8 374.3L221.8 374.4L221.8 374.4L221.9 374.4L221.9 374.4L222.0 374.5L222.0 374.5L222.0 374.5L222.1 374.6L222.2 374.6L222.2 374.6L222.2 374.6L222.3 374.7L222.3 374.7L222.3 374.7L222.4 374.7L222.4 374.7L222.5 374.8L222.5 374.8L222.5 374.8L222.6 374.8L222.6 374.8L222.6 374.8L222.7 374.8L222.8 374.9L222.9 374.9L224.8 375.8L226.3 377.3L227.3 379.2L227.6 381.3L227.1 383.8L227.1 383.8L227.1 383.9L227.1 383.9L227.0 384.0L227.0 384.1L227.0 384.1L227.0 384.2L227.0 384.2L227.0 384.3L227.0 384.3L226.9 384.4L226.9 384.4L226.9 384.5L226.9 384.5L226.9 384.5L226.9 384.6L226.9 384.6L226.9 384.7L226.9 384.7L226.9 384.8L226.9 384.8L226.9 384.8L226.9 384.9L226.9 384.9L226.9 385.1L226.9 385.2L226.9 385.2L226.9 385.2L226.9 385.3L226.9 385.4L226.9 385.4L226.9 385.5L226.9 385.5L226.9 385.5L226.9 385.6L226.9 385.6L226.9 385.6L227 385.7L227.0 385.7L227.0 385.8L227.0 385.9L227.0 385.9L227.0 385.9L227.1 386.2L227.1 386.3L227.1 386.3L227.1 386.3L227.2 386.4L227.2 386.4L227.2 386.4L227.2 386.5L227.2 386.5L227.2 386.5L227.3 386.6L227.3 386.7L227.3 386.7L227.3 386.7L227.5 386.9L227.5 386.9L227.5 387.0L227.5 387.0L227.6 387.0L227.6 387.1L227.6 387.1L227.6 387.1L227.7 387.2L227.7 387.2L227.7 387.2L227.7 387.3L227.8 387.3L227.8 387.4L227.9 387.4L227.9 387.4L227.9 387.5L227.9 387.5L228.0 387.5L228.0 387.5L228.0 387.6L228.1 387.6L228.1 387.6L228.1 387.6L228.2 387.7L228.2 387.7L228.2 387.7L228.3 387.7L228.3 387.8L228.3 387.8L228.4 387.8L228.4 387.9L228.5 387.9L228.5 387.9L228.6 387.9L228.6 388.0L228.6 388.0L228.7 388.0L228.7 388.0L228.7 388.0L228.8 388.0L228.8 388.1L228.8 388.1L228.9 388.1L228.9 388.1L228.9 388.1L229.0 388.1L229.0 388.2L229.1 388.2L229.1 388.2L229.3 388.2L229.3 388.2L229.3 388.3L229.4 388.3L231.1 389.0L232.6 390.3L232.6 390.3L232.7 390.3L232.7 390.4L232.7 390.4L232.7 390.4L232.8 390.5L232.8 390.5L232.8 390.5L232.9 390.6L232.9 390.6L232.9 390.6L233.0 390.6L233.0 390.6L233.0 390.7L233.0 390.7L233.1 390.7L233.1 390.8L233.2 390.8L233.2 390.8L233.2 390.8L233.3 390.8L233.3 390.9L233.3 390.9L233.3 390.9L233.4 390.9L233.5 391.0L233.5 391.0L233.5 391.0L233.6 391.0L233.6 391.1L233.6 391.1L233.7 391.1L233.8 391.1L233.8 391.1L233.8 391.2L233.9 391.2L233.9 391.2L234.0 391.2L234.0 391.2L234.0 391.2L234.1 391.3L234.1 391.3L234.2 391.3L234.2 391.3L234.3 391.3L234.4 391.3L234.4 391.3L234.5 391.4L234.6 391.4L234.6 391.4L234.7 391.4L234.7 391.4L234.8 391.4L234.8 391.4L234.9 391.4L236.5 391.8L236.6 391.8L236.7 391.8L236.7 391.8L236.7 391.8L236.8 391.8L236.8 391.9L236.8 391.9L236.9 391.9L237.0 391.9L237.0 391.9L237.1 391.9L237.1 391.9L237.1 391.9L237.2 391.9L237.2 391.9L237.2 391.9L237.3 391.9L237.3 392L237.4 392.0L237.4 392.0L237.4 392.0L237.5 392.0L237.5 392.0L237.5 392.0L237.6 392.0L237.8 392.0L237.8 392.0L237.9 392.0L237.9 392.0L238 392.0L238.0 392.0L238.0 392.0L238.1 392L238.1 391.9L238.1 391.9L238.2 391.9L238.2 391.9L238.2 391.9L238.3 391.9L238.3 391.9L238.4 391.9L238.4 391.9L238.5 391.9L238.5 391.9L238.6 391.9L238.6 391.8L238.7 391.8L238.7 391.8L238.8 391.8L238.8 391.8L238.9 391.7L238.9 391.7L239.0 391.7L239.0 391.7L239.1 391.7L239.1 391.7L239.1 391.6L239.2 391.6L239.2 391.6L239.3 391.6L239.3 391.6L239.3 391.5L239.4 391.5L239.5 391.4L239.6 391.4L239.6 391.4L239.6 391.3L239.7 391.3L239.7 391.3L239.7 391.3L239.8 391.3L239.8 391.2L239.8 391.2L239.9 391.2L239.9 391.1L240.0 391.1L240.0 391.1L240.0 391.0L240.0 391.0L240.1 391.0L240.2 390.9L240.2 390.8L240.2 390.8L240.3 390.8L240.3 390.7L240.3 390.7L240.4 390.6L240.4 390.6L240.4 390.6L240.4 390.6L240.4 390.5L240.5 390.5L240.5 390.5L240.6 390.3L240.6 390.2L240.6 390.2L240.7 390.2L240.7 390.1L240.7 390.1L240.7 390.1L240.7 390.0L240.8 390.0L240.8 389.9L240.8 389.9L240.8 389.9L240.8 389.8L240.8 389.8L240.8 389.8L240.9 389.7L240.9 389.7L240.9 389.7L240.9 389.6L240.9 389.6L240.9 389.6L240.9 389.5L240.9 389.5L240.9 389.5L240.9 389.4L241.0 389.4L241.0 389.3L241.0 389.3L241.0 389.2L241.0 389.2L241.0 389.2L241.0 389.1L241.0 389.1L241.0 389.0L241.0 389.0L241.0 389.0L241.0 388.9L241.0 388.9L241.0 388.9L241.0 388.8L241.0 388.8L241.0 388.8L241.0 388.5L241.0 388.5L241.0 388.4L241.0 388.0L241.0 388.0L241.7 385.0L243.3 383.0L243.3 383.0L243.3 383L243.4 382.9L243.4 382.9L243.4 382.9L243.5 382.8L243.5 382.8L243.6 382.6L243.7 382.6L243.7 382.6L243.7 382.5L243.7 382.5L243.8 382.5L243.8 382.4L243.8 382.4L243.9 382.3L243.9 382.3L243.9 382.2L243.9 382.2L244.0 382.1L244.0 382.1L244.0 382.1L244.0 382.1L244.1 382.0L244.1 382.0L244.1 382.0L244.1 381.9L244.1 381.8L244.2 381.8L244.2 381.7L244.2 381.7L244.2 381.7L244.2 381.6L244.3 381.5L244.3 381.5L244.3 381.4L244.3 381.4L244.3 381.3L244.4 381.2L244.4 381.1L244.4 381.1L244.4 381.0L244.4 381.0L244.4 380.9L244.4 380.9L244.4 380.8L244.4 380.7L244.7 379.2L245.6 377.4L246.9 376.0L248.6 375.1L250.5 374.6L250.6 374.6L250.6 374.6L250.7 374.6L250.7 374.6L250.8 374.6L250.8 374.6L250.9 374.6L250.9 374.6L251.0 374.6L251.0 374.5L251.0 374.5L251.1 374.5L251.2 374.5L251.2 374.5L251.3 374.5L251.4 374.4L251.5 374.4L251.5 374.4L251.5 374.4L251.6 374.4L251.6 374.4L251.7 374.3L251.7 374.3L251.7 374.3L251.8 374.3L251.8 374.3L251.9 374.2L251.9 374.2L251.9 374.2L252.0 374.2L252.0 374.1L252.1 374.1L252.2 374.0L252.2 374.0L252.2 374.0L252.3 374.0L252.3 374.0L252.3 373.9L252.3 373.9L252.4 373.9L252.4 373.9L252.5 373.8L252.5 373.8L252.5 373.8L252.6 373.7L252.6 373.7L252.6 373.7L252.7 373.6L252.7 373.6L252.8 373.5L252.8 373.5L252.8 373.5L254.2 372.3L254.2 372.3L254.3 372.2L254.3 372.2L254.3 372.2L254.4 372.2L254.4 372.1L254.5 372.1L254.5 372.1L254.5 372.0L254.6 372.0L254.6 372.0L254.7 371.9L254.7 371.9L254.8 371.8L254.9 371.7L254.9 371.7L254.9 371.7L254.9 371.7L255.0 371.6L255.0 371.6L255.0 371.6L255.0 371.5L255.1 371.5L255.1 371.5L255.1 371.5L255.1 371.4L255.1 371.4L255.2 371.4L255.2 371.3L255.2 371.3L255.3 371.2L255.3 371.2L255.3 371.1L255.3 371.1L255.4 371.0L255.4 371.0L255.4 371.0L255.4 370.9L255.4 370.9L255.5 370.8L255.5 370.8L255.5 370.8L255.5 370.7L255.5 370.7L255.5 370.6L255.6 370.4L255.6 370.4L255.6 370.3L255.7 370.3L255.7 370.3L255.7 370.2L255.7 370.2L255.7 370.1L255.7 370.1L255.7 370.0L255.7 370.0L255.7 370.0L255.7 369.9L255.7 369.9L255.7 369.8L255.8 369.7L255.8 369.7L255.8 369.7L255.8 369.6L255.8 369.6L255.8 369.6L255.8 369.4L255.8 369.3L255.8 369.3L255.8 369.2L255.7 369.1L255.7 369.1L255.7 369.1L255.7 369.0L255.7 369.0L255.7 369.0L255.7 368.9L255.7 368.9L255.7 368.8L255.7 368.7L255.7 368.7L255.7 368.6L255.7 368.6L255.6 368.6L255.6 368.5L255.6 368.3L255.5 368.2L255.5 368.2L255.5 368.2L255.5 368.1L255.5 368.1L255.5 368.0L255.4 368.0L255.4 367.9L255.4 367.9L255.4 367.9L255.3 367.8L255.3 367.8L254.5 365.2L254.5 364.5L254.6 363.2L254.6 363.0L254.7 362.9L254.7 362.8L254.7 362.7L254.7 362.7L254.7 362.7L254.7 362.6L254.7 362.6L254.7 362.6L254.7 362.5L254.7 362.5L254.7 362.4L254.7 362.4L254.7 362.3L254.7 362.2L254.7 362.2L254.7 362.1L254.7 362.0L254.7 362.0L254.7 362.0L254.7 361.9L254.7 361.9L254.7 361.8L254.7 361.8L254.7 361.7L254.7 361.7L254.7 361.7L254.7 361.6L254.7 361.6L254.7 361.5L254.7 361.4L254.6 361.3L254.6 361.3L254.6 361.3L254.6 361.2L254.6 361.2L254.6 361.1L254.5 361.0L254.5 361.0L254.5 361.0L254.5 360.9L254.5 360.9L254.5 360.9L254.5 360.8L254.4 360.8L254.4 360.8L254.4 360.7L254.4 360.7L254.4 360.7L254.4 360.6L254.3 360.6L254.3 360.6L254.3 360.5L254.3 360.5L254.3 360.5L254.3 360.4L254.2 360.3L254.2 360.3L254.1 360.3L254.1 360.2L254.1 360.2L254.1 360.2L254.1 360.2L254.0 360.1L254.0 360.1L254.0 360.1L254.0 360.0L253.9 360.0L253.9 360.0L253.9 359.9L253.8 359.9L253.8 359.8L253.7 359.7L253.6 359.7L253.6 359.7L253.6 359.6L253.5 359.6L253.5 359.5L252.7 358.8L252.6 358.7L252.6 358.6L252.5 358.6L252.5 358.6L252.5 358.5L252.5 358.5L252.4 358.5L252.4 358.5L252.4 358.4L252.3 358.4L252.2 358.3L252.2 358.3L252.2 358.3L252.2 358.2L252.1 358.2L252.1 358.2L252.1 358.2L252.0 358.2L252.0 358.1L252.0 358.1L252.0 358.1L251.9 358.1L251.8 358.0L251.8 358.0L251.7 358.0L251.7 357.9L251.7 357.9L251.6 357.9L251.6 357.9L251.5 357.8L251.5 357.8L251.4 357.8L251.4 357.8L251.4 357.8L251.3 357.8L251.3 357.7L251.3 357.7L251.2 357.7L251.2 357.7L251.1 357.7L251.1 357.7L251.0 357.6L251 357.6L250.9 357.6L250.8 357.6L250.7 357.6L250.7 357.6L250.7 357.6L250.6 357.6L250.6 357.6L250.6 357.6L250.5 357.5L250.4 357.5L250.4 357.5L250.4 357.5L250.3 357.5L250.3 357.5L250.3 357.5L250.2 357.5L250.0 357.5L249.9 357.5L249.9 357.5L249.8 357.5L249.8 357.5L249.7 357.5L249.7 357.5L249.7 357.5L249.6 357.5L249.6 357.6L249.6 357.6L249.5 357.6L249.5 357.6L249.5 357.6L249.4 357.6L249.3 357.6L249.3 357.6L248.6 357.7L248.6 357.7L247.9 357.8L246.7 357.7L246.6 357.7L246.6 357.7L246.5 357.7L246.4 357.7L246.3 357.7L246.3 357.7L246.3 357.7L246.2 357.7L246.1 357.7L246.1 357.6L246.1 357.6L246.0 357.7L245.9 357.7L245.9 357.7L245.8 357.7L245.8 357.7L245.7 357.7L245.7 357.7L245.6 357.7L245.6 357.7L245.5 357.7L245.5 357.7L244.4 357.8L244.1 357.8L242.1 357.4L240.3 356.4L238.9 355.0L238.0 353.2L237.7 351.6L237.7 351.3L237.7 351.1L237.7 350.6L237.7 350.6L238.2 348.5L239.3 346.7L240.9 345.3L240.9 345.3L241.0 345.3L241.0 345.3L241.0 345.3L241.1 345.2L241.1 345.2L241.1 345.2L241.2 345.1L241.2 345.1L241.2 345.1L241.3 345.1L241.3 345.0L241.3 345.0L241.4 345.0L241.4 345.0L241.4 344.9L241.5 344.9L241.5 344.9L241.5 344.8L241.5 344.8L241.6 344.8L241.6 344.8L241.7 344.7L241.7 344.7L241.7 344.6L241.7 344.6L241.8 344.6L241.8 344.5L241.8 344.5L241.8 344.5L241.8 344.5L241.9 344.4L241.9 344.4L241.9 344.4L241.9 344.3L242.0 344.3L242.0 344.3L242.0 344.2L242.0 344.2L243.2 342.8L244.7 341.7L244.7 341.7L245.8 341.3L246.0 341.2L246.0 341.2L246.1 341.2L246.1 341.2L246.1 341.1L246.2 341.1L246.2 341.1L246.2 341.1L246.3 341.1L246.3 341.1L246.3 341.1L246.4 341.0L246.4 341.0L246.5 341.0L246.5 341.0L246.5 341L246.7 340.9L246.7 340.8L246.7 340.8L246.8 340.8L246.8 340.8L246.8 340.8L246.8 340.7L246.9 340.7L246.9 340.7L246.9 340.7L247.0 340.6L247.0 340.6L247.1 340.6L247.1 340.6L247.1 340.5L247.2 340.5L247.2 340.5L247.2 340.4L247.2 340.4L247.3 340.4L247.3 340.3L247.3 340.3L247.4 340.3L247.4 340.2L247.4 340.2L247.5 340.1L247.5 340.1L247.5 340.1L247.5 340.0L247.6 340.0L247.6 340.0L247.7 339.8L247.7 339.8L247.7 339.8L247.7 339.8L247.7 339.7L247.8 339.7L247.8 339.7L247.8 339.6L247.8 339.6L247.9 339.5L247.9 339.4L247.9 339.4L247.9 339.4L247.9 339.3L248.0 339.3L248.0 339.2L248.0 339.2L248.0 339.2L248.0 339.1L248.0 339.1L248.0 339.0L248.7 337.5L249.7 336.2L250.9 335.3L251.1 335.2L251.1 335.2L251.1 335.2L251.2 335.1L251.2 335.1L251.2 335.1L251.2 335.1L251.3 335.0L251.3 335.0L251.3 335.0L251.5 334.9L251.5 334.9L251.5 334.8L251.6 334.8L251.6 334.8L251.6 334.7L251.7 334.7L251.7 334.7L251.7 334.6L251.8 334.5L251.9 334.5L251.9 334.4L251.9 334.4L251.9 334.4L252 334.3L252.0 334.3L252.0 334.3L252.1 334.1L253.7 332.3L254.3 331.9L254.4 331.9L254.4 331.9L254.5 331.8L254.5 331.8L254.5 331.8L254.5 331.8L254.6 331.7L254.6 331.7L254.7 331.7L254.7 331.6L254.8 331.5L254.9 331.5L254.9 331.5L254.9 331.4L255.0 331.4L255.0 331.4L255.0 331.3L255.0 331.3L255.1 331.3L255.2 331.2L255.2 331.1L255.2 331.1L255.3 331.0L255.3 331.0L255.3 331.0L255.3 331.0L255.4 330.9L255.4 330.9L255.5 330.7L255.6 330.5L256.8 329.2L258.3 328.2L260 327.7L261.2 327.5L261.2 327.5L262.7 327.7L262.8 327.7L262.9 327.8L262.9 327.8L262.9 327.8L263.0 327.8L263.0 327.8L263.0 327.8L263.1 327.8L263.1 327.8L263.2 327.8L263.2 327.8L263.3 327.8L263.3 327.8L263.4 327.8L263.4 327.8L263.6 327.8L263.7 327.8L263.7 327.8L263.7 327.8L263.8 327.8L263.8 327.8L263.9 327.8L263.9 327.8L264.0 327.8L264.0 327.8L264.1 327.8L264.1 327.8L264.1 327.8L264.2 327.8L264.2 327.7L264.3 327.7L264.3 327.7L264.4 327.7L264.4 327.7L264.5 327.7L264.5 327.7L264.5 327.7L264.6 327.7L264.6 327.6L264.7 327.6L264.7 327.6L264.8 327.6L264.8 327.6L264.8 327.6L264.9 327.5L264.9 327.5L265.0 327.5L265.0 327.5L265.0 327.5L265.1 327.4L265.1 327.4L265.1 327.4L265.2 327.4L265.3 327.3L265.3 327.3L265.3 327.3L265.4 327.3L265.4 327.3L265.4 327.2L265.5 327.2L265.5 327.2L265.5 327.2L265.5 327.1L265.6 327.1L265.6 327.1L265.7 327.1L265.7 327.0L265.8 327.0L265.8 326.9L265.8 326.9L265.9 326.9L265.9 326.9L265.9 326.8L265.9 326.8L266.0 326.8L266.0 326.8L266.0 326.7L266.0 326.7L266.1 326.7L266.1 326.6L266.1 326.6L267.5 325.4L269.2 324.5L269.8 324.4L273.3 327.7L276.1 328.3L277.8 325.2L277.9 325.2L277.9 325.1L277.9 325.1L278.0 325.1L278.0 325.1L278.0 325.1L278.1 325.0L279.9 324.3L281.9 324.2L282.5 324.3L282.5 324.3L283.6 324.6L283.6 324.6L283.7 324.6L283.8 324.6L283.8 324.6L283.8 324.6L283.9 324.7L283.9 324.7L283.9 324.7L284.0 324.7L284.1 324.7L284.1 324.7L284.2 324.7L284.2 324.7L284.2 324.7L284.3 324.7L284.3 324.7L284.3 324.7L284.4 324.8L284.5 324.8L284.5 324.8L284.5 324.8L284.6 324.8L284.6 324.8L284.7 324.8L284.7 324.8L284.8 324.8L284.9 324.8L284.9 324.8L284.9 324.8L285.0 324.8L285.0 324.7L285.1 324.7L285.1 324.7L285.2 324.7L285.2 324.7L285.2 324.7L285.3 324.7L285.3 324.7L285.3 324.7L285.4 324.7L285.4 324.7L285.5 324.7L285.5 324.7L285.6 324.6L285.6 324.6L285.7 324.6L285.7 324.6L285.7 324.6L285.8 324.6L285.8 324.6L285.9 324.6L287.6 324.2L289.1 324.3L291.3 325.0L291.4 325.1L291.4 325.1L291.5 325.1L291.5 325.1L291.5 325.1L291.6 325.2L291.6 325.2L291.6 325.2L291.7 325.2L291.7 325.2L291.8 325.2L291.8 325.3L291.9 325.3L291.9 325.3L292.0 325.3L292.0 325.3L292.1 325.4L292.1 325.4L292.2 325.4L292.2 325.4L292.2 325.4L292.3 325.4L292.3 325.4L292.4 325.4L292.4 325.4L292.5 325.4L292.5 325.4L292.6 325.5L292.6 325.5L292.7 325.5L292.7 325.5L292.8 325.5L292.8 325.5L292.9 325.5L292.9 325.5L293.1 325.5L293.2 325.5L293.2 325.5L293.3 325.5L293.3 325.5L293.3 325.5L293.4 325.5L293.4 325.5L293.5 325.4L293.6 325.4L293.6 325.4L293.6 325.4L293.7 325.4L293.7 325.4L293.8 325.4L293.9 325.4L293.9 325.4L294.0 325.3L294.1 325.3L294.1 325.3L294.1 325.3L294.2 325.3L294.3 325.2L294.3 325.2L294.4 325.2L294.4 325.2L294.5 325.1L294.5 325.1L294.5 325.1L294.6 325.1L294.6 325.1L294.6 325.1L294.7 325.0L294.7 325.0L294.9 324.9L294.9 324.9L295.0 324.9L295.0 324.8L295.0 324.8L295.0 324.8L295.1 324.8L295.1 324.8L295.1 324.7L295.2 324.7L295.2 324.7L295.2 324.6L295.3 324.6L295.3 324.6L295.4 324.5L295.4 324.5L295.4 324.5L295.5 324.4L295.5 324.4L295.5 324.4L295.5 324.3L295.6 324.3L295.6 324.3L295.6 324.3L295.6 324.2L295.7 324.2L295.7 324.1L295.7 324.1L295.7 324.1L295.8 324.1L295.8 324.0L295.8 324.0L295.9 323.9L297.3 322.3L305.5 327.6L307.8 332.9L307.9 341.4L306.5 347.4L305.1 347.7L304.9 347.7L304.8 347.7L304.7 347.7L304.7 347.7L304.6 347.7L304.6 347.7L304.6 347.7L304.5 347.7L304.5 347.7L304.4 347.7L304.4 347.7L304.4 347.8L304.3 347.8L304.3 347.8L304.2 347.8L304.2 347.8L304.1 347.8L304.0 347.8L304.0 347.8L304.0 347.8L303.9 347.8L303.7 347.9L303.7 347.9L303.6 347.9L303.6 348.0L303.6 348.0L303.5 348.0L303.5 348.0L303.4 348.0L303.4 348.1L303.4 348.1L303.3 348.1L303.3 348.1L303.3 348.1L303.2 348.2L303.2 348.2L303.0 348.3L303.0 348.3L303 348.3L302.9 348.3L302.9 348.4L302.9 348.4L302.8 348.4L302.8 348.4L302.8 348.4L302.7 348.5L302.7 348.5L302.7 348.5L302.6 348.6L302.6 348.6L302.6 348.6L302.5 348.6L302.5 348.7L302.5 348.7L302.4 348.8L302.4 348.8L302.3 348.9L302.3 348.9L302.3 348.9L302.3 348.9L302.2 349.0L302.2 349.0L302.2 349.0L302.2 349.1L302.2 349.1L302.1 349.1L302.1 349.2L302.1 349.2L302.1 349.2L302.1 349.2L302.0 349.3L302.0 349.4L302.0 349.4L301.9 349.4L301.9 349.5L301.9 349.5L301.9 349.5L301.9 349.6L301.9 349.6L301.8 349.6L301.8 349.7L301.8 349.7L301.8 349.8L301.8 349.8L301.7 349.9L301.6 350.1L301.6 350.2L301.6 350.2L301.6 350.2L301.6 350.3L301.6 350.4L301.6 350.4L301.6 350.4L301.6 350.5L301.6 350.5L301.6 350.6L301.5 350.6L301.5 350.6L301.5 350.7L301.5 350.7L301.5 350.8L301.5 350.8L301.5 350.9L301.5 350.9L301.5 351.0L301.5 351.1L301.5 351.6L301.5 351.6L301.1 353.3L301.1 353.3L301.1 353.4L301.1 353.4L301.1 353.5L301.1 353.6L301.0 353.6L301.0 353.8L301.0 353.8L301.0 353.8L301.0 353.9L301.0 353.9L301.0 354.0L301.0 354.1L301 354.1L300.9 354.2L300.9 354.2L300.9 354.2L300.9 354.3L300.9 354.4L300.9 354.4L300.9 354.5L300.9 354.5L300.9 354.6L300.9 354.6L300.9 354.6L300.9 354.7L301 354.7L301.0 354.8L301.0 354.8L301.0 354.9L301.0 354.9L301.0 355.0L301.0 355.0L301.0 355.1L301.0 355.1L301.0 355.1L301.0 355.2L301.0 355.3L301.1 355.3L301.1 355.4L301.1 355.4L301.1 355.5L301.1 355.5L301.1 355.6L301.3 355.9L301.4 357.1L299.5 359.2L298.1 357.0L295.4 355.8L298.8 361.1L297.2 363.8L295.7 364.4L295.4 364.5L295.3 364.5L295.2 364.5L295.2 364.5L295.2 364.5L295.1 364.5L295.1 364.5L295.0 364.5L294.9 364.5L294.9 364.6L294.8 364.6L294.7 364.6L294.7 364.6L294.6 364.6L294.6 364.6L294.5 364.7L294.5 364.7L294.4 364.7L294.4 364.7L294.4 364.7L294.3 364.7L294.3 364.7L294.2 364.8L294.2 364.8L294.2 364.8L294.1 364.8L294.1 364.8L294.1 364.8L294.0 364.9L294.0 364.9L294.0 364.9L294 364.9L293.8 365.0L293.8 365.0L293.8 365.0L293.7 365.1L293.7 365.1L293.7 365.1L293.6 365.1L293.6 365.1L293.6 365.2L293.5 365.2L293.5 365.2L293.5 365.3L293.4 365.3L293.4 365.3L293.3 365.4L293.3 365.4L291.7 363.4L285.2 367.6L286.6 368.6L290.6 366.7L290.7 367.3L290.1 367.6L290 367.6L289.9 367.6L289.9 367.6L289.8 367.7L289.8 367.7L289.7 367.7L289.7 367.7L289.6 367.7L289.6 367.8L289.5 367.8L289.5 367.8L289.5 367.8L289.4 367.8L289.4 367.8L289.4 367.9L289.3 367.9L289.1 368.0L289.1 368.0L289.1 368.1L289.0 368.1L289.0 368.1L289.0 368.1L288.9 368.1L288.9 368.2L288.9 368.2L288.9 368.2L288.8 368.2L288.7 368.3L288.7 368.3L288.7 368.4L288.7 368.4L288.6 368.4L288.6 368.4L288.6 368.5L288.6 368.5L288.5 368.5L288.5 368.5L288.4 368.7L288.4 368.7L288.4 368.7L288.3 368.7L288.3 368.8L288.3 368.8L288.3 368.8L288.3 368.9L288.2 368.9L288.2 369.0L288.1 369.0L288.1 369.0L288.1 369.1L288.1 369.1L288.1 369.1L288.1 369.2L288.0 369.2L288.0 369.2L288.0 369.3L288.0 369.3L288.0 369.3L288.0 369.4L287.9 369.4L287.9 369.5L287.9 369.5L287.9 369.6L287.9 369.6L287.8 369.9L286.9 371.6L284.7 373.7L283.3 374.3L283.1 374.4L283.1 374.4L283.1 374.4L283.0 374.4L283.0 374.4L282.9 374.4L282.9 374.5L282.9 374.5L282.8 374.5L282.8 374.5L282.8 374.5L282.7 374.5L282.7 374.6L282.7 374.6L282.6 374.6L282.6 374.6L282.5 374.7L282.5 374.7L282.4 374.7L282.4 374.7L282.3 374.8L282.3 374.8L282.3 374.8L282.3 374.8L282.2 374.9L282.2 374.9L282.2 374.9L282.1 375.0L282.0 375.0L282.0 375.1L281.9 375.1L281.9 375.1L281.9 375.2L281.9 375.2L281.8 375.2L281.8 375.2L281.8 375.3L281.7 375.3L281.7 375.3L280.1 375.9L278.2 377.9L281.0 376.7L280.1 378.4L279.7 379.0L279.6 379.1L279.6 379.2L279.5 379.2L279.5 379.2L279.5 379.2L279.5 379.3L279.5 379.3L279.4 379.3L279.4 379.4L279.4 379.4L279.3 379.5L279.3 379.5L279.3 379.5L279.3 379.5L279.2 379.6L279.2 379.7L279.2 379.7L279.2 379.7L279.2 379.8L279.1 379.8L279.1 379.9L279.1 380.0L279.0 380.0L279.0 380.0L279.0 380.1L279.0 380.1L278.9 380.4L278.9 380.4L278.9 380.4L278.9 380.5L278.9 380.5L278.9 380.5L278.9 380.6L278.9 380.6L278.8 380.7L278.8 380.7L278.8 380.8L278.8 380.8L278.8 380.8L278.8 380.9L278.8 380.9L278.8 380.9L278.8 381.0L278.8 381.0L278.8 381.1L278.8 381.1L278.8 381.1L278.8 381.2L278.8 381.2L278.8 381.4L278.8 381.5L278.8 381.5L278.8 381.5L278.8 381.6L278.8 381.6L278.8 381.6L278.8 381.7L278.8 381.8L278.8 381.8L278.8 381.8L278.8 381.9L278.8 381.9L278.8 381.9L278.9 382.0L278.9 382.0L278.9 382.1L278.9 382.2L278.9 382.2L278.9 382.2L278.9 382.3L279.0 382.5L279.0 382.5L279.0 382.5L279.0 382.6L279.0 382.6L279.1 382.6L279.1 382.7L279.1 382.7L279.1 382.8L279.1 382.8L279.2 382.8L279.2 382.9L279.2 382.9L279.2 382.9L279.2 383.0L279.2 383.0L279.3 383.0L279.3 383.1L279.3 383.2L279.4 383.2L279.4 383.2L279.4 383.3L279.4 383.3L279.5 383.3L279.5 383.3L279.5 383.4L279.5 383.4L279.5 383.4L279.6 383.5L279.6 383.5L279.7 383.6L280.8 385.4L281.3 387.5L281.3 387.5L281.2 389.3L280.7 391.0L279.7 392.5L279.6 392.5L279.6 392.6L279.5 392.6L279.5 392.7L279.5 392.7L279.5 392.7L279.5 392.7L279.4 392.8L279.4 392.8L279.4 392.8L279.3 392.9L279.3 392.9L279.3 393.0L279.2 393.1L279.2 393.1L279.2 393.1L279.2 393.2L279.2 393.2L279.1 393.2L279.1 393.3L279.1 393.3L279.1 393.3L279.1 393.4L279.0 393.4L279.0 393.5L279.0 393.6L278.9 393.8L278.9 393.8L278.9 393.9L278.9 393.9L278.9 393.9L278.9 394.0L278.9 394.1L278.8 394.2L278.8 394.2L278.8 394.2L278.8 394.3L278.8 394.3L278.8 394.3L278.8 394.4L278.8 394.5L278.8 394.5L278.8 394.5L278.8 394.6L278.8 394.6L278.8 394.6L278.8 394.9L278.8 394.9L278.8 394.9L278.8 395.0L278.8 395.0L278.8 395.0L278.8 395.1L278.8 395.1L278.8 395.2L278.8 395.2L278.8 395.3L278.8 395.3L278.8 395.3L278.8 395.4L278.9 395.4L278.9 395.5L278.9 395.5L278.9 395.6L278.9 395.6L278.9 395.6L278.9 395.7L278.9 395.7L279.0 395.9L279.0 396L279.0 396.0L279.0 396.0L279.0 396.1L279.1 396.1L279.1 396.2L279.1 396.2L279.1 396.2L279.1 396.3L279.2 396.3L279.2 396.3L279.2 396.4L279.2 396.4L279.2 396.4L279.2 396.5L279.3 396.6L279.4 396.6L279.4 396.7L279.4 396.7L279.4 396.7L279.5 396.8L279.5 396.8L279.5 396.8L279.5 396.8L279.5 396.9L279.6 396.9L279.6 396.9L279.6 397.0L279.7 397.0L280.6 398.3L281.1 399.8L281.3 400.8L281.3 400.9L278.2 401.9L275.7 404.6L263.9 401.7L254.0 403.6L251.1 405.7L248.4 404.0L249.5 402.9L248.0 401.5L242.6 401.4L243.5 402.8L242.8 403.9L238.4 403.4L232.2 405.9L224.1 406.4L221.6 405.6L220.7 407.1L223.7 408.1L223.6 410.7L221.2 411.1L213.2 409.0L211.5 410.6L212.0 411.9L211.8 411.7L211.7 411.6L211.7 411.6L211.7 411.5L211.6 411.5L211.6 411.4L211.6 411.4L211.6 411.4L211.5 411.4L211.5 411.3L211.5 411.3L211.4 411.2L211.4 411.1L211.3 411.1L211.3 411.0L211.2 411.0L211.2 411.0L211.1 410.9L211.1 410.9L211.1 410.9L211.0 410.8L211.0 410.8L211.0 410.8L211 410.8L210.9 410.8L210.9 410.7L210.9 410.7L210.8 410.7L210.8 410.6L210.7 410.6L210.7 410.6L210.6 410.6L208.6 408.6L208.5 408.5L208.5 408.5L208.5 408.5L208.5 408.4L208.4 408.4L208.4 408.3L208.4 408.3L208.3 408.3L208.3 408.2L208.3 408.2L208.2 408.1L208.2 408.1L208.1 408.0L208.1 408.0L208.1 408.0L208.0 408.0L208.0 407.9L208.0 407.9L208.0 407.9L207.9 407.8L207.8 407.8L207.8 407.8L207.8 407.7L207.8 407.7L207.7 407.7L207.7 407.7L207.7 407.6L207.6 407.6L207.6 407.6L207.5 407.5L207.5 407.5L207.4 407.5L207.4 407.5L207.3 407.4L207.3 407.4L207.3 407.4L207.2 407.4L207.2 407.4L207.2 407.4L207.1 407.3L207.1 407.3L207.1 407.3L207.0 407.3L207.0 407.3L207 407.3L206.9 407.2L206.8 407.2L206.8 407.2L206.7 407.2L206.7 407.2L206.6 407.2L206.6 407.2L206.5 407.1L206.5 407.1L206.4 407.1L206.4 407.1L206.3 407.1L206.3 407.1L206.3 407.1L206.2 407.1L206.2 407.1L206.2 407.1L206.1 407.1L206.1 407.1L206.0 407.1L206.0 407.1L206.0 407.1L205.9 407.1L205.9 407.0L205.8 407.0L205.8 407.0L205.7 407.0L205.7 407.0L205.6 407.0L205.6 407.1L205.5 407.1L205.5 407.1L205.5 407.1L205.4 407.1L205.4 407.1L205.3 407.1L205.3 407.1L205.3 407.1L205.2 407.1L205.2 407.1L205.2 407.1L205.1 407.1L205.1 407.1L205.0 407.1L205.0 407.1L200.7 405.5L193.0 407.6L188.4 410.1L183.0 423.9L181.4 424.8L179.1 424.4L176.0 420.7 Z M 298.0 390.3L296.5 389.1L296.5 389.1L296.2 388.7L295.8 388.5L295.7 388.5L295.7 388.5L295.6 388.4L295.6 388.4L295.6 388.4L295.5 388.4L295.5 388.4L295.5 388.4L295.4 388.3L295.4 388.3L295.3 388.3L295.3 388.3L295.3 388.3L295.2 388.2L295.2 388.2L295.2 388.2L295.1 388.2L295.1 388.2L295.0 388.2L295.0 388.1L294.9 388.1L294.9 388.1L294.8 388.1L294.8 388.1L294.7 388.1L294.7 388.1L294.6 388.1L294.5 388.0L294.5 388.0L294.4 388.0L294.3 388.0L294.2 388.0L292.3 387.6L290.6 386.6L289.3 385.1L288.4 383.4L288.1 381.4L288.1 381.1L290.6 381.6L301.7 379.3L302.8 381.4L302.2 388.1 Z M 288.2 380.6L288.6 378.8L288.8 378.3L290.5 378.7L291.5 380.3L290.4 381.0 Z M 244.9 407.2L242.4 410.4L239.7 411.3L234.6 408.1L232.8 408.3L239.0 404.1L243.5 405.3 Z M 246.9 401.8L247.2 403.9L245.7 403.5 Z M 246.9 401.8 "/>
















</g>
</svg>
