<?xml version="1.0" encoding="UTF-8"?>
<svg xmlns="http://www.w3.org/2000/svg" xmlns:xlink="http://www.w3.org/1999/xlink" width="378pt" height="504pt" viewBox="0 0 378 504" version="1.1">
<g id="data">
<rect x="0" y="0" width="378" height="504" style="fill:rgb(100%,100%,100%);fill-opacity:1;stroke:none;"/>
<path style=" stroke:none;fill-rule:nonzero;fill:rgb(100%,100%,100%);fill-opacity:1;" d="M 21 504L357 504L357 0L21 0 Z M 21 504 "/>
<path style=" stroke:none;fill-rule:nonzero;fill:#C2B855;fill-opacity:1;" d="M 122.7 140.0L123.3 140.3L123.0 140.5 Z M 129.2 146.1L129.2 146.1L129.2 146.1L129.3 146.1L129.3 146.1L129.3 146.1L129.4 146.1L129.4 146.1L129.4 146.1L129.5 146.1L129.5 146.1L129.6 146.1L129.7 146.1L129.7 146.1L129.8 146.1L130.1 146.1L133.4 149.6L134.6 148.9L134.2 146.2L135.0 146.3L135.1 146.3L135.2 146.3L135.3 146.3L135.3 146.3L135.4 146.3L135.4 146.4L135.4 146.4L135.5 146.4L135.5 146.4L135.6 146.4L135.6 146.4L135.6 146.4L135.7 146.4L135.7 146.4L136.0 146.4L136.0 146.4L136.1 146.4L136.1 146.4L136.1 146.4L136.2 146.4L136.2 146.4L136.2 146.4L136.3 146.3L136.3 146.3L136.4 146.3L136.5 146.3L136.6 146.3L136.6 146.3L136.6 146.3L136.7 146.3L136.7 146.3L136.8 146.2L136.8 146.2L136.8 146.2L136.9 146.2L136.9 146.2L137.0 146.2L137.0 146.2L137.1 146.2L137.1 146.1L137.1 146.1L137.2 146.1L137.2 146.1L137.3 146.1L137.3 146.0L137.3 146.0L137.4 146.0L137.4 146.0L137.4 146.0L137.5 146.0L137.5 145.9L137.6 145.9L137.6 145.9L137.7 145.9L137.7 145.8L137.7 145.8L137.8 145.8L137.8 145.7L137.8 145.7L137.9 145.7L137.9 145.7L137.9 145.7L138 145.6L138.0 145.6L138.0 145.6L138.0 145.6L138.1 145.5L138.1 145.5L138.2 145.4L138.2 145.4L138.2 145.4L138.7 145.8L139.1 157.4L143.8 160.2L146.6 158.9L148.7 159.8L148.1 161.9L144.3 165.2L142.5 167.6L140.8 168.1L140.4 166.9L141.8 164.1L140.7 162.3L139.7 164.2L137.8 162.4L134.9 162.7L131.9 157.0L133.4 155.9L135.4 157.2L131.1 153.0L130.1 155.8L127.4 154.3L126.1 151.1 Z M 129.5 134.6L128.5 133.8L127.3 131.8L126.8 129.6L126.8 129.6L126.8 129.3L126.8 129.1L127.2 127.1L127.2 127.0L127.2 126.9L127.2 126.9L127.2 126.9L127.2 126.8L127.3 126.8L127.3 126.8L127.3 126.7L127.3 126.7L127.3 126.6L127.3 126.6L127.3 126.6L127.3 126.5L127.3 126.5L127.3 126.5L127.3 126.4L127.3 126.4L127.3 126.4L127.3 126.3L127.4 126.2L127.4 126.2L127.4 126.2L127.4 126.1L127.4 126.1L127.4 126.1L127.4 125.8L127.4 125.8L127.4 125.8L127.4 125.7L127.4 125.7L127.4 125.7L127.3 125.6L127.3 125.5L127.3 125.5L127.3 125.5L127.3 125.4L127.3 125.4L127.3 125.4L127.3 125.3L127.3 125.3L127.3 125.3L127.3 125.2L127.3 125.1L127.2 125.1L127.2 125.0L127.2 125.0L127.2 125.0L127.2 124.8L126.9 123.7L126.9 123.7L128.9 123.3L128.1 119.3L133.2 117.3L139.2 112.1L140.9 115.7L137.2 122.4L138.2 122.9L140.4 121.7L140.5 123.3L139.1 124.5L137.1 124.4L135.9 126.3L131.1 127.8L135.6 127.2L136.2 129.9L133.6 132.9L131.6 134.2L129.8 133.6L129.2 130.4L130.2 129.0L131.6 129.0L129.7 128.6L128.1 130.7 Z M 126.8 122.4L126.9 121.5L128.0 122.4L127.1 123.0 Z M 197.1 92.4L197.5 92.3L198.7 92.5L200.8 93.3L202.1 94.3L203.1 95.6L203.8 97.1L204.1 98.8L204.1 98.8L204.1 98.9L203.8 98.7L199.6 99.7L196.6 97.6 Z M 204.0 102.8L203.9 104.0L203.9 104.0L203.7 104.4L203.8 104.9L203.8 105.0L203.8 105.0L203.8 105.1L203.8 105.1L203.8 105.2L203.8 105.2L203.8 105.3L203.8 105.3L203.9 105.3L203.9 105.4L203.9 105.4L203.9 105.5L203.9 105.6L203.9 105.6L203.9 105.6L203.9 105.7L203.9 105.7L203.9 105.7L204.0 105.8L204.0 105.8L204.0 105.8L204.0 106L204.0 106.0L204.0 106.0L204.1 106.1L204.1 106.1L204.1 106.1L202.5 103.2 Z M 207.3 145.2L207.4 146.3L207.4 146.3L207.3 147.2L207.3 147.3L207.3 147.3L207.3 147.3L207.3 147.4L207.3 147.5L207.3 147.5L207.3 147.6L207.3 147.6L207.3 147.6L207.3 147.7L207.3 147.7L207.3 147.8L207.3 147.9L207.3 148.0L207.3 148.0L207.3 148.0L207.3 148.1L207.3 148.1L207.3 148.2L207.3 148.2L207.3 148.3L207.3 148.3L207.3 148.4L207.4 149.4L207.4 149.4L206.8 152.3L206.8 152.4L206.7 152.4L206.7 152.5L206.7 152.5L206.7 152.6L206.7 152.6L206.7 152.6L206.6 152.9L206.6 152.9L206.6 153.0L206.5 153.0L206.5 153.1L206.5 153.1L206.5 153.2L206.5 153.2L206.5 153.3L206.5 153.3L206.5 153.4L206.5 153.4L206.5 153.4L206.5 153.5L206.5 153.6L206.5 153.6L206.5 153.7L206.5 153.7L206.5 153.9L206.5 153.9L206.5 154.0L206.5 154.0L206.5 154.1L206.5 154.1L206.5 154.1L206.5 154.2L206.5 154.2L206.5 154.3L206.5 154.3L206.5 154.3L206.5 154.4L206.5 154.4L206.5 154.5L206.5 154.5L206.5 154.6L206.6 154.7L206.6 154.7L206.6 154.7L206.6 154.8L206.6 154.8L206.6 154.8L206.7 155.0L206.7 155.0L206.7 155.0L206.7 155.1L206.7 155.1L206.7 155.1L206.7 155.2L206.8 155.3L206.8 155.3L206.8 155.4L206.9 155.4L206.9 155.4L206.9 155.5L206.9 155.5L206.9 155.5L207 155.6L207.0 155.6L207.0 155.7L207.0 155.7L207.1 155.7L207.1 155.8L207.1 155.8L207.1 155.8L207.1 155.8L207.2 155.9L207.2 155.9L207.2 155.9L207.2 156.0L207.3 156.0L207.3 156.0L207.3 156.1L207.3 156.1L207.4 156.1L207.4 156.1L207.4 156.2L207.4 156.2L207.5 156.2L207.5 156.3L207.5 156.3L207.6 156.4L207.7 156.4L207.7 156.4L207.7 156.4L207.7 156.5L207.8 156.5L207.8 156.5L207.8 156.5L207.9 156.5L207.9 156.6L208.0 156.6L208.1 156.7L208.2 156.7L208.2 156.8L208.2 156.8L208.3 156.8L208.3 156.8L208.3 156.8L208.4 156.8L208.4 156.9L208.5 156.9L208.5 156.9L208.5 156.9L208.6 156.9L208.6 157L208.7 157.0L208.7 157.0L208.8 157.0L208.8 157.0L208.9 157.0L208.9 157.1L209.0 157.1L209.1 157.1L209.1 157.1L209.1 157.1L209.2 157.1L209.2 157.1L209.3 157.1L209.3 157.1L209.3 157.1L209.4 157.1L209.4 157.1L209.5 157.2L209.6 157.2L209.6 157.2L209.6 157.2L209.7 157.2L209.7 157.2L209.9 157.2L210.0 157.2L210.0 157.2L210.0 157.2L210.1 157.2L210.1 157.2L210.1 157.2L210.2 157.1L210.2 157.1L210.3 157.1L210.3 157.1L210.4 157.1L210.4 157.1L210.4 157.1L210.5 157.1L210.6 157.1L210.6 157.1L210.6 157.1L210.7 157.1L210.7 157.1L210.8 157.0L210.8 157.0L210.9 157.0L211.0 157.0L211.0 156.9L211.1 156.9L211.1 156.9L211.1 156.9L211.2 156.9L211.2 156.9L211.2 156.9L211.3 156.8L213.8 156.2L213.8 156.2L214.5 156.2L214.6 156.2L214.6 156.2L214.8 156.2L214.9 156.2L214.9 156.2L215.0 156.2L215.1 156.2L215.1 156.2L215.1 156.2L215.2 156.2L215.2 156.2L215.2 156.2L215.3 156.2L215.3 156.2L215.3 156.1L215.4 156.1L215.5 156.1L215.6 156.1L215.6 156.1L215.7 156.0L215.8 156.0L215.8 156.0L215.9 156.0L215.9 156.0L215.9 156.0L216.0 156.0L216.0 156L216.1 155.9L216.1 155.9L216.2 155.9L216.2 155.9L216.3 155.8L216.3 155.8L216.3 155.8L216.3 155.8L216.4 155.8L216.4 155.8L216.4 155.7L216.6 155.7L218.4 154.9L220.0 154.7L218.8 153.5L217.9 151.7L217.5 149.5L217.5 149.4L217.6 148.3L217.6 148.3L217.8 147.8L217.6 147.2L217.6 147.2L217.5 146.6L217.5 146.0L222.1 145.4L224.2 146.3L227.1 153.0L225.5 156.0L224.4 156.1L225.0 156.8L221.5 163.2L218.1 176.3L218.0 176.3L218.0 176.3L218.0 176.3L218 176.3L217.9 176.3L217.8 176.4L217.8 176.4L217.7 176.4L217.7 176.4L217.6 176.4L217.5 176.4L217.5 176.4L217.4 176.4L217.4 176.4L217.3 176.5L217.3 176.5L217.3 176.5L217.2 176.5L217.2 176.5L217.1 176.6L217.1 176.6L217.0 176.6L217.0 176.6L217.0 176.6L216.9 176.6L216.9 176.6L216.9 176.7L216.8 176.7L216.8 176.7L216.8 176.7L216.7 176.7L216.7 176.8L216.6 176.8L216.5 176.8L216.5 176.9L216.5 176.9L216.5 176.9L216.4 176.9L216.4 176.9L216.4 177.0L216.3 177.0L216.3 177.0L216.3 177.0L216.2 177.0L216.2 177.1L216.2 177.1L216.1 177.1L216.1 177.2L216.0 177.2L216.0 177.3L215.9 177.3L215.9 177.4L215.9 177.4L215.8 177.5L214.7 178.5L214.7 178.5L213.2 179.3L213.1 179.3L213.1 179.3L213.0 179.3L212.9 179.4L212.9 179.4L212.9 179.4L212.8 179.4L212.8 179.4L212.8 179.5L212.7 179.5L212.7 179.5L212.7 179.5L212.6 179.5L212.6 179.5L212.5 179.6L212.5 179.6L212.4 179.7L212.4 179.7L212.3 179.7L212.3 179.7L212.3 179.8L212.2 179.8L212.2 179.8L212.2 179.8L212.1 179.9L212.0 180.0L212.0 180.0L212.0 180.0L212.0 180.0L211.9 180.1L211.9 180.1L211.9 180.1L211.8 180.2L211.8 180.3L211.7 180.3L211.7 180.3L211.7 180.3L211.7 180.4L211.6 180.4L211.6 180.5L211.6 180.5L211.6 180.5L211.5 180.6L211.5 180.6L211.5 180.6L211.5 180.7L211.4 180.7L211.4 180.8L211.4 180.8L211.3 180.9L211.3 180.9L211.3 180.9L211.3 181.0L211.3 181.0L211.3 181.0L211.3 181.1L211.2 181.1L211.2 181.1L211.2 181.2L211.2 181.2L211.2 181.2L211.1 181.5L211.1 181.5L211.1 181.6L211.1 181.6L211.1 181.6L211.0 181.7L211.0 181.8L211.0 181.8L211.0 181.8L211.0 181.9L211.0 181.9L211.0 182.0L211.0 182.0L211.0 182.1L211.0 182.1L211.0 182.1L211.0 182.2L211.0 182.2L211.0 182.3L211.0 182.3L211.0 182.4L211.0 182.4L211.0 182.4L211.0 182.5L211.0 182.6L211.0 182.6L211.0 182.7L211.0 182.7L211.0 182.7L211.0 182.8L211.0 182.8L211.0 182.8L211.0 182.9L211.0 182.9L211.0 183.0L211.0 183.0L211.0 183.0L211.0 183.1L211.0 183.1L211.0 183.2L211.1 183.2L211.1 183.3L211.1 183.3L211.1 183.4L211.1 183.5L211.1 183.5L211.1 183.5L211.2 183.6L211.2 183.7L211.2 183.7L211.2 183.8L211.3 183.8L211.3 183.8L211.3 183.9L211.3 183.9L211.3 184.0L211.4 184.0L211.4 184.0L211.4 184.1L211.5 184.3L211.6 184.4L211.6 184.4L211.6 184.4L211.6 184.4L211.7 184.5L211.7 184.5L211.7 184.5L211.7 184.6L211.7 184.6L211.8 184.6L211.8 184.6L211.8 184.7L211.9 184.7L211.9 184.8L211.9 184.8L211.9 184.8L212.1 184.9L212.4 185.3L211.7 187.1L207.7 190.4L200.4 191.7L196.0 195.1L204.3 191.8L205.8 192.2L206.0 195.8L209.2 196.8L210.4 198.6L210.4 198.7L206.1 201.6L202.6 201.1L198.5 205.4L193.4 208.0L189.5 206.3L186.2 206.2L186.5 207.3L200.5 210.7L203.5 209.5L205.4 206.5L209.4 206.6L220.9 213.7L226.4 222.4L230.3 224.4L233.0 240.5L235.9 247.0L237.8 254.9L240.7 259.1L253.8 265.3L258.0 273.6L260.7 276.5L264.9 278.8L262.7 280.0L261.9 282.5L264.0 288.1L270.2 296.8L269.7 299.1L269.5 297.1L267.7 296.3L265.1 297.0L260.9 293.0L254.8 294.2L252.9 293.4L251.0 294.5L255.4 295.0L260.3 293.8L262.4 296.8L270.5 302.5L272.5 305.2L275.1 311.3L275.3 316.5L267.8 324.8L269.7 324.4L273.3 327.7L276.1 328.3L280.0 321.2L287.5 320.8L296.7 321.9L305.5 327.6L307.8 332.9L307.9 341.4L305.0 353.4L299.5 359.2L298.1 357.0L295.4 355.8L298.8 361.1L297.2 363.8L293.3 365.4L291.7 363.4L285.2 367.6L286.6 368.6L290.6 366.7L291.2 371.6L287.6 374.8L284.3 374.5L280.1 375.9L278.2 377.9L281.7 376.4L285.5 376.9L286.1 378.1L284.2 378.1L282.4 379.3L282.9 380.0L290.6 381.6L301.7 379.3L302.8 381.4L302.2 388.1L294.3 392.3L292.8 394.4L292.8 396.8L288.2 396.8L285.5 399.4L278.2 401.9L275.7 404.6L263.9 401.7L254.0 403.6L251.1 405.7L248.4 404.0L249.5 402.9L248.0 401.5L242.6 401.4L243.5 402.8L242.8 403.9L238.4 403.4L232.2 405.9L224.1 406.4L221.6 405.6L220.7 407.1L223.7 408.1L223.6 410.7L221.2 411.1L213.2 409.0L211.5 410.6L212.2 412.7L206.9 407.8L200.7 405.5L193.0 407.6L188.4 410.1L184.8 419.4L184.8 419.4L184.7 419.4L184.7 419.5L184.7 419.5L184.6 419.5L184.6 419.6L184.6 419.6L184.6 419.6L184.6 419.6L184.5 419.7L184.5 419.7L184.5 419.7L184.4 419.8L184.4 419.9L184.4 419.9L184.3 420.0L184.3 420.0L184.3 420.1L184.3 420.1L184.3 420.1L184.3 420.2L184.2 420.2L184.2 420.2L184.2 420.3L184.2 420.3L184.2 420.3L184.2 420.4L184.1 420.4L184.1 420.5L184.1 420.5L184.1 420.6L184.1 420.7L184.0 420.7L184.0 420.8L184.0 420.8L184.0 420.9L184.0 420.9L184.0 421.0L184.0 421.0L184.0 421.0L184.0 421.1L184.0 421.1L183.9 421.1L183.9 421.2L183.9 421.2L183.9 421.3L183.9 421.3L183.9 421.3L183.9 421.4L183.9 421.4L183.9 421.4L183.9 421.5L183.9 421.5L183.9 421.6L183.9 421.6L183.0 423.9L181.4 424.8L179.1 424.4L176.0 420.7L173.5 421.3L170.6 418.1L165.7 418.5L163.2 419.9L156.5 420.2L154.1 423.1L149.5 425.1L149.0 429.9L146.5 431.2L145.6 433.0L143.5 428.7L139.2 426.4L137.6 426.8L136.8 429.1L133.3 428.8L133.9 425.1L138.8 423L140.4 423.9L149.7 415.8L150.8 411.2L156.4 409.6L157.4 406.9L162.1 402.6L163.1 394.1L168.3 394.7L170.6 392.1L170.3 387.8L180.5 386.2L187.1 386.9L189.9 388.6L198.4 387.8L200.1 381.5L213.6 366.8L207.1 372.6L205.9 373.9L196.6 377.1L194.9 380.7L189.8 381.2L186.1 380.1L179.8 371.9L171.2 375.0L169.5 374.0L169.3 372.0L173.4 371.3L174.4 369.7L170.0 369.5L166.1 367.2L162.9 367.2L160.5 367.7L159.6 370.2L156.0 370.4L154.1 372.1L151.6 371.0L152.4 369.2L156.2 367.7L155.7 366.4L155.2 367.6L152.7 367.9L147.2 366.7L150.7 365.0L150.2 362.2L147.2 361.4L147.7 359.8L151.1 358.2L151.6 356.9L157.3 356.4L161.2 352.3L165.2 352.2L171.4 348.2L173.8 345.1L175.6 339.5L174.2 335.0L176.0 330.8L173.9 327.7L174.4 323.4L168.0 324.3L165.1 327.6L160.0 327.6L163.4 323.2L169.5 318.9L170.2 315.9L173.3 312.5L181.0 309.7L187.0 310.0L192.7 307.7L197.9 311.5L198.3 310.6L195.9 306.3L198.7 305.4L202.8 310.1L205.2 309.9L206.9 307.7L203.5 308.8L201.3 307.3L197.9 300.1L200.9 294.8L202.7 293.8L199.3 292.2L199.3 286.9L202.0 285.2L204.3 280.3L204.8 275.1L197.3 280.3L195.6 279.6L191.8 272.9L191.3 270.2L187.0 264.0L192.8 250.2L194.9 248.2L198.8 248.4L200.5 248.0L200.6 247.1L188.8 246.1L187.7 250.4L183.5 251.3L180.1 254.3L176.4 253.9L171.9 250.6L171.0 248.7L170.2 250.3L171.8 256.2L170.9 257.4L168.3 256.3L166.4 253.3L161.1 249.8L158.6 252.4L160.5 258.8L158.7 257.8L158.6 255.2L154.3 248.7L154.4 244.6L157.0 243.0L158.1 239.7L161.3 236.6L164.1 229.7L166.4 228.6L167.1 226.9L165.5 222.4L161.0 218.8L162.1 209.9L163.9 209.3L170.5 210.8L162.8 208.0L163.5 203.3L160.0 212.4L156.0 209.9L154.9 210.8L155.1 213.7L153.1 212.7L152.4 210.6L153.3 206.8L155.7 202.8L161.8 197.2L154.9 202.7L151.5 207.0L150.7 206.5L151.3 216.4L148.9 220.3L147.0 228.7L147.7 230.7L145.9 232.7L141.8 232.5L141.9 229.4L143.5 227.6L144.2 222.0L146.5 215.8L145.2 213.9L145.4 210.0L147.8 205.4L145.6 207.7L145.5 207.0L149.4 200.1L147.5 200.8L148.3 194.7L151.7 190.8L155.9 190.9L158.3 188.3L159.2 186.3L156.3 190.2L152.3 189.1L152.8 187.6L155.5 186.4L153.4 186.7L152.8 185.2L158.6 176.8L146.5 188.3L141.5 185.1L140.0 182.5L149.5 180.9L145.2 180.0L141.9 181.2L136.3 180.7L135.5 179.2L136.5 178.1L141.4 177.2L143.4 178.8L144.6 177.1L143.6 175.6L147.5 174.4L146.1 173.2L142.3 173.2L144.9 168.8L148.2 170.4L150.7 169.6L148.5 169.9L145.5 167.4L146.8 165.1L150.6 166.2L153.4 165.7L150.4 165.1L148.4 163.3L148.6 160.6L150.6 159.9L153.5 161.0L150.3 158.8L149.8 157.1L153.0 153.9L146.4 156.5L145.4 155.6L144.6 151.2L145.4 147.7L149.1 150.4L152.0 149.5L148.8 148.9L146.2 145.4L146.4 138.5L146.8 137.2L148.5 136.8L150.6 140.7L151.2 138.4L150.0 136.6L150.7 134.9L153.7 137.5L154.3 135.9L156.1 135.3L160.7 138.1L159.2 134.4L154.1 129.3L154.7 128.5L156.8 129.9L157.6 129.4L157.8 126.8L155.7 122.6L162.0 122.7L160.2 119.4L164.1 109.3L168.5 110.3L169.8 112.0L170.2 113.3L168.5 116.3L172.5 111.4L178.0 113.2L187.7 112.3L190.2 110.4L195.9 111.4L196.2 109.0L202.8 109.7L200.5 119.9L198.8 122.3L195.7 123.4L192.6 127.5L182.9 135.2L182.4 138.3L180.3 138.9L175 136.7L175.8 138.4L181.8 140.3L185.2 140.3L187.2 138.8L183.0 144.7L181.9 143.4L180.6 143.6L176.6 145.3L174.1 148.0L173.8 149.1L177.5 145.9L180.9 145.8L181.5 146.7L178.1 150.6L177.8 152.3L187.4 147.5L190.6 147.1L192.8 144.5L196.8 144.0L201.7 146.4L204.6 144.8 Z M 237.8 35.2L238.8 35.3L239.6 35.5L241.1 36.2L240.6 40.3L239.1 40.8L237.9 39.3L237.6 35.7 Z M 239.3 48.5L237.7 48.7L235.9 48.4L235.5 48.3L233.7 47.4L233.0 46.7L235.2 45.7L232.8 41.8L231.0 41.5L231.5 39.3L232.8 37.4L234.6 36.0L235.4 35.7L235.8 41.4L240.4 42.4 Z M 244.9 407.2L242.4 410.4L239.7 411.3L234.6 408.1L232.8 408.3L239.0 404.1L243.5 405.3 Z M 246.9 401.8L247.2 403.9L245.7 403.5 Z M 291.5 380.3L290.4 381.0L287.3 380.4L286.8 377.9L290.5 378.7 Z M 164.6 308.8L164.8 311.0L162.6 309.3L162.6 307.8 Z M 176.8 308.9L169.7 315.4L166.9 313.3L165.1 309.7L165.2 305.3L168.5 304.1L171.6 305.0L172.8 308.1 Z M 157.2 227.7L155.1 228.6L151.7 226.7L150.6 221.9L151.1 219.4L153.0 217.7L155.8 219.2L157.2 223.9 Z M 158.7 213.4L158.8 217.8L155.3 211.9L155.9 210.2 Z M 135.9 208.6L137.6 218.2L132.1 221.9L131.0 221.3L132.9 214.4L131.2 214.1L127.8 218.1L127.8 215.6L129.2 211.2L132.0 211.0 Z M 136.3 201.7L134.7 205.0L133.4 204.6L134.1 203.2 Z M 145.5 202.7L138.9 214.3L136.8 213.3L136.9 209.8L139.5 205.5L145.3 201.0 Z M 145.9 200.4L144.7 200.7L145.9 199.4 Z M 147.5 197.3L146.7 199.8L146.8 197.0 Z M 148.0 194.8L147.2 196.8L146.8 195.5 Z M 131.5 193.1L130.9 194.5L130.4 194.2 Z M 149.8 191.5L148.9 192.7L148.6 191.6 Z M 136.5 188.5L135.7 188.9L134.5 188.2L135.0 187.5 Z M 123.2 186.2L121.3 188.7L119.6 188.2L119.4 186.4L124.4 184.9L124.9 185.9 Z M 140.6 186.0L147.0 189.9L146.7 191.7L142.8 195.0L142.0 193.3L139.1 194.9L132.7 196.1L132.2 193.3L134.7 194.1L139.2 192.5L135.7 192.8L135.4 192.0L139.8 187.9L137.2 188.5L133.0 185.5L133.5 183.4L137.8 181.9 Z M 129.8 182.3L126.0 184.7L125.6 183.7L127.5 181.8L130.9 180.0 Z M 138.6 171.8L137.4 173.7L136.4 172.3L137.8 170.8 Z M 135.6 170.1L134.3 171.0L131.8 168.3L134.4 166.5L135.9 167.8 Z M 131.1 166.2L129.2 166.6L129.9 165.7 Z M 112.9 167.8L110.9 169.1L109.0 168.2L111.7 164.8 Z M 143.1 157.5L142.7 158.6L141.4 157.2 Z M 116.5 163.0L113.6 163.4L113 162.3L113.1 152.7L114.3 152.1L117.0 154.5L115.6 155.1 Z M 141.9 155.9L140.6 156.8L140.4 152.8L142.0 150.0 Z M 117.6 151.8L116.0 152.3L113.6 150.5L114.7 148.8L117.7 150.1 Z M 143.0 147.5L142.7 149.7L142.3 148.8 Z M 118.7 141.7L120.8 143.5L119.0 148.2L117.3 148.5L115.5 148.3L115.5 146.8L111.4 144.8L112.7 142.5L116.9 142.7 Z M 119.7 140.6L118.4 141.1L119.4 140.0 Z M 200.5 104.3L198.7 104.7L197.3 104.6L194.9 101.1L195.5 99.4L196.7 99.0L199.0 101.0 Z M 200.5 104.3 "/>
<path style=" stroke:none;fill-rule:nonzero;fill:#C2B855;fill-opacity:1;" d="M 76.8 252.1L76.7 252.0L76.7 252.0L76.7 252.0L76.6 251.8L76.6 251.8L76.6 251.8L76.6 251.8L76.5 251.7L76.5 251.7L76.5 251.7L76.5 251.6L76.4 251.6L76.4 251.6L76.4 251.5L76.3 251.4L76.0 250.9L75.8 250.5L77.1 248.9L78.7 248.0L82.5 248.3L82.2 247.8L83.0 247.8L81.9 246.1L82.3 245.6L86.6 245.4L85.7 245.0L85.7 243.9L84.1 242.5L84.7 241.6L84.6 239.7L86.8 238.0L87.9 234.9L88.8 234.5L91.1 234.9L94.6 232.8L97.0 235.3L97.6 232.8L98.3 232.1L100.7 236.4L100.6 233.8L99.5 233.5L99.3 232.6L100.4 231.6L101.9 231.3L104 236.6L101.3 242.3L104.4 239.7L105.3 236.8L104.3 233.5L105.0 231.3L108.1 230.3L109.8 230.8L108.5 227.8L111.1 228.5L112.8 230.9L116.2 232.7L116.8 233.9L111.6 237.3L107.1 243.1L110.4 240.2L114.2 239.8L117.1 235.8L120.6 236.1L127.1 234.0L134.5 235.6L135.8 237.2L135.9 240.6L137.4 244.4L140.9 250.5L141.7 251.3L141.8 249.9L142.6 251.2L142.2 253.1L138.6 255.7L137.7 257.8L141.3 256.4L144.8 256.5L145.9 258.0L147.4 263.6L146.7 267.1L145.7 268.3L144.9 266.8L145.3 264.0L145.0 262.0L143.5 260.3L142.5 260.4L143.2 264.9L142.5 267.5L144.6 267.9L144.9 270.1L143.9 271.4L142.6 272.2L138.4 271.7L136.8 276.8L134.4 279.1L132.8 279.4L127.7 275.2L131.5 280.3L131.3 280.9L130.4 281.3L126.6 280.2L126.1 282.8L126.5 284.1L128.5 287.0L128.5 289.0L127.4 290.9L131.3 297.5L130.4 300.3L129.7 300.9L131.3 304.0L129.2 304.4L128.6 305.2L130.4 308.3L131.5 314.1L131.7 320.1L126.8 330.8L126.1 335.5L122.6 341.4L120.1 341.9L122.7 345.9L122.6 347.7L121.6 348.4L117.3 348.1L115.3 346.9L113.3 346.6L112.8 345.6L110.9 348.3L109.8 349.0L109.6 346.7L108.4 344.7L108.3 347.7L107.5 348.7L106.1 349.0L105.3 348.3L99.1 348.7L93.4 349.9L94.2 351.9L93.2 353.5L89.6 354.9L87.4 354.0L85.8 357.1L81.7 359.5L78.5 359.5L78.1 358.9L78.6 357.6L76.9 357.1L76.6 355.6L74.7 355.6L76.6 359.0L75.9 361.5L72.8 363.0L69.9 362.4L70.9 363.3L70.4 364.7L66.5 364.3L66.7 365.7L66.1 366.4L63.1 366.0L61.1 367.2L56.9 366.5L53.9 368.6L51.3 369.0L50.2 368.4L49.3 366.4L43.8 367.4L41.9 368.6L40.7 368.6L40.5 367.9L41.0 367.1L46.4 363.8L41.1 365.2L40.7 364.9L48.7 361.1L49.2 360.4L49.1 359.7L47.8 359.2L45.4 360.5L39.9 361.3L36.1 362.8L33.4 362.3L35.1 360.3L37.1 359.3L38.0 358.1L41.2 356.9L43.3 355.3L46.9 353.8L34.6 356.8L32.9 355.7L32.5 353.7L29.7 354.3L28.5 351.0L29.6 350.0L30.3 350.2L30.6 350.9L31.6 350.5L32.7 349.2L31.6 348.6L32.7 347.7L38.1 346.1L41.1 344.0L43.5 343.7L43.7 343.0L42.3 342.6L39.5 343.3L32.3 342.7L28.9 343.0L28.1 342.0L28.7 340.2L30.1 339.8L32.0 338.1L34.5 337.2L36.3 338.5L38.7 337.0L39.8 338.8L41.0 339.4L44.6 339.1L42.7 337.6L43.1 334.8L41.8 332.8L47.6 331.0L47.9 328.8L49.1 327.8L56.6 328.1L65.6 326.0L71.8 326.2L65.2 324.6L64.9 321.5L63.5 322.4L61.2 325.6L59.4 326.7L56.8 327.3L56.4 326.3L53.5 326.4L50.9 324.7L46.4 327.0L42.8 327.1L50.1 321.8L52.5 320.6L56.0 315.3L54.7 314.1L54.9 313.0L59.0 307.8L59.8 307.4L61.9 307.7L66.6 307.1L67.4 305.5L66.3 304.9L66.5 303.5L65.9 303.2L54.2 303.3L53.1 301.9L52.1 302.1L53.2 298.0L52.2 298.6L51.4 297.9L48.7 299.8L46.9 299.6L46.4 298.1L48.0 296.4L47.1 295.4L44.4 296.4L40.7 294.6L42.5 293.5L43.0 292.6L41.3 291.1L41.1 289.7L42.7 289.3L44.4 289.6L44.5 288.4L45.0 288.2L48.0 288.2L50.7 289.0L48.4 287.9L47.3 286.5L47.1 284.8L48.0 283.0L49.7 282.4L54.8 282.0L54.2 280.9L55.2 279.3L54.8 278.7L51.8 278.0L48.4 278.4L47.6 277.0L46.7 277.9L44.6 274.8L41.7 273.7L42.9 272.8L46.5 272.7L47.3 273.4L48.0 275.1L50.6 276.2L49.2 272.5L50.1 269.9L48.5 270.7L47.8 270.3L48.5 268.7L48.1 265.9L47.0 265.9L45.0 269.2L44.6 269.1L46.1 263.4L47.0 262.7L47.9 262.7L49.3 264.0L48.5 265.1L49.5 265.2L51.1 263.9L52.5 263.9L51.5 262.0L52.8 261.5L63.3 263.6L64.5 264.9L64.5 266.3L66.1 269.2L68.3 265.6L69.5 264.9L76.0 266.5L79.1 268.4L78.4 266.8L80.0 265.9L79.6 264.5L77.7 263.8L77.6 262.9L82.0 260.0L86.6 258.6L89.3 253.9L86.8 254.1L85.6 253.7L83.1 255.0L83.5 254.2L83.3 253.7L80.1 253.6L78.0 252.9 Z M 52.8 263.3L52.4 262.9L52.3 262.9 Z M 52.8 263.3 "/>
<path style=" stroke:none;fill-rule:nonzero;fill:#C2B855;fill-opacity:1;" d="M 51.2 301.9L50.9 303.0L50.0 302.6L50.6 300.3L51.2 300.5 Z M 51.2 301.9 "/>
<path style=" stroke:none;fill-rule:nonzero;fill:#C2B855;fill-opacity:1;" d="M 49.8 306.5L51.0 307.5L49.5 307.5L47.4 305.9 Z M 49.8 306.5 "/>
<path style=" stroke:none;fill-rule:nonzero;fill:#C2B855;fill-opacity:1;" d="M 40.8 362.3L39.3 362.6L38.8 362.1L39.3 361.7L41.0 361.9 Z M 40.8 362.3 "/>
<path style=" stroke:none;fill-rule:nonzero;fill:#C2B855;fill-opacity:1;" d="M 82.7 239.2L82.9 240.4L81.8 240.4L81.9 239.1 Z M 82.7 239.2 "/>
<path style=" stroke:none;fill-rule:nonzero;fill:#C2B855;fill-opacity:1;" d="M 133.4 232.6L133.0 233.1L131.5 232.0L132.5 231.9 Z M 133.4 232.6 "/>
<path style=" stroke:none;fill-rule:nonzero;fill:#C2B855;fill-opacity:1;" d="M 40.8 287.2L40.3 287.5L39.5 286.8L40.6 286.7 Z M 40.8 287.2 "/>
<path style=" stroke:none;fill-rule:nonzero;fill:#C2B855;fill-opacity:1;" d="M 46.7 280.8L44.7 281.0L46.1 280.3 Z M 46.7 280.8 "/>
<path style=" stroke:none;fill-rule:nonzero;fill:#C2B855;fill-opacity:1;" d="M 52.3 308.8L51.4 309.1L52.0 308.2 Z M 52.3 308.8 "/>
<path style=" stroke:none;fill-rule:nonzero;fill:#C2B855;fill-opacity:1;" d="M 32.8 362.1L31.2 362.8L31.8 362.2 Z M 32.8 362.1 "/>
<path style=" stroke:none;fill-rule:nonzero;fill:#C2B855;fill-opacity:1;" d="M 48.3 369.8L47.7 370.4L47.0 370.3 Z M 48.3 369.8 "/>
<path style=" stroke:none;fill-rule:nonzero;fill:#C2B855;fill-opacity:1;" d="M 43.0 283.9L43.0 284.5L42.3 284.5 Z M 43.0 283.9 "/>
<path style=" stroke:none;fill-rule:nonzero;fill:#C2B855;fill-opacity:1;" d="M 53.7 309.8L52.6 309.9L53.0 309.5 Z M 53.7 309.8 "/>
<path style=" stroke:none;fill-rule:nonzero;fill:#C2B855;fill-opacity:1;" d="M 26.5 343.1L26.5 342.9L27.0 342.9 Z M 26.5 343.1 "/>
















</g>
</svg>
