<?xml version="1.0" encoding="UTF-8"?>
<svg xmlns="http://www.w3.org/2000/svg" xmlns:xlink="http://www.w3.org/1999/xlink" width="378pt" height="504pt" viewBox="0 0 378 504" version="1.1">
<g id="data">
<rect x="0" y="0" width="378" height="504" style="fill:rgb(100%,100%,100%);fill-opacity:1;stroke:none;"/>
<path style=" stroke:none;fill-rule:nonzero;fill:rgb(100%,100%,100%);fill-opacity:1;" d="M 21 504L357 504L357 0L21 0 Z M 21 504 "/>
<path style=" stroke:none;fill-rule:nonzero;fill:rgb(77.6%,78.8%,62.3%);fill-opacity:1;" d="M 280.0 321.2L281.3 321.7L281.3 321.7L281.3 321.7L281.4 321.8L281.5 321.8L281.6 321.8L281.6 321.8L281.6 321.9L281.7 321.9L281.7 321.9L281.7 321.9L281.8 321.9L281.8 321.9L281.8 321.9L281.9 322.0L281.9 322.0L282.0 322.0L282.0 322.0L282.1 322.0L283.7 322.8L284.9 321.5L285.0 321.4L285.0 321.4L285.1 321.4L285.1 321.3L285.1 321.3L285.1 321.3L285.2 321.2L285.2 321.2L285.3 321.2L285.3 321.1L285.4 321.1L285.4 321.0L285.4 321.0L285.5 320.9L285.5 320.9L287.5 320.8L296.7 321.9L305.5 327.6L307.8 332.9L307.8 333.6L307.5 333.7L305.5 334.2L305.4 334.3L305.3 334.3L305.3 334.3L305.3 334.3L305.2 334.3L305.2 334.3L305.2 334.3L305.1 334.3L305.1 334.3L304.9 334.3L304.9 334.3L304.8 334.3L304.8 334.4L304.8 334.4L304.7 334.4L304.7 334.4L304.7 334.4L304.6 334.4L304.6 334.4L304.5 334.5L304.5 334.5L304.4 334.5L304.4 334.5L304.3 334.5L304.3 334.5L304.3 334.6L304.2 334.6L304.2 334.6L304.2 334.6L304.1 334.6L304.1 334.6L304.1 334.7L304.0 334.7L304.0 334.7L303.8 334.8L303.8 334.8L303.8 334.8L303.8 334.9L303.7 334.9L303.7 334.9L303.7 334.9L303.6 334.9L303.6 335.0L303.6 335.0L303.5 335.1L303.4 335.1L303.4 335.2L303.4 335.2L303.3 335.2L303.3 335.2L303.2 335.3L303.2 335.4L301.4 336.8L299.3 337.5L298.5 337.6L297.1 337.5L297.0 337.5L297.0 337.5L296.9 337.5L296.9 337.5L296.8 337.5L296.8 337.5L296.7 337.5L296.7 337.5L296.7 337.5L296.6 337.5L296.5 337.5L296.5 337.5L296.5 337.5L296.4 337.5L296.3 337.5L296.2 337.5L296.2 337.5L296.2 337.5L296.1 337.5L296.1 337.5L296.0 337.5L296.0 337.5L295.9 337.5L295.9 337.5L294.5 337.6L293.6 337.5L293.6 337.5L291.4 336.7L289.2 334.7L289.2 334.6L289.1 334.6L289.1 334.5L289.1 334.5L289.1 334.5L289.1 334.4L289.0 334.4L289.0 334.4L289.0 334.4L289.0 334.3L288.9 334.3L288.9 334.2L288.8 334.2L288.8 334.2L288.7 334.1L288.7 334.0L288.7 334.0L288.6 334.0L288.6 333.9L288.6 333.9L288.5 333.9L288.5 333.8L288.4 333.8L288.4 333.8L288.4 333.8L288.3 333.8L288.3 333.7L288.3 333.7L288.3 333.7L288.1 333.6L288.1 333.6L288.1 333.6L288.0 333.6L288.0 333.5L288.0 333.5L287.9 333.5L287.9 333.5L287.9 333.5L287.8 333.5L287.8 333.4L287.8 333.4L287.7 333.4L287.6 333.4L287.6 333.3L287.6 333.3L287.3 333.3L287.2 333.2L285.6 332.5L284.4 333.8L284.3 333.8L284.3 333.9L284.3 333.9L284.1 334.0L284.1 334.1L284.0 334.1L284.0 334.1L284.0 334.1L284.0 334.2L283.9 334.2L283.8 334.4L283.7 334.4L283.7 334.5L283.7 334.5L283.7 334.5L283.7 334.5L283.6 334.6L283.6 334.6L283.6 334.7L282.3 336.1L280.7 337.1L278.9 337.6L277.8 337.6L277.8 337.6L276.3 337.4L274.2 336.5L272.5 334.8L271.5 332.8L271.4 332.0L271.3 330.9L271.3 330.9L271.4 329.8L271.4 329.8L271.4 329.7L271.4 329.7L271.4 329.6L271.4 329.5L271.4 329.5L271.4 329.5L271.4 329.4L271.4 329.4L271.4 329.4L271.4 329.1L271.4 329.1L271.4 329.0L271.4 329.0L271.4 329.0L271.4 328.9L271.4 328.8L271.4 328.8L271.4 328.7L271.4 328.7L271.4 328.6L271.3 328.0L271.3 328.0L271.3 327.6L271.3 327.5L271.5 326.0L273.3 327.7L276.1 328.3 Z M 163.8 310.2L163.8 309.7L163.8 309.6L163.9 309.6L163.9 309.5L163.9 309.4L163.9 309.3L163.9 309.3L163.9 309.3L163.9 309.2L163.9 309.2L163.9 308.9L163.9 308.9L163.9 308.9L163.9 308.8L163.9 308.8L163.9 308.7L163.9 308.7L163.9 308.6L163.9 308.6L163.8 308.5L163.8 308.5L163.8 308.4L164.6 308.8L164.8 311.0 Z M 187.2 309.9L187.2 310.1L187.3 310.9L187.2 311.8L187.2 311.9L187.2 311.9L187.2 312.0L187.2 312.1L187.1 312.2L187.1 312.2L187.1 312.2L187.1 312.3L187.1 312.3L187.1 312.4L187.1 312.5L187.1 312.5L187.1 312.6L187.1 312.6L187.1 312.7L187.1 312.7L187.1 312.7L187.2 312.8L187.2 312.9L187.2 312.9L187.2 313.0L187.2 313.0L187.3 313.7L187.3 314.6L187.3 314.6L187.2 315.2L187.2 315.3L187.2 315.3L187.2 315.4L187.2 315.4L187.1 315.5L187.1 315.5L187.1 315.6L187.1 315.6L187.1 315.6L187.1 315.7L187.1 315.7L187.1 315.8L187.1 315.9L187.1 316.0L187.1 316.0L187.1 316.0L187.1 316.1L187.2 316.2L187.2 316.2L187.2 316.3L187.2 316.3L187.2 316.4L187.3 317.7L187.3 317.7L187.2 318.4L187.1 319.0L187.1 319.1L187.1 319.1L187.1 319.2L187.0 319.2L187.0 319.3L187.0 319.3L187.0 319.3L187.0 319.4L187.0 319.4L187.0 319.5L187.0 319.5L187.0 319.6L187.0 319.6L187.0 319.6L187.0 319.9L187.0 320.0L187.0 320.0L187.0 320.1L187.0 320.1L187.0 320.2L187.0 320.2L187.0 320.2L187.0 320.3L187.0 320.3L187.0 320.4L187.1 320.4L187.1 320.5L187.1 320.6L187.1 320.6L187.1 320.6L187.1 320.7L187.1 320.7L187.1 320.8L187.2 320.8L187.2 321L187.2 321.0L187.2 321.0L187.2 321.1L187.3 321.1L187.3 321.2L187.3 321.2L187.3 321.2L187.3 321.3L187.3 321.3L187.4 321.3L187.4 321.4L187.4 321.4L187.4 321.4L187.4 321.5L187.5 321.5L187.6 321.7L187.6 321.7L187.6 321.7L187.6 321.8L187.7 321.8L187.7 321.8L187.7 321.9L187.7 321.9L187.7 321.9L187.8 322.0L187.8 322.0L187.9 322.1L187.9 322.1L187.9 322.1L188.0 322.2L188.0 322.2L188.0 322.2L188.0 322.2L188.1 322.3L188.2 322.3L188.2 322.4L188.2 322.4L189.5 323.8L190.3 325.4L190.6 327.3L190.6 327.3L190.5 329.0L190.0 330.4L189.9 330.5L189.9 330.5L189.9 330.6L189.9 330.6L189.9 330.6L189.9 330.7L189.9 330.7L189.8 330.8L189.8 330.8L189.8 330.8L189.8 331.0L189.8 331.0L189.8 331.0L189.8 331.1L189.7 331.2L189.7 331.2L189.7 331.3L189.7 331.3L189.7 331.4L189.7 331.4L189.7 331.4L189.7 331.5L189.7 331.5L189.7 331.6L189.7 331.7L189.7 331.7L189.7 331.7L189.7 331.8L189.6 331.8L189.6 332.0L189.7 332.0L189.7 332.0L189.7 332.1L189.7 332.1L189.7 332.2L189.7 332.2L189.7 332.3L189.7 332.3L189.7 332.3L189.7 332.4L189.7 332.4L189.7 332.5L189.7 332.5L189.7 332.6L189.7 332.6L189.7 332.7L189.7 332.7L189.8 332.7L189.8 332.8L189.8 332.8L189.8 332.8L189.9 333.1L189.9 333.1L189.9 333.1L189.9 333.2L189.9 333.2L189.9 333.2L190.0 333.3L190.0 333.3L190.0 333.4L190.0 333.4L190.0 333.4L190.0 333.5L190.1 333.5L190.1 333.6L190.1 333.6L190.1 333.6L190.2 333.7L190.2 333.7L190.3 333.8L190.3 333.8L190.3 333.9L190.3 333.9L190.4 334.0L190.4 334.0L190.4 334.0L190.4 334.0L190.5 334.1L190.5 334.2L190.6 334.2L190.6 334.2L190.6 334.2L190.6 334.3L190.7 334.3L190.7 334.3L190.7 334.4L190.8 334.4L190.9 334.5L190.9 334.5L190.9 334.5L190.9 334.5L191.0 334.6L191.0 334.6L191.0 334.6L191.1 334.6L191.2 334.7L191.2 334.7L191.3 334.8L191.3 334.8L191.4 334.8L191.4 334.9L191.5 334.9L191.5 334.9L191.5 334.9L191.6 334.9L191.6 334.9L191.7 335.0L191.7 335.0L191.7 335.0L191.8 335.0L191.8 335.0L191.8 335.0L192.1 335.1L192.1 335.1L192.1 335.1L192.2 335.1L192.2 335.2L192.2 335.2L192.3 335.2L192.3 335.2L192.4 335.2L192.4 335.2L192.5 335.2L192.5 335.2L192.6 335.2L192.6 335.2L192.6 335.2L192.7 335.2L192.7 335.2L192.8 335.2L192.8 335.2L192.9 335.2L192.9 335.2L192.9 335.3L193.1 335.3L193.1 335.2L193.2 335.2L193.2 335.2L193.2 335.2L193.3 335.2L193.3 335.2L193.3 335.2L193.4 335.2L193.4 335.2L193.5 335.2L193.5 335.2L193.5 335.2L193.6 335.2L193.6 335.2L193.6 335.2L193.7 335.2L193.7 335.2L193.8 335.1L193.9 335.1L193.9 335.1L193.9 335.1L194.1 335.1L194.1 335.1L194.1 335.1L194.2 335.0L194.2 335.0L194.3 335.0L194.3 335.0L194.3 335.0L194.4 335.0L194.4 335.0L194.4 334.9L194.5 334.9L196.8 334.3L196.8 334.3L196.9 334.3L196.9 334.3L196.9 334.3L197.0 334.3L197.1 334.3L197.1 334.3L197.1 334.2L197.2 334.2L197.2 334.2L197.3 334.2L197.3 334.2L197.4 334.2L197.5 334.2L197.5 334.2L197.6 334.1L197.7 334.1L197.7 334.1L197.8 334.1L197.8 334.1L197.8 334.0L197.9 334.0L197.9 334.0L197.9 334.0L198.0 334.0L198.0 334.0L198.1 333.9L198.1 333.9L198.1 333.9L198.2 333.9L198.2 333.8L198.3 333.8L198.3 333.8L198.3 333.8L198.3 333.8L198.4 333.7L198.4 333.7L198.5 333.7L198.5 333.7L198.5 333.6L198.6 333.6L198.6 333.6L198.6 333.6L198.6 333.6L198.7 333.5L198.8 333.5L198.8 333.4L198.8 333.4L198.9 333.4L198.9 333.3L198.9 333.3L198.9 333.3L199.0 333.3L199.0 333.2L199.0 333.2L199.1 333.1L199.1 333.1L199.1 333.1L200.8 331.7L203.0 331.0L205.2 331.0L207.3 331.7L209.1 333.1L210.4 335.2L210.4 335.3L210.4 335.3L210.4 335.4L210.4 335.4L210.4 335.4L210.5 335.5L210.5 335.5L210.5 335.5L210.5 335.6L210.5 335.6L210.5 335.7L210.6 335.7L210.6 335.7L210.6 335.8L210.7 335.9L210.7 335.9L210.7 336.0L210.8 336.0L210.8 336.1L210.8 336.1L210.9 336.2L210.9 336.2L210.9 336.2L211.0 336.3L211.0 336.3L211.0 336.3L211.0 336.4L211.1 336.4L211.1 336.4L211.1 336.4L211.2 336.5L211.2 336.5L211.3 336.6L211.3 336.6L211.3 336.6L211.4 336.7L211.5 336.8L211.8 337.1L212.2 337.2L212.3 337.2L212.3 337.2L212.4 337.3L212.5 337.3L212.5 337.3L212.5 337.3L212.6 337.3L212.6 337.3L212.6 337.3L212.7 337.3L212.7 337.4L212.8 337.4L214.6 338.1L214.8 338.3L214.8 338.0L216.0 336.4L216.0 336.4L217.2 335.3L217.3 335.3L217.7 335.1L218.0 334.7L218.0 334.6L218.1 334.6L218.1 334.6L218.1 334.5L218.2 334.5L218.2 334.4L218.2 334.4L218.2 334.4L218.3 334.3L218.3 334.3L218.3 334.3L218.4 334.2L218.4 334.1L218.4 334.1L218.4 334.1L218.4 334.0L218.4 334.0L218.5 334.0L218.5 333.9L218.5 333.9L218.5 333.8L218.5 333.8L218.5 333.8L218.6 333.7L218.6 333.7L218.6 333.6L218.6 333.5L218.6 333.5L218.7 333.5L218.7 333.4L218.7 333.4L218.7 333.3L218.7 333.3L218.7 333.2L218.7 333.1L218.7 333.1L218.8 333.1L218.8 333.0L218.8 333.0L218.8 333.0L218.8 332.9L218.8 332.8L218.8 332.8L218.8 332.7L218.8 332.6L219.0 331.7L218.4 330.9L218.4 330.9L217.7 329.2L217.5 327.6L217.5 327.4L218.2 324.5L219.8 322.5L222.1 321.2L222.7 321.0L222.7 321.0L224.3 320.8L224.3 320.8L226.6 321.3L228.7 322.5L230.1 324.3L230.9 326.6L231 327.7L230.9 327.9L230.9 327.9L230.7 329L231.3 329.7L231.4 329.8L231.5 330.0L231.5 330.0L231.6 330.1L231.6 330.1L231.6 330.1L231.6 330.2L231.6 330.2L231.7 330.2L231.7 330.3L231.8 330.3L231.8 330.4L231.8 330.4L232.0 330.6L232.0 330.6L232.1 330.6L232.1 330.7L232.2 330.7L232.2 330.8L232.3 330.8L232.3 330.8L232.3 330.8L232.3 330.8L232.4 330.9L232.4 330.9L232.4 330.9L232.5 330.9L232.6 331.0L232.6 331.0L232.6 331.0L232.7 331.1L232.7 331.1L232.7 331.1L232.8 331.1L232.8 331.1L232.8 331.1L232.9 331.2L232.9 331.2L232.9 331.2L233.0 331.2L233.0 331.2L233.0 331.2L233.1 331.3L233.1 331.3L233.2 331.3L233.7 331.5L235.6 332.8L237.0 334.6L237.6 336.8L237.7 338.0L237.3 339.9L236.4 341.6L235.1 342.9L233.4 343.9L231.6 344.3L231.6 344.3L229.4 344.2L229.4 344.2L229.3 344.2L229.3 344.1L229.3 344.1L229.2 344.1L229.2 344.1L229.1 344.1L229.1 344.1L229.0 344.1L229.0 344.1L229.0 344.1L228.9 344.1L228.9 344.1L228.8 344.1L228.7 344.1L228.7 344.1L228.5 344.1L228.5 344.1L228.4 344.1L228.4 344.1L228.4 344.1L228.3 344.1L228.3 344.1L228.3 344.1L228.2 344.1L228.2 344.1L228.1 344.1L228.1 344.1L228.1 344.1L228.0 344.1L228.0 344.1L228.0 344.1L227.9 344.2L227.9 344.2L227.8 344.2L227.8 344.2L227.7 344.2L227.7 344.2L227.6 344.2L227.5 344.3L227.5 344.3L227.4 344.3L227.4 344.3L227.4 344.3L227.3 344.3L227.3 344.4L227.3 344.4L227.2 344.4L227.2 344.4L227.2 344.4L227.1 344.4L227.1 344.4L227.1 344.5L227.0 344.5L227.0 344.5L227.0 344.5L226.9 344.5L226.9 344.6L226.9 344.6L226.8 344.6L226.8 344.6L226.3 344.8L225.9 345.4L225.9 345.5L224.5 346.6L222.9 347.4L221.2 347.7L221.2 347.7L219.3 347.5L219.3 347.5L217.4 346.8L217.3 346.7L217.2 346.8L216.1 348.5L216.1 348.5L216.0 348.5L216.0 348.6L216.0 348.6L216.0 348.6L215.9 348.7L214.3 350.1L212.3 350.9L210.2 351.0L208.1 350.5L206.3 349.4L205.3 348.5L205.3 348.4L204.9 348.3L204.8 348.3L204.7 348.3L204.7 348.2L204.6 348.2L204.5 348.2L204.5 348.2L204.5 348.2L204.4 348.2L204.4 348.2L204.4 348.2L204.3 348.1L204.3 348.1L204.3 348.1L204.2 348.1L204.2 348.1L204.1 348.1L204.1 348.1L204.1 348.1L204.0 348.1L204.0 348.1L204.0 348.1L203.9 348.1L203.9 348.1L203.9 348.1L203.8 348.1L203.8 348.1L203.7 348.1L203.5 348.1L203.5 348.1L203.4 348.1L203.4 348.1L203.4 348.1L203.3 348.1L203.3 348.1L203.2 348.1L203.2 348.1L203.1 348.1L203.1 348.1L203.1 348.1L203.0 348.1L203.0 348.1L202.9 348.2L202.9 348.2L202.8 348.2L202.8 348.2L202.7 348.2L202.7 348.2L202.7 348.2L202.4 348.3L202.4 348.3L202.4 348.3L202.3 348.3L202.3 348.3L202.3 348.4L202.2 348.4L202.2 348.4L202.1 348.4L202.1 348.4L202.1 348.5L202.0 348.5L202.0 348.5L202.0 348.5L201.9 348.5L201.9 348.5L201.8 348.6L201.7 348.6L201.7 348.7L201.7 348.7L201.6 348.7L201.6 348.7L201.6 348.8L201.6 348.8L201.5 348.8L201.5 348.8L201.5 348.8L201.4 348.9L201.4 348.9L201.4 348.9L201.4 348.9L201.3 349.0L201.3 349.0L201.3 349.0L201.3 349.0L201.2 349.1L201.2 349.1L201.2 349.1L201.1 349.2L201.1 349.2L201.1 349.2L201.0 349.3L201.0 349.3L201.0 349.3L201.0 349.4L200.9 349.4L200.9 349.4L200.9 349.5L200.9 349.5L200.8 349.5L200.8 349.6L200.8 349.7L200.8 349.7L200.7 349.8L200.7 349.8L200.6 349.9L200.6 349.9L200.6 349.9L200.6 350.0L200.6 350.0L200.5 350.1L200.5 350.1L200.5 350.1L200.5 350.2L200.5 350.2L200.5 350.2L200.5 350.3L200.4 350.3L200.4 350.4L200.4 350.5L200.4 350.5L200.4 350.5L200.4 350.6L200.4 350.6L200.4 350.6L200.3 350.7L200.3 350.8L200.3 350.8L200.3 350.9L200.3 350.9L200.3 350.9L200.3 351.0L200.3 351.0L200.3 351.1L200.3 351.1L200.3 351.1L200.3 351.2L200.3 351.2L200.3 351.3L200.3 351.3L200.3 351.6L200.3 351.6L200.3 351.7L200.3 351.7L200.3 351.7L200.3 351.8L200.3 351.8L200.3 351.9L200.3 351.9L200.3 351.9L200.3 352.0L200.3 352.0L200.3 352.0L200.3 352.1L200.3 352.1L200.3 352.2L200.3 352.2L200.4 352.3L200.4 352.3L200.4 352.3L200.4 352.4L200.4 352.5L200.7 353.7L200.7 354.4L200.4 356.4L200.4 356.5L200.4 356.5L200.4 356.5L200.4 356.6L200.4 356.6L200.3 356.6L200.3 356.7L200.3 356.8L200.3 356.8L200.3 356.8L200.3 356.9L200.3 356.9L200.3 356.9L200.3 357.0L200.3 357.0L200.3 357.0L200.3 357.1L200.3 357.2L200.3 357.2L200.3 357.2L200.3 357.3L200.3 357.6L200.3 357.6L200.3 357.6L200.3 357.7L200.3 357.7L200.3 357.8L200.3 357.8L200.3 357.8L200.3 357.9L200.3 357.9L200.3 357.9L200.3 358.0L200.3 358.0L200.3 358.0L200.3 358.1L200.3 358.2L200.4 358.2L200.4 358.3L200.4 358.3L200.4 358.3L200.4 358.4L200.4 358.5L200.5 358.6L200.5 358.6L200.5 358.6L200.5 358.7L200.5 358.7L200.5 358.7L200.5 358.8L200.6 358.8L200.6 358.9L200.6 359.0L200.6 359.0L200.7 359.0L200.7 359.1L200.7 359.1L200.7 359.1L200.8 359.2L200.8 359.2L200.8 359.3L200.8 359.3L200.8 359.3L200.9 359.3L200.9 359.4L200.9 359.4L200.9 359.4L200.9 359.5L201.0 359.5L201.0 359.5L201.0 359.6L201.0 359.6L201.1 359.6L201.1 359.6L201.1 359.7L201.2 359.7L201.2 359.8L201.2 359.8L201.3 359.9L201.3 359.9L201.3 359.9L201.4 359.9L201.4 360L201.4 360.0L201.5 360.0L201.5 360.0L201.5 360.1L201.6 360.1L201.6 360.1L201.7 360.2L201.7 360.2L201.7 360.2L201.9 360.3L201.9 360.3L202.0 360.4L202.0 360.4L202.0 360.4L202.1 360.4L202.1 360.4L202.1 360.4L202.2 360.5L202.2 360.5L202.3 360.5L202.3 360.5L202.4 360.6L202.4 360.6L202.5 360.6L202.5 360.6L202.6 360.6L202.6 360.6L202.7 360.6L202.7 360.7L202.7 360.7L202.8 360.7L202.8 360.7L202.8 360.7L202.9 360.7L203.0 360.7L203.0 360.7L203.0 360.7L203.1 360.7L203.1 360.7L203.1 360.8L203.2 360.8L203.2 360.8L203.2 360.8L203.3 360.8L203.3 360.8L203.4 360.8L203.4 360.8L203.4 360.8L203.5 360.8L203.5 360.8L203.7 360.8L203.7 360.8L203.8 360.8L203.8 360.8L203.9 360.8L203.9 360.8L204.0 360.8L204.0 360.8L204.0 360.8L204.1 360.8L204.1 360.7L204.2 360.7L204.2 360.7L204.2 360.7L204.3 360.7L204.3 360.7L204.4 360.7L204.4 360.7L204.5 360.7L204.5 360.7L204.5 360.7L204.6 360.6L204.6 360.6L204.7 360.6L204.8 360.6L204.8 360.6L204.9 360.5L204.9 360.5L205.0 360.5L205.0 360.5L205.0 360.5L205.1 360.5L205.1 360.4L205.1 360.4L205.2 360.4L205.2 360.4L205.2 360.4L205.3 360.4L205.3 360.3L205.4 360.3L205.4 360.3L205.5 360.2L205.5 360.2L205.5 360.2L205.5 360.2L205.6 360.2L205.6 360.1L205.6 360.1L205.7 360.1L205.7 360.1L205.7 360.0L205.7 360.0L205.8 360.0L205.9 359.9L206.0 359.8L206.0 359.8L207.7 358.6L209.6 357.9L210.8 357.8L211.9 357.9L212.9 358.1L214.6 359.0L216.1 360.3L217.0 362.1L217.5 364.0L217.5 364.0L217.3 366.1L216.5 368.1L215.1 369.7L215.1 369.7L215.0 369.8L214.9 369.9L214.8 369.9L214.8 370.0L214.8 370.0L214.7 370.0L214.7 370.0L214.7 370.1L214.6 370.2L214.6 370.2L214.6 370.2L214.5 370.2L214.5 370.3L214.5 370.3L214.5 370.3L214.4 370.5L214.4 370.5L214.4 370.5L214.3 370.6L214.3 370.7L214.3 370.7L214.2 370.7L214.2 370.8L214.2 370.8L214.2 370.8L214.2 370.9L214.1 371L214.1 371.0L214.1 371.0L214.1 371.1L214.1 371.1L214.0 371.3L214.0 371.4L214.0 371.4L214.0 371.5L214.0 371.5L213.9 371.6L213.9 371.7L213.9 371.7L213.9 371.8L213.9 371.8L213.9 371.8L213.9 371.9L213.9 371.9L213.9 372.0L213.9 372.0L213.9 372.1L213.9 372.1L213.9 372.1L213.9 372.2L213.9 372.4L213.9 372.4L213.9 372.5L213.9 372.5L213.9 372.5L213.9 372.6L213.9 372.6L213.9 372.7L213.9 372.7L213.9 372.7L213.9 372.8L213.9 372.9L213.9 372.9L213.9 372.9L214.0 373.0L214.0 373.1L214.1 373.9L214.1 374.7L213.9 376.4L213.3 377.9L213.2 378.0L213.2 378.0L213.2 378.0L213.2 378.1L213.2 378.1L213.1 378.1L213.1 378.2L213.1 378.2L213.1 378.2L213.1 378.3L213.1 378.3L213.1 378.3L213.0 378.4L213.0 378.4L213.0 378.5L213.0 378.5L213.0 378.5L213.0 378.6L213.0 378.6L213.0 378.6L212.9 378.7L212.9 378.7L212.9 378.7L212.9 378.8L212.9 378.8L212.9 378.9L212.9 378.9L212.9 379.0L212.9 379.1L212.8 379.1L212.8 379.1L212.8 379.2L212.8 379.2L212.8 379.2L212.8 379.3L212.8 379.3L212.8 379.4L212.8 379.4L212.8 379.4L212.8 379.5L212.8 379.5L212.8 379.5L212.8 379.7L212.8 379.8L212.8 379.8L212.8 379.8L212.8 379.9L212.8 379.9L212.8 380.0L212.8 380.0L212.8 380.1L212.8 380.1L212.8 380.1L212.8 380.2L212.9 380.2L212.9 380.2L212.9 380.3L212.9 380.3L212.9 380.5L212.9 380.5L212.9 380.5L212.9 380.6L213.0 380.6L213.0 380.8L213.0 380.8L213.0 380.8L213.0 380.9L213.1 380.9L213.1 380.9L213.1 381.0L213.1 381.0L213.1 381.0L213.1 381.1L213.1 381.1L213.2 381.1L213.2 381.2L213.2 381.2L213.2 381.2L213.2 381.3L213.3 381.3L213.9 382.9L214.2 384.7L214.1 384.8L214.1 384.8L213.8 386.8L212.8 388.7L211.3 390.1L209.4 391.1L207.2 391.4L207.2 391.4L207.1 391.4L207.0 391.4L207.0 391.4L206.7 391.4L206.7 391.4L206.7 391.4L206.6 391.4L206.6 391.4L206.6 391.4L206.5 391.4L206.5 391.4L206.5 391.4L206.4 391.4L206.4 391.4L206.3 391.4L206.3 391.4L206.3 391.4L206.2 391.4L206.2 391.4L206.2 391.4L206.1 391.5L206.1 391.5L206.0 391.5L206.0 391.5L205.9 391.5L205.9 391.5L205.9 391.5L205.7 391.6L205.7 391.6L205.6 391.6L205.6 391.6L205.6 391.6L205.5 391.6L205.5 391.7L205.4 391.7L205.4 391.7L205.4 391.7L205.3 391.7L205.3 391.8L205.3 391.8L205.2 391.8L205.2 391.8L205.0 391.9L205.0 392.0L204.9 392.0L204.9 392.0L204.9 392.0L204.8 392.1L204.8 392.1L204.8 392.1L204.7 392.2L204.7 392.2L204.6 392.2L204.6 392.3L204.6 392.3L204.5 392.3L204.4 392.4L204.4 392.4L204.4 392.5L204.4 392.5L204.3 392.5L204.3 392.5L204.3 392.6L204.3 392.6L204.2 392.6L204.2 392.7L204.2 392.7L204.1 392.8L204.1 392.8L204.1 392.8L204.1 392.8L204.0 392.9L204.0 392.9L204.0 393.0L204.0 393.0L204.0 393.0L203.9 393.1L203.9 393.1L203.9 393.1L203.9 393.2L203.9 393.2L203.8 393.2L203.8 393.3L203.8 393.3L203.8 393.3L203.8 393.4L203.8 393.4L203.7 393.5L203.7 393.5L203.7 393.5L203.7 393.6L203.6 393.8L203.6 393.8L203.6 393.8L203.6 393.9L203.6 394.0L203.6 394.0L203.6 394.1L203.6 394.1L203.5 394.2L203.5 394.2L203.5 394.2L203.5 394.3L203.5 394.4L203.5 394.4L203.5 394.5L203.5 394.5L203.5 394.6L203.5 394.7L203.5 394.7L203.5 394.8L203.5 394.8L203.5 394.9L203.5 394.9L203.5 395.0L203.5 395.0L203.5 395.0L203.5 395.1L203.5 395.1L203.5 395.1L203.5 395.2L203.5 395.2L203.5 395.2L203.5 395.3L203.5 395.3L203.5 395.4L203.6 395.5L203.6 395.5L203.6 395.6L203.6 395.6L203.6 395.6L203.6 395.7L203.7 395.9L203.8 396.1L203.9 396.4L203.9 396.4L203.9 396.4L203.9 396.5L203.9 396.5L203.9 396.5L203.9 396.6L204.0 396.6L204.0 396.7L204.0 396.7L204.0 396.8L204.1 396.8L204.1 396.8L204.1 396.9L204.1 396.9L204.1 396.9L204.2 397.0L204.2 397.1L204.2 397.1L204.3 397.1L204.3 397.2L204.3 397.2L204.4 397.3L204.4 397.3L204.4 397.3L204.4 397.4L204.5 397.4L204.5 397.5L204.6 397.5L204.6 397.5L204.6 397.6L204.7 397.6L204.7 397.6L204.7 397.6L204.7 397.7L204.8 397.7L204.8 397.7L204.9 397.8L204.9 397.8L204.9 397.8L205.0 397.9L205.0 397.9L205.0 397.9L205.1 397.9L205.1 397.9L205.1 398.0L205.3 398.1L205.3 398.1L205.4 398.1L205.4 398.1L205.4 398.2L205.5 398.2L205.5 398.2L205.5 398.2L205.6 398.2L205.6 398.3L205.7 398.3L205.7 398.3L205.7 398.3L205.8 398.3L205.8 398.3L205.9 398.3L205.9 398.4L206 398.4L206.0 398.4L206.1 398.4L207.4 399.0L207.4 399.0L208.6 399.9L209.8 399.4L209.9 399.4L210.0 399.3L210.0 399.3L210.1 399.3L210.1 399.3L210.2 399.3L210.2 399.3L210.3 399.3L210.3 399.2L210.4 399.2L210.4 399.2L210.4 399.2L210.5 399.2L210.5 399.2L210.6 399.1L210.6 399.1L210.6 399.1L210.7 399.1L210.7 399.1L210.7 399.0L210.8 399.0L210.8 399.0L213.4 398.2L214.9 398.2L215.2 398.2L215.3 398.2L215.3 398.2L215.4 398.2L215.5 398.2L215.6 398.2L215.6 398.2L215.7 398.2L215.8 398.2L215.8 398.3L215.8 398.3L215.9 398.2L216.0 398.2L216.0 398.2L216.1 398.2L216.1 398.2L216.2 398.2L216.2 398.2L216.3 398.2L216.3 398.2L216.4 398.2L216.4 398.2L216.9 398.1L217.0 398.1L217.0 398.1L217.1 398.1L217.1 398.1L217.2 398.1L217.2 398.1L217.3 398.1L217.3 398.1L217.3 398.1L217.4 398.1L217.5 398.1L217.5 398.0L217.5 398.0L217.6 398.0L217.6 398.0L217.6 398.0L217.7 398.0L217.9 397.9L217.9 397.9L217.9 397.9L218.0 397.9L218.0 397.9L218.0 397.9L218.1 397.8L218.1 397.8L218.2 397.8L218.2 397.8L218.2 397.8L218.3 397.8L218.3 397.7L218.3 397.7L218.3 397.7L218.4 397.7L218.4 397.7L218.5 397.6L218.5 397.6L218.6 397.6L218.6 397.5L218.6 397.5L218.7 397.5L218.7 397.5L218.7 397.5L218.7 397.4L218.8 397.4L218.8 397.4L218.8 397.4L218.9 397.3L218.9 397.3L219.0 397.2L219.0 397.2L219.0 397.2L219.1 397.1L219.1 397.1L219.2 397.0L219.2 397.0L220.7 395.8L220.8 395.7L220.9 395.7L220.9 395.6L220.9 395.6L220.9 395.6L221.0 395.6L221.0 395.5L221.0 395.5L221.1 395.5L221.1 395.4L221.2 395.4L221.2 395.4L221.3 395.3L221.3 395.3L221.4 395.2L221.4 395.2L221.5 395.1L221.5 395.1L221.5 395.1L221.6 395.0L221.6 395.0L221.6 395.0L221.6 394.9L221.7 394.9L221.7 394.9L221.7 394.8L221.7 394.8L221.8 394.8L221.8 394.7L221.8 394.7L221.8 394.6L221.9 394.6L223.9 392.5L224.0 392.4L224.0 392.4L224.1 392.4L224.1 392.4L224.1 392.3L224.2 392.3L224.2 392.3L224.2 392.3L224.2 392.3L224.3 392.2L224.3 392.2L224.4 392.2L224.4 392.1L224.4 392.1L224.4 392.1L224.5 392.1L224.5 392.0L224.5 392.0L224.5 392.0L224.6 392.0L224.6 391.9L224.6 391.9L224.6 391.9L224.7 391.8L224.7 391.8L224.7 391.8L224.8 391.7L224.8 391.7L224.8 391.7L224.8 391.6L224.9 391.6L224.9 391.6L224.9 391.6L224.9 391.5L225 391.5L225.0 391.3L225.1 391.3L225.1 391.3L225.1 391.2L225.1 391.2L225.1 391.2L225.2 391.1L225.2 391.1L225.2 391.1L225.2 391.0L225.2 391.0L225.3 390.9L225.3 390.9L225.3 390.8L225.3 390.8L225.3 390.7L225.4 390.6L225.4 390.6L225.4 390.6L225.4 390.5L225.4 390.5L225.4 390.4L225.4 390.4L225.4 390.3L225.5 390.3L225.5 390.2L225.5 390.2L225.5 390.2L225.5 390.1L225.5 390.1L225.5 390.0L225.5 390.0L225.5 390.0L225.5 389.9L225.5 389.9L225.5 389.8L225.5 389.8L225.5 389.8L225.5 389.7L225.5 389.6L225.5 389.6L225.5 389.5L225.5 389.5L225.5 389.4L225.5 389.4L225.5 389.3L225.5 389.3L225.5 389.2L225.5 389.2L225.5 389.1L225.5 389.1L225.5 389.0L225.5 389.0L225.5 388.9L225.4 388.9L225.4 388.8L225.4 388.8L225.4 388.7L225.4 388.6L225.4 388.6L225.3 388.5L225.3 388.4L225.3 388.4L225.3 388.4L225.3 388.3L225.3 388.3L225.2 388.2L225.2 388.2L225.2 388.2L225.2 388.1L225.2 388.1L225.1 388.1L225.1 388.0L225.1 388.0L225.1 387.9L224.2 385.1L224.7 382.3L225.1 381.4L225.1 381.3L225.1 381.3L225.1 381.3L225.2 381.2L225.2 381.2L225.2 381.2L225.2 381.1L225.2 381.1L225.2 381.1L225.3 381.0L225.3 381.0L225.3 381.0L225.3 380.9L225.3 380.9L225.3 380.9L225.4 380.7L225.4 380.7L225.4 380.6L225.4 380.6L225.4 380.5L225.4 380.5L225.4 380.4L225.5 380.4L225.5 380.3L225.5 380.3L225.5 380.3L225.5 380.2L225.5 380.2L225.5 380.1L225.5 380.1L225.5 380.0L225.5 380.0L225.5 380.0L225.5 379.9L225.5 379.9L225.5 379.8L225.5 379.8L225.5 379.7L225.5 379.6L225.5 379.6L225.5 379.5L225.5 379.5L225.5 379.4L225.5 379.4L225.5 379.4L225.5 379.3L225.5 379.3L225.5 379.3L225.5 379.2L225.5 379.2L225.5 379.1L225.5 379.1L225.5 379.0L225.4 379.0L225.4 378.9L225.4 378.9L225.4 378.8L225.4 378.8L225.4 378.8L225.3 378.6L225.3 378.6L225.3 378.5L225.3 378.5L225.3 378.4L225.3 378.4L225.2 378.3L225.2 378.3L225.2 378.2L225.2 378.2L225.1 378.2L225.1 378.1L225.1 378.1L225.1 378.1L225.1 378.0L225 377.8L224.9 377.8L224.9 377.8L224.9 377.8L224.9 377.7L224.8 377.7L224.8 377.7L224.8 377.6L224.8 377.6L224.7 377.6L224.7 377.5L224.6 377.5L224.6 377.4L224.6 377.4L224.6 377.4L224.5 377.3L224.4 377.3L224.4 377.2L224.4 377.2L224.3 377.2L224.3 377.1L224.3 377.1L224.2 377.1L224.2 377.1L224.2 377.0L224.2 377.0L224.1 377.0L224.1 377.0L224.1 377.0L224.0 376.9L224.0 376.9L223.9 376.9L223.2 376.3L221.6 374.3L220.9 371.8L221.0 369.7L221.8 367.8L223.1 366.3L223.1 366.3L224.9 365.1L227.0 364.5L227.1 364.5L227.1 364.5L227.2 364.5L227.2 364.5L227.3 364.5L227.3 364.5L227.3 364.5L227.4 364.5L227.5 364.5L227.5 364.5L227.6 364.4L227.6 364.4L227.7 364.4L227.9 364.4L227.9 364.3L228.0 364.3L228.0 364.3L228.0 364.3L228.1 364.3L228.1 364.3L228.1 364.3L228.2 364.2L228.3 364.2L228.3 364.2L228.3 364.2L228.4 364.1L228.4 364.1L228.4 364.1L228.6 364.0L228.7 363.9L228.7 363.9L228.7 363.9L228.8 363.9L228.8 363.9L228.8 363.8L228.9 363.8L228.9 363.8L229.0 363.7L229.0 363.7L229.0 363.7L229.0 363.6L229.1 363.6L229.1 363.6L229.2 363.5L229.2 363.5L229.2 363.5L229.2 363.5L229.3 363.4L230.7 362.2L232.3 361.5L234.2 361.1L235.4 361.2L235.5 361.2L235.5 361.3L235.5 361.3L235.7 361.3L235.7 361.3L235.8 361.3L235.8 361.3L235.8 361.3L235.9 361.3L235.9 361.3L236.0 361.3L236.1 361.3L236.2 361.3L236.2 361.3L236.2 361.3L236.3 361.3L236.3 361.3L236.5 361.3L236.5 361.2L236.6 361.2L237.0 361.2L239.3 361.3L239.5 361.4L241.1 362.1L242.7 363.4L243.9 365.3L244.4 367.3L244.4 367.4L244.4 367.5L244.4 367.5L244.4 367.5L244.4 367.6L244.4 367.6L244.4 367.7L244.4 367.7L244.4 367.8L244.4 367.8L244.5 367.9L244.5 367.9L244.5 367.9L244.5 368.0L244.5 368.0L244.5 368.1L244.5 368.1L244.5 368.2L244.6 368.2L244.6 368.3L244.6 368.3L244.6 368.4L244.6 368.4L244.6 368.4L244.7 368.5L244.7 368.5L244.7 368.6L244.7 368.6L244.7 368.6L244.8 368.7L244.8 368.7L244.8 368.7L244.8 368.8L244.8 368.8L244.9 369.0L244.9 369.0L245.0 369.0L245.0 369.0L245.0 369.1L245.1 369.1L245.1 369.2L245.1 369.2L245.1 369.3L245.2 369.3L245.2 369.3L245.2 369.4L245.3 369.4L245.3 369.4L245.3 369.5L245.4 369.5L245.4 369.5L245.4 369.6L245.5 369.6L245.5 369.6L245.5 369.6L245.5 369.7L245.6 369.7L245.6 369.7L245.7 369.7L245.7 369.8L245.7 369.8L245.8 369.8L245.8 369.9L245.8 369.9L246.0 370.0L246.0 370.0L246.1 370.0L246.1 370.1L246.2 370.1L246.2 370.1L246.2 370.1L246.3 370.1L246.3 370.1L246.3 370.2L246.4 370.2L246.4 370.2L246.4 370.2L246.5 370.2L246.5 370.2L246.5 370.2L246.6 370.3L246.6 370.3L246.6 370.3L246.7 370.3L246.7 370.3L246.7 370.3L246.8 370.3L246.8 370.3L246.8 370.3L246.9 370.4L246.9 370.4L247.0 370.4L247.0 370.4L247.0 370.4L247.1 370.4L247.1 370.4L247.1 370.4L247.2 370.4L247.2 370.4L247.2 370.4L247.3 370.4L247.3 370.4L247.4 370.4L247.4 370.4L247.4 370.4L247.5 370.5L247.5 370.5L247.5 370.5L247.6 370.5L247.8 370.5L247.9 370.5L247.9 370.5L248.0 370.5L248.0 370.5L248.0 370.4L248.1 370.4L248.1 370.4L248.1 370.4L248.2 370.4L248.2 370.4L248.2 370.4L248.3 370.4L248.3 370.4L248.4 370.4L248.4 370.4L248.4 370.4L248.5 370.4L248.5 370.4L248.6 370.3L248.6 370.3L248.7 370.3L248.7 370.3L248.9 370.3L248.9 370.2L248.9 370.2L249.0 370.2L249.0 370.2L249.1 370.2L249.1 370.1L249.2 370.1L249.2 370.1L249.2 370.1L249.3 370.1L249.3 370.1L249.3 370.0L249.4 370.0L249.4 370.0L249.4 370.0L249.5 370.0L249.5 370.0L249.5 369.9L249.6 369.9L249.6 369.9L249.6 369.9L249.6 369.8L249.7 369.8L249.7 369.8L249.7 369.8L249.8 369.8L249.8 369.7L249.9 369.7L249.9 369.7L249.9 369.6L250.0 369.6L251.4 368.6L252.9 368.0L253.3 368.0L255.6 368.0L255.6 368.0L255.7 368.0L255.7 368.0L255.8 368.0L255.8 368.0L255.9 368.0L255.9 368.0L256 368.0L256.0 368.0L256.0 368.0L256.3 368.0L256.3 368.0L256.3 368.0L256.4 368.0L256.4 368.0L256.5 368.0L256.5 368.0L256.6 368.0L256.6 368.0L256.7 368.0L256.7 368.0L257.1 367.9L258.5 367.9L258.5 367.9L260.7 368.5L260.8 368.5L260.8 368.6L260.8 368.6L260.9 368.6L260.9 368.6L261.0 368.6L261.0 368.6L261.1 368.7L261.1 368.7L261.1 368.7L261.2 368.7L261.2 368.7L261.3 368.7L261.3 368.7L261.3 368.7L261.4 368.8L261.4 368.8L261.5 368.8L261.5 368.8L261.6 368.8L261.6 368.8L261.6 368.8L261.7 368.8L261.7 368.8L261.7 368.8L261.8 368.8L261.8 368.8L261.9 368.8L261.9 368.8L261.9 368.8L262.0 368.8L262.0 368.8L262.0 368.8L262.3 368.8L262.3 368.8L262.4 368.8L262.4 368.8L262.5 368.8L262.5 368.8L262.6 368.8L262.6 368.8L262.6 368.8L262.7 368.8L262.7 368.8L262.7 368.8L262.8 368.8L262.9 368.8L262.9 368.8L262.9 368.8L263.0 368.7L263.0 368.7L263.1 368.7L263.1 368.7L263.4 368.6L263.4 368.6L263.5 368.6L263.5 368.6L263.6 368.6L264.4 368.3L264.8 367.6L264.9 367.5L264.9 367.5L264.9 367.5L264.9 367.4L264.9 367.4L265.0 367.4L265.0 367.3L265.0 367.3L265.0 367.3L265.0 367.3L265.0 367.2L265.1 367.2L265.1 367.1L266.3 365.6L265.9 365.2L264.9 363.3L264.9 363.3L264.6 361.7L264.6 360.1L265.2 358.3L266.3 356.7L267.7 355.4L269.5 354.7L271.2 354.4L273.4 354.8L273.6 354.8L275.5 355.9L277.0 357.6L277.8 359.6L278.0 361.8L277.9 361.9L277.1 364.5L277.1 364.5L275.9 366.0L277.0 367.6L277.0 367.7L277.0 367.7L277.0 367.8L277.1 367.8L277.1 367.8L277.1 367.9L278.0 370.8L277.9 372.1L277.2 374.4L275.7 376.3L273.3 377.7L273.2 377.7L273.2 377.7L273.1 377.7L273.1 377.7L273.1 377.7L273.0 377.7L273.0 377.7L273.0 377.8L272.9 377.8L272.8 377.8L272.0 378.0L271.6 378.8L271.5 378.9L271.5 378.9L271.5 378.9L271.4 379.0L271.4 379.0L271.4 379.0L271.3 379.2L271.3 379.2L271.3 379.2L271.3 379.2L271.2 379.3L271.2 379.3L271.2 379.3L271.1 379.5L271.1 379.5L271.1 379.5L271.1 379.6L271.1 379.6L271.1 379.6L271.1 379.7L271.1 379.7L271.0 379.7L271.0 379.8L271.0 379.8L271.0 379.9L271.0 379.9L270.9 380.2L270.8 380.3L270.8 380.4L270.8 380.4L270.8 380.5L270.8 380.5L270.8 380.6L270.8 380.6L270.8 380.7L270.8 380.7L270.7 380.8L270.7 380.8L270.7 380.8L270.7 380.9L270.7 380.9L270.7 381.0L270.7 381.0L270.7 381.1L270.7 381.1L270.7 381.1L270.7 381.2L270.7 381.5L270.7 381.5L270.7 381.5L270.7 381.6L270.7 381.6L270.7 381.7L270.7 381.7L270.7 381.7L270.7 381.8L270.7 381.8L270.7 381.8L270.7 381.9L270.7 381.9L270.7 381.9L270.8 382.0L270.8 382.1L270.8 382.2L270.8 382.2L270.8 382.2L270.8 382.3L270.9 382.5L270.9 382.5L270.9 382.6L271 382.6L271.0 382.7L271.0 382.7L271.0 382.7L271.0 382.8L271.0 382.8L271.0 382.8L271.1 382.9L271.1 382.9L271.1 382.9L271.1 383L271.1 383.0L271.5 384.1L272.7 384.4L272.7 384.4L272.8 384.4L272.8 384.4L272.8 384.5L272.9 384.5L272.9 384.5L273.0 384.5L273.0 384.5L273.1 384.5L273.1 384.5L273.1 384.6L273.2 384.6L273.2 384.6L273.3 384.6L273.3 384.6L273.4 384.6L273.4 384.6L273.5 384.6L273.5 384.6L273.6 384.7L273.7 384.7L273.7 384.7L273.7 384.7L273.8 384.7L273.8 384.7L273.9 384.7L274.0 384.7L274.2 384.7L274.2 384.7L274.3 384.7L274.6 384.7L275.7 384.8L275.8 384.8L275.8 384.8L276.1 384.8L276.1 384.8L276.1 384.8L276.2 384.8L276.2 384.8L276.4 384.8L276.4 384.8L276.5 384.8L276.6 384.8L276.6 384.8L276.7 384.8L276.8 384.8L276.9 384.8L278.0 384.7L278.0 384.7L279.7 384.9L280.5 383.5L280.6 383.4L280.6 383.4L280.6 383.4L280.7 383.3L280.7 383.3L280.7 383.3L280.7 383.3L280.7 383.2L280.8 383.2L280.8 383.1L280.8 383.1L280.9 383.0L280.9 383.0L280.9 383L280.9 382.9L281.0 382.9L281.0 382.8L281.0 382.8L281.0 382.8L281.0 382.7L281.0 382.7L281.1 382.7L281.1 382.6L281.1 382.6L281.1 382.6L281.1 382.5L281.1 382.5L281.1 382.5L281.2 382.4L281.4 381.9L281.3 381.3L281.3 381.3L281.4 380.9L281.9 378.7L283.1 376.8L283.3 376.6L285.5 376.9L286.1 378.1L284.2 378.1L282.4 379.3L282.9 380.0L290.6 381.6L294.7 380.8L294.8 381.3L294.8 382.1L294.5 383.3L294.4 383.6L294.4 383.6L294.1 384.1L294.2 384.6L294.2 384.8L294.2 384.8L294.2 384.8L294.2 384.9L294.2 384.9L294.2 385L294.2 385.0L294.3 385.2L294.3 385.2L294.3 385.2L294.3 385.3L294.3 385.3L294.3 385.5L294.3 385.5L294.3 385.6L294.3 385.6L294.4 385.6L294.4 385.7L294.4 385.7L294.4 385.7L294.4 385.8L294.8 387.4L294.8 387.4L294.7 389.1L294.0 391.2L292.6 393.0L290.7 394.2L288.5 394.7L288.1 394.8L288.1 394.8L286.6 394.6L286.3 394.5L286.3 394.5L286.3 394.5L286.2 394.5L286.2 394.5L286.0 394.5L286.0 394.5L286.0 394.5L285.9 394.5L285.9 394.5L285.8 394.5L285.8 394.5L285.7 394.5L284.0 394.2L283.1 395.7L283.1 395.7L281.6 397.0L279.8 397.9L278.6 398.1L278.5 398.1L278.4 398.1L278.3 398.1L278.2 398.1L278.2 398.1L278.2 398.1L278.1 398.1L278.0 398.2L278.0 398.2L277.9 398.2L277.9 398.2L277.9 398.2L277.6 398.3L277.6 398.3L277.6 398.3L277.5 398.3L277.5 398.3L277.5 398.4L277.4 398.4L277.4 398.4L277.3 398.4L277.3 398.4L277.3 398.5L277.2 398.5L277.2 398.5L277.2 398.5L277.1 398.5L276.9 398.6L276.9 398.7L276.9 398.7L276.8 398.7L276.8 398.7L276.8 398.8L276.8 398.8L276.7 398.8L276.7 398.8L276.6 398.9L276.6 398.9L276.5 399.0L276.5 399.0L276.5 399.0L276.5 399.0L276.3 399.2L276.3 399.2L276.3 399.2L274.8 400.4L273.1 401.2L271.3 401.5L270.9 401.5L270.9 401.5L269.0 401.1L267.3 400.2L266.0 398.9L265.0 397.2L264.6 395.3L264.6 395.3L264.6 395.2L264.6 395.2L264.6 395.1L264.5 395.1L264.5 395.0L264.5 395.0L264.5 394.9L264.5 394.9L264.5 394.9L264.5 394.7L264.5 394.7L264.5 394.6L264.4 394.6L264.4 394.6L264.4 394.5L264.4 394.4L264.4 394.4L264.4 394.4L264.4 394.3L264.3 394.3L264.3 394.3L264.3 394.2L264.3 394.2L264.3 394.1L264.3 394.1L264.2 394.1L264.2 394.0L264.2 394.0L264.2 393.9L264.2 393.9L264.1 393.8L263.7 392.8L262.6 392.5L262.5 392.4L262.5 392.4L262.5 392.4L262.4 392.4L262.4 392.4L262.3 392.3L262.3 392.3L262.2 392.3L262.2 392.3L262.1 392.3L262.1 392.3L262.0 392.3L262.0 392.3L261.9 392.2L261.9 392.2L261.8 392.2L261.8 392.2L261.8 392.2L261.7 392.2L261.7 392.2L261.6 392.2L261.6 392.2L261.6 392.2L261.5 392.2L261.5 392.2L261.5 392.2L261.4 392.2L261.4 392.2L261.3 392.2L261.3 392.2L261.1 392.2L261.1 392.2L261.0 392.2L261.0 392.2L260.9 392.2L260.9 392.2L260.9 392.2L260.8 392.2L260.8 392.2L260.7 392.2L260.7 392.2L260.6 392.2L260.6 392.2L260.5 392.2L260.5 392.2L260.4 392.3L260.3 392.3L260.3 392.3L260.3 392.3L260.0 392.4L260.0 392.4L260.0 392.4L259.9 392.4L259.9 392.4L259.9 392.4L259.8 392.5L259.8 392.5L259.7 392.5L259.7 392.5L259.7 392.5L259.6 392.6L259.6 392.6L259.6 392.6L259.5 392.6L259.5 392.6L259.3 392.7L259.3 392.8L259.3 392.8L259.3 392.8L259.2 392.8L259.2 392.8L259.2 392.9L259.1 392.9L259.1 392.9L259.1 393L259.0 393.0L259.0 393.0L259 393.0L258.9 393.1L258.9 393.1L258.8 393.1L258.8 393.2L258.8 393.2L258.8 393.2L258.7 393.3L258.6 393.3L258.6 393.4L258.6 393.4L258.5 393.5L258.5 393.5L258.5 393.5L258.5 393.5L258.5 393.6L258.4 393.6L258.4 393.6L258.4 393.7L258.4 393.7L258.3 393.8L258.3 393.8L258.3 393.9L258.2 393.9L258.2 393.9L258.2 394.0L258.2 394.0L258.2 394.1L258.1 394.1L258.1 394.1L258.1 394.2L258.1 394.2L258.1 394.3L258.0 394.3L258.0 394.3L258.0 394.4L258.0 394.4L258.0 394.4L258.0 394.5L258 394.6L257.9 394.7L257.9 394.7L257.9 394.7L257.9 394.8L257.9 394.9L257.9 394.9L257.9 394.9L257.9 395.0L257.8 395.0L257.8 395.0L257.8 395.1L257.8 395.2L257.8 395.2L257.8 395.3L257.8 395.3L257.4 397.1L256.6 398.6L255.4 399.9L253.4 401.1L251.1 401.5L251.0 401.5L250.9 401.5L250.9 401.5L250.9 401.5L250.8 401.5L250.8 401.5L250.7 401.5L250.7 401.5L250.7 401.5L250.6 401.5L250.6 401.5L250.6 401.5L250.5 401.5L250.4 401.5L250.4 401.5L250.4 401.6L250.3 401.6L250.3 401.6L250.2 401.6L250.2 401.6L250.2 401.6L250.1 401.6L250.1 401.6L250.0 401.7L249.9 401.7L249.9 401.7L249.8 401.7L249.8 401.8L249.7 401.8L249.7 401.8L249.6 401.8L249.6 401.8L249.5 401.9L249.5 401.9L249.5 401.9L249.4 401.9L249.4 402.0L249.3 402.0L249.3 402.0L249.3 402.0L249.3 402.0L249.2 402.1L249.2 402.1L249.1 402.1L249.1 402.1L249.1 402.2L249.0 402.2L249.0 402.2L249.0 402.3L248.9 402.3L248.9 402.3L248.9 402.3L248.0 401.5L242.6 401.4L243.5 402.8L242.8 403.9L238.4 403.4L232.2 405.9L224.1 406.4L221.6 405.6L220.7 407.1L223.7 408.1L223.6 410.7L221.2 411.1L213.2 409.0L211.5 410.6L212.2 412.7L206.9 407.8L200.7 405.5L193.0 407.6L188.4 410.1L185.1 418.7L185.0 418.7L185.0 418.7L184.8 418.8L184.8 418.9L184.8 418.9L184.7 418.9L184.7 418.9L184.7 418.9L184.6 419.0L184.6 419.0L184.6 419.0L184.5 419.1L184.5 419.1L184.4 419.1L184.4 419.2L184.4 419.2L184.4 419.2L184.3 419.2L184.3 419.3L184.3 419.3L184.2 419.3L184.2 419.4L184.2 419.4L184.1 419.5L184.1 419.5L184.1 419.5L184.0 419.6L184.0 419.6L184.0 419.6L184.0 419.6L183.9 419.7L183.9 419.7L183.9 419.8L183.9 419.8L183.9 419.8L183.8 420.0L183.8 420.0L183.7 420.0L183.7 420.1L183.7 420.1L183.7 420.2L183.6 420.2L183.6 420.3L183.6 420.3L183.6 420.3L183.6 420.4L183.6 420.4L183.6 420.4L183.5 420.5L182.5 422.4L180.9 423.9L179.5 424.5L179.1 424.4L176.0 420.7L173.5 421.3L170.6 418.1L165.7 418.5L163.2 419.9L156.5 420.2L154.1 423.1L149.5 425.1L149.0 429.9L146.5 431.2L145.6 433.0L143.5 428.7L139.2 426.4L137.6 426.8L136.8 429.1L133.3 428.8L133.9 425.1L138.8 423L140.4 423.9L149.7 415.8L150.8 411.2L156.4 409.6L157.4 406.9L162.1 402.6L163.1 394.1L168.3 394.7L170.6 392.1L170.3 387.8L180.5 386.2L187.1 386.9L189.9 388.6L198.4 387.8L200.1 381.5L213.6 366.8L207.1 372.6L205.9 373.9L196.6 377.1L194.9 380.7L189.8 381.2L186.1 380.1L179.8 371.9L171.2 375.0L169.5 374.0L169.3 372.0L173.4 371.3L174.4 369.7L170.0 369.5L166.1 367.2L162.9 367.2L160.5 367.7L159.6 370.2L156.0 370.4L154.1 372.1L151.6 371.0L152.4 369.2L156.2 367.7L155.7 366.4L155.2 367.6L152.7 367.9L147.2 366.7L150.7 365.0L150.2 362.2L147.2 361.4L147.7 359.8L151.1 358.2L151.6 356.9L157.3 356.4L161.2 352.3L165.2 352.2L171.4 348.2L173.8 345.1L175.6 339.5L174.2 335.0L176.0 330.8L173.9 327.7L174.4 323.4L168.0 324.3L165.1 327.6L160.0 327.6L163.4 323.2L169.5 318.9L170.2 315.9L173.3 312.5L181.0 309.7L187.0 310.0 Z M 286.8 374.7L287.0 374.7L287.8 374.6L287.6 374.8 Z M 237.7 291.3L237.8 289.5L238.3 287.8L239.3 286.2L240.1 285.5L242.0 284.3L242.2 284.3L242.1 284.1L241.2 282.1L241.0 280.8L241.0 280.8L241.0 280.4L241.3 278.6L242.1 276.9L243.3 275.5L243.3 275.5L244.5 274.7L244.4 273.2L244.4 273.2L244.4 273.1L244.5 272.7L244.5 272.6L244.5 272.6L244.5 272.5L244.5 272.5L244.5 272.4L244.5 272.4L244.5 272.3L244.5 272.3L244.5 272.3L244.5 272.2L244.5 272.0L244.5 271.9L244.5 271.9L244.5 271.8L244.5 271.8L244.5 271.7L244.5 271.7L244.5 271.6L244.5 271.5L244.4 270.5L244.5 269.3L245.1 267.4L246.4 265.7L247.6 264.7L247.7 264.6L247.7 264.6L247.8 264.6L247.8 264.6L247.8 264.6L247.9 264.5L247.9 264.5L247.9 264.5L247.9 264.5L248.0 264.4L248.0 264.4L248.1 264.3L248.1 264.3L248.1 264.3L248.2 264.2L248.2 264.2L248.3 264.1L248.3 264.1L248.4 264.1L248.4 264.0L248.5 264.0L248.5 263.9L248.5 263.9L248.5 263.8L248.6 263.8L248.6 263.8L248.6 263.8L248.6 263.7L248.7 263.7L248.7 263.6L248.8 263.5L249.1 263.1L253.8 265.3L258.0 273.6L259.3 275.0L259.2 275.2L255.9 278.5L255.6 278.8L255.6 278.8L254.3 279.6L254.5 280.7L254.0 282.9L254.0 282.9L253.0 284.7L251.4 286.2L249.9 286.8L250.0 286.9L250.9 289.0L250.9 289.0L251.1 290.5L251.1 290.5L250.8 292.7L249.7 294.7L248.1 296.2L246.3 297.0L244.3 297.3L244.3 297.3L242.9 297.2L242.3 297.0L240.1 295.8L238.5 293.8L237.7 291.3 Z M 190.7 246.3L190.7 245.7L190.7 245.6L191.6 243.5L193.0 241.8L195.0 240.6L197.2 240.2L197.3 240.2L198.8 240.3L200.7 241.1L202.3 242.4L203.5 244.1L204.0 246.1L204.0 246.1L204.0 248.0L204.0 248.0L203.8 248.6L204.0 249.1L204.0 249.1L204.0 249.6L204.0 249.6L204.0 249.7L204.0 249.7L204.0 250.2L204.3 250.6L204.3 250.7L204.3 250.7L204.3 250.8L204.3 250.8L204.3 250.8L204.4 250.9L204.4 250.9L204.4 250.9L204.4 251.0L204.4 251.0L204.4 251.0L204.5 251.1L204.5 251.1L204.6 251.3L204.6 251.3L204.6 251.4L204.7 251.4L204.7 251.4L204.7 251.4L204.7 251.5L204.7 251.5L204.8 251.5L204.9 251.7L204.9 251.7L204.9 251.7L205.0 251.8L205.0 251.8L205.0 251.8L205.0 251.8L205.1 251.9L205.1 251.9L205.2 252.0L205.4 252.2L212.2 259.0L213.5 260.9L214.1 263.2L214.1 263.4L214.1 263.8L213.8 265.9L212.9 267.7L212.9 267.7L212.5 268.2L212.4 268.2L212.4 268.2L212.4 268.3L212.3 268.3L212.3 268.4L212.3 268.4L212.3 268.4L212.2 268.5L212.2 268.5L212.2 268.5L212.1 268.6L212.1 268.7L212.0 268.7L212.0 268.8L212.0 268.8L212.0 268.8L212.0 268.9L212.0 268.9L211.9 268.9L211.9 269.0L211.9 269.0L211.9 269.0L211.8 269.1L211.8 269.2L211.8 269.2L211.8 269.2L211.7 269.5L211.7 269.5L211.7 269.6L211.7 269.7L211.7 269.7L211.6 269.8L211.6 269.8L211.6 269.9L211.6 269.9L211.6 270L211.6 270.0L211.6 270.0L211.6 270.1L211.6 270.1L211.6 270.2L211.6 270.2L211.6 270.2L211.6 270.3L211.6 270.3L211.6 270.5L211.6 270.6L211.6 270.6L211.6 270.7L211.6 270.7L211.6 270.7L211.6 270.8L211.6 270.8L211.6 270.8L211.6 270.9L211.6 270.9L211.6 271L211.6 271.0L211.6 271.0L211.6 271.1L211.7 271.2L211.7 271.2L211.7 271.3L211.7 271.3L211.7 271.3L211.7 271.4L211.8 271.6L211.8 271.7L211.8 271.7L211.9 271.8L211.9 271.8L211.9 271.9L211.9 271.9L212.0 272.0L212.0 272.0L212.0 272.0L212.0 272.1L212.0 272.1L212.1 272.2L212.1 272.2L212.1 272.3L212.1 272.3L212.2 272.3L212.2 272.3L212.2 272.4L212.2 272.4L212.3 272.4L212.3 272.5L212.3 272.5L212.3 272.5L212.4 272.6L212.4 272.6L212.4 272.6L212.5 272.7L212.9 273.2L213.7 274.8L214.1 276.5L214.2 277.1L213.9 278.8L213.2 280.6L212.0 282.1L210.4 283.2L207.7 283.9L207.7 283.9L205.2 283.5L203.3 282.4L204.3 280.3L204.8 275.1L197.3 280.3L195.6 279.6L191.8 272.9L191.3 270.2L187.0 264.0L190.1 256.5L190.2 256.5L190.2 256.5L190.2 256.5L190.3 256.4L190.3 256.4L190.3 256.4L190.3 256.4L190.4 256.3L190.4 256.3L190.4 256.3L190.5 256.3L190.5 256.2L190.5 256.2L190.6 256.1L190.6 256.1L190.6 256.1L190.6 256.0L190.7 256.0L190.7 256.0L190.7 255.9L190.7 255.9L190.8 255.8L190.8 255.8L190.8 255.8L190.9 255.7L190.9 255.7L190.9 255.7L190.9 255.6L190.9 255.6L190.9 255.6L191.0 255.5L191.0 255.5L191.0 255.5L191.0 255.4L191.0 255.4L191.1 255.3L191.1 255.3L191.1 255.3L191.1 255.2L191.1 255.2L191.1 255.2L191.2 255L191.2 254.9L191.2 254.9L191.2 254.8L191.2 254.8L191.3 254.7L191.3 254.7L191.3 254.6L191.3 254.6L191.3 254.5L191.3 254.5L191.3 254.4L191.3 254.4L191.3 254.3L191.3 254.2L191.3 254.2L191.3 254.1L191.3 254.1L191.3 254.1L191.3 253.9L191.3 253.9L191.3 253.8L191.3 253.8L191.3 253.7L192.8 250.2L194.9 248.2L198.8 248.4L200.5 248.0L200.6 247.1 Z M 197.4 324.5L197.3 324.2L198.0 321.4L199.0 319.8L200.4 318.5L202.2 317.7L204.1 317.5L204.1 317.5L205.7 317.7L207.8 318.6L209.4 320.1L210.5 322.1L210.8 324.3L210.8 324.3L210.7 325.0L210.6 326.0L209.1 328.6L209.1 328.6L207.3 330.1L205.2 330.8L202.9 330.8L200.7 330.0L199.0 328.6L199.0 328.6L197.8 326.6L197.4 324.7L197.4 324.7L197.4 324.5L197.4 324.5L197.4 324.5 Z M 160.4 243.0L160.4 242.7L161.1 240.6L162.4 238.8L164.1 237.5L164.1 237.5L166.8 236.8L168.2 236.9L168.3 236.9L168.3 236.9L168.3 236.9L168.4 236.9L168.5 237.0L168.5 237.0L168.6 237.0L168.6 237.0L168.6 237.0L168.7 237.0L168.7 237.0L168.9 237.0L168.9 237.0L169.0 237.0L169.0 237.0L169.0 237.0L169.1 237.0L169.2 236.9L169.2 236.9L169.3 236.9L169.3 236.9L169.4 236.9L170.3 236.8L171.6 236.9L171.9 237.0L173.9 237.8L175.6 239.2L176.7 241.0L177.2 243.2L177.2 243.5L177.2 246.9L177.2 246.9L176.9 249.0L175.8 251.0L174.3 252.3L171.9 250.6L171.0 248.7L170.2 250.3L171.5 255.3L170.5 256.1L169.1 256.6L168.3 256.3L166.4 253.3L161.1 249.8L158.6 252.4L159.5 255.3L158.4 254.4L157.4 252.5L157.0 250.4L157.0 250.4L157.4 248.0L158.6 245.9L159.3 245.3L159.3 245.2L159.4 245.2L159.4 245.1L159.4 245.1L159.5 245.1L159.5 245.1L159.5 245.0L159.5 245.0L159.6 244.9L159.6 244.9L159.6 244.9L159.7 244.8L159.7 244.8L159.7 244.8L159.7 244.8L159.8 244.7L159.8 244.7L159.8 244.7L159.8 244.6L159.9 244.6L159.9 244.5L159.9 244.5L159.9 244.5L159.9 244.5L160.0 244.4L160.0 244.4L160.0 244.3L160.1 244.3L160.1 244.2L160.1 244.2L160.1 244.2L160.1 244.1L160.1 244.1L160.1 244.1L160.2 244.0L160.2 244.0L160.2 244.0L160.2 243.9L160.2 243.9L160.2 243.8L160.3 243.8L160.3 243.7L160.3 243.6L160.3 243.6L160.3 243.6L160.3 243.5L160.3 243.5L160.4 243.3L160.4 243.3L160.4 243.2L160.4 243.2L160.4 243.1L160.4 243.1L160.4 243.1L160.4 243.0 Z M 164.8 134.3L163.2 135.4L161.3 136.0L159.8 135.9L159.2 134.4L154.1 129.3L154.7 128.5L156.8 129.9L157.6 129.4L157.8 126.8L156.4 123.9L156.5 123.9L158.5 122.9L160.0 122.6L160.6 122.6L162.3 122.9L164.2 123.8L165.7 125.2L166.7 127.1L167.1 129.2L166.9 131.1L166.1 132.9L164.8 134.3 Z M 141.3 156.3L140.7 155.2L140.5 154.6L140.4 152.8L142.0 150.0L141.9 155.9L140.6 156.8L140.6 156.2 Z M 146.7 146.1L147.4 146.1L147.5 146.1L149.4 146.6L150.5 147.2L150.3 145.9L150.7 143.9L150.7 143.9L151.6 142.1L153.0 140.8L154.6 139.8L156.5 139.4L158.4 139.5L160.2 140.2L161.7 141.3L161.7 141.3L163.1 143.2L163.7 145.5L163.5 147.9L162.6 149.8L161.2 151.4L159.3 152.4L157.3 152.8L156.6 152.8L156.6 152.8L154.6 152.4L153.5 151.7L153.7 153.0L153.3 155.0L153.3 155.0L152.7 156.3L152.7 156.3L151.3 158.0L150.2 158.6L149.8 157.1L153.0 153.9L146.4 156.5L145.4 155.6L144.6 151.2L145.4 147.7L149.1 150.4L152.0 149.5L148.8 148.9 Z M 147.8 159.4L147.2 159.5L146.1 159.4L146.7 160.4L147.1 162.4L147.1 162.5L147.1 162.5L147.1 162.6L147.1 162.6L147.1 162.7L147.1 162.7L144.3 165.2L142.5 167.6L140.8 168.1L140.4 166.9L141.8 164.1L140.7 162.3L139.7 164.2L137.8 162.4L134.9 162.7L133.9 160.8L134.0 160.4L135 158.7L136.3 157.5L138.0 156.6L138.0 156.6L138.0 156.6L138.1 156.5L139.0 156.3L139.1 157.4L143.8 160.2L146.6 158.9 Z M 149.0 165.7L149.3 166.1L149.4 166.3L149.4 166.3L149.5 166.3L149.5 166.3L149.5 166.4L149.5 166.4L149.5 166.4L149.6 166.5L149.6 166.5L149.7 166.6L149.7 166.7L149.7 166.7L149.8 166.7L149.8 166.8L149.8 166.8L149.9 166.9L150.1 167.0L150.1 167.0L150.1 167.0L150.1 167.0L150.2 167.1L150.2 167.1L150.2 167.1L150.3 167.1L150.3 167.2L150.3 167.2L150.4 167.2L150.5 167.3L151.1 167.7L152.4 169.1L153.3 170.9L153.7 172.9L153.5 174.5L153.5 174.6L153.5 174.6L153.5 174.7L153.5 174.7L153.4 174.8L153.4 174.8L153.4 174.8L153.4 174.9L153.4 174.9L153.4 174.9L153.4 175.0L153.4 175.0L153.4 175.1L153.4 175.1L153.4 175.2L153.4 175.2L153.4 175.4L153.4 175.5L153.4 175.5L153.4 175.5L153.4 175.6L153.4 175.6L153.4 175.6L153.4 175.7L153.4 175.7L153.4 175.8L153.4 175.8L153.4 175.9L153.5 175.9L153.5 175.9L153.5 176.0L153.5 176.1L153.5 176.1L153.5 176.2L153.5 176.2L153.5 176.2L153.5 176.3L153.6 176.5L153.6 176.5L153.6 176.6L153.7 176.6L153.7 176.6L153.7 176.7L153.7 176.7L153.7 176.8L153.8 176.8L153.8 176.9L153.8 176.9L153.8 177.0L153.9 177.0L153.9 177.1L153.9 177.1L153.9 177.1L154.0 177.3L154.0 177.3L154.1 177.3L154.1 177.3L154.1 177.4L154.1 177.4L154.2 177.5L154.2 177.5L154.3 177.6L154.3 177.6L154.3 177.6L154.5 177.8L154.5 177.8L154.5 177.8L154.6 177.9L154.6 177.9L154.6 177.9L155.8 179.4L146.5 188.3L141.5 185.1L140.0 182.5L149.5 180.9L145.2 180.0L141.9 181.2L136.3 180.7L135.5 179.2L136.5 178.1L141.4 177.2L143.4 178.8L144.6 177.1L143.6 175.6L147.5 174.4L146.1 173.2L142.3 173.2L144.9 168.8L148.2 170.4L150.7 169.6L148.5 169.9L145.5 167.4L146.8 165.1 Z M 156.3 180.1L156.9 181.7L157.0 182.2L157.0 182.2L157.0 182.5L157.0 182.6L157.0 182.6L157.0 182.7L157.0 182.7L157.0 182.7L157.0 182.8L157.0 182.8L157.1 182.8L157.1 183.0L157.1 183.0L157.1 183.1L157.1 183.1L157.1 183.2L157.2 183.3L157.2 183.3L157.2 183.3L157.2 183.4L157.2 183.5L157.2 183.5L157.3 183.5L157.3 183.6L157.3 183.6L157.3 183.7L157.4 183.7L157.4 183.8L157.4 183.8L157.4 183.8L157.4 183.9L157.4 183.9L157.6 184.1L157.6 184.2L157.6 184.2L157.6 184.2L157.7 184.2L157.7 184.3L157.7 184.3L157.7 184.3L157.8 184.4L157.8 184.4L157.8 184.4L157.8 184.4L157.9 184.5L157.9 184.5L157.9 184.6L158.0 184.6L158.0 184.6L158.0 184.7L158.0 184.7L158.1 184.7L158.1 184.7L158.2 184.8L159.1 185.9L160.0 187.5L160.4 189.3L160.4 189.6L160.0 192.1L158.7 194.2L158.6 194.4L158.6 194.4L158.6 194.4L158.5 194.4L158.5 194.5L158.5 194.5L158.5 194.6L158.4 194.6L158.4 194.7L158.4 194.7L158.3 194.8L158.3 194.8L158.3 194.8L158.3 194.9L158.2 194.9L158.2 194.9L158.2 195.0L158.2 195.0L158.2 195.0L158.1 195.1L158.1 195.1L158.1 195.2L158.1 195.2L158.1 195.3L158.0 195.3L158.0 195.3L158.0 195.4L158.0 195.5L158.0 195.6L158.0 195.6L157.9 195.6L157.9 195.7L157.9 195.7L157.9 195.8L157.9 195.8L157.9 195.9L157.9 195.9L157.9 196.0L157.9 196.0L157.9 196.0L157.9 196.1L157.9 196.1L157.8 196.1L157.8 196.2L157.8 196.2L157.8 196.3L157.8 196.3L157.8 196.3L157.8 196.4L157.8 196.4L157.8 196.4L157.8 196.6L157.8 196.6L157.8 196.7L157.8 196.7L157.8 196.7L157.8 196.8L157.8 196.8L157.8 196.8L157.8 196.9L157.9 196.9L157.9 197.0L157.9 197.0L157.9 197.1L157.9 197.1L157.9 197.1L157.9 197.2L157.9 197.2L157.9 197.3L157.9 197.3L157.9 197.4L157.9 197.4L158.0 197.5L158.0 197.5L158.0 197.6L158.0 197.7L158.1 197.7L158.1 197.8L158.1 197.8L158.1 197.8L158.1 197.9L158.1 197.9L158.2 198.0L158.2 198.0L158.2 198.0L158.2 198.1L158.2 198.1L158.3 198.1L158.3 198.2L158.3 198.2L158.3 198.2L158.3 198.3L158.4 198.3L158.4 198.4L158.5 198.5L158.5 198.5L158.5 198.5L158.5 198.5L158.5 198.6L158.6 198.6L158.6 198.6L158.6 198.7L158.7 198.7L158.7 198.8L159.1 199.4L154.9 202.7L151.5 207.0L150.7 206.5L151.3 216.4L148.9 220.3L147.4 226.7L144.1 223.3L144.2 222.0L146.5 215.8L145.2 213.9L145.4 210.0L147.8 205.4L145.6 207.7L145.5 207.0L149.4 200.1L147.5 200.8L148.3 194.7L151.7 190.8L155.9 190.9L158.3 188.3L159.2 186.3L156.3 190.2L152.3 189.1L152.8 187.6L155.5 186.4L153.4 186.7L152.8 185.2 Z M 159.2 199.6L159.9 200.7L160.4 202.8L160.4 203.2L160.4 203.2L160.0 205.6L158.7 207.7L158.6 207.8L158.6 207.8L158.6 207.9L158.5 207.9L158.5 207.9L158.5 208.0L158.5 208.0L158.4 208.0L158.4 208.1L158.4 208.1L158.4 208.1L158.3 208.2L158.3 208.2L158.3 208.3L158.3 208.3L158.2 208.3L158.2 208.4L158.2 208.4L158.2 208.4L158.2 208.5L158.1 208.5L158.1 208.6L158.1 208.6L158.1 208.6L158.1 208.7L158.1 208.7L158.0 208.8L158.0 208.8L158.0 209.0L158.0 209.0L157.9 209.1L157.9 209.1L157.9 209.1L157.9 209.2L157.9 209.2L157.9 209.3L157.9 209.3L157.9 209.4L157.9 209.4L157.9 209.4L157.9 209.5L157.9 209.5L157.9 209.5L157.8 209.6L157.8 209.6L157.8 209.7L157.8 209.7L157.8 209.8L157.8 209.8L157.8 209.8L157.8 209.9L157.8 210.0L157.8 210.1L157.8 210.1L157.8 210.1L157.8 210.2L157.8 210.2L157.8 210.3L157.9 210.4L157.9 210.4L157.9 210.4L157.9 210.5L157.9 210.5L157.9 210.5L157.9 210.6L157.9 210.6L157.9 210.7L157.9 210.7L157.9 210.8L157.9 210.8L158.0 210.9L158.0 210.9L158.0 210.9L158.0 211.1L158.0 211.1L158.1 211.2L158.1 211.2L156.0 209.9L154.9 210.8L155.1 213.7L153.1 212.7L152.4 210.6L153.3 206.8L155.7 202.8 Z M 136.5 218.9L136.5 218.9L136.4 218.9L136.4 218.9L136.3 218.9L136.3 218.9L136.2 218.8L136.1 218.8L136.1 218.8L136.1 218.8L136.0 218.8L136.0 218.8L135.9 218.8L135.8 218.7L135.8 218.7L135.7 218.7L135.6 218.7L135.6 218.7L135.6 218.7L135.5 218.7L135.5 218.7L135.5 218.7L135.4 218.7L135.4 218.7L135.4 218.7L135.2 218.7L135.2 218.7L135.2 218.7L135.1 218.7L135.0 218.7L135.0 218.7L135 218.7L134.9 218.7L134.8 218.7L134.8 218.7L134.8 218.7L134.7 218.7L134.7 218.7L134.6 218.7L134.6 218.7L134.5 218.7L134.5 218.8L134.4 218.8L134.4 218.8L134.3 218.8L134.3 218.8L134.3 218.8L134.2 218.8L134.2 218.8L134.1 218.9L134.1 218.9L134.0 218.9L133.9 218.9L133.9 218.9L133.9 219L133.8 219.0L133.8 219.0L133.7 219.0L133.6 219.1L133.6 219.1L133.6 219.1L133.5 219.1L133.5 219.1L131.4 219.8L132.9 214.4L131.2 214.1L127.8 218.1L127.8 215.6L129.2 211.2L132.0 211.0L135.9 208.6L137.6 218.2 Z M 126.9 184.1L126.8 183.0L126.8 183.0L126.9 182.5L127.5 181.8L130.9 180.0L129.8 182.3 Z M 133.4 170.1L133.5 170.1L133.5 170.0L133.5 170.0L133.5 169.9L133.5 169.9L133.5 169.9L133.6 169.8L133.6 169.8L133.6 169.6L133.6 169.5L133.7 169.5L133.7 169.4L133.7 169.4L133.7 169.3L133.7 169.3L133.7 169.3L133.7 169.2L133.7 169.2L133.7 169.1L133.7 169.1L133.7 169.1L133.8 169.0L133.8 169.0L133.8 168.9L133.8 168.9L133.8 168.9L133.8 168.8L133.8 168.7L133.8 168.7L133.8 168.5L133.8 168.5L133.8 168.4L133.8 168.4L133.8 168.4L133.8 168.3L133.8 168.3L133.8 168.2L133.8 168.2L133.8 168.1L133.7 168.1L133.7 168.1L133.7 168.0L133.7 168.0L133.7 167.9L133.7 167.9L133.7 167.8L133.6 167.1L134.4 166.5L135.9 167.8L135.6 170.1L134.3 171.0 Z M 244.9 407.2L242.4 410.4L239.7 411.3L234.6 408.1L232.8 408.3L239.0 404.1L243.5 405.3 Z M 246.9 401.8L247.2 403.9L245.7 403.5 Z M 291.5 380.3L290.4 381.0L287.3 380.4L286.8 377.9L290.5 378.7 Z M 176.8 308.9L169.7 315.4L166.9 313.3L165.1 309.7L165.2 305.3L168.5 304.1L171.6 305.0L172.8 308.1 Z M 157.2 227.7L155.1 228.6L151.7 226.7L150.6 221.9L151.1 219.4L153.0 217.7L155.8 219.2L157.2 223.9 Z M 158.7 213.4L158.8 217.8L155.3 211.9L155.9 210.2 Z M 136.3 201.7L134.7 205.0L133.4 204.6L134.1 203.2 Z M 145.5 202.7L138.9 214.3L136.8 213.3L136.9 209.8L139.5 205.5L145.3 201.0 Z M 145.9 200.4L144.7 200.7L145.9 199.4 Z M 147.5 197.3L146.7 199.8L146.8 197.0 Z M 148.0 194.8L147.2 196.8L146.8 195.5 Z M 131.5 193.1L130.9 194.5L130.4 194.2 Z M 149.8 191.5L148.9 192.7L148.6 191.6 Z M 136.5 188.5L135.7 188.9L134.5 188.2L135.0 187.5 Z M 140.6 186.0L147.0 189.9L146.7 191.7L142.8 195.0L142.0 193.3L139.1 194.9L132.7 196.1L132.2 193.3L134.7 194.1L139.2 192.5L135.7 192.8L135.4 192.0L139.8 187.9L137.2 188.5L133.0 185.5L133.5 183.4L137.8 181.9 Z M 138.6 171.8L137.4 173.7L136.4 172.3L137.8 170.8 Z M 143.1 157.5L142.7 158.6L141.4 157.2 Z M 143.0 147.5L142.7 149.7L142.3 148.8 Z M 143.0 147.5 "/>
<path style=" stroke:none;fill-rule:nonzero;fill:rgb(77.6%,78.8%,62.3%);fill-opacity:1;" d="M 126.7 284.5L126.7 284.5L126.6 284.5L126.6 284.5L126.6 284.5L126.5 284.5L126.5 284.5L125.9 284.5L125.9 284.5L123.9 284.2L122.0 283.3L120.5 281.8L119.6 280.0L119.2 277.9L119.2 277.9L119.2 277.4L119.3 276.9L119.4 276.1L119.4 276.1L119.5 276.0L119.5 275.9L119.5 275.9L119.5 275.9L119.5 275.8L119.5 275.8L119.5 275.7L119.5 275.7L119.5 275.7L119.5 275.6L119.5 275.5L119.5 275.5L119.5 275.4L119.5 275.1L119.5 275.1L119.5 275.1L119.5 275.0L119.5 275L119.5 274.0L119.5 274.0L119.7 272.8L120.3 271.2L121.3 269.8L123.5 268.3L126.0 267.7L126.2 267.7L126.3 267.7L126.4 267.7L126.4 267.7L126.5 267.7L126.5 267.7L126.5 267.7L126.6 267.7L126.7 267.7L126.7 267.7L126.8 267.7L126.8 267.7L126.8 267.7L126.9 267.7L126.9 267.6L127.0 267.6L127.1 267.6L127.1 267.6L127.1 267.6L127.2 267.6L127.2 267.6L127.2 267.6L127.4 267.5L127.4 267.5L127.5 267.5L127.5 267.5L127.5 267.5L127.6 267.4L127.6 267.4L127.7 267.4L127.7 267.4L127.8 267.4L127.8 267.3L127.8 267.3L127.9 267.3L127.9 267.3L127.9 267.3L128.1 267.1L128.1 267.1L128.2 267.1L128.2 267.1L128.2 267.1L128.3 267.0L128.3 267.0L128.4 267.0L128.4 267.0L128.5 266.9L128.5 266.8L128.6 266.8L128.6 266.8L130.3 265.6L132.3 265.0L133.2 264.9L133.6 264.9L133.6 264.9L134.9 265.1L134.9 265.2L135.0 265.2L135.0 265.2L135.0 265.2L135.1 265.2L135.1 265.2L135.2 265.2L135.2 265.2L135.2 265.2L135.3 265.2L135.4 265.2L135.5 265.2L135.5 265.2L135.5 265.2L135.6 265.2L135.6 265.3L135.9 265.3L135.9 265.2L135.9 265.2L136.0 265.2L136.0 265.2L136.6 265.2L137.3 265.3L139.3 265.8L141.0 266.9L141.3 267.2L142.7 269.3L143.3 271.8L143.3 271.8L142.6 272.2L138.4 271.7L136.8 276.8L134.4 279.1L132.8 279.4L127.7 275.2L131.5 280.3L131.3 280.9L130.4 281.3L126.6 280.2L126.1 282.8L126.5 284.1 Z M 51.0 264.9L52.2 264.8L52.2 264.8L52.2 264.8L52.5 264.8L52.6 264.8L52.6 264.8L52.8 264.8L55.1 265.4L57.1 266.9L57.1 266.9L57.1 267.0L57.2 267.0L57.2 267.0L57.2 267.0L57.3 267.1L57.3 267.1L57.4 267.2L57.5 267.2L57.5 267.3L57.5 267.3L57.5 267.3L57.6 267.3L57.6 267.4L57.6 267.4L57.8 267.5L57.9 267.5L57.9 267.5L57.9 267.6L58.0 267.6L58.0 267.6L58.1 267.6L58.1 267.6L58.1 267.6L58.2 267.7L58.2 267.7L58.3 267.7L58.3 267.7L58.6 267.8L58.6 267.8L58.6 267.8L58.7 267.8L58.7 267.9L58.8 267.9L58.9 267.9L58.9 267.9L58.9 267.9L59.0 267.9L59.0 267.9L59.0 267.9L59.1 267.9L59.1 267.9L59.2 267.9L59.2 267.9L59.3 268L59.3 268L59.3 268.0L59.4 268.0L59.4 268.0L59.7 268.0L59.7 268.0L59.7 268.0L59.8 268L59.8 267.9L59.9 267.9L59.9 267.9L60.0 267.9L60.0 267.9L60.0 267.9L60.1 267.9L60.1 267.9L60.1 267.9L60.3 267.9L60.3 267.9L60.3 267.9L60.4 267.9L60.4 267.8L60.5 267.8L60.5 267.8L60.6 267.8L60.6 267.8L60.7 267.7L60.8 267.7L60.8 267.7L60.9 267.7L61 267.6L61.0 267.6L61.0 267.6L61.1 267.6L61.1 267.6L61.1 267.6L61.1 267.5L61.2 267.5L61.3 267.5L61.3 267.5L61.3 267.4L61.4 267.4L61.5 267.3L61.5 267.3L61.5 267.3L61.6 267.3L63.2 266.4L63.2 266.4L64.5 266.1L64.5 266.3L66.1 269.2L67.8 266.4L68.3 266.5L68.4 266.5L68.4 266.6L68.5 266.6L68.5 266.6L68.6 266.6L68.6 266.6L68.6 266.6L68.8 266.7L68.8 266.7L68.9 266.7L68.9 266.7L68.9 266.7L69.0 266.7L69.1 266.8L69.1 266.8L69.2 266.8L69.2 266.8L69.3 266.8L69.3 266.8L69.3 266.8L69.4 266.8L69.4 266.8L69.5 266.8L69.6 266.8L69.6 266.8L69.6 266.8L69.9 266.8L69.9 266.8L70.0 266.8L70.0 266.8L70.0 266.8L70.1 266.8L70.1 266.8L70.2 266.8L70.2 266.8L70.3 266.8L70.3 266.8L70.3 266.8L70.4 266.8L70.4 266.8L70.4 266.8L70.6 266.7L70.6 266.7L70.7 266.7L71.8 266.5L72.0 266.5L72.3 266.5L72.3 266.5L73.8 266.7L74.3 266.1L76.0 266.5L79.1 268.4L78.4 266.8L80.0 265.9L79.6 264.5L78.0 263.9L78.3 263.8L78.3 263.8L80.4 263.8L80.4 263.8L82.8 264.7L84.4 266.0L85.4 267.7L86.0 270.3L86.0 270.3L85.8 272.3L84.9 274.1L83.6 275.6L81.9 276.6L80.0 277.1L80.0 277.1L79.9 277.1L79.3 277.2L79.3 277.2L77.8 276.9L76.9 278.1L76.9 278.1L76.2 278.7L76.1 278.8L76.1 278.8L76.1 278.8L76.0 278.8L76.0 278.8L76.0 278.9L75.9 278.9L75.9 279.0L75.8 279.0L75.8 279.0L75.8 279.1L75.7 279.1L75.6 279.2L75.6 279.2L75.6 279.2L75.6 279.2L75.5 279.3L75.5 279.3L75.5 279.4L75.5 279.4L75.4 279.4L75.4 279.5L75.4 279.5L75.3 279.5L75.3 279.6L75.3 279.6L75.3 279.6L75.3 279.7L75.2 279.7L75.2 279.7L75.2 279.8L75.2 279.8L75.1 279.8L75.1 279.9L75.1 279.9L75.1 279.9L75.1 280.0L75.1 280.0L75.0 280.0L75.0 280.1L75.0 280.1L75.0 280.1L75.0 280.2L75 280.3L74.9 280.3L74.9 280.3L74.9 280.4L74.9 280.5L74.9 280.5L74.8 280.6L74.8 280.6L74.8 280.7L74.8 280.7L74.8 280.8L74.8 280.8L74.8 280.9L74.8 280.9L74.8 280.9L74.8 281.0L74.7 281.0L74.7 281.0L74.7 281.1L74.7 281.1L74.7 281.2L74.7 281.2L74.7 281.3L74.7 281.3L74.7 281.3L74.7 281.4L74.7 281.4L74.7 281.5L74.7 281.5L74.7 281.6L74.7 281.6L74.7 281.7L74.7 281.7L74.7 281.7L74.7 281.8L74.7 281.8L74.7 281.8L74.7 281.9L74.7 282.0L74.8 282.0L74.8 283.2L74.3 285.5L73.1 287.5L71.3 288.9L71.2 289.0L71.1 289.0L71.1 289.0L71.1 289.0L71.0 289.1L71.0 289.1L70.9 289.1L70.9 289.2L70.8 289.2L70.8 289.2L70.7 289.3L70.7 289.3L70.7 289.3L70.7 289.3L70.6 289.3L70.6 289.4L70.5 289.4L70.5 289.5L70.5 289.5L70.4 289.5L70.4 289.5L70.4 289.6L70.4 289.6L70.3 289.6L70.3 289.6L70.3 289.7L70.2 289.7L70.2 289.8L70.1 289.8L70.1 289.9L70.1 289.9L70.1 289.9L70.1 290.0L70.0 290.0L70.0 290.1L70.0 290.1L69.9 290.2L69.9 290.3L69.8 290.3L69.8 290.3L69.8 290.4L69.8 290.4L69.8 290.4L69.7 290.5L69.7 290.5L69.7 290.6L69.7 290.6L69.7 290.6L69.7 290.7L69.6 290.7L69.6 290.7L69.5 291.0L69.5 291.0L69.5 291.1L69.5 291.1L69.5 291.1L69.5 291.2L69.5 291.3L69.5 291.3L69.5 291.3L69.5 291.4L69.5 291.4L69.4 291.5L69.4 291.5L69.4 291.5L69.4 291.6L69.4 291.6L69.4 291.7L69.4 291.7L69.4 291.7L69.4 291.8L69.4 291.9L69.4 291.9L69.4 292.0L69.4 292.0L69.4 292.1L69.4 292.1L69.4 292.2L69.4 292.2L69.4 292.2L69.4 292.3L69.4 292.3L69.4 292.3L69.4 292.4L69.5 292.5L69.5 292.5L69.5 292.5L69.5 292.6L69.5 292.6L69.5 292.7L69.5 292.7L69.5 292.7L69.5 292.8L69.6 292.9L69.6 292.9L69.6 293.0L69.6 293.0L69.6 293.0L69.6 293.1L69.6 293.1L69.6 293.1L69.6 293.2L69.7 293.2L69.7 293.2L69.7 293.3L69.7 293.3L69.7 293.4L70.3 296.3L70.1 297.8L70.1 297.8L70.1 297.9L70.1 298L70.1 298.0L70.1 298.0L70.1 298.1L70.0 298.2L70.0 298.2L70.0 298.3L70.0 298.3L70.0 298.4L70.0 298.4L70.0 298.5L70.0 298.5L70.0 298.5L70.0 298.8L70.0 298.8L70.0 298.9L70.0 298.9L70.0 299.0L70.0 299.1L70.0 299.1L70.0 299.5L70.0 299.5L70.0 300.0L70.0 300.1L70.0 300.2L70.0 300.3L70.0 300.3L70.0 300.4L70.0 300.5L70.0 300.5L70.0 300.5L70.0 300.6L70.0 300.7L70.0 300.7L70.0 300.7L70.0 300.8L70.0 300.8L70.1 300.9L70.1 300.9L70.1 301.0L70.1 301.0L70.1 301.0L70.1 301.1L70.1 301.1L70.1 301.1L70.1 301.2L70.1 301.2L70.1 301.3L70.1 301.3L70.2 301.3L70.2 301.5L70.2 301.5L70.2 301.6L70.2 301.6L70.3 301.7L70.3 301.7L70.3 301.8L70.3 301.8L70.3 301.8L70.4 301.9L70.4 301.9L70.4 302.0L70.4 302.0L70.5 302.0L70.5 302.1L70.5 302.1L70.5 302.1L70.5 302.2L70.6 302.2L70.6 302.3L70.6 302.3L70.7 302.3L70.7 302.4L70.7 302.4L70.7 302.4L70.7 302.5L70.8 302.5L70.8 302.5L70.8 302.6L70.9 302.6L71.0 302.8L71.1 302.8L71.1 302.8L71.1 302.9L71.2 303L71.3 303.0L71.3 303.0L71.3 303.0L71.4 303.1L71.4 303.1L71.4 303.1L71.5 303.1L71.5 303.1L71.5 303.2L71.6 303.2L71.6 303.2L71.6 303.2L71.7 303.3L71.7 303.3L71.7 303.3L71.8 303.3L71.8 303.3L71.8 303.3L71.9 303.4L71.9 303.4L71.9 303.4L72.0 303.4L72.0 303.4L72.0 303.4L72.1 303.5L72.1 303.5L72.1 303.5L72.2 303.5L72.2 303.5L72.2 303.5L72.4 303.6L72.4 303.6L72.5 303.6L72.5 303.6L72.7 303.6L72.7 303.6L72.8 303.7L72.8 303.7L72.9 303.7L72.9 303.7L73.0 303.7L73.0 303.7L73.1 303.7L73.1 303.7L73.2 303.7L75.5 304.4L75.6 304.4L75.6 304.4L75.6 304.4L75.7 304.5L75.7 304.5L75.8 304.5L75.9 304.5L75.9 304.6L76.0 304.6L76.0 304.6L76.0 304.6L76.1 304.6L76.1 304.6L76.2 304.6L76.2 304.6L76.3 304.7L76.3 304.7L76.4 304.7L76.5 304.7L76.5 304.7L76.5 304.7L76.6 304.7L76.6 304.7L76.6 304.7L76.7 304.7L76.8 304.7L76.8 304.7L76.8 304.7L76.9 304.7L76.9 304.7L76.9 304.7L77.2 304.7L77.3 304.7L77.3 304.7L77.3 304.7L77.4 304.7L77.5 304.7L77.5 304.7L77.6 304.7L77.6 304.7L77.6 304.7L77.7 304.7L77.7 304.7L77.8 304.7L77.8 304.7L77.9 304.6L78.0 304.6L78.0 304.6L78.0 304.6L78.2 304.5L78.2 304.5L78.3 304.5L78.3 304.5L78.3 304.5L78.4 304.5L78.4 304.5L78.5 304.4L78.5 304.4L78.5 304.4L78.6 304.4L78.6 304.4L78.6 304.3L78.7 304.3L78.7 304.3L78.7 304.3L78.9 304.2L79.0 304.1L79.0 304.1L79.0 304.1L79.1 304.1L79.1 304.1L79.1 304.0L79.1 304.0L79.2 304.0L79.2 304.0L79.2 303.9L79.3 303.9L79.3 303.9L79.4 303.8L79.4 303.7L79.5 303.7L79.5 303.7L79.5 303.7L79.5 303.6L79.6 303.6L79.6 303.5L79.7 303.5L79.7 303.5L79.7 303.4L79.7 303.4L79.8 303.4L79.8 303.3L79.8 303.3L79.8 303.3L79.9 303.2L80.0 303.1L80.0 303.0L80.0 303.0L80.0 303.0L80.0 302.9L80.0 302.9L80.1 302.9L80.1 302.8L80.1 302.8L80.1 302.8L80.1 302.7L80.1 302.7L80.2 302.7L80.2 302.6L80.2 302.6L80.2 302.6L80.2 302.5L80.4 302.1L80.4 302.0L80.4 302.0L80.5 301.9L80.5 301.9L80.5 301.9L80.6 301.6L80.6 301.6L80.6 301.6L80.6 301.5L80.6 301.5L80.6 301.5L80.6 301.4L80.6 301.3L80.6 301.2L80.7 301.2L80.7 301.2L80.7 301.1L80.7 301.1L80.7 301.1L80.7 301.0L80.7 301.0L80.7 300.9L80.7 300.8L80.7 300.8L80.7 300.6L80.7 300.5L80.7 300.5L80.7 300.4L80.7 300.4L80.7 300.4L80.7 300.3L80.7 300.3L80.7 300.3L80.7 300.2L80.7 300.2L80.7 300.1L80.6 300.1L80.6 300.0L80.6 299.9L80.6 299.9L80.6 299.9L80.6 299.8L80.4 298.4L80.4 298.1L80.4 297.2L81.0 295.2L82.3 293.4L84.1 292.1L84.1 292.1L84.2 292.1L84.2 292.1L84.2 292.0L84.3 292.0L84.3 292.0L84.4 291.9L84.4 291.9L84.5 291.9L84.5 291.8L84.6 291.8L84.6 291.8L84.6 291.8L84.6 291.8L84.7 291.7L84.7 291.7L84.8 291.6L84.8 291.6L84.9 291.5L85.0 291.5L85.0 291.4L85.0 291.4L85.1 291.4L85.2 291.2L85.3 291.1L85.3 291.1L85.3 291.1L86.0 290.3L88.1 288.9L90.6 288.3L90.6 288.3L90.7 288.3L93.1 288.7L95.1 289.9L95.1 289.9L96.0 290.8L97.0 292.8L97.3 293.6L97.3 293.7L97.3 293.7L97.3 293.8L97.3 293.8L97.3 293.8L97.4 293.9L97.4 293.9L97.4 293.9L97.4 294.0L97.4 294.0L97.4 294.1L97.4 294.1L97.5 294.2L97.5 294.2L97.5 294.3L97.5 294.3L97.6 294.4L97.6 294.4L97.6 294.5L97.6 294.5L97.6 294.5L97.6 294.6L97.7 294.6L97.7 294.6L97.7 294.6L97.8 294.8L97.8 294.9L97.8 294.9L97.9 294.9L97.9 295.0L97.9 295.0L97.9 295.0L98.0 295.0L98.0 295.1L98.1 295.2L98.1 295.2L98.1 295.2L98.1 295.2L98.3 295.4L98.3 295.4L98.3 295.4L98.4 295.5L98.4 295.5L98.5 295.5L98.5 295.6L98.5 295.6L98.5 295.6L98.6 295.6L98.6 295.7L98.6 295.7L98.7 295.7L98.7 295.7L98.7 295.7L98.9 295.8L98.9 295.9L98.9 295.9L99.0 295.9L99.0 295.9L99.0 295.9L99.1 296L99.1 296.0L99.1 296.0L99.2 296.0L99.2 296.0L99.2 296.0L99.3 296.1L99.4 296.1L101.0 297.1L102.4 298.4L102.4 298.5L102.4 298.5L102.4 298.6L102.5 298.6L102.5 298.6L102.5 298.7L102.6 298.7L102.6 298.7L102.6 298.8L102.6 298.8L102.7 298.9L102.7 298.9L102.7 298.9L102.8 299.0L102.8 299.0L102.9 299.0L103.0 299.2L103.0 299.2L103.1 299.2L103.1 299.2L103.1 299.2L103.2 299.3L103.2 299.3L104.3 300.3L105.6 299.9L105.6 299.9L106.9 299.8L106.9 299.8L108.5 300.1L109.5 300.4L110.5 301.0L110.5 301.0L112.0 302.4L112.0 302.5L112.1 302.5L113.8 301.3L113.8 301.3L116.7 300.6L117.3 300.7L118.6 300.9L120.7 301.9L122.3 303.6L123.2 305.7L123.2 305.7L123.4 307.4L125.0 307.9L125.1 307.9L125.1 307.9L125.2 307.9L125.2 308.0L125.2 308.0L125.3 308.0L125.3 308.0L125.3 308.0L125.4 308.0L125.4 308.0L125.5 308.1L125.5 308.1L125.6 308.1L125.6 308.1L125.7 308.1L125.7 308.1L125.7 308.1L125.9 308.1L125.9 308.1L125.9 308.2L126.0 308.2L126.0 308.2L126.0 308.2L126.1 308.2L126.2 308.2L126.2 308.2L126.3 308.2L126.3 308.2L126.4 308.2L128.3 308.5L130.1 309.4L130.7 310.0L131.5 314.1L131.7 320.1L130.3 323.2L128.9 324.3L128.9 324.3L128.8 324.3L128.8 324.3L128.8 324.3L128.7 324.4L128.7 324.4L128.5 324.5L128.5 324.5L128.5 324.5L128.4 324.6L128.4 324.6L128.4 324.6L128.4 324.6L128.3 324.6L128.3 324.7L128.2 324.8L128.1 324.8L128.1 324.8L128.1 324.9L128.0 324.9L128.0 324.9L128.0 325.0L128 325.0L127.9 325.0L127.9 325.1L127.8 325.1L127.8 325.2L127.8 325.2L127.7 325.2L127.7 325.3L127.7 325.3L126.3 326.7L126.3 326.7L125.0 327.4L125.0 328.9L125.0 328.9L124.1 331.2L122.4 333.1L122.4 333.1L121.1 333.8L121.1 335.1L121.1 335.1L121.1 335.2L121.1 335.3L121.1 335.3L121.1 335.3L120.8 336.5L120.5 337.1L120.5 337.2L120.4 337.2L120.4 337.3L120.4 337.3L120.4 337.3L120.4 337.4L120.4 337.4L120.4 337.4L120.3 337.5L120.3 337.5L120.3 337.6L120.3 337.6L120.3 337.7L120.3 337.7L120.2 337.8L120.2 337.8L120.2 337.9L120.2 337.9L120.2 337.9L120.2 338.0L120.2 338.0L120.2 338.1L120.2 338.1L120.2 338.1L120.1 338.2L119.6 340.1L118.6 341.6L120.4 341.4L121.5 341.6L120.1 341.9L122.7 345.9L122.6 347.7L121.6 348.4L117.3 348.1L115.3 346.9L113.5 346.6L114.0 345.2L115.0 343.8L113.2 343.9L111.2 343.6L111.2 343.5L111.1 343.5L111.1 343.5L111.1 343.5L111.0 343.5L111.0 343.5L111.0 343.5L110.9 343.5L110.9 343.5L110.8 343.4L110.8 343.4L110.7 343.4L110.7 343.4L110.6 343.4L110.6 343.4L110.5 343.4L110.5 343.4L110.5 343.4L110.4 343.4L110.3 343.4L110.3 343.4L110.3 343.4L110.2 343.4L110.2 343.4L110.2 343.3L110.0 343.3L109.6 343.3L109.0 343.5L109.0 343.5L106.5 343.6L106.5 343.6L106.5 343.6L106.4 343.6L106.4 343.6L106.4 343.6L106.2 343.5L105.8 343.6L105.7 343.6L105.7 343.6L105.6 343.6L105.6 343.6L105.6 343.6L105.5 343.6L105.5 343.6L105.5 343.6L105.4 343.6L105.4 343.6L105.4 343.7L105.3 343.7L103.5 343.8L103.0 345.6L103.0 345.6L102.4 346.7L100.9 348.2L100.1 348.6L99.1 348.7L95.9 349.4L94.7 349.2L92.7 348.1L91.2 346.5L90.3 344.4L90.1 342.8L90.5 340.7L90.5 340.7L91.6 338.7L93.3 337.1L95.4 336.3L95.5 336.3L97.3 336.2L97.8 334.4L97.8 334.3L97.8 334.3L97.9 334.2L97.9 334.2L98.9 332.4L100.4 331.1L102.2 330.2L104.2 330.0L104.2 330.0L105.4 330.1L106.5 330.3L106.6 330.3L106.9 330.3L106.9 330.3L107.5 330.2L107.5 330.2L107.9 330.3L108.3 330.1L108.4 330.1L108.4 330.1L108.4 330.1L108.7 330.0L108.7 330.0L108.7 330.0L108.8 330.0L108.8 330.0L108.8 330.0L108.9 329.9L108.9 329.9L108.9 329.9L109.0 329.9L109.0 329.9L109.1 329.8L109.1 329.8L109.1 329.8L109.2 329.8L109.2 329.8L109.2 329.8L109.3 329.7L109.4 329.7L109.4 329.6L109.4 329.6L109.5 329.6L109.5 329.6L109.5 329.6L109.6 329.5L109.6 329.5L109.7 329.4L109.7 329.4L109.8 329.3L109.8 329.3L110.4 328.8L110.4 328.8L111.7 328.1L111.8 326.4L112.5 324.5L112.5 324.5L113.8 322.8L115.5 321.7L115.6 321.6L115.6 320.2L115.6 320.2L115.7 319.7L115.8 319.6L115.8 319.4L115.8 319.4L115.8 319.4L115.8 319.3L115.8 319.3L115.8 319.2L115.8 319.2L115.9 319.1L115.9 319.0L115.9 319.0L115.9 318.9L115.9 318.8L115.9 318.8L115.9 318.8L115.9 318.7L115.9 318.6L115.9 318.6L115.9 318.6L115.8 318.5L115.8 318.1L115.8 318.1L115.9 317.1L115.9 317.0L115.9 316.9L115.9 316.9L115.9 316.9L115.9 316.8L115.9 316.8L115.9 316.7L115.9 316.6L115.9 316.5L115.9 316.4L115.9 316.4L115.9 316.4L115.9 316.3L115.9 316.3L115.9 316.2L115.9 316.1L115.9 316.0L115.9 316.0L115.9 315.9L115.9 315.9L115.8 315.8L115.8 315.7L115.7 314.0L115.6 314.0L113.5 313.3L113.5 313.3L111.8 312.0L111.3 311.3L111.1 311.5L109.5 312.6L109.5 312.6L107.8 313.1L106.0 313.2L104.3 312.8L104.2 312.8L102.3 311.7L101.8 311.0L100.4 311.5L100.3 311.5L100.3 311.5L100.3 311.5L100.2 311.5L100.2 311.5L100.1 311.5L100.1 311.5L100.0 311.6L100.0 311.6L99.9 311.6L99.9 311.6L99.8 311.6L99.8 311.6L99.7 311.7L99.6 311.7L99.6 311.7L99.6 311.7L99.5 311.7L99.5 311.7L99.5 311.7L99.4 311.8L97.4 312.3L96.8 312.4L96.8 312.4L96.0 312.4L96.0 312.4L95.9 312.4L95.9 312.4L95.8 312.4L95.8 312.4L95.7 312.4L95.6 312.4L95.6 312.4L95.5 312.4L95.5 312.4L95.5 312.4L95.4 312.4L95.3 312.4L95.3 312.4L95.2 312.4L95.2 312.4L95.2 312.4L95.1 312.4L95.1 312.4L95.0 312.4L95.0 312.4L94.9 312.5L94.8 312.5L94.8 312.5L94.7 312.5L94.7 312.5L94.6 312.5L94.6 312.6L94.6 312.6L94.5 312.6L94.5 312.6L94.5 312.6L94.4 312.6L94.4 312.6L94.3 312.7L94.3 312.7L94.3 312.7L94.2 312.7L94.2 312.7L94.2 312.7L94.1 312.8L94.1 312.8L94.0 312.9L93.9 312.9L93.9 312.9L93.8 313.0L93.8 313.0L93.7 313.0L93.7 313.0L93.7 313.0L93.7 313.1L93.6 313.1L93.6 313.1L93.5 313.2L93.5 313.2L93.5 313.2L93.5 313.2L93.4 313.3L93.4 313.3L93.3 313.4L93.3 313.4L93.3 313.4L93.2 313.5L93.2 313.5L93.1 313.6L93.1 313.6L93.1 313.6L93.1 313.7L93.0 313.7L93.0 313.8L93.0 313.8L93 313.8L92.8 314.1L92.8 314.1L92.8 314.1L92.7 314.2L92.7 314.2L92.7 314.2L92.7 314.3L92.7 314.3L92.7 314.3L92.6 314.4L92.6 314.4L92.6 314.5L92.6 314.5L92.6 314.5L92.6 314.6L92.6 314.6L92.5 314.7L92.5 314.8L92.5 314.8L92.5 314.9L92.5 314.9L92.5 314.9L92.4 315.0L92.4 315.0L92.4 315.1L92.4 315.1L92.4 315.2L92.4 315.2L92.4 315.3L92.4 315.3L92.4 315.4L92.4 315.4L92.4 315.5L91.9 317.4L91.0 319.0L89.6 320.4L87.9 321.2L86.0 321.6L86.0 321.6L82.9 321.0L82.9 321.0L82.8 321.0L82.8 321.0L82.8 321.0L82.7 320.9L82.7 320.9L82.5 320.8L82.4 320.8L82.4 320.8L82.4 320.8L82.3 320.8L82.3 320.8L82.2 320.8L82.2 320.8L82.2 320.8L82.1 320.8L82.1 320.8L82.1 320.8L82.0 320.8L82.0 320.7L81.9 320.7L81.9 320.7L81.8 320.7L81.8 320.7L81.8 320.7L81.7 320.7L81.7 320.7L81.7 320.7L81.4 320.7L81.4 320.7L81.3 320.7L81.3 320.7L81.3 320.7L81.2 320.7L81.2 320.7L81.1 320.7L81.1 320.7L81.0 320.8L81.0 320.8L81.0 320.8L80.9 320.8L80.8 320.8L80.8 320.8L80.7 320.8L80.6 320.8L80.2 320.9L80.1 320.9L80.1 321L80.0 321.0L80.0 321.0L79.9 321.0L79.9 321.0L79.9 321.0L79.8 321.0L79.6 321.1L79.6 321.1L79.5 321.1L79.5 321.1L79.5 321.1L79.4 321.2L79.4 321.2L79.4 321.2L79.3 321.2L79.3 321.2L79.2 321.3L79.2 321.3L79.2 321.3L79.1 321.3L79.0 321.4L79.0 321.4L79.0 321.4L78.9 321.5L78.9 321.5L78.8 321.5L78.8 321.5L78.8 321.6L78.7 321.6L78.7 321.6L78.7 321.6L78.6 321.7L78.6 321.7L78.6 321.7L78.5 321.7L78.5 321.8L78.5 321.8L78.5 321.8L78.4 321.8L78.4 321.9L78.4 321.9L78.3 321.9L78.3 322L78.3 322.0L78.3 322.0L78.2 322.1L78.2 322.1L78.2 322.1L78.1 322.2L78.1 322.2L78.1 322.2L78.1 322.3L78.0 322.3L78.0 322.3L78.0 322.4L77.9 322.6L77.8 322.6L77.8 322.7L77.8 322.7L77.8 322.8L76.9 323.9L77.6 325.3L77.6 325.3L77.9 327.2L77.8 327.5L77.8 327.5L77.8 328.4L76.7 331.0L76.7 331.0L75.1 332.6L73.1 333.6L70.9 333.9L68.7 333.5L66.8 332.3L66.8 332.3L66.4 331.9L65.2 330.4L64.6 328.6L64.5 328.4L64.5 326.2L65.6 326.0L71.8 326.2L65.2 324.6L65.2 324.1L66 323.0L65.3 321.7L65.3 321.7L65.3 321.6L65.3 321.5L65.3 321.5L65.2 321.4L65.2 321.4L65.2 321.4L65.2 321.3L65.2 321.3L65.1 321.2L65.1 321.2L65.1 321.1L65.1 321.1L65.1 321.1L65.0 321.0L65.0 321.0L65.0 321.0L65.0 320.9L65.0 320.9L65 320.9L64.9 320.8L64.9 320.8L64.9 320.7L64.8 320.7L64.8 320.7L64.8 320.7L64.8 320.6L64.8 320.6L64.7 320.6L64.6 320.5L64.6 320.4L64.6 320.4L64.5 320.3L64.5 320.3L64.5 320.3L64.5 320.3L64.4 320.2L64.4 320.2L64.4 320.2L64.3 320.1L64.2 320.1L64.2 320.0L64.2 320.0L64.1 320.0L64.1 320.0L64.1 319.9L64.0 319.9L64.0 319.9L64.0 319.9L64 319.9L63.9 319.8L63.8 319.8L63.8 319.8L63.8 319.7L63.7 319.7L63.7 319.7L63.7 319.7L63.6 319.7L63.6 319.7L63.6 319.6L63.5 319.6L63.5 319.6L63.5 319.6L63.4 319.6L63.4 319.6L63.3 319.5L63.3 319.5L63.2 319.5L61.5 318.5L60.1 317.1L59.2 315.4L58.8 313.4L58.8 312.8L58.8 312.8L58.8 312.7L58.9 312.6L58.9 312.5L58.9 312.5L58.9 312.5L58.9 312.2L58.9 312.2L58.9 312.1L58.9 312.1L58.9 312.1L58.8 312.0L58.8 312L58.8 311.9L58.8 311.9L58.8 311.8L58.8 311.8L58.8 311.8L58.8 311.7L58.8 311.7L58.8 311.7L58.8 311.6L58.8 311.5L58.8 311.5L58.7 311.4L58.7 311.4L58.6 311.1L58.6 311.1L58.6 311.1L58.6 311.0L58.6 310.9L58.5 310.9L58.5 310.9L58.5 310.8L58.5 310.8L58.5 310.8L58.4 310.7L58.4 310.7L58.3 310.4L58.3 310.4L58.2 310.4L58.2 310.3L58.2 310.3L58.2 310.3L58.2 310.3L58.1 310.2L58.1 310.2L58.1 310.2L58.1 310.1L58.0 310.1L58.0 310.1L57.9 310.0L57.9 310.0L57.8 309.9L57.8 309.9L57.8 309.8L57.7 309.8L57.7 309.8L57.6 309.7L57.6 309.7L57.6 309.7L57.5 309.6L59.0 307.8L59.8 307.4L61.9 307.7L66.6 307.1L67.4 305.5L66.3 304.9L66.5 303.5L65.9 303.2L54.2 303.3L53.1 301.9L52.1 302.1L53.2 298.0L52.2 298.6L51.4 297.9L48.7 299.8L46.9 299.6L46.4 298.1L48.0 296.4L47.1 295.4L44.4 296.4L40.7 294.6L42.5 293.5L43.0 292.6L41.3 291.1L41.1 289.7L42.7 289.3L44.4 289.6L44.5 288.4L45.0 288.2L48.0 288.2L50.7 289.0L48.4 287.9L47.3 286.5L47.1 284.8L48.0 283.0L49.7 282.4L54.8 282.0L54.2 280.9L55.2 279.3L54.8 278.7L51.8 278.0L48.4 278.4L47.6 277.0L46.7 277.9L44.6 274.8L41.7 273.7L42.9 272.8L46.5 272.7L47.3 273.4L48.0 275.1L50.6 276.2L49.2 272.5L50.1 269.9L48.5 270.7L47.8 270.3L48.5 268.7L48.2 266.2L49.1 265.5 Z M 45.0 267.6L45.0 267.6L45.0 267.6L45.2 267.6L45.4 267.6L45.4 267.6L45.4 267.6L45.5 267.6L45.5 267.6L45.5 267.6L45.6 267.5L45.6 267.5L45.7 267.5L45.7 267.5L45.8 267.5L45.8 267.5L45.8 267.5L45.9 267.5L45.9 267.5L45.9 267.5L46.0 267.5L46.0 267.5L45.0 269.2L44.6 269.1 Z M 82.1 253.6L82.0 253.6L80.8 253.6L79.4 253.4L78.8 253.2L77.1 252.2L76.0 250.9L75.8 250.5L77.1 248.9L78.7 248.0L82.5 248.3L82.2 247.8L83.0 247.8L81.9 246.1L82.3 245.6L86.6 245.4L85.7 245.0L85.7 243.9L84.1 242.5L84.7 241.6L84.7 241.2L85.0 241.4L85.9 241.1L86.0 241.1L87.9 240.4L89.2 240.1L89.1 239.9L88.9 237.9L88.9 237.7L89.5 235.3L89.8 234.7L91.1 234.9L94.6 232.8L97.0 235.3L97.6 232.8L98.3 232.1L100.7 236.4L100.6 233.8L99.5 233.5L99.3 232.6L99.4 232.6L101.0 234.0L102.1 236.2L102.3 237.8L102.3 238.1L101.9 240.4L100.7 242.5L98.8 243.9L98.8 244L96.9 244.6L96.8 244.6L97.1 246.8L97.1 247.0L97.1 247.1L97.1 247.1L97.1 247.1L97.1 247.2L97.1 247.3L97.1 247.3L97.1 247.4L97.1 247.4L97.1 247.4L97.1 247.5L97.1 247.6L97.1 247.6L97.1 247.7L97.1 247.7L97.2 247.8L97.2 247.8L97.2 247.8L97.2 247.9L97.2 247.9L97.2 247.9L97.2 248.0L97.3 248.1L97.3 248.1L97.3 248.1L97.3 248.2L97.3 248.2L97.3 248.2L97.3 248.3L97.4 248.3L97.4 248.4L97.4 248.4L97.4 248.5L97.5 248.5L97.6 248.8L97.8 249.0L97.9 249.1L97.9 249.1L97.9 249.2L97.9 249.2L98.0 249.3L98.0 249.3L98.1 249.3L98.1 249.3L98.1 249.4L98.1 249.4L98.2 249.4L98.2 249.4L98.2 249.5L98.2 249.5L98.3 249.5L98.3 249.5L98.4 249.6L99.6 250.8L100.4 252.3L100.9 254.5L100.9 254.5L100.8 255.7L100.6 257.7L100.6 257.9L100.4 259.8L99.7 261.5L99.7 261.5L98.6 262.9L96.8 264.2L94.6 264.8L93.9 264.9L92.8 264.8L92.8 264.8L90.9 264.2L89.2 263.0L87.9 261.3L87.2 259.3L87.2 259.3L87.1 258.1L87.1 258.1L87.2 258.0L87.1 257.9L87.1 257.8L87.1 257.8L87.1 257.7L89.3 253.9L86.8 254.1L85.6 253.7L84.7 254.2L84.7 254.2L84.5 254.0L84.4 254.0L84.4 254.0L84.3 253.9L84.3 253.9L84.3 253.9L84.2 253.9L84.2 253.9L83.3 253.3L82.2 253.6 Z M 58.0 362.8L57.7 364.9L56.7 366.6L53.9 368.6L51.3 369.0L50.2 368.4L49.3 366.4L43.8 367.4L41.9 368.6L40.7 368.6L40.5 367.9L41.0 367.1L46.4 363.8L41.1 365.2L40.7 364.9L48.7 361.1L49.2 360.4L49.1 359.7L47.8 359.2L45.4 360.5L39.9 361.3L36.1 362.8L33.4 362.3L35.1 360.3L37.1 359.3L38.0 358.1L41.2 356.9L43.3 355.3L46.9 353.8L34.6 356.8L32.9 355.7L32.5 353.7L29.7 354.3L28.5 351.0L29.6 350.0L30.3 350.2L30.6 350.9L31.6 350.5L32.7 349.2L31.6 348.6L32.7 347.7L38.1 346.1L41.1 344.0L43.5 343.7L43.7 343.0L42.3 342.6L39.5 343.3L32.3 342.7L28.9 343.0L28.1 342.0L28.7 340.2L30.1 339.8L32.0 338.1L34.5 337.2L36.3 338.5L38.7 337.0L39.8 338.8L41.0 339.4L44.6 339.1L42.7 337.6L43.1 334.8L42.7 334.2L42.7 334.2L42.9 334.1L42.9 334.1L43.0 334.0L43.0 334.0L43.0 334.0L43.1 334.0L43.1 333.9L43.1 333.9L43.2 333.9L43.3 333.8L43.3 333.8L43.3 333.7L43.4 333.7L43.4 333.7L43.4 333.7L43.4 333.6L43.5 333.6L43.5 333.6L43.5 333.6L43.6 333.5L43.6 333.4L43.6 333.4L43.7 333.4L43.7 333.4L43.7 333.3L43.7 333.3L43.7 333.3L43.8 333.2L43.8 333.2L43.8 333.1L43.9 333.0L43.9 333.0L44.0 332.9L44.0 332.9L44.0 332.9L44.0 332.8L44.1 332.8L44.1 332.7L44.5 331.9L47.6 331.0L47.9 329.3L50.2 328.8L51.8 329.0L51.8 329.0L51.9 329.1L51.9 329.1L52.0 329.1L52.0 329.1L52.1 329.1L52.1 329.1L52.1 329.1L52.2 329.1L52.2 329.1L52.3 329.1L52.3 329.1L52.4 329.1L52.4 329.1L52.4 329.2L52.5 329.2L52.5 329.2L52.5 329.2L52.8 329.2L52.8 329.2L52.8 329.2L52.9 329.2L52.9 329.2L53.0 329.1L53.3 329.1L53.6 329.1L55.4 329.4L57.0 330.1L58.3 331.1L59.4 332.5L60.0 334.2L60.2 335.8L60.2 335.9L60.2 335.9L60.2 336.0L60.2 336.0L60.2 336.1L60.2 336.1L60.2 336.2L60.3 336.2L60.3 336.3L60.3 336.3L60.3 336.4L60.3 336.4L60.3 336.4L60.3 336.5L60.3 336.5L60.3 336.6L60.3 336.6L60.3 336.6L60.3 336.7L60.3 336.7L60.3 336.7L60.4 336.8L60.4 336.8L60.4 336.9L60.4 336.9L60.5 337.0L60.5 337.1L60.5 337.1L60.5 337.1L60.5 337.2L60.5 337.3L60.6 337.3L60.6 337.3L60.6 337.4L60.6 337.4L60.6 337.4L60.6 337.5L60.6 337.5L60.7 337.5L60.7 337.5L60.8 337.7L60.8 337.8L60.8 337.8L60.9 337.8L60.9 337.9L60.9 337.9L60.9 337.9L61.0 337.9L61.0 338.0L61.0 338.0L61.0 338.0L61.0 338.1L61.1 338.1L61.1 338.2L61.2 338.2L61.6 338.7L61.6 338.7L61.6 338.7L61.7 338.8L61.7 338.8L61.7 338.8L61.7 338.9L61.8 338.9L61.8 338.9L61.8 339.0L61.9 339.0L61.9 339.1L62.0 339.1L62.1 339.2L62.1 339.2L62.2 339.3L62.2 339.3L62.2 339.3L62.2 339.3L62.3 339.3L62.3 339.4L62.3 339.4L62.4 339.4L62.4 339.4L62.6 339.5L62.6 339.5L62.6 339.6L62.6 339.6L62.7 339.6L62.7 339.6L62.8 339.6L62.8 339.7L62.9 339.7L62.9 339.7L63.0 339.7L63.0 339.7L63.0 339.7L63.1 339.8L63.1 339.8L64.1 340.3L65.1 339.8L65.2 339.8L65.3 339.8L65.4 339.8L65.4 339.8L65.5 339.7L65.5 339.7L65.5 339.7L65.6 339.7L65.6 339.7L65.7 339.6L65.7 339.6L65.7 339.6L65.8 339.6L65.8 339.6L65.8 339.6L65.9 339.6L65.9 339.5L66.0 339.5L66.0 339.5L66.0 339.5L66.1 339.4L66.1 339.4L66.1 339.4L66.2 339.4L66.2 339.3L66.2 339.3L66.3 339.3L66.3 339.3L66.3 339.2L66.4 339.2L66.4 339.2L66.5 339.1L66.5 339.1L66.5 339.1L66.7 338.9L66.7 338.9L66.7 338.9L66.8 338.8L66.8 338.8L66.8 338.8L66.8 338.7L66.9 338.7L66.9 338.7L66.9 338.6L67.0 338.6L67.0 338.6L67.0 338.5L67.2 338.3L67.3 338.1L67.3 338.0L67.8 337.1L67.8 337.1L69.3 335.5L71.2 334.5L73.4 334.2L75.5 334.5L77.4 335.5L77.5 335.6L79.1 337.4L80.0 339.7L80.0 339.7L80.1 340.6L80.1 340.6L79.8 342.8L78.9 344.7L78.9 344.7L78.7 344.9L78.6 345.2L78.6 345.2L78.6 345.3L78.6 345.3L78.6 345.3L78.5 345.4L78.5 345.4L78.5 345.5L78.5 345.5L78.4 345.6L78.4 345.7L78.4 345.7L78.4 345.8L78.4 345.8L78.4 345.8L78.4 345.9L78.4 346.0L78.3 346.0L78.3 346.1L78.3 346.1L78.3 346.2L78.3 346.2L78.3 346.2L78.3 346.3L78.3 346.3L78.3 346.4L78.3 346.4L78.3 346.5L78.3 346.5L78.3 346.6L78.3 346.7L78.3 346.7L78.3 346.8L78.3 346.9L78.3 346.9L78.3 347.0L78.3 347.0L78.3 347.0L78.3 347.1L78.3 347.1L78.3 347.2L78.3 347.2L78.3 347.2L78.3 347.3L78.4 347.3L78.4 347.4L78.4 347.4L78.4 347.5L78.4 347.5L78.4 347.6L78.4 347.6L78.5 347.8L78.5 347.8L78.5 347.9L78.5 347.9L78.6 347.9L78.6 348.0L78.6 348.0L78.6 348.1L79.3 350.6L79.3 350.6L79.3 350.9L79.3 351L79.0 352.4L80.2 353.3L80.2 353.3L81.5 355.1L82.0 357.3L82.0 357.3L82.1 357.7L82.1 357.9L81.8 359.4L81.7 359.5L78.5 359.5L78.1 358.9L78.6 357.6L76.9 357.1L76.6 355.6L74.7 355.6L76.6 359.0L75.9 361.5L72.8 363.0L70.6 362.5L70.0 362.0L69.1 360.5L68.7 358.9L68.6 357.9L68.6 357.9L68.8 356.5L67.7 355.6L67.7 355.6L66.7 354.2L66.6 354.1L66.6 354.1L66.5 354.0L66.5 354L66.4 353.9L66.4 353.8L66.4 353.8L66.4 353.8L66.4 353.7L66.3 353.7L66.3 353.7L66.2 353.5L66.2 353.5L66.1 353.5L66.1 353.5L66.1 353.4L66.1 353.4L66.0 353.4L66.0 353.3L65.8 353.2L65.8 353.2L65.7 353.1L65.7 353.1L65.7 353.1L65.7 353.1L65.6 353.0L65.6 353.0L65.6 353.0L65.5 353.0L65.5 353L65.5 352.9L65.4 352.9L65.4 352.9L65.3 352.9L65.3 352.8L65.3 352.8L65.3 352.8L65.2 352.8L65.2 352.8L65.1 352.7L65.1 352.7L65.0 352.7L65.0 352.7L65 352.7L64.9 352.6L64.9 352.6L64.9 352.6L64.8 352.6L63.8 352.1L62.8 352.5L62.7 352.6L62.6 352.6L62.5 352.6L62.5 352.6L62.5 352.6L62.4 352.7L62.4 352.7L62.4 352.7L62.3 352.7L62.3 352.7L62.3 352.7L62.2 352.8L62.2 352.8L62.2 352.8L62.1 352.8L62.1 352.8L62.1 352.8L62.0 352.9L62.0 352.9L61.8 353.0L61.8 353.0L61.8 353.0L61.7 353.0L61.7 353.1L61.7 353.1L61.6 353.1L61.6 353.1L61.6 353.2L61.5 353.2L61.5 353.2L61.5 353.3L61.4 353.3L61.4 353.3L61.4 353.4L61.3 353.4L61.3 353.4L61.3 353.4L61.3 353.5L61.2 353.5L61.2 353.5L61.1 353.6L61.1 353.7L61.0 353.7L59.8 354.9L59.7 355.0L59.7 355.0L59.7 355.0L59.6 355.1L59.5 355.1L59.5 355.2L59.5 355.2L59.4 355.3L59.3 355.3L59.3 355.4L59.3 355.4L59.2 355.4L59.2 355.5L59.1 355.6L59.1 355.6L59.1 355.6L59.1 355.7L59.0 355.7L59.0 355.7L58.9 355.9L58.9 355.9L58.9 355.9L58.9 356L58.9 356.0L58.8 356.0L58.8 356.0L58.8 356.1L58.8 356.1L58.8 356.2L58.7 356.2L58.7 356.2L58.7 356.3L58.7 356.3L58.7 356.3L58.7 356.4L58.7 356.4L58.6 356.5L58.6 356.5L58.6 356.6L58.6 356.6L58.6 356.7L58.6 356.7L58.6 356.7L58.5 356.8L58.5 356.8L58.5 356.9L58.5 356.9L58.5 357.0L58.5 357.0L58.5 357.0L58.5 357.1L58.5 357.2L58.4 357.6L58.3 357.7L58.3 357.9L58.3 357.9L58.3 357.9L58.3 358.0L58.3 358.0L58.3 358.1L58.3 358.1L58.3 358.2L58.3 358.3L58.3 358.3L58.3 358.6L58.3 358.7L58.3 358.7L58.3 358.7L58.3 358.8L58.3 359.3L58.3 359.3L58.1 361.0L58.1 361.0L58.0 361.2L58.0 361.2L58.0 361.2L58.0 361.3L58.0 361.3L58.0 361.3L58.0 361.4L58.0 361.4L58.0 361.5L58.0 361.6L58.0 361.6L58.0 361.6L58.0 361.7L58.0 361.7L58.0 361.7L58.0 362.0L58.0 362.0L58.0 362.1L58.0 362.1L58.0 362.2L58.0 362.8 Z M 58.0 362.8 "/>
<path style=" stroke:none;fill-rule:nonzero;fill:rgb(77.6%,78.8%,62.3%);fill-opacity:1;" d="M 51.2 301.9L50.9 303.0L50.0 302.6L50.6 300.3L51.2 300.5 Z M 51.2 301.9 "/>
<path style=" stroke:none;fill-rule:nonzero;fill:rgb(77.6%,78.8%,62.3%);fill-opacity:1;" d="M 49.8 306.5L51.0 307.5L49.5 307.5L47.4 305.9 Z M 49.8 306.5 "/>
<path style=" stroke:none;fill-rule:nonzero;fill:rgb(77.6%,78.8%,62.3%);fill-opacity:1;" d="M 40.8 362.3L39.3 362.6L38.8 362.1L39.3 361.7L41.0 361.9 Z M 40.8 362.3 "/>
<path style=" stroke:none;fill-rule:nonzero;fill:rgb(77.6%,78.8%,62.3%);fill-opacity:1;" d="M 40.8 287.2L40.3 287.5L39.5 286.8L40.6 286.7 Z M 40.8 287.2 "/>
<path style=" stroke:none;fill-rule:nonzero;fill:rgb(77.6%,78.8%,62.3%);fill-opacity:1;" d="M 46.7 280.8L44.7 281.0L46.1 280.3 Z M 46.7 280.8 "/>
<path style=" stroke:none;fill-rule:nonzero;fill:rgb(77.6%,78.8%,62.3%);fill-opacity:1;" d="M 32.8 362.1L31.2 362.8L31.8 362.2 Z M 32.8 362.1 "/>
<path style=" stroke:none;fill-rule:nonzero;fill:rgb(77.6%,78.8%,62.3%);fill-opacity:1;" d="M 48.3 369.8L47.7 370.4L47.0 370.3 Z M 48.3 369.8 "/>
<path style=" stroke:none;fill-rule:nonzero;fill:rgb(77.6%,78.8%,62.3%);fill-opacity:1;" d="M 43.0 283.9L43.0 284.5L42.3 284.5 Z M 43.0 283.9 "/>
<path style=" stroke:none;fill-rule:nonzero;fill:rgb(77.6%,78.8%,62.3%);fill-opacity:1;" d="M 26.1 343.3L26.1 343.3L26.1 343.3L26.1 343.2L26.1 343.2L26.1 343.1L26.1 343.1L26.3 342.9L27.0 342.9 Z M 26.1 343.3 "/>
<path style=" stroke:none;fill-rule:nonzero;fill:rgb(77.6%,78.8%,62.3%);fill-opacity:1;" d="M 52.2 308.6L51.8 308.6L52.0 308.2 Z M 52.2 308.6 "/>
















</g>
</svg>
