<?xml version="1.0" encoding="UTF-8"?>
<svg xmlns="http://www.w3.org/2000/svg" xmlns:xlink="http://www.w3.org/1999/xlink" width="378pt" height="504pt" viewBox="0 0 378 504" version="1.1">
<g id="data">
<rect x="0" y="0" width="378" height="504" style="fill:rgb(100%,100%,100%);fill-opacity:1;stroke:none;"/>
<path style=" stroke:none;fill-rule:nonzero;fill:rgb(100%,100%,100%);fill-opacity:1;" d="M 21 504L357 504L357 0L21 0 Z M 21 504 "/>
<path style=" stroke:none;fill-rule:nonzero;fill:#C2B855;fill-opacity:1;" d="M 192.6 250.6L193.0 250.7L194.1 251.3L194.0 250.0L194.2 248.8L194.9 248.2L198.8 248.4L200.5 248.0L200.6 247.1L195.1 246.6L195.3 246.3L196.7 244.9L198.4 244.0L200.3 243.6L200.3 243.6L202.6 243.8L204.7 244.8L206.4 246.7L207.3 249.0L207.4 250.4L207.1 252.5L206.1 254.3L204.6 255.7L202.8 256.7L200.7 257.0L200.7 257.0L200.2 257.0L200.2 257.0L198.2 256.5L197.2 255.9L197.4 257.1L197.0 259.2L197.0 259.2L197.0 259.2L197.0 259.2L196.4 260.4L197.0 261.5L197.0 261.5L197.2 262.4L197.3 263.2L197.3 263.2L197.3 263.3L197.4 263.5L197.4 263.5L197.4 263.6L197.4 263.6L197.4 263.8L197.4 263.8L197.4 263.8L197.5 263.9L197.5 264.0L197.5 264.0L197.5 264.0L197.5 264.1L197.6 264.2L197.6 264.2L197.6 264.2L197.6 264.3L197.6 264.3L197.6 264.3L197.7 264.4L197.7 264.4L197.7 264.5L197.7 264.5L197.7 264.6L197.8 264.6L197.8 264.6L197.8 264.7L197.9 264.8L197.9 264.8L197.9 264.8L197.9 264.9L198.0 264.9L198.0 265.0L198.0 265.0L198.1 265.1L198.1 265.1L198.2 265.2L198.2 265.2L198.2 265.2L198.2 265.3L198.3 265.3L198.4 265.4L198.4 265.4L198.4 265.4L198.5 265.5L198.5 265.5L198.6 265.6L198.6 265.6L198.6 265.6L198.7 265.6L198.7 265.6L198.7 265.7L198.8 265.7L198.8 265.7L198.8 265.7L198.8 265.8L199.0 265.8L199.0 265.8L199.0 265.9L199.1 265.9L199.1 265.9L199.1 265.9L199.2 265.9L199.2 266L199.2 266.0L199.3 266.0L199.3 266.0L199.4 266.1L199.5 266.1L199.5 266.1L199.5 266.1L199.7 266.2L199.7 266.2L199.8 266.2L199.8 266.2L199.9 266.2L200.0 266.2L200.0 266.2L200.1 266.2L200.1 266.3L200.1 266.3L200.2 266.3L200.2 266.3L200.3 266.3L200.3 266.3L200.4 266.3L200.4 266.3L200.5 266.3L200.5 266.3L200.6 266.3L200.8 266.3L200.8 266.3L200.9 266.3L200.9 266.3L201.0 266.3L201.0 266.3L201.1 266.3L201.1 266.3L201.1 266.3L201.2 266.3L201.2 266.3L201.3 266.3L201.3 266.2L201.3 266.2L201.4 266.2L201.5 266.2L201.5 266.2L201.6 266.2L201.6 266.2L201.9 266.1L201.9 266.1L201.9 266.1L202.0 266.0L202.0 266.0L202.1 266.0L202.1 266.0L202.1 266.0L202.2 266.0L202.2 265.9L202.2 265.9L202.3 265.9L202.3 265.9L202.3 265.9L202.4 265.8L202.4 265.8L202.6 265.7L202.6 265.7L202.6 265.7L202.7 265.6L202.7 265.6L202.8 265.6L202.8 265.5L202.8 265.5L202.9 265.5L203.0 265.4L205.0 264.1L207.4 263.7L207.4 263.7L208.5 263.8L208.6 263.8L208.7 263.8L208.7 263.8L208.7 263.8L208.8 263.8L208.8 263.8L208.9 263.8L208.9 263.8L208.9 263.8L209.0 263.8L209.2 263.8L209.3 263.8L209.3 263.8L209.3 263.8L209.4 263.8L209.4 263.8L209.5 263.8L209.6 263.8L209.6 263.8L209.7 263.8L211.8 263.8L211.8 263.8L213.8 264.4L215.5 265.6L216.7 267.3L217.4 269.3L217.5 270.6L217.5 270.8L217.5 270.8L217.5 270.9L217.5 271.1L217.5 271.2L217.5 271.2L217.5 271.3L217.5 271.3L217.5 271.3L217.5 271.4L217.5 271.4L217.5 271.5L217.5 271.5L217.5 271.5L217.5 271.6L217.6 271.6L217.6 271.7L217.6 271.7L217.6 271.7L217.6 271.8L217.6 271.8L217.6 271.9L217.6 271.9L217.6 271.9L217.6 272.0L217.7 272.2L217.7 272.2L217.7 272.2L217.7 272.3L217.8 272.3L217.8 272.4L217.8 272.4L217.8 272.4L217.8 272.5L217.8 272.5L217.9 272.6L217.9 272.6L217.9 272.6L217.9 272.7L218.0 272.7L218.0 272.7L218.0 272.8L218.0 272.8L218.1 272.8L218.1 272.9L218.1 272.9L218.1 273.0L218.2 273.0L218.2 273.0L218.2 273.1L218.2 273.1L218.2 273.1L218.3 273.2L218.3 273.2L218.4 273.3L218.4 273.3L218.4 273.3L218.6 273.5L218.7 273.5L218.7 273.6L218.7 273.6L218.8 273.6L218.8 273.7L218.8 273.7L218.9 273.7L218.9 273.7L218.9 273.7L219.0 273.8L219.0 273.8L219.2 273.9L219.2 273.9L219.3 274.0L219.3 274.0L219.3 274.0L219.4 274.0L219.4 274.0L219.4 274.0L219.5 274.1L219.5 274.1L219.5 274.1L219.6 274.1L219.6 274.1L219.6 274.1L219.7 274.1L219.8 274.2L220 274.2L220.0 274.3L220.1 274.3L220.1 274.3L220.2 274.3L220.3 274.4L220.3 274.4L220.3 274.4L220.4 274.4L220.4 274.4L220.5 274.4L220.5 274.4L220.6 274.4L220.6 274.4L220.7 274.5L220.7 274.5L220.8 274.5L220.8 274.5L220.8 274.5L220.9 274.5L220.9 274.5L221.0 274.5L221.0 274.5L221.0 274.5L221.1 274.5L221.1 274.5L221.3 274.5L221.4 274.5L221.4 274.5L221.4 274.5L221.5 274.5L221.5 274.5L221.6 274.5L221.6 274.5L221.6 274.5L221.7 274.5L221.7 274.5L221.7 274.5L221.8 274.5L221.8 274.4L221.9 274.4L221.9 274.4L222.0 274.4L222.1 274.4L222.1 274.4L222.2 274.3L222.2 274.3L222.3 274.3L222.3 274.3L222.4 274.3L222.4 274.3L222.4 274.3L222.5 274.3L222.5 274.3L222.5 274.2L222.6 274.2L222.7 274.2L222.7 274.2L222.7 274.1L222.8 274.1L222.8 274.1L222.8 274.1L222.9 274.1L222.9 274.1L223.1 273.9L223.1 273.9L223.2 273.9L223.2 273.9L223.2 273.8L223.3 273.8L223.3 273.8L223.3 273.8L223.4 273.7L223.4 273.7L223.4 273.7L223.5 273.6L223.5 273.6L223.5 273.6L223.7 273.4L223.7 273.4L223.8 273.4L223.8 273.3L223.8 273.3L223.8 273.2L223.9 273.2L223.9 273.2L223.9 273.1L223.9 273.1L224.0 273.1L224.0 273.1L224.0 273.0L224.0 273.0L224.1 272.9L224.1 272.9L224.1 272.8L224.1 272.8L224.2 272.8L224.2 272.7L224.2 272.7L224.2 272.7L224.2 272.6L224.2 272.6L224.3 272.6L224.3 272.5L224.3 272.5L224.3 272.4L224.3 272.4L224.3 272.4L224.4 272.3L224.4 272.3L224.4 272.3L224.4 272.2L224.4 272.2L224.4 272.1L224.4 272.1L224.5 272.1L224.5 272.0L225.2 270.3L226.3 268.9L226.4 268.9L226.5 268.7L226.6 268.7L226.6 268.6L226.6 268.6L226.6 268.6L226.7 268.5L226.7 268.5L226.7 268.5L226.8 268.4L226.8 268.4L226.8 268.4L226.8 268.4L226.8 268.3L227.0 268.1L227.0 268.1L227.0 268.0L227.0 268.0L227.0 268.0L227.1 267.9L227.1 267.9L227.1 267.8L227.1 267.8L227.1 267.8L227.2 267.7L227.2 267.7L227.2 267.7L227.2 267.6L227.3 267.4L227.3 267.3L227.3 267.3L227.3 267.2L227.3 267.1L227.3 267.1L227.4 267.0L227.4 267.0L227.4 266.9L227.4 266.9L227.4 266.8L227.4 266.8L227.4 266.8L227.4 266.7L227.4 266.7L227.4 266.7L227.4 266.6L227.4 266.6L227.4 266.3L227.4 266.3L227.4 266.2L227.4 266.2L227.4 266.1L227.4 266.1L227.4 266.1L227.4 266.0L227.4 266.0L227.4 266.0L227.4 265.9L227.4 265.9L227.4 265.8L227.4 265.8L227.3 265.7L227.3 265.7L227.3 265.7L227.3 265.6L227.3 265.6L227.3 265.6L227.3 265.5L227.3 265.5L227.2 265.3L227.2 265.2L227.2 265.2L227.2 265.2L227.2 265.1L227.1 265.0L227.1 265.0L227.1 265.0L227.1 264.9L227.0 264.9L227.0 264.9L227.0 264.8L227.0 264.8L227.0 264.8L226.9 264.7L226.9 264.7L226.9 264.6L226.8 264.6L226.8 264.5L226.8 264.5L226.8 264.4L226.7 264.4L226.7 264.3L226.7 264.3L226.6 264.3L226.5 264.2L226.5 264.1L226.5 264.1L226.4 264.1L226.4 264.0L226.4 264.0L226.4 264.0L226.3 264.0L226.3 263.9L226.2 263.9L226.2 263.8L226.1 263.8L226.1 263.7L226.0 263.7L226.0 263.7L226.0 263.7L225.9 263.6L225.9 263.6L225.8 263.5L225.7 263.5L225.7 263.5L225.6 263.5L225.6 263.5L225.6 263.4L225.5 263.4L225.5 263.4L225.4 263.4L225.4 263.4L225.3 263.3L225.3 263.3L225.3 263.3L225.2 263.3L223.6 262.4L221.9 260.5L221.0 258.2L221.0 258.2L220.9 257.6L220.9 257.5L220.9 257.5L221.0 255.5L221.8 253.7L221.8 253.6L221.8 253.6L221.8 253.5L221.8 253.5L221.9 253.5L221.9 253.4L221.9 253.4L221.9 253.4L221.9 253.3L221.9 253.3L222.0 253.2L222.0 253.2L222.0 253.2L222.0 253.1L222.0 253.1L222.1 253.0L222.1 253.0L222.1 252.9L222.1 252.9L222.1 252.8L222.1 252.8L222.1 252.7L222.1 252.7L222.1 252.7L222.2 252.6L222.2 252.6L222.2 252.5L222.2 252.4L222.2 252.4L222.2 252.4L222.2 252.3L222.2 252.3L222.2 252.3L222.2 252.2L222.2 252.2L222.2 252.2L222.2 252.1L222.2 252.0L222.2 252.0L222.2 251.9L222.2 251.9L222.2 251.8L222.2 251.7L222.2 251.7L222.2 251.6L222.2 251.6L222.2 251.5L222.2 251.5L222.2 251.5L222.2 251.4L222.2 251.4L222.2 251.3L222.2 251.3L222.1 251.2L222.1 251.2L222.1 251.2L222.1 251.1L222.1 251.1L222.1 251.1L222.1 251.0L222.1 251.0L222.1 250.9L222.1 250.9L222.0 250.8L222.0 250.8L222.0 250.8L222.0 250.7L222.0 250.7L222.0 250.7L222 250.6L221.9 250.6L221.9 250.5L221.9 250.5L221.9 250.5L221.9 250.4L221.8 250.4L221.8 250.4L221.8 250.3L221.8 250.3L221.8 250.2L221.0 248.3L220.9 246.3L220.9 246.3L221.6 243.9L223.1 241.9L223.2 241.9L223.2 241.8L223.2 241.8L223.3 241.8L223.3 241.7L223.3 241.7L223.3 241.7L223.4 241.6L223.4 241.6L223.4 241.6L223.5 241.5L223.5 241.5L223.5 241.5L223.5 241.5L223.6 241.4L223.6 241.4L223.6 241.4L223.6 241.3L223.6 241.3L223.7 241.2L223.7 241.2L223.8 241.1L223.8 241.1L223.8 241.1L223.8 241.0L223.8 241.0L223.9 241.0L223.9 240.9L223.9 240.9L223.9 240.8L224.0 240.8L224.0 240.7L224.0 240.7L224.0 240.6L224.0 240.6L224.1 240.5L224.1 240.5L224.1 240.5L224.1 240.4L224.1 240.4L224.1 240.4L224.1 240.3L224.1 240.3L224.2 240.2L224.2 240.0L224.2 240.0L224.2 239.9L224.2 239.9L224.2 239.9L224.2 239.8L224.2 239.7L224.2 239.7L224.3 239.6L224.4 238.6L224.7 237.6L226.1 235.5L228.1 234.1L230.5 233.5L231.7 233.5L231.7 233.5L231.8 233.5L233.0 240.5L235.9 247.0L237.8 254.9L240.7 259.1L253.8 265.3L258.0 273.6L260.7 276.5L264.9 278.8L262.7 280.0L261.9 282.5L264.0 288.1L270.2 296.8L269.7 299.1L269.5 297.1L267.7 296.3L265.1 297.0L260.9 293.0L254.8 294.2L252.9 293.4L251.0 294.5L255.4 295.0L260.3 293.8L262.4 296.8L270.5 302.5L272.5 305.2L275.1 311.3L275.3 316.5L267.8 324.8L269.7 324.4L273.3 327.7L276.1 328.3L280.0 321.2L287.5 320.8L296.7 321.9L305.5 327.6L307.8 332.9L307.9 341.4L305.0 353.4L299.5 359.2L298.1 357.0L295.4 355.8L298.8 361.1L297.2 363.8L293.3 365.4L291.7 363.4L285.2 367.6L286.6 368.6L290.6 366.7L291.2 371.6L287.6 374.8L284.3 374.5L280.1 375.9L278.2 377.9L281.7 376.4L285.5 376.9L286.1 378.1L284.2 378.1L282.4 379.3L282.9 380.0L290.6 381.6L301.7 379.3L302.8 381.4L302.2 388.1L294.3 392.3L292.8 394.4L292.8 396.8L288.2 396.8L285.5 399.4L278.2 401.9L275.7 404.6L263.9 401.7L254.0 403.6L251.1 405.7L248.4 404.0L249.5 402.9L248.0 401.5L242.6 401.4L243.5 402.8L242.8 403.9L238.4 403.4L232.2 405.9L224.1 406.4L221.6 405.6L220.7 407.1L223.7 408.1L223.6 410.7L221.2 411.1L213.2 409.0L211.5 410.6L212.2 412.7L206.9 407.8L200.7 405.5L193.0 407.6L188.4 410.1L183.0 423.9L181.4 424.8L179.1 424.4L176.0 420.7L173.5 421.3L170.6 418.1L165.7 418.5L163.2 419.9L156.5 420.2L154.1 423.1L149.5 425.1L149.0 429.9L146.5 431.2L145.6 433.0L143.5 428.7L139.2 426.4L137.6 426.8L136.8 429.1L133.3 428.8L133.9 425.1L138.8 423L140.4 423.9L149.7 415.8L150.8 411.2L156.4 409.6L157.4 406.9L162.1 402.6L163.1 394.1L168.3 394.7L170.6 392.1L170.3 387.8L180.5 386.2L187.1 386.9L189.9 388.6L198.4 387.8L200.1 381.5L213.6 366.8L207.1 372.6L205.9 373.9L196.6 377.1L194.9 380.7L189.8 381.2L186.1 380.1L179.8 371.9L171.2 375.0L169.5 374.0L169.3 372.0L173.4 371.3L174.4 369.7L170.0 369.5L166.1 367.2L162.9 367.2L160.5 367.7L159.6 370.2L156.0 370.4L154.1 372.1L151.6 371.0L152.4 369.2L156.2 367.7L155.7 366.4L155.2 367.6L152.7 367.9L147.2 366.7L150.7 365.0L150.2 362.2L147.2 361.4L147.7 359.8L151.1 358.2L151.6 356.9L157.3 356.4L161.2 352.3L165.2 352.2L171.4 348.2L173.8 345.1L175.6 339.5L174.2 335.0L175.9 330.9L176.3 330.9L176.4 330.9L176.4 330.9L176.5 330.9L176.6 330.9L176.6 330.9L176.6 330.9L176.7 330.9L176.8 330.9L176.8 330.9L177.2 330.9L178.3 331.0L178.3 331.0L178.4 331.0L178.4 331.0L178.5 331.0L178.6 331.0L178.6 331.0L178.6 331.0L178.7 331.0L178.7 331.0L178.7 331.0L179.0 331.0L179.0 331.0L179.1 331.0L179.1 331.0L179.1 331.0L179.2 331.0L179.3 331.0L179.3 331.0L179.4 331.0L179.4 331.0L179.5 331.0L180.2 330.9L180.2 330.9L181.5 331.0L181.5 331.0L182.1 331.1L182.1 331.1L182.3 331.1L182.3 331.1L182.4 331.1L182.4 331.1L182.4 331.1L182.5 331.2L182.5 331.2L182.5 331.2L182.6 331.2L182.6 331.2L182.6 331.2L182.7 331.2L182.7 331.2L182.8 331.2L183.0 331.2L183.0 331.2L183.1 331.2L183.1 331.2L183.1 331.2L183.2 331.2L183.2 331.2L183.3 331.2L183.4 331.1L183.4 331.1L183.4 331.1L183.5 331.1L183.5 331.1L183.6 331.1L183.6 331.1L183.7 331.1L183.7 331.1L183.7 331.1L183.8 331.1L183.8 331.0L183.9 331.0L183.9 331.0L184.0 331.0L184.0 331.0L184.0 331.0L184.1 331.0L184.2 330.9L184.2 330.9L184.3 330.9L184.3 330.9L184.3 330.8L184.4 330.8L184.4 330.8L184.4 330.8L184.5 330.8L184.5 330.8L184.6 330.7L184.6 330.7L184.6 330.7L184.7 330.7L184.7 330.6L184.8 330.6L184.8 330.6L184.8 330.6L184.8 330.5L184.9 330.5L184.9 330.5L184.9 330.5L185.0 330.5L185.0 330.4L185.0 330.4L185.1 330.3L185.2 330.3L185.2 330.3L185.2 330.2L185.2 330.2L185.3 330.2L185.3 330.2L185.3 330.1L185.4 330.1L185.4 330.1L185.4 330.0L185.5 329.9L185.9 329.5L186.0 329.4L186.1 329.3L186.1 329.3L186.2 329.2L186.2 329.2L186.2 329.2L186.3 329.1L186.3 329.1L186.4 329.0L186.4 329.0L186.4 329.0L186.4 328.9L186.5 328.9L186.5 328.9L186.5 328.8L186.5 328.8L186.7 328.6L186.7 328.5L186.7 328.5L186.7 328.5L186.7 328.4L186.8 328.4L186.8 328.4L186.8 328.3L186.8 328.3L186.8 328.3L186.8 328.2L186.8 328.2L186.9 328.1L186.9 328.1L186.9 328.0L186.9 328.0L186.9 328.0L186.9 327.9L187.0 327.8L187.0 327.8L187.0 327.8L187.0 327.6L187.0 327.6L187.0 327.5L187.1 327.5L187.1 327.4L187.1 327.4L187.1 327.3L187.1 327.3L187.1 327.3L187.1 327.2L187.1 327.1L187.1 327.1L187.1 327.1L187.1 327.0L187.1 327.0L187.1 326.9L187.1 326.8L187.1 326.8L187.1 326.7L187.1 326.7L187.1 326.7L187.1 326.6L187.1 326.6L187.1 326.5L187.1 326.5L187.1 326.4L187.1 326.4L187.1 326.4L187.0 326.3L187.0 326.3L187.0 326.2L187.0 326.2L187.0 326.1L187.0 326.1L187.0 326.0L187.0 326.0L187.0 326.0L186.9 325.8L186.9 325.7L186.9 325.6L186.8 325.6L186.8 325.6L186.8 325.5L186.8 325.5L186.8 325.5L186.8 325.4L186.7 325.4L186.7 325.4L186.7 325.3L186.7 325.3L186.7 325.3L186.6 325.2L186.6 325.2L186.5 325.0L186.5 325.0L186.5 325.0L186.5 324.9L186.4 324.9L186.4 324.9L186.4 324.8L186.4 324.8L186.3 324.8L186.3 324.8L186.3 324.7L186.2 324.7L186.2 324.6L186.2 324.6L186.1 324.5L186.1 324.5L186.1 324.5L186.0 324.5L186.0 324.4L186.0 324.4L185.9 324.3L185.8 324.3L185.8 324.3L185.8 324.3L185.8 324.2L185.7 324.2L185.7 324.2L185.7 324.2L185.6 324.1L185.6 324.1L185.6 324.1L185.5 324.0L185.4 324.0L185.4 324.0L185.4 324.0L185.3 324L185.3 323.9L185.3 323.9L185.2 323.9L185.2 323.9L185.2 323.9L185.1 323.9L185.0 323.8L185.0 323.8L185 323.8L184.9 323.8L183.0 322.7L181.6 321.1L181.6 321.1L181.6 321.0L181.5 321.0L181.5 320.9L181.5 320.9L181.4 320.8L181.4 320.8L181.4 320.8L181.3 320.7L181.3 320.7L181.3 320.7L181.3 320.6L181.2 320.6L181.2 320.6L181.2 320.6L181.1 320.5L181.0 320.4L181.0 320.4L181.0 320.4L180.9 320.3L180.9 320.3L180.9 320.3L180.8 320.2L180.8 320.2L180.8 320.2L180.7 320.2L180.7 320.2L180.7 320.1L180.7 320.1L180.5 320.0L180.5 320.0L180.4 320.0L180.4 320.0L180.4 319.9L180.3 319.9L180.3 319.9L180.3 319.9L180.2 319.9L180.1 319.8L180.1 319.8L180.1 319.8L180.0 319.8L180.0 319.8L180.0 319.8L179.9 319.7L179.8 319.7L179.7 319.7L179.7 319.7L179.6 319.7L179.6 319.6L179.5 319.6L179.5 319.6L179.4 319.6L179.4 319.6L179.4 319.6L179.3 319.6L179.3 319.6L179.2 319.6L179.2 319.6L179.1 319.6L179.1 319.6L179.1 319.5L179.0 319.5L179.0 319.5L178.9 319.5L178.9 319.5L178.8 319.5L178.7 319.5L178.7 319.5L178.6 319.5L178.6 319.5L178.5 319.5L178.5 319.5L178.5 319.6L178.4 319.6L178.4 319.6L178.4 319.6L178.3 319.6L178.3 319.6L178.2 319.6L178.2 319.6L178.2 319.6L178.1 319.6L178.1 319.6L178.0 319.6L178 319.6L177.9 319.6L177.9 319.7L177.8 319.7L177.8 319.7L177.7 319.7L177.7 319.7L177.7 319.7L177.6 319.7L177.6 319.8L177.6 319.8L177.5 319.8L177.5 319.8L177.5 319.8L177.4 319.8L177.4 319.8L177.4 319.8L177.3 319.9L177.3 319.9L177.3 319.9L177.2 319.9L177.2 319.9L177.2 320L177.1 320.0L176.1 320.4L176.0 320.5L176.0 320.5L176.0 320.5L175.9 320.5L175.9 320.5L175.9 320.5L175.8 320.5L175.8 320.6L175.7 320.6L175.7 320.6L175.7 320.6L175.6 320.6L175.6 320.7L175.6 320.7L175.5 320.7L175.5 320.7L175.5 320.7L175.4 320.7L175.4 320.8L175.3 320.8L175.3 320.8L175.2 320.9L175.2 320.9L175.2 320.9L175.2 320.9L175.1 321.0L175.1 321.0L175.1 321.0L175.0 321.0L175.0 321.1L174.9 321.1L174.9 321.1L174.9 321.2L174.9 321.2L174.8 321.2L174.7 321.3L174.7 321.3L174.7 321.4L174.6 321.5L174.6 321.5L174.5 321.5L174.5 321.6L174.5 321.6L174.5 321.6L174.4 321.7L174.4 321.7L174.4 321.7L174.4 321.8L174.3 321.9L174.2 322.0L173.6 322.8L173.7 323.5L168.0 324.3L165.1 327.6L161.4 327.6L160.9 326.5L163.4 323.2L169.5 318.9L170.2 315.9L173.3 312.5L181.0 309.7L187.0 310.0L192.7 307.7L197.9 311.5L198.3 310.6L195.9 306.3L198.7 305.4L202.8 310.1L205.2 309.9L206.9 307.7L203.5 308.8L201.3 307.3L197.9 300.1L200.9 294.8L202.7 293.8L199.3 292.2L199.3 286.9L202.0 285.2L204.3 280.3L204.8 275.1L197.3 280.3L195.6 279.6L191.8 272.9L191.3 270.2L187.0 264.0 Z M 224.3 219.1L224.2 219.2L222.2 219.9L221.2 220.0L219.8 219.9L219.7 219.9L219.2 219.8L218.6 219.9L218.6 219.9L217.5 220.0L217.5 220.0L216.8 220.0L214.6 219.4L212.8 218.1L211.5 216.3L210.8 214.1L210.8 214.1L210.8 212.7L210.8 212.7L210.9 212.3L211.5 210.3L212.7 208.7L220.9 213.7 Z M 193.0 201.6L191.6 200.1L190.8 198.2L190.6 196.1L191.1 194.1L192.1 192.3L193.9 190.8L196.0 189.9L197.0 189.8L197.0 189.8L198.6 189.9L200.2 190.4L201.7 191.5L200.4 191.7L196.0 195.1L202.6 192.4L203.3 193.4L204.0 195.6L204.1 196.5L204.1 196.6L203.7 198.7L202.7 200.6L201.1 202.1L199.1 203.0L196.9 203.2L194.8 202.7L193.0 201.6 Z M 244.9 407.2L242.4 410.4L239.7 411.3L234.6 408.1L232.8 408.3L239.0 404.1L243.5 405.3 Z M 246.9 401.8L247.2 403.9L245.7 403.5 Z M 291.5 380.3L290.4 381.0L287.3 380.4L286.8 377.9L290.5 378.7 Z M 164.6 308.8L164.8 311.0L162.6 309.3L162.6 307.8 Z M 176.8 308.9L169.7 315.4L166.9 313.3L165.1 309.7L165.2 305.3L168.5 304.1L171.6 305.0L172.8 308.1 Z M 176.8 308.9 "/>
<path style=" stroke:none;fill-rule:nonzero;fill:#C2B855;fill-opacity:1;" d="M 128.6 310.4L128.8 310.1L128.8 310.1L130.5 309.2L131.5 314.1L131.7 320.1L129.4 325.2L127.6 325.1L127.5 325.0L127.5 325.0L127.3 325.0L127.3 325.0L127.3 325.0L127.2 325.0L127.2 325.0L127.1 325.0L127.1 325.0L127.1 325.0L127.0 325.0L127.0 325.0L126.9 325.0L126.9 325L126.9 325L126.8 324.9L126.7 324.9L126.6 325L126.6 325L126.5 325.0L126.5 325.0L126.4 325.0L126.3 325.0L126.1 325.0L124.5 324.8L122.9 324.3L121.0 322.8L119.7 320.8L119.2 318.5L119.2 317.7L119.2 317.7L119.2 317.6L119.2 317.6L119.2 317.6L119.2 317.5L119.2 317.4L119.6 315.3L120.7 313.3L122.3 311.9L124.3 311.0L126.5 310.8L126.5 310.8L126.6 310.8L126.6 310.8L126.6 310.8L126.7 310.8L126.9 310.8L126.9 310.8L126.9 310.8L127.0 310.8L127.0 310.8L127.0 310.8L127.1 310.8L127.1 310.8L127.2 310.8L127.2 310.8L127.3 310.8L127.3 310.8L127.3 310.8L127.4 310.7L127.5 310.7L127.6 310.7L127.6 310.7L127.7 310.7L127.7 310.7L127.9 310.6L128.0 310.6L128.0 310.6L128.0 310.6L128.1 310.5L128.1 310.5L128.2 310.5L128.3 310.5L128.3 310.4 Z M 118.7 283.6L118.7 283.4L118.7 283.4L119.4 281.4L120.6 279.7L122.5 278.4L124.8 277.8L124.8 277.8L127.0 278.0L129.1 278.9L130.7 280.4L131.0 281.0L130.4 281.3L126.6 280.2L126.1 282.8L126.5 284.1L128.5 287.0L128.5 289.0L127.4 290.9L131.3 297.5L130.4 300.3L129.7 300.9L129.8 301.2L129.3 301.4L127.9 301.5L127.9 301.5L127.3 301.5L125.4 301.1L123.8 300.1L122.4 298.8L121.6 297.1L121.2 295.2L121.2 295.2L121.2 294.8L121.2 294.8L121.4 293.4L120.2 292.5L120.2 292.5L119.8 292.0L119.8 292.0L119.8 291.9L119.8 291.9L119.7 291.9L119.7 291.9L119.7 291.8L119.6 291.8L119.6 291.8L118.5 290.1L117.9 288.2L117.9 286.2L118.4 284.3L118.5 284.3L118.5 284.2L118.5 284.2L118.5 284.2L118.5 284.1L118.5 284.1L118.6 284.1L118.6 284.0L118.6 284.0L118.6 283.9L118.6 283.8L118.6 283.8L118.7 283.8L118.7 283.7L118.7 283.7 Z M 117.2 342.0L120.3 341.4L121.6 341.6L120.1 341.9L122.7 345.9L122.6 347.7L121.6 348.4L117.3 348.1L115.3 346.9L113.6 346.6L114.1 345.0L115.4 343.3L117.2 342.0 Z M 58.1 318.2L56.8 316.9L56.0 315.4L56.0 315.3L55.9 315.2L55.9 315.2L55.5 313.3L55.5 313.3L55.5 312.9L55.6 312.2L59.0 307.8L59.8 307.4L61.9 307.7L66.6 307.1L67.4 305.5L66.3 304.9L66.5 303.5L65.9 303.2L54.7 303.3L54.2 302.6L53.5 301.0L53.2 299.2L53.2 299.2L53.4 297.8L53.5 297.6L53.5 297.5L53.5 297.3L53.5 297.3L53.5 297.2L53.5 297.2L53.5 297.2L53.5 297.1L53.5 297.1L53.6 297.0L53.6 297.0L53.6 296.9L53.6 296.9L53.6 296.8L53.6 296.7L53.6 296.7L53.6 296.7L53.6 296.6L53.6 296.6L53.6 296.5L53.6 296.5L53.6 296.5L53.6 296.4L53.5 295.9L53.5 295.8L53.5 295.8L53.5 295.7L53.5 295.6L53.5 295.6L53.5 295.6L53.5 295.5L53.5 295.5L53.5 295.5L53.5 295.4L53.5 295.3L53.5 295.3L53.5 295.2L53.5 295.2L53.5 295.2L53.4 295.1L53.4 295.0L53.4 295.0L53.4 294.9L53.4 294.8L53.4 294.8L53.3 294.7L53.3 294.6L53.3 294.6L53.3 294.6L53.3 294.5L53.3 294.5L53.3 294.5L53.2 294.4L53.2 294.4L53.2 294.4L53.2 294.3L53.2 294.3L53.2 294.3L53.1 294.2L53.1 294.2L53.1 294.1L53.1 294.1L53.0 294.0L52.9 293.9L52.9 293.9L52.9 293.9L52.9 293.8L52.9 293.8L52.8 293.7L52.8 293.7L52.7 293.6L52.7 293.6L52.7 293.5L52.6 293.5L52.6 293.5L51.8 292.4L51.8 292.4L50.8 289.6L50.8 288.3L51.3 286.1L51.4 286.0L51.4 286.0L51.4 286.0L51.4 285.9L51.4 285.9L51.4 285.9L51.5 285.6L51.5 285.6L51.5 285.6L51.5 285.5L51.5 285.5L51.6 285.5L51.6 285.4L51.6 285.4L51.6 285.3L51.6 285.3L51.6 285.3L51.6 285.2L51.6 285.2L51.6 285.2L51.6 285.1L51.6 285.1L51.6 285.0L51.6 285.0L51.6 284.9L51.6 284.9L51.6 284.9L51.6 284.8L51.6 284.8L51.6 284.6L51.6 284.6L51.6 284.5L51.6 284.5L51.6 284.5L51.6 284.4L51.6 284.4L51.6 284.4L51.6 284.3L51.6 284.3L51.6 284.2L51.6 284.2L51.6 284.2L51.6 284.1L51.6 284.1L51.6 284.0L51.6 284L51.5 283.9L51.5 283.8L51.3 282.3L54.8 282.0L54.2 280.9L55.2 279.3L54.8 278.7L52.6 278.2L54.0 276.8L54.1 276.7L54.1 276.7L54.1 276.7L54.2 276.6L54.2 276.6L54.3 276.6L54.3 276.5L54.3 276.5L54.4 276.5L54.4 276.4L54.4 276.4L54.4 276.4L54.5 276.4L54.5 276.3L54.5 276.3L54.6 276.2L54.6 276.2L54.7 276.1L54.7 276.1L54.7 276.1L54.7 276.0L54.8 276.0L54.8 276.0L54.8 275.9L54.8 275.9L54.8 275.9L54.9 275.8L54.9 275.8L54.9 275.7L54.9 275.7L55.0 275.7L55.0 275.6L55.0 275.6L55.0 275.6L55.0 275.5L55.0 275.5L55.1 275.5L55.1 275.4L55.1 275.4L55.1 275.3L55.1 275.3L55.1 275.3L55.2 275.2L55.2 275.2L55.2 275.1L55.2 275.0L55.2 275.0L55.3 275.0L55.3 274.9L55.3 274.9L55.3 274.9L55.3 274.7L55.3 274.7L55.3 274.6L55.3 274.6L55.4 274.1L55.5 274.0L55.5 274.0L55.5 273.8L55.5 273.8L55.5 273.8L55.5 273.7L55.5 273.7L55.5 273.5L55.5 273.5L55.6 273.4L55.6 273.4L55.6 273.4L55.6 273.3L55.6 273.2L55.6 273.1L55.6 273.1L55.6 273.0L55.6 273.0L55.6 273.0L55.5 272.9L55.5 272.5L55.5 272.0L55.9 270.0L56.9 268.2L58.4 266.8L60.2 265.9L62.2 265.6L62.2 265.6L64.4 266.0L64.5 266.0L64.5 266.3L66.1 269.2L67.0 267.7L67.5 268.2L67.6 268.2L67.6 268.3L67.6 268.3L67.6 268.3L67.7 268.4L67.7 268.4L67.7 268.4L67.8 268.5L67.9 268.6L67.9 268.6L67.9 268.6L68.0 268.7L68.1 268.7L68.1 268.8L68.1 268.8L68.2 268.8L68.2 268.9L68.2 268.9L68.3 268.9L68.3 268.9L68.4 269.0L68.4 269.0L68.4 269.0L68.5 269.0L68.5 269.0L68.5 269.1L68.6 269.1L68.6 269.1L68.6 269.1L68.7 269.1L68.7 269.2L68.7 269.2L68.8 269.2L68.8 269.2L68.9 269.2L68.9 269.3L69.0 269.3L69.0 269.3L69.0 269.3L69.1 269.3L69.1 269.3L69.1 269.3L69.2 269.3L69.2 269.4L69.2 269.4L69.3 269.4L69.3 269.4L69.4 269.4L69.4 269.4L69.5 269.4L69.5 269.4L69.6 269.4L69.6 269.5L69.6 269.5L69.7 269.5L69.7 269.5L69.7 269.5L69.8 269.5L69.9 269.5L69.9 269.5L70.0 269.5L70.0 269.5L70.0 269.5L70.3 269.5L70.4 269.5L70.4 269.5L70.4 269.5L70.5 269.5L70.6 269.5L70.6 269.5L70.6 269.5L70.7 269.5L70.7 269.5L70.7 269.5L70.8 269.5L70.9 269.4L70.9 269.4L71.0 269.4L71.0 269.4L71.1 269.4L71.1 269.4L71.1 269.4L71.4 269.3L71.4 269.3L71.4 269.3L71.5 269.2L71.5 269.2L71.6 269.2L71.7 269.2L71.7 269.1L71.7 269.1L71.8 269.1L71.8 269.1L71.8 269.1L71.9 269.1L71.9 269.0L72.0 268.9L72.1 268.9L72.1 268.9L72.1 268.9L72.2 268.8L72.3 268.8L72.3 268.8L72.3 268.7L72.3 268.7L72.4 268.7L72.4 268.7L72.4 268.6L72.5 268.6L72.5 268.6L72.5 268.6L72.5 268.5L72.6 268.5L72.6 268.4L72.7 268.4L72.8 268.3L72.8 268.3L72.8 268.2L72.8 268.2L72.9 268.1L72.9 268.1L72.9 268.1L72.9 268.1L73.0 268.0L73.0 268.0L73.0 267.9L73.1 267.9L73.1 267.8L73.1 267.8L73.1 267.8L73.1 267.7L73.2 267.7L73.2 267.7L73.2 267.6L73.2 267.6L73.2 267.5L73.3 267.4L74.2 266.1L74.2 266.0L76.0 266.5L79.1 268.4L78.4 266.8L80.0 265.9L79.6 264.5L77.7 263.8L77.6 262.9L82.0 260.0L86.6 258.6L89.3 253.9L86.8 254.1L85.6 253.7L83.1 255.0L83.5 254.2L83.3 253.7L80.1 253.6L78.0 252.9L77.7 252.7L77.6 252.7L77.6 252.6L77.5 252.5L77.5 252.5L77.5 252.5L77.4 252.4L77.3 252.4L77.3 252.4L77.3 252.3L77.3 252.3L77.2 252.3L75.9 250.8L75.8 250.5L77.1 248.9L78.7 248.0L82.5 248.3L82.2 247.8L83.0 247.8L81.9 246.1L82.3 245.6L86.6 245.4L85.7 245.0L85.7 243.9L84.1 242.5L84.7 241.6L84.6 240.5L85.0 240.5L85.9 240.6L87.9 241.3L89.5 242.6L89.6 242.7L89.6 242.7L89.7 242.8L89.8 242.8L89.8 242.9L89.8 242.9L89.9 242.9L89.9 243.0L90 243.0L90.0 243.0L90.0 243.0L90.0 243.1L90.1 243.1L90.1 243.1L90.2 243.1L90.3 243.2L90.3 243.3L90.4 243.3L90.4 243.3L90.4 243.3L90.5 243.3L90.5 243.3L90.5 243.4L90.6 243.4L90.6 243.4L90.6 243.4L90.7 243.4L90.8 243.5L90.8 243.5L90.8 243.5L90.9 243.5L91.0 243.6L91.1 243.6L91.1 243.6L91.2 243.6L91.2 243.6L91.3 243.6L91.4 243.6L91.4 243.6L91.4 243.6L91.5 243.7L91.5 243.7L91.5 243.7L91.6 243.7L91.6 243.7L91.7 243.7L91.7 243.7L91.8 243.7L91.8 243.7L91.8 243.7L91.9 243.7L91.9 243.7L91.9 243.7L92.1 243.7L92.1 243.7L92.2 243.7L92.2 243.7L92.2 243.7L92.3 243.7L92.3 243.7L92.3 243.7L92.4 243.7L92.4 243.7L92.5 243.7L92.5 243.7L92.6 243.7L92.6 243.7L92.6 243.6L92.7 243.6L92.7 243.6L92.8 243.6L92.8 243.6L92.9 243.6L93.5 243.5L94.0 243.0L94.0 243.0L95.5 242.2L97.2 241.7L97.8 241.7L99.6 241.9L101.4 242.5L102.8 243.7L104.0 245.1L104.6 246.7L104.8 248.4L104.8 249.0L104.6 250.1L104.6 250.1L103.6 252.3L101.9 253.9L99.8 254.9L99.8 254.9L99.1 255.0L98.6 255.5L98.5 255.5L98.5 255.5L98.5 255.6L98.4 255.6L98.4 255.6L98.3 255.7L98.3 255.7L98.3 255.7L98.3 255.7L98.1 255.9L98.1 255.9L98.1 255.9L98.1 256L98.0 256.0L98.0 256.1L97.9 256.1L97.9 256.1L97.9 256.2L97.9 256.2L97.9 256.2L97.8 256.2L97.8 256.3L97.8 256.3L97.7 256.5L97.7 256.5L97.7 256.5L97.6 256.6L97.6 256.6L97.6 256.7L97.6 256.7L97.6 256.7L97.5 256.8L97.5 256.8L97.5 256.9L97.5 256.9L97.5 257.0L97.4 257.0L97.4 257.0L97.4 257.2L97.4 257.2L97.3 257.3L97.3 257.3L97.3 257.4L97.3 257.4L97.3 257.5L97.3 257.6L97.3 257.6L97.3 257.6L97.3 257.7L97.3 257.7L97.3 257.7L97.3 257.8L97.2 257.8L97.2 257.9L97.2 257.9L97.2 258.0L97.2 258.0L97.2 258.0L97.2 258.1L97.0 259.6L96.2 261.5L95.1 262.8L95.0 262.9L95.0 262.9L94.9 263.0L94.9 263.0L94.9 263.0L94.8 263.1L94.8 263.1L94.8 263.2L94.7 263.2L94.7 263.2L94.7 263.3L94.6 263.3L94.6 263.4L94.6 263.4L94.6 263.4L94.6 263.5L94.5 263.5L94.5 263.5L94.5 263.6L94.5 263.7L94.4 263.7L94.4 263.7L94.4 263.8L94.4 263.8L94.4 263.8L94.4 263.9L94.3 264.0L94.3 264.0L94.3 264.0L94.3 264.1L94.2 264.1L94.2 264.2L94.2 264.2L94.2 264.3L94.2 264.3L94.2 264.3L94.2 264.4L94.2 264.4L94.1 264.4L94.1 264.5L94.1 264.6L94.1 264.6L94.1 264.7L94.1 264.7L94.1 264.7L94.1 264.8L94.1 264.8L94.1 264.8L94.1 264.9L94.1 264.9L94.1 265.0L94.1 265.0L94.1 265.0L94.1 265.1L94.1 265.1L94.1 265.4L94.1 265.4L94.1 265.4L94.1 265.5L94.1 265.5L94.1 265.5L94.1 265.6L94.1 265.7L94.1 265.7L94.1 265.7L94.1 265.8L94.1 265.8L94.1 265.8L94.1 265.9L94.1 265.9L94.2 266.1L94.2 266.1L94.2 266.1L94.2 266.2L94.2 266.2L94.2 266.3L94.3 266.4L94.3 266.4L94.3 266.4L94.3 266.5L94.3 266.5L94.3 266.5L94.3 266.6L94.4 266.6L94.4 266.6L94.4 266.7L94.4 266.7L94.4 266.7L94.4 266.8L94.5 266.8L94.5 266.8L94.5 266.9L94.5 266.9L94.5 266.9L94.6 267.1L94.6 267.1L94.6 267.1L94.7 267.2L94.7 267.2L94.7 267.2L94.8 267.3L95.8 269.3L96.1 271.7L96.1 271.7L95.8 273.4L95.7 273.4L95.7 273.5L95.7 273.5L95.7 273.5L95.7 273.6L95.7 273.6L95.7 273.7L95.7 273.7L95.6 273.8L95.6 273.9L95.6 273.9L95.6 273.9L95.6 274.0L95.6 274.0L95.6 274.1L95.6 274.1L95.6 274.2L95.6 274.2L95.6 274.2L95.6 274.3L95.6 274.3L95.6 274.4L95.6 274.5L95.6 274.6L95.6 274.6L95.6 274.7L95.6 274.7L95.6 274.8L95.6 274.8L95.6 274.9L95.6 274.9L95.6 274.9L95.6 275.0L95.6 275.0L95.6 275.0L95.6 275.1L95.6 275.1L95.7 275.2L95.7 275.2L95.7 275.3L95.7 275.3L95.7 275.4L95.8 275.6L95.8 275.7L95.8 275.7L95.8 275.8L95.9 275.8L95.9 275.8L95.9 275.9L95.9 275.9L95.9 276.0L96 276.0L96.0 276.0L96.0 276.1L96.0 276.1L96.0 276.1L96.0 276.1L96.1 276.3L96.1 276.3L96.2 276.4L96.2 276.4L96.2 276.5L96.3 276.5L96.3 276.5L96.3 276.5L96.3 276.6L96.4 276.6L96.4 276.7L96.4 276.7L96.5 276.7L96.5 276.7L96.6 276.8L96.6 276.9L97.4 277.8L97.4 277.8L97.4 277.9L97.4 277.9L97.5 277.9L97.5 277.9L97.5 278.0L97.5 278.0L97.6 278.0L97.6 278.1L97.6 278.1L97.7 278.2L97.7 278.2L97.8 278.3L97.9 278.4L97.9 278.4L98.0 278.4L98.0 278.5L98.1 278.5L98.1 278.5L98.1 278.6L98.2 278.6L98.2 278.6L98.2 278.6L98.3 278.7L98.5 278.8L98.5 278.8L98.5 278.8L98.6 278.8L98.6 278.9L98.6 278.9L98.7 278.9L98.7 278.9L98.7 278.9L98.8 278.9L98.8 279.0L98.9 279.0L98.9 279.0L98.9 279.0L99.0 279.0L99.1 279.1L99.1 279.1L99.1 279.1L99.2 279.1L99.2 279.1L99.2 279.1L99.3 279.1L99.3 279.1L99.4 279.1L99.4 279.2L99.5 279.2L99.5 279.2L99.5 279.2L99.6 279.2L99.6 279.2L99.6 279.2L99.7 279.2L99.8 279.2L99.8 279.2L99.8 279.2L99.9 279.2L99.9 279.2L99.9 279.2L100.0 279.2L100.0 279.2L100.3 279.2L100.3 279.2L100.3 279.2L100.4 279.2L100.4 279.2L100.5 279.2L100.5 279.2L100.5 279.2L100.6 279.2L100.6 279.2L100.7 279.2L101.8 279.1L103.8 279.5L105.6 280.4L107.0 281.8L107.0 281.9L107.1 281.9L107.1 281.9L107.1 281.9L107.2 282.0L107.2 282.0L107.2 282.1L107.3 282.1L107.3 282.1L107.3 282.2L107.3 282.2L107.4 282.2L107.4 282.2L107.4 282.3L107.4 282.3L107.5 282.4L107.6 282.4L107.6 282.4L107.6 282.4L107.6 282.5L107.7 282.5L107.7 282.5L107.7 282.5L107.8 282.6L107.8 282.6L107.9 282.6L107.9 282.6L107.9 282.7L108.0 282.7L108.1 282.7L108.1 282.8L108.1 282.8L108.2 282.8L108.2 282.8L108.3 282.9L108.4 282.9L108.4 282.9L108.4 282.9L108.5 282.9L108.5 282.9L108.5 283.0L108.7 283.0L108.7 283.0L108.8 283.0L108.8 283.1L108.8 283.1L108.9 283.1L108.9 283.1L109 283.1L109.1 283.1L109.1 283.1L109.1 283.1L109.2 283.1L111.2 283.8L113 285.2L113 285.2L114.1 286.8L114.7 288.7L114.7 290.7L114.1 292.6L114.1 292.7L113.1 294.2L111.6 295.4L109.9 296.2L108.1 296.5L107.5 296.5L107.4 296.5L107.4 296.5L107.4 296.5L107.3 296.5L107.3 296.4L107.1 296.4L107.1 296.5L107.0 296.5L107.0 296.5L107.0 296.5L106.9 296.5L106.9 296.5L106.8 296.5L106.8 296.5L106.7 296.5L106.7 296.5L106.7 296.5L106.6 296.5L106.6 296.5L106.5 296.5L106.5 296.5L106.5 296.5L106.4 296.5L106.4 296.5L106.3 296.6L106.3 296.6L106.3 296.6L106.2 296.6L106.2 296.6L106.1 296.6L106.0 296.7L106.0 296.7L106.0 296.7L105.9 296.7L105.9 296.7L105.8 296.7L105.8 296.8L105.7 296.8L105.7 296.8L105.7 296.8L105.6 296.8L105.6 296.9L105.5 296.9L105.5 296.9L105.5 296.9L105.3 297.0L105.3 297.0L105.3 297.0L105.2 297.1L105.2 297.1L105.2 297.1L105.2 297.1L105.1 297.2L105.1 297.2L105.0 297.2L105.0 297.3L105.0 297.3L105.0 297.3L104.9 297.3L104.8 297.5L104.8 297.5L104.7 297.5L104.7 297.6L104.7 297.6L104.6 297.6L104.6 297.6L104.6 297.7L104.6 297.7L104.6 297.7L104.5 297.8L104.5 297.8L104.5 297.8L104.5 297.8L104.4 297.9L104.4 297.9L104.4 298.0L104.4 298.0L104.3 298.1L104.3 298.1L104.3 298.1L104.2 298.2L104.2 298.2L104.2 298.3L104.2 298.3L104.2 298.3L104.1 298.4L104.1 298.5L104.1 298.5L104.1 298.6L104.1 298.6L104.0 298.6L104.0 298.7L104.0 298.7L104.0 298.7L104.0 298.8L104.0 298.8L104.0 298.9L104.0 298.9L103.9 298.9L103.9 299.1L103.9 299.1L103.9 299.2L103.9 299.2L103.9 299.2L103.9 299.3L103.9 299.3L103.9 299.3L103.9 299.4L103.9 299.4L103.9 299.5L103.9 299.5L103.8 299.6L103.7 300.4L103.3 301.7L103.3 301.8L103.2 301.8L103.2 301.8L103.2 301.9L103.2 301.9L103.2 301.9L103.1 302.1L103.1 302.2L103.1 302.2L103.1 302.3L103.1 302.3L103.1 302.3L103.1 302.4L103.0 302.4L103.0 302.5L103.0 302.5L103.0 302.6L103.0 302.6L103.0 302.7L103.0 302.7L103.0 302.7L103.0 302.8L103.0 302.8L103.0 302.9L103.0 302.9L103.0 302.9L103.0 303.0L103.0 303.2L103.0 303.3L103.0 303.3L103.0 303.4L103.0 303.4L103.0 303.4L103.0 303.5L103.0 303.5L103.0 303.6L103.0 303.6L103.0 303.6L103.0 303.7L103.0 303.8L103.1 303.9L103.1 303.9L103.1 303.9L103.1 304.0L103.1 304.0L103.1 304.1L103.1 304.1L103.2 304.3L103.2 304.3L103.2 304.4L103.2 304.4L103.2 304.4L103.3 304.5L103.3 304.5L103.3 304.6L103.3 304.6L103.3 304.6L103.4 304.7L103.4 304.7L103.4 304.7L103.4 304.8L103.4 304.8L103.5 305.0L103.6 305.0L103.6 305.1L103.6 305.1L103.6 305.1L103.7 305.2L103.7 305.2L103.7 305.2L103.8 305.3L103.8 305.3L103.8 305.4L103.9 305.4L103.9 305.4L103.9 305.5L103.9 305.5L104.0 305.5L104.0 305.5L104.0 305.6L104.0 305.6L104.1 305.6L104.1 305.7L104.2 305.7L104.2 305.8L104.3 305.8L104.3 305.8L104.3 305.8L104.4 305.9L104.4 305.9L104.4 305.9L104.4 305.9L104.7 306.1L104.7 306.1L104.8 306.1L104.8 306.1L104.8 306.1L104.9 306.2L104.9 306.2L104.9 306.2L105.0 306.2L105.0 306.2L105.1 306.3L105.2 306.3L105.2 306.3L105.4 306.4L105.4 306.4L105.5 306.4L105.5 306.4L105.5 306.4L105.6 306.4L105.6 306.4L105.7 306.4L105.7 306.4L105.7 306.5L105.8 306.5L105.8 306.5L105.8 306.5L105.9 306.5L105.9 306.5L106.0 306.5L106.0 306.5L106.0 306.5L106.1 306.5L106.1 306.5L106.1 306.5L106.2 306.5L106.2 306.5L106.3 306.5L106.4 306.5L107.0 306.6L109.0 307.2L110.1 307.9L110.0 306.6L110.6 304.6L110.6 304.6L111.6 303.0L113.0 301.7L114.8 300.9L116.7 300.6L117.1 300.7L119.0 301.1L120.8 302.0L122.1 303.4L123.0 305.1L123.4 307.0L123.4 307.0L123.4 307.4L123.0 309.6L122.0 311.5L120.4 313.0L118.3 313.9L116.1 314.1L115.7 314.0L115.7 314.0L113.7 313.4L112.7 312.7L112.8 314.0L112.2 316.0L111.3 317.4L110.1 318.6L110.1 318.6L110.0 318.7L110.0 318.7L109.9 318.7L109.9 318.8L109.9 318.8L109.8 318.8L109.8 318.8L109.8 318.9L109.8 318.9L109.7 318.9L109.7 318.9L109.7 319.0L109.6 319.0L109.6 319.1L109.6 319.1L109.5 319.2L109.5 319.2L109.4 319.3L109.4 319.3L109.4 319.3L109.4 319.3L109.4 319.4L109.3 319.4L109.3 319.4L109.3 319.5L109.3 319.5L109.3 319.5L109.2 319.6L109.2 319.6L109.2 319.6L109.2 319.6L109.2 319.7L109.1 319.7L109.1 319.7L109.1 319.8L109.1 319.8L109.1 319.9L109.0 319.9L109.0 320.0L109.0 320.0L109.0 320.0L109.0 320.1L109.0 320.1L108.9 320.2L108.9 320.2L108.9 320.4L108.9 320.4L108.9 320.4L108.8 320.5L108.8 320.5L108.8 320.6L108.8 320.6L108.8 320.6L108.8 320.7L108.8 320.7L108.8 320.8L107.9 323.1L106.3 324.9L104.2 326.1L104.2 326.1L102.1 326.4L100.8 326.2L99.6 325.9L99.6 325.8L99.5 325.8L99.5 325.8L99.4 325.8L99.4 325.8L99.4 325.8L99.3 325.8L99.3 325.7L99.3 325.7L99.2 325.7L99.2 325.7L99.1 325.7L99.1 325.7L99.1 325.7L99.0 325.7L99.0 325.7L98.9 325.7L98.9 325.7L98.9 325.6L98.8 325.6L98.8 325.6L98.7 325.6L98.7 325.6L98.6 325.6L98.6 325.6L98.5 325.6L98.5 325.6L98.4 325.6L98.4 325.6L98.3 325.6L98.2 325.6L98.1 325.6L98.1 325.6L98.1 325.6L98.0 325.6L98.0 325.6L98.0 325.6L97.9 325.6L97.9 325.6L97.9 325.6L97.8 325.6L97.8 325.7L97.7 325.7L97.7 325.7L97.6 325.7L97.6 325.7L97.5 325.7L97.5 325.7L97.5 325.7L97.4 325.7L97.4 325.7L97.3 325.8L97.3 325.8L97.3 325.8L97.2 325.8L97.2 325.8L97.2 325.8L97.1 325.8L97.1 325.9L97.0 325.9L97.0 325.9L97.0 325.9L96.9 325.9L96.9 325.9L96.8 326.0L96.8 326.0L96.8 326.0L96.7 326.0L96.7 326.0L96.7 326.0L96.4 326.2L96.4 326.2L96.4 326.2L96.4 326.2L96.3 326.3L96.3 326.3L96.3 326.3L96.2 326.3L96.2 326.4L96.2 326.4L96.1 326.5L96.1 326.5L96.0 326.5L96.0 326.6L95.9 326.6L95.9 326.6L95.9 326.7L95.9 326.7L95.8 326.7L95.8 326.8L95.8 326.8L95.7 326.8L95.7 326.9L95.7 326.9L95.7 326.9L95.6 326.9L95.6 327.0L95.6 327.0L95.6 327.1L95.5 327.1L95.5 327.1L95.5 327.2L95.4 327.3L95.4 327.3L95.4 327.3L95.4 327.4L95.3 327.4L95.3 327.5L95.3 327.5L95.3 327.5L95.3 327.5L95.2 327.6L95.2 327.6L95.2 327.7L95.2 327.7L95.2 327.8L95.2 327.8L95.2 327.8L95.2 327.9L95.1 328.0L95.1 328.0L95.1 328.0L95.1 328.1L95.1 328.1L95.1 328.2L95.0 328.2L95.0 328.3L95.0 328.3L95.0 328.4L95.0 328.4L95.0 328.5L95.0 328.5L95.0 328.6L95.0 328.6L95.0 328.7L95.0 328.7L95.0 328.7L95.0 328.8L95.0 328.8L95.0 328.9L95.0 329L95.0 329.0L95.0 329.0L95.0 329.1L95.0 329.1L95.0 329.2L95.0 329.2L95.0 329.2L95.0 329.3L95.0 329.3L95.0 329.4L95.0 329.4L95.0 329.4L95.0 329.5L95.0 329.5L95.0 329.5L95.0 329.6L95.0 329.7L95.0 329.7L95.1 329.7L95.1 329.8L95.1 329.8L95.1 329.9L95.1 329.9L95.1 330.0L95.1 330.0L95.1 330.0L95.2 330.1L95.2 330.1L95.2 330.2L95.2 330.3L95.2 330.3L95.3 330.4L95.3 330.4L95.3 330.5L95.3 330.5L95.3 330.5L95.4 330.6L95.4 330.6L95.4 330.6L95.4 330.7L95.4 330.7L95.5 330.8L95.5 330.8L95.6 330.9L95.6 330.9L95.7 331.1L95.8 331.1L95.8 331.2L96.9 333.0L96.9 333.0L97.4 336.1L97.4 336.1L96.9 338.2L95.7 340.0L94.1 341.4L92.0 342.2L89.9 342.2L89.9 342.2L88.1 341.8L86.5 340.8L85.2 339.4L85.2 339.4L85.1 339.3L85.0 339.2L84.9 339.1L84.9 339.1L84.9 339.0L84.9 339.0L84.8 339.0L84.8 338.9L84.7 338.9L84.7 338.9L84.7 338.8L84.6 338.8L84.6 338.8L84.6 338.8L84.5 338.7L84.5 338.7L84.5 338.7L84.4 338.6L84.4 338.6L84.4 338.6L84.3 338.6L84.3 338.5L84.3 338.5L84.2 338.5L84.2 338.5L84.2 338.5L84.1 338.4L84.1 338.4L84.0 338.4L84.0 338.4L84.0 338.4L83.9 338.3L83.9 338.3L83.9 338.3L83.8 338.3L83.8 338.3L83.7 338.2L83.7 338.2L83.7 338.2L83.6 338.2L83.6 338.2L83.5 338.2L83.5 338.1L83.4 338.1L83.4 338.1L83.3 338.1L83.3 338.1L83.3 338.1L83.2 338.1L83.2 338.1L83.1 338.0L83.1 338.0L83.0 338.0L83.0 338.0L82.9 338.0L82.9 338.0L82.9 338.0L82.8 338.0L82.8 338.0L82.7 338.0L82.7 338.0L82.7 338.0L82.6 338.0L82.6 338.0L82.6 338.0L82.5 338.0L82.4 338.0L82.3 338.0L82.3 338.0L82.2 338.0L82.2 338.0L82.2 338.0L82.1 338.0L82.1 338.0L82.0 338.0L82.0 338.0L82.0 338.0L81.9 338.0L80.5 338.1L80.5 338.1L78.4 337.6L76.7 336.6L75.3 335.1L75.0 334.6L75.0 334.6L75.0 334.5L75.0 334.5L74.9 334.3L74.8 334.3L74.8 334.3L74.8 334.3L74.8 334.2L74.8 334.2L74.7 334.2L74.7 334.1L74.7 334.1L74.7 334.1L74.6 334.0L74.6 334.0L74.6 334.0L74.5 333.9L74.5 333.9L74.4 333.8L74.4 333.8L74.3 333.7L74.3 333.7L74.3 333.7L74.3 333.6L74.2 333.6L74.1 333.6L74.1 333.5L74.1 333.5L74.0 333.5L74.0 333.5L74.0 333.4L73.9 333.4L73.7 333.3L73.7 333.3L73.7 333.3L73.6 333.2L73.6 333.2L73.6 333.2L73.5 333.2L73.5 333.2L73.5 333.2L73.4 333.1L73.4 333.1L73.3 333.1L73.3 333.1L73.3 333.1L73.2 333.1L73.0 333.0L73.0 333.0L73 333.0L72.9 333.0L72.9 332.9L72.8 332.9L72.8 332.9L72.7 332.9L72.7 332.9L72.6 332.9L72.6 332.9L72.6 332.9L72.5 332.9L72.5 332.9L72.4 332.9L72.4 332.9L72.3 332.9L72.3 332.9L72.3 332.8L72.2 332.8L72.1 332.8L72.0 332.8L72.0 332.8L71.9 332.8L71.8 332.9L71.8 332.9L71.8 332.9L71.7 332.9L71.7 332.9L71.6 332.9L71.6 332.9L71.6 332.9L71.5 332.9L71.5 332.9L71.4 332.9L71.4 332.9L71.3 332.9L71.3 332.9L71.2 333.0L71.2 333.0L71.1 333.0L71.0 333.0L71.0 333.0L70.9 333.1L70.8 333.1L70.8 333.1L70.7 333.1L70.7 333.1L70.7 333.1L70.6 333.2L70.6 333.2L70.6 333.2L70.5 333.2L70.5 333.2L70.5 333.3L70.4 333.3L70.4 333.3L70.3 333.3L70.3 333.3L70.3 333.4L70.2 333.4L70.2 333.4L70.1 333.5L70.1 333.5L70.1 333.5L70.0 333.6L70.0 333.6L70 333.6L69.9 333.6L69.8 333.7L69.8 333.7L69.8 333.7L69.8 333.8L69.7 333.8L69.7 333.8L69.6 333.9L69.6 333.9L69.6 333.9L69.6 334.0L69.5 334.0L69.5 334.1L69.5 334.1L69.4 334.2L68.2 335.3L66.7 336.2L64.5 336.7L64.5 336.7L62.4 336.5L60.7 335.7L59.2 334.5L58.1 333.0L57.5 331.2L57.5 329.3L57.5 329.3L57.6 328.3L57.6 328.3L57.6 328.2L57.7 328.2L57.7 328.1L57.7 328.0L57.7 328.0L57.7 327.9L57.7 327.9L57.7 327.8L57.7 327.8L65.6 326.0L71.8 326.2L65.2 324.6L64.9 321.5L63.5 322.4L61.2 325.6L59.4 326.7L57.7 327.1L57.7 326.3L57.7 326.3L58.0 324.5L58.8 322.9L58.9 322.8L59.0 322.6L59.0 322.6L59.0 322.5L59.1 322.5L59.1 322.5L59.1 322.4L59.1 322.4L59.1 322.3L59.2 322.3L59.2 322.2L59.2 322.2L59.2 322.1L59.3 322.0L59.3 322.0L59.3 321.9L59.3 321.9L59.3 321.8L59.3 321.8L59.4 321.7L59.4 321.7L59.4 321.6L59.4 321.6L59.4 321.6L59.4 321.5L59.4 321.5L59.4 321.5L59.4 321.4L59.4 321.4L59.4 321.3L59.4 321.3L59.4 321.2L59.4 321.2L59.4 321.2L59.4 321.1L59.5 321.1L59.5 321.1L59.5 321.0L59.5 320.8L59.5 320.8L59.5 320.8L59.4 320.7L59.4 320.7L59.4 320.6L59.4 320.6L59.4 320.5L59.4 320.5L59.4 320.5L59.4 320.4L59.4 320.4L59.4 320.4L59.4 320.3L59.4 320.3L59.4 320.2L59.4 320.2L59.4 320.1L59.3 320.1L59.3 320.1L59.3 320.0L59.3 320.0L59.3 320.0L59.3 319.9L59.3 319.9L59.3 319.9L59.3 319.8L59.2 319.7L59.2 319.7L59.2 319.7L59.2 319.6L59.2 319.6L59.1 319.5L59.1 319.5L59.1 319.5L59.1 319.4L59.1 319.4L59.1 319.4L59.0 319.3L59.0 319.3L59.0 319.3L59.0 319.2L58.9 319.2L58.9 319.1L58.9 319.0L58.8 319.0L58.8 318.9L58.8 318.9L58.8 318.9L58.7 318.9L58.7 318.8L58.7 318.8L58.6 318.7L58.6 318.7L58.6 318.7L58.5 318.6L58.5 318.6L58.5 318.6L58.5 318.6L58.4 318.5L58.4 318.5L58.4 318.5L58.3 318.4L58.3 318.4L58.3 318.4L58.2 318.3L58.2 318.3 Z M 93.2 346.3L93.2 345.8L93.3 345.8L93.6 344.3L94.6 342.3L96.3 340.8L98.3 339.9L100.5 339.8L100.5 339.8L101.6 339.9L101.6 340L102.1 340.2L102.7 340.0L102.7 340.0L103.2 340.0L103.2 340.0L105.6 340.4L107.6 341.6L109.2 343.5L109.8 345.3L110.0 347.3L109.8 348.3L109.6 346.7L108.4 344.7L108.3 347.7L107.5 348.7L106.1 349.0L105.3 348.3L99.1 348.7L94.2 349.8L93.5 348.4L93.2 346.5L93.2 346.5L93.2 346.4L93.2 346.3 Z M 80.9 348.6L83.3 348.5L85.2 349.0L86.8 350.1L88.0 351.6L88.8 353.4L89.0 354.6L87.4 354.0L85.8 357.1L81.7 359.5L78.5 359.5L78.1 358.9L78.6 357.6L76.9 357.1L76.6 355.6L75.7 355.6L75.6 354.6L75.6 354.6L76.1 352.5L77.3 350.7L78.9 349.3L80.9 348.6 Z M 65.1 366.3L64.7 364.3L64.7 364.3L65.0 362.3L65.9 360.6L67.2 359.1L68.9 358.1L70.8 357.7L71.6 357.6L72.2 357.7L74.2 358.3L76.0 359.4L76.3 359.9L75.9 361.5L72.8 363.0L69.9 362.4L70.9 363.3L70.4 364.7L66.5 364.3L66.7 365.7L66.1 366.4 Z M 44.3 355.3L43.8 355.1L46.9 353.8L43.0 354.8L42.0 354.3L40.2 352.6L39.4 351.1L39.0 349.3L39.0 348.4L39.7 345.7L40.8 344.3L41.1 344.0L43.5 343.7L43.7 343.0L42.8 342.7L43.0 342.5L45.6 342.0L48.3 342.5L48.3 342.5L50.3 343.8L51.7 345.7L52.4 348.0L52.4 348.5L52.4 348.5L52.1 350.7L51.1 352.6L49.6 354.2L47.6 355.2L45.7 355.4 Z M 44.3 355.3 "/>
<path style=" stroke:none;fill-rule:nonzero;fill:#C2B855;fill-opacity:1;" d="M 81.8 240.3L82.9 240.4L82.9 240.4L81.8 240.4 Z M 81.8 240.3 "/>
















</g>
</svg>
