<?xml version="1.0" encoding="UTF-8"?>
<svg xmlns="http://www.w3.org/2000/svg" xmlns:xlink="http://www.w3.org/1999/xlink" width="378pt" height="504pt" viewBox="0 0 378 504" version="1.1">
<g id="data">
<rect x="0" y="0" width="378" height="504" style="fill:rgb(100%,100%,100%);fill-opacity:1;stroke:none;"/>
<path style=" stroke:none;fill-rule:nonzero;fill:rgb(100%,100%,100%);fill-opacity:1;" d="M 21 504L357 504L357 0L21 0 Z M 21 504 "/>
<path style=" stroke:none;fill-rule:nonzero;fill:rgb(77.6%,78.8%,62.3%);fill-opacity:1;" d="M 218.7 311.1L220.7 310.8L220.7 310.8L222.8 311.0L224.6 311.9L226.2 313.3L226.5 313.7L226.5 313.8L226.5 313.8L226.5 313.8L226.6 313.9L226.6 313.9L226.6 313.9L226.6 314.0L226.6 314.0L226.7 314.0L226.7 314.1L226.7 314.1L226.7 314.1L226.8 314.2L226.8 314.2L226.8 314.2L226.9 314.3L226.9 314.3L226.9 314.3L227.0 314.3L227.0 314.4L227.1 314.4L227.1 314.4L227.1 314.5L227.2 314.5L227.2 314.5L227.2 314.6L227.3 314.6L227.3 314.6L227.3 314.6L227.4 314.7L227.5 314.8L227.5 314.8L227.6 314.8L227.6 314.8L227.6 314.8L227.7 314.8L227.7 314.9L227.7 314.9L227.8 314.9L227.8 314.9L227.9 314.9L227.9 315.0L228.0 315.0L228.0 315.0L228.0 315.0L228.1 315.0L228.1 315.1L228.3 315.1L228.4 315.1L228.4 315.1L228.4 315.1L228.5 315.2L228.5 315.2L228.5 315.2L228.6 315.2L228.6 315.2L228.7 315.2L228.8 315.2L228.8 315.2L228.9 315.2L228.9 315.2L228.9 315.2L229.0 315.2L229.0 315.2L229.0 315.2L229.1 315.3L229.2 315.3L229.2 315.3L229.3 315.3L229.4 315.3L229.5 315.3L229.5 315.2L229.6 315.2L229.6 315.2L229.6 315.2L229.7 315.2L229.7 315.2L229.8 315.2L229.8 315.2L229.8 315.2L229.9 315.2L229.9 315.2L230.0 315.2L230.0 315.2L230.1 315.2L230.1 315.1L230.2 315.1L230.2 315.1L230.2 315.1L230.4 315.0L230.5 315.0L230.5 315.0L230.6 315.0L230.6 315.0L230.7 314.9L230.7 314.9L230.7 314.9L230.8 314.9L230.8 314.9L230.8 314.9L230.9 314.8L230.9 314.8L230.9 314.8L231.0 314.8L231.0 314.8L231.1 314.7L231.1 314.7L231.2 314.7L231.2 314.6L231.2 314.6L231.3 314.6L231.3 314.6L231.3 314.6L231.3 314.5L231.4 314.5L231.4 314.5L231.5 314.4L231.5 314.4L231.5 314.4L231.6 314.3L231.7 314.2L231.7 314.2L231.8 314.2L231.8 314.1L231.8 314.1L231.8 314.1L231.9 314.0L231.9 314.0L231.9 314.0L231.9 313.9L232.0 313.9L232.0 313.9L232.0 313.8L232.0 313.8L232.0 313.8L232.1 313.7L233.5 312.2L235.4 311.2L237.4 310.8L237.4 310.8L239.6 311.0L241.6 312.0L243.1 313.6L244.1 315.6L244.4 317.4L244.4 317.5L244.4 317.6L244.4 317.7L244.4 317.7L244.4 317.7L244.4 317.8L244.4 317.8L244.4 317.8L244.4 317.9L244.4 317.9L244.4 318L244.4 318.0L244.4 318.1L244.5 318.1L244.5 318.2L244.5 318.2L244.5 318.3L244.5 318.3L244.5 318.4L244.5 318.4L244.5 318.4L244.6 318.6L244.6 318.7L244.6 318.7L244.6 318.7L244.7 318.8L244.7 318.8L244.7 318.9L244.7 318.9L244.7 319.0L244.8 319.0L244.8 319.0L244.8 319.1L244.8 319.1L244.9 319.2L244.9 319.2L244.9 319.3L245.0 319.3L245.0 319.4L245.0 319.4L245.0 319.5L245.1 319.5L245.1 319.5L245.1 319.6L245.2 319.6L245.2 319.7L245.3 319.7L245.3 319.8L245.3 319.8L245.3 319.8L245.4 319.9L245.4 319.9L245.5 319.9L245.5 319.9L245.5 320.0L245.6 320.1L245.7 320.1L245.7 320.1L245.7 320.1L245.7 320.2L245.8 320.2L245.8 320.2L245.8 320.2L245.9 320.2L246.0 320.3L246.0 320.3L246.0 320.3L246.1 320.4L246.1 320.4L246.1 320.4L246.2 320.4L246.2 320.5L246.2 320.5L246.3 320.5L246.3 320.5L246.3 320.5L246.4 320.6L246.4 320.6L246.5 320.6L246.6 320.6L246.6 320.6L246.8 320.7L246.8 320.7L246.9 320.7L246.9 320.7L246.9 320.7L247.0 320.7L247.0 320.7L247.1 320.8L247.1 320.8L247.2 320.8L247.2 320.8L247.2 320.8L247.3 320.8L247.3 320.8L247.3 320.8L247.4 320.8L247.4 320.8L247.5 320.8L247.5 320.8L247.6 320.8L247.6 320.8L247.7 320.8L247.8 320.8L247.8 320.8L249.5 321.1L251.1 321.7L251.1 321.7L251.2 321.8L251.2 321.8L251.3 321.8L251.3 321.8L251.3 321.8L251.4 321.9L251.4 321.9L251.5 321.9L251.5 321.9L251.5 321.9L251.6 322L251.6 322.0L251.6 322.0L251.9 322.0L251.9 322.1L251.9 322.1L252.0 322.1L252.1 322.1L252.1 322.1L252.1 322.1L252.2 322.1L252.2 322.1L252.3 322.1L252.3 322.1L252.4 322.1L252.4 322.2L252.5 322.2L252.5 322.2L252.5 322.2L252.6 322.2L252.6 322.2L252.7 322.2L252.9 322.2L253.0 322.2L253.0 322.2L253.0 322.2L253.1 322.2L253.1 322.2L253.2 322.2L253.2 322.1L253.3 322.1L253.3 322.1L253.3 322.1L253.4 322.1L253.4 322.1L253.4 322.1L253.5 322.1L253.5 322.1L253.5 322.1L253.6 322.1L253.7 322.1L253.7 322.0L253.9 322.0L254.0 322.0L254.0 322L254.0 321.9L254.1 321.9L254.1 321.9L254.1 321.9L254.2 321.9L254.2 321.9L254.2 321.8L254.3 321.8L254.3 321.8L254.3 321.8L254.4 321.8L254.4 321.8L254.4 321.7L254.5 321.7L256.0 321.1L257.6 320.8L257.6 320.8L258.1 320.8L258.1 320.8L259.7 321.1L261.2 321.7L262.7 322.9L263.8 324.5L264.5 326.4L264.5 326.4L264.6 327.7L264.4 329.1L264.4 329.1L264.3 329.2L264.3 329.2L264.3 329.3L264.3 329.3L264.3 329.4L264.3 329.4L264.3 329.5L264.3 329.5L264.3 329.5L264.3 329.6L264.3 329.6L264.3 329.7L264.3 329.7L264.3 329.8L264.3 329.8L264.3 329.9L264.3 330.0L264.3 330.1L264.3 330.1L264.3 330.1L264.3 330.2L264.3 330.2L264.3 330.3L264.3 330.3L264.3 330.4L264.3 330.4L264.3 330.4L264.3 330.5L264.3 330.5L264.3 330.6L264.4 330.6L264.4 330.7L264.4 330.8L264.4 330.8L264.4 330.9L264.5 331.0L264.5 331.0L264.5 331.0L264.5 331.1L264.5 331.1L264.5 331.1L264.6 331.2L264.6 331.2L264.6 331.3L264.6 331.3L264.6 331.3L264.6 331.4L264.6 331.4L264.7 331.5L264.7 331.5L264.7 331.5L264.7 331.6L264.8 331.6L264.8 331.7L264.8 331.8L264.9 331.8L264.9 331.8L264.9 331.8L264.9 331.9L265.0 331.9L265.0 331.9L265.0 332.0L265.0 332.0L265.0 332.0L265.1 332.1L265.1 332.1L265.2 332.2L265.2 332.2L265.2 332.2L265.3 332.3L265.4 332.4L265.4 332.4L265.5 332.5L266.9 334.1L267 334.2L267.0 334.3L267.0 334.3L267.0 334.3L267.1 334.3L267.1 334.4L267.1 334.4L267.1 334.4L267.2 334.5L267.2 334.5L267.3 334.7L267.4 334.7L267.4 334.8L267.5 334.8L267.5 334.8L267.5 334.9L267.6 334.9L267.7 335.0L267.8 335.0L267.8 335.1L267.8 335.1L267.8 335.1L267.9 335.1L267.9 335.2L268.0 335.2L268.1 335.3L269.6 336.5L269.6 336.6L269.7 336.6L269.7 336.6L269.7 336.7L269.7 336.7L269.8 336.7L269.8 336.8L269.8 336.8L269.9 336.8L269.9 336.9L270 336.9L270.0 336.9L270.0 337.0L270.1 337.0L270.1 337.0L270.1 337.0L270.2 337.0L270.2 337.1L270.2 337.1L270.4 337.2L270.4 337.2L270.5 337.2L270.5 337.3L270.6 337.3L270.6 337.3L270.6 337.3L270.7 337.3L270.7 337.4L270.7 337.4L270.8 337.4L270.8 337.4L270.8 337.4L270.9 337.4L270.9 337.5L271.1 337.5L271.2 337.5L271.2 337.5L271.2 337.6L271.3 337.6L271.4 337.6L271.4 337.6L271.5 337.6L271.5 337.6L271.5 337.6L271.6 337.6L271.7 337.6L271.7 337.6L271.8 337.6L271.9 337.7L274.2 338.3L276.1 339.7L277.5 341.7L278.0 344.3L278.0 344.3L278.0 344.5L278.0 344.5L278.0 344.5L278.0 344.6L278.0 344.6L278.0 344.6L278.0 344.7L278.0 344.7L278.0 344.8L278.0 344.8L278.0 344.8L278.0 344.9L278.0 344.9L278.0 344.9L278.1 345.0L278.1 345.1L278.1 345.2L278.1 345.2L278.1 345.2L278.1 345.3L278.2 345.4L278.2 345.4L278.2 345.5L278.2 345.5L278.2 345.5L278.2 345.6L278.2 345.6L278.3 345.7L278.3 345.7L278.3 345.7L278.3 345.8L278.3 345.8L278.3 345.8L278.3 345.9L278.4 345.9L278.4 345.9L278.4 346.0L278.4 346.0L278.4 346.0L278.5 346.0L278.5 346.1L278.6 346.2L278.6 346.2L278.6 346.3L278.6 346.3L278.6 346.3L278.7 346.4L278.7 346.4L278.7 346.4L278.7 346.4L278.8 346.5L278.8 346.5L278.8 346.6L278.8 346.6L278.9 346.6L278.9 346.6L278.9 346.7L279 346.7L279.0 346.7L279.0 346.8L279.0 346.8L279.1 346.8L279.1 346.8L279.1 346.9L279.2 346.9L279.2 346.9L279.3 347.0L279.3 347.0L279.3 347.0L279.4 347.1L279.4 347.1L279.4 347.1L279.5 347.1L279.5 347.2L279.6 347.2L279.7 347.3L279.7 347.3L279.7 347.3L279.8 347.3L279.8 347.3L279.8 347.4L279.9 347.4L279.9 347.4L280.0 347.4L280.0 347.4L280.0 347.4L280.1 347.5L280.2 347.5L280.2 347.5L280.2 347.5L280.3 347.5L280.3 347.5L280.3 347.5L280.4 347.6L280.4 347.6L280.4 347.6L280.5 347.6L280.5 347.6L280.5 347.6L280.6 347.6L280.6 347.6L280.7 347.6L280.8 347.7L280.8 347.7L280.8 347.7L280.9 347.7L280.9 347.7L280.9 347.7L281.0 347.7L281.0 347.7L281.1 347.7L281.1 347.7L281.1 347.7L281.2 347.7L281.2 347.7L281.2 347.7L281.4 347.7L281.4 347.7L282.4 347.8L282.5 347.8L282.5 347.8L282.6 347.8L282.6 347.8L282.6 347.8L282.7 347.8L282.7 347.8L282.8 347.8L282.8 347.8L282.9 347.8L282.9 347.8L283.2 347.8L283.2 347.8L283.2 347.8L283.3 347.8L283.3 347.8L283.3 347.8L283.4 347.8L283.4 347.8L283.5 347.8L283.5 347.8L283.6 347.8L283.6 347.8L284.0 347.7L286.9 348.1L287.0 348.1L287.0 348.1L287.2 348.2L287.2 348.2L287.3 348.2L287.3 348.2L287.4 348.2L287.5 348.2L287.5 348.2L287.6 348.2L287.6 348.3L287.7 348.3L287.7 348.3L287.8 348.3L287.8 348.3L287.8 348.3L287.9 348.3L287.9 348.3L288.0 348.3L288.0 348.3L288.1 348.3L288.1 348.3L288.2 348.3L288.3 348.3L288.3 348.3L288.3 348.3L288.4 348.3L288.4 348.3L288.5 348.3L288.5 348.3L288.6 348.2L288.6 348.2L288.7 348.2L288.7 348.2L288.8 348.2L288.8 348.2L288.9 348.2L288.9 348.2L289.0 348.2L289.0 348.1L289.1 348.1L289.1 348.1L289.1 348.1L289.2 348.1L289.2 348.1L289.2 348.1L291.2 347.7L291.4 347.7L293.4 348.0L295.2 348.8L296.7 350.3L297.7 352.1L298.1 354.1L298.1 354.3L298.1 354.3L298.1 355.3L298.1 355.5L298.1 355.6L298.0 355.6L298.0 355.7L298.0 355.7L298.0 355.8L298.0 355.8L298.0 355.9L298.0 355.9L298.0 355.9L298.0 356.0L298.0 356.2L298.0 356.3L298.0 356.3L298.0 356.3L298.0 356.4L298.0 356.4L298.0 356.5L298.0 356.6L298.0 356.6L298.1 356.6L298.1 356.7L298.1 357.0L295.4 355.8L297.8 359.7L297.0 361.5L295.6 363.1L293.7 364.1L293.6 364.1L293.6 364.2L293.5 364.2L293.5 364.2L293.4 364.2L293.4 364.2L293.3 364.3L293.3 364.3L293.2 364.3L293.2 364.3L293.2 364.4L293.1 364.4L293.1 364.4L293.0 364.5L293.0 364.5L292.9 364.5L292.8 364.6L292.8 364.6L292.8 364.6L292.8 364.6L292.7 364.6L292.7 364.6L291.7 363.4L285.2 367.6L286.6 368.6L290.6 366.7L291.0 370.0L291.0 370.3L290.9 370.4L290.9 370.4L290.9 370.5L290.9 370.6L290.9 370.6L290.9 370.7L290.8 370.7L290.8 370.8L290.8 370.8L290.8 370.8L290.8 370.9L290.8 371.0L290.8 371.0L290.8 371.0L290.8 371.1L290.8 371.1L290.8 371.1L290.7 371.2L290.7 371.2L290.7 371.2L290.7 371.3L290.7 371.3L290.7 371.4L290.7 371.4L290.7 371.4L290.7 371.5L290.7 371.7L290.7 371.7L290.7 371.8L290.7 371.8L290.7 371.8L290.7 371.9L290.7 371.9L290.7 372L290.7 372.0L290.8 372.0L290.8 372.0L287.6 374.8L284.3 374.5L280.1 375.9L278.2 377.9L281.7 376.4L285.5 376.9L286.1 378.1L284.2 378.1L282.4 379.3L282.9 380.0L290.6 381.6L298.0 380.1L298.1 380.5L298.1 382.0L297.8 383.5L297.8 383.6L297.7 383.6L297.7 383.7L297.7 383.7L297.7 383.7L297.7 383.8L297.7 383.8L297.7 383.8L297.7 383.9L297.6 384.0L297.6 384.1L297.6 384.1L297.6 384.2L297.6 384.2L297.6 384.3L297.6 384.3L297.6 384.4L297.6 384.4L297.6 384.5L297.6 384.5L297.6 384.6L297.6 384.6L297.6 384.7L297.6 384.8L297.6 384.9L297.6 384.9L297.6 384.9L297.6 385.0L297.6 385.0L297.6 385.0L297.6 385.1L297.6 385.1L297.6 385.1L297.6 385.2L297.6 385.2L297.6 385.3L297.6 385.3L297.7 385.4L297.7 385.4L297.7 385.5L297.7 385.5L297.7 385.6L297.7 385.6L297.7 385.6L297.8 385.8L298.0 386.5L298.1 387.8L298.1 389.0L298.1 389.1L298.1 389.2L298.0 389.2L298.0 389.3L298.0 389.4L298.0 389.4L298.0 389.4L298.0 389.5L298.0 389.5L298.0 389.5L298.0 389.6L298.0 389.8L298.0 389.9L298.0 389.9L298.0 389.9L298.0 390.0L298.0 390.0L298.0 390.1L298.0 390.2L298.0 390.2L298.1 390.2L298.1 390.3L294.3 392.3L292.8 394.4L292.8 396.8L288.2 396.8L285.5 399.4L278.2 401.9L275.7 404.6L263.9 401.7L254.0 403.6L251.1 405.7L248.4 404.0L249.5 402.9L248.0 401.5L242.6 401.4L243.5 402.8L242.8 403.9L238.4 403.4L232.2 405.9L224.1 406.4L221.6 405.6L220.7 407.1L223.7 408.1L223.6 410.7L221.2 411.1L216.5 409.9L216.3 409.8L215.1 408.4L215.1 408.2L215.1 408.2L215.0 408.1L215.0 408.1L215.0 408.1L214.9 408.1L214.9 408.0L214.9 408.0L214.9 407.9L214.8 407.9L214.7 407.8L214.7 407.8L214.7 407.7L214.6 407.7L214.6 407.6L214.5 407.6L214.5 407.6L214.4 407.5L214.4 407.5L214.3 407.4L214.3 407.4L214.3 407.4L214.2 407.3L214.2 407.3L214.2 407.3L214.1 407.3L214.0 407.2L214.0 407.2L211.9 405.1L211.8 405.1L211.8 405.0L211.8 405.0L211.8 405.0L211.7 404.9L211.7 404.9L211.7 404.9L211.7 404.8L211.6 404.8L211.6 404.8L211.6 404.7L211.6 404.7L211.5 404.6L211.5 404.6L211.5 404.6L211.3 404.5L211.3 404.4L211.3 404.4L211.2 404.3L211.2 404.3L211.1 404.3L211.1 404.2L211.0 404.2L211.0 404.2L211.0 404.2L210.9 404.1L210.9 404.1L210.7 404.0L210.7 404.0L210.6 404.0L210.6 403.9L210.6 403.9L210.5 403.9L210.5 403.9L210.5 403.9L210.4 403.8L210.4 403.8L210.3 403.8L210.3 403.8L210.3 403.8L210.2 403.8L210.2 403.8L210.2 403.7L210.0 403.7L210.0 403.7L209.9 403.6L209.8 403.6L209.8 403.6L209.7 403.6L209.7 403.6L209.7 403.6L209.6 403.6L209.6 403.6L209.6 403.6L209.5 403.6L209.5 403.6L209.4 403.6L209.4 403.6L209.4 403.6L209.3 403.6L209.3 403.5L209.3 403.5L209.2 403.5L209.1 403.5L209.1 403.5L209.0 403.5L208.9 403.5L208.9 403.5L208.8 403.5L208.8 403.5L208.7 403.5L208.7 403.6L208.6 403.6L208.6 403.6L208.6 403.6L208.5 403.6L208.5 403.6L208.4 403.6L208.4 403.6L208.4 403.6L208.3 403.6L208.3 403.6L208.2 403.6L208.2 403.6L208.1 403.7L208.1 403.7L208.0 403.7L207.9 403.7L207.8 403.8L207.8 403.8L207.8 403.8L207.7 403.8L207.7 403.8L207.7 403.8L207.6 403.8L207.6 403.8L207.6 403.9L207.5 403.9L207.5 403.9L207.5 403.9L207.4 403.9L207.4 404L207.3 404.0L206.1 404.5L206.0 404.6L206 404.6L205.9 404.6L205.9 404.6L205.8 404.6L205.8 404.6L205.8 404.6L205.7 404.6L205.7 404.7L205.7 404.7L205.6 404.7L205.6 404.7L205.5 404.7L205.5 404.7L205.5 404.8L205.4 404.8L205.4 404.8L205.4 404.8L205.3 404.8L205.1 405.0L205.1 405.0L205.0 405.0L205.0 405.1L204.9 405.1L204.9 405.1L204.9 405.2L204.8 405.2L204.8 405.2L204.8 405.2L204.7 405.3L204.7 405.3L204.7 405.3L204.6 405.4L204.6 405.4L204.5 405.5L204.5 405.5L204.5 405.5L204.5 405.6L204.4 405.6L204.4 405.7L204.3 405.7L204.3 405.8L204.3 405.8L204.3 405.8L204.2 405.9L204.2 405.9L204.2 405.9L204.1 406.0L204.1 406.1L204.1 406.1L204.1 406.1L204.0 406.2L204.0 406.2L204.0 406.3L204.0 406.3L204.0 406.3L203.9 406.4L203.9 406.4L203.9 406.4L203.9 406.5L203.9 406.5L203.9 406.6L203.8 406.7L203.8 406.7L200.7 405.5L193.0 407.6L188.4 410.1L185.3 418L184.0 418.3L183.4 418.3L181.3 417.7L179.5 416.6L179.4 416.5L179.4 416.5L179.3 416.5L179.3 416.4L179.2 416.4L179.2 416.4L179.2 416.4L179.1 416.3L179.1 416.3L179.1 416.3L178.9 416.1L178.8 416.1L178.8 416.1L178.8 416.1L178.7 416.1L178.7 416.1L178.7 416.0L178.6 416.0L178.5 416.0L178.5 416.0L178.5 416.0L178.4 415.9L178.4 415.9L178.4 415.9L178.3 415.9L178.3 415.9L178.2 415.9L178.2 415.9L178.2 415.9L178.1 415.8L178.1 415.8L178.0 415.8L178.0 415.8L178.0 415.8L177.9 415.8L177.9 415.8L177.9 415.8L177.8 415.8L177.7 415.8L177.7 415.7L177.7 415.7L177.6 415.7L177.6 415.7L177.6 415.7L177.5 415.7L177.5 415.7L177.5 415.7L177.4 415.7L177.4 415.7L177.3 415.7L177.0 415.7L177.0 415.7L177.0 415.7L176.9 415.7L176.8 415.7L176.8 415.7L176.7 415.7L176.7 415.7L176.7 415.7L176.6 415.8L176.6 415.8L176.6 415.8L176.5 415.8L176.5 415.8L176.4 415.8L176.3 415.8L176.3 415.8L176.3 415.8L176.2 415.8L176.2 415.9L176.2 415.9L176.1 415.9L176.1 415.9L176.1 415.9L176.0 415.9L176.0 415.9L176.0 415.9L175.9 416.0L175.9 416.0L175.8 416.0L175.8 416.0L175.7 416.0L175.7 416.1L175.7 416.1L175.6 416.1L175.6 416.1L175.6 416.1L175.5 416.1L175.3 416.3L175.3 416.3L175.2 416.3L175.2 416.4L175.2 416.4L175.1 416.4L175.1 416.4L175.1 416.4L175.0 416.5L175.0 416.5L175.0 416.5L174.9 416.6L173.9 417.3L173.9 417.3L172.3 418.0L170.7 418.2L170.6 418.1L169.7 418.2L169.4 418.2L169.3 418.2L169.3 418.2L169.2 418.2L169.2 418.2L169.1 418.1L169.1 418.1L169.0 418.1L169.0 418.1L169.0 418.1L168.9 418.1L168.8 418.1L168.7 418.1L168.7 418.1L168.6 418.1L168.6 418.1L168.6 418.1L168.5 418.1L168.5 418.1L168.4 418.2L168.4 418.2L168.3 418.2L168.3 418.2L168.2 418.2L167.5 418.3L165.9 418.2L164.9 417.9L164.8 417.9L164.8 417.9L164.7 417.8L164.7 417.8L164.7 417.8L164.6 417.8L164.5 417.8L164.5 417.8L164.4 417.8L164.4 417.8L164.3 417.7L164.3 417.7L164.2 417.7L164.2 417.7L164.2 417.7L164.1 417.7L164.0 417.7L164.0 417.7L164.0 417.7L163.9 417.7L163.9 417.7L163.9 417.7L163.6 417.7L163.6 417.7L163.6 417.7L163.5 417.7L163.5 417.7L163.5 417.7L163.4 417.7L163.3 417.7L163.3 417.7L163.3 417.7L163.2 417.7L163.2 417.7L163.2 417.7L163.1 417.8L163.1 417.8L163.1 417.8L163.0 417.8L163.0 417.8L162.9 417.8L162.9 417.8L162.8 417.8L162.8 417.8L162.7 417.9L162.6 417.9L159.8 418.2L159.8 418.2L159.2 418.2L159.2 418.2L157.1 417.4L155.3 415.9L155.3 415.9L154.9 415.4L154.1 413.8L153.7 412.1L153.7 411.0L153.9 410.3L156.4 409.6L157.4 406.9L162.1 402.6L163.0 394.8L163.2 394.8L163.2 394.8L163.3 394.8L163.3 394.8L163.4 394.8L163.4 394.7L163.5 394.7L163.5 394.7L163.6 394.7L163.6 394.7L163.6 394.7L163.7 394.7L163.7 394.7L163.8 394.7L163.8 394.7L163.8 394.7L163.9 394.6L163.9 394.6L164.1 394.6L164.1 394.6L164.1 394.6L164.2 394.5L164.2 394.5L164.2 394.5L164.3 394.5L164.4 394.5L164.4 394.4L164.5 394.4L164.5 394.4L164.6 394.4L164.6 394.3L164.7 394.3L164.7 394.3L164.7 394.3L168.3 394.7L170.6 392.1L170.5 391.4L171.6 391.5L171.6 391.5L171.7 391.5L171.7 391.5L171.7 391.5L171.8 391.5L171.9 391.5L172 391.5L172.0 391.5L172.0 391.5L172.3 391.5L172.3 391.5L172.3 391.5L172.4 391.5L172.4 391.5L172.5 391.5L172.5 391.5L172.5 391.5L172.6 391.5L172.6 391.5L172.7 391.5L172.7 391.5L173.7 391.4L173.7 391.4L175.3 391.6L176.8 392.1L178.3 393.1L179.5 394.5L179.5 394.5L179.5 394.6L179.6 394.6L179.6 394.6L179.6 394.6L179.6 394.7L179.6 394.7L179.7 394.7L179.7 394.8L179.7 394.8L179.8 394.8L179.8 394.9L179.8 394.9L179.9 395.0L179.9 395.0L179.9 395.0L179.9 395.0L180.0 395.1L180.1 395.2L180.1 395.2L180.1 395.2L180.2 395.3L180.2 395.3L180.2 395.3L180.3 395.3L180.3 395.4L180.3 395.4L180.4 395.4L180.4 395.4L180.4 395.4L180.5 395.5L180.5 395.5L180.5 395.5L180.5 395.5L180.6 395.5L180.6 395.6L180.7 395.6L180.7 395.6L180.7 395.6L180.8 395.7L180.8 395.7L180.8 395.7L180.9 395.7L180.9 395.7L180.9 395.7L181.0 395.8L181.0 395.8L181.0 395.8L181.1 395.8L181.1 395.8L181.1 395.8L181.2 395.8L181.3 395.9L181.4 395.9L181.5 395.9L181.5 395.9L181.6 396.0L181.6 396.0L181.6 396.0L181.7 396.0L181.7 396.0L181.8 396.0L181.9 396.0L181.9 396.0L181.9 396.0L182.0 396.0L182.0 396.0L182.0 396.0L182.1 396.0L182.1 396.0L182.2 396.0L182.2 396.0L182.3 396.0L182.4 396.0L182.5 396.0L182.5 396.0L182.5 396.0L182.6 396.0L182.6 396.0L182.6 396.0L182.7 396.0L182.7 396.0L182.8 396.0L182.8 396.0L182.9 396.0L182.9 396.0L182.9 396.0L183.0 396.0L183.1 396.0L183.1 396L183.1 395.9L183.2 395.9L183.2 395.9L183.3 395.9L183.3 395.9L183.3 395.9L183.4 395.9L183.5 395.8L183.5 395.8L183.6 395.8L183.7 395.8L183.7 395.7L183.8 395.7L183.8 395.7L183.8 395.7L183.9 395.7L183.9 395.6L183.9 395.6L184.0 395.6L185.8 394.9L187.6 394.8L187.7 394.8L188.0 394.8L188.0 394.8L188.1 394.8L188.1 394.8L188.2 394.7L188.2 394.7L188.2 394.7L188.3 394.7L188.3 394.7L188.4 394.7L188.4 394.7L188.4 394.7L188.5 394.7L188.5 394.7L188.5 394.7L188.6 394.7L188.6 394.7L188.7 394.7L188.7 394.6L188.7 394.6L188.8 394.6L188.8 394.6L188.9 394.6L188.9 394.6L189.0 394.6L189.0 394.5L189.1 394.5L189.1 394.5L189.2 394.5L189.2 394.5L189.2 394.5L189.3 394.4L189.3 394.4L189.3 394.4L189.4 394.4L189.4 394.4L189.4 394.4L189.5 394.3L189.5 394.3L189.6 394.3L189.7 394.2L189.7 394.2L189.7 394.2L189.8 394.1L189.8 394.1L189.9 394.1L189.9 394.1L189.9 394.0L190.0 394.0L190.0 393.9L190.1 393.9L190.1 393.9L190.1 393.9L190.2 393.8L190.2 393.8L190.3 393.7L190.3 393.7L190.3 393.7L190.4 393.6L190.4 393.6L190.4 393.5L190.5 393.5L190.5 393.5L190.5 393.4L190.5 393.4L190.6 393.4L190.6 393.3L190.6 393.3L190.6 393.3L190.7 393.1L190.8 393.1L190.8 393.0L190.8 393.0L190.8 393.0L190.8 392.9L190.9 392.9L190.9 392.9L190.9 392.8L190.9 392.8L190.9 392.7L191.0 392.7L191.0 392.6L191.0 392.6L191.0 392.5L192.1 390.6L193.7 389.1L193.8 389.1L193.8 389.0L193.9 389.0L193.9 389.0L193.9 388.9L194.0 388.9L194.0 388.9L194.0 388.9L194.1 388.8L194.1 388.8L194.2 388.7L194.2 388.7L194.2 388.7L194.3 388.7L194.3 388.6L194.3 388.6L194.4 388.6L194.4 388.5L194.4 388.5L194.4 388.5L194.5 388.5L194.5 388.4L194.5 388.4L194.6 388.3L194.6 388.3L194.6 388.3L194.6 388.3L194.6 388.2L194.7 388.2L194.7 388.2L194.7 388.1L198.4 387.8L200.1 381.5L213.6 366.8L207.1 372.6L205.9 373.9L196.6 377.1L194.9 380.7L194.0 380.7L194.2 379.7L194.9 378.0L194.9 377.9L194.9 377.9L194.9 377.9L195.0 377.8L195.0 377.8L195.0 377.8L195.0 377.7L195.0 377.7L195.1 377.6L195.1 377.6L195.1 377.6L195.1 377.5L195.1 377.5L195.1 377.5L195.2 377.3L195.2 377.3L195.2 377.3L195.2 377.2L195.2 377.2L195.2 377.1L195.3 377.0L195.3 377.0L195.3 377L195.3 376.9L195.3 376.9L195.3 376.8L195.3 376.8L195.3 376.8L195.3 376.7L195.3 376.7L195.3 376.6L195.3 376.6L195.3 376.5L195.3 376.5L195.3 376.5L195.3 376.4L195.3 376.4L195.3 376.1L195.3 376.1L195.3 376.1L195.3 376.0L195.3 376.0L195.3 376.0L195.3 375.9L195.3 375.8L195.3 375.8L195.3 375.8L195.3 375.7L195.3 375.7L195.3 375.7L195.3 375.6L195.3 375.6L195.3 375.6L195.3 375.5L195.2 375.4L195.2 375.4L195.2 375.3L195.2 375.3L195.1 375.1L195.1 375.1L195.1 375.1L195.1 375.0L195.1 375.0L195.1 375.0L195.1 374.9L195.0 374.9L195.0 374.9L195.0 374.8L195.0 374.8L195.0 374.8L195.0 374.7L194.9 374.7L194.9 374.7L194.9 374.6L194.9 374.6L194.2 373.0L194.0 371.4L194.0 371.2L194.1 370.1L194.1 370.1L194.1 370.0L194.1 370.0L194.1 369.9L194.1 369.9L194.1 369.8L194.1 369.7L194.1 369.7L194.1 369.7L194.1 369.6L194.1 369.5L194.1 369.4L194.1 369.4L194.1 369.4L194.1 369.3L194.1 369.2L194.1 369.2L194.1 369.1L194.1 369.0L194.1 369.0L194.0 368.7L194.0 367.9L194.0 367.9L194.0 367.5L194.0 367.5L194.0 367.4L194.0 367.4L194.0 367.2L194.0 367.2L194.0 367.1L194.0 367.0L194.0 367.0L194.0 367.0L194.0 366.9L194.0 366.9L194.0 366.9L194.0 366.8L194.0 366.8L194.0 366.8L194.0 366.7L193.9 366.7L193.9 366.6L193.9 366.5L193.9 366.5L193.9 366.4L193.9 366.4L193.9 366.3L193.8 366.3L193.8 366.2L193.8 366.1L193.8 366.1L193.8 366.0L193.7 366.0L193.7 365.9L193.7 365.9L193.7 365.8L193.7 365.8L193.6 365.8L193.6 365.7L193.6 365.7L193.6 365.7L193.6 365.6L193.5 365.6L193.5 365.6L193.5 365.5L193.5 365.5L193.5 365.5L193.5 365.5L193.4 365.4L193.4 365.4L193.4 365.4L193.4 365.3L193.3 365.3L193.3 365.2L193.3 365.2L193.3 365.2L193.2 365.2L193.1 365.0L193.1 365.0L193.1 365.0L193.1 365.0L193.0 364.9L193.0 364.9L192.9 364.8L192.9 364.8L192.9 364.8L192.8 364.7L192.8 364.7L192.7 364.7L192.7 364.6L192.7 364.6L192.6 364.6L192.6 364.6L192.6 364.6L192.5 364.5L192.5 364.5L192.5 364.5L192.5 364.5L192.4 364.5L192.4 364.4L192.4 364.4L192.3 364.4L192.3 364.4L192.2 364.3L192.2 364.3L192.2 364.3L192.1 364.3L192.0 364.2L192.0 364.2L191.9 364.2L191.9 364.2L191.9 364.2L191.8 364.1L191.7 364.1L189.8 363.0L188.3 361.3L188.2 361.2L188.2 361.2L188.2 361.1L188.1 361.1L188.1 361.1L188.1 361.0L188.1 361.0L188.0 361.0L188.0 361.0L188.0 360.9L188.0 360.9L187.9 360.8L187.8 360.7L187.8 360.7L187.7 360.6L187.7 360.6L187.6 360.5L187.5 360.4L187.5 360.4L187.4 360.4L187.4 360.4L187.4 360.3L187.3 360.3L187.3 360.3L187.3 360.3L187.3 360.2L187.1 360.1L185.6 358.9L184.5 357.3L184.0 355.4L184.0 355.4L183.9 354.7L183.9 354.7L183.9 354.0L183.9 354.0L184.0 353.3L184.0 353.3L184.0 353.2L184.0 353.2L184.0 353.2L184.0 353.1L184.0 353.1L184.0 353.0L184.0 353.0L184.0 353L184.0 352.9L184.0 352.9L184.0 352.6L184.0 352.6L184.0 352.6L184.0 352.5L184.0 352.5L184.0 352.3L184.0 352.3L184.0 352.3L184.0 352.2L184.0 352.2L183.9 351.7L183.9 351.6L183.9 351.5L183.9 351.5L183.9 351.4L183.9 351.4L183.9 351.3L183.9 351.3L183.9 351.2L183.9 351.2L183.9 351.1L183.8 351.1L183.8 351.0L183.8 351.0L183.8 351.0L183.8 350.9L183.8 350.9L183.7 350.8L183.7 350.7L183.7 350.7L183.7 350.7L183.7 350.6L183.7 350.6L183.7 350.6L183.6 350.5L183.6 350.5L183.6 350.5L183.6 350.4L183.6 350.4L183.6 350.4L183.6 350.3L183.5 350.3L183.5 350.2L183.5 350.2L183.4 350.1L183.4 350.1L183.4 350.1L183.4 350.0L183.4 350.0L183.3 350.0L183.3 350.0L183.3 349.9L183.3 349.9L183.3 349.9L183.2 349.8L183.2 349.8L183.2 349.8L183.2 349.7L183.1 349.7L183.1 349.7L183.0 349.6L182.9 349.5L182.9 349.4L182.8 349.4L182.8 349.4L181.6 347.9L180.8 346.2L180.5 344.4L180.5 344.3L181.0 342.0L182.2 340.0L183.6 338.7L185.3 337.9L185.5 337.9L185.5 337.8L185.6 337.8L185.6 337.8L185.7 337.8L185.7 337.8L185.7 337.8L185.8 337.7L185.8 337.7L185.8 337.7L185.9 337.7L185.9 337.7L185.9 337.7L186.0 337.6L186.0 337.6L186.1 337.6L186.2 337.5L186.2 337.5L186.2 337.5L186.2 337.5L186.3 337.4L186.3 337.4L186.3 337.4L186.4 337.4L186.4 337.4L186.4 337.3L186.5 337.3L186.5 337.3L186.5 337.2L186.6 337.2L186.6 337.2L186.6 337.2L186.7 337.1L186.7 337.1L186.7 337.1L186.7 337.1L186.8 337.0L186.8 337.0L186.8 337.0L186.9 336.9L186.9 336.9L186.9 336.9L187.0 336.8L187.0 336.7L187.0 336.7L187.1 336.7L187.1 336.6L187.1 336.6L187.1 336.5L187.2 336.5L187.2 336.5L187.2 336.5L187.2 336.4L187.3 336.4L187.3 336.3L187.3 336.3L187.3 336.3L187.3 336.2L187.4 336.2L187.4 336.2L187.4 336.1L187.4 336.1L187.4 336.0L187.4 336.0L187.5 336.0L187.5 335.9L187.5 335.9L187.5 335.8L187.5 335.8L187.5 335.8L187.5 335.7L187.6 335.6L187.6 335.4L187.7 335.4L187.7 335.3L187.7 335.2L187.7 335.2L187.7 335.1L187.7 335.1L187.8 335.0L187.8 334.9L187.8 334.9L187.8 334.8L187.8 334.8L187.8 334.7L187.8 334.7L187.8 334.7L187.8 334.6L187.8 334.6L187.8 334.5L187.8 334.5L187.8 334.5L187.8 334.4L187.8 334.3L187.8 334.2L187.8 334.1L187.8 334.1L187.8 334.0L187.8 334.0L187.8 334.0L187.8 333.9L187.8 333.9L187.8 333.8L187.8 333.8L187.8 333.8L187.8 333.7L187.8 333.7L187.8 333.6L187.8 333.5L187.7 333.5L187.7 333.4L187.7 333.4L187.7 333.4L187.7 333.3L187.7 333.3L187.7 333.2L187.6 333.1L187.4 332.1L187.3 330.7L187.5 329.0L188.2 327.5L190.0 325.5L190.5 325.2L190.6 325.1L190.6 325.1L190.6 325.1L190.7 325.0L190.7 325.0L190.8 325.0L190.8 325.0L190.8 324.9L190.8 324.9L190.9 324.9L190.9 324.9L191.0 324.8L191.0 324.8L191.2 324.6L191.2 324.6L191.2 324.6L191.2 324.5L191.3 324.5L191.3 324.5L191.3 324.5L191.4 324.4L191.4 324.3L191.4 324.3L191.5 324.3L191.5 324.3L191.5 324.2L191.5 324.2L191.6 324.1L191.6 324.1L191.6 324.0L193.1 322.3L195.1 321.2L195.2 321.2L195.2 321.2L195.2 321.2L195.3 321.2L195.3 321.1L195.3 321.1L195.4 321.1L195.4 321.1L195.5 321.1L195.5 321.1L195.5 321.0L195.6 321.0L195.6 321.0L195.6 321.0L195.7 321.0L195.7 320.9L195.9 320.8L195.9 320.8L195.9 320.8L196.0 320.8L196.0 320.7L196.0 320.7L196.1 320.7L196.1 320.7L196.1 320.7L196.2 320.6L196.2 320.6L196.3 320.5L196.3 320.5L196.3 320.5L196.5 320.3L196.5 320.2L196.6 320.2L196.6 320.2L196.6 320.1L196.7 320.1L196.7 320.1L196.7 320.0L196.7 320.0L196.8 320L196.9 319.7L196.9 319.7L197.0 319.6L197.0 319.6L197.0 319.6L197.0 319.5L197.0 319.5L197.0 319.5L197.1 319.4L197.1 319.4L197.1 319.3L197.1 319.3L197.1 319.3L197.1 319.2L197.2 319.2L197.2 319.0L197.2 319.0L197.2 319L197.3 318.9L197.3 318.9L197.3 318.8L197.3 318.8L197.3 318.7L197.3 318.7L197.3 318.6L197.3 318.6L197.3 318.5L197.3 318.5L197.3 318.4L197.3 318.4L197.4 318.3L197.4 318.3L197.4 318.3L197.4 318.2L197.4 318.2L197.4 318.1L197.4 317.9L197.4 317.9L197.4 317.8L197.4 317.8L197.4 317.2L197.7 315.2L198.7 313.4L200.2 312.0L202.0 311.1L204.1 310.7L204.1 310.7L204.3 310.8L205.9 311.0L207.4 311.6L207.5 311.7L207.5 311.7L207.5 311.7L207.6 311.7L207.6 311.7L207.6 311.8L207.7 311.8L207.7 311.8L207.7 311.8L207.8 311.8L207.8 311.8L207.8 311.8L207.9 311.9L207.9 311.9L207.9 311.9L208.0 311.9L208.1 311.9L208.1 312.0L208.2 312.0L208.2 312.0L208.3 312.0L208.3 312.0L208.4 312.0L208.4 312.0L208.5 312.0L208.5 312.0L208.6 312.1L208.6 312.1L208.6 312.1L208.7 312.1L208.7 312.1L208.8 312.1L208.9 312.1L208.9 312.1L208.9 312.1L209.0 312.1L209.0 312.1L209.2 312.1L209.2 312.1L209.3 312.1L209.3 312.1L209.4 312.1L209.4 312.1L209.5 312.1L209.5 312.1L209.5 312.1L209.6 312.1L209.6 312.1L209.6 312.1L209.7 312.0L209.7 312.0L209.8 312.0L209.8 312.0L209.9 312.0L209.9 312.0L210.0 312.0L210.0 312.0L210.0 312.0L210.1 312.0L210.1 311.9L210.3 311.9L210.3 311.9L210.3 311.9L210.4 311.9L210.4 311.8L210.4 311.8L210.5 311.8L210.5 311.8L210.6 311.8L210.6 311.8L210.6 311.7L210.7 311.7L210.7 311.7L210.7 311.7L210.8 311.7L210.8 311.6L213.3 310.8L213.3 310.8L214.6 310.8L214.6 310.8L216.4 311.1L216.5 311.2L216.5 311.2L216.6 311.2L216.6 311.2L216.7 311.2L216.8 311.2L216.8 311.3L216.9 311.3L217.0 311.3L217.0 311.3L217.0 311.3L217.1 311.3L217.1 311.3L217.1 311.3L217.2 311.3L217.2 311.3L217.3 311.3L217.3 311.3L217.4 311.3L217.4 311.3L217.6 311.3L217.6 311.3L217.7 311.3L217.7 311.3L217.8 311.3L217.8 311.3L217.9 311.3L217.9 311.3L218 311.3L218.0 311.3L218.0 311.3L218.1 311.3L218.1 311.3L218.1 311.3L218.3 311.2L218.3 311.2L218.3 311.2L218.4 311.2L218.4 311.2L218.5 311.2L218.5 311.2L218.7 311.1 Z M 251.1 290.6L252.1 290.7L253.8 291.1L255.3 292.0L256.8 293.8L254.8 294.2L252.9 293.4L251.0 294.5L255.4 295.0L257.4 294.5L257.4 294.5L257.4 294.5L257.5 294.6L257.6 294.6L257.6 294.7L257.7 294.7L257.7 294.7L257.7 294.8L257.8 294.8L257.8 294.8L257.8 294.9L257.9 294.9L258.0 295L260.1 296.9L260.9 298.8L260.9 298.8L261.2 300.9L261.1 301.8L261.1 301.8L260.5 303.6L259.5 305.2L258.0 306.4L257.9 306.4L257.9 306.5L257.8 306.5L257.8 306.5L257.8 306.6L257.7 306.6L257.7 306.6L257.7 306.6L257.6 306.7L257.6 306.7L257.4 306.8L257.4 306.9L257.4 306.9L257.3 306.9L257.3 307.0L257.3 307.0L257.2 307.0L257.2 307.1L257.2 307.1L257.1 307.1L257.1 307.2L257.1 307.2L257.1 307.2L257.0 307.3L257.0 307.3L257.0 307.3L257.0 307.3L257 307.4L256.9 307.4L256.9 307.4L256.9 307.5L256.8 307.6L255.4 309.2L253.6 310.3L251.6 310.7L251.4 310.7L250.9 310.7L248.1 310.0L246.7 309.1L245.5 307.8L244.6 305.6L244.4 304.6L244.4 304.5L244.4 304.5L244.4 304.4L244.4 304.4L244.4 304.3L244.4 304.3L244.4 304.3L244.3 304.1L244.3 304.1L244.3 304.0L244.3 304.0L244.3 304.0L244.3 303.9L244.3 303.9L244.3 303.8L244.3 303.8L244.2 303.7L244.2 303.7L244.2 303.6L244.2 303.6L244.2 303.6L244.1 303.5L244.1 303.5L244.1 303.5L244.1 303.4L244.1 303.4L244.1 303.4L244.1 303.3L244.0 303.3L244.0 303.2L244.0 303.2L243.9 303.1L243.9 303.1L243.9 303.0L243.9 303.0L243.8 302.9L243.8 302.9L243.8 302.9L243.8 302.9L243.7 302.8L243.7 302.8L243.7 302.8L243.7 302.7L243.6 302.7L243.6 302.7L243.6 302.7L243.5 302.6L243.5 302.5L243.5 302.5L243.5 302.5L243.4 302.5L243.4 302.4L243.3 302.4L243.3 302.4L243.3 302.3L241.9 300.7L241.2 298.7L241.1 296.6L241.1 296.6L241.2 295.9L241.4 295.2L242.3 293.3L243.8 291.9L245.7 290.9L247.8 290.6L251.1 290.6 Z M 244.9 407.2L242.4 410.4L239.7 411.3L234.6 408.1L232.8 408.3L239.0 404.1L243.5 405.3 Z M 246.9 401.8L247.2 403.9L245.7 403.5 Z M 291.5 380.3L290.4 381.0L287.3 380.4L286.8 377.9L290.5 378.7 Z M 291.5 380.3 "/>
















</g>
</svg>
