<?xml version="1.0" encoding="UTF-8"?>
<svg xmlns="http://www.w3.org/2000/svg" xmlns:xlink="http://www.w3.org/1999/xlink" width="378pt" height="504pt" viewBox="0 0 378 504" version="1.1">
<g id="data">
<rect x="0" y="0" width="378" height="504" style="fill:rgb(100%,100%,100%);fill-opacity:1;stroke:none;"/>
<path style=" stroke:none;fill-rule:nonzero;fill:rgb(100%,100%,100%);fill-opacity:1;" d="M 21 504L357 504L357 0L21 0 Z M 21 504 "/>
<path style=" stroke:none;fill-rule:nonzero;fill:#C2B855;fill-opacity:1;" d="M 136.4 188.5L136.0 188.1L136.5 188.5 Z M 134.7 186.7L133.8 185.1L133.8 185.0L133.8 185.0L133.8 184.9L133.7 184.8L133.7 184.8L133.7 184.8L133.7 184.7L133.7 184.7L133.7 184.6L133.6 184.6L133.6 184.5L133.6 184.5L133.6 184.5L133.6 184.4L133.5 184.4L133.5 184.4L133.5 184.3L133.5 184.3L133.4 184.1L133.3 184.1L133.3 184.1L133.5 183.4L137.8 181.9L140.6 186.0L147.0 189.9L146.7 191.7L142.8 195.0L142.0 193.3L140.3 194.2L140.3 193.7L140.2 193.7L140.2 193.6L140.2 193.6L140.2 193.5L140.2 193.5L140.2 193.4L140.2 193.4L140.2 193.4L140.2 193.3L140.2 193.3L140.2 193.3L140.2 193.2L140.2 193.2L140.2 193.1L140.1 193.1L140.1 193.1L140.1 193.0L140.1 192.9L140.1 192.9L140.1 192.8L140.1 192.8L140.0 192.7L140.0 192.7L140.0 192.7L140.0 192.6L140.0 192.6L139.9 192.5L139.9 192.5L139.9 192.4L139.9 192.4L139.9 192.4L139.8 192.3L139.8 192.2L139.8 192.2L139.7 192.2L139.7 192.1L139.7 192.1L139.6 192.0L139.6 192.0L139.6 192.0L139.6 191.9L139.6 191.9L139.5 191.9L139.5 191.9L139.5 191.8L139.5 191.8L139.4 191.7L139.3 191.7L139.3 191.6L139.3 191.6L139.3 191.6L139.2 191.6L139.2 191.5L139.2 191.5L139.2 191.5L139.1 191.4L138.8 191.2L137.9 190.0L137.8 189.8L137.8 189.8L137.8 189.8L137.7 189.8L139.8 187.9L137.2 188.5 Z M 130.0 182.0L128.8 181.1L130.9 180.0 Z M 133.1 169.7L133.6 169.6L133.7 169.6L135.0 169.8L135.1 169.8L135.2 169.8L135.2 169.8L135.3 169.9L135.3 169.9L135.4 169.9L135.4 169.9L135.5 169.9L135.5 169.9L135.5 169.9L135.6 169.9L135.6 169.9L135.6 169.9L135.7 169.9L135.6 170.1L134.3 171.0 Z M 140.4 167.0L140.4 167.0L140.4 167.0L140.5 166.9L140.5 166.9L140.5 166.9L140.5 166.9L140.6 166.8L140.6 166.8L140.6 166.8L140.6 166.8L140.7 166.7L140.7 166.7L140.7 166.6L140.8 166.6L140.8 166.6L140.8 166.5L140.9 166.5L140.9 166.5L140.9 166.4L140.9 166.4L141 166.4L141.1 166.2L141.1 166.1L141.1 166.1L141.1 166.1L141.1 166.1L141.2 166.0L141.2 166.0L141.2 166.0L141.2 165.9L141.2 165.9L141.3 165.8L141.3 165.8L141.3 165.7L141.3 165.6L141.3 165.6L141.4 165.5L141.4 165.4L141.4 165.4L141.4 165.4L141.4 165.3L141.4 165.2L141.5 165.2L141.5 165.1L141.5 165.1L141.5 165.1L141.5 165.0L141.5 165.0L141.5 165.0L141.5 164.9L141.5 164.9L141.5 164.9L141.5 164.8L141.5 164.8L141.5 164.7L141.5 164.7L141.5 164.7L141.5 164.6L141.8 164.1L141.3 163.3L141.3 163.3L141.3 163.2L141.3 163.2L141.2 163.1L141.2 163.0L141.2 163.0L141.1 162.9L141.1 162.9L141.1 162.9L141.1 162.8L140.2 159.8L140.2 159.8L140.2 159.6L140.2 159.5L140.3 158.8L140.5 158.2L143.8 160.2L146.6 158.9L148.7 159.8L148.1 161.9L144.3 165.2L142.5 167.6L140.8 168.1 Z M 141.0 156.5L141.1 156.2L141.1 156.2L141.2 156.1L141.2 156.1L141.2 156.1L141.2 156.0L141.2 156.0L141.3 156.0L141.3 155.9L141.3 155.9L141.3 155.9L141.3 155.8L141.3 155.8L141.4 155.7L141.4 155.7L141.4 155.7L141.4 155.5L141.4 155.5L141.5 155.4L141.5 155.4L141.5 155.3L141.5 155.2L141.5 155.2L141.5 155.1L141.5 155.1L141.5 155.0L141.5 155.0L141.5 155.0L141.6 154.9L141.6 154.9L141.6 154.8L141.6 154.8L141.6 154.8L141.6 154.7L141.6 154.7L141.6 154.6L141.6 154.6L141.6 154.5L141.6 154.4L141.6 154.3L141.6 154.3L141.6 154.3L141.6 154.2L141.6 154.2L141.6 154.2L141.6 154.1L141.5 154.0L141.5 154.0L141.5 154.0L141.5 153.9L141.5 153.9L141.5 153.9L141.5 153.8L141.5 153.8L141.5 153.7L141.5 153.7L141.5 153.6L141.5 153.6L141.4 153.5L141.4 153.5L141.4 153.5L141.4 153.4L141.4 153.4L141.4 153.4L141.4 153.3L141.3 153.3L141.3 153.2L141.3 153.2L141.3 153.2L141.3 153.1L141.3 153.1L141.3 153.1L141.2 153.0L141.2 153.0L141.2 152.9L141.2 152.9L141.1 152.9L141.1 152.8L140.8 152.1L142.0 150.0L141.9 155.9 Z M 157.3 132.5L157.3 132.5L157.4 132.5L157.4 132.5L157.5 132.5L157.5 132.4L157.5 132.4L157.6 132.4L157.6 132.4L157.7 132.4L157.7 132.3L157.7 132.3L157.8 132.3L157.8 132.3L157.9 132.3L157.9 132.2L158.0 132.2L158.0 132.2L158.1 132.1L158.1 132.1L158.2 132.1L158.2 132.0L158.2 132.0L158.3 132.0L158.3 132.0L158.3 132L158.5 131.8L158.5 131.8L158.5 131.8L158.6 131.7L158.7 131.6L158.7 131.6L158.7 131.5L160.1 130.4L160.2 130.3L160.3 130.3L160.3 130.2L160.4 130.2L160.4 130.2L160.5 130.1L160.5 130.1L160.6 130.0L160.6 130.0L160.6 130.0L160.7 129.9L160.7 129.9L160.7 129.9L160.8 129.9L160.8 129.8L160.8 129.8L160.9 129.7L160.9 129.7L161.0 129.6L161.0 129.6L161.0 129.6L161.0 129.5L161.1 129.5L161.1 129.5L161.1 129.4L161.2 129.3L161.2 129.3L161.2 129.3L161.2 129.2L161.2 129.2L161.3 129.2L161.3 129.1L161.3 129.1L161.3 129.1L161.3 129.0L161.4 129.0L161.4 128.9L161.4 128.9L161.4 128.8L161.4 128.8L161.5 128.8L161.5 128.7L161.5 128.7L161.5 128.6L162.3 127.2L161.3 125.9L161.3 125.9L160.6 124.3L160.4 122.6L162.0 122.7L160.8 120.5L160.9 119.9L162.2 118.0L164.1 116.6L165.6 116.0L167.3 115.9L168.6 116.1L168.5 116.3L168.6 116.1L169.4 116.3L171.3 117.3L172.8 118.9L173.6 120.9L173.8 122.5L173.8 122.5L173.5 124.8L173.5 124.8L172.6 126.3L173.7 127.6L173.7 127.6L173.7 127.7L173.7 127.7L173.8 127.7L173.8 127.8L173.8 127.9L173.9 127.9L173.9 127.9L173.9 128.0L173.9 128.0L174.0 128.0L174.0 128.1L174.0 128.1L174.1 128.2L174.1 128.2L174.1 128.2L174.2 128.3L174.2 128.3L174.2 128.3L174.3 128.4L174.3 128.4L174.3 128.4L174.4 128.5L174.4 128.5L174.4 128.5L174.5 128.5L174.5 128.6L174.5 128.6L174.5 128.6L174.6 128.6L174.6 128.7L174.7 128.7L174.7 128.7L174.7 128.7L174.8 128.8L174.9 128.9L175 128.9L175.0 128.9L175.0 128.9L175.1 129.0L175.1 129.0L175.1 129.0L175.2 129.0L175.2 129.0L175.3 129.1L175.3 129.1L175.4 129.1L175.5 129.1L175.5 129.1L175.6 129.2L175.7 129.2L175.7 129.2L175.7 129.2L175.8 129.2L175.9 129.2L175.9 129.3L176.0 129.3L176.0 129.3L176.0 129.3L176.1 129.3L176.1 129.3L176.1 129.3L176.2 129.3L176.2 129.3L176.3 129.3L176.4 129.3L176.4 129.3L176.4 129.3L176.5 129.3L176.5 129.3L176.7 129.3L176.7 129.3L176.8 129.3L176.8 129.3L177.1 129.3L177.1 129.3L178.8 129.5L179.3 129.7L181.2 130.6L182.6 132.1L183.6 134.0L183.7 134.6L182.9 135.2L182.4 138.3L180.3 138.9L175 136.7L175.8 138.4L181.8 140.3L182.3 140.3L181.3 141.4L181.3 141.4L179.6 142.3L177.7 142.7L177.7 142.7L177.6 142.7L177.6 142.7L177.5 142.8L177.5 142.8L177.4 142.8L177.4 142.8L177.3 142.8L177.3 142.8L177.2 142.8L177.2 142.8L177.1 142.8L177.1 142.8L177.0 142.8L177.0 142.9L176.9 142.9L176.9 142.9L176.9 142.9L176.8 142.9L176.8 142.9L176.7 143.0L176.7 143.0L176.7 143.0L176.6 143.0L176.6 143.0L176.6 143.0L176.5 143.0L176.5 143.1L176.5 143.1L176.4 143.1L176.4 143.1L176.3 143.1L176.3 143.2L176.3 143.2L176.1 143.3L176.1 143.3L176.0 143.3L176.0 143.3L176.0 143.4L175.9 143.4L175.9 143.4L175.9 143.5L175.8 143.5L175.8 143.5L175.7 143.6L175.6 143.7L175.6 143.7L175.6 143.7L175.6 143.7L175.5 143.8L175.5 143.8L175.4 143.9L175.4 143.9L175.4 144.0L175.3 144.0L175.3 144.0L175.3 144.1L175.2 144.1L175.2 144.1L175.2 144.2L175.2 144.2L175.2 144.2L175.1 144.3L175.1 144.3L175.0 144.4L175.0 144.5L175.0 144.5L175.0 144.5L175.0 144.6L174.9 144.6L174.9 144.6L174.9 144.7L174.9 144.7L174.9 144.8L174.8 144.9L174.8 144.9L174.8 145.0L174.8 145.0L174.8 145.0L174.8 145.1L174.7 145.1L174.7 145.1L174.7 145.2L174.7 145.2L174.7 145.2L174.7 145.3L174.7 145.3L174.7 145.4L174.7 145.4L174.7 145.5L174.7 145.5L174.6 145.5L174.6 145.6L174.6 145.6L174.6 145.6L174.6 145.7L174.6 145.7L174.6 145.8L174.6 145.8L174.6 145.8L174.6 145.9L174.6 145.9L174.6 145.9L174.6 146.2L174.6 146.2L174.6 146.3L174.6 146.3L174.6 146.3L174.6 146.4L174.6 146.4L174.6 146.5L174.6 146.5L174.6 146.6L174.6 146.6L174.6 146.6L174.7 146.7L174.7 146.7L174.7 146.8L174.7 146.8L174.7 146.9L174.7 146.9L174.7 147.0L174.7 147.0L174.7 147.0L174.8 147.1L174.8 147.2L174.8 147.2L174.1 148.0L173.8 149.1L175.2 148.0L175.2 148.0L175.2 148.0L175.2 148.0L175.3 148.1L175.3 148.1L175.3 148.1L175.3 148.2L175.3 148.2L175.4 148.2L175.4 148.3L175.5 148.4L176.6 150.2L177.2 152.3L177.2 152.4L177.2 152.4L177.2 152.5L177.2 152.5L177.2 152.6L177.2 152.6L177.2 152.6L177.2 152.7L177.2 152.7L177.2 152.8L177.3 152.8L177.3 152.9L177.3 152.9L177.3 153.0L177.3 153.0L177.3 153.1L177.3 153.2L177.4 153.2L177.4 153.2L177.4 153.3L177.4 153.3L177.4 153.4L177.5 153.4L177.5 153.5L177.5 153.5L177.5 153.5L177.5 153.6L177.5 153.6L177.6 153.6L177.6 153.7L177.6 153.7L177.6 153.8L177.6 153.8L177.7 154L177.8 154.0L177.8 154.0L177.8 154.0L177.8 154.1L177.9 154.1L177.9 154.1L177.9 154.2L177.9 154.2L178.0 154.3L178.0 154.3L178.0 154.3L178.1 154.4L178.1 154.4L178.1 154.4L178.1 154.4L178.2 154.5L178.2 154.5L178.3 154.5L178.3 154.6L178.3 154.6L178.4 154.6L178.4 154.7L178.4 154.7L178.5 154.7L178.5 154.7L178.5 154.8L178.5 154.8L178.6 154.8L178.6 154.8L178.6 154.8L178.7 154.9L178.8 155.0L178.9 155.0L178.9 155.0L178.9 155.0L179.0 155.0L179.0 155.0L179.0 155.1L179.1 155.1L179.1 155.1L179.1 155.1L179.3 155.2L179.3 155.2L179.3 155.2L179.5 155.3L179.6 155.3L179.6 155.3L179.6 155.3L179.7 155.3L179.7 155.3L179.8 155.3L179.8 155.3L179.9 155.4L179.9 155.4L180.0 155.4L180.0 155.4L180.0 155.4L180.1 155.4L180.1 155.4L180.2 155.4L180.2 155.4L180.2 155.4L180.3 155.4L180.3 155.4L180.4 155.4L180.4 155.4L180.6 155.4L180.6 155.4L180.7 155.4L180.8 155.4L180.8 155.4L180.8 155.4L180.9 155.4L180.9 155.4L180.9 155.4L181.0 155.4L181.0 155.4L181.1 155.4L181.1 155.4L181.2 155.4L181.2 155.4L181.2 155.3L181.3 155.3L181.3 155.3L181.3 155.3L181.4 155.3L181.4 155.3L181.4 155.3L181.5 155.3L181.5 155.3L181.7 155.2L181.7 155.2L181.8 155.2L181.8 155.2L181.9 155.1L181.9 155.1L182.0 155.1L182.0 155.1L182.0 155.1L182.1 155.0L182.1 155.0L182.2 155.0L182.2 155.0L182.3 154.9L182.3 154.9L182.4 154.9L182.4 154.9L182.4 154.8L182.5 154.8L182.5 154.8L182.5 154.8L182.5 154.7L182.6 154.7L182.6 154.7L182.6 154.7L182.7 154.7L182.7 154.6L182.7 154.6L182.7 154.6L182.8 154.5L185.0 153.2L187.4 152.8L187.4 152.8L188.0 152.9L188.0 152.9L188.4 152.9L188.4 152.9L188.5 152.9L188.5 152.9L188.5 152.9L188.6 153.0L188.7 153.0L188.7 153.0L188.8 153.0L188.8 153.0L188.8 153.0L188.9 153.0L189.0 153.0L189.1 153.0L189.1 153.0L189.1 153.0L189.2 153.0L189.2 153.0L189.3 153.0L189.4 152.9L189.4 152.9L189.4 152.9L189.5 152.9L189.5 152.9L190.0 152.9L190.0 152.9L191.7 152.9L191.7 152.9L193.5 153.5L195.1 154.5L196.3 155.9L197.1 157.7L197.4 159.5L197.4 159.6L197.3 160.6L197.3 160.7L197.2 160.7L197.2 160.8L197.2 160.8L197.2 160.8L197.2 160.9L197.2 160.9L197.2 161.0L197.2 161.0L197.2 161.0L197.2 161.1L197.2 161.1L197.2 161.4L197.2 161.4L197.2 161.4L197.2 161.5L197.2 161.5L197.2 161.6L197.2 161.7L197.2 161.7L197.3 161.8L197.3 161.8L197.4 162.9L197.4 162.9L197.3 163.9L196.6 166.0L195.3 167.8L193.4 169.0L191.2 169.6L191.1 169.6L191.1 169.6L191.1 169.6L191.0 169.6L191.0 169.6L190.9 169.6L190.9 169.6L190.8 169.7L190.8 169.7L190.7 169.7L190.7 169.7L190.7 169.7L190.6 169.7L190.6 169.7L190.5 169.7L190.5 169.7L190.4 169.8L190.3 169.8L190.3 169.8L190.3 169.8L190.2 169.8L190.2 169.8L190.2 169.9L190.1 169.9L190.1 169.9L190.0 169.9L190.0 169.9L190 170.0L189.9 170.0L189.9 170.0L189.8 170.0L189.8 170.1L189.7 170.1L189.6 170.2L189.5 170.2L189.5 170.2L189.5 170.2L189.5 170.3L189.4 170.3L189.4 170.3L189.4 170.3L189.3 170.4L189.3 170.4L189.2 170.5L189.1 170.5L189.0 170.7L189.0 170.7L188.9 170.8L186.7 172.4L184.2 173.0L184.2 173.0L183.3 173.0L182.8 172.9L182.8 172.9L182.7 172.9L182.7 172.9L182.5 172.9L182.5 172.9L182.5 172.9L182.4 172.9L182.4 172.9L182.4 172.9L182.1 172.9L182.1 172.9L182.0 172.9L182.0 172.9L182.0 172.9L181.9 172.9L181.8 172.9L181.8 172.9L181.7 172.9L181.7 172.9L181.6 172.9L181.1 173.0L181.1 173.0L181.0 173.0L181.0 173.0L180.9 173.0L180.8 173.0L180.8 173.0L180.8 173.0L180.7 173.0L180.7 173.0L180.7 173.0L180.6 173.0L180.6 173.1L180.5 173.1L180.5 173.1L180.5 173.1L180.4 173.1L180.4 173.1L180.3 173.1L180.2 173.2L180.2 173.2L180.2 173.2L180.1 173.2L180.1 173.2L180.1 173.2L180.0 173.2L180.0 173.3L179.9 173.3L179.8 173.3L179.8 173.3L179.7 173.4L179.7 173.4L179.6 173.4L179.6 173.5L179.6 173.5L179.5 173.5L179.5 173.5L179.4 173.6L179.4 173.6L179.4 173.6L179.3 173.6L179.3 173.7L179.3 173.7L179.3 173.7L179.2 173.7L179.2 173.8L179.1 173.8L179.1 173.9L179.0 173.9L179.0 174.0L179.0 174.0L178.9 174.0L178.9 174.1L178.9 174.1L178.8 174.1L178.8 174.2L178.8 174.2L178.7 174.2L178.7 174.3L178.7 174.3L178.7 174.3L178.6 174.4L178.6 174.4L178.6 174.4L178.5 174.5L178.5 174.5L178.5 174.6L178.5 174.6L178.4 174.7L178.4 174.7L178.4 174.7L178.4 174.8L178.4 174.8L178.3 174.8L178.3 174.9L178.3 174.9L178.3 175.0L178.3 175.0L178.2 175.0L178.2 175.1L178.2 175.1L178.2 175.2L178.2 175.2L178.2 175.2L178.2 175.3L178.2 175.3L178.1 175.4L178.1 175.4L178.1 175.4L178.1 175.5L178.1 175.5L178.1 175.6L178.1 175.6L178.1 175.7L178.0 175.7L178.0 175.8L178.0 175.8L178.0 175.8L178.0 175.9L178.0 175.9L178.0 175.9L178.0 176.0L178.0 176.0L178.0 176.1L178.0 176.1L178.0 176.1L178.0 176.2L178.0 176.2L178.0 176.2L178.0 176.3L178.0 176.4L178.0 176.5L178.0 176.5L178.0 176.5L178.0 176.6L178.0 176.6L178.0 176.7L178.0 176.7L178.0 176.8L178.0 176.8L178.0 176.8L178.0 176.9L178.0 176.9L178.0 176.9L178.0 177.0L178.1 177.0L178.1 177.1L178.1 177.1L178.1 177.2L178.1 177.2L178.1 177.3L178.1 177.3L178.2 177.4L178.2 177.5L178.2 177.5L178.2 177.5L178.2 177.6L178.2 177.6L178.2 177.7L178.3 177.7L178.3 177.8L178.3 177.8L178.3 177.9L178.4 177.9L178.4 177.9L178.4 178.0L178.4 178.0L178.4 178.0L178.4 178.1L178.5 178.2L178.5 178.2L178.6 178.3L178.6 178.3L178.6 178.3L178.7 178.4L178.7 178.4L178.7 178.4L178.7 178.5L178.7 178.5L178.8 178.5L178.8 178.5L178.8 178.6L178.9 178.6L180.1 180.7L180.6 183.1L180.6 183.2L180.5 183.4L180.5 183.5L180.5 183.5L180.5 183.8L180.5 183.8L180.5 183.8L180.5 183.9L180.5 183.9L180.5 183.9L180.6 184.0L180.6 184.0L180.6 184.0L180.6 184.1L180.6 184.1L180.6 184.2L180.6 184.2L180.6 184.2L180.6 184.3L180.6 184.3L180.6 184.3L180.6 184.4L180.6 184.5L180.6 184.5L180.7 184.6L180.7 184.6L180.8 184.8L180.8 184.9L180.8 184.9L180.8 184.9L180.8 185.0L180.8 185.0L180.8 185.0L180.9 185.1L180.9 185.2L180.9 185.2L180.9 185.2L181.0 185.3L181.0 185.3L181.1 185.5L181.1 185.6L181.1 185.6L181.2 185.6L181.2 185.7L181.2 185.7L181.3 185.7L181.3 185.8L181.3 185.8L181.4 185.8L181.4 185.9L181.5 186.0L181.5 186.0L181.5 186.0L181.6 186.1L181.6 186.1L181.7 186.2L181.7 186.2L181.7 186.2L181.8 186.3L181.8 186.3L181.9 186.3L181.9 186.3L181.9 186.4L182.0 186.4L182.0 186.4L182.0 186.5L182.1 186.5L182.2 186.5L182.2 186.6L182.2 186.6L182.3 186.6L182.3 186.6L182.3 186.6L182.4 186.6L182.4 186.7L182.4 186.7L182.5 186.7L182.5 186.7L182.6 186.7L182.6 186.8L182.6 186.8L182.7 186.8L182.7 186.8L182.7 186.8L183 186.9L183.0 186.9L183.0 186.9L183.1 186.9L183.1 186.9L183.1 186.9L183.2 186.9L183.2 186.9L183.3 187L183.3 187.0L183.4 187.0L183.4 187.0L183.5 187.0L183.5 187.0L183.6 187.0L183.6 187.0L183.6 187.0L183.7 187.0L183.7 187.0L183.8 187.0L183.8 187.0L183.9 187.0L184.5 187.1L185.0 186.8L185.0 186.8L187.3 186.4L190.3 187.1L192.1 188.4L193.3 190.3L194 192.4L193.8 194.7L192.9 196.8L191.4 198.5L188.6 199.7L187.3 199.9L187.3 199.9L186.7 199.8L186.2 200.1L186.1 200.1L186.1 200.1L186.0 200.1L186.0 200.1L186.0 200.1L185.9 200.1L185.9 200.2L185.9 200.2L185.8 200.2L185.8 200.2L185.8 200.2L185.7 200.2L185.7 200.3L185.7 200.3L185.6 200.3L185.6 200.3L185.6 200.3L185.5 200.4L185.5 200.4L185.5 200.4L185.4 200.4L185.3 200.5L185.3 200.5L185.3 200.5L185.2 200.6L185.2 200.6L185.2 200.6L185.1 200.6L185.1 200.7L185.0 200.7L185.0 200.8L185.0 200.8L184.9 200.9L184.8 200.9L184.8 201.0L184.8 201.0L184.7 201.0L184.7 201.1L184.6 201.1L184.6 201.2L184.6 201.2L184.6 201.2L184.5 201.3L184.5 201.3L184.5 201.3L184.5 201.4L184.3 201.6L184.3 201.6L184.3 201.6L184.3 201.7L184.3 201.7L184.2 201.8L184.2 201.8L184.2 201.9L184.2 201.9L184.2 201.9L184.2 202.0L184.1 202.0L184.1 202.0L184.1 202.2L184.1 202.2L184.0 202.3L184.0 202.3L184.0 202.4L184.0 202.4L184.0 202.5L184.0 202.5L184.0 202.6L184.0 202.6L184.0 202.7L184 202.7L183.9 202.8L183.9 202.8L183.9 202.8L183.9 202.9L183.9 202.9L183.9 202.9L183.9 203.0L183.9 203.0L183.9 203.0L183.9 203.1L183.9 203.1L183.9 203.2L183.9 203.3L183.9 203.3L183.7 205.0L183.0 206.7L181.4 208.5L179.3 209.6L177.0 210L177.0 210L175.9 209.8L175.0 209.6L174.8 209.5L174.8 209.5L174.7 209.5L174.7 209.5L174.7 209.5L174.6 209.5L174.5 209.5L174.5 209.4L174.4 209.4L174.4 209.4L174.3 209.4L174.3 209.4L174.3 209.4L174.2 209.4L174.2 209.4L174.1 209.4L174.1 209.4L174.1 209.4L174.0 209.4L174.0 209.4L173.9 209.4L173.7 209.4L173.7 209.4L173.6 209.4L173.6 209.4L173.6 209.4L173.5 209.4L173.5 209.4L173.4 209.4L173.4 209.4L173.4 209.4L173.3 209.4L173.3 209.4L173.2 209.4L173.1 209.5L173.1 209.5L173.0 209.5L173.0 209.5L172.9 209.5L172.9 209.5L172.8 209.5L172.8 209.5L172.8 209.5L172.7 209.6L170.8 209.9L170.8 209.9L170.5 210L170.1 209.9L169.9 209.9L167.8 209.4L166.0 208.3L166.0 208.2L165.9 208.2L165.9 208.2L165.8 208.1L165.8 208.1L165.8 208.1L165.8 208.1L165.7 208.0L165.7 208.0L165.7 208.0L165.6 208.0L165.4 207.8L165.4 207.8L165.4 207.8L165.3 207.8L165.3 207.8L165.3 207.7L165.2 207.7L165.2 207.7L165.2 207.7L165.1 207.7L165.0 207.6L165.0 207.6L165 207.6L164.9 207.6L164.9 207.6L164.8 207.6L164.8 207.6L164.8 207.5L164.7 207.5L164.7 207.5L164.6 207.5L164.6 207.5L164.5 207.5L164.5 207.5L164.4 207.5L164.4 207.4L164.3 207.4L164.3 207.4L164.2 207.4L164.2 207.4L164.2 207.4L164.1 207.4L164.1 207.4L164.0 207.4L164.0 207.4L164.0 207.4L163.9 207.4L163.9 207.4L163.9 207.4L163.6 207.4L163.6 207.4L163.6 207.4L163.5 207.4L163.5 207.4L163.5 207.4L163.4 207.4L163.3 207.4L163.3 207.4L163.3 207.4L163.2 207.4L163.2 207.4L163.1 207.4L163.1 207.5L163.0 207.5L162.9 207.5L162.9 207.5L162.9 207.5L162.8 207.5L162.8 207.5L163.5 203.3L161.6 208.2L161.6 208.2L161.5 208.2L161.5 208.3L160.5 209.0L159.3 209.6L159.2 209.6L159.2 209.6L159.2 209.6L159.1 209.6L159.1 209.6L159.1 209.7L159.0 209.7L159.0 209.7L159.0 209.7L158.9 209.7L158.9 209.7L158.9 209.7L158.8 209.8L158.8 209.8L158.7 209.8L158.7 209.8L158.7 209.9L158.5 210L158.5 210.0L158.4 210.0L158.4 210.0L158.4 210.0L158.4 210.1L158.3 210.1L158.3 210.1L158.3 210.1L158.2 210.2L158.2 210.2L158.1 210.2L158.1 210.3L158.1 210.3L158.0 210.4L157.9 210.4L157.9 210.5L157.9 210.5L157.9 210.5L157.8 210.5L157.8 210.6L157.7 210.7L157.7 210.7L157.7 210.7L157.7 210.7L157.7 210.8L157.6 210.8L157.6 210.8L157.6 210.9L157.6 210.9L156.0 209.9L154.9 210.8L155.1 213.7L153.1 212.7L152.4 210.6L153.3 206.8L155.7 202.8L161.8 197.2L154.9 202.7L151.5 207.0L150.7 206.5L151.3 216.4L149.1 219.9L147.1 219.2L145.7 218.1L146.5 215.8L145.2 213.9L145.4 210.0L147.8 205.4L145.6 207.7L145.5 207.0L149.4 200.1L147.5 200.8L148.3 194.7L151.7 190.8L155.9 190.9L158.3 188.3L159.2 186.3L156.3 190.2L152.3 189.1L152.8 187.6L155.5 186.4L153.4 186.7L152.8 185.2L158.6 176.8L146.5 188.3L141.5 185.1L140.0 182.5L149.5 180.9L145.2 180.0L141.9 181.2L136.3 180.7L135.5 179.2L136.5 178.1L141.4 177.2L143.4 178.8L144.6 177.1L143.6 175.6L147.5 174.4L146.1 173.2L142.3 173.2L144.9 168.8L148.2 170.4L150.7 169.6L148.5 169.9L145.5 167.4L146.8 165.1L150.6 166.2L153.4 165.7L150.4 165.1L148.4 163.3L148.6 160.6L150.6 159.9L153.5 161.0L150.3 158.8L149.8 157.1L153.0 153.9L146.4 156.5L145.4 155.6L144.6 151.2L145.4 147.7L149.1 150.4L152.0 149.5L148.8 148.9L146.2 145.4L146.4 138.5L146.8 137.2L148.5 136.8L150.6 140.7L151.2 138.4L150.0 136.6L150.7 134.9L153.7 137.5L154.3 135.9L156.1 135.3L160.7 138.1L159.2 134.4 Z M 157.2 211.7L157.2 211.7L157.2 211.8L157.2 211.8L157.1 211.8L157.1 211.9L157.1 211.9L157.1 212.0L157.1 212.0L157.1 212.1L157.1 212.1L157.1 212.2L157.1 212.2L157.1 212.2L157.0 212.3L157.0 212.3L157.0 212.3L157.0 212.4L157.0 212.5L157.0 212.5L157.0 212.5L157.0 212.6L157.0 212.6L157.0 212.6L157.0 212.9L157.0 212.9L157.0 213.0L157.0 213.6L156.9 214.5L155.3 211.9L155.9 210.2 Z M 154.5 218.5L154.1 218.9L152.2 219.8L151.1 219.8L151.1 219.4L153.0 217.7 Z M 141.3 210.1L140.9 209.5L140.2 207.0L140.2 206.6L140.4 204.9L140.5 204.7L145.3 201.0L145.5 202.7 Z M 190.6 112.5L190.6 112.5L192.7 112.8L194.6 113.8L196.0 115.2L197.0 117.1L197.4 119.1L197.4 119.2L197.0 121.4L195.9 123.4L195.7 123.4L195.3 123.9L194.2 124.9L192.0 125.8L191.3 125.9L191.3 125.9L190.9 125.9L190.9 125.9L188.6 125.6L186.7 124.7L185.2 123.2L184.2 121.3L183.9 119.2L183.9 119.1L183.9 119.1L184.3 117.1L185.2 115.3L186.7 113.8L188.5 112.8L190.6 112.5 Z M 145.9 200.4L144.7 200.7L145.9 199.4 Z M 147.5 197.3L146.7 199.8L146.8 197.0 Z M 148.0 194.8L147.2 196.8L146.8 195.5 Z M 149.8 191.5L148.9 192.7L148.6 191.6 Z M 138.6 171.8L137.4 173.7L136.4 172.3L137.8 170.8 Z M 143.1 157.5L142.7 158.6L141.4 157.2 Z M 143.0 147.5L142.7 149.7L142.3 148.8 Z M 143.0 147.5 "/>
<path style=" stroke:none;fill-rule:nonzero;fill:#C2B855;fill-opacity:1;" d="M 41.9 355.0L41.9 355.0L41.9 355.0L41.8 355.0L41.8 354.9L41.8 354.9L41.8 354.9L41.8 354.8L41.8 354.8L41.8 354.7L41.8 354.7L41.7 354.6L41.7 354.6L41.7 354.5L41.7 354.5L41.7 354.5L41.6 354.4L41.6 354.4L41.6 354.4L41.6 354.3L41.6 354.3L41.5 354.3L41.5 354.2L41.4 354.1L41.4 354.0L41.4 354.0L41.4 354.0L41.3 353.9L41.3 353.9L41.3 353.9L41.3 353.9L41.3 353.8L41.2 353.7L41.2 353.7L41.1 353.7L41.1 353.7L41.1 353.6L41.0 353.5L39.8 352.0L39.7 351.7L39.0 348.9L39.0 348.9L39.2 346.9L40.1 345.0L40.8 344.2L41.1 344.0L43.5 343.7L43.7 343.0L42.8 342.7L43.2 342.5L45.2 342.0L45.3 342.0L45.9 342.0L47.3 342.2L47.4 342.2L47.4 342.2L47.5 342.2L47.6 342.3L47.6 342.3L47.7 342.3L47.7 342.3L47.8 342.3L47.8 342.3L47.9 342.3L47.9 342.3L48.0 342.3L48.0 342.3L48.0 342.3L48.1 342.3L48.1 342.3L48.2 342.3L48.3 342.3L48.3 342.3L48.4 342.3L48.4 342.3L48.4 342.3L48.5 342.3L49.3 342.3L49.3 342.3L51.5 342.8L51.5 342.8L53.3 343.8L54.7 345.3L55.5 347.2L55.8 349.2L55.7 350.2L55.6 350.6L55.5 350.9L55.5 350.9L55.5 351L55.5 351.0L55.5 351.1L55.5 351.1L55.5 351.2L55.5 351.2L55.5 351.3L55.5 351.3L55.5 351.3L55.5 351.4L55.4 351.5L55.4 351.5L55.5 351.6L55.5 351.6L55.5 351.7L55.5 351.7L55.5 351.7L55.5 351.8L55.5 352.4L55.5 352.4L54.9 355.1L54.9 355.1L54.9 355.2L54.9 355.2L54.8 355.3L54.8 355.3L54.8 355.4L54.8 355.4L54.8 355.5L54.3 356.4L54.8 357.8L54.8 357.9L54.9 360.0L54.2 362.1L52.9 363.9L51.1 365.1L49.0 365.7L48.3 365.8L48.3 365.8L46.4 365.5L44.7 364.8L46.4 363.8L44.2 364.4L43.3 363.6L48.7 361.1L49.2 360.4L49.1 359.7L47.8 359.2L45.4 360.5L41.8 361.0L41.5 360L41.5 359.9L41.6 358.1L41.6 358.1L41.8 357.0L41.8 357.0L42.3 356.1L43.3 355.3L46.9 353.8 Z M 41.9 355.0 "/>
















</g>
</svg>
