<?xml version="1.0" encoding="UTF-8"?>
<svg xmlns="http://www.w3.org/2000/svg" xmlns:xlink="http://www.w3.org/1999/xlink" width="378pt" height="504pt" viewBox="0 0 378 504" version="1.1">
<g id="data">
<rect x="0" y="0" width="378" height="504" style="fill:rgb(100%,100%,100%);fill-opacity:1;stroke:none;"/>
<path style=" stroke:none;fill-rule:nonzero;fill:rgb(100%,100%,100%);fill-opacity:1;" d="M 21 504L357 504L357 0L21 0 Z M 21 504 "/>
<path style=" stroke:none;fill-rule:nonzero;fill:rgb(77.6%,78.8%,62.3%);fill-opacity:1;" d="M 270.9 381.3L270.9 381.3L271.7 381.3L272.4 381.4L272.4 381.4L272.5 381.4L272.5 381.4L272.5 381.4L272.6 381.4L272.7 381.4L272.7 381.4L272.8 381.4L272.8 381.4L272.9 381.4L272.9 381.5L273.0 381.5L273.0 381.4L273.1 381.4L273.1 381.4L273.2 381.4L273.2 381.4L273.3 381.4L273.4 381.4L273.4 381.4L273.5 381.4L273.5 381.4L274.2 381.3L274.2 381.3L274.4 381.3L275.7 381.4L275.8 381.4L275.8 381.4L275.9 381.4L275.9 381.4L276.0 381.4L276.0 381.4L276.1 381.4L276.1 381.4L276.1 381.4L276.2 381.4L276.3 381.5L276.4 381.5L276.4 381.4L276.5 381.4L276.5 381.4L276.5 381.4L276.6 381.4L276.7 381.4L276.7 381.4L276.8 381.4L276.8 381.4L276.9 381.4L278.1 381.3L278.1 381.3L280.3 381.7L282.2 382.8L283.7 384.5L283.8 384.6L283.8 384.6L283.8 384.7L283.8 384.7L283.8 384.7L283.9 384.7L283.9 384.8L283.9 384.8L283.9 384.8L284.0 384.9L284.0 384.9L284.0 384.9L284.0 385.0L284.1 385.0L284.1 385.1L284.2 385.1L284.2 385.1L284.2 385.2L284.2 385.2L284.3 385.2L284.3 385.2L284.3 385.3L284.4 385.3L284.4 385.3L284.4 385.3L284.5 385.4L284.6 385.4L284.6 385.5L284.6 385.5L284.6 385.5L284.7 385.5L284.7 385.6L284.8 385.6L284.8 385.6L284.8 385.6L284.9 385.7L287.1 387.9L287.1 388.0L287.1 388.0L287.2 388.1L287.2 388.1L287.3 388.1L287.3 388.2L287.3 388.2L287.3 388.2L287.4 388.3L287.4 388.3L287.5 388.4L287.5 388.4L287.5 388.4L287.5 388.5L287.6 388.5L287.6 388.5L287.7 388.6L287.7 388.7L287.8 388.7L287.8 388.7L287.9 388.8L287.9 388.8L287.9 388.8L287.9 388.8L288.0 388.8L288.0 388.9L288.0 388.9L288.1 388.9L288.1 388.9L288.1 389.0L288.2 389.0L288.2 389.0L290.0 390.6L290.9 392.1L291.4 393.9L291.4 394.1L291.1 396.7L291.1 396.8L288.2 396.8L285.5 399.4L278.2 401.9L275.7 404.6L263.9 401.7L254.0 403.6L252.8 402.6L252.8 402.5L252.7 402.5L252.7 402.5L252.6 402.4L252.6 402.4L252.6 402.3L252.5 402.3L252.5 402.3L252.4 402.2L252.3 402.1L252.3 402.1L252.3 402.1L252.3 402.1L252.2 402.1L252.2 402.0L252.2 402.0L252.1 402.0L252.0 401.9L252.0 401.9L251.9 401.9L251.9 401.8L251.9 401.8L251.8 401.8L251.8 401.8L251.7 401.8L251.7 401.7L251.7 401.7L251.6 401.7L251.6 401.7L251.5 401.7L251.5 401.7L251.5 401.6L251.4 401.6L251.3 401.6L251.2 401.6L251.2 401.6L251.1 401.5L251.0 401.5L251.0 401.5L251.0 401.5L250.9 401.5L250.9 401.5L250.8 401.5L250.8 401.5L250.7 401.5L250.7 401.5L250.6 401.5L250.5 401.4L249.0 401.1L246.9 400.0L245.4 398.3L245.4 398.2L245.3 398.1L245.3 398.1L245.2 398.0L245.2 398.0L245.2 398.0L245.1 397.9L245.1 397.9L245.0 397.8L245.0 397.8L245.0 397.7L244.8 397.6L244.8 397.5L244.8 397.5L244.7 397.4L244.6 397.4L244.6 397.4L244.6 397.3L244.5 397.3L244.5 397.3L244.5 397.3L244.4 397.3L244.4 397.2L244.4 397.2L244.3 397.2L244.2 397.1L242.5 395.5L241.4 393.5L241.0 391.1L241.0 391.0L241.0 391.0L241.0 390.9L241.0 390.7L241.0 390.7L241.0 390.6L241.0 390.6L241.0 390.6L241.0 390.5L241.0 390.5L241.0 390.5L241.0 390.4L241.0 390.3L241.0 390.3L241.0 390.3L241.0 390.2L241.0 390.2L241.0 390.2L241.0 390.1L241.0 390.1L240.9 390.0L240.9 390.0L240.9 389.9L240.9 389.9L240.9 389.8L240.8 389.7L240.8 389.6L240.8 389.6L240.8 389.6L240.8 389.5L240.7 389.4L240.7 389.4L240.7 389.3L240.7 389.3L240.6 389.2L240.6 389.2L240.6 389.1L240.6 389.1L240.5 389.0L240.5 389.0L240.5 388.9L240.4 388.9L240.4 388.9L240.4 388.8L240.3 388.8L240.3 388.7L240.3 388.7L240.2 388.6L240.2 388.6L240.2 388.6L240.1 388.5L240.1 388.5L240.1 388.5L240.1 388.5L240.0 388.4L239.9 388.3L239.9 388.3L239.9 388.3L239.9 388.3L239.8 388.2L239.8 388.2L239.7 388.2L239.7 388.1L239.7 388.1L239.6 388.1L239.6 388.1L239.6 388.1L239.5 388.0L239.4 388L239.4 387.9L239.4 387.9L239.3 387.9L239.3 387.9L239.2 387.8L239.2 387.8L239.2 387.8L239.1 387.8L239.1 387.8L239.1 387.8L239.0 387.7L239.0 387.7L238.9 387.7L238.9 387.7L238.8 387.7L238.8 387.6L237.0 386.7L235.5 385.2L234.6 383.3L234.3 381.1L234.3 380.8L234.5 379.8L234.5 379.8L235.3 377.8L236.7 376.1L238.6 375.0L240.7 374.6L240.7 374.6L242.1 374.7L242.2 374.7L242.2 374.7L242.3 374.7L242.3 374.7L242.4 374.7L242.4 374.7L242.5 374.7L242.5 374.7L242.5 374.7L242.6 374.7L242.8 374.7L242.9 374.7L242.9 374.7L242.9 374.7L243.0 374.7L243.0 374.7L243.1 374.7L243.2 374.7L243.2 374.7L243.2 374.7L243.3 374.7L244.4 374.6L244.4 374.6L245.5 374.7L245.5 374.7L245.6 374.7L245.6 374.7L245.7 374.7L245.7 374.7L245.8 374.7L245.8 374.7L245.9 374.7L245.9 374.7L245.9 374.7L246.2 374.7L246.2 374.7L246.3 374.7L246.3 374.7L246.3 374.7L246.4 374.7L246.4 374.7L246.5 374.7L246.6 374.7L246.6 374.7L246.7 374.7L247.2 374.6L247.2 374.6L247.3 374.6L247.3 374.6L247.4 374.6L247.4 374.6L247.5 374.6L247.5 374.6L247.6 374.6L247.6 374.6L247.7 374.5L247.7 374.5L247.8 374.5L247.8 374.5L247.8 374.5L247.9 374.5L247.9 374.5L248.1 374.4L248.1 374.4L248.1 374.4L248.2 374.4L248.2 374.4L248.2 374.4L248.3 374.3L248.3 374.3L248.3 374.3L248.4 374.3L248.4 374.3L248.4 374.3L248.5 374.3L248.5 374.2L248.5 374.2L248.6 374.2L248.6 374.2L248.7 374.1L248.8 374.1L248.8 374.0L248.8 374.0L248.9 374.0L248.9 374.0L248.9 374.0L249.0 373.9L249.0 373.9L249.0 373.9L249.0 373.9L249.1 373.8L249.2 373.8L249.2 373.7L249.2 373.7L249.3 373.7L249.3 373.6L249.4 373.6L249.4 373.5L249.4 373.5L249.5 373.5L251.1 372.1L252.7 371.5L254.5 371.2L255.4 371.3L255.4 371.3L257.6 372.0L259.5 373.5L259.5 373.5L259.6 373.6L259.6 373.6L259.6 373.6L259.7 373.6L259.7 373.7L259.7 373.7L259.7 373.7L259.8 373.8L259.8 373.8L259.9 373.9L259.9 373.9L260.0 373.9L260.0 373.9L260.0 374.0L260.0 374.0L260.1 374.0L260.1 374.0L260.2 374.1L260.3 374.1L260.3 374.2L260.4 374.2L260.4 374.2L260.4 374.2L260.4 374.2L260.5 374.3L260.5 374.3L260.5 374.3L260.6 374.3L260.6 374.3L260.6 374.3L260.7 374.3L260.7 374.4L260.7 374.4L260.8 374.4L260.8 374.4L260.8 374.4L261.0 374.5L261.0 374.5L261.0 374.5L261.1 374.5L261.1 374.5L261.2 374.5L261.2 374.5L261.2 374.5L261.3 374.5L261.3 374.6L261.4 374.6L261.4 374.6L261.5 374.6L261.5 374.6L261.5 374.6L261.6 374.6L261.6 374.6L261.6 374.6L261.7 374.6L261.7 374.6L261.8 374.6L263.8 375.1L265.6 376.2L266.7 377.5L267.5 379.0L267.6 379.1L267.6 379.2L267.6 379.2L267.6 379.3L267.6 379.3L267.6 379.3L267.6 379.4L267.7 379.4L267.7 379.5L267.7 379.5L267.7 379.5L267.7 379.6L267.8 379.6L267.8 379.6L267.8 379.7L267.8 379.7L267.9 379.7L267.9 379.8L267.9 379.8L267.9 379.9L268.0 379.9L268.0 380.0L268.0 380.0L268.0 380.0L268.1 380.0L268.1 380.1L268.1 380.1L268.2 380.2L268.2 380.2L268.2 380.2L268.3 380.3L268.3 380.3L268.4 380.4L268.4 380.4L268.4 380.5L268.5 380.5L268.5 380.5L268.6 380.6L268.6 380.6L268.6 380.6L268.6 380.6L268.7 380.6L268.7 380.7L268.7 380.7L268.8 380.7L268.8 380.7L268.8 380.8L269.0 380.9L269.1 380.9L269.1 380.9L269.1 380.9L269.2 381.0L269.2 381.0L269.2 381.0L269.3 381.0L269.3 381.0L269.3 381.0L269.4 381.1L269.4 381.1L269.5 381.1L269.5 381.1L269.5 381.1L269.6 381.1L269.7 381.2L269.7 381.2L269.8 381.2L269.8 381.2L269.8 381.2L269.9 381.2L269.9 381.2L269.9 381.2L270.0 381.2L270.1 381.3L270.1 381.3L270.2 381.3L270.2 381.3L270.2 381.3L270.3 381.3L270.3 381.3L270.3 381.3L270.4 381.3L270.4 381.3L270.4 381.3L270.5 381.3L270.5 381.3L270.6 381.3L270.6 381.3L270.8 381.3L270.8 381.3L270.9 381.3 Z M 177.9 154.2L179.3 155.6L180.2 157.4L180.3 157.7L180.5 159.9L180.5 160.6L180.5 160.7L180.4 160.7L180.4 160.8L180.4 160.9L180.4 161.0L180.4 161.0L180.4 161.1L180.4 161.1L180.4 161.1L180.4 161.3L180.4 161.4L180.4 161.4L180.4 161.4L180.4 161.5L180.4 161.5L180.4 161.6L180.4 161.6L180.4 161.7L180.4 161.7L180.5 161.8L180.5 161.8L180.5 162.6L180.6 163.0L180.6 163.0L180.0 165.5L178.6 167.7L177.4 168.6L177.2 168.7L177.2 168.7L177.2 168.7L177.1 168.8L177.1 168.8L177.1 168.8L177.1 168.8L177.0 168.9L177.0 168.9L176.9 168.9L176.9 169.0L176.9 169.0L176.8 169.0L176.8 169.1L176.7 169.2L176.7 169.2L176.6 169.2L176.6 169.3L176.5 169.3L176.5 169.4L176.5 169.4L176.5 169.4L176.4 169.4L176.4 169.5L176.4 169.5L176.4 169.5L176.3 169.6L176.3 169.6L176.3 169.6L176.3 169.7L176.2 169.8L174.7 171.5L172.7 172.6L170.5 173.0L170.5 173.0L168.5 172.7L166.8 171.9L165.3 170.6L164.3 168.9L164.3 168.9L164.1 168.5L164.1 168.5L164.1 168.4L164.1 168.4L164.1 168.4L164.0 168.3L164.0 168.2L164.0 168.2L164.0 168.2L164.0 168.1L164.0 168.1L163.9 168.1L163.9 168.0L163.9 168.0L163.9 168.0L163.9 167.9L163.8 167.8L163.7 167.7L163.7 167.7L163.7 167.6L163.7 167.6L163.6 167.6L163.6 167.6L163.6 167.5L163.6 167.5L163.5 167.5L163.5 167.4L163.4 167.3L163.4 167.3L163.4 167.3L163.4 167.3L163.3 167.2L163.3 167.2L163.3 167.2L163.2 167.2L163.2 167.1L163.2 167.1L163.1 167.0L163.0 167.0L163.0 167.0L163.0 166.9L162.9 166.9L162.9 166.9L162.9 166.9L162.8 166.8L162.7 166.7L162.6 166.7L162.6 166.7L162.6 166.7L162.6 166.7L162.5 166.6L162.5 166.6L162.5 166.6L162.4 166.6L162.4 166.6L162.4 166.6L162.3 166.5L162.3 166.5L162.2 166.5L162.2 166.5L162.1 166.5L162.1 166.5L162.0 166.4L162.0 166.4L162.0 166.4L161.9 166.4L161.9 166.4L161.8 166.4L161.8 166.4L161.7 166.3L161.7 166.3L161.6 166.3L161.5 166.3L161.5 166.3L161.5 166.3L161.4 166.3L161.4 166.3L161.3 166.3L161.3 166.3L161.3 166.3L161.2 166.3L161.1 166.3L161.1 166.3L161.0 166.3L160.9 166.3L160.8 166.3L160.8 166.3L160.7 166.3L160.2 166.3L160.2 166.3L159.6 166.2L159.6 166.2L157.7 165.7L156.1 164.7L154.8 163.3L153.7 160.5L153.7 159.6L153.7 158.7L154.4 156.6L155.6 154.8L157.5 153.5L159.6 152.9L159.6 152.9L159.8 152.9L159.9 152.8L159.9 152.8L160.0 152.8L160.0 152.8L160.1 152.8L160.1 152.8L160.1 152.8L160.2 152.8L160.3 152.8L160.3 152.8L160.4 152.8L160.4 152.8L160.5 152.7L160.5 152.7L160.5 152.7L160.6 152.7L160.6 152.7L160.7 152.7L160.7 152.7L160.7 152.7L160.8 152.6L160.8 152.6L160.8 152.6L160.9 152.6L160.9 152.6L160.9 152.6L161.0 152.6L161.0 152.5L161.0 152.5L161.1 152.5L161.1 152.5L161.2 152.5L161.2 152.4L161.2 152.4L161.3 152.4L161.4 152.3L161.4 152.3L161.5 152.3L161.5 152.2L161.5 152.2L161.6 152.2L161.6 152.2L161.7 152.1L161.7 152.1L161.8 152.0L161.8 152.0L161.9 151.9L162.0 151.8L162.0 151.8L162.0 151.8L162.1 151.8L162.1 151.7L162.4 151.4L163.6 150.4L165.1 149.8L165.1 149.8L166.8 149.5L167.2 149.5L168.2 149.6L170.3 150.3L172.1 151.7L172.2 151.8L172.3 151.9L172.4 152.0L172.4 152.0L172.5 152.1L172.6 152.1L172.6 152.2L172.6 152.2L172.7 152.2L172.7 152.2L172.7 152.3L172.8 152.3L172.8 152.3L173.0 152.4L173.0 152.4L173.1 152.5L173.1 152.5L173.1 152.5L173.2 152.5L173.2 152.5L173.2 152.5L173.3 152.6L173.3 152.6L173.3 152.6L173.4 152.6L173.4 152.6L173.4 152.6L173.5 152.6L173.5 152.7L173.6 152.7L173.7 152.7L173.7 152.7L173.8 152.7L173.8 152.8L173.8 152.8L173.9 152.8L174.1 152.8L174.1 152.8L174.1 152.8L174.2 152.8L174.2 152.8L174.3 152.8L174.3 152.8L174.3 152.8L174.4 152.9L176.3 153.3L177.9 154.2 Z M 163.6 201.4L162.8 203.3L161.5 204.9L159.8 206.0L157.9 206.5L157.4 206.6L157.4 206.6L154.8 206.2L154.6 206.1L154.6 206.1L154.5 206.1L154.5 206.1L154.4 206.1L154.4 206.1L154.3 206.1L154.3 206.1L154.3 206.1L154.2 206.1L154.2 206.1L154.1 206.0L154.0 206.0L154.0 206.0L154.0 206.0L153.9 206.0L153.9 206.0L153.9 206.0L153.8 206.0L153.8 206.0L153.8 206.0L155.7 202.8L161.8 197.2L154.9 202.7L152.1 206.4L152.0 206.4L150.1 206.6L148.8 206.4L148.2 206.2L147.6 205.9L147.8 205.4L147.5 205.8L146.4 205.3L149.4 200.1L147.5 200.8L148.3 194.7L151.7 190.8L155.9 190.9L158.3 188.3L159.2 186.3L156.3 190.2L152.3 189.1L152.8 187.6L155.5 186.4L153.4 186.7L152.8 185.2L153.6 184.0L153.7 184.0L153.8 184.0L153.8 184.0L153.8 184.1L153.9 184.1L153.9 184.1L153.9 184.1L154.0 184.1L154.0 184.1L154.0 184.1L154.1 184.2L154.1 184.2L154.1 184.2L154.2 184.2L154.2 184.2L154.3 184.3L154.4 184.3L154.5 184.3L154.5 184.3L154.5 184.3L154.6 184.3L154.6 184.3L154.7 184.4L154.7 184.4L154.8 184.4L154.8 184.4L154.9 184.4L154.9 184.4L154.9 184.4L155.0 184.4L155.0 184.4L155.1 184.4L155.1 184.4L155.1 184.4L155.2 184.4L155.3 184.4L155.3 184.4L155.4 184.4L155.4 184.4L155.5 184.4L155.6 184.4L155.6 184.4L155.6 184.4L155.7 184.4L155.7 184.4L155.7 184.4L155.8 184.4L155.8 184.4L155.9 184.4L155.9 184.4L156.0 184.4L156.0 184.3L156.1 184.3L156.2 184.3L156.2 184.3L156.2 184.3L156.3 184.3L156.4 184.3L156.5 184.2L156.5 184.2L156.6 184.2L156.6 184.2L156.6 184.2L156.7 184.1L156.7 184.1L156.8 184.1L156.8 184.1L156.9 184.1L156.9 184.0L156.9 184.0L157.0 184.0L157.0 184.0L157.1 184L158.6 183.3L160.3 183.1L161.6 183.2L163.8 184.0L165.6 185.5L166.7 187.5L167.1 189.8L167.1 189.9L167 191.2L167 191.3L166.1 193.3L164.7 194.9L164.7 195.0L164.6 195.0L164.6 195.1L164.5 195.1L164.4 195.2L164.4 195.2L164.4 195.3L164.3 195.3L164.3 195.3L164.2 195.4L164.2 195.4L164.2 195.5L164.2 195.5L164.2 195.5L164.1 195.5L164.1 195.6L164.1 195.6L164.1 195.6L164.0 195.7L164.0 195.7L164.0 195.7L164.0 195.8L163.9 195.9L163.9 195.9L163.9 195.9L163.9 196.0L163.8 196.0L163.8 196.1L163.8 196.1L163.8 196.1L163.8 196.1L163.8 196.2L163.8 196.2L163.7 196.3L163.7 196.3L163.7 196.3L163.7 196.4L163.7 196.4L163.7 196.4L163.6 196.6L163.6 196.6L163.6 196.6L163.6 196.7L163.6 196.7L163.6 196.8L163.6 196.9L163.5 196.9L163.5 197.0L163.5 197.0L163.5 197.0L163.5 197.1L163.5 197.1L163.5 197.1L163.5 197.2L163.5 197.2L163.5 197.3L163.5 197.3L163.5 197.3L163.5 197.4L163.5 197.4L163.5 197.5L163.5 197.5L163.5 197.6L163.5 197.6L163.5 197.7L163.5 197.7L163.5 197.8L163.5 197.8L163.5 197.8L163.5 197.9L163.5 198.0L163.5 198.0L163.5 198.0L163.5 198.1L163.5 198.1L163.5 198.1L163.5 198.2L163.6 198.3L163.6 198.4L163.7 199.6L163.6 201.4 Z M 144.9 203.7L144.5 203.3L144.0 202.0L145.3 201.0L145.5 202.7 Z M 144.6 193.4L144.6 193.4L144.6 193.3L144.6 193.3L144.6 193.3L144.5 193.2L144.5 193.2L144.5 193.1L144.2 192.6L143.6 189.8L143.9 188.0L147.0 189.9L146.7 191.7 Z M 144.3 186.9L145.1 185.5L146.9 184.0L149.0 183.2L150.1 183.1L150.1 183.1L151.7 183.3L146.5 188.3 Z M 145.9 200.4L144.7 200.7L145.9 199.4 Z M 147.5 197.3L146.7 199.8L146.8 197.0 Z M 148.0 194.8L147.2 196.8L146.8 195.5 Z M 149.8 191.5L148.9 192.7L148.6 191.6 Z M 149.8 191.5 "/>
















</g>
</svg>
