<?xml version="1.0" encoding="UTF-8"?>
<svg xmlns="http://www.w3.org/2000/svg" xmlns:xlink="http://www.w3.org/1999/xlink" width="378pt" height="504pt" viewBox="0 0 378 504" version="1.1">
<g id="data">
<rect x="0" y="0" width="378" height="504" style="fill:rgb(100%,100%,100%);fill-opacity:1;stroke:none;"/>
<path style=" stroke:none;fill-rule:nonzero;fill:rgb(100%,100%,100%);fill-opacity:1;" d="M 21 504L357 504L357 0L21 0 Z M 21 504 "/>
<path style=" stroke:none;fill-rule:nonzero;fill:rgb(77.6%,78.8%,62.3%);fill-opacity:1;" d="M 150.5 412.6L150.5 412.6L150.6 412.6L150.6 412.6L150.7 412.6L150.7 412.6L150.7 412.7L150.8 412.7L150.8 412.7L150.8 412.7L151.0 412.8L151.1 412.8L151.1 412.8L151.2 412.8L151.2 412.8L151.4 412.8L151.4 412.9L151.5 412.9L151.6 412.9L151.6 412.9L151.6 412.9L151.7 412.9L151.7 412.9L151.7 412.9L151.8 412.9L151.8 412.9L151.8 412.9L151.9 412.9L151.9 412.9L152.0 412.9L152.9 413.1L153.6 412.5L153.6 412.5L155.1 411.8L155.1 411.8L155.5 411.8L155.7 411.6L155.8 411.5L156.0 411.4L156.0 411.4L156.1 411.3L156.1 411.3L156.1 411.3L156.2 411.3L156.2 411.2L156.2 411.2L156.3 411.2L156.3 411.1L156.4 411.1L156.4 411.1L156.5 411.0L156.5 411.0L156.5 411.0L156.5 411L156.6 410.9L156.6 410.9L156.7 410.8L156.7 410.8L156.7 410.7L156.7 410.7L156.8 410.7L156.8 410.6L156.8 410.6L156.8 410.6L156.9 410.6L156.9 410.5L156.9 410.5L156.9 410.5L157.0 410.3L157.0 410.3L157.0 410.3L157.0 410.2L157.1 410.2L157.1 410.2L157.1 410.1L157.1 410.1L157.1 410.1L157.1 410.0L157.2 410.0L157.2 410.0L157.2 409.9L157.2 409.9L157.2 409.8L157.3 409.7L157.3 409.7L157.3 409.6L157.4 409.5L158.3 407.6L159.8 406.1L160.6 405.7L160.3 405.5L159.9 404.6L162.1 402.6L163.1 394.1L168.3 394.7L170.6 392.1L170.3 387.8L180.5 386.2L187.1 386.9L189.9 388.6L198.4 387.8L200.1 381.5L213.6 366.8L207.1 372.6L205.9 373.9L196.6 377.1L194.9 380.7L189.8 381.2L186.1 380.1L179.8 371.9L171.2 375.0L169.5 374.0L169.3 372.0L173.4 371.3L174.4 369.7L170.0 369.5L166.1 367.2L162.9 367.2L160.5 367.7L159.6 370.2L156.0 370.4L154.1 372.1L151.6 371.0L152.4 369.2L156.2 367.7L155.7 366.4L155.2 367.6L152.7 367.9L147.2 366.7L150.7 365.0L150.2 362.2L147.2 361.4L147.7 359.8L151.1 358.2L151.6 356.9L157.3 356.4L161.2 352.3L165.2 352.2L171.4 348.2L173.7 345.2L174.9 346.1L175.0 346.1L175.0 346.1L175.1 346.1L175.1 346.2L175.1 346.2L175.1 346.2L175.2 346.2L175.2 346.3L175.2 346.3L175.3 346.3L175.3 346.3L175.3 346.4L175.4 346.4L175.4 346.4L175.4 346.4L175.5 346.5L175.5 346.5L175.6 346.5L175.6 346.5L175.6 346.5L175.7 346.6L175.7 346.6L175.7 346.6L175.8 346.6L175.8 346.6L175.9 346.7L175.9 346.7L176.0 346.7L176.0 346.7L176.1 346.7L176.1 346.8L176.2 346.8L176.2 346.8L176.3 346.8L176.3 346.8L176.3 346.8L176.4 346.8L176.4 346.8L176.4 346.8L176.5 346.9L176.5 346.9L176.6 346.9L176.6 346.9L176.7 346.9L176.7 346.9L176.7 346.9L176.8 346.9L176.8 346.9L176.9 346.9L176.9 346.9L177 346.9L177.0 346.9L177.0 346.9L177.1 346.9L177.1 346.9L177.3 346.9L177.4 346.9L177.4 346.9L177.4 346.9L177.5 346.9L177.5 346.9L177.5 346.9L177.6 346.9L177.6 346.9L177.7 346.9L177.7 346.9L177.7 346.9L177.8 346.9L177.8 346.9L177.9 346.9L177.9 346.9L178.0 346.8L178.0 346.8L178.1 346.8L178.1 346.8L178.1 346.8L178.2 346.8L178.2 346.8L178.2 346.8L178.3 346.8L178.3 346.7L178.4 346.7L178.4 346.7L178.5 346.7L178.6 346.7L178.6 346.6L178.6 346.6L178.7 346.6L178.7 346.6L178.7 346.6L178.8 346.6L178.8 346.6L178.8 346.5L178.9 346.5L178.9 346.5L178.9 346.5L179 346.5L179.1 346.4L179.1 346.3L179.2 346.3L179.2 346.3L179.2 346.3L179.3 346.3L179.3 346.2L179.3 346.2L179.4 346.2L179.4 346.1L179.4 346.1L179.5 346.1L179.5 346.1L179.5 346.0L179.5 346.0L179.6 345.9L179.7 345.9L179.7 345.8L179.7 345.8L179.7 345.8L179.8 345.8L179.8 345.7L179.8 345.7L179.8 345.7L179.9 345.6L179.9 345.6L179.9 345.6L179.9 345.6L180.0 345.5L180.0 345.5L180.0 345.5L180.1 345.3L180.1 345.3L180.2 345.2L180.2 345.2L180.2 345.1L180.2 345.1L180.2 345.1L180.2 345.1L180.3 345.0L180.3 345L180.3 344.9L180.3 344.8L180.3 344.8L180.4 344.7L180.4 344.7L180.4 344.6L180.4 344.5L180.5 344.5L180.5 344.5L180.5 344.4L180.5 344.3L180.5 344.2L180.5 344.2L180.5 344.2L180.5 344.1L180.5 344.1L180.5 344.1L180.5 344.0L180.6 344.0L180.6 343.9L180.6 343.9L180.6 343.9L180.6 343.8L181.2 341.5L182.5 339.6L182.8 339.3L182.8 339.3L182.9 339.2L182.9 339.2L182.9 339.2L183.0 339.2L183.0 339.1L183.0 339.1L183.0 339.1L183.1 339.0L183.1 339.0L183.2 339L183.2 338.9L183.2 338.9L183.3 338.8L183.3 338.8L183.3 338.8L183.3 338.7L183.3 338.7L183.4 338.7L183.4 338.7L183.5 338.5L183.5 338.5L183.5 338.4L183.5 338.4L183.6 338.4L183.6 338.3L183.6 338.3L183.6 338.3L183.6 338.2L183.6 338.2L183.6 338.2L183.7 338.1L183.7 338.1L183.7 338.1L183.7 338.0L183.7 338.0L183.7 338.0L183.7 337.9L183.8 337.8L183.8 337.8L183.8 337.7L183.8 337.7L183.8 337.7L183.8 337.6L183.9 337.6L183.9 337.5L183.9 337.5L183.9 337.4L183.9 337.3L183.9 337.3L183.9 337.2L183.9 337.2L183.9 337.1L183.9 337.0L184.4 335.0L185.5 333.3L187.1 331.9L187.3 331.8L187.3 331.8L187.3 331.8L187.3 331.8L187.4 331.7L187.4 331.7L187.4 331.7L187.5 331.7L187.5 331.6L187.5 331.6L187.6 331.5L187.7 331.5L187.7 331.5L187.8 331.3L187.8 331.3L187.9 331.3L188.0 331.2L188.0 331.1L188.0 331.1L188.0 331.1L188.1 331.0L188.1 331.0L188.1 331.0L188.1 331.0L188.2 330.9L188.2 330.9L188.3 330.7L189.4 329.4L189.5 329.3L189.5 329.3L189.5 329.2L189.6 329.2L189.6 329.2L189.6 329.2L189.6 329.1L189.6 329.1L189.7 329.0L189.7 329.0L189.8 329.0L189.8 328.9L189.8 328.9L189.8 328.9L189.9 328.8L189.9 328.8L190.0 328.6L190.0 328.5L190.0 328.5L190.1 328.5L190.1 328.5L190.1 328.4L190.1 328.4L190.1 328.4L190.1 328.3L190.2 328.3L190.2 328.3L190.2 328.2L190.2 328.2L190.2 328.1L190.2 328.1L190.2 328.1L190.3 328.0L190.3 327.9L190.3 327.9L190.3 327.8L190.3 327.8L190.3 327.8L190.4 327.7L190.4 327.7L190.4 327.6L190.4 327.6L190.4 327.5L190.4 327.5L190.4 327.5L190.4 327.4L190.4 327.4L190.4 327.3L190.4 327.3L190.4 327.3L190.4 327.2L190.5 327.1L190.5 327.1L190.5 327.1L190.5 327.0L190.5 327.0L190.5 326.9L190.5 326.8L190.5 326.8L190.5 326.7L190.5 326.7L190.4 326.7L190.4 326.6L190.4 326.6L190.4 326.5L190.4 326.5L190.4 326.4L190.4 326.4L190.4 326.4L190.4 326.3L190.4 326.3L190.4 326.2L190.4 326.2L190.4 326.1L190.3 326.1L190.3 326.0L190.3 326.0L190.3 326.0L190.2 325.7L190.2 325.7L190.2 325.6L190.2 325.6L190.2 325.6L190.2 325.5L190.2 325.5L190.1 325.4L190.1 325.4L190.1 325.4L190.1 325.3L190.1 325.3L190.0 325.3L190.0 325.2L190.0 325.2L189.9 325.1L189.9 325.1L189.9 325.1L189.9 325.0L189.9 325.0L189.8 325.0L189.8 324.9L189.8 324.9L189.8 324.9L189.8 324.8L189.7 324.8L189.7 324.8L189.7 324.7L189.6 324.7L189.6 324.7L189.6 324.6L189.5 324.6L189.5 324.6L189.5 324.5L189.5 324.5L189.4 324.5L189.4 324.5L189.4 324.4L189.3 324.4L189.2 324.3L189.2 324.3L189.2 324.3L189.1 324.3L189.1 324.2L189.1 324.2L189.1 324.2L189.0 324.2L189.0 324.1L189.0 324.1L188.9 324.1L188.8 324.0L188.8 324.0L188.7 324.0L188.7 324.0L188.7 324L188.6 323.9L188.6 323.9L188.6 323.9L188.5 323.9L188.5 323.9L188.5 323.9L188.4 323.8L188.4 323.8L188.3 323.8L188.3 323.8L188.2 323.8L186.4 322.7L185.0 321.2L185.0 321.2L184.2 319.4L183.9 317.5L184.2 315.5L185.0 313.7L185.0 313.7L186.3 312.3L186.4 312.3L186.4 312.2L186.5 312.2L186.5 312.2L186.5 312.1L186.5 312.1L186.6 312.1L186.6 312.0L186.7 312.0L186.7 311.9L186.8 311.9L186.8 311.8L186.8 311.8L186.8 311.8L186.9 311.7L186.9 311.7L186.9 311.7L186.9 311.7L187 311.6L187.0 311.6L187.0 311.6L187.0 311.5L187.0 311.5L187.1 311.4L187.1 311.4L187.1 311.3L187.1 311.3L187.2 311.3L187.2 311.2L187.2 311.2L187.2 311.2L187.2 311.1L187.2 311.1L187.3 311.1L187.3 311.0L187.3 311.0L187.3 311.0L187.3 310.9L187.3 310.9L187.3 310.9L187.4 310.8L187.4 310.8L187.4 310.7L187.4 310.7L187.4 310.7L187.4 310.6L187.4 310.6L187.4 310.5L187.5 310.4L187.5 310.4L187.5 310.3L187.5 310.3L187.5 310.3L187.5 310.2L187.5 310.2L187.5 310.2L187.5 310.1L187.5 310.1L187.5 310.0L187.5 310.0L187.5 309.9L187.5 309.9L187.5 309.9L187.5 309.7L192.7 307.7L197.9 311.5L198.3 310.6L195.9 306.3L198.7 305.4L202.8 310.1L205.2 309.9L206.9 307.7L203.5 308.8L201.3 307.3L197.9 300.1L200.9 294.8L202.7 293.8L199.3 292.2L199.3 286.9L202.0 285.2L204.3 280.3L204.8 275.1L197.3 280.3L195.6 279.6L191.8 272.9L191.4 271.1L193.0 270.5L194.3 270.4L194.4 270.4L194.5 270.4L194.6 270.4L194.6 270.4L194.6 270.4L194.7 270.4L194.7 270.4L194.8 270.4L194.8 270.4L194.9 270.4L194.9 270.4L195.0 270.4L195.0 270.4L195.0 270.4L195.1 270.4L195.1 270.4L195.1 270.4L195.2 270.4L195.3 270.4L195.3 270.4L195.4 270.3L195.4 270.3L195.4 270.3L195.5 270.3L195.8 270.2L195.8 270.2L195.8 270.2L195.9 270.2L195.9 270.2L195.9 270.2L196.0 270.1L196.0 270.1L196.0 270.1L196.1 270.1L196.1 270.1L196.1 270.1L196.2 270.0L196.2 270.0L196.2 270.0L196.3 270.0L196.4 269.9L196.5 269.8L196.5 269.8L196.5 269.8L196.6 269.8L196.6 269.8L196.6 269.7L196.6 269.7L196.7 269.7L196.7 269.6L196.8 269.6L196.9 269.5L196.9 269.5L196.9 269.5L197 269.4L197.0 269.4L197.0 269.4L197.0 269.4L197.1 269.3L197.1 269.3L197.1 269.3L197.1 269.2L197.2 269.2L197.2 269.1L197.2 269.1L197.3 269.0L197.3 269.0L197.3 269.0L197.4 268.9L197.4 268.8L197.4 268.8L197.5 268.7L197.5 268.7L197.5 268.7L197.5 268.6L197.6 268.6L197.6 268.6L197.6 268.5L197.6 268.5L197.6 268.5L197.6 268.4L197.7 268.4L197.7 268.3L197.7 268.3L197.7 268.2L197.7 268.2L198.9 266.2L199.1 265.9L199.1 265.9L200.7 264.6L201.7 264.2L200.8 263.7L199.5 262.1L199.5 262.0L199.5 261.9L199.4 261.9L199.4 261.9L199.4 261.8L199.3 261.8L199.3 261.7L199.3 261.7L199.3 261.7L199.2 261.6L199.2 261.6L199.2 261.6L199.1 261.5L199.1 261.5L199.1 261.5L199.1 261.4L199.1 261.4L199.0 261.4L199.0 261.4L198.9 261.2L198.8 261.2L198.8 261.2L198.7 261.1L198.7 261.1L198.7 261.1L198.6 261.0L198.6 261.0L198.6 261.0L198.6 261.0L198.5 260.9L198.5 260.9L198.5 260.9L198.2 260.7L198.2 260.7L198.1 260.7L198.1 260.7L198.0 260.7L198.0 260.6L198.0 260.6L197.9 260.6L197.8 260.6L197.8 260.6L197.8 260.5L197.7 260.5L197.5 260.5L197.5 260.5L197.5 260.4L197.4 260.4L197.4 260.4L197.3 260.4L197.2 260.4L197.2 260.4L197.2 260.4L197.1 260.4L197.1 260.4L197.1 260.4L197.0 260.3L196.9 260.3L196.9 260.3L196.9 260.3L196.8 260.3L194.5 259.7L192.6 258.4L191.3 256.5L190.8 254.9L192.8 250.2L194.9 248.2L198.8 248.4L200.5 248.0L200.6 247.1L188.8 246.1L187.9 249.7L187.5 248.5L187.3 247.4L187.3 246.9L187.3 246.6L187.8 244.4L187.8 244.3L188.9 242.6L190.4 241.2L192.4 240.4L194.0 240.2L194.0 240.2L195.1 240.3L195.1 240.3L195.2 240.3L195.3 240.3L195.3 240.3L195.3 240.3L195.4 240.3L195.4 240.3L195.5 240.3L195.5 240.3L195.6 240.3L195.8 240.3L195.8 240.3L195.9 240.3L196.0 240.3L196.0 240.3L196.1 240.3L196.1 240.3L196.2 240.3L196.3 240.3L196.6 240.2L196.8 240.2L196.8 240.2L198.9 240.4L200.9 241.2L202.5 242.6L202.5 242.6L202.6 242.7L202.6 242.7L202.6 242.7L202.6 242.7L202.7 242.8L202.7 242.8L202.8 242.9L202.8 242.9L202.8 243.0L202.9 243.0L203.0 243.1L203.0 243.1L203.0 243.1L203.0 243.1L203.1 243.1L203.1 243.2L203.1 243.2L203.2 243.2L203.2 243.2L203.4 243.4L203.5 243.4L203.5 243.4L203.5 243.4L203.6 243.5L203.6 243.5L203.7 243.5L203.7 243.5L203.8 243.6L203.8 243.6L203.8 243.6L203.9 243.6L203.9 243.6L204.2 243.7L204.2 243.7L204.2 243.7L204.3 243.7L204.3 243.7L204.4 243.7L204.4 243.8L204.5 243.8L204.6 243.8L204.6 243.8L204.6 243.8L204.7 243.8L204.7 243.8L204.8 243.8L204.8 243.8L204.8 243.8L204.9 243.8L204.9 243.8L205.0 243.8L205.0 243.8L205.2 243.8L205.2 243.8L205.3 243.8L205.4 243.8L205.4 243.8L205.4 243.8L205.5 243.8L205.5 243.8L205.6 243.8L205.6 243.8L205.7 243.8L205.7 243.8L205.7 243.8L205.8 243.8L205.8 243.7L205.9 243.7L206.8 243.6L207.9 243.6L207.9 243.6L208.4 243.6L210.4 244.3L212.2 245.5L212.3 245.6L212.3 245.6L212.3 245.7L212.4 245.7L212.5 245.8L212.5 245.8L212.5 245.8L212.5 245.8L212.6 245.9L212.6 245.9L212.6 245.9L212.7 245.9L212.7 246L212.7 246.0L212.9 246.1L213.0 246.1L213.0 246.1L213.0 246.2L213.1 246.2L213.1 246.2L213.1 246.2L213.2 246.2L213.3 246.3L213.3 246.3L213.3 246.3L213.4 246.3L213.4 246.3L213.5 246.3L213.6 246.4L213.6 246.4L213.7 246.4L213.7 246.4L213.8 246.4L213.8 246.5L213.9 246.5L214.0 246.5L214.0 246.5L214.1 246.5L214.1 246.5L214.1 246.5L214.2 246.5L214.2 246.5L214.3 246.5L214.3 246.5L214.4 246.5L214.4 246.5L214.4 246.5L214.5 246.5L214.7 246.5L214.8 246.5L214.8 246.5L214.8 246.5L214.9 246.5L215 246.5L215.0 246.5L215.0 246.5L215.1 246.5L215.1 246.5L215.2 246.5L215.2 246.5L215.2 246.5L215.3 246.5L215.4 246.5L215.4 246.5L215.4 246.4L215.5 246.4L215.5 246.4L215.5 246.4L215.6 246.4L215.6 246.4L215.6 246.4L215.7 246.4L215.7 246.4L215.8 246.3L215.8 246.3L215.9 246.3L216.0 246.3L216.0 246.2L216.1 246.2L216.1 246.2L216.1 246.2L216.2 246.2L216.2 246.1L216.2 246.1L216.3 246.1L216.3 246.1L216.3 246.1L216.4 246.0L216.4 246.0L216.5 246.0L216.5 245.9L216.6 245.9L216.6 245.9L216.7 245.8L216.7 245.8L216.7 245.8L216.7 245.8L216.8 245.7L216.8 245.7L216.9 245.7L216.9 245.6L216.9 245.6L217.1 245.5L217.1 245.4L217.1 245.4L217.2 245.4L217.2 245.3L217.2 245.3L217.3 245.2L217.3 245.2L217.3 245.2L217.3 245.2L217.3 245.1L217.4 245.1L217.4 245.1L217.4 245.0L217.4 245.0L217.5 244.9L217.5 244.9L217.5 244.9L217.5 244.8L217.6 244.8L217.6 244.7L217.6 244.7L217.6 244.7L217.6 244.6L217.6 244.6L217.7 244.6L217.7 244.5L217.7 244.5L217.7 244.5L217.7 244.4L217.7 244.4L217.7 244.4L217.8 244.1L217.8 244.1L217.8 244.1L217.9 244.0L217.9 244.0L217.9 244L217.9 243.9L217.9 243.8L217.9 243.8L217.9 243.8L217.9 243.7L217.9 243.7L217.9 243.7L217.9 243.6L217.9 243.5L217.9 243.5L218 243.5L218.0 243.4L218.0 243.4L218.0 243.4L218.0 243.3L218.0 243.1L218.0 243.0L218.0 243.0L218.0 243.0L218.0 242.9L218 242.9L217.9 242.8L217.9 242.8L217.9 242.8L217.9 242.7L217.9 242.7L217.9 242.7L217.9 242.6L217.9 242.6L217.9 242.5L217.9 242.5L217.9 242.5L217.9 242.4L217.9 242.4L217.8 242.3L217.8 242.2L217.8 242.2L217.6 241.0L217.5 240.1L217.9 238.0L218 237.8L218.0 237.7L218.0 237.7L218.0 237.7L218.0 237.6L218.0 237.5L218.0 237.5L218.0 237.4L218.0 237.4L218.0 237.3L218.1 237.3L218.1 237.2L218.1 237.2L218.1 237.1L218.1 237.1L218.1 237.1L218.1 237.0L218.1 237.0L218.1 236.7L218.1 236.6L218.1 236.6L218.1 236.6L218.1 236.5L218.1 236.5L218.1 236.4L218.1 236.4L218.1 236.4L218.0 236.3L218.0 236.3L218.0 236.2L218.0 236.2L218.0 236.2L218.0 236.1L218.0 236.1L218.0 236.0L218.0 236.0L218.0 236.0L218.0 235.9L218 235.9L217.9 235.8L217.9 235.8L217.9 235.8L217.9 235.7L217.9 235.7L217.5 233.5L217.5 233.2L217.9 231.3L218.8 229.6L220.1 228.2L221.8 227.2L223.6 226.8L223.8 226.8L223.8 226.8L223.9 226.8L223.9 226.7L223.9 226.7L224.0 226.7L224.0 226.7L224.0 226.7L224.1 226.7L224.1 226.7L224.2 226.7L224.2 226.7L224.3 226.7L224.3 226.7L224.3 226.7L224.4 226.6L224.4 226.6L224.4 226.6L224.5 226.6L224.5 226.6L224.6 226.6L224.6 226.5L224.7 226.5L224.7 226.5L224.7 226.5L224.8 226.5L224.8 226.5L224.8 226.5L224.9 226.4L224.9 226.4L224.9 226.4L225.0 226.4L225.0 226.4L225.0 226.4L225.1 226.3L225.1 226.3L225.1 226.3L225.3 226.2L225.3 226.2L225.3 226.2L225.4 226.1L225.4 226.1L225.4 226.1L225.5 226.1L225.5 226.1L225.5 226.0L225.6 226.0L225.6 225.9L225.7 225.9L225.7 225.9L225.7 225.8L225.8 225.8L225.8 225.8L225.8 225.8L225.8 225.7L225.9 225.7L225.9 225.7L225.9 225.6L227.7 224.2L229.0 223.8L230.3 224.4L233.0 240.5L235.9 247.0L237.8 254.9L240.7 259.1L253.8 265.3L258.0 273.6L260.7 276.5L264.9 278.8L262.7 280.0L261.9 282.5L264.0 288.1L270.2 296.8L269.7 299.1L269.5 297.1L267.7 296.3L265.1 297.0L260.9 293.0L254.8 294.2L252.9 293.4L251.0 294.5L255.4 295.0L260.3 293.8L262.4 296.8L270.5 302.5L272.5 305.2L275.1 311.3L275.3 316.5L267.8 324.8L269.7 324.4L273.3 327.7L276.1 328.3L280.0 321.2L287.5 320.8L296.7 321.9L305.5 327.6L307.8 332.9L307.9 341.4L305.0 353.4L299.5 359.2L298.1 357.0L295.4 355.8L298.8 361.1L297.2 363.8L293.3 365.4L291.7 363.4L285.2 367.6L286.6 368.6L290.6 366.7L291.2 371.6L287.6 374.8L284.3 374.5L280.1 375.9L278.2 377.9L281.7 376.4L285.5 376.9L286.1 378.1L284.2 378.1L282.4 379.3L282.9 380.0L290.6 381.6L301.7 379.3L302.8 381.4L302.2 388.1L294.3 392.3L292.8 394.4L292.8 396.8L288.2 396.8L285.5 399.4L278.2 401.9L275.7 404.6L263.9 401.7L254.0 403.6L251.1 405.7L248.4 404.0L249.5 402.9L248.0 401.5L242.6 401.4L243.5 402.8L242.8 403.9L238.4 403.4L232.2 405.9L224.1 406.4L221.6 405.6L220.7 407.1L223.7 408.1L223.6 410.7L221.2 411.1L213.2 409.0L211.5 410.6L212.2 412.7L206.9 407.8L200.7 405.5L193.0 407.6L188.4 410.1L183.0 423.9L181.4 424.8L179.1 424.4L176.0 420.7L173.5 421.3L170.6 418.1L165.7 418.5L163.2 419.9L156.5 420.2L154.1 423.1L149.5 425.1L149.0 429.9L146.5 431.2L145.6 433.0L143.5 428.7L139.2 426.4L137.6 426.8L136.8 429.1L133.3 428.8L133.9 425.1L138.8 423L140.4 423.9L149.7 415.8 Z M 168.9 407.3L169.1 407.5L170.1 409.3L170.1 409.3L170.2 409.6L170.2 409.6L170.2 409.8L170.3 409.8L170.3 409.8L170.3 409.9L170.3 409.9L170.3 410.0L170.3 410.0L170.4 410.1L170.4 410.1L170.4 410.2L170.4 410.2L170.5 410.2L170.5 410.3L170.5 410.4L170.5 410.4L170.6 410.4L170.6 410.5L170.6 410.5L170.7 410.6L170.7 410.6L170.7 410.6L170.7 410.6L170.7 410.7L170.8 410.7L170.8 410.8L170.9 410.8L170.9 410.8L170.9 410.9L171.0 410.9L171.0 411.0L171.1 411.1L171.1 411.1L171.1 411.1L171.2 411.2L171.2 411.2L171.3 411.2L171.3 411.3L171.3 411.3L171.4 411.3L171.4 411.3L171.5 411.4L171.5 411.4L171.5 411.4L171.7 411.5L171.7 411.5L171.7 411.5L171.8 411.6L171.8 411.6L171.8 411.6L171.9 411.6L171.9 411.6L171.9 411.6L172.0 411.7L172.0 411.7L172.1 411.7L172.1 411.7L172.2 411.8L172.3 411.8L172.3 411.8L172.4 411.8L172.4 411.8L172.5 411.8L172.9 412.0L172.9 412.0L174.5 412.9L175.8 411.8L175.9 411.8L176.1 411.7L176.1 411.7L176.1 411.6L176.1 411.6L176.2 411.6L176.2 411.6L176.2 411.6L176.3 411.5L176.3 411.5L176.4 411.4L176.4 411.4L176.5 411.4L176.5 411.3L176.5 411.3L176.5 411.3L176.6 411.3L176.6 411.2L176.6 411.2L176.6 411.2L176.7 411.1L176.7 411.1L176.8 411.1L176.8 411.0L176.8 411.0L176.9 410.9L176.9 410.9L176.9 410.8L176.9 410.8L177.0 410.8L177.0 410.8L177.1 410.6L177.1 410.6L177.1 410.5L177.1 410.5L177.2 410.5L177.2 410.4L177.2 410.4L177.2 410.4L177.2 410.3L177.2 410.3L177.3 410.3L177.3 410.2L177.3 410.2L177.3 410.1L177.3 410.1L177.3 410.1L177.4 409.9L177.4 409.9L177.4 409.8L177.4 409.7L177.4 409.7L177.4 409.7L177.6 409.3L177.6 409.3L177.6 409.2L177.6 409.1L177.7 409.1L177.7 409.0L177.7 409.0L177.7 408.9L177.7 408.8L177.7 408.8L177.7 408.7L177.7 408.7L177.7 408.6L177.7 408.6L177.7 408.6L177.8 408.5L177.8 408.5L177.8 408.4L177.8 408.4L177.8 408.4L177.8 408.3L177.8 408.2L177.8 408.1L177.8 408.1L177.8 408.0L177.8 407.9L177.8 407.9L177.8 407.8L177.8 407.8L177.7 407.8L177.7 407.7L177.7 407.7L177.7 407.6L177.7 407.6L177.7 407.6L177.7 407.5L177.7 407.5L177.7 407.5L177.7 407.4L177.7 407.4L177.7 407.4L177.7 407.3L177.6 407.3L177.6 407.3L177.6 407.2L177.6 407.1L177.6 407.1L177.6 407.1L177.5 407.0L177.5 406.9L177.5 406.9L177.5 406.9L177.5 406.8L177.5 406.8L177.4 406.7L177.4 406.7L177.4 406.7L177.4 406.6L177.4 406.6L177.4 406.6L177.3 406.5L177.3 406.5L177.3 406.4L177.2 406.3L177.2 406.3L177.2 406.3L177.2 406.3L177.1 406.2L177.1 406.2L177.1 406.2L177.1 406.1L177.0 406.0L177.0 406.0L176.9 405.9L176.9 405.9L176.9 405.9L176.8 405.8L176.8 405.8L176.8 405.8L176.7 405.7L176.7 405.7L176.6 405.7L176.6 405.6L176.6 405.6L176.5 405.6L176.5 405.5L176.5 405.5L176.4 405.5L176.4 405.5L176.4 405.5L176.4 405.4L176.3 405.4L176.3 405.4L176.1 405.3L176.0 405.2L176.0 405.2L176.0 405.2L175.9 405.2L175.9 405.2L175.8 405.1L175.8 405.1L175.7 405.1L175.7 405.1L175.7 405.1L175.6 405.0L175.6 405.0L175.5 405.0L175.5 405.0L175.4 405.0L175.4 405L175.3 404.9L175.3 404.9L175.3 404.9L175.2 404.9L175.1 404.9L175.1 404.9L175.0 404.9L175.0 404.9L175.0 404.9L174.9 404.9L174.9 404.8L174.8 404.8L174.8 404.8L174.8 404.8L174.7 404.8L174.7 404.8L174.7 404.8L174.6 404.8L174.6 404.8L174.6 404.8L174.5 404.8L174.4 404.8L174.4 404.8L174.4 404.8L174.3 404.8L174.2 404.8L173.5 404.8L173.4 404.8L173.3 404.8L173.3 404.8L173.2 404.8L173.2 404.8L173.1 404.8L173.1 404.8L173.0 404.8L173.0 404.8L173.0 404.8L172.9 404.8L172.9 404.8L172.8 404.8L172.7 404.9L172.7 404.9L172.7 404.9L172.6 404.9L172.6 404.9L172.5 404.9L172.4 404.9L172.4 404.9L172.3 404.9L172.3 404.9L172.1 405.0L172.0 405.0L172.0 405.1L172.0 405.1L171.9 405.1L171.9 405.1L171.8 405.1L171.8 405.1L171.8 405.2L171.7 405.2L171.7 405.2L171.7 405.2L171.6 405.2L171.6 405.3L171.5 405.3L171.5 405.3L171.5 405.3L171.4 405.3L171.4 405.4L171.4 405.4L171.3 405.4L171.3 405.4L171.3 405.5L171.2 405.5L171.2 405.5L171.2 405.5L171.1 405.6L171.1 405.6L171.0 405.6L171.0 405.7L171.0 405.7L171 405.7L170.9 405.8L170.8 405.8L170.8 405.9L170.8 405.9L170.8 405.9L170.7 406.0L169.2 407.2 Z M 207.8 264.9L208.6 265.5L209.9 267.1L209.9 267.1L210.8 269.8L210.8 269.9L210.8 270.0L210.8 270.0L210.8 270.0L210.8 270.1L210.8 270.1L210.8 270.2L210.8 270.2L210.8 270.2L210.8 270.3L210.8 270.3L210.8 270.3L210.8 270.4L210.9 270.4L210.9 270.5L210.9 270.6L210.9 270.6L210.9 270.7L211.0 270.7L211.0 270.8L211.0 270.8L211.0 270.8L211.0 270.9L211.0 270.9L211.1 271.0L211.1 271.0L211.1 271.0L211.1 271.1L211.1 271.1L211.1 271.1L211.1 271.2L211.2 271.2L211.2 271.2L211.2 271.3L211.2 271.3L211.3 271.5L211.4 271.5L211.4 271.5L211.4 271.6L211.4 271.6L211.4 271.6L211.5 271.7L211.5 271.7L211.6 271.8L211.6 271.9L211.7 271.9L211.7 271.9L211.7 271.9L211.8 272.0L211.8 272.0L211.9 272.1L211.9 272.1L213.1 273.6L213.9 275.3L214.1 276.8L214.1 276.9L214.1 277.5L214.1 277.6L214.1 277.9L214.1 277.9L214.1 277.9L214.1 278.0L214.1 278.0L214.2 278.1L214.2 278.1L214.2 278.2L214.2 278.2L214.2 278.2L214.2 278.3L214.2 278.3L214.2 278.3L214.2 278.4L214.2 278.5L214.2 278.5L214.2 278.6L214.3 278.6L214.3 278.6L214.3 278.7L214.4 278.9L214.4 278.9L214.4 279.0L214.4 279.0L214.4 279.1L214.4 279.1L214.5 279.1L214.5 279.2L214.5 279.2L214.5 279.2L214.5 279.3L214.5 279.3L214.6 279.3L214.6 279.4L214.6 279.4L214.6 279.4L214.7 279.6L214.7 279.6L214.8 279.7L214.8 279.7L214.8 279.7L214.8 279.8L214.9 279.8L214.9 279.8L214.9 279.9L214.9 279.9L215.0 280L215.0 280.0L215.0 280.0L215.1 280.0L215.1 280.1L215.1 280.1L215.1 280.1L215.2 280.1L215.2 280.2L215.2 280.2L215.2 280.2L215.3 280.2L215.3 280.3L215.3 280.3L215.4 280.3L215.4 280.4L215.4 280.4L215.5 280.4L215.5 280.4L215.6 280.5L215.6 280.5L215.8 280.6L215.9 280.7L215.9 280.7L215.9 280.7L216.0 280.7L216.0 280.7L216.0 280.7L216.1 280.8L216.1 280.8L216.2 280.8L216.2 280.8L216.2 280.8L216.3 280.8L216.3 280.9L216.3 280.9L216.4 280.9L218.6 282.2L218.7 282.2L218.7 282.3L218.7 282.3L218.8 282.3L218.8 282.4L218.8 282.4L218.9 282.4L218.9 282.4L218.9 282.5L219 282.5L219.0 282.5L219.0 282.5L219.1 282.6L219.1 282.6L219.1 282.6L219.2 282.6L219.2 282.6L219.2 282.6L219.3 282.7L219.3 282.7L219.3 282.7L219.4 282.7L219.4 282.7L219.4 282.8L219.5 282.8L219.6 282.8L219.6 282.8L219.7 282.9L219.7 282.9L219.8 282.9L219.8 282.9L219.8 282.9L219.9 282.9L219.9 282.9L220.0 283.0L220.1 283.0L220.1 283.0L220.1 283.0L220.2 283.0L220.2 283.0L220.2 283.0L220.3 283.0L220.3 283.0L220.4 283.0L220.4 283.0L220.4 283.0L220.5 283.0L220.5 283.1L220.6 283.1L220.6 283.1L220.7 283.1L220.7 283.1L220.8 283.1L220.8 283.1L220.9 283.1L220.9 283.1L221.0 283.1L221.1 283.1L221.1 283.1L221.2 283.1L221.2 283.1L221.2 283.1L221.3 283.0L221.3 283.0L221.4 283.0L221.4 283.0L221.4 283.0L221.5 283.0L221.5 283.0L221.5 283.0L221.6 283.0L221.6 283.0L221.7 283.0L221.8 283.0L221.8 282.9L221.9 282.9L222.0 282.9L222.0 282.9L222.0 282.9L222.1 282.9L222.1 282.8L222.2 282.8L222.2 282.8L222.2 282.8L222.3 282.8L222.3 282.8L222.4 282.7L222.4 282.7L222.4 282.7L222.5 282.7L222.5 282.6L222.5 282.6L222.6 282.6L222.6 282.6L222.7 282.6L222.7 282.5L222.8 282.5L222.8 282.5L222.8 282.4L222.9 282.4L222.9 282.4L223.0 282.3L223.0 282.3L223.0 282.3L223.1 282.3L223.1 282.2L223.1 282.2L223.3 282.1L223.3 282.0L223.3 282.0L223.4 281.9L223.5 281.9L223.5 281.9L223.6 281.8L223.6 281.8L223.6 281.7L223.7 281.6L223.7 281.6L223.8 281.6L223.8 281.5L223.8 281.5L223.9 281.4L223.9 281.4L223.9 281.4L224 281.3L224.0 281.3L224.0 281.3L224.0 281.2L224.1 281.1L224.1 281.1L224.1 281.1L224.1 281.0L224.1 281.0L224.2 281.0L224.2 280.9L224.2 280.9L224.2 280.9L224.2 280.8L224.2 280.8L224.2 280.8L224.3 280.7L224.3 280.7L224.3 280.7L224.4 280.4L224.4 280.4L224.4 280.3L224.4 280.3L224.4 280.2L224.4 280.2L224.4 280.1L224.4 280.1L224.5 280.1L224.5 280.0L224.5 280.0L224.5 280L224.5 279.9L224.5 279.9L224.5 279.8L224.5 279.8L224.5 279.7L224.5 279.7L224.5 279.7L224.5 279.6L224.5 279.6L224.5 279.4L224.5 279.3L224.5 279.3L224.5 279.2L224.5 279.2L224.5 279.1L224.5 279.1L224.5 279.1L224.5 279.0L224.5 279.0L224.5 279.0L224.5 278.9L224.4 278.9L224.4 278.8L224.4 278.8L224.4 278.8L224.4 278.7L224.3 277.7L224.2 277.7L224.2 277.6L224.2 277.6L224.2 277.5L224.2 277.5L224.2 277.4L224.2 277.4L224.2 277.3L224.2 277.3L224.2 277.1L224.1 277.1L224.1 277.1L224.1 277.0L224.1 276.9L224.1 276.8L224.1 276.8L224.0 276.7L224.0 276.7L224.0 276.7L224.0 276.6L223.9 276.5L223.9 276.5L223.9 276.5L223.9 276.4L223.9 276.4L223.9 276.4L223.8 276.3L223.8 276.3L223.8 276.2L223.8 276.2L223.7 276.2L223.7 276.1L223.7 276.1L223.7 276.1L223.6 276.0L223.6 276.0L223.6 276.0L223.6 275.9L223.5 275.9L223.5 275.9L223.5 275.8L223.5 275.8L223.4 275.8L223.4 275.7L223.3 275.7L223.3 275.6L223.2 275.6L223.2 275.5L223.2 275.5L223.2 275.5L223.1 275.4L222.0 274.1L221.2 272.5L220.9 270.8L221.0 268.9L221.1 268.8L221.1 268.7L221.1 268.7L221.1 268.7L221.1 268.6L221.1 268.6L221.1 268.5L221.1 268.5L221.1 268.5L221.1 268.4L221.1 268.4L221.1 268.4L221.1 268.3L221.1 268.2L221.1 268.2L221.1 268.0L221.1 268.0L221.1 267.9L221.1 267.9L221.1 267.8L221.1 267.8L221.1 267.8L221.1 267.7L221.1 267.6L221.1 267.6L221.1 267.6L221.1 267.5L221.1 267.4L221.1 267.3L221.0 267.3L221.0 267.3L221.0 267.2L221.0 267.2L221.0 267.2L220.9 266.9L220.9 266.9L220.9 266.8L220.9 266.8L220.9 266.8L220.9 266.7L220.8 266.7L220.8 266.6L220.8 266.6L220.8 266.6L220.8 266.5L220.7 266.5L220.7 266.5L220.7 266.4L220.6 266.2L220.5 266.2L220.5 266.1L220.5 266.1L220.5 266.1L220.4 266.0L220.4 266.0L220.4 266.0L220.3 265.9L220.3 265.9L220.3 265.8L220.3 265.8L220.2 265.8L220.2 265.8L220.2 265.7L220.1 265.7L220.1 265.7L220.0 265.6L220.0 265.6L220.0 265.6L220.0 265.5L219.9 265.5L218.8 264.2L218 262.7L217.9 262.7L217.9 262.6L217.9 262.6L217.9 262.6L217.9 262.5L217.8 262.5L217.8 262.4L217.8 262.4L217.8 262.4L217.8 262.3L217.8 262.3L217.7 262.3L217.7 262.2L217.7 262.1L217.6 262.1L217.6 262.1L217.6 262.0L217.6 262.0L217.5 262.0L217.5 261.9L217.5 261.9L217.5 261.8L217.4 261.8L217.4 261.8L217.4 261.7L217.3 261.7L217.3 261.7L217.3 261.6L217.3 261.6L217.2 261.6L217.2 261.6L217.2 261.5L217.2 261.5L217.1 261.5L217.1 261.5L217.1 261.4L217.0 261.4L217.0 261.4L216.9 261.3L216.9 261.3L216.9 261.3L216.8 261.2L216.8 261.2L216.8 261.2L216.8 261.2L216.7 261.1L216.7 261.1L216.6 261.1L216.6 261.1L216.6 261.0L216.5 261.0L216.5 261.0L216.4 260.9L216.4 260.9L216.4 260.9L216.3 260.9L216.3 260.9L216.3 260.9L216.2 260.8L216.1 260.8L216.1 260.8L216.0 260.8L216.0 260.7L215.9 260.7L215.8 260.7L215.7 260.7L215.7 260.6L215.7 260.6L215.6 260.6L215.5 260.6L215.5 260.6L215.4 260.6L215.4 260.6L215.4 260.6L215.3 260.6L215.3 260.6L215.3 260.6L215.2 260.6L215.2 260.5L215.1 260.5L215.1 260.5L215.0 260.5L215.0 260.5L215.0 260.5L214.9 260.5L214.9 260.5L214.7 260.5L214.6 260.5L214.6 260.5L214.6 260.5L214.5 260.5L214.5 260.5L214.4 260.5L214.3 260.6L214.3 260.6L214.3 260.6L214.2 260.6L214.2 260.6L214.1 260.6L214.1 260.6L214.0 260.6L214.0 260.6L213.9 260.6L213.9 260.6L213.9 260.7L213.8 260.7L213.6 260.7L213.6 260.7L213.6 260.8L213.5 260.8L213.5 260.8L213.4 260.8L213.3 260.8L213.3 260.9L213.3 260.9L213.2 260.9L213.2 260.9L213.2 260.9L213.1 261L213.1 261.0L213.1 261.0L213.0 261.0L213.0 261.0L212.9 261.1L212.9 261.1L212.9 261.1L212.8 261.1L212.8 261.2L212.8 261.2L212.7 261.2L212.7 261.2L212.7 261.3L212.7 261.3L212.6 261.3L212.6 261.4L212.5 261.4L212.5 261.4L212.5 261.4L212.5 261.5L212.4 261.5L212.4 261.5L212.4 261.5L212.4 261.6L212.3 261.6L211.1 262.6L211.0 262.7L211.0 262.7L210.9 262.7L210.9 262.8L210.9 262.8L210.8 262.8L210.8 262.8L210.8 262.8L210.8 262.9L210.7 262.9L210.7 262.9L210.6 263.0L210.6 263.0L210.6 263.0L210.5 263.1L210.4 263.2L210.3 263.3L208.7 264.6 Z M 223.0 217.1L222.6 217.7L221.1 219.0L219.3 219.8L217.3 220.0L216.1 219.9L216.1 219.9L214.1 219.1L212.4 217.6L211.3 215.8L210.8 213.6L211.0 211.7L211.0 211.5L212.1 209.3L212.7 208.7L220.9 213.7 Z M 163.8 310.2L163.8 310.1L164.2 308.6L164.6 308.8L164.8 311.0 Z M 165.2 306.7L165.4 306.3L167.0 305.0L168.9 304.2L171.6 305.0L172.8 308.1L176.8 308.9L169.7 315.4L166.9 313.3L165.1 309.7 Z M 177.1 311.1L177.1 311.5L178.1 312.3L178.2 312.3L178.2 312.4L178.2 312.4L178.3 312.4L178.3 312.5L179.4 313.7L179.4 313.7L180.2 315.5L180.6 317.4L180.3 319.4L179.4 321.2L177.8 322.9L177.8 322.9L175.9 323.9L174.3 324.1L174.4 323.4L171.6 323.8L171.6 323.8L171.5 323.8L171.5 323.8L171.5 323.8L169.6 322.8L168.1 321.4L167.5 320.3L169.5 318.9L170.2 315.9L173.3 312.5 Z M 166.5 324.8L166.7 325.8L165.1 327.6L160.0 327.6L163.4 323.2L164.6 322.4L165.4 323.1 Z M 119.4 433.1L118.6 433.3L119.0 432.5 Z M 244.9 407.2L242.4 410.4L239.7 411.3L234.6 408.1L232.8 408.3L239.0 404.1L243.5 405.3 Z M 246.9 401.8L247.2 403.9L245.7 403.5 Z M 291.5 380.3L290.4 381.0L287.3 380.4L286.8 377.9L290.5 378.7 Z M 291.5 380.3 "/>
<path style=" stroke:none;fill-rule:nonzero;fill:rgb(77.6%,78.8%,62.3%);fill-opacity:1;" d="M 32.6 347.8L34.7 348.3L34.7 348.3L35.6 349.0L36.7 348.6L36.7 348.6L36.8 348.6L36.8 348.6L36.9 348.6L37.0 348.6L37.0 348.6L37.1 348.5L37.1 348.5L37.1 348.5L37.2 348.5L37.3 348.5L37.3 348.5L37.4 348.4L37.5 348.4L37.5 348.4L37.5 348.4L37.6 348.4L37.6 348.4L37.6 348.3L37.7 348.3L37.7 348.3L37.7 348.3L37.8 348.3L37.8 348.3L37.8 348.2L37.8 348.2L38.1 348.1L38.1 348.1L38.2 348.0L38.2 348.0L38.2 348.0L38.3 347.9L38.3 347.9L38.3 347.9L38.4 347.9L38.4 347.8L38.5 347.8L38.5 347.8L38.5 347.7L38.6 347.7L38.6 347.7L38.6 347.6L38.6 347.6L38.7 347.6L38.7 347.6L38.8 347.5L38.8 347.4L38.9 347.3L38.9 347.3L38.9 347.3L38.9 347.3L39.0 347.2L39.0 347.2L39.1 347.0L39.1 347.0L39.1 347.0L39.1 346.9L39.2 346.9L39.2 346.8L39.2 346.8L39.2 346.8L39.2 346.7L39.2 346.7L39.3 346.7L39.3 346.6L39.3 346.6L39.3 346.5L39.3 346.5L39.3 346.5L39.4 346.4L40.2 344.8L40.7 344.3L41.1 344.0L43.5 343.7L43.7 343.0L42.6 342.7L43.4 342.1L45.3 341.5L47.2 341.5L49.1 342.1L49.2 342.1L49.2 342.1L49.3 342.1L49.3 342.2L49.4 342.2L49.4 342.2L49.5 342.2L49.6 342.2L49.6 342.3L49.6 342.3L49.7 342.3L49.7 342.3L49.7 342.3L49.8 342.3L49.9 342.3L50.0 342.3L50.0 342.3L50.1 342.4L50.3 342.4L52.2 343.0L53.8 344.2L55.0 345.8L55.0 345.9L55.0 345.9L55.0 346.0L55.1 346.0L55.1 346.1L55.2 346.2L55.2 346.2L55.2 346.2L55.2 346.3L55.2 346.3L55.3 346.3L55.3 346.4L55.4 346.4L55.4 346.5L55.5 346.6L55.5 346.6L55.5 346.6L55.6 346.7L55.6 346.7L55.6 346.7L55.7 346.8L55.7 346.8L55.7 346.8L55.8 346.9L55.9 346.9L55.9 347.0L56.0 347.0L56.0 347.0L56.0 347.1L56.1 347.1L56.1 347.1L56.1 347.1L56.2 347.2L56.3 347.2L56.3 347.2L56.3 347.3L56.4 347.3L56.4 347.3L56.4 347.3L56.5 347.3L56.5 347.3L56.5 347.4L56.6 347.4L56.6 347.4L56.7 347.4L56.7 347.4L56.8 347.5L56.8 347.5L57.0 347.5L57.0 347.5L57.0 347.5L57.1 347.5L57.1 347.6L57.1 347.6L57.2 347.6L57.2 347.6L57.2 347.6L57.3 347.6L57.3 347.6L57.4 347.6L57.4 347.6L57.4 347.6L57.5 347.6L57.5 347.6L57.5 347.6L57.6 347.6L57.6 347.7L57.6 347.7L57.7 347.7L57.7 347.7L57.8 347.7L57.9 347.7L57.9 347.7L58.1 347.7L58.1 347.7L58.1 347.7L58.2 347.7L58.2 347.7L58.3 347.7L58.3 347.7L58.3 347.6L58.4 347.6L58.4 347.6L58.5 347.6L58.5 347.6L58.5 347.6L58.6 347.6L58.6 347.6L58.6 347.6L58.7 347.6L58.7 347.6L58.8 347.6L58.9 347.6L58.9 347.5L59.0 347.5L59.0 347.5L59.1 347.5L59.1 347.5L59.1 347.5L59.2 347.5L59.2 347.4L59.2 347.4L59.3 347.4L59.3 347.4L59.4 347.3L60.5 347.0L60.5 347L60.6 346.9L60.7 346.9L60.7 346.9L60.8 346.9L60.8 346.9L60.9 346.8L60.9 346.8L60.9 346.8L61.0 346.8L61.0 346.8L61.1 346.8L61.1 346.7L61.2 346.7L61.2 346.7L61.2 346.7L61.3 346.7L61.3 346.6L61.4 346.6L61.4 346.6L61.5 346.5L61.5 346.5L61.6 346.5L61.6 346.4L61.6 346.4L61.7 346.4L61.7 346.4L61.8 346.3L61.8 346.3L61.9 346.2L61.9 346.2L62.0 346.2L62.0 346.1L62.0 346.1L62.0 346.1L62.1 346.1L62.1 346.0L62.1 346.0L62.1 346.0L62.2 346.0L62.2 345.9L62.3 345.8L62.3 345.8L62.3 345.7L62.4 345.7L62.4 345.7L62.4 345.6L62.5 345.5L62.5 345.5L62.6 345.4L62.6 345.4L62.6 345.3L62.6 345.3L62.6 345.3L62.6 345.3L62.7 345.2L62.7 345.2L62.7 345.2L62.7 345.1L62.7 345.1L62.8 345.0L62.8 345.0L62.8 345L62.8 344.9L62.8 344.9L62.9 344.7L62.9 344.6L62.9 344.6L62.9 344.6L62.9 344.5L62.9 344.5L63.0 344.3L63.0 344.3L63.0 344.2L63.0 344.2L63.0 344.2L63.0 344.1L63.0 344.1L63.0 344.0L63.0 344.0L63.0 343.9L63.0 343.9L63.0 343.9L63.0 343.8L63.0 343.8L63.2 342.3L63.2 342.3L63.3 342.1L63.3 342.0L63.3 342.0L63.3 342.0L63.3 341.9L63.3 341.9L63.3 341.8L63.3 341.8L63.3 341.7L63.3 341.7L63.3 341.6L63.3 341.6L63.3 341.5L63.3 341.5L63.3 341.4L63.3 341.4L63.3 341.3L63.3 341.3L63.3 341.2L63.3 341.2L63.3 341.1L63.3 340.6L63.3 340.6L63.4 339.7L63.4 339.6L63.4 339.6L63.4 339.5L63.4 339.5L63.4 339.5L63.4 339.4L63.4 339.4L63.4 339.4L63.4 339.3L63.4 339.3L63.4 339.1L63.4 339.1L63.4 339.0L63.4 338.9L63.4 338.9L63.4 338.8L63.4 338.8L63.4 338.8L63.4 338.7L63.4 338.7L63.4 338.7L63.3 338.6L63.3 338.6L63.3 338.5L63.3 338.5L63.3 338.5L63.3 338.4L63.3 338.4L63.3 338.3L63.3 338.3L63.3 338.3L63.3 338.2L63.2 338.2L63.2 338.1L63.2 338.1L63.2 338.0L63.2 338.0L63.2 337.9L63.1 337.9L63.1 337.8L63.1 337.8L63.1 337.8L63.1 337.7L63.0 337.7L63.0 337.6L63.0 337.6L63.0 337.6L63.0 337.5L63 337.5L62.8 337.3L62.8 337.3L62.8 337.3L62.8 337.2L62.7 337.2L62.7 337.2L62.7 337.1L62.7 337.1L62.7 337.1L62.6 337.0L62.6 337.0L62.6 337.0L62.5 336.9L62.5 336.9L62.5 336.9L62.4 336.8L62.4 336.8L62.4 336.8L62.3 336.7L62.3 336.7L62.3 336.7L62.2 336.6L62.2 336.6L62.1 336.6L62.1 336.5L62.1 336.5L62.0 336.5L62.0 336.5L62.0 336.4L62.0 336.4L61.9 336.4L61.7 336.3L61.7 336.2L61.6 336.2L61.6 336.2L61.5 336.2L61.5 336.2L61.5 336.1L61.4 336.1L61.4 336.1L59.9 335.2L58.8 334.0L58.1 333.0L58.1 333L58.1 332.9L58.1 332.9L58.1 332.9L58.0 332.8L58.0 332.8L58.0 332.8L58.0 332.7L58.0 332.7L58 332.7L57.9 332.6L57.9 332.5L57.8 332.5L57.8 332.5L57.8 332.5L57.8 332.4L57.8 332.4L57.6 332.2L57.6 332.2L57.6 332.2L57.4 332.0L57.4 332.0L57.4 332.0L57.4 332.0L57.3 332L57.3 331.9L57.2 331.9L57.2 331.8L57.2 331.8L57.1 331.8L57.1 331.7L56.2 331.0L56.1 330.9L56.1 330.9L56.0 330.8L56.0 330.8L56.0 330.8L55.9 330.7L55.9 330.7L55.9 330.7L55.9 330.7L55.8 330.6L55.8 330.6L55.8 330.6L55.7 330.6L55.7 330.5L55.7 330.5L55.7 330.5L55.6 330.5L55.6 330.5L55.5 330.4L55.5 330.4L55.4 330.4L55.4 330.3L55.4 330.3L55.3 330.3L55.3 330.3L55.3 330.3L55.2 330.2L55.2 330.2L55.1 330.2L55.1 330.2L55.1 330.2L55.0 330.1L53.3 329.1L53.2 329.0L53.1 329.1L51.7 330.5L51.7 330.6L51.7 330.6L51.7 330.6L50.4 331.3L50.4 332.8L50.4 332.8L50.0 333.9L48.4 336.5L48.4 336.5L46.7 337.7L44.8 338.3L43.6 338.3L42.7 337.6L43.1 334.8L41.8 332.8L47.6 331.0L47.9 328.8L49.1 327.8L56.6 328.1L65.6 326.0L71.8 326.2L65.2 324.6L64.9 321.5L63.5 322.4L61.2 325.6L59.4 326.7L56.8 327.3L56.4 326.3L53.5 326.4L50.9 324.7L46.4 327.0L42.8 327.1L50.1 321.8L52.5 320.6L56.0 315.3L54.7 314.1L54.9 313.0L59.0 307.8L59.8 307.4L61.9 307.7L66.6 307.1L67.4 305.5L66.3 304.9L66.5 303.5L65.9 303.2L54.2 303.3L54.2 303.2L54.2 303.2L54.2 303.2L54.2 303.1L54.2 303.1L54.2 303.1L54.2 303.0L54.2 303.0L54.2 302.9L54.2 302.9L54.1 302.8L54.1 302.8L54.1 302.7L54.1 302.7L54.1 302.6L54.1 302.6L54.1 302.6L54.0 302.3L54.0 302.2L54 302.2L53.9 302.1L53.9 302.1L53.9 302.0L53.7 301.7L53.3 299.7L53.2 299.2L53.2 299.2L53.5 297.6L53.5 297.5L53.5 297.3L53.5 297.3L53.5 297.2L53.5 297.2L53.5 297.2L53.5 297.1L53.5 297.1L53.6 297.0L53.6 297.0L53.6 296.9L53.6 296.9L53.6 296.8L53.6 296.7L53.6 296.7L53.6 296.7L53.6 296.6L53.6 296.6L53.6 296.5L53.6 296.5L53.6 296.4L53.6 296.4L53.5 295.7L53.7 294.2L53.8 294.1L53.8 294.1L53.8 294.0L53.8 294.0L53.8 293.9L53.8 293.9L53.8 293.9L53.8 293.8L53.8 293.8L53.8 293.7L53.8 293.6L53.8 293.6L53.8 293.6L53.8 293.5L53.8 293.5L53.8 293.5L53.8 293.2L53.8 293.2L53.8 293.1L53.8 293.1L53.8 293.0L53.8 292.7L53.8 292.7L53.9 291.5L54.0 290.9L54.0 290.8L54.0 290.7L54.1 290.7L54.1 290.7L54.1 290.6L54.1 290.6L54.1 290.5L54.1 290.5L54.1 290.5L54.1 290.4L54.1 290.4L54.1 290.3L54.1 290.3L54.1 290.2L54.1 290.2L54.1 290.1L54.1 290.1L54.1 289.9L54.1 289.8L54.1 289.8L54.1 289.8L54.1 289.7L54.1 289.7L54.1 289.5L54.1 289.1L54.1 289.0L54.1 289.0L54.1 288.9L54.1 288.9L54.1 288.9L54.1 288.8L54.1 288.8L54.1 288.7L54.1 288.7L54.1 288.6L54.1 288.6L54.1 288.6L54.0 288.5L54.0 288.5L54.0 288.5L54.0 288.3L54.0 288.2L54.0 288.2L54.0 288.2L54.0 288.1L53.9 288.0L53.9 288.0L53.9 287.9L53.9 287.9L53.9 287.9L53.8 287.8L53.8 287.8L53.8 287.7L53.8 287.7L53.8 287.7L53.7 287.6L53.7 287.6L53.7 287.5L53.7 287.5L53.7 287.5L53.7 287.4L53.5 287.2L53.5 287.2L53.5 287.1L53.5 287.1L53.4 287.1L53.4 287.1L53.4 287.0L53.4 287.0L53.3 286.9L53.2 286.9L53.2 286.8L53.1 286.8L52.7 286.2L52.6 286.1L52.6 286.1L52.5 286.0L52.5 286.0L52.5 286.0L52.4 285.9L52.4 285.9L52.4 285.8L52.3 285.8L52.3 285.8L52.3 285.7L52.3 285.7L52.2 285.7L52.2 285.6L52.1 285.6L52.1 285.6L52.1 285.6L52.1 285.5L52.0 285.5L52.0 285.5L52.0 285.5L51.9 285.5L51.9 285.4L51.9 285.4L51.8 285.4L51.8 285.4L51.8 285.3L51.7 285.3L51.7 285.3L51.6 285.2L51.6 285.2L51.5 285.2L51.5 285.2L51.4 285.1L51.3 285.1L51.3 285.1L51.3 285.1L51.2 285.1L51.2 285.0L51.1 285.0L51.1 285.0L51.1 285.0L51.0 285.0L51.0 285.0L51.0 285.0L50.9 284.9L50.9 284.9L50.8 284.9L50.8 284.9L50.8 284.9L50.7 284.9L50.6 284.9L50.5 284.9L50.5 284.8L48.4 284.1L47.7 283.6L48.0 283.0L49.7 282.4L54.8 282.0L54.2 280.9L55.2 279.3L54.8 278.7L51.8 278.0L48.4 278.4L47.6 277.0L46.7 277.9L45.4 275.9L45.8 274.9L47.0 273.4L47.2 273.2L47.3 273.4L48.0 275.1L50.6 276.2L49.2 272.5L49.5 271.5L49.5 271.5L49.6 271.5L49.6 271.4L49.6 271.4L49.7 271.4L49.8 271.3L49.8 271.2L49.8 271.2L49.8 271.1L51.5 269.6L53.5 268.6L53.6 268.6L53.6 268.6L53.7 268.6L53.7 268.6L53.9 268.5L53.9 268.5L54.0 268.5L54.0 268.5L54.0 268.5L54.1 268.5L54.1 268.4L54.2 268.4L54.3 268.4L54.3 268.4L54.3 268.3L54.4 268.3L54.4 268.3L54.5 268.3L54.5 268.2L54.6 268.2L54.6 268.1L54.7 268.1L54.7 268.1L54.7 268.1L54.8 268.1L54.8 268.0L54.8 268.0L54.9 268.0L54.9 268.0L54.9 267.9L55.0 267.9L55.0 267.9L55.1 267.8L55.1 267.8L55.1 267.8L55.1 267.7L55.2 267.7L55.2 267.7L55.2 267.7L55.3 267.6L55.3 267.6L55.3 267.5L55.4 267.5L55.4 267.5L55.4 267.4L55.4 267.4L55.4 267.4L55.5 267.3L55.5 267.3L55.5 267.3L55.5 267.3L55.6 267.1L55.6 267.1L55.7 267.0L55.7 267.0L55.7 267.0L55.7 266.9L55.7 266.9L55.8 266.9L55.8 266.8L55.8 266.8L55.8 266.8L55.8 266.7L55.8 266.7L55.8 266.7L55.9 266.6L55.9 266.6L55.9 266.6L55.9 266.5L55.9 266.4L56.0 266.3L56.0 266.3L56.0 266.3L56.0 266.2L56.0 266.2L56.0 266.1L56.0 266.1L56.0 266.0L56.0 266.0L56.1 265.9L56.1 265.8L56.1 265.8L56.1 265.8L56.1 265.7L56.1 265.7L56.1 265.6L56.1 265.6L56.1 265.5L56.1 265.5L56.1 265.4L56.1 265.3L56.1 264.8L56.3 264.0L57.0 262.3L63.3 263.6L64.5 264.9L64.5 266.3L66.1 269.2L68.3 265.6L69.5 264.9L69.9 265.0L69.9 265.0L69.9 265.0L69.9 265.1L70.0 265.1L70.0 265.2L70.0 265.2L70.0 265.2L70.1 265.2L70.1 265.3L70.1 265.3L70.1 265.3L70.2 265.3L70.2 265.4L70.2 265.4L70.3 265.4L70.3 265.5L70.3 265.5L70.3 265.5L70.4 265.5L70.4 265.6L70.5 265.6L70.5 265.6L70.5 265.6L70.5 265.7L70.6 265.7L70.6 265.7L70.6 265.7L70.7 265.8L70.7 265.8L70.7 265.8L70.8 265.8L70.9 265.9L70.9 265.9L70.9 265.9L71.0 265.9L71.0 266.0L71.0 266.0L71.1 266.0L71.1 266.0L71.1 266.0L71.2 266.0L71.2 266.1L71.2 266.1L71.3 266.1L71.3 266.1L71.4 266.1L71.4 266.1L71.6 266.2L71.6 266.2L71.6 266.2L71.7 266.2L71.8 266.2L71.9 266.3L71.9 266.3L72.0 266.3L72.0 266.3L72.0 266.3L72.1 266.3L72.1 266.3L72.2 266.3L72.3 266.3L72.3 266.3L72.3 266.3L72.4 266.3L72.4 266.3L72.7 266.3L72.7 266.3L72.7 266.3L72.8 266.3L72.8 266.3L72.9 266.3L72.9 266.3L73.0 266.3L73.0 266.3L73.0 266.3L73.1 266.3L73.1 266.3L73.2 266.3L73.2 266.3L73.3 266.2L73.3 266.2L73.4 266.2L73.5 266.2L73.5 266.2L73.7 266.1L73.7 266.1L73.8 266.1L73.8 266.1L73.9 266.0L73.9 266.0L74.0 266.0L74.0 266.0L76.0 266.5L79.1 268.4L78.4 266.8L80.0 265.9L79.6 264.5L77.7 263.8L77.6 263.3L79.0 262.0L79.6 261.6L81.5 260.8L81.6 260.8L81.7 260.8L81.7 260.7L81.8 260.7L81.8 260.7L81.8 260.7L82.0 260.7L82.0 260.6L82.1 260.6L82.1 260.6L82.1 260.6L82.2 260.6L82.2 260.6L82.3 260.6L82.3 260.5L82.3 260.5L82.3 260.5L82.4 260.5L82.4 260.5L82.5 260.4L82.5 260.4L82.7 260.3L82.8 260.3L82.8 260.3L82.8 260.2L82.8 260.2L82.9 260.2L82.9 260.2L82.9 260.1L83.0 260.1L83.0 260.1L83.0 260.1L83.1 260.0L83.1 260.0L83.2 260L83.2 259.9L83.2 259.9L83.2 259.9L83.3 259.8L83.3 259.8L83.4 259.7L83.4 259.7L83.5 259.6L83.5 259.6L83.5 259.6L83.5 259.5L86.6 258.6L88.9 254.7L90.5 254.5L90.5 254.5L93.0 255.1L93.0 255.1L93.1 255.2L93.1 255.2L93.2 255.2L93.5 255.3L93.5 255.3L93.5 255.3L93.6 255.3L93.6 255.3L93.6 255.3L93.7 255.3L93.7 255.3L93.8 255.4L93.8 255.4L93.8 255.4L93.9 255.4L93.9 255.4L94.0 255.4L94.0 255.4L94.1 255.4L94.1 255.4L94.1 255.4L94.2 255.4L94.2 255.4L94.2 255.4L94.3 255.4L94.5 255.4L94.5 255.4L94.6 255.4L94.6 255.4L94.7 255.4L94.7 255.4L94.8 255.4L94.8 255.4L94.9 255.4L94.9 255.4L94.9 255.4L95.0 255.4L95.0 255.4L95.1 255.3L95.2 255.3L95.2 255.3L95.3 255.3L96.6 255.1L96.9 255.1L99.9 255.8L102.3 257.8L103.3 259.7L103.7 261.8L103.7 261.8L103.6 262.3L103.6 262.4L103.6 262.5L103.6 262.5L103.6 262.5L103.6 262.6L103.6 262.8L103.6 262.8L103.6 262.9L103.6 262.9L103.6 262.9L103.6 263.0L103.6 263.0L103.6 263.1L103.6 263.1L103.6 263.2L103.7 263.2L103.7 263.2L103.7 263.3L103.7 263.3L103.7 263.4L103.7 263.4L103.7 263.5L103.7 263.5L103.7 263.6L103.7 263.6L103.8 263.6L103.8 263.8L103.8 263.8L103.8 263.9L103.8 263.9L103.9 263.9L103.9 264.0L103.9 264.0L103.9 264.1L103.9 264.1L104.0 264.1L104.0 264.2L104.0 264.2L104.0 264.2L104.0 264.3L104.0 264.3L104.1 264.3L104.2 264.6L104.2 264.6L104.2 264.6L104.3 264.6L104.3 264.7L104.3 264.7L104.3 264.8L104.4 264.8L104.4 264.9L104.4 264.9L104.5 264.9L104.5 265.0L104.5 265.0L104.6 265.0L104.6 265.0L104.6 265.1L104.6 265.1L104.7 265.1L104.7 265.1L104.7 265.2L104.8 265.3L104.9 265.3L104.9 265.3L105.0 265.4L105.0 265.4L105.0 265.4L105.0 265.4L105.1 265.4L105.1 265.5L105.1 265.5L105.2 265.5L105.2 265.5L105.2 265.5L105.3 265.6L105.3 265.6L105.4 265.6L105.4 265.6L105.4 265.7L105.5 265.7L105.5 265.7L105.5 265.7L105.6 265.7L105.6 265.7L105.7 265.8L105.7 265.8L105.7 265.8L105.8 265.8L105.8 265.8L106.0 265.9L106.1 265.9L106.1 265.9L106.2 265.9L106.2 266L106.3 266.0L106.3 266.0L106.4 266.0L106.4 266.0L106.4 266.0L106.5 266.0L106.5 266.0L106.5 266.0L106.6 266.0L106.7 266.0L106.7 266.0L108.2 266.3L108.3 266.3L108.3 266.4L108.3 266.4L108.4 266.4L108.4 266.4L108.5 266.4L108.5 266.4L108.6 266.4L108.6 266.4L108.6 266.4L108.7 266.4L108.7 266.5L108.7 266.5L108.8 266.5L108.8 266.5L108.8 266.5L108.9 266.5L109.0 266.5L109.0 266.5L109.0 266.5L109.1 266.5L109.1 266.5L109.1 266.5L109.4 266.5L109.5 266.5L109.5 266.5L109.5 266.5L109.6 266.5L109.7 266.5L109.7 266.5L109.7 266.5L109.8 266.5L109.8 266.5L109.8 266.5L109.9 266.4L110 266.4L110.1 266.4L110.1 266.4L110.1 266.4L110.2 266.4L110.2 266.4L110.3 266.4L110.4 266.3L110.5 266.3L110.5 266.3L110.5 266.3L110.6 266.2L110.6 266.2L110.6 266.2L110.7 266.2L110.8 266.2L110.8 266.2L110.8 266.1L110.9 266.1L110.9 266.1L111 266.1L111.0 266.0L111.0 266.0L111.1 266.0L111.2 265.9L111.2 265.9L111.3 265.9L111.3 265.8L111.3 265.8L111.3 265.8L111.4 265.8L111.4 265.8L111.5 265.7L111.5 265.7L111.6 265.6L111.6 265.6L111.6 265.6L111.7 265.5L111.7 265.5L113.4 264.2L113.5 264.2L113.6 264.2L113.6 264.1L113.6 264.1L113.7 264.1L113.7 264.1L113.8 264.1L113.8 264.0L113.8 264.0L113.9 264.0L113.9 264L113.9 263.9L114.0 263.9L114.0 263.9L114.0 263.9L114.1 263.8L114.2 263.7L114.3 263.6L114.3 263.6L114.4 263.5L114.6 263.3L114.6 263.3L114.6 263.3L114.6 263.2L114.7 263.2L114.7 263.2L115.8 262.0L116.2 261.7L116.3 261.6L116.3 261.6L116.3 261.6L116.4 261.6L116.4 261.5L116.4 261.5L116.5 261.5L116.5 261.4L116.6 261.4L116.6 261.4L116.6 261.3L116.8 261.2L116.8 261.2L116.8 261.1L116.9 261.1L116.9 261.0L117.0 261.0L117.0 261.0L117.0 260.9L117.0 260.9L117.0 260.9L117.1 260.8L117.1 260.8L117.1 260.8L117.3 260.5L117.3 260.5L117.3 260.5L117.3 260.4L117.3 260.4L117.4 260.4L117.4 260.3L117.4 260.3L117.4 260.3L117.4 260.2L117.4 260.2L117.5 260.1L117.5 260.1L117.5 260.1L117.5 260.0L117.5 259.9L117.6 259.9L117.6 259.8L117.6 259.7L117.6 259.7L117.6 259.7L117.6 259.6L117.6 259.6L117.6 259.5L117.6 259.5L117.7 259.4L117.7 259.4L117.7 259.4L117.7 259.3L117.7 259.3L117.7 259.2L117.7 259.2L117.7 259.2L117.7 259.1L117.7 259.1L117.7 259.1L117.7 259.0L117.7 258.9L117.7 258.8L117.7 258.8L117.7 258.7L117.7 258.7L117.7 258.6L117.7 258.6L117.7 258.6L117.7 258.5L117.7 258.5L117.7 258.4L117.7 258.4L117.6 257.4L117.6 257.2L117.6 257.2L117.6 257.2L117.6 257.1L117.6 257.1L117.6 257.0L117.6 257.0L117.6 257.0L117.6 256.9L117.6 256.9L117.6 256.9L117.5 256.8L117.5 256.8L117.5 256.8L117.5 256.7L117.5 256.6L117.5 256.5L117.5 256.5L117.5 256.5L117.5 256.4L117.4 256.4L117.4 256.4L117.4 256.3L117.4 256.3L117.4 256.2L117.4 256.2L117.4 256.1L117.3 256.1L117.3 256.1L117.3 256.0L117.3 256.0L117.3 256L117.3 255.9L117.2 255.9L117.2 255.9L117.2 255.8L117.2 255.8L117.2 255.8L117.2 255.7L117.1 255.7L117.1 255.6L117.0 255.5L117.0 255.5L117.0 255.4L117.0 255.4L116.9 255.4L116.9 255.4L116.9 255.3L116.9 255.3L116.8 255.2L116.8 255.2L116.7 255.1L116.7 255.1L116.7 255.1L116.6 255.0L115.6 253.5L115.0 251.8L114.8 250.0L114.8 250.0L115.3 248.0L116.3 246.2L117.8 244.8L119.6 244.0L121.7 243.7L123.2 243.9L123.3 243.9L123.4 244.0L123.5 244.0L123.5 244.0L123.5 244.0L123.6 244.0L123.7 244.0L123.8 244.0L123.8 244.0L123.9 244.0L123.9 244.0L123.9 244.0L124.0 244.0L124.2 244.0L124.2 244.0L124.2 244.0L124.3 244.0L124.3 244.0L124.4 244.0L125.0 244.0L126.5 244.2L128.8 245.2L130.4 246.9L131.4 249.0L131.4 249.1L131.4 249.1L131.4 249.1L131.4 249.2L131.5 249.2L131.5 249.3L131.5 249.3L131.5 249.4L131.5 249.4L131.5 249.5L131.6 249.5L131.6 249.5L131.6 249.6L131.6 249.6L131.6 249.7L131.7 249.7L131.7 249.7L131.7 249.8L131.7 249.8L131.7 249.8L131.7 249.9L131.8 250.0L131.9 250.1L131.9 250.1L131.9 250.1L131.9 250.2L131.9 250.2L132.0 250.2L132.0 250.2L132.0 250.3L132.0 250.3L132.1 250.4L132.1 250.4L132.1 250.4L132.2 250.4L132.2 250.5L132.3 250.5L132.3 250.6L132.3 250.6L132.4 250.7L132.5 250.7L132.5 250.8L132.6 250.8L132.6 250.8L132.6 250.9L132.7 250.9L132.7 250.9L132.7 250.9L132.7 251L132.8 251.0L133.0 251.1L133.0 251.1L133.1 251.1L133.1 251.2L133.1 251.2L133.2 251.2L133.2 251.2L133.3 251.2L133.3 251.3L133.3 251.3L133.4 251.3L133.4 251.3L133.4 251.3L133.5 251.3L133.7 251.4L133.7 251.4L133.8 251.4L133.9 251.4L133.9 251.5L133.9 251.5L134.0 251.5L134.0 251.5L134.0 251.5L134.1 251.5L134.1 251.5L134.1 251.5L134.2 251.5L134.2 251.5L134.3 251.5L134.3 251.5L134.3 251.5L134.4 251.5L134.4 251.5L134.4 251.5L134.5 251.5L134.5 251.5L134.6 251.5L134.7 251.5L136.0 251.7L136.1 251.8L136.1 251.8L136.2 251.8L136.3 251.8L136.3 251.8L136.4 251.8L136.4 251.8L136.4 251.8L136.5 251.8L136.5 251.8L136.6 251.8L136.6 251.8L136.7 251.9L136.7 251.9L136.8 251.9L137.0 251.9L137.0 251.9L137.1 251.9L137.1 251.8L137.2 251.8L137.2 251.8L137.8 251.8L137.8 251.8L139.7 252.1L141.5 253.0L141.9 253.4L138.6 255.7L137.7 257.8L141.3 256.4L144.1 256.5L144.3 257.1L144.3 257.2L144.3 257.2L144.3 257.3L144.3 257.3L144.3 257.4L144.4 257.4L144.4 257.5L144.4 257.5L144.4 257.5L144.4 257.6L144.4 257.6L144.4 257.6L144.4 257.7L144.5 257.7L144.5 257.8L144.5 257.8L144.5 257.9L144.5 257.9L144.6 258.0L144.6 258.0L144.6 258.0L144.6 258.1L144.6 258.1L144.6 258.1L144.7 258.1L144.7 258.3L144.8 258.3L144.8 258.3L144.8 258.4L144.8 258.4L144.8 258.4L144.9 258.5L144.9 258.5L144.9 258.5L144.9 258.5L145.0 258.6L145.0 258.7L145.1 258.7L145.1 258.7L145.2 258.8L145.2 258.8L145.2 258.8L145.2 258.9L145.3 258.9L145.3 258.9L145.3 259L145.4 259.0L145.4 259.0L145.5 259.1L145.5 259.1L145.5 259.1L145.5 259.1L145.6 259.2L145.6 259.2L145.6 259.2L145.7 259.2L145.7 259.3L145.9 259.3L145.9 259.4L145.9 259.4L146.0 259.4L146.0 259.4L146.0 259.4L146.1 259.5L146.1 259.5L146.1 259.5L146.2 259.5L146.2 259.5L146.3 259.5L146.3 259.6L146.3 259.6L147.4 263.6L146.7 267.1L145.7 268.3L144.9 266.8L145.3 264.0L145.0 262.0L143.5 260.3L142.5 260.4L143.2 264.9L142.5 267.5L144.6 267.9L144.9 270.1L143.9 271.4L142.6 272.2L138.4 271.7L136.8 276.8L134.4 279.1L132.8 279.4L127.7 275.2L131.5 280.3L131.3 280.9L130.4 281.3L126.6 280.2L126.1 282.8L126.5 284.1L128.5 287.0L128.5 289.0L127.4 290.9L131.3 297.5L130.4 300.3L129.7 300.9L131.3 304.0L129.2 304.4L128.6 305.2L130.4 308.3L131.5 314.1L131.7 320.1L126.8 330.8L126.1 335.5L122.6 341.4L120.1 341.9L122.7 345.9L122.6 347.7L121.6 348.4L117.3 348.1L115.3 346.9L113.3 346.6L112.8 345.6L110.9 348.3L109.8 349.0L109.6 346.7L108.4 344.7L108.3 347.7L107.5 348.7L106.1 349.0L105.3 348.3L99.1 348.7L93.4 349.9L94.2 351.9L93.2 353.5L89.6 354.9L87.4 354.0L85.8 357.1L81.7 359.5L78.5 359.5L78.1 358.9L78.6 357.6L76.9 357.1L76.6 355.6L74.7 355.6L76.6 359.0L75.9 361.5L72.8 363.0L69.9 362.4L70.9 363.3L70.4 364.7L66.5 364.3L66.7 365.7L66.1 366.4L63.1 366.0L61.1 367.2L56.9 366.5L53.9 368.6L51.3 369.0L50.2 368.4L49.3 366.4L43.8 367.4L41.9 368.6L40.7 368.6L40.7 368.6L40.7 368.2L40.7 368.2L40.7 368.1L40.7 368.0L40.7 368.0L40.7 367.9L40.8 367.9L40.8 367.8L40.8 367.8L40.8 367.6L40.8 367.6L40.8 367.6L40.7 367.5L40.7 367.5L41.0 367.1L46.4 363.8L41.1 365.2L40.7 364.9L48.7 361.1L49.2 360.4L49.1 359.7L47.8 359.2L45.4 360.5L39.9 361.3L36.3 362.7L36.0 362.4L36.0 362.3L35.9 362.3L35.9 362.3L35.9 362.2L35.9 362.2L35.7 362.1L35.7 362.0L35.7 362.0L35.5 361.8L35.5 361.8L35.5 361.8L35.3 361.7L35.3 361.6L35.3 361.6L35.3 361.6L35.2 361.6L35.2 361.6L35.2 361.5L35.1 361.5L35.1 361.5L35.1 361.5L34.9 361.4L34.9 361.4L34.8 361.3L34.8 361.3L34.8 361.3L34.7 361.3L34.5 361.1L35.1 360.3L37.1 359.3L38.0 358.1L41.2 356.9L43.3 355.3L46.9 353.8L34.6 356.8L32.9 355.7L32.5 353.7L29.7 354.3L28.5 351.0L29.6 350.0L30.3 350.2L30.6 350.9L31.6 350.5L32.7 349.2L31.6 348.6 Z M 101.7 231.4L102.2 232.5L102.6 234.3L102.6 234.3L102.6 234.7L102.1 237.3L100.6 239.5L98.5 240.9L96.0 241.4L94.4 241.3L92.9 240.7L91.2 239.5L89.9 237.8L89.9 237.8L89.3 236.3L89.2 234.7L89.2 234.7L89.2 234.6L91.1 234.9L94.6 232.8L97.0 235.3L97.6 232.8L98.3 232.1L100.7 236.4L100.6 233.8L99.5 233.5L99.3 232.6L100.4 231.6 Z M 101.7 231.4 "/>
<path style=" stroke:none;fill-rule:nonzero;fill:rgb(77.6%,78.8%,62.3%);fill-opacity:1;" d="M 40.8 362.3L39.3 362.6L38.8 362.1L39.3 361.7L41.0 361.9 Z M 40.8 362.3 "/>
<path style=" stroke:none;fill-rule:nonzero;fill:rgb(77.6%,78.8%,62.3%);fill-opacity:1;" d="M 45.5 280.9L45.4 280.6L46.1 280.3L46.7 280.8 Z M 45.5 280.9 "/>
<path style=" stroke:none;fill-rule:nonzero;fill:rgb(77.6%,78.8%,62.3%);fill-opacity:1;" d="M 48.3 369.8L47.7 370.4L47.0 370.3 Z M 48.3 369.8 "/>
<path style=" stroke:none;fill-rule:nonzero;fill:rgb(77.6%,78.8%,62.3%);fill-opacity:1;" d="M 53.7 309.8L52.6 309.9L53.0 309.5 Z M 53.7 309.8 "/>
















</g>
</svg>
