<?xml version="1.0" encoding="UTF-8"?>
<svg xmlns="http://www.w3.org/2000/svg" xmlns:xlink="http://www.w3.org/1999/xlink" width="378pt" height="504pt" viewBox="0 0 378 504" version="1.1">
<g id="data">
<rect x="0" y="0" width="378" height="504" style="fill:rgb(100%,100%,100%);fill-opacity:1;stroke:none;"/>
<path style=" stroke:none;fill-rule:nonzero;fill:rgb(100%,100%,100%);fill-opacity:1;" d="M 21 504L357 504L357 0L21 0 Z M 21 504 "/>
<path style=" stroke:none;fill-rule:nonzero;fill:rgb(77.6%,78.8%,62.3%);fill-opacity:1;" d="M 159.6 404.9L160.2 404.8L160.4 404.8L161.5 404.9L161.5 404.9L161.6 404.9L161.7 404.9L161.7 405L161.8 405.0L161.9 405.0L161.9 405.0L161.9 405.0L162.0 405.0L162.2 405.0L162.2 405.0L162.2 405.0L162.3 405.0L162.3 405.0L162.3 405.0L162.4 405.0L162.5 404.9L162.5 404.9L162.6 404.9L162.6 404.9L162.7 404.9L163.7 404.8L163.8 404.8L165.8 405.1L167.6 406.1L169.1 407.5L170.1 409.3L170.1 409.4L170.1 409.4L170.1 409.4L170.1 409.5L170.2 409.5L170.2 409.5L170.2 409.6L170.2 409.6L170.2 409.6L170.2 409.7L170.3 409.7L170.3 409.8L170.3 409.8L170.3 409.8L170.3 409.9L170.4 409.9L170.4 409.9L170.5 410.0L170.5 410.1L170.5 410.1L170.5 410.1L170.5 410.2L170.6 410.2L170.6 410.2L170.6 410.3L170.6 410.3L170.7 410.3L170.7 410.4L170.7 410.4L170.8 410.5L170.8 410.5L170.8 410.5L170.9 410.6L171 410.6L171.0 410.7L171.0 410.7L171.0 410.7L171.1 410.8L171.2 410.8L171.2 410.9L171.2 410.9L171.3 410.9L171.3 410.9L171.3 410.9L171.4 411.0L171.4 411.0L171.4 411.0L171.4 411.0L171.5 411.1L171.5 411.1L171.6 411.1L171.6 411.1L171.7 411.2L171.7 411.2L171.7 411.2L171.8 411.2L171.8 411.2L171.8 411.2L171.9 411.3L171.9 411.3L171.9 411.3L172.0 411.3L172.0 411.3L172.0 411.3L172.1 411.3L172.1 411.4L172.1 411.4L172.2 411.4L172.2 411.4L172.3 411.4L172.3 411.4L172.4 411.4L172.4 411.5L172.5 411.5L172.5 411.5L172.5 411.5L172.6 411.5L172.6 411.5L172.7 411.5L172.7 411.5L172.7 411.5L172.8 411.5L172.8 411.5L172.9 411.5L172.9 411.5L172.9 411.5L173.0 411.6L173.0 411.6L173.1 411.6L173.1 411.6L173.2 411.6L173.4 411.6L173.4 411.6L173.5 411.6L173.5 411.6L173.8 411.5L173.8 411.5L174.2 411.6L174.2 411.6L174.3 411.6L174.5 411.6L174.5 411.6L174.6 411.6L174.6 411.6L174.7 411.6L174.7 411.6L174.8 411.5L174.8 411.5L174.9 411.5L174.9 411.5L174.9 411.5L175.0 411.5L175.0 411.5L175.1 411.5L175.1 411.5L175.1 411.5L175.2 411.5L175.2 411.5L175.2 411.5L175.3 411.5L175.3 411.4L175.3 411.4L175.6 411.4L175.6 411.3L175.6 411.3L175.7 411.3L175.7 411.3L175.8 411.3L175.8 411.3L175.8 411.2L175.9 411.2L175.9 411.2L175.9 411.2L176.0 411.2L176.0 411.2L176.0 411.1L176.1 411.1L176.2 411.1L176.2 411.0L176.2 411.0L176.3 411.0L176.3 410.9L176.4 410.9L176.4 410.9L176.5 410.9L176.5 410.8L176.5 410.8L176.6 410.8L176.6 410.7L176.6 410.7L176.7 410.7L176.7 410.6L176.7 410.6L176.8 410.6L176.8 410.6L176.9 410.5L176.9 410.4L176.9 410.4L177.0 410.3L177.0 410.3L177.1 410.3L177.1 410.2L177.1 410.2L177.1 410.2L177.1 410.1L177.2 410.1L177.3 409.9L177.3 409.9L177.3 409.9L177.3 409.8L177.4 409.8L177.4 409.8L177.4 409.7L177.4 409.7L177.4 409.7L177.4 409.6L177.5 409.6L177.5 409.6L177.5 409.5L177.5 409.5L177.5 409.4L177.5 409.4L177.6 409.4L177.6 409.3L178.7 407.3L180.4 405.8L180.5 405.8L180.5 405.7L180.6 405.7L180.6 405.7L180.7 405.6L180.7 405.6L180.7 405.6L180.8 405.6L180.8 405.5L180.9 405.4L181.0 405.4L181.0 405.4L181.1 405.3L181.1 405.3L181.2 405.2L181.2 405.2L181.3 405.0L181.3 405.0L181.3 405.0L181.3 405.0L181.4 404.9L181.4 404.9L181.4 404.9L181.4 404.8L181.5 404.8L181.5 404.7L181.6 404.7L182.7 403.2L184.3 402.2L186.0 401.6L187.3 401.5L188.4 401.6L188.4 401.6L188.5 401.6L188.5 401.6L188.5 401.6L188.7 401.6L188.7 401.6L188.8 401.6L188.8 401.6L188.9 401.6L188.9 401.6L189.0 401.6L189.0 401.6L189.1 401.6L189.1 401.6L189.2 401.6L189.2 401.6L189.3 401.6L189.3 401.6L189.4 401.6L189.5 401.6L189.5 401.6L190.1 401.5L190.1 401.5L191.3 401.6L192.0 400.7L192.1 400.6L192.1 400.6L192.1 400.6L192.2 400.5L192.2 400.5L192.3 400.4L192.3 400.4L192.3 400.3L193.5 399.3L195.0 398.5L195.0 398.5L195.1 398.5L195.1 398.5L195.1 398.5L195.2 398.4L195.3 398.4L195.3 398.4L195.3 398.4L195.4 398.4L195.4 398.4L195.4 398.3L195.5 398.3L195.6 398.2L195.6 398.2L195.7 398.2L195.7 398.2L195.7 398.1L195.8 398.1L195.8 398.1L195.8 398.1L195.9 398.1L195.9 398.0L196.0 398.0L196.0 397.9L196.0 397.9L196.1 397.9L196.1 397.9L196.2 397.8L196.2 397.7L196.3 397.7L196.3 397.7L196.3 397.6L196.4 397.6L196.4 397.6L196.4 397.5L196.4 397.5L196.5 397.4L196.5 397.4L196.5 397.4L196.6 397.3L196.6 397.3L196.6 397.2L196.7 397.1L196.7 397.1L196.8 397.0L196.8 397.0L196.8 397.0L196.8 396.9L196.8 396.9L196.9 396.8L196.9 396.8L196.9 396.8L196.9 396.7L196.9 396.7L196.9 396.6L197.0 396.5L197.0 396.5L197.0 396.4L197.0 396.4L197.0 396.3L197.1 396.3L197.1 396.3L197.1 396.2L197.1 396.2L197.1 396.1L197.1 396.0L197.1 396.0L197.1 396.0L197.1 395.9L197.1 395.9L197.1 395.9L197.1 395.8L197.2 395.8L197.2 395.7L197.2 395.7L197.2 395.6L197.2 395.6L197.2 395.6L197.2 395.5L197.2 395.5L197.2 395.3L197.2 395.2L197.2 395.2L197.2 395.1L197.2 395.1L197.2 395.1L197.2 395.0L197.2 395.0L197.1 394.9L197.1 394.9L197.1 394.9L197.1 394.8L197.1 394.8L197.1 394.6L197.1 394.6L197.1 394.6L197.1 394.5L197.1 394.5L197.0 394.5L197.0 394.4L197.0 394.4L197.0 394.4L197.0 394.3L197.0 394.3L197.0 394.2L197.0 394.2L196.9 394.2L196.9 394.1L196.9 394.1L196.9 394.0L196.9 394.0L196.9 394.0L196.9 394L196.8 393.9L196.8 393.8L196.8 393.8L196.8 393.8L196.7 393.7L196.7 393.7L196.7 393.7L196.6 393.6L196.6 393.5L196.6 393.5L196.6 393.5L196.6 393.4L196.5 393.4L196.5 393.4L196.5 393.3L196.5 393.3L196.4 393.3L196.4 393.2L196.4 393.2L196.3 393.1L196.3 393.1L196.2 393.0L196.2 393.0L196.2 393.0L196.1 393.0L196.1 392.9L194.4 390.3L194.3 390.2L194.3 390.2L194.3 390.1L194.3 390.1L194.3 390.1L194.3 390.0L194.3 390.0L194.2 390.0L194.2 389.9L194.2 389.9L194.2 389.8L194.2 389.8L194.1 389.8L194.1 389.7L194.1 389.7L194.0 389.5L194.0 389.5L193.9 389.4L193.9 389.4L193.9 389.4L193.9 389.4L193.9 389.3L193.8 389.3L193.8 389.3L193.8 389.2L193.7 389.2L193.7 389.1L193.7 389.1L193.6 389.1L193.6 389.0L193.6 389.0L193.6 389.0L193.5 389.0L193.5 388.9L193.5 388.9L193.4 388.9L193.4 388.8L193.3 388.8L193.3 388.7L193.3 388.7L193.2 388.7L193.2 388.7L193.1 388.6L193.1 388.6L193.0 388.6L193.0 388.5L193.0 388.5L192.9 388.5L192.9 388.5L192.8 388.4L192.8 388.4L192.8 388.4L192.7 388.4L192.7 388.4L192.7 388.4L192.6 388.3L192.6 388.3L198.4 387.8L200.1 381.5L213.6 366.8L207.1 372.6L205.9 373.9L196.6 377.1L194.9 380.7L189.8 381.2L186.1 380.1L179.8 371.9L171.2 375.0L169.5 374.0L169.3 372.0L173.4 371.3L174.4 369.7L170.0 369.5L166.1 367.2L162.9 367.2L160.5 367.7L160.3 368.1L160.5 366.2L161.5 364.2L161.5 364.2L161.5 364.1L162.8 362.7L164.3 361.8L166.1 361.2L167.5 361.2L167.5 361.2L167.6 361.2L167.6 361.2L167.8 361.2L167.8 361.2L167.9 361.2L167.9 361.2L167.9 361.2L168.0 361.2L168.0 361.1L168.1 361.1L168.1 361.1L168.2 361.1L168.2 361.1L168.2 361.1L168.3 361.1L168.3 361.1L168.4 361.1L168.4 361.1L168.5 361.1L168.6 361.0L168.6 361.0L168.7 361.0L168.7 361.0L168.8 361.0L168.8 361.0L168.9 360.9L168.9 360.9L168.9 360.9L169.0 360.9L169.0 360.9L169.1 360.9L169.1 360.8L169.2 360.8L169.2 360.8L169.2 360.8L169.3 360.8L169.3 360.7L169.3 360.7L169.4 360.7L169.6 360.6L169.6 360.6L169.6 360.5L169.6 360.5L169.7 360.5L169.7 360.5L169.7 360.5L169.8 360.4L169.8 360.4L169.8 360.4L169.9 360.4L169.9 360.3L169.9 360.3L169.9 360.3L170.0 360.3L170.0 360.2L170.0 360.2L170.0 360.2L170.1 360.2L170.1 360.1L170.1 360.1L170.1 360.1L170.2 360.1L170.2 360.0L170.2 360.0L170.3 359.9L170.3 359.9L170.3 359.9L170.3 359.9L170.4 359.8L170.4 359.8L170.4 359.7L170.4 359.7L170.5 359.7L170.5 359.6L170.5 359.6L170.5 359.6L170.6 359.5L170.6 359.5L170.6 359.4L170.6 359.4L170.7 359.4L170.7 359.3L170.7 359.3L170.7 359.3L170.7 359.2L170.7 359.2L170.8 359.1L170.8 359.1L170.8 359.1L170.8 359.0L170.8 359.0L170.9 358.9L171.8 357.1L173.3 355.6L173.3 355.6L175.2 354.7L177.2 354.4L177.3 354.4L179.6 354.9L181.7 356.1L181.7 356.2L181.7 356.2L181.8 356.3L181.9 356.3L181.9 356.3L182 356.4L182.0 356.4L182.0 356.4L182.0 356.4L182.1 356.5L182.2 356.6L182.3 356.6L182.3 356.6L182.3 356.6L182.4 356.6L182.4 356.6L182.4 356.7L182.5 356.7L182.6 356.7L182.6 356.8L182.7 356.8L182.7 356.8L182.8 356.8L182.8 356.8L182.9 356.8L182.9 356.9L183.0 356.9L183.0 356.9L183.0 356.9L183.1 356.9L183.1 356.9L183.2 356.9L183.3 357L183.3 357.0L183.3 357.0L183.4 357.0L183.4 357.0L183.5 357.0L183.5 357.0L183.5 357.0L183.6 357.0L183.6 357.0L183.6 357.0L183.7 357.0L183.7 357.0L183.7 357.0L183.8 357.0L183.9 357.0L183.9 357.0L184.0 357.0L184.0 357.0L184.1 357.0L184.1 357.0L184.2 357.0L184.2 357.0L184.3 357.0L184.3 357.0L184.3 357.0L184.4 357.0L184.4 357.0L184.5 357.0L184.5 357.0L184.5 357.0L184.6 357.0L184.6 357.0L184.7 356.9L184.7 356.9L184.7 356.9L184.8 356.9L184.8 356.9L184.9 356.9L184.9 356.9L185.1 356.8L185.1 356.8L185.2 356.8L185.2 356.8L185.2 356.8L185.3 356.7L185.3 356.7L185.4 356.7L185.4 356.7L185.5 356.6L185.5 356.6L185.5 356.6L185.6 356.6L185.6 356.6L185.6 356.6L185.8 356.5L185.8 356.5L185.9 356.4L185.9 356.4L185.9 356.4L185.9 356.4L186.0 356.3L186.0 356.3L186.0 356.3L186.1 356.3L186.1 356.2L186.2 356.2L186.2 356.1L186.2 356.1L186.3 356.1L186.3 356.1L186.3 356.0L186.4 356.0L186.4 356.0L186.4 355.9L186.4 355.9L186.5 355.8L186.6 355.7L186.6 355.7L186.6 355.7L186.7 355.6L186.7 355.6L186.7 355.6L186.7 355.5L186.8 355.5L186.8 355.4L186.9 355.3L186.9 355.3L186.9 355.3L186.9 355.2L186.9 355.2L186.9 355.2L187.0 355.1L187.0 355.1L187.0 355.0L187.0 355.0L187.0 355.0L187.0 354.9L187.1 354.9L187.1 354.9L187.1 354.8L187.1 354.8L187.1 354.8L187.2 354.6L187.2 354.5L187.2 354.5L187.2 354.4L187.2 354.3L187.2 354.3L187.2 354.2L187.3 354.2L187.3 354.2L187.3 354.1L187.3 354.1L187.3 354.1L187.3 354.0L187.3 354.0L187.3 354.0L187.3 353.9L187.3 353.4L187.3 353.4L187.9 351.5L189.0 349.9L190.5 348.7L192.4 347.9L194.3 347.7L195.1 347.8L197.3 348.6L197.4 348.6L197.4 348.6L197.4 348.7L197.5 348.7L197.5 348.7L197.5 348.7L197.6 348.7L197.6 348.7L197.6 348.8L197.8 348.8L197.8 348.8L197.8 348.8L197.9 348.9L197.9 348.9L198.0 348.9L198.0 348.9L198.1 348.9L198.1 348.9L198.2 348.9L198.2 349.0L198.2 349.0L198.3 349.0L198.4 349.0L198.4 349.0L198.5 349.0L198.5 349.0L198.5 349.0L198.6 349.0L198.6 349.0L198.7 349.0L198.7 349.0L198.8 349.0L198.8 349.0L198.8 349.1L198.9 349.1L198.9 349.1L199.0 349.1L199.1 349.1L199.1 349.1L199.2 349.1L199.2 349.1L199.3 349.0L199.3 349.0L199.3 349.0L199.4 349.0L199.4 349.0L199.5 349.0L199.5 349.0L199.5 349.0L199.6 349.0L199.6 349.0L199.6 349.0L199.7 349.0L199.7 349.0L199.7 349.0L199.8 349.0L199.9 349.0L199.9 348.9L199.9 348.9L200.0 348.9L200.0 348.9L200.1 348.9L200.1 348.9L200.2 348.9L200.2 348.8L200.3 348.8L200.3 348.8L200.4 348.8L200.4 348.7L200.5 348.7L200.5 348.7L200.5 348.7L200.6 348.7L200.6 348.7L200.6 348.6L200.7 348.6L200.7 348.6L202.2 348.0L203.8 347.7L203.9 347.7L206.5 348.2L206.6 348.2L206.6 348.2L206.8 348.3L206.9 348.3L206.9 348.3L206.9 348.3L207.0 348.3L207.0 348.3L207.1 348.3L207.1 348.3L207.2 348.4L207.2 348.4L207.3 348.4L207.3 348.4L207.3 348.4L207.4 348.4L207.4 348.4L207.5 348.4L207.6 348.4L207.6 348.4L207.6 348.4L207.9 348.4L208.0 348.4L208.0 348.4L208.0 348.4L208.1 348.4L208.1 348.4L208.2 348.4L208.3 348.4L208.3 348.4L208.3 348.4L208.4 348.4L208.4 348.4L208.5 348.3L208.5 348.3L208.6 348.3L208.6 348.3L208.7 348.3L208.7 348.3L208.7 348.3L208.8 348.3L208.9 348.2L208.9 348.2L209.0 348.2L209.1 348.2L209.1 348.2L209.1 348.1L209.2 348.1L209.2 348.1L209.3 348.1L209.3 348.1L209.3 348.0L209.4 348.0L209.4 348.0L209.4 348.0L209.5 348.0L209.5 347.9L209.5 347.9L209.6 347.9L209.6 347.9L209.7 347.8L209.7 347.8L209.7 347.8L209.8 347.8L209.8 347.8L209.8 347.7L209.9 347.7L209.9 347.7L209.9 347.7L210.0 347.6L210.1 347.5L210.1 347.5L210.1 347.5L210.1 347.5L210.2 347.4L210.2 347.4L210.2 347.4L210.3 347.3L210.3 347.3L210.4 347.2L210.4 347.2L210.4 347.1L210.5 347.1L210.5 347.1L210.5 347.0L210.5 347.0L210.5 347.0L210.6 347L210.6 346.9L210.7 346.8L210.7 346.7L210.7 346.7L210.7 346.7L210.8 346.6L210.8 346.6L210.8 346.6L210.8 346.5L210.8 346.5L210.8 346.5L210.9 346.4L210.9 346.3L210.9 346.3L210.9 346.3L211.0 346.0L211.0 345.9L211.2 345.5L211.2 345.3L211.2 345.3L211.3 345.2L211.3 345.1L211.3 345.1L211.3 345.0L211.3 345.0L211.3 344.9L211.3 344.9L211.3 344.8L211.3 344.8L211.3 344.8L211.3 344.7L211.3 344.7L211.4 344.7L211.4 344.6L211.4 344.6L211.4 344.6L211.4 344.5L211.4 344.5L211.4 344.2L211.4 344.1L211.4 344.1L211.4 344.1L211.4 344.0L211.3 344.0L211.3 343.9L211.3 343.9L211.3 343.8L211.3 343.8L211.3 343.8L211.3 343.7L211.3 343.7L211.3 343.7L211.3 343.6L211.3 343.5L211.3 343.5L211.3 343.5L211.2 343.4L211.2 343.4L211.2 343.3L211.2 343.3L211.2 343.3L211.2 343.2L211.2 343.2L211.2 343.2L211.1 343.1L211.1 343.1L211.1 343.1L211.1 343.0L211.1 343.0L211.1 343.0L211.0 342.9L211.0 342.9L211.0 342.8L211.0 342.8L211.0 342.8L211.0 342.7L210.9 342.7L210.9 342.6L210.9 342.6L210.8 342.5L210.8 342.5L210.8 342.4L210.7 342.4L210.7 342.4L210.7 342.3L210.7 342.3L210.7 342.3L210.6 342.2L210.6 342.2L210.6 342.2L210.5 342.1L210.5 342.0L210.3 341.9L210.3 341.9L210.3 341.8L210.2 341.8L210.1 341.7L210.1 341.7L210.1 341.7L210.0 341.7L210.0 341.6L210.0 341.6L210.0 341.6L209.9 341.6L209.9 341.6L209.8 341.5L209.8 341.5L209.7 341.5L209.7 341.4L209.6 341.4L209.6 341.4L209.6 341.4L209.5 341.3L209.5 341.3L209.5 341.3L209.4 341.3L209.4 341.3L209.3 341.3L209.3 341.2L209.2 341.2L209.2 341.2L209.1 341.2L209.0 341.1L209.0 341.1L208.9 341.1L208.9 341.1L208.9 341.1L208.8 341.1L208.7 341.1L208.3 340.9L207.8 341.0L207.8 341.0L206.7 341L206.7 341L204.4 340.3L202.5 338.9L201.3 336.9L200.7 334.6L200.7 334.1L201.1 332.1L201.5 331.1L203.1 329.1L205.3 327.9L206.7 327.6L208.0 327.6L209.0 327.7L209.0 327.7L209.5 327.9L209.9 327.8L210.0 327.8L210.0 327.8L210.1 327.8L210.1 327.8L210.1 327.8L210.2 327.8L210.2 327.8L210.2 327.8L210.3 327.8L210.3 327.8L210.4 327.8L210.5 327.7L210.6 327.7L210.6 327.7L210.6 327.7L210.7 327.7L210.7 327.7L210.8 327.7L210.9 327.6L210.9 327.6L211.0 327.6L211.0 327.6L211.0 327.6L211.1 327.6L211.1 327.5L211.2 327.5L211.2 327.5L211.2 327.5L211.3 327.5L211.3 327.4L211.4 327.4L211.4 327.4L211.4 327.4L211.5 327.4L211.5 327.3L211.6 327.3L211.6 327.2L211.7 327.2L211.7 327.2L211.7 327.2L211.8 327.2L211.8 327.1L211.8 327.1L211.8 327.1L211.9 327.1L211.9 327.0L212.0 327.0L212.0 327.0L212.0 326.9L212.1 326.9L212.1 326.9L212.1 326.9L212.1 326.8L212.2 326.8L212.2 326.7L212.3 326.7L212.4 326.6L213.8 325.3L215.6 324.5L216.9 324.2L217.0 324.2L217.0 324.2L217.1 324.2L217.1 324.2L217.2 324.2L217.2 324.2L217.3 324.2L217.3 324.2L217.3 324.2L217.4 324.2L217.5 324.1L217.6 324.1L217.6 324.1L217.6 324.1L217.7 324.1L217.7 324.1L217.9 324.0L217.9 324.0L218.0 324.0L218.0 324.0L218.0 323.9L218.1 323.9L218.1 323.9L218.1 323.9L218.2 323.9L218.2 323.9L218.3 323.8L218.3 323.8L218.3 323.8L218.3 323.8L218.4 323.7L218.4 323.7L218.5 323.7L218.5 323.7L218.6 323.6L218.6 323.6L218.7 323.6L218.7 323.6L218.7 323.5L218.7 323.5L218.8 323.5L218.8 323.4L218.9 323.4L219.0 323.3L219.0 323.3L219.0 323.3L219.1 323.2L219.1 323.1L219.2 323.1L219.2 323.1L219.9 322.4L220.6 321.9L220.6 321.9L220.7 321.8L220.7 321.8L220.8 321.8L220.8 321.8L220.8 321.7L220.9 321.7L220.9 321.7L220.9 321.7L221.0 321.6L221.0 321.6L221.0 321.6L221.1 321.5L221.2 321.4L221.3 321.3L221.3 321.3L221.3 321.3L221.4 321.2L221.4 321.1L221.5 321.1L221.5 321.1L221.5 321.0L221.5 321.0L221.6 321.0L221.6 320.9L221.6 320.9L221.6 320.8L221.7 320.8L221.7 320.7L221.7 320.7L221.8 320.6L221.8 320.6L221.8 320.6L221.8 320.5L221.8 320.5L221.8 320.5L221.9 320.4L221.9 320.4L221.9 320.3L221.9 320.3L221.9 320.3L222.0 320.2L222.0 320.2L222.0 320.1L222.0 320.1L222.0 320.1L222.0 320.0L222.0 320.0L222.0 319.9L222.1 319.9L222.1 319.9L222.1 319.8L222.1 319.7L222.1 319.7L222.1 319.6L222.1 319.6L222.1 319.6L222.1 319.5L222.1 319.5L222.1 319.5L222.1 319.4L222.1 319.4L222.1 319.3L222.2 319.3L222.2 319.3L222.2 319.2L222.2 319.2L222.2 319.1L222.2 319.1L222.2 319.0L222.2 319.0L222.2 318.9L222.2 318.9L222.2 318.8L222.2 318.8L222.1 318.7L222.1 318.7L222.1 318.7L222.1 318.6L222.1 318.6L222.1 318.6L222.1 318.5L222.1 318.5L222.1 318.5L222.1 318.4L222.1 318.3L222.1 318.3L222.1 318.2L222.0 318.2L222.0 318.1L222.0 318.1L222.0 318.1L222.0 318.0L222.0 317.9L222.0 317.9L222 317.9L221.9 317.8L221.9 317.8L221.9 317.8L221.9 317.7L221.9 317.7L221.8 317.6L221.8 317.6L221.8 317.5L221.8 317.5L221.8 317.5L221.8 317.4L221.7 317.4L221.0 315.3L220.9 314.5L220.9 313.2L220.9 313.2L221.6 311.1L222.8 309.4L224.6 308.1L227.0 307.4L227.1 307.4L227.1 307.4L227.2 307.4L227.2 307.4L227.3 307.4L227.3 307.4L227.3 307.4L227.4 307.4L227.4 307.4L227.4 307.4L227.5 307.3L227.6 307.3L227.6 307.3L227.7 307.3L227.7 307.3L227.7 307.3L227.8 307.3L228.0 307.2L228.0 307.2L228.1 307.2L228.1 307.2L228.1 307.2L228.2 307.1L228.3 307.1L228.3 307.1L228.3 307.1L228.4 307.0L228.4 307.0L228.4 307.0L228.5 307.0L228.5 307.0L228.5 307.0L228.6 306.9L228.6 306.9L228.7 306.8L228.7 306.8L228.8 306.8L228.8 306.8L228.8 306.8L228.9 306.7L228.9 306.7L228.9 306.7L229.0 306.6L229.0 306.6L229.0 306.6L229.1 306.6L229.1 306.5L229.3 306.4L229.3 306.3L229.3 306.3L229.4 306.2L229.4 306.2L229.4 306.2L229.5 306.1L229.5 306.1L229.5 306.0L229.6 306.0L229.6 306.0L229.6 305.9L229.6 305.9L229.6 305.9L229.7 305.8L229.7 305.8L229.7 305.8L229.7 305.7L229.8 305.7L229.8 305.6L229.8 305.6L229.8 305.6L229.8 305.5L229.9 305.5L229.9 305.4L229.9 305.4L229.9 305.3L229.9 305.3L230.0 305.3L230.0 305.2L230.0 305.0L230.0 305.0L230.1 305.0L230.1 304.9L230.1 304.9L230.1 304.8L230.1 304.8L230.1 304.7L230.1 304.7L230.1 304.6L230.1 304.6L230.1 304.6L230.1 304.5L230.1 304.5L230.2 304.5L230.2 304.4L230.2 304.4L230.2 304.3L230.2 304.3L230.2 304.3L230.2 304.2L230.2 304.2L230.2 304.1L230.2 304.1L230.2 304.0L230.2 303.9L230.2 303.9L230.2 303.8L230.2 303.8L230.2 303.8L230.2 303.7L230.2 303.7L230.2 303.6L230.1 303.6L230.1 303.6L230.1 303.5L230.1 303.5L230.1 303.5L230.1 303.4L230.1 303.3L230.1 303.2L230.1 303.2L230.1 303.2L230.0 303.1L230.0 303.1L230.0 303.0L230.0 303.0L230.0 302.9L230.0 302.9L229.9 302.8L229.9 302.7L229.9 302.7L229.9 302.7L229.9 302.6L229.8 302.6L229.8 302.5L229.8 302.5L229.8 302.5L229.7 302.4L229.7 302.4L229.6 302.2L229.6 302.2L229.6 302.1L229.5 302.1L229.5 302.1L229.5 302.0L229.5 302.0L229.5 302.0L229.4 302L229.4 301.9L229.4 301.9L229.3 301.8L229.3 301.8L228.7 301.1L228.7 301.0L228.7 301.0L228.6 300.9L228.6 300.9L228.6 300.8L228.6 300.8L228.5 300.8L228.5 300.8L228.5 300.7L228.5 300.7L228.4 300.6L228.4 300.6L228.4 300.6L228.3 300.6L228.3 300.5L228.3 300.5L228.3 300.5L228.2 300.5L228.2 300.4L228.2 300.4L228.2 300.4L228.1 300.4L228.1 300.3L228.0 300.3L228.0 300.3L228.0 300.2L228 300.2L227.9 300.2L227.9 300.1L227.8 300.1L227.8 300.1L227.8 300.1L227.6 300.0L227.6 300.0L227.6 300.0L227.5 300.0L227.5 299.9L227.5 299.9L227.5 299.9L227.4 299.9L227.4 299.9L227.3 299.8L227.3 299.8L227.2 299.8L227.2 299.8L227.2 299.8L227.1 299.8L227.1 299.7L227.0 299.7L227.0 299.7L226.9 299.7L226.9 299.7L226.8 299.7L226.8 299.6L226.8 299.6L226.7 299.6L226.6 299.6L226.6 299.6L226.6 299.6L226.5 299.6L226.5 299.6L226.5 299.6L226.4 299.6L226.4 299.6L226.4 299.6L226.3 299.6L226.3 299.5L226.2 299.5L226.2 299.5L226.2 299.5L226.1 299.5L226.1 299.5L226.1 299.5L226.0 299.5L225.9 299.5L225.9 299.5L225.8 299.5L225.8 299.5L225.7 299.5L225.7 299.5L225.6 299.5L225.6 299.5L225.6 299.5L225.5 299.5L225.5 299.6L225.5 299.6L225.4 299.6L225.4 299.6L225.4 299.6L225.3 299.6L225.3 299.6L225.2 299.6L225.2 299.6L225.2 299.6L225.1 299.6L225.1 299.6L225.1 299.6L225.0 299.6L225.0 299.7L225.0 299.7L224.9 299.7L224.9 299.7L224.8 299.7L224.8 299.7L224.8 299.7L224.7 299.7L224.7 299.7L224.7 299.8L224.6 299.8L224.6 299.8L224.5 299.8L224.5 299.8L224.4 299.9L224.4 299.9L224.4 299.9L224.3 299.9L224.3 299.9L224.3 300.0L224.2 300.0L224.1 300.1L224.0 300.1L224.0 300.1L223.9 300.2L223.9 300.2L223.9 300.2L223.8 300.2L223.8 300.3L223.8 300.3L223.8 300.3L223.7 300.4L223.7 300.4L223.6 300.4L223.6 300.4L223.6 300.5L223.5 300.6L223.5 300.6L223.4 300.6L223.4 300.6L223.4 300.7L223.4 300.7L223.3 300.7L223.3 300.8L223.2 300.8L223.2 300.9L223.2 300.9L223.2 300.9L223.2 301.0L223.1 301.0L223.1 301.1L221.5 302.7L219.5 303.7L219.3 303.8L219.2 303.8L219.2 303.8L219.1 303.9L219.1 303.9L219.1 303.9L219.0 303.9L219.0 303.9L219.0 303.9L218.9 304.0L218.9 304.0L218.8 304.0L218.8 304.0L218.8 304.0L218.7 304.1L218.7 304.1L218.6 304.1L218.6 304.1L218.6 304.2L218.5 304.2L218.5 304.2L218.5 304.2L218.4 304.3L218.4 304.3L218.4 304.3L218.3 304.3L218.3 304.4L218.3 304.4L218.2 304.4L218.2 304.4L218.2 304.5L218.2 304.5L218.1 304.5L218.1 304.5L218.1 304.6L218.0 304.6L218.0 304.6L218.0 304.6L218.0 304.7L217.9 304.7L217.9 304.8L217.8 304.8L217.8 304.8L217.8 304.9L217.8 304.9L217.8 304.9L217.7 305.0L217.7 305.0L217.7 305.1L217.6 305.1L217.5 305.3L217.5 305.3L217.5 305.4L217.5 305.4L217.4 305.4L217.4 305.5L217.4 305.6L217.4 305.6L217.3 305.7L217.3 305.7L217.3 305.7L217.3 305.8L217.3 305.9L217.2 305.9L217.2 306.0L217.2 306.0L216.6 307.4L215.5 308.8L214.0 310L212.1 310.6L210.2 310.7L210.2 310.7L210.1 310.7L210.1 310.7L208.6 310.4L208.4 310.3L208.3 310.3L208.3 310.3L208.2 310.3L208.2 310.3L208.1 310.2L208.1 310.2L208.0 310.2L207.9 310.2L207.9 310.2L207.8 310.2L207.8 310.2L207.7 310.2L207.6 310.2L207.6 310.2L207.6 310.2L207.5 310.2L207.3 310.2L207.3 310.2L207.2 310.2L207.2 310.2L207.2 310.2L207.1 310.2L207.1 310.2L207.0 310.2L207.0 310.2L207.0 310.2L206.9 310.2L206.9 310.2L206.8 310.2L206.8 310.2L206.7 310.2L206.7 310.3L206.6 310.3L206.6 310.3L206.6 310.3L206.5 310.3L206.5 310.3L206.3 310.4L206.3 310.4L206.3 310.4L206.2 310.4L206.2 310.4L206.2 310.4L206.1 310.4L206.1 310.5L206.1 310.5L206.0 310.5L206.0 310.5L205.9 310.5L205.9 310.5L205.9 310.6L205.8 310.6L205.8 310.6L205.8 310.6L205.7 310.6L205.7 310.7L205.6 310.7L205.6 310.7L205.5 310.8L205.5 310.8L205.5 310.8L205.4 310.8L205.4 310.9L205.3 310.9L205.3 310.9L205.3 311L205.2 311.0L205.2 311.0L205.1 311.1L205.1 311.1L205.1 311.1L205.0 311.2L205.0 311.3L204.9 311.3L204.9 311.3L204.9 311.4L204.8 311.4L204.8 311.5L204.8 311.5L204.7 311.5L204.7 311.6L204.7 311.6L204.7 311.6L204.6 311.7L204.5 311.8L204.5 311.9L204.5 311.9L204.5 311.9L204.4 312.0L204.4 312.0L204.4 312.0L204.4 312.1L204.4 312.1L204.4 312.1L204.3 312.2L204.3 312.2L204.3 312.3L204.3 312.3L204.3 312.3L204.3 312.4L204.2 312.4L204.2 312.6L204.2 312.6L204.2 312.6L204.2 312.7L204.2 312.7L204.1 312.8L204.1 312.9L204.1 312.9L204.1 313.0L204.1 313.0L204.1 313.0L204.1 313.1L204.1 313.1L204.1 313.1L204.1 313.2L204.1 313.2L204.1 313.3L204.1 313.3L204.1 313.4L204.1 313.4L204.1 313.5L204.1 313.6L204.1 313.7L204.1 313.7L204.1 313.8L204.1 314.1L204.1 314.5L203.7 316.4L202.8 318.0L201.5 319.4L199.9 320.3L197.4 320.8L197.3 320.8L196.9 320.8L196.4 320.8L194.6 320.2L193.0 319.2L191.7 317.8L190.9 316.1L190.9 315.9L190.8 315.9L190.8 315.8L190.8 315.8L190.8 315.7L190.8 315.7L190.8 315.7L190.8 315.6L190.7 315.6L190.7 315.6L190.7 315.5L190.7 315.5L190.7 315.4L190.6 315.4L190.6 315.4L190.6 315.3L190.6 315.3L190.5 315.2L190.5 315.2L190.5 315.1L190.4 315.1L190.4 315.1L190.4 315.0L190.4 315.0L190.4 315.0L190.3 315.0L190.3 314.9L190.3 314.9L190.3 314.9L190.2 314.8L190.2 314.8L190.2 314.8L190.1 314.7L190.1 314.7L190.1 314.7L190.1 314.6L190.0 314.6L190.0 314.6L190.0 314.6L190.0 314.5L189.9 314.5L189.9 314.5L189.9 314.5L189.8 314.4L189.8 314.4L189.7 314.4L189.7 314.3L189.6 314.3L189.6 314.3L189.6 314.3L189.5 314.2L189.4 314.1L189.4 314.1L189.4 314.1L189.3 314.1L189.3 314.1L189.3 314.1L189.2 314.0L189.2 314.0L189.1 314.0L189.1 314.0L189.1 314.0L189.0 314L189.0 313.9L189.0 313.9L188.9 313.9L188.9 313.9L188.6 313.8L187.4 313.3L187.3 313.3L185.8 312.0L185.7 311.9L185.6 312.0L184.0 313.3L184.0 313.3L184.0 313.3L183.9 313.3L183.2 313.6L182.9 314.4L182.9 314.4L181.4 316.0L179.4 317.1L177.4 317.5L175.4 317.2L173.5 316.4L172.0 315.0L171.6 314.3L173.3 312.5L181.0 309.7L187.0 310.0L192.7 307.7L197.9 311.5L198.3 310.6L195.9 306.3L198.7 305.4L202.8 310.1L205.2 309.9L206.9 307.7L203.5 308.8L201.3 307.3L197.9 300.1L200.9 294.8L202.7 293.8L199.3 292.2L199.3 286.9L202.0 285.2L204.3 280.3L204.6 277.2L205.0 277.2L207.3 278.0L209.2 279.5L210.4 281.6L210.4 281.7L210.4 281.7L210.5 281.8L210.5 281.8L210.5 281.8L210.5 281.9L210.5 281.9L210.5 281.9L210.6 282.0L210.6 282.0L210.6 282.0L210.6 282.1L210.6 282.1L210.6 282.1L210.7 282.2L210.7 282.2L210.7 282.2L210.8 282.4L210.8 282.4L210.8 282.4L210.8 282.5L210.9 282.5L210.9 282.5L210.9 282.5L210.9 282.6L210.9 282.6L211.0 282.6L211.0 282.7L211.0 282.7L211.0 282.7L211.1 282.8L211.1 282.8L211.1 282.8L211.2 282.9L211.2 282.9L211.3 283.0L211.3 283.0L211.4 283.0L211.4 283.1L211.4 283.1L211.5 283.1L211.5 283.2L211.6 283.2L211.6 283.2L211.6 283.2L211.6 283.3L211.7 283.3L211.7 283.3L211.8 283.4L211.8 283.4L211.9 283.4L211.9 283.4L211.9 283.4L212.0 283.5L212.0 283.5L212.0 283.5L212.1 283.5L212.1 283.5L212.1 283.5L212.2 283.6L212.2 283.6L212.3 283.6L212.3 283.6L212.3 283.6L212.4 283.7L212.4 283.7L212.4 283.7L212.5 283.7L212.6 283.7L212.6 283.7L212.6 283.7L212.7 283.8L212.8 283.8L212.8 283.8L212.9 283.8L212.9 283.8L213.0 283.8L213.0 283.8L213.0 283.8L213.1 283.8L213.1 283.9L213.1 283.9L213.2 283.9L213.2 283.9L213.3 283.9L213.3 283.9L213.4 283.9L213.4 283.9L213.4 283.9L213.5 283.9L213.7 283.9L213.7 283.9L213.8 283.9L214.5 283.9L217.4 284.7L217.5 284.8L217.5 284.8L217.5 284.8L217.6 284.8L217.6 284.8L217.6 284.8L217.7 284.8L217.7 284.9L217.8 284.9L217.8 284.9L217.8 284.9L217.9 284.9L217.9 285L218 285.0L218.0 285.0L218.0 285.0L218.1 285.0L218.1 285.0L218.1 285.0L218.2 285.0L218.3 285.1L218.3 285.1L218.4 285.1L218.5 285.1L218.5 285.1L218.5 285.1L218.6 285.1L218.6 285.1L218.6 285.1L218.7 285.1L218.7 285.1L218.8 285.1L218.8 285.2L218.9 285.2L218.9 285.2L218.9 285.2L219.0 285.2L219.2 285.2L219.3 285.2L219.3 285.2L219.3 285.2L219.4 285.1L219.4 285.1L219.5 285.1L219.5 285.1L219.5 285.1L219.6 285.1L219.6 285.1L219.6 285.1L219.7 285.1L219.7 285.1L219.7 285.1L219.8 285.1L219.9 285.1L219.9 285.1L220.0 285.0L220.0 285.0L220.0 285.0L220.1 285.0L220.1 285.0L220.2 285.0L220.2 285.0L220.3 284.9L220.3 284.9L220.4 284.9L220.5 284.9L220.5 284.9L220.5 284.8L220.6 284.8L220.6 284.8L220.7 284.8L220.7 284.8L220.7 284.7L220.8 284.7L220.8 284.7L220.8 284.7L220.9 284.6L220.9 284.6L221.0 284.6L221.0 284.6L221.0 284.5L221.1 284.5L221.1 284.5L221.1 284.5L221.2 284.5L221.2 284.4L221.2 284.4L221.3 284.4L221.3 284.3L221.3 284.3L221.4 284.3L221.4 284.3L221.6 284.1L221.6 284.0L221.6 284.0L221.7 283.9L221.7 283.9L221.8 283.9L221.8 283.8L221.8 283.8L221.8 283.8L221.8 283.7L221.9 283.7L221.9 283.6L221.9 283.6L223.3 282.1L223.3 282.0L223.3 282.0L223.4 282.0L223.4 282.0L223.4 281.9L223.5 281.9L223.5 281.9L223.5 281.9L223.6 281.8L223.6 281.8L223.6 281.7L223.7 281.6L223.7 281.6L223.8 281.6L223.8 281.6L223.8 281.5L223.8 281.5L223.9 281.4L223.9 281.4L223.9 281.4L224 281.3L224.0 281.3L224.0 281.2L224.0 281.2L224.1 281.1L224.1 281.1L224.1 281.1L224.1 281.0L224.1 281.0L224.2 281.0L224.2 280.9L224.2 280.9L224.2 280.9L224.2 280.8L224.2 280.8L224.2 280.8L224.3 280.7L224.3 280.7L224.3 280.7L224.4 280.4L224.4 280.4L224.4 280.3L224.4 280.3L224.4 280.3L224.4 280.2L224.4 280.1L224.4 280.1L224.5 280.1L224.5 280.0L224.5 280.0L224.5 280L224.5 279.9L224.5 279.8L224.5 279.7L224.5 279.7L224.5 279.7L224.5 279.6L224.5 279.6L224.5 279.4L224.5 279.3L224.5 279.3L224.5 279.3L224.5 279.2L224.5 279.2L224.5 279.1L224.5 279.1L224.5 279.1L224.5 279.0L224.5 279.0L224.5 279.0L224.5 278.9L224.4 278.9L224.4 278.8L224.4 278.8L224.4 278.8L224.4 278.7L224.2 277.1L224.7 274.8L225.9 272.7L227.7 271.3L228.6 270.9L228.6 270.8L228.7 270.8L228.7 270.8L228.7 270.8L228.8 270.8L228.8 270.8L228.8 270.8L228.9 270.7L228.9 270.7L229.0 270.7L229.0 270.7L229.0 270.7L229.1 270.6L229.1 270.6L229.3 270.5L229.3 270.5L229.4 270.4L229.4 270.4L229.4 270.4L229.5 270.4L229.5 270.3L229.5 270.3L229.7 270.2L229.7 270.2L229.7 270.1L229.8 270.1L229.8 270.1L229.8 270.1L229.8 270.0L229.9 270.0L229.9 270.0L230.0 269.8L230.0 269.8L230.1 269.8L230.1 269.7L230.1 269.7L230.2 269.6L231.5 268.3L230.6 266.7L230.6 266.6L230.6 266.6L230.6 266.5L230.5 266.5L230.5 266.5L230.5 266.3L230.5 266.3L230.5 266.3L230.4 266.3L230.4 266.2L230.4 266.2L230.4 266.2L230.4 266.1L230.4 266.1L230.3 266.1L230.3 266.0L230.3 266.0L230.2 265.9L230.2 265.8L230.2 265.8L230.2 265.8L230.1 265.8L230.1 265.7L230.1 265.7L230.1 265.7L230.1 265.6L230.0 265.6L229.9 265.4L229.9 265.4L229.8 265.4L229.8 265.3L229.7 265.3L229.7 265.2L229.1 264.6L229.1 264.6L228.1 262.9L227.6 261.1L227.6 261.1L227.6 260.3L227.6 259.6L227.8 258.8L227.8 258.8L227.8 258.7L227.8 258.6L227.8 258.6L227.8 258.5L227.8 258.5L227.8 258.5L227.8 258.4L227.8 258.4L227.8 258.3L227.8 258.3L227.9 258.3L227.9 258.2L227.9 258.2L227.9 258.1L227.9 257.9L227.9 257.9L227.9 257.8L227.9 257.8L227.9 257.8L227.8 257.7L227.8 257.7L227.8 257.6L227.8 257.6L227.8 257.5L227.8 257.5L227.8 257.5L227.8 257.4L227.8 257.4L227.8 257.3L227.8 257.3L227.8 257.2L227.8 257.2L227.7 257.2L227.7 257.1L227.7 257.1L227.7 257.0L227.7 257.0L227.7 256.9L227.7 256.9L227.7 256.9L227.6 256.8L227.6 256.7L227.6 256.7L227.6 256.7L227.6 256.6L227.5 256.6L227.5 256.6L227.5 256.5L227.5 256.5L227.5 256.5L227.5 256.4L227.4 256.4L227.4 256.3L227.4 256.3L227.4 256.3L227.3 256.2L227.3 256.1L227.3 256.1L227.2 256.1L227.2 256.1L227.2 256.0L227.2 256.0L227.2 256.0L227.1 255.9L227.1 255.9L227.1 255.9L227.1 255.9L227.0 255.8L227.0 255.7L226.9 255.7L226.9 255.7L226.9 255.7L226.9 255.6L226.8 255.6L226.8 255.6L226.8 255.5L226.7 255.5L226.7 255.5L226.7 255.5L226.6 255.4L225.2 253.8L225.2 253.7L225.1 253.6L225.1 253.6L225.1 253.6L225.1 253.6L225.0 253.5L225.0 253.5L225.0 253.4L225.0 253.4L224.9 253.3L224.8 253.3L224.8 253.2L224.8 253.2L224.7 253.1L224.7 253.1L224.7 253.1L224.6 253.1L224.6 253.0L224.5 252.9L224.4 252.9L224.4 252.9L224.4 252.9L224.4 252.8L224.3 252.8L224.3 252.8L224.3 252.8L224.2 252.7L224.2 252.7L224.2 252.7L224.1 252.6L223.3 252.1L221.7 250.7L220.6 249.3L220.5 249.4L218.7 250.8L218.7 250.8L218.6 250.9L218.6 250.9L218.5 250.9L218.5 250.9L218.5 250.9L218.5 251.0L218.4 251.0L218.4 251.0L218.4 251.0L218.3 251.0L218.3 251.1L218.2 251.1L218.2 251.1L218.2 251.1L218.2 251.2L218.1 251.2L218.1 251.2L218.0 251.3L218.0 251.3L217.3 251.7L216.6 253.6L215.3 255.3L213.5 256.4L211.4 257.0L211.4 257.0L209.9 256.9L209.1 258.1L209.1 258.1L207.6 259.3L205.9 260.1L203.1 260.3L202.3 260.1L200.3 259.2L198.7 257.7L197.7 255.8L197.3 253.6L197.5 252.3L198.2 250.3L199.6 248.6L201.4 247.4L203.5 246.9L203.5 246.9L205.0 247.0L205.7 245.8L205.7 245.8L207.1 244.7L207.2 243.9L207.3 243.9L207.3 243.8L207.3 243.8L207.3 243.8L207.3 243.7L207.3 243.7L207.3 243.7L207.3 243.6L207.4 243.6L207.4 243.5L207.4 243.5L207.4 243.4L207.4 243.4L207.4 243.4L207.4 243.3L207.4 243.3L207.4 243.2L207.4 243.1L207.5 243.0L207.5 242.9L208.0 240.8L209.2 239.0L211.0 237.6L213.0 236.9L214.7 236.8L217.0 237.5L219.0 238.9L219.1 239.0L219.1 239.0L219.1 239.0L219.2 239.1L219.2 239.1L219.4 239.3L219.4 239.3L219.5 239.3L219.5 239.3L219.5 239.4L219.6 239.4L221.2 241.0L221.2 241.1L221.3 241.0L223.0 239.7L223.1 239.6L223.1 239.6L223.1 239.6L223.2 239.6L223.2 239.6L223.4 239.4L223.4 239.4L223.5 239.4L223.5 239.4L223.5 239.4L223.5 239.3L223.6 239.3L223.6 239.3L223.7 239.2L223.7 239.2L223.8 239.1L223.8 239.1L223.9 239.0L224.0 239.0L224.0 238.9L224.0 238.9L224.1 238.8L224.1 238.8L224.1 238.8L224.1 238.7L224.2 238.7L224.2 238.7L224.2 238.6L224.3 238.6L224.3 238.6L224.3 238.5L224.4 238.3L224.4 238.3L224.5 238.2L224.5 238.2L224.5 238.2L224.5 238.1L224.5 238.1L224.6 238.1L224.6 238.0L224.6 238.0L224.6 238.0L224.6 237.9L224.6 237.9L224.6 237.9L224.7 237.8L225.7 236.0L227.1 234.7L229 233.8L231 233.5L231.4 233.5L231.8 233.6L233.0 240.5L235.9 247.0L237.8 254.9L240.7 259.1L247.4 262.3L247.3 262.9L246.2 264.7L244.6 266.1L244.5 266.1L244.4 266.1L244.4 266.2L244.3 266.2L244.3 266.2L244.3 266.3L244.3 266.3L244.2 266.3L244.2 266.3L244.0 266.5L244.0 266.5L244.0 266.5L243.8 266.7L243.8 266.7L243.7 266.8L243.7 266.8L243.6 266.9L243.6 266.9L243.6 266.9L243.6 267.0L243.6 267.0L243.5 267.0L243.5 267.1L243.5 267.1L243.4 267.1L243.4 267.2L243.4 267.2L242.7 268.2L242.7 268.2L242.6 268.2L242.6 268.3L242.6 268.3L242.6 268.3L242.6 268.3L242.5 268.4L242.5 268.4L242.5 268.4L242.4 268.5L241.1 269.8L242.0 271.4L242.0 271.5L242.0 271.5L242.0 271.6L242.0 271.6L242.1 271.6L242.1 271.7L242.1 271.7L242.1 271.8L242.1 271.8L242.1 271.8L242.2 271.9L242.2 271.9L242.2 272L242.2 272.0L242.2 272.0L242.2 272.0L242.3 272.1L242.3 272.1L242.4 272.3L242.4 272.3L242.4 272.3L242.4 272.4L242.5 272.4L242.5 272.4L242.5 272.4L242.5 272.5L242.5 272.5L242.6 272.5L242.7 272.7L243.0 273.1L244.1 275.2L244.1 275.2L244.1 275.3L244.1 275.3L244.2 275.4L244.2 275.4L244.2 275.4L244.2 275.5L244.2 275.5L244.2 275.5L244.2 275.6L244.3 275.6L244.3 275.7L244.3 275.7L244.3 275.8L244.4 275.8L244.4 275.8L244.4 275.9L244.4 275.9L244.5 276.1L244.6 276.1L244.6 276.2L244.6 276.2L244.6 276.2L244.6 276.3L244.7 276.3L244.7 276.3L244.7 276.4L244.8 276.4L244.8 276.5L244.9 276.5L244.9 276.5L244.9 276.6L244.9 276.6L245.0 276.6L245.0 276.7L245.1 276.7L245.1 276.7L245.2 276.8L245.2 276.8L245.2 276.9L245.3 276.9L245.3 276.9L245.3 276.9L245.3 276.9L245.4 277.0L245.4 277.0L245.5 277.0L245.6 277.1L245.7 277.1L245.7 277.2L245.7 277.2L245.8 277.2L245.8 277.2L245.8 277.2L245.9 277.3L245.9 277.3L245.9 277.3L246.0 277.3L246.0 277.3L246.1 277.3L246.1 277.4L246.1 277.4L246.2 277.4L246.4 277.5L246.6 277.5L246.8 277.6L246.9 277.6L246.9 277.6L246.9 277.6L247.0 277.6L247.0 277.6L247.1 277.7L247.1 277.7L247.2 277.7L247.3 277.7L247.3 277.7L247.3 277.7L247.4 277.7L247.4 277.7L247.5 277.7L247.5 277.7L247.6 277.7L247.6 277.7L247.7 277.7L247.7 277.7L247.8 277.7L247.8 277.7L247.9 277.7L248.0 277.7L248.0 277.7L248.0 277.7L248.1 277.7L248.1 277.7L248.1 277.7L248.2 277.7L248.3 277.7L248.3 277.7L248.3 277.7L248.4 277.7L248.4 277.7L248.5 277.7L248.6 277.6L248.6 277.6L248.7 277.6L248.7 277.6L248.9 277.5L249.0 277.5L249.0 277.5L249.0 277.5L249.1 277.5L249.1 277.5L249.2 277.4L249.2 277.4L249.2 277.4L249.3 277.4L249.3 277.4L249.3 277.3L249.4 277.3L249.4 277.3L249.5 277.3L249.5 277.2L249.7 277.1L249.7 277.1L249.7 277.1L249.8 277.1L249.8 277.1L249.8 277.0L249.8 277.0L249.9 277.0L249.9 277.0L250.0 276.9L250.0 276.9L250.0 276.8L250.1 276.8L250.1 276.7L250.2 276.7L250.2 276.7L250.2 276.7L250.2 276.6L250.3 276.6L250.3 276.6L250.3 276.5L250.4 276.5L250.4 276.5L250.4 276.4L250.5 276.4L250.5 276.3L250.5 276.3L250.5 276.3L250.5 276.3L250.7 276.1L250.7 276.0L250.7 276.0L250.7 276.0L250.7 275.9L250.8 275.9L250.8 275.9L250.8 275.8L250.8 275.8L250.8 275.8L250.8 275.7L250.8 275.7L250.9 275.7L250.9 275.6L250.9 275.6L250.9 275.6L251.0 275.3L251.0 275.2L251.0 275.2L251.0 275.2L251.0 275.1L251.0 275.1L251.1 275.0L251.1 275.0L251.1 275.0L251.1 274.9L251.1 274.9L251.1 274.8L251.1 274.8L251.1 274.7L251.1 274.7L251.1 274.7L251.1 274.6L251.1 274.6L251.1 274.5L251.1 274.5L251.1 274.4L251.1 274.3L251.1 274.3L251.1 274.2L251.1 274.1L251.1 274.1L251.1 273.6L251.1 273.1L251.7 271.1L252.7 269.5L254.2 268.1L255.1 267.7L258.0 273.6L260.7 276.5L264.9 278.8L262.7 280.0L261.9 282.5L264.0 288.1L270.2 296.8L269.7 299.1L269.5 297.1L267.7 296.3L265.1 297.0L260.9 293.0L254.8 294.2L252.9 293.4L251.0 294.5L255.4 295.0L260.3 293.8L262.4 296.8L270.5 302.5L272.5 305.2L275.1 311.3L275.3 316.5L267.8 324.8L269.7 324.4L273.3 327.7L276.1 328.3L280.0 321.2L287.5 320.8L296.7 321.9L305.5 327.6L307.8 332.9L307.9 341.4L305.0 353.4L299.5 359.2L298.1 357.0L295.4 355.8L298.8 361.1L297.2 363.8L293.3 365.4L291.7 363.4L285.2 367.6L286.6 368.6L290.6 366.7L291.2 371.6L288.6 373.9L287.0 372.9L286.9 372.9L286.9 372.8L286.9 372.8L286.8 372.8L286.8 372.7L286.8 372.7L286.7 372.7L286.7 372.7L286.7 372.6L286.6 372.6L286.6 372.6L286.5 372.6L286.5 372.5L286.5 372.5L286.4 372.5L286.4 372.5L286.3 372.5L286.3 372.4L286.3 372.4L286.2 372.4L286.2 372.4L286.1 372.3L286.1 372.3L286.0 372.3L286.0 372.3L286.0 372.3L285.9 372.3L285.9 372.2L285.9 372.2L285.8 372.2L285.7 372.2L285.7 372.2L285.6 372.2L285.6 372.1L285.6 372.1L285.5 372.1L285.5 372.1L285.4 372.1L285.4 372.1L285.3 372.1L285.3 372.1L285.3 372.1L285.2 372.1L285.2 372.1L285.2 372.1L285.1 372.0L285.0 372.0L285.0 372.0L285.0 372.0L284.9 372.0L284.9 372.0L284.9 372.0L284.8 372.0L284.7 372.0L284.7 372.0L284.6 372.0L284.6 372.0L284.5 372.0L284.5 372.0L284.4 372.0L284.3 372.0L284.3 372.1L284.3 372.1L284.2 372.1L284.2 372.1L284.2 372.1L284.1 372.1L284.1 372.1L284.0 372.1L284.0 372.1L284.0 372.1L283.9 372.1L283.9 372.1L283.8 372.1L283.8 372.2L283.7 372.2L283.7 372.2L283.7 372.2L283.6 372.2L283.5 372.2L283.5 372.3L283.4 372.3L283.4 372.3L283.3 372.3L283.2 372.4L283.2 372.4L283.2 372.4L283.1 372.4L283.1 372.4L283.1 372.5L283.0 372.5L283.0 372.5L282.8 372.6L282.8 372.6L282.8 372.6L282.7 372.7L282.7 372.7L282.6 372.7L282.6 372.8L282.6 372.8L282.5 372.8L282.5 372.9L282.5 372.9L282.4 372.9L282.4 373L282.4 373.0L282.2 373.1L282.1 373.2L282.1 373.3L282.1 373.3L282.0 373.4L282.0 373.4L282.0 373.4L281.9 373.5L281.9 373.5L281.9 373.6L281.8 373.6L281.8 373.7L281.8 373.7L281.8 373.8L281.7 373.8L281.7 373.8L281.7 373.8L281.7 373.9L281.7 373.9L281.7 373.9L281.6 374.0L281.6 374.1L281.6 374.1L281.6 374.2L281.5 374.2L281.5 374.3L281.5 374.3L281.5 374.4L281.5 374.4L281.4 374.5L281.4 374.5L281.4 374.6L281.4 374.7L281.4 374.7L281.4 374.8L281.4 374.9L281.4 374.9L281.3 375.0L281.3 375.0L281.3 375.0L281.3 375.1L281.3 375.2L281.2 375.5L280.1 375.9L278.2 377.9L280.9 376.8L280.6 377.7L279.0 379.7L278.9 379.8L278.8 379.8L278.8 379.9L278.8 379.9L278.8 379.9L278.7 379.9L278.7 380.0L278.7 380.0L278.7 380.0L278.6 380.0L278.6 380.1L278.6 380.1L278.5 380.2L278.5 380.2L278.4 380.3L278.4 380.3L278.4 380.3L278.4 380.4L278.3 380.4L278.3 380.4L278.3 380.5L278.3 380.5L278.2 380.5L278.2 380.6L278.2 380.6L278.2 380.7L278.1 380.7L278.1 380.8L278.1 380.8L278.1 380.8L278.1 380.9L278.0 380.9L278.0 381.0L278.0 381.0L278.0 381.1L278.0 381.1L278 381.1L277.9 381.2L277.9 381.2L277.9 381.2L277.9 381.3L277.9 381.4L277.8 381.4L277.8 381.5L277.8 381.5L277.8 381.5L277.8 381.6L277.8 381.7L277.8 381.7L277.8 381.7L277.8 381.8L277.8 381.8L277.8 381.8L277.8 381.9L277.7 381.9L277.7 381.9L277.7 382.0L277.7 382.1L277.7 382.1L277.7 382.1L277.7 382.2L277.7 382.2L277.7 382.2L277.7 382.5L277.7 382.5L277.7 382.5L277.7 382.6L277.7 382.6L277.7 382.6L277.7 382.7L277.7 382.7L277.7 382.8L277.8 382.8L277.8 382.8L277.8 382.9L277.8 382.9L277.8 383.0L277.8 383.0L277.8 383.1L277.8 383.2L278.0 384.8L278.0 384.8L278.0 385.2L277.7 386.6L277.4 387.5L277.3 387.6L277.3 387.6L277.3 387.7L277.3 387.7L277.2 387.8L277.2 387.8L277.2 387.9L277.1 388.0L277.1 388.1L277.1 388.1L277.1 388.2L277.1 388.2L277.1 388.3L277.1 388.3L277.1 388.4L277.1 388.4L277.1 388.4L277.1 388.5L277.0 388.5L277.0 388.6L277.0 388.6L277.0 388.6L277.0 388.7L277.0 388.7L277.0 388.7L277.0 388.8L277.0 388.8L277.0 388.9L277.0 388.9L277.0 389.0L277.0 389.1L277.0 389.1L277.0 389.2L277.0 389.2L277.0 389.3L277.0 389.3L277.0 389.4L277.0 389.4L277.0 389.4L277.0 389.5L277.1 389.6L277.1 389.6L277.1 389.6L277.1 389.7L277.1 389.8L277.1 389.8L277.1 389.8L277.1 389.9L277.1 389.9L277.1 390.0L277.2 390.0L277.2 390.0L277.2 390.1L277.2 390.2L277.2 390.2L277.2 390.2L277.3 390.3L277.3 390.3L277.3 390.3L277.3 390.4L277.3 390.4L277.3 390.5L277.4 390.5L277.4 390.5L277.4 390.6L277.4 390.6L277.4 390.6L277.4 390.7L277.5 390.8L277.6 390.9L277.6 390.9L277.6 390.9L277.6 391L277.6 391.0L277.7 391.0L277.7 391.0L277.7 391.1L277.7 391.1L277.8 391.1L277.8 391.2L277.8 391.2L277.9 391.3L277.9 391.3L278.0 391.3L278.0 391.4L278.0 391.4L278.0 391.4L278.1 391.5L278.1 391.5L278.1 391.5L278.2 391.6L278.2 391.6L278.3 391.6L278.3 391.6L278.3 391.7L278.3 391.7L278.4 391.7L278.4 391.7L278.4 391.8L278.5 391.8L278.5 391.8L278.7 391.9L278.7 391.9L278.8 392.0L278.8 392.0L278.8 392.0L278.8 392.0L278.9 392.0L278.9 392.0L279.0 392.1L279.0 392.1L279.1 392.1L279.1 392.1L279.1 392.1L279.2 392.1L279.2 392.2L279.4 392.2L279.5 392.2L279.5 392.3L279.6 392.3L279.6 392.3L279.7 392.3L279.7 392.3L279.8 392.3L279.8 392.3L279.9 392.3L279.9 392.3L279.9 392.3L280.0 392.3L280.0 392.4L280.1 392.4L280.1 392.4L280.1 392.4L280.2 392.4L280.2 392.4L280.2 392.4L280.3 392.4L280.4 392.4L280.4 392.4L280.4 392.4L280.5 392.4L280.5 392.4L280.6 392.4L280.6 392.4L280.7 392.4L281.3 392.4L281.9 392.0L281.9 392.0L284.1 391.4L284.2 391.4L284.3 391.4L284.4 391.4L284.5 391.4L284.6 391.3L284.6 391.3L284.7 391.3L284.8 391.3L284.8 391.3L284.8 391.3L284.9 391.3L285.0 391.2L285.1 391.2L285.1 391.2L285.1 391.2L285.2 391.2L285.2 391.1L285.2 391.1L285.3 391.1L285.3 391.1L285.3 391.1L285.4 391.1L285.4 391.0L285.5 391.0L285.5 391.0L285.5 391.0L285.6 391.0L285.6 391L285.7 390.9L285.8 390.8L285.8 390.8L285.8 390.8L285.9 390.8L285.9 390.7L285.9 390.7L286.0 390.7L286.0 390.7L286.1 390.6L286.1 390.6L286.2 390.5L286.2 390.5L286.2 390.5L286.2 390.5L286.3 390.4L286.3 390.4L286.3 390.4L286.3 390.3L286.4 390.3L286.4 390.3L286.9 389.8L287.4 389.4L288.4 388.7L290.8 388.1L291 388.0L291.0 388.0L291.0 388.0L291.1 388.0L291.1 388.0L291.1 388.0L291.2 388.0L291.2 388.0L291.3 388.0L291.4 388.0L291.4 388.0L291.5 387.9L291.5 387.9L291.6 387.9L292.6 387.8L293.1 386.9L293.1 386.9L294.1 386.1L294.3 385.6L294.3 385.6L294.4 385.5L294.4 385.5L294.5 385.4L294.5 385.3L294.5 385.3L294.5 385.3L294.5 385.2L294.5 385.2L294.6 385.1L294.6 385.1L294.6 385.1L294.6 385.1L294.6 385.0L294.6 385L294.6 384.9L294.7 384.8L294.7 384.8L294.7 384.8L294.7 384.7L294.7 384.7L294.7 384.7L294.8 384.5L294.8 384.4L294.8 384.4L294.8 384.2L294.8 384.0L294.8 384.0L295.1 383.0L294.9 382.3L294.9 382.3L294.8 381.1L294.8 381.1L294.8 380.7L301.7 379.3L302.8 381.4L302.2 388.1L294.3 392.3L292.8 394.4L292.8 396.8L288.2 396.8L285.5 399.4L278.2 401.9L275.7 404.6L263.9 401.7L254.0 403.6L251.1 405.7L248.4 404.0L249.5 402.9L248.0 401.5L242.6 401.4L243.5 402.8L242.8 403.9L238.4 403.4L232.2 405.9L224.1 406.4L221.6 405.6L220.7 407.1L223.7 408.1L223.6 410.7L221.2 411.1L213.2 409.0L211.5 410.6L212.2 412.7L206.9 407.8L200.7 405.5L193.0 407.6L188.4 410.1L183.0 423.9L181.4 424.8L179.1 424.4L176.0 420.7L173.5 421.3L170.6 418.1L165.7 418.5L163.2 419.9L156.5 420.2L154.1 423.1L149.5 425.1L149.0 429.9L146.5 431.2L145.6 433.0L143.5 428.7L139.2 426.4L137.6 426.8L136.8 429.1L133.3 428.8L133.9 425.1L138.8 423L140.4 423.9L149.7 415.8L150.8 411.2L156.4 409.6L157.4 406.9 Z M 188.2 387.6L188.1 387.5L187.0 386.9L187.1 386.9 Z M 171.3 313.9L171 313.2L170.6 311.8L170.5 310.5L170.9 308.4L170.9 308.4L172.0 306.5L172.1 306.4L172.8 308.1L176.8 308.9 Z M 210.1 207.1L210.5 208.1L210.8 210.0L212.1 208.6L212.4 208.5L220.9 213.7L226.4 222.4L230.3 224.4L230.6 226.0L229.1 226.6L227.8 226.7L227.8 226.7L226.6 226.7L226.5 226.7L226.4 226.7L226.4 226.6L226.4 226.6L226.2 226.6L226.2 226.6L226.1 226.6L226.1 226.6L226.1 226.6L226.0 226.6L226.0 226.6L225.9 226.6L225.8 226.6L225.7 226.6L225.7 226.6L225.7 226.6L225.5 226.6L225.5 226.6L225.4 226.6L225.4 226.7L225.3 226.7L224.2 226.8L223.7 226.7L223.7 226.7L221.2 226.0L219.2 224.5L219.2 224.5L219.1 224.4L219.1 224.4L219.0 224.3L219.0 224.3L218.9 224.2L218.8 224.1L218.8 224.1L218.7 224.1L218.7 224.0L218.7 224.0L218.7 224.0L218.6 224.0L218.6 224.0L218.5 223.9L218.4 223.9L218.4 223.8L218.4 223.8L218.3 223.8L218.3 223.8L218.3 223.8L218.3 223.7L218.2 223.7L218.2 223.7L218.1 223.7L218.1 223.6L218.0 223.6L218.0 223.6L218.0 223.6L217.9 223.6L217.9 223.6L217.7 223.5L217.7 223.5L217.6 223.5L217.6 223.5L217.5 223.5L217.5 223.5L217.3 223.4L217.3 223.4L217.3 223.4L217.2 223.4L217.2 223.4L217.1 223.4L217.1 223.4L217.0 223.4L217.0 223.4L216.9 223.4L214.5 222.7L212.5 221.1L211.0 218.5L211.0 218.4L211.0 218.3L211.0 218.3L210.9 218.2L210.9 218.1L210.9 218.1L210.9 218.1L210.9 218.0L210.9 218.0L210.8 217.9L210.8 217.9L210.8 217.8L210.8 217.8L210.8 217.8L210.7 217.7L210.7 217.7L210.7 217.6L210.7 217.6L210.6 217.5L209.8 215.7L209.6 213.8L208.3 215.1L206.7 216.1L206.7 216.1L204.5 216.7L204.5 216.7L204.1 216.7L202.6 216.5L200.2 215.5L200.2 215.5L198.7 214.0L197.7 212.1L197.3 210L197.3 209.9L200.5 210.7L203.5 209.5L205.4 206.5L209.4 206.6 Z M 183.5 236.8L183.9 236.8L185.0 236.9L186.9 237.5L186.9 237.5L188.8 238.9L190.1 240.9L190.6 243.1L190.6 243.1L190.4 245.3L190.0 246.2L188.8 246.1L188.2 248.7L188.0 248.9L186.1 249.9L184.0 250.3L184.0 250.3L181.7 249.9L179.7 248.8L178.2 247.0L177.3 244.9L177.2 243.4L177.5 241.6L178.4 239.7L179.8 238.3L181.6 237.3 Z M 169.8 317.6L170.7 317.5L172.6 317.8L174.3 318.7L175.7 320.0L176.7 321.7L177.1 322.9L177.2 324.2L177.2 324.2L177.1 325.6L177.1 325.6L177.0 325.8L176.3 327.5L175.2 328.9L174.9 329.2L173.9 327.7L174.4 323.4L168.0 324.3L165.1 327.6L160.0 327.6L163.4 323.2L169.5 318.9 Z M 171.1 273.7L170.5 273.8L168.4 273.5L166.5 272.5L165.9 271.8L167.4 268.8L171.1 267.1L172.1 271.6 Z M 156.3 251.7L156.8 251.3L158.6 250.5L160.6 250.3L160.6 250.3L158.6 252.4L160.5 258.8L158.7 257.8L158.6 255.2 Z M 162.3 250.6L163.5 251.0L165.1 252.2L165.5 252.7 Z M 152.1 356.9L153.1 358.5L153.6 360.6L153.7 360.6L153.6 362.0L154.8 362.8L155.9 364.1L155.9 364.2L156 364.2L156.0 364.2L156.0 364.3L156.0 364.3L156.1 364.4L156.1 364.4L156.1 364.4L156.2 364.6L156.3 364.6L156.3 364.6L156.4 364.8L156.6 364.9L156.6 364.9L156.7 365.0L156.7 365.0L156.8 365.0L156.8 365.1L156.8 365.1L156.9 365.1L156.9 365.1L157.0 365.2L157.0 365.2L157.1 365.2L158.8 366.6L160.0 368.5L160.1 368.9L159.6 370.2L156.0 370.4L154.1 372.1L151.6 371.0L152.4 369.2L156.2 367.7L155.7 366.4L155.2 367.6L152.7 367.9L147.2 366.7L150.7 365.0L150.2 362.2L147.2 361.4L147.7 359.8L151.1 358.2L151.6 356.9 Z M 119.4 433.1L118.6 433.3L119.0 432.5 Z M 244.9 407.2L242.4 410.4L239.7 411.3L234.6 408.1L232.8 408.3L239.0 404.1L243.5 405.3 Z M 246.9 401.8L247.2 403.9L245.7 403.5 Z M 246.9 401.8 "/>
<path style=" stroke:none;fill-rule:nonzero;fill:rgb(77.6%,78.8%,62.3%);fill-opacity:1;" d="M 139.5 249.0L140.0 249.0L140.9 250.5L141.7 251.3L141.8 249.9L142.6 251.2L142.2 253.1L138.6 255.7L137.7 257.8L141.3 256.4L144.8 256.5L145.9 258.0L146.4 259.9L145.1 261.1L144.4 261.4L143.5 260.3L142.5 260.4L142.7 262.0L141.3 262.2L140.4 262.1L140.4 262.1L138.7 261.7L137.3 260.9L135.9 259.4L135.0 257.6L134.6 255.6L134.6 255.6L134.9 253.4L135.9 251.5L137.5 250.0L139.5 249.0 Z M 126.5 280.9L126.1 280.1L125.9 278.4L126.2 276.3L127.2 274.5L128.6 273.0L130.4 272.0L132.4 271.6L132.4 271.6L134.6 271.9L136.6 273.0L137.7 274.0L136.8 276.8L134.4 279.1L132.8 279.4L127.7 275.2L131.5 280.3L131.3 280.9L130.4 281.3L126.6 280.2 Z M 129.4 325.3L129.2 325.3L127.3 325.0L125.5 324.1L124.0 322.8L123.0 321.0L122.7 320.0L122.5 318.6L122.5 318.6L122.7 317.0L123.2 315.5L123.2 315.5L124.4 313.8L126.1 312.6L128.1 311.9L130.2 311.9L131.1 312.2L131.5 314.1L131.7 320.1 Z M 121.2 293.7L122.1 291.5L123.6 289.6L125.7 288.4L126.0 288.4L126.0 288.4L127.9 288.1L128.5 288.2L128.5 289.0L127.4 290.9L131.3 297.5L130.4 300.3L129.7 300.9L131.3 304.0L129.2 304.4L128.6 305.2L130.3 308.2L129.3 309.6L127.7 310.9L125.7 311.6L123.7 311.6L121.7 311.0L121.6 311.0L121.6 311.0L121.5 310.9L121.5 310.9L121.4 310.9L121.3 310.9L120.3 310.4L118.5 308.9L117.4 306.9L117.0 304.6L117.0 304.6L117.0 304.2L117.4 302.3L118.3 300.5L119.8 299.1L119.9 299.0L119.9 299.0L119.9 299.0L120.0 299.0L120.0 298.9L120.1 298.9L120.1 298.9L120.2 298.8L120.4 298.6L120.4 298.6L120.4 298.6L120.5 298.5L120.5 298.4L120.5 298.4L120.5 298.4L120.6 298.4L120.6 298.3L120.6 298.3L120.7 298.2L120.7 298.2L120.7 298.2L120.7 298.1L120.7 298.1L120.8 298.1L120.8 298.0L120.8 298.0L120.9 297.9L120.9 297.9L120.9 297.9L120.9 297.8L120.9 297.8L121 297.7L121.0 297.7L121.5 296.8L121.2 295.8L121.2 295.8L121.2 294.8L121.2 293.7 Z M 110.0 347.7L110.0 347.5L110.0 347.5L110.0 347.5L110.3 345.7L111.4 343.8L113.0 342.3L114.3 341.6L115.2 341.3L115.3 341.3L115.3 341.3L115.4 341.3L115.4 341.2L115.5 341.2L115.5 341.2L115.5 341.2L115.7 341.2L115.7 341.2L115.7 341.1L115.8 341.1L115.8 341.1L115.8 341.1L115.9 341.1L115.9 341.1L116.0 341.0L116.0 341.0L116.0 341.0L116.1 341.0L116.1 341.0L116.1 341.0L116.2 341L116.2 340.9L116.2 340.9L116.3 340.9L116.3 340.9L116.4 340.8L116.5 340.8L116.5 340.7L116.5 340.7L116.6 340.7L116.6 340.7L116.6 340.6L116.7 340.6L116.7 340.6L116.8 340.6L116.8 340.5L116.8 340.5L116.9 340.5L117.0 340.3L117.0 340.3L117.1 340.2L117.1 340.2L117.1 340.2L117.1 340.2L117.2 340.1L117.2 340.1L117.2 340.1L117.2 340.0L117.3 340.0L117.3 340.0L117.3 340.0L117.3 339.9L117.3 339.9L117.4 339.9L117.5 339.7L117.5 339.7L117.5 339.6L117.5 339.6L117.6 339.5L117.6 339.5L117.6 339.4L117.6 339.4L117.7 339.3L117.7 339.3L117.7 339.3L117.7 339.3L117.7 339.2L118.7 337.5L120.2 336.1L122.0 335.3L123.9 335.0L123.9 335.0L125.3 335.1L125.8 335.2L126.1 335.4L126.1 335.5L122.6 341.4L120.1 341.9L122.7 345.9L122.6 347.7L121.6 348.4L117.3 348.1L115.3 346.9L113.3 346.6L112.8 345.6L110.9 348.3L110.1 348.8L110.0 347.9L110.0 347.9 Z M 98.0 330.9L98 330.0L98.2 328.1L99.0 326.4L100.1 325.0L101.7 324.0L103.3 323.4L105.0 323.3L106.0 323.4L106.0 323.4L108.2 324.2L109.9 325.8L111.0 327.9L111.4 330.1L111.0 332.1L110.2 333.8L108.9 335.2L107.5 336.1L105.9 336.6L104.7 336.7L102.6 336.4L100.8 335.5L100.8 335.5L99.5 334.2L98.5 332.7L98.0 330.9 Z M 108.1 288.7L108.1 289.2L108.1 289.7L108.1 289.7L107.6 291.6L106.7 293.3L105.3 294.6L103.6 295.5L101.6 295.9L101.6 295.9L100.1 295.8L98.5 295.3L98.5 295.3L97.0 294.3L95.8 292.9L95 291.2L94.6 289.4L94.6 289.2L94.7 288.2L95.2 286.5L96.4 284.7L98.0 283.3L100.0 282.6L101.1 282.5L103.2 282.7L105.2 283.7L106.7 285.2L107.6 286.8 Z M 68.7 356.7L69.7 354.3L71.4 352.5L71.4 352.5L73.3 351.5L75.3 351.2L75.3 351.2L76.8 351.4L77.7 350.3L77.7 350.3L79.1 349.2L80.8 348.6L82.5 348.4L82.6 348.4L84.0 348.6L84.0 348.6L84.5 348.9L85.1 348.7L85.1 348.7L85.4 348.7L85.4 348.7L87.6 349.0L89.5 349.9L91.1 351.4L92.2 353.7L92.2 353.9L89.6 354.9L87.4 354.0L85.8 357.1L81.7 359.5L78.5 359.5L78.1 358.9L78.6 357.6L76.9 357.1L76.6 355.6L74.7 355.6L76.6 359.0L75.9 361.5L72.8 363.0L70.5 362.5L69.8 361.8L69.0 360.2L68.6 358.5 Z M 37.3 361.5L35.1 360.7L34.9 360.6L35.1 360.3L37.1 359.3L38.0 358.1L41.2 356.9L43.3 355.3L45.1 354.5L45.1 354.9L44.9 356.7L44.1 358.5L42.9 359.9L41.2 361.0L40.3 361.2L39.9 361.3L39.3 361.5 Z M 31.9 353.9L32.1 352.7L33.2 350.7L34.7 349.3L36.6 348.4L38.6 348.2L41.4 348.9L43.2 350.2L44.5 351.9L45.1 354.0L45.1 354.3L34.6 356.8L32.9 355.7L32.5 353.7 Z M 31.9 353.9 "/>
















</g>
</svg>
