<?xml version="1.0" encoding="UTF-8"?>
<svg xmlns="http://www.w3.org/2000/svg" xmlns:xlink="http://www.w3.org/1999/xlink" width="378pt" height="504pt" viewBox="0 0 378 504" version="1.1">
<g id="data">
<rect x="0" y="0" width="378" height="504" style="fill:rgb(100%,100%,100%);fill-opacity:1;stroke:none;"/>
<path style=" stroke:none;fill-rule:nonzero;fill:rgb(100%,100%,100%);fill-opacity:1;" d="M 21 504L357 504L357 0L21 0 Z M 21 504 "/>
<path style=" stroke:none;fill-rule:nonzero;fill:#C2B855;fill-opacity:1;" d="M 270.0 322.3L269.0 321.1L268.2 319.3L268.0 318.6L267.9 318.0L268.1 315.9L268.9 314.0L270.3 312.4L272.1 311.3L274.6 310.7L274.8 310.8L275.1 311.3L275.3 316.5 Z M 307.9 341.0L307.6 341.1L305.5 340.6L303.6 339.4L302.2 337.7L302.2 337.6L302.2 337.6L302.1 337.4L302.1 337.4L302.1 337.4L302.0 337.4L302.0 337.3L302.0 337.3L302.0 337.3L301.9 337.2L301.9 337.2L301.9 337.1L301.8 337.1L301.8 337.1L301.8 337.1L301.8 337.0L301.7 337.0L301.7 336.9L301.7 336.9L301.6 336.9L301.6 336.8L301.5 336.8L301.5 336.7L301.4 336.7L301.4 336.7L301.4 336.7L301.3 336.6L301.3 336.6L301.3 336.6L301.2 336.6L301.2 336.6L301.2 336.5L301.1 336.5L300.4 335.9L300.3 335.9L300.3 335.8L300.2 335.8L300.2 335.8L300.2 335.7L300.1 335.7L300.1 335.7L300.1 335.7L300.1 335.7L300.0 335.6L300.0 335.6L299.8 335.5L299.8 335.5L299.8 335.5L299.7 335.4L299.7 335.4L299.7 335.4L299.6 335.4L299.6 335.4L299.6 335.4L299.5 335.3L299.5 335.3L299.4 335.3L299.4 335.3L299.4 335.3L299.3 335.3L299.2 335.2L299.2 335.2L299.1 335.2L298.4 334.9L297.8 335.1L297.7 335.1L297.7 335.1L297.6 335.1L297.6 335.1L297.5 335.1L297.5 335.1L297.4 335.1L297.4 335.1L297.4 335.1L297.3 335.1L297.3 335.1L297.3 335.2L297.2 335.2L297.2 335.2L296.9 335.3L296.9 335.3L296.9 335.3L296.8 335.3L296.8 335.3L296.7 335.3L296.7 335.4L296.6 335.4L296.6 335.4L296.5 335.4L296.5 335.5L296.5 335.5L296.4 335.5L296.3 335.6L296.3 335.6L296.3 335.6L296.3 335.6L296.2 335.6L296.2 335.7L296.1 335.7L296.1 335.7L296.1 335.7L296.0 335.8L296.0 335.8L296.0 335.8L295.9 335.9L295.9 335.9L295.8 335.9L295.8 336.0L295.8 336.0L295.7 336.0L295.7 336.1L295.7 336.1L295.7 336.1L295.6 336.1L295.6 336.2L295.6 336.2L295.5 336.3L295.5 336.3L295.5 336.3L295.4 336.4L295.4 336.4L295.4 336.4L295.4 336.5L295.4 336.5L295.3 336.5L295.2 336.7L295.2 336.8L295.2 336.8L295.1 336.8L295.1 336.9L295.1 336.9L295.1 336.9L295.1 337.0L295.1 337.0L295.1 337.0L295.0 337.1L295.0 337.1L295.0 337.1L295.0 337.2L295.0 337.2L295.0 337.3L294.9 337.4L294.9 337.4L294.9 337.5L294.9 337.5L294.9 337.6L294.9 337.6L294.8 337.7L294.8 337.7L294.8 337.8L294.8 337.9L294.8 337.9L294.8 337.9L294.8 338.0L294.8 338.0L294.8 338.0L294.8 338.1L294.8 338.2L294.2 340.4L292.9 342.3L291.1 343.6L288.9 344.3L288.2 344.3L287.1 344.3L284.8 343.5L282.9 341.9L282.4 341.2L282.4 341.2L281.7 339.9L281.7 339.8L281.7 339.8L281.7 339.8L281.7 339.7L281.6 339.7L281.6 339.6L281.6 339.6L281.6 339.5L281.6 339.5L281.6 339.5L281.5 339.4L281.5 339.4L281.5 339.4L281.5 339.3L281.3 339.1L281.3 339.0L281.3 339.0L281.3 339.0L281.2 339L281.2 338.9L281.2 338.9L281.1 338.8L281.1 338.8L281.1 338.8L281.1 338.8L281.0 338.7L281.0 338.7L281.0 338.6L281 338.6L280.9 338.6L280.9 338.6L280.9 338.5L280.8 338.5L280.8 338.5L280.7 338.4L280.7 338.4L280.7 338.4L280.6 338.3L280.6 338.3L280.6 338.3L280.6 338.3L280.5 338.3L280.5 338.2L280.4 338.2L280.4 338.2L280.3 338.1L280.2 338.1L280.2 338.0L280.2 338.0L280.1 338.0L280.1 338.0L280.1 338.0L280.0 338L280.0 337.9L280.0 337.9L279.9 337.9L279.9 337.9L279.9 337.9L279.8 337.9L279.8 337.8L279.8 337.8L279.5 337.7L279.4 337.7L279.4 337.7L279.4 337.7L279.3 337.7L279.2 337.7L279.2 337.7L279.1 337.7L279.1 337.7L279.1 337.7L279.0 337.6L279.0 337.6L279.0 337.6L278.9 337.6L278.9 337.6L278.9 337.6L278.8 337.6L278.8 337.6L278.7 337.6L278.7 337.6L278.6 337.6L278.6 337.6L278.5 337.6L278.5 337.6L278.4 337.6L278.3 337.6L276.6 337.5L275.0 336.9L273.3 335.7L272.1 334.1L271.4 332.2L271.3 330.9L271.3 327.6L271.3 327.4L271.4 326.0L271.5 326.0L273.3 327.7L276.1 328.3L280.0 321.2L287.5 320.8L296.7 321.9L305.5 327.6L307.8 332.9 Z M 298.5 345.7L299.1 344.3L300.1 343.0L301.2 342.1L301.2 342.1L303.2 341.2L305.4 341.0L307.5 341.5L307.8 341.7L305.0 353.4L299.5 359.2L298.1 357.0L295.4 355.8L298.8 361.1L297.2 363.8L296.2 364.2L295.9 364.1L294.2 363.3L292.8 361.8L291.8 360.0L291.4 357.9L291.4 357.4L291.5 356.7L291.5 356.6L291.5 356.6L291.5 356.6L291.6 356.4L291.6 356.3L291.6 356.3L291.6 356.3L291.6 356.2L291.6 356.0L291.6 355.9L291.6 355.9L291.6 355.9L291.6 355.8L291.5 355.7L291.5 355.7L291.5 355.7L291.5 355.6L291.5 355.6L291.5 355.5L291.4 354.4L291.4 354.4L291.8 352.3L292.7 350.4L294.3 349L296.2 348.0L296.2 348.0L296.3 348.0L296.3 348.0L296.3 348L296.4 347.9L296.4 347.9L296.5 347.9L296.5 347.9L296.6 347.8L296.7 347.8L296.7 347.8L296.7 347.8L296.8 347.8L296.8 347.7L296.8 347.7L296.9 347.7L296.9 347.7L297.1 347.6L297.2 347.5L297.2 347.5L297.2 347.5L297.3 347.5L297.3 347.4L297.3 347.4L297.4 347.4L297.4 347.3L297.5 347.3L297.5 347.2L297.5 347.2L297.6 347.2L297.6 347.2L297.6 347.1L297.7 347.1L297.7 347.0L297.7 347.0L297.8 346.9L297.8 346.9L297.9 346.9L297.9 346.8L297.9 346.8L297.9 346.8L297.9 346.8L298.0 346.7L298.0 346.7L298.0 346.6L298.1 346.6L298.1 346.6L298.1 346.5L298.1 346.5L298.1 346.5L298.1 346.4L298.2 346.4L298.2 346.4L298.2 346.3L298.2 346.3L298.2 346.3L298.3 346.2L298.3 346.2L298.3 346.2L298.3 346.1L298.3 346.1L298.3 346.0L298.4 346.0L298.4 346.0L298.5 345.7 Z M 295.8 391.5L295.1 390.0L294.8 387.9L294.8 387.7L294.8 387.7L294.8 387.4L294.9 386.9L294.9 386.9L295.1 386.4L294.9 385.8L294.9 385.8L294.8 384.6L294.8 384.6L295.2 382.4L295.2 382.4L295.8 381.3L295.4 380.6L301.7 379.3L302.8 381.4L302.2 388.1 Z M 231.0 371.6L231.0 370.1L231.0 370.1L231.8 367.9L233.3 366.1L235.4 364.9L237.7 364.5L237.7 364.5L239.8 364.9L242.1 366.2L242.2 366.3L242.2 366.3L242.3 366.3L242.3 366.4L242.3 366.4L242.4 366.4L242.4 366.4L242.4 366.4L242.5 366.5L242.5 366.5L242.5 366.5L242.6 366.6L242.6 366.6L242.7 366.6L242.7 366.6L242.7 366.6L242.8 366.7L242.8 366.7L242.8 366.7L242.9 366.7L242.9 366.7L242.9 366.8L243.0 366.8L243.1 366.8L243.1 366.8L243.1 366.8L243.2 366.9L243.2 366.9L243.3 366.9L243.3 366.9L243.4 366.9L243.4 366.9L243.4 366.9L243.5 367.0L243.5 367.0L243.6 367.0L243.6 367.0L243.6 367.0L243.7 367.0L243.7 367.0L243.8 367.0L243.8 367.0L243.9 367.1L243.9 367.1L243.9 367.1L244.0 367.1L244.0 367.1L244.0 367.1L244.1 367.1L244.1 367.1L244.1 367.1L244.2 367.1L244.3 367.1L244.3 367.1L244.5 367.1L244.6 367.1L244.6 367.1L244.6 367.1L244.7 367.1L244.7 367.1L244.7 367.1L244.8 367.1L244.8 367.1L244.9 367.1L244.9 367.1L245.0 367.1L245.0 367.0L245.0 367.0L245.1 367.0L245.1 367.0L245.2 367.0L245.3 367.0L245.3 367.0L245.3 367.0L245.4 367L245.4 366.9L245.5 366.9L245.5 366.9L245.6 366.9L245.6 366.9L245.7 366.9L245.7 366.8L245.8 366.8L245.8 366.8L245.8 366.8L245.9 366.8L245.9 366.8L245.9 366.7L246.0 366.7L246.0 366.7L246.0 366.7L246.1 366.7L246.1 366.7L246.1 366.6L246.3 366.5L246.3 366.5L246.4 366.5L246.4 366.5L246.4 366.4L246.5 366.4L246.5 366.4L246.5 366.4L246.6 366.3L246.6 366.3L246.6 366.3L246.7 366.2L246.7 366.2L246.7 366.2L246.9 366.0L246.9 366.0L246.9 366.0L246.9 366.0L247.0 365.9L247.0 365.9L247.0 365.8L247.1 365.8L247.1 365.7L247.2 365.7L247.2 365.7L247.2 365.6L247.3 365.5L247.3 365.5L247.3 365.4L247.3 365.4L247.4 365.3L247.4 365.3L247.4 365.3L247.4 365.2L247.4 365.2L247.5 365.1L247.5 365.1L247.5 365.0L247.5 365.0L247.5 365.0L247.6 364.9L247.6 364.9L247.6 364.8L247.6 364.7L247.6 364.7L247.6 364.7L247.7 364.6L247.7 364.6L247.7 364.5L247.7 364.5L247.7 364.4L247.7 364.4L247.7 364.3L247.7 364.3L247.7 364.3L247.7 364.2L247.7 364.2L247.8 364.1L247.8 364.1L247.8 364.1L247.8 364.0L247.8 364.0L247.8 363.6L248.2 362.1L248.2 362.0L248.3 361.8L248.3 361.8L248.3 361.7L248.3 361.7L248.3 361.6L248.4 361.5L248.4 361.5L248.4 361.4L248.4 361.4L248.4 361.3L248.4 361.3L248.4 361.3L248.4 361.2L248.4 361.2L248.4 361.1L248.4 361.1L248.5 361.0L248.5 361.0L248.5 361.0L248.5 360.9L248.5 360.9L248.5 360.7L248.5 360.7L248.5 360.6L248.5 360.6L248.5 360.6L248.4 360.5L248.4 360.5L248.4 360.5L248.4 360.4L248.4 360.3L248.4 360.3L248.4 360.3L248.4 360.2L248.4 360.2L248.4 360.0L248.3 359.9L248.3 359.9L248.3 359.9L248.3 359.8L248.3 359.7L248.3 359.7L248.3 359.7L248.2 359.6L248.2 359.5L248.2 359.5L248.2 359.5L248.2 359.4L248.1 359.4L248.1 359.3L248.1 359.3L248.1 359.3L248.1 359.2L248.1 359.2L248.0 359.2L248.0 359.1L248.0 359.1L248 359.0L247.9 359.0L247.9 359.0L247.9 358.9L247.9 358.9L247.8 358.9L247.8 358.8L247.8 358.8L247.8 358.8L247.7 358.7L247.7 358.7L247.7 358.7L247.6 358.6L247.6 358.6L247.5 358.5L247.5 358.5L247.5 358.4L247.5 358.4L247.4 358.4L247.4 358.4L247.4 358.3L247.4 358.3L247.3 358.3L247.3 358.2L247.3 358.2L247.2 358.2L247.2 358.1L247.1 358.1L247.1 358.1L247.1 358.1L247.0 358.1L247.0 358.0L247.0 358.0L247.0 358.0L246.8 357.9L246.8 357.9L246.7 357.9L246.7 357.8L246.7 357.8L246.6 357.8L246.6 357.8L246.6 357.8L246.5 357.8L246.5 357.7L246.4 357.7L246.4 357.7L246.3 357.7L246.3 357.7L246.3 357.6L246.2 357.6L246.2 357.6L246.1 357.6L246.0 357.6L246.0 357.5L244.0 356.7L242.5 355.2L241.4 353.4L241.0 351.3L241.3 349.1L242.3 347.2L243.8 345.6L245.7 344.7L245.7 344.7L247.9 344.3L250.0 344.7L250.0 344.7L250.1 344.8L250.2 344.8L250.2 344.8L250.3 344.8L250.3 344.8L250.4 344.8L250.5 344.9L250.5 344.9L250.6 344.9L250.6 344.9L250.7 344.9L250.7 344.9L250.7 344.9L250.8 344.9L250.9 344.9L250.9 344.9L250.9 344.9L251.0 344.9L251.3 344.9L251.3 344.9L251.3 344.9L251.4 344.9L251.4 344.9L251.5 344.9L251.6 344.9L251.6 344.9L251.6 344.9L251.7 344.9L251.7 344.9L251.7 344.9L251.8 344.9L251.9 344.8L251.9 344.8L252.0 344.8L252.0 344.8L252.1 344.8L252.2 344.7L252.3 344.7L253.6 344.4L253.6 344.4L254.6 344.3L255.8 344.5L258.0 345.3L259.7 346.8L260.8 348.8L261.2 351.1L261.2 351.1L261.2 351.4L260.9 353.0L260.9 353.1L260.9 353.1L260.9 353.2L260.8 353.2L260.8 353.2L260.8 353.3L260.8 353.3L260.8 353.5L260.8 353.5L260.8 353.5L260.8 353.6L260.8 353.6L260.8 353.6L260.8 353.7L260.7 353.8L260.7 353.8L260.7 353.9L260.7 353.9L260.7 354.0L260.7 354.0L260.7 354.1L260.7 354.2L260.7 354.2L260.7 354.3L260.7 354.3L260.7 354.3L260.8 354.4L260.8 354.5L260.8 354.5L260.8 354.6L260.8 354.6L260.8 354.6L260.8 354.7L260.8 354.8L260.8 354.8L260.8 354.9L260.8 354.9L260.9 355.0L260.9 355.2L260.9 355.2L260.9 355.2L261.0 355.3L261.0 355.3L261.0 355.3L261.0 355.4L261.0 355.5L261.1 355.5L261.1 355.5L261.1 355.6L261.1 355.6L261.1 355.6L261.1 355.7L261.2 355.7L261.2 355.7L261.2 355.8L261.3 355.9L261.3 356.0L261.3 356.0L261.4 356.0L261.4 356.1L261.4 356.1L261.4 356.1L261.5 356.1L261.5 356.2L261.5 356.2L261.6 356.3L261.6 356.3L261.6 356.3L261.6 356.3L261.7 356.4L261.7 356.5L261.8 356.5L261.8 356.5L261.8 356.5L261.9 356.6L261.9 356.6L261.9 356.6L262.0 356.7L262.0 356.7L262.0 356.7L262.1 356.7L262.1 356.8L262.2 356.8L262.2 356.8L262.2 356.9L262.3 356.9L262.3 356.9L262.4 357.0L262.4 357.0L262.4 357.0L262.5 357.0L262.5 357.0L262.5 357.0L262.6 357.1L262.6 357.1L262.6 357.1L262.7 357.1L262.8 357.2L262.8 357.2L262.8 357.2L262.9 357.2L262.9 357.2L263.2 357.3L263.2 357.3L263.2 357.3L263.3 357.3L263.3 357.3L263.4 357.3L263.4 357.4L263.5 357.4L263.5 357.4L263.5 357.4L263.6 357.4L263.6 357.4L263.6 357.4L263.7 357.4L263.7 357.4L263.7 357.4L263.8 357.4L263.8 357.4L263.9 357.4L263.9 357.4L263.9 357.4L264.0 357.4L264.0 357.4L264.2 357.4L264.2 357.4L264.3 357.4L264.3 357.4L264.3 357.4L264.4 357.4L264.5 357.4L264.5 357.4L264.5 357.4L264.6 357.4L264.6 357.4L264.6 357.4L264.7 357.4L264.7 357.4L264.7 357.4L264.8 357.4L264.9 357.3L264.9 357.3L264.9 357.3L265.0 357.3L265.0 357.3L265.0 357.3L265.2 357.2L265.2 357.2L265.3 357.2L265.3 357.2L265.3 357.2L265.4 357.2L265.5 357.1L265.5 357.1L265.5 357.1L265.6 357.1L265.6 357.1L265.6 357.1L265.7 357.0L265.7 357.0L265.7 357.0L265.8 357.0L265.8 357.0L265.9 356.9L266.0 356.9L266.0 356.8L266.0 356.8L266.1 356.8L266.1 356.7L266.2 356.7L266.2 356.7L266.2 356.7L266.2 356.7L266.3 356.6L266.3 356.6L266.4 356.6L266.4 356.5L266.4 356.5L266.4 356.5L266.5 356.5L266.5 356.4L268.0 355.3L269.8 354.6L269.8 354.6L270 354.6L271.7 354.4L272.9 354.6L272.9 354.6L274.9 355.5L276.5 357L277.6 358.8L278.0 361.0L278.0 361.3L277.9 362.5L277.1 364.5L277.1 364.5L277.1 364.6L277.0 364.6L277.0 364.6L277.0 364.7L277.0 364.7L277.0 364.7L276.9 364.8L276.9 364.8L276.9 364.9L276.9 364.9L276.9 365.0L276.9 365.0L276.8 365.0L276.8 365.2L276.8 365.2L276.8 365.3L276.8 365.3L276.7 365.4L276.7 365.5L276.7 365.5L276.7 365.6L276.7 365.6L276.7 365.7L276.7 365.7L276.7 365.7L276.7 365.8L276.7 365.8L276.7 365.8L276.7 365.9L276.6 366L276.6 366.0L276.6 366.0L276.6 366.1L276.6 366.1L276.6 366.3L276.6 366.3L276.6 366.4L276.6 366.4L276.6 366.4L276.7 366.5L276.7 366.5L276.7 366.6L276.7 366.7L276.7 366.7L276.7 366.8L276.7 366.8L276.7 366.8L276.7 366.9L276.7 367.0L276.8 367.1L276.8 367.1L276.8 367.2L276.8 367.2L276.8 367.3L276.9 367.4L276.9 367.4L276.9 367.4L276.9 367.5L276.9 367.6L277.0 367.6L277.0 367.7L277.0 367.7L277.0 367.7L277.0 367.8L277.1 367.8L277.1 367.8L277.1 367.9L277.3 368.2L277.6 369.0L277.6 369.0L277.6 369.1L277.6 369.1L277.7 369.1L277.7 369.2L277.7 369.2L277.7 369.3L277.7 369.3L277.8 369.3L277.8 369.4L277.8 369.4L277.8 369.5L277.8 369.5L277.9 369.5L277.9 369.6L277.9 369.6L278.0 369.7L278.0 369.8L278.0 369.8L278.1 369.8L278.1 369.9L278.1 369.9L278.1 369.9L278.1 370.0L278.2 370.0L278.2 370.1L278.2 370.1L278.3 370.1L278.3 370.2L278.3 370.2L278.4 370.3L278.5 370.3L278.5 370.3L278.6 370.4L278.6 370.4L278.7 370.5L278.7 370.5L278.7 370.5L278.8 370.6L278.8 370.6L278.8 370.6L278.8 370.6L278.9 370.6L279.0 370.7L279.0 370.8L279.1 370.8L279.1 370.8L279.1 370.8L279.2 370.8L279.2 370.8L279.2 370.9L279.3 370.9L279.3 370.9L279.3 370.9L279.3 370.9L279.4 371.0L279.5 371.0L279.5 371.0L279.5 371.0L279.6 371.0L279.6 371.0L279.6 371.0L279.8 371.1L279.8 371.1L279.9 371.1L279.9 371.1L280.0 371.1L280.0 371.2L280.0 371.2L280.1 371.2L280.1 371.2L280.2 371.2L280.2 371.2L280.2 371.2L280.3 371.2L280.3 371.2L280.3 371.2L280.4 371.2L280.5 371.2L280.5 371.2L280.5 371.2L280.6 371.2L280.6 371.2L280.8 371.3L281.0 371.2L281.0 371.2L281.3 371.2L281.4 371.2L283.6 371.6L285.6 372.8L287.1 374.5L287.2 374.8L284.3 374.5L280.1 375.9L278.2 377.9L281.7 376.4L285.5 376.9L286.1 378.1L284.2 378.1L282.4 379.3L282.9 380.0L287.3 380.9L286.5 382.2L285.0 383.6L283.2 384.4L283.2 384.4L281.0 384.7L280.9 384.7L280.8 384.6L280.6 384.7L280.6 384.7L280.5 384.7L280.5 384.7L280.4 384.7L280.4 384.7L280.4 384.7L280.3 384.7L280.3 384.7L280.3 384.7L280.2 384.7L280.2 384.7L280.1 384.7L280.1 384.7L280.0 384.7L280.0 384.7L280.0 384.8L279.9 384.8L279.9 384.8L279.8 384.8L279.8 384.8L279.6 384.9L279.6 384.9L279.5 384.9L279.5 384.9L279.5 384.9L279.4 384.9L279.4 384.9L279.3 385.0L279.3 385.0L279.2 385.0L279.2 385.0L279.2 385.1L279.1 385.1L279.1 385.1L279.0 385.1L279.0 385.2L278.9 385.2L278.9 385.2L278.9 385.3L278.8 385.3L278.8 385.3L278.7 385.3L278.7 385.4L278.7 385.4L278.6 385.4L278.6 385.5L278.5 385.5L278.5 385.5L278.5 385.6L278.4 385.6L278.4 385.6L278.4 385.7L278.3 385.7L278.3 385.7L278.3 385.7L278.3 385.8L278.2 385.8L278.2 385.9L278.2 385.9L278.1 385.9L278.1 386.0L278.1 386.0L278.1 386.0L278.0 386.1L278.0 386.1L278.0 386.1L278.0 386.1L278.0 386.2L277.9 386.2L277.9 386.2L277.9 386.3L277.9 386.3L277.8 386.4L277.8 386.4L277.8 386.4L277.8 386.5L277.8 386.5L277.8 386.5L277.7 386.6L277.7 386.6L277.7 386.6L277.7 386.7L277.7 386.7L277.7 386.7L277.6 386.8L277.6 386.8L277.6 386.9L277.6 387.0L277.6 387.1L277.5 387.1L277.5 387.1L277.5 387.2L277.5 387.2L277.5 387.3L277.5 387.4L277.5 387.4L277.5 387.5L277.5 387.5L277.4 387.6L277.4 387.6L277.4 387.6L277.4 387.7L277.4 387.7L277.4 387.8L277.4 387.8L277.4 387.8L277.4 387.9L277.4 387.9L277.4 388.1L277.4 388.2L277.4 388.2L277.4 388.2L277.4 388.3L277.4 388.3L277.4 388.3L277.4 388.4L277.4 388.4L277.4 388.5L277.5 388.5L277.5 388.6L277.5 388.6L277.5 388.6L277.5 388.7L277.5 388.7L277.5 388.7L277.5 388.8L277.5 388.8L277.5 388.9L277.5 388.9L277.5 388.9L277.5 389.0L277.6 389.0L277.6 389.0L277.6 389.1L277.6 389.1L277.6 389.2L277.7 389.6L277.8 389.7L277.8 389.7L277.8 389.7L277.8 389.8L277.8 389.8L277.8 389.8L277.8 389.9L277.8 389.9L277.9 390.0L277.9 390.0L277.9 390.0L277.9 390.1L277.9 390.1L277.9 390.1L278.0 390.2L278.0 390.2L278.0 390.3L278.0 390.3L278.0 390.3L278.1 390.4L278.1 390.4L278.1 390.4L278.1 390.5L278.1 390.5L278.2 390.6L279.0 392.4L279.2 394.2L280.6 392.8L282.3 391.9L282.6 391.7L284.3 391.4L284.3 391.4L284.5 391.4L284.5 391.4L286.9 391.8L287 391.8L288.1 392.4L289.5 391.7L289.5 391.7L291.4 391.4L293.5 391.7L294.5 392.2L294.3 392.3L292.8 394.4L292.8 396.8L288.2 396.8L285.5 399.4L279.0 401.6L278.2 399.9L278.0 398.0L276.7 399.4L275.0 400.4L274.9 400.4L274.9 400.4L274.9 400.5L274.8 400.5L274.8 400.5L274.6 400.6L274.5 400.6L272.0 401.4L271.4 401.5L271.4 401.5L269.6 401.3L268.0 400.6L267.9 400.6L267.9 400.6L267.9 400.6L267.8 400.5L267.8 400.5L267.8 400.5L267.7 400.5L267.7 400.5L267.7 400.5L267.6 400.4L267.6 400.4L267.5 400.4L267.5 400.4L267.5 400.4L267.4 400.4L267.4 400.4L267.3 400.3L267.3 400.3L267.3 400.3L267.2 400.3L267.2 400.3L267.1 400.3L267.1 400.3L267.0 400.3L267.0 400.2L266.9 400.2L266.9 400.2L266.9 400.2L266.8 400.2L266.8 400.2L266.7 400.2L266.7 400.2L266.6 400.2L266.6 400.2L266.6 400.2L266.5 400.2L266.5 400.2L266.5 400.2L266.4 400.2L266.3 400.2L266.2 400.2L266.2 400.2L266.1 400.2L266.1 400.2L266.0 400.2L266.0 400.2L266.0 400.2L265.9 400.2L265.9 400.2L265.9 400.2L265.8 400.2L265.7 400.2L265.7 400.2L265.7 400.2L265.6 400.2L265.6 400.3L265.6 400.3L265.5 400.3L265.5 400.3L265.4 400.3L265.3 400.3L265.2 400.4L265.1 400.4L265.1 400.4L265.1 400.4L265.0 400.4L265.0 400.5L264.9 400.5L264.9 400.5L264.9 400.5L264.8 400.5L264.8 400.6L264.7 400.6L264.7 400.6L264.5 400.7L264.5 400.7L264.5 400.7L264.5 400.8L264.4 400.8L264.4 400.8L264.4 400.8L264.3 400.8L264.3 400.9L264.3 400.9L264.2 400.9L264.2 400.9L264.2 401L264.2 401.0L264.1 401.0L264.1 401.0L264.0 401.1L264.0 401.1L264.0 401.1L264.0 401.2L263.9 401.2L263.9 401.2L263.9 401.2L263.9 401.3L263.8 401.3L263.8 401.3L263.8 401.4L263.7 401.5L263.6 401.5L263.6 401.5L263.6 401.6L263.6 401.6L263.6 401.6L263.5 401.7L263.5 401.7L263.5 401.7L254.0 403.6L252.6 404.6L252.6 404.6L252.5 404.6L252.5 404.6L252.4 404.6L252.4 404.6L252.4 404.6L252.3 404.6L252.3 404.6L252.3 404.6L252.0 404.6L252.0 404.6L252.0 404.6L251.9 404.6L251.9 404.6L251.8 404.6L251.8 404.6L251.7 404.6L251.7 404.6L251.7 404.6L251.6 404.6L251.6 404.6L251.6 404.6L251.5 404.6L251.5 404.6L251.5 404.6L251.3 404.7L251.3 404.7L251.3 404.7L251.2 404.7L251.2 404.7L251.0 404.8L250.9 404.8L250.9 404.8L250.9 404.8L250.8 404.8L250.8 404.8L250.7 404.9L250.7 404.9L250.6 404.9L250.6 404.9L250.6 405.0L250.5 405.0L250.5 405.0L250.5 405.0L250.4 405.0L250.4 405.0L250.4 405.1L250.3 405.1L250.3 405.1L250.3 405.1L248.4 404.0L249.5 402.9L248.0 401.5L242.6 401.4L243.5 402.8L242.8 403.9L238.4 403.4L232.2 405.9L224.1 406.4L221.6 405.6L220.7 407.1L223.7 408.1L223.6 410.7L221.2 411.1L213.2 409.0L211.5 410.6L212.2 412.7L207.4 408.3L207.4 408.2L207.4 408.2L207.5 407.1L207.5 407.0L207.5 407.0L207.5 407.0L207.6 406.9L207.6 406.8L207.6 406.8L207.6 406.7L207.6 406.7L207.6 406.7L207.6 406.6L207.6 406.4L207.6 406.3L207.6 406.3L207.6 406.3L207.6 406.2L207.6 406.2L207.6 406.2L207.5 406.1L207.5 406.1L207.5 406.0L207.5 406.0L207.5 405.9L207.5 404.2L207.5 404.2L207.9 402.4L207.9 402.4L208.1 401.8L208.7 400.9L210.3 399.3L212.3 398.4L212.3 398.4L214.1 398.1L215.2 398.2L215.2 398.2L215.3 398.2L215.3 398.2L215.4 398.2L215.5 398.2L215.5 398.2L215.6 398.2L215.6 398.2L215.7 398.2L215.8 398.2L215.8 398.3L215.8 398.3L215.9 398.2L216.0 398.2L216.0 398.2L216.1 398.2L216.1 398.2L216.2 398.2L216.2 398.2L216.3 398.2L216.3 398.2L216.4 398.2L216.4 398.2L216.9 398.1L217.0 398.1L217.0 398.1L217.1 398.1L217.1 398.1L217.1 398.1L217.2 398.1L217.2 398.1L217.3 398.1L217.3 398.1L217.3 398.1L217.4 398.1L217.5 398.1L217.5 398.0L217.5 398.0L217.6 398.0L217.6 398.0L217.6 398.0L217.7 398.0L217.7 398.0L217.9 397.9L217.9 397.9L217.9 397.9L218.0 397.9L218.0 397.9L218.0 397.9L218.1 397.8L218.1 397.8L218.1 397.8L218.2 397.8L218.2 397.8L218.3 397.8L218.3 397.7L218.3 397.7L218.3 397.7L218.4 397.7L218.4 397.7L218.4 397.6L218.5 397.6L218.5 397.6L218.5 397.6L218.6 397.6L218.6 397.5L218.7 397.5L218.7 397.5L218.7 397.5L218.7 397.4L218.8 397.4L218.8 397.4L218.8 397.4L218.9 397.3L218.9 397.3L219.0 397.2L219.0 397.2L219.0 397.2L219.1 397.1L219.1 397.1L219.1 397.1L219.2 397.0L219.2 397.0L219.5 396.7L220.7 395.8L220.8 395.7L220.8 395.7L220.9 395.6L220.9 395.6L220.9 395.6L221.0 395.6L221.0 395.5L221.0 395.5L221.1 395.5L221.1 395.4L221.2 395.4L221.2 395.4L221.3 395.3L221.3 395.3L221.4 395.2L221.4 395.2L221.4 395.2L221.5 395.1L221.5 395.1L221.6 395.0L221.6 395.0L221.6 395.0L221.6 394.9L221.7 394.9L221.7 394.9L221.7 394.8L221.7 394.8L221.8 394.8L221.8 394.7L221.8 394.7L221.8 394.6L221.9 394.6L223.3 392.9L225.2 391.8L225.3 391.8L225.3 391.8L225.3 391.8L225.4 391.7L225.4 391.7L225.5 391.7L225.5 391.7L225.6 391.7L225.6 391.6L225.6 391.6L225.7 391.6L225.7 391.6L225.7 391.6L225.8 391.6L225.9 391.5L226.0 391.4L226.0 391.4L226.0 391.4L226.0 391.4L226.1 391.4L226.1 391.3L226.2 391.3L226.2 391.3L226.2 391.2L226.3 391.2L226.3 391.2L226.3 391.1L226.4 391.1L226.4 391.1L226.4 391.1L226.4 391.0L226.5 391.0L226.5 390.9L226.6 390.9L226.6 390.8L226.7 390.8L226.7 390.8L226.7 390.7L226.7 390.7L226.8 390.7L226.8 390.6L226.8 390.6L226.8 390.6L226.8 390.6L226.9 390.4L227.0 390.4L227.0 390.3L227.0 390.3L227.0 390.2L227.0 390.2L227.1 390.2L227.1 390.1L227.1 390.1L227.1 390.1L227.1 390.0L227.2 390.0L227.2 389.9L227.2 389.9L227.2 389.9L227.2 389.8L227.3 389.6L227.3 389.6L227.3 389.5L227.3 389.5L227.3 389.5L227.3 389.4L227.3 389.4L227.3 389.4L227.4 389.3L227.4 389.3L227.4 389.2L227.4 389.2L227.4 389.1L227.4 389.1L227.4 389.1L227.4 389.0L227.4 389.0L227.4 388.9L227.4 388.8L227.4 388.8L227.4 388.5L227.4 388.5L227.4 388.4L227.4 388.4L227.4 388.4L227.4 388.3L227.4 388.3L227.4 388.3L227.4 388.2L227.4 388.2L227.4 388.1L227.4 388.1L227.4 388.1L227.3 388.0L227.3 388.0L227.3 387.8L227.3 387.8L227.3 387.7L227.2 387.5L227.2 387.4L227.2 387.4L227.1 387.3L227.1 387.3L227.1 387.2L227.1 387.2L227.1 387.2L227.0 387.1L227.0 387.1L227.0 387.0L227.0 387.0L226.8 386.8L226.8 386.7L226.8 386.7L226.8 386.7L226.7 386.7L226.7 386.6L226.7 386.6L226.7 386.5L226.6 386.5L226.6 386.5L226.6 386.4L226.5 386.4L226.4 386.3L226.4 386.2L226.3 386.2L225.1 384.7L224.4 382.9L224.2 381.0L224.2 381.0L224.6 379.1L225.5 377.3L226.9 375.9L228.7 375.0L228.8 375.0L228.8 374.9L228.8 374.9L228.9 374.9L229.0 374.9L229.0 374.9L229.0 374.8L229.1 374.8L229.1 374.8L229.1 374.8L229.2 374.8L229.2 374.8L229.2 374.7L229.3 374.7L229.3 374.7L229.4 374.6L229.5 374.6L229.5 374.5L229.6 374.5L229.6 374.5L229.6 374.5L229.7 374.5L229.7 374.4L229.7 374.4L229.7 374.4L229.9 374.3L229.9 374.3L229.9 374.2L230.0 374.2L230.0 374.2L230.0 374.1L230.0 374.1L230.1 374.1L230.1 374.1L230.1 374.0L230.2 373.9L230.2 373.9L230.2 373.9L230.3 373.9L230.3 373.8L230.3 373.8L230.3 373.7L230.4 373.7L230.4 373.7L230.4 373.6L230.5 373.6L230.5 373.5L230.5 373.5L230.5 373.5L230.6 373.4L230.6 373.4L230.6 373.3L230.6 373.3L230.6 373.3L230.6 373.2L230.7 373.2L230.7 373.1L230.7 373.1L230.7 373.1L230.7 373.0L230.7 373.0L230.8 372.9L230.8 372.8L230.8 372.8L230.8 372.7L230.8 372.7L230.9 372.6L230.9 372.6L230.9 372.5L230.9 372.4L230.9 372.4L230.9 372.3L230.9 372.3L230.9 372.2L230.9 372.2L230.9 372.2L231 372.1L231 372.1L231.0 372.1L231.0 372.0L231.0 372.0L231.0 371.9L231.0 371.9L231.0 371.8L231.0 371.8L231.0 371.7L231.0 371.6 Z M 288.0 378.2L288.0 378.5L287.6 380.5L287.3 380.4L286.8 377.9 Z M 116.4 162.1L115.7 162.5L115.5 162.5L115.7 162.7L115.8 163.1L113.6 163.4L113 162.3L113.1 152.7L114.3 152.1L117.0 154.5L115.6 155.1 Z M 203 85.7L203.0 85.7L204.4 85.6L206.0 86.0L206.3 86.4L205.8 87.9L204.6 85.8L203.4 86.6 Z M 209.7 88.9L209.8 89.0L209.4 89.6 Z M 271.6 304.0L271.0 304.0L270.2 303.9L270.1 303.9L269.6 303.8L269.0 303.9L269.0 303.9L267.9 304.0L267.5 304.0L267.5 304.0L267.4 304.0L267.4 304.0L267.2 304.0L267.2 304.0L267.1 304.0L267.1 304.0L267.1 304.0L267.0 304.0L267.0 304.0L266.9 304.0L266.9 304.0L266.8 304.1L266.8 304.1L266.7 304.1L266.7 304.1L266.6 304.1L266.6 304.1L266.5 304.1L266.5 304.1L266.5 304.1L266.4 304.1L266.4 304.1L266.4 304.2L266.3 304.2L266.3 304.2L266.3 304.2L266.2 304.2L266.2 304.2L266.1 304.2L266.1 304.3L266.1 304.3L266.0 304.3L265.9 304.3L265.9 304.3L265.8 304.4L265.8 304.4L265.8 304.4L265.8 304.4L265.7 304.4L265.7 304.4L265.7 304.5L265.5 304.5L265.5 304.6L265.5 304.6L265.4 304.6L265.4 304.6L265.4 304.6L265.3 304.7L265.3 304.7L265.3 304.7L265.3 304.7L265.2 304.8L265.2 304.8L265.1 304.8L265.1 304.9L265.1 304.9L265 305.0L264.9 305.0L264.9 305.1L264.9 305.1L264.8 305.1L264.8 305.2L264.8 305.2L264.7 305.3L264.7 305.3L264.7 305.3L264.6 305.4L264.6 305.4L264.6 305.4L264.6 305.5L264.5 305.5L264.4 305.7L264.4 305.7L264.4 305.8L264.4 305.8L264.3 305.8L264.3 305.9L264.3 305.9L264.3 305.9L264.3 306.0L264.3 306.0L264.2 306.1L264.2 306.1L264.2 306.1L264.2 306.2L264.2 306.2L264.1 306.4L264.1 306.5L264.1 306.5L264.1 306.5L264.1 306.6L264.1 306.6L264.0 306.7L264.0 306.7L264.0 306.8L264.0 306.8L264.0 306.9L264.0 306.9L264.0 306.9L264.0 307.0L264.0 307.0L264.0 307.0L264.0 307.1L264.0 307.1L264.0 307.2L264.0 307.2L264.0 307.3L264.0 307.3L264.0 307.4L264.0 307.5L264.0 307.6L264.0 307.6L264.0 307.6L264.0 307.7L264.0 307.7L264.0 307.8L264.0 307.8L264.0 307.9L264.0 307.9L264.0 307.9L264.0 308.0L264.0 308.0L264.0 308.1L264.1 308.1L264.1 308.2L264.1 308.2L264.1 308.3L264.1 308.3L264.1 308.3L264.2 308.5L264.5 310.2L264.4 312.2L263.7 314.0L262.6 315.5L260.5 316.9L258.1 317.5L257.5 317.5L255.1 316.9L254.6 316.6L254.5 316.6L254.5 316.6L254.4 316.6L254.4 316.5L254.4 316.5L254.3 316.5L254.3 316.5L254.3 316.5L254.2 316.5L254.2 316.4L254.2 316.4L254.1 316.4L254.1 316.4L254.0 316.4L253.9 316.3L253.8 316.3L253.8 316.3L253.7 316.3L253.7 316.3L253.7 316.3L253.6 316.3L253.5 316.2L253.5 316.2L253.5 316.2L253.4 316.2L253.4 316.2L253.3 316.2L253.2 316.2L253.2 316.2L253.2 316.2L253.1 316.2L253.1 316.2L253.0 316.2L253.0 316.2L253.0 316.2L252.8 316.2L252.8 316.2L252.7 316.2L252.7 316.2L252.6 316.2L252.6 316.2L252.6 316.2L252.5 316.2L252.5 316.2L252.5 316.2L252.4 316.2L252.4 316.2L252.3 316.2L252.3 316.2L252.3 316.2L252.2 316.2L252.2 316.2L252.2 316.3L252.1 316.3L252.1 316.3L252.1 316.3L252.0 316.3L252.0 316.3L251.9 316.3L251.7 316.4L251.7 316.4L251.6 316.4L251.6 316.4L251.6 316.5L251.5 316.5L251.5 316.5L251.4 316.5L251.4 316.5L251.3 316.6L251.3 316.6L251.3 316.6L251.2 316.6L251.0 316.8L251.0 316.8L250.9 316.8L250.9 316.8L250.9 316.9L250.8 316.9L250.8 316.9L250.8 316.9L250.7 317L250.7 317.0L250.6 317.0L250.6 317.1L250.6 317.1L250.5 317.2L250.5 317.2L250.5 317.2L250.4 317.2L250.4 317.3L250.4 317.3L250.3 317.3L250.3 317.4L250.3 317.4L250.2 317.5L250.2 317.5L250.2 317.5L250.2 317.5L250.2 317.6L250.1 317.6L250.1 317.6L250.1 317.7L250.0 317.8L248.2 319.7L246.8 320.4L246.7 320.4L246.7 320.4L246.6 320.5L246.6 320.5L246.5 320.5L246.5 320.5L246.4 320.5L246.4 320.6L246.4 320.6L246.3 320.6L246.3 320.6L246.2 320.6L246.1 320.8L246.0 320.8L246.0 320.8L246.0 320.8L245.9 320.8L245.9 320.9L245.8 320.9L245.8 320.9L245.8 321.0L245.8 321.0L245.7 321.0L245.7 321.0L245.7 321.1L245.6 321.1L245.6 321.1L245.5 321.2L245.5 321.2L245.4 321.3L245.4 321.3L245.4 321.3L245.4 321.4L245.3 321.4L245.3 321.5L245.3 321.5L245.2 321.5L245.2 321.5L245.2 321.6L245.2 321.6L245.2 321.6L245.1 321.7L245.1 321.7L245.0 321.9L245.0 321.9L245.0 322.0L245 322.0L244.9 322.0L244.9 322.1L244.9 322.1L244.9 322.1L244.9 322.2L244.8 322.2L244.8 322.3L244.8 322.3L244.8 322.4L244.8 322.4L244.7 322.5L244.7 322.6L244.7 322.6L244.7 322.7L244.7 322.7L244.7 322.8L244.7 322.8L244.6 322.8L244.6 322.9L244.6 322.9L244.6 323.0L244.6 323.0L244.6 323.0L244.6 323.1L244.6 323.1L244.6 323.1L244.6 323.2L244.6 323.3L244.6 323.3L244.6 323.3L244.6 323.4L244.6 323.4L244.6 323.4L244.6 323.6L244.6 323.7L244.6 323.7L244.6 323.8L244.6 323.8L244.6 323.9L244.6 323.9L244.6 323.9L244.6 324.0L244.6 324.0L244.6 324.0L244.6 324.1L244.6 324.1L244.6 324.2L244.6 324.3L244.6 324.3L244.7 324.3L244.7 324.4L244.7 324.4L244.7 324.5L244.7 324.5L244.7 324.5L244.8 324.7L244.8 324.7L244.8 324.8L244.8 324.8L244.8 324.8L244.8 324.9L244.8 324.9L244.9 324.9L244.9 325.0L244.9 325.0L244.9 325.1L244.9 325.1L245.0 325.1L245.0 325.2L245.0 325.2L245.0 325.2L245.0 325.3L245.1 325.4L245.1 325.4L245.2 325.5L245.2 325.5L245.2 325.5L245.2 325.6L245.3 325.6L245.3 325.6L245.3 325.6L245.3 325.7L245.3 325.7L245.4 325.7L245.4 325.8L245.4 325.8L245.5 325.8L245.5 325.9L245.5 325.9L245.5 325.9L245.6 326.0L245.6 326.0L245.7 326.0L246.8 327.4L247.5 329.0L247.8 330.8L247.8 330.8L247.4 333.1L246.3 335.1L244.6 336.6L244.5 336.7L244.4 336.7L244.4 336.7L244.3 336.8L244.3 336.8L244.3 336.8L244.3 336.8L244.2 336.9L244.2 336.9L244.1 337.0L244.0 337.0L244.0 337.0L244.0 337.1L243.9 337.2L243.9 337.2L243.8 337.2L243.7 337.4L243.7 337.4L243.6 337.5L243.6 337.5L243.6 337.5L243.6 337.6L243.5 337.6L243.5 337.6L243.5 337.6L243.5 337.7L243.4 337.7L243.4 337.7L243.4 337.8L241.8 339.6L239.7 340.7L239.6 340.7L239.5 340.7L239.4 340.8L239.4 340.8L239.3 340.8L239.3 340.8L239.2 340.8L239.2 340.9L239.1 340.9L239.1 340.9L239.0 340.9L239.0 341.0L239.0 341.0L238.9 341.0L238.9 341.0L238.8 341.1L238.8 341.1L238.8 341.1L238.8 341.1L238.7 341.1L238.7 341.1L238.7 341.2L238.6 341.2L238.6 341.2L238.6 341.2L238.5 341.3L238.5 341.3L238.4 341.4L238.4 341.4L238.3 341.4L238.3 341.5L238.2 341.5L238.2 341.6L238.2 341.6L238.2 341.6L238.1 341.6L238.1 341.7L238.1 341.7L238.1 341.7L238.0 341.7L238.0 341.8L238.0 341.8L237.9 341.9L237.9 341.9L237.9 341.9L237.9 342L237.9 342.0L237.8 342.0L237.8 342.0L237.7 342.2L237.7 342.2L237.7 342.3L237.7 342.3L237.6 342.3L237.6 342.4L237.6 342.4L237.6 342.5L237.5 342.5L237.5 342.6L237.5 342.7L237.5 342.7L237.4 342.8L237.4 342.8L237.4 342.9L237.4 343.0L237.4 343.0L237.3 343.1L237.3 343.1L237.3 343.1L237.3 343.2L237.3 343.2L237.3 343.2L237.3 343.3L237.3 343.4L237.3 343.4L237.3 343.5L237.3 343.5L237.2 343.5L237.2 343.6L237.2 343.6L237.2 343.7L237.2 343.7L237.2 343.7L237.2 343.8L237.2 343.8L237.2 343.9L237.2 343.9L237.2 344.0L237.2 344.1L237.2 344.2L237.2 344.2L237.2 344.2L237.2 344.3L237.2 344.3L237.2 344.4L237.2 344.4L237.3 344.5L237.3 344.5L237.3 344.6L237.3 344.6L237.3 344.6L237.3 344.7L237.3 344.8L237.3 344.8L237.3 344.8L237.3 344.9L237.3 344.9L237.4 345.0L237.4 345.0L237.4 345.1L237.4 345.1L237.4 345.1L237.4 345.2L237.8 347.0L237.7 348.9L237.1 350.7L235.9 352.2L235.9 352.3L235.8 352.3L234.4 353.5L232.6 354.2L230.8 354.4L228.7 354.1L228.6 354.0L228.5 354.0L228.5 354.0L228.4 354.0L228.4 354.0L228.4 353.9L228.3 353.9L228.3 353.9L228.2 353.9L228.1 353.9L228.1 353.9L228.1 353.9L228.0 353.9L228.0 353.9L227.9 353.9L227.9 353.9L227.8 353.9L227.8 353.9L227.8 353.9L227.7 353.9L227.7 353.9L227.5 353.9L227.4 353.9L227.4 353.9L227.4 353.9L227.3 353.9L227.3 353.9L227.3 353.9L227.2 353.9L227.2 353.9L227.1 353.9L227.1 353.9L227.1 353.9L227.0 353.9L227.0 353.9L226.9 353.9L226.9 353.9L226.9 353.9L226.8 353.9L226.8 354.0L226.8 354.0L226.7 354.0L226.6 354.0L226.6 354.0L226.5 354.0L226.4 354.1L224.0 354.4L224.0 354.4L222.0 354.1L221.8 354.0L221.8 354.0L221.7 354.0L221.6 353.9L221.6 353.9L221.6 353.9L221.5 353.9L221.5 353.9L221.4 353.9L221.4 353.9L221.3 353.9L221.3 353.9L221.2 353.9L221.2 353.9L221.2 353.9L221.1 353.9L221.1 353.9L221.1 353.9L221.0 353.9L221.0 353.9L220.8 353.9L220.7 353.9L220.7 353.9L220.6 353.9L220.6 353.9L220.5 353.9L220.5 353.9L220.4 353.9L220.4 353.9L220.3 353.9L220.3 353.9L220.2 353.9L220.2 353.9L220.2 353.9L220.1 353.9L220.1 354.0L220.0 354.0L219.9 354.0L219.9 354.0L219.7 354.1L219.7 354.0L218.0 354.4L218.0 354.4L216.1 354.3L214.3 353.6L212.8 352.5L212.8 352.5L212.5 352.2L212.5 352.1L212.4 352.1L212.4 352.1L212.4 352.0L212.3 352.0L212.3 352.0L212.3 352.0L212.2 351.9L212.2 351.9L212.1 351.8L212.1 351.8L212.1 351.8L212.0 351.7L212.0 351.7L212.0 351.7L211.9 351.7L211.9 351.7L211.9 351.6L211.8 351.6L211.7 351.5L211.6 351.5L211.6 351.5L211.6 351.4L211.5 351.4L211.5 351.4L211.4 351.4L211.3 351.3L211.3 351.3L211.3 351.3L211.2 351.3L211.2 351.3L211.2 351.3L211.1 351.2L211.1 351.2L210.9 351.2L210.9 351.2L210.9 351.2L210.8 351.1L210.8 351.1L210.7 351.1L210.7 351.1L210.6 351.1L210.5 351.1L210.5 351.1L210.5 351.1L210.4 351.1L210.4 351.1L210.3 351.1L210.2 351.0L209.7 351.0L209.6 351.0L209.6 351.0L209.5 351.0L209.5 351.0L209.4 350.9L209.4 350.9L209.3 350.9L209.3 350.9L209.3 350.9L209.2 350.9L209.2 350.9L209.0 350.9L209.0 350.9L208.9 350.9L208.9 350.9L208.9 350.9L208.8 350.9L208.7 351.0L208.7 351.0L208.6 351.0L208.6 351.0L208.5 351.0L207.5 351.1L207.4 351.1L207.3 351.1L207.2 351.1L207.2 351.1L207.2 351.1L207.1 351.1L207.1 351.1L207.1 351.1L207.0 351.1L207.0 351.1L206.9 351.1L206.9 351.1L206.8 351.1L206.8 351.1L206.7 351.1L206.7 351.2L206.7 351.2L206.6 351.2L206.6 351.2L206.5 351.2L206.5 351.2L206.4 351.2L206.3 351.3L206.3 351.3L206.2 351.3L206.2 351.3L206.2 351.3L206.1 351.3L206.1 351.4L206.0 351.4L206.0 351.4L205.9 351.4L205.9 351.4L205.9 351.5L205.8 351.5L205.8 351.5L205.7 351.5L205.7 351.6L205.7 351.6L205.6 351.6L205.6 351.6L205.6 351.6L205.5 351.7L205.5 351.7L205.5 351.7L205.4 351.7L205.4 351.8L205.3 351.8L205.3 351.8L205.2 351.9L205.2 352.0L205.1 352.0L205.1 352.0L205.1 352.0L205.0 352.1L205.0 352.1L205.0 352.1L205.0 352.2L204.9 352.2L204.8 352.3L204.8 352.3L204.8 352.4L204.8 352.4L204.7 352.4L204.7 352.5L204.7 352.5L204.7 352.5L204.6 352.6L204.6 352.6L204.6 352.7L204.6 352.7L204.5 352.7L204.5 352.8L204.5 352.8L204.5 352.9L204.4 352.9L204.4 352.9L204.4 353.0L204.4 353.0L204.4 353.1L204.3 353.1L204.3 353.2L204.3 353.2L204.3 353.3L204.3 353.3L204.2 353.4L204.2 353.5L204.2 353.5L204.2 353.6L204.2 353.6L204.2 353.7L204.2 353.7L204.1 353.7L204.1 353.8L204.1 353.8L204.1 353.9L204.1 353.9L204.1 354.0L204.1 354.0L204.1 354.1L204.1 354.1L204.1 354.1L204.1 354.2L204.1 354.2L204.1 354.2L204.1 354.3L204.1 354.4L204.1 354.5L204.1 354.8L204.1 354.9L204.1 354.9L204.1 355.1L204.1 355.2L204.1 355.2L204.1 355.2L204.1 355.3L204.1 355.3L204.1 355.3L204.1 355.4L204.1 355.4L204.1 355.5L204.1 355.5L204.1 355.6L204.1 355.6L204.1 355.7L204.1 355.7L204.1 355.7L204.1 355.8L204.2 355.8L204.2 355.9L204.2 355.9L204.2 356.0L204.2 356.0L204.2 356.1L204.3 356.2L204.3 356.2L204.3 356.3L204.3 356.3L204.3 356.4L204.4 356.4L204.4 356.5L204.4 356.5L204.4 356.5L204.4 356.6L204.5 356.6L204.5 356.7L204.5 356.7L204.5 356.7L204.6 356.9L204.6 356.9L204.7 356.9L204.7 357.0L204.7 357.0L204.7 357.0L204.7 357.0L204.8 357.1L204.8 357.1L204.8 357.1L204.8 357.2L204.9 357.2L204.9 357.3L205.0 357.3L205.0 357.3L205.0 357.4L205.0 357.4L205.1 357.4L205.1 357.4L205.1 357.5L205.1 357.5L205.2 357.5L205.2 357.5L205.2 357.6L205.3 357.6L205.3 357.7L205.4 357.7L205.4 357.7L205.4 357.7L205.5 357.7L205.5 357.8L205.5 357.8L205.7 357.9L205.8 357.9L205.8 358.0L205.8 358.0L205.9 358.0L205.9 358.0L205.9 358.0L206.0 358.0L206.0 358.1L206.1 358.1L206.1 358.1L206.1 358.1L206.2 358.1L206.2 358.1L206.2 358.2L206.3 358.2L206.3 358.2L206.4 358.2L206.4 358.2L206.5 358.2L206.5 358.2L206.5 358.3L206.6 358.3L206.6 358.3L206.6 358.3L206.7 358.3L206.8 358.3L206.8 358.3L206.9 358.3L206.9 358.3L206.9 358.3L207.0 358.3L207.0 358.3L207.0 358.3L207.1 358.4L207.1 358.4L207.1 358.4L207.2 358.4L207.2 358.4L207.3 358.4L207.6 358.4L207.6 358.4L207.6 358.4L207.7 358.4L207.7 358.4L207.8 358.3L207.9 358.3L207.9 358.3L207.9 358.3L208.0 358.3L208.0 358.3L208.0 358.3L208.1 358.3L208.1 358.3L208.2 358.3L208.2 358.3L208.3 358.3L208.3 358.2L208.4 358.2L208.6 358.2L210.2 357.8L210.2 357.8L212.2 357.9L214.0 358.6L215.5 359.8L216.6 361.1L217.3 362.8L217.5 364.5L217.5 364.7L217.4 365.6L217.4 365.7L217.4 365.7L217.4 365.7L217.4 365.8L217.4 365.9L217.4 365.9L217.4 366.0L217.4 366.0L217.4 366.1L217.4 366.3L217.4 366.4L217.4 366.4L217.4 366.4L217.4 366.5L217.4 366.5L217.4 366.5L217.4 366.6L217.4 366.6L217.4 366.6L217.4 366.7L217.4 366.8L217.5 368.0L217.5 368.1L217.4 369.0L216.9 370.7L215.9 372.3L214.5 373.5L214.3 373.6L214.2 373.7L214.2 373.7L214.1 373.7L214.1 373.8L214.0 373.8L214.0 373.8L214.0 373.8L213.9 373.9L213.9 373.9L213.8 374.0L213.7 374.1L213.7 374.1L213.6 374.1L213.6 374.2L213.6 374.2L213.5 374.2L213.4 374.4L213.4 374.4L213.4 374.4L213.4 374.5L213.3 374.5L213.3 374.5L213.3 374.5L213.3 374.6L213.1 374.8L212.5 375.7L212.4 375.7L212.4 375.8L212.3 375.8L212.3 375.9L212.3 375.9L212.3 375.9L212.2 376.0L212.2 376.0L212.2 376.0L212.2 376.1L212.1 376.1L212.1 376.1L212.1 376.2L212.1 376.2L212.0 376.3L212.0 376.3L212.0 376.3L212.0 376.4L212.0 376.4L211.9 376.5L211.9 376.5L211.9 376.6L211.8 376.6L211.8 376.7L211.8 376.7L211.8 376.8L211.7 377.0L211.7 377.0L211.7 377.1L211.7 377.1L211.7 377.1L211.7 377.2L211.7 377.3L211.6 377.3L211.6 377.4L211.6 377.4L211.6 377.4L211.6 377.5L211.6 377.5L211.6 377.5L211.6 377.6L211.6 377.6L211.6 377.7L211.6 377.7L211.6 377.8L211.6 377.8L211.6 377.8L211.6 378.1L211.6 378.1L211.6 378.1L211.6 378.2L211.6 378.2L211.6 378.2L211.6 378.3L211.6 378.3L211.6 378.4L211.6 378.4L211.6 378.4L211.6 378.5L211.6 378.5L211.6 378.5L211.6 378.6L211.7 378.6L211.7 378.7L211.7 378.8L211.7 378.8L211.7 378.8L211.7 378.9L211.7 378.9L211.8 379.1L211.8 379.2L211.8 379.2L211.8 379.3L211.9 379.3L211.9 379.4L211.9 379.4L211.9 379.4L212.0 379.5L212.0 379.5L212.0 379.6L212.0 379.6L212.0 379.6L212.1 379.7L212.1 379.8L212.1 379.8L212.2 379.8L212.2 379.9L212.2 379.9L212.2 379.9L212.3 380.0L212.3 380.0L212.3 380.0L212.3 380.0L212.3 380.1L212.4 380.1L212.4 380.2L212.5 380.2L213.6 382.0L214.1 384.0L214.1 384.0L214.2 384.7L214.1 384.9L213.8 386.9L212.7 388.8L211.2 390.3L211.2 390.3L211.0 390.4L210.9 390.5L210.8 390.5L210.8 390.5L210.8 390.5L210.7 390.5L210.7 390.6L210.7 390.6L210.7 390.6L210.6 390.6L210.6 390.6L210.6 390.7L210.4 390.8L210.4 390.9L210.3 390.9L210.3 391.0L210.2 391.0L210.2 391.0L210.0 391.2L210.0 391.2L210.0 391.3L210.0 391.3L210 391.3L209.9 391.3L209.9 391.4L209.8 391.5L209.8 391.5L209.8 391.6L208.5 393.1L208.5 393.1L206.6 394.3L204.1 394.8L203.7 394.7L202.5 394.6L202.1 394.5L202.0 394.4L202.0 394.4L202.0 394.4L201.9 394.4L201.9 394.4L201.9 394.4L201.8 394.4L201.7 394.4L201.7 394.4L201.7 394.4L201.6 394.3L201.6 394.3L201.6 394.3L201.5 394.3L201.5 394.3L201.5 394.3L201.4 394.3L201.3 394.3L201.3 394.3L201.3 394.3L201.2 394.3L201.2 394.3L200.9 394.3L200.9 394.3L200.9 394.3L200.8 394.3L200.8 394.3L200.7 394.3L200.7 394.3L200.6 394.3L200.6 394.3L200.6 394.3L200.5 394.3L200.5 394.3L200.5 394.4L200.4 394.4L200.4 394.4L200.3 394.4L200.3 394.4L200.3 394.4L200.2 394.4L200.2 394.4L200.2 394.4L200.1 394.4L200.1 394.4L200.1 394.5L200.0 394.5L200.0 394.5L200.0 394.5L199.9 394.5L199.9 394.5L199.9 394.5L199.8 394.5L199.7 394.6L199.7 394.6L199.6 394.6L199.6 394.6L199.6 394.6L199.5 394.7L199.5 394.7L199.5 394.7L199.4 394.7L199.4 394.8L199.4 394.8L199.3 394.8L199.3 394.8L199.2 394.9L199.2 394.9L199.1 394.9L199.1 394.9L199.1 395.0L199.0 395.0L199.0 395.0L199.0 395.0L199.0 395.0L198.9 395.1L198.9 395.1L198.8 395.1L198.8 395.2L198.7 395.2L198.7 395.3L198.7 395.3L198.7 395.3L198.6 395.4L198.5 395.5L198.5 395.5L198.5 395.5L198.5 395.5L198.4 395.6L198.4 395.6L198.4 395.6L198.3 395.7L198.3 395.7L198.3 395.8L198.3 395.8L198.2 395.9L198.2 396.0L198.1 396.0L198.1 396.0L198.1 396.1L198.1 396.1L198.1 396.1L198.0 396.2L198.0 396.3L198.0 396.3L198.0 396.3L198.0 396.4L198.0 396.4L197.9 396.4L197.9 396.5L197.9 396.7L197.8 396.7L197.8 396.8L197.8 396.8L197.8 396.9L197.8 396.9L197.8 397.0L197.8 397.0L197.8 397.1L197.8 397.1L197.8 397.1L197.8 397.2L197.7 397.2L197.7 397.2L197.7 397.3L197.7 397.3L197.7 397.3L197.7 397.4L197.7 397.4L197.7 397.5L197.7 397.5L197.7 397.5L197.7 397.8L197.7 397.8L197.7 397.9L197.7 397.9L197.7 397.9L197.7 398.0L197.7 398.0L197.7 398.1L197.7 398.1L197.8 398.2L197.8 398.2L197.8 398.2L197.8 398.3L197.8 398.3L197.8 398.5L197.8 398.5L197.8 398.5L197.8 398.6L197.9 398.6L197.9 398.7L197.9 398.8L197.9 398.8L197.9 398.9L198.0 398.9L198.0 398.9L198.0 399.0L198.0 399.0L198.0 399.1L198.0 399.1L198.1 399.1L198.1 399.2L198.1 399.2L198.1 399.2L198.1 399.3L198.1 399.3L198.3 399.5L198.3 399.6L198.3 399.6L198.4 399.6L198.4 399.7L198.4 399.7L198.4 399.7L198.4 399.7L198.5 399.8L198.5 399.8L198.6 399.9L198.6 399.9L198.6 399.9L198.7 400.1L199.9 401.7L200.7 404.7L200.7 404.8L200.7 405.5L193.0 407.6L188.4 410.1L185.3 418.1L184.5 418.2L184.4 418.3L184.4 418.3L184.3 418.3L184.3 418.3L184.2 418.3L184.2 418.3L184.1 418.3L184.1 418.3L184.1 418.3L184.0 418.3L184.0 418.3L183.9 418.3L183.8 418.4L183.8 418.4L183.8 418.4L183.6 418.4L183.5 418.5L183.5 418.5L183.5 418.5L183.4 418.5L183.4 418.5L183.4 418.5L183.3 418.5L183.3 418.6L183.3 418.6L183.2 418.6L183.2 418.6L183.1 418.6L183.1 418.7L183.1 418.7L183.0 418.7L182.9 418.8L182.8 418.8L182.8 418.9L182.8 418.9L182.7 418.9L182.7 418.9L182.7 418.9L182.6 419.0L182.6 419.0L182.6 419.0L182.5 419.1L182.5 419.1L182.4 419.2L182.4 419.2L182.4 419.2L182.3 419.2L182.3 419.3L182.3 419.3L182.3 419.3L182.2 419.3L182.2 419.4L182.1 419.5L182.1 419.5L180.7 420.6L180.6 420.7L180.6 420.7L180.5 420.7L180.5 420.8L180.5 420.8L180.5 420.8L180.4 420.8L180.4 420.9L180.4 420.9L180.2 421.0L180.2 421.0L180.2 421.0L180.1 421.1L180.0 421.2L179.9 421.4L179.8 421.4L179.8 421.4L179.8 421.5L179.8 421.5L179.7 421.5L179.7 421.6L179.7 421.6L179.7 421.6L179.6 421.6L179.6 421.7L179.6 421.7L179.6 421.7L179.6 421.8L178.2 423.3L176.0 420.7L173.5 421.3L170.6 418.1L165.7 418.5L163.2 419.9L156.5 420.2L154.1 423.1L149.5 425.1L149.0 429.9L146.5 431.2L145.6 433.0L143.5 428.7L140.6 427.1L140.4 426.3L140.2 425.0L140.3 424.2L140.3 423.9L140.3 423.9L140.4 423.9L149.7 415.8L150.8 411.5L150.8 411.5L150.8 411.4L150.9 411.4L150.9 411.4L150.9 411.4L151.0 411.4L151.0 411.3L151.1 411.3L151.1 411.3L151.2 411.2L151.2 411.2L151.2 411.2L151.3 411.2L151.3 411.1L151.3 411.1L151.4 411.1L151.4 411.1L151.4 411.0L151.5 411.0L156.4 409.6L157.4 406.9L162.1 402.6L162.2 401.9L163.7 402.3L163.7 402.3L163.8 402.4L163.8 402.4L163.8 402.4L163.8 402.4L163.9 402.5L164 402.5L164.0 402.5L164.1 402.5L164.1 402.5L164.1 402.5L164.2 402.6L164.4 402.6L164.4 402.6L164.5 402.7L164.6 402.7L164.6 402.7L164.7 402.7L164.7 402.7L164.7 402.7L164.8 402.7L164.8 402.7L164.8 402.7L164.9 402.7L164.9 402.7L165 402.7L165.0 402.7L165.0 402.7L165.1 402.8L165.1 402.8L165.1 402.8L165.2 402.8L165.2 402.8L165.4 402.8L165.5 402.8L165.5 402.8L165.5 402.8L165.6 402.8L165.6 402.8L165.7 402.7L165.7 402.7L165.7 402.7L165.8 402.7L165.8 402.7L165.8 402.7L165.9 402.7L165.9 402.7L166 402.7L166.0 402.7L166.1 402.7L166.1 402.7L166.2 402.7L166.2 402.6L166.2 402.6L166.3 402.6L166.5 402.5L166.6 402.5L166.6 402.5L166.6 402.5L166.7 402.5L166.7 402.5L166.7 402.5L166.8 402.4L166.8 402.4L166.8 402.4L166.9 402.4L166.9 402.4L166.9 402.4L167.0 402.3L167.0 402.3L167.0 402.3L167.1 402.3L167.1 402.3L167.1 402.2L167.2 402.2L167.2 402.2L167.3 402.1L167.3 402.1L167.3 402.1L167.4 402.1L167.4 402.1L167.4 402.0L167.5 402.0L167.5 402.0L167.5 402.0L167.5 401.9L167.6 401.9L167.6 401.9L167.6 401.8L167.7 401.8L167.7 401.8L167.7 401.8L167.8 401.7L167.8 401.7L167.8 401.7L167.8 401.7L167.9 401.6L167.9 401.5L168 401.5L168.0 401.5L168.0 401.5L168.0 401.4L168.0 401.4L168.1 401.4L168.1 401.3L168.1 401.3L168.1 401.3L168.2 401.2L168.5 400.8L170.0 399.3L172.0 398.4L172.1 398.3L172.4 398.2L172.4 398.2L172.4 398.2L172.6 398.2L172.6 398.2L172.7 398.1L172.7 398.1L172.7 398.1L172.8 398.1L172.8 398.1L172.8 398.0L172.8 398.0L172.9 398.0L173.0 397.9L173.0 397.9L173.0 397.9L173.1 397.9L173.1 397.8L173.2 397.8L173.2 397.8L173.2 397.8L173.2 397.7L173.3 397.7L173.3 397.7L173.3 397.7L173.4 397.6L173.4 397.6L173.5 397.6L173.5 397.5L173.5 397.5L173.6 397.5L173.6 397.4L173.7 397.4L173.7 397.3L173.7 397.3L173.8 397.2L173.8 397.2L173.8 397.2L173.9 397.1L173.9 397.1L173.9 397.1L173.9 397.0L174.0 397.0L174.0 397.0L174.0 396.9L174.0 396.9L174.1 396.7L174.1 396.7L174.1 396.7L174.2 396.6L174.2 396.6L174.2 396.5L174.2 396.5L174.2 396.5L174.3 396.4L174.3 396.4L174.3 396.4L174.3 396.3L174.3 396.3L174.3 396.3L174.3 396.2L174.4 396.2L174.4 396.1L174.4 396.1L174.4 396.1L174.4 396.0L174.4 396.0L174.4 395.9L174.4 395.9L174.5 395.8L174.5 395.8L174.5 395.7L174.5 395.7L174.5 395.7L174.5 395.6L174.5 395.6L174.5 395.5L174.5 395.5L174.5 395.5L174.5 395.4L174.5 395.4L174.5 395.3L174.5 395.3L174.5 395.2L174.5 395.2L174.5 395.0L174.5 395L174.5 394.9L174.5 394.9L174.5 394.8L174.5 394.8L174.5 394.8L174.5 394.7L174.5 394.7L174.5 394.7L174.5 394.6L174.5 394.6L174.5 394.5L174.5 394.5L174.5 394.5L174.5 394.4L174.5 394.4L174.4 394.3L174.4 394.3L174.4 394.3L174.4 394.2L174.4 394.2L174.4 394.1L174.4 394.1L174.3 393.9L174.3 393.9L174.3 393.8L174.0 392.7L173.8 391.4L173.9 390.8L173.9 390.3L173.9 390.2L173.9 390.2L173.9 390.2L174 390.1L174.0 390.0L174.0 389.9L174.0 389.9L174.0 389.9L174.0 389.8L174.0 389.8L174.0 389.6L174.0 389.6L174.0 389.5L174.0 389.5L174.0 389.5L174.0 389.4L174 389.4L173.9 389.2L173.9 389.2L173.9 389.1L173.8 387.9L173.8 387.9L174.0 387.2L180.5 386.2L187.1 386.9L189.9 388.6L198.4 387.8L200.1 381.5L213.6 366.8L207.1 372.6L205.9 373.9L196.6 377.1L194.9 380.7L189.8 381.2L186.1 380.1L179.8 371.9L171.2 375.0L169.5 374.0L169.3 372.0L173.4 371.3L174.4 369.7L170.0 369.5L166.1 367.2L162.9 367.2L160.5 367.7L160.4 367.9L160.3 367.9L160.3 367.9L160.2 367.9L160.1 367.9L160.1 367.9L160.1 367.9L160.0 367.9L159.9 367.9L159.9 367.9L159.8 367.8L159.3 367.8L159.2 367.8L159.2 367.8L159.1 367.8L159.1 367.8L159.1 367.7L159.0 367.7L158.9 367.7L158.8 367.7L158.8 367.7L158.6 367.7L158.6 367.7L158.5 367.7L158.4 367.7L158.4 367.7L158.3 367.8L158.3 367.8L158.2 367.8L158.1 367.8L157.3 367.9L157.3 367.9L156.7 367.9L156.0 367.8L156.2 367.7L155.7 366.4L155.2 367.6L153.4 367.9L152.9 367.8L151.4 367.5L151.4 367.5L150.3 366.9L149.6 367.2L147.2 366.7L150.7 365.0L150.2 362.2L147.2 361.4L147.7 359.8L151.1 358.2L151.6 356.9L157.3 356.4L161.2 352.3L165.2 352.2L171.4 348.2L173.8 345.1L175.6 339.5L174.2 335.0L176.0 330.8L173.9 327.7L174.4 323.4L168.0 324.3L165.1 327.6L160.0 327.6L163.4 323.2L169.5 318.9L170.2 315.9L173.3 312.5L181.0 309.7L187.0 310.0L192.7 307.7L197.9 311.5L198.3 310.6L195.9 306.3L198.7 305.4L202.8 310.1L205.2 309.9L206.9 307.7L203.5 308.8L201.3 307.3L197.9 300.1L200.9 294.8L202.7 293.8L199.3 292.2L199.3 286.9L202.0 285.2L204.3 280.3L204.8 275.1L197.3 280.3L195.6 279.6L191.8 272.9L191.3 270.2L187.0 264.0L192.8 250.2L194.9 248.2L198.8 248.4L200.5 248.0L200.6 247.1L188.8 246.1L187.7 250.4L183.5 251.3L180.1 254.3L176.4 253.9L171.9 250.6L171.0 248.7L170.2 250.3L171.8 256.2L171.3 256.9L170.4 257.0L169.8 256.9L168.3 256.3L166.4 253.3L161.1 249.8L158.6 252.4L159.9 256.9L158.7 256.8L158.6 256.7L158.6 255.2L154.3 248.7L154.4 244.6L157.0 243.0L158.1 239.7L161.3 236.6L164.1 229.7L166.4 228.6L167.1 226.9L165.5 222.4L161.0 218.8L162.1 209.9L163.9 209.3L170.5 210.8L162.8 208.0L163.5 203.3L160.0 212.4L156.0 209.9L154.9 210.8L155.1 213.7L153.1 212.7L152.4 210.6L153.3 206.8L155.7 202.8L161.8 197.2L154.9 202.7L151.5 207.0L150.7 206.5L151.3 216.4L148.9 220.3L147.0 228.7L147.7 230.7L145.9 232.7L141.8 232.5L141.9 229.4L143.5 227.6L144.2 222.0L146.5 215.8L145.2 213.9L145.4 210.0L147.8 205.4L145.6 207.7L145.5 207.0L149.4 200.1L147.5 200.8L148.3 194.7L151.7 190.8L155.9 190.9L158.3 188.3L159.2 186.3L156.3 190.2L152.3 189.1L152.8 187.6L155.5 186.4L153.4 186.7L152.8 185.2L158.6 176.8L146.5 188.3L141.5 185.1L140.0 182.5L149.5 180.9L145.2 180.0L141.9 181.2L136.3 180.7L135.5 179.2L136.5 178.1L141.4 177.2L143.4 178.8L144.6 177.1L143.6 175.6L147.5 174.4L146.1 173.2L142.3 173.2L144.9 168.8L148.2 170.4L150.7 169.6L148.5 169.9L145.5 167.4L146.8 165.1L150.6 166.2L153.4 165.7L150.4 165.1L148.4 163.3L148.6 160.6L150.6 159.9L153.5 161.0L150.3 158.8L149.8 157.1L153.0 153.9L146.4 156.5L145.4 155.6L144.6 151.2L145.4 147.7L149.1 150.4L152.0 149.5L148.8 148.9L146.2 145.4L146.4 138.5L146.8 137.2L148.5 136.8L150.6 140.7L151.2 138.4L150.0 136.6L150.7 134.9L153.7 137.5L154.3 135.9L156.1 135.3L160.7 138.1L159.2 134.4L154.1 129.3L154.7 128.5L156.8 129.9L157.6 129.4L157.8 126.8L155.7 122.6L162.0 122.7L160.2 119.4L164.1 109.3L168.5 110.3L169.8 112.0L170.2 113.3L168.5 116.3L172.5 111.4L178.0 113.2L187.7 112.3L190.2 110.4L195.9 111.4L196.2 109.0L202.8 109.7L200.5 119.9L198.8 122.3L195.7 123.4L192.6 127.5L182.9 135.2L182.4 138.3L180.3 138.9L175 136.7L175.8 138.4L181.8 140.3L185.2 140.3L187.2 138.8L183.0 144.7L181.9 143.4L180.6 143.6L176.6 145.3L174.1 148.0L173.8 149.1L177.5 145.9L180.9 145.8L181.5 146.7L178.1 150.6L177.8 152.3L187.4 147.5L190.6 147.1L192.8 144.5L196.8 144.0L201.7 146.4L204.6 144.8L214.6 146.4L222.1 145.4L224.2 146.3L227.1 153.0L221.5 163.2L218.1 176.3L212.8 182.0L213.3 183.0L211.7 187.1L207.7 190.4L200.4 191.7L196.0 195.1L204.3 191.8L205.8 192.2L206.0 195.8L209.2 196.8L210.5 198.7L206.1 201.6L202.6 201.1L198.5 205.4L193.4 208.0L189.5 206.3L186.2 206.2L186.5 207.3L200.5 210.7L203.5 209.5L205.4 206.5L209.4 206.6L220.9 213.7L226.4 222.4L230.3 224.4L233.0 240.5L235.9 247.0L237.8 254.9L240.7 259.1L253.8 265.3L258.0 273.6L260.7 276.5L264.9 278.8L262.7 280.0L261.9 282.5L264.0 288.1L270.2 296.8L269.7 299.1L269.5 297.1L267.7 296.3L265.1 297.0L260.9 293.0L254.8 294.2L252.9 293.4L251.0 294.5L255.4 295.0L260.3 293.8L262.4 296.8L270.5 302.5 Z M 136.2 129.6L136.1 129.7L136.1 129.7L136.1 129.7L136.0 129.7L136.0 129.7L136.0 129.8L135.9 129.8L135.8 129.8L135.8 129.9L135.8 129.9L135.7 129.9L135.7 129.9L135.7 130.0L135.6 130.0L135.6 130.0L135.6 130.0L135.5 130.1L135.5 130.1L135.5 130.1L135.4 130.2L135.3 130.3L135.3 130.3L135.3 130.3L135.2 130.4L135.2 130.4L135.2 130.4L134.6 131.0L134.6 131.0L134.5 131.1L134.5 131.1L134.4 131.2L134.4 131.2L134.4 131.2L134.3 131.3L134.3 131.3L134.2 131.4L134.2 131.4L134.2 131.5L134.1 131.5L134.1 131.5L134.1 131.6L134.1 131.6L134.0 131.6L134.0 131.7L134.0 131.7L134.0 131.7L134.0 131.8L133.9 131.8L133.9 131.9L133.9 131.9L133.8 132.0L133.8 132.0L133.8 132.0L133.8 132.1L133.8 132.1L133.8 132.1L133.8 132.2L133.7 132.2L133.7 132.2L133.7 132.3L133.7 132.3L133.7 132.4L133.7 132.4L133.6 132.5L133.6 132.5L133.6 132.6L133.6 132.6L133.6 132.6L133.6 132.7L133.6 132.8L133.5 132.9L133.5 132.9L133.5 133.0L133.5 133.0L133.5 133.0L131.6 134.2L129.8 133.6L129.2 130.4L130.2 129.0L131.6 129.0L129.7 128.6L128.1 130.7L129.7 135.2L123.0 140.5L120.4 136.1L121.5 136.9L126.4 134.2L121.1 130.7L122.3 129.4L121.2 125.1L123.4 121.3L125.7 122.5L125.1 123.3L126.4 126.6L126.3 123.8L128.9 123.3L128.1 119.3L133.2 117.3L139.2 112.1L140.9 115.7L137.2 122.4L138.2 122.9L140.4 121.7L140.5 123.3L139.1 124.5L137.1 124.4L135.9 126.3L131.1 127.8L135.6 127.2 Z M 166.6 270.5L166.6 270.4L168.1 270.5L168.5 270.6L170.6 271.4L171.7 272.4L170.1 275.7L164.9 279.9L161.5 280.3L163.1 274.4L165.3 273.0 Z M 244.9 407.2L242.4 410.4L239.7 411.3L234.6 408.1L232.8 408.3L239.0 404.1L243.5 405.3 Z M 246.9 401.8L247.2 403.9L245.7 403.5 Z M 164.6 308.8L164.8 311.0L162.6 309.3L162.6 307.8 Z M 176.8 308.9L169.7 315.4L166.9 313.3L165.1 309.7L165.2 305.3L168.5 304.1L171.6 305.0L172.8 308.1 Z M 157.2 227.7L155.1 228.6L151.7 226.7L150.6 221.9L151.1 219.4L153.0 217.7L155.8 219.2L157.2 223.9 Z M 158.7 213.4L158.8 217.8L155.3 211.9L155.9 210.2 Z M 135.9 208.6L137.6 218.2L132.1 221.9L131.0 221.3L132.9 214.4L131.2 214.1L127.8 218.1L127.8 215.6L129.2 211.2L132.0 211.0 Z M 136.3 201.7L134.7 205.0L133.4 204.6L134.1 203.2 Z M 145.5 202.7L138.9 214.3L136.8 213.3L136.9 209.8L139.5 205.5L145.3 201.0 Z M 145.9 200.4L144.7 200.7L145.9 199.4 Z M 147.5 197.3L146.7 199.8L146.8 197.0 Z M 148.0 194.8L147.2 196.8L146.8 195.5 Z M 131.5 193.1L130.9 194.5L130.4 194.2 Z M 149.8 191.5L148.9 192.7L148.6 191.6 Z M 136.5 188.5L135.7 188.9L134.5 188.2L135.0 187.5 Z M 123.2 186.2L121.3 188.7L119.6 188.2L119.4 186.4L124.4 184.9L124.9 185.9 Z M 140.6 186.0L147.0 189.9L146.7 191.7L142.8 195.0L142.0 193.3L139.1 194.9L132.7 196.1L132.2 193.3L134.7 194.1L139.2 192.5L135.7 192.8L135.4 192.0L139.8 187.9L137.2 188.5L133.0 185.5L133.5 183.4L137.8 181.9 Z M 129.8 182.3L126.0 184.7L125.6 183.7L127.5 181.8L130.9 180.0 Z M 138.6 171.8L137.4 173.7L136.4 172.3L137.8 170.8 Z M 135.6 170.1L134.3 171.0L131.8 168.3L134.4 166.5L135.9 167.8 Z M 131.1 166.2L129.2 166.6L129.9 165.7 Z M 112.9 167.8L110.9 169.1L109.0 168.2L111.7 164.8 Z M 143.1 157.5L142.7 158.6L141.4 157.2 Z M 141.9 155.9L140.6 156.8L140.4 152.8L142.0 150.0 Z M 117.6 151.8L116.0 152.3L113.6 150.5L114.7 148.8L117.7 150.1 Z M 143.0 147.5L142.7 149.7L142.3 148.8 Z M 138.7 145.8L139.1 157.4L143.8 160.2L146.6 158.9L148.7 159.8L148.1 161.9L144.3 165.2L142.5 167.6L140.8 168.1L140.4 166.9L141.8 164.1L140.7 162.3L139.7 164.2L137.8 162.4L134.9 162.7L131.9 157.0L133.4 155.9L135.4 157.2L131.1 153.0L130.1 155.8L127.4 154.3L126.1 151.1L129.5 145.5L133.4 149.6L134.6 148.9L133.9 144.6L135.6 143.0 Z M 118.7 141.7L120.8 143.5L119.0 148.2L117.3 148.5L115.5 148.3L115.5 146.8L111.4 144.8L112.7 142.5L116.9 142.7 Z M 119.7 140.6L118.4 141.1L119.4 140.0 Z M 122.9 134.7L121.5 134.7L123.2 133.3 Z M 128.0 122.4L127.1 123.0L126.2 121.0 Z M 205.1 102.5L204.3 106.5L202.5 103.2 Z M 200.5 104.3L198.7 104.7L197.3 104.6L194.9 101.1L195.5 99.4L196.7 99.0L199.0 101.0 Z M 204.3 96.5L208.0 99.5L206.6 101.0L203.8 98.7L199.6 99.7L196.6 97.6L197.2 91.4L199.5 90.8L201.9 91.8 Z M 204.3 96.5 "/>
<path style=" stroke:none;fill-rule:nonzero;fill:#C2B855;fill-opacity:1;" d="M 142.3 250.7L141.7 251.1L141.8 249.9 Z M 141.5 251.2L140.7 251.6L138.9 251.9L138.7 251.9L138.6 251.9L138.6 251.9L138.6 251.9L138.5 251.9L138.5 251.9L138.4 251.9L138.4 251.9L138.3 251.9L138.3 251.9L138.2 251.9L138.1 251.9L138.1 252L138.1 252.0L138.0 252.0L137.9 252.0L137.9 252.0L137.8 252.0L137.8 252.0L137.7 252.1L137.7 252.1L137.6 252.1L137.6 252.1L137.6 252.1L137.5 252.1L137.5 252.1L137.5 252.2L137.4 252.2L137.4 252.2L137.4 252.2L137.3 252.2L137.3 252.2L137.2 252.3L137.2 252.3L137.2 252.3L137.1 252.3L137.0 252.4L136.9 252.5L136.9 252.5L136.8 252.5L136.8 252.5L136.8 252.6L136.8 252.6L136.7 252.6L136.7 252.6L136.6 252.7L136.6 252.8L136.5 252.8L136.5 252.8L136.4 252.9L136.4 252.9L136.3 253L136.3 253.0L136.3 253.0L136.3 253.0L136.2 253.1L136.2 253.1L136.2 253.1L136.2 253.2L136.1 253.2L136.1 253.2L136.1 253.3L136.1 253.3L136.0 253.3L136.0 253.4L136.0 253.4L135.9 253.5L135.9 253.6L135.9 253.6L135.8 253.6L135.8 253.7L135.8 253.7L135.8 253.7L135.8 253.8L135.8 253.8L135.7 253.9L135.7 253.9L135.7 254.0L135.7 254.0L135.7 254.0L135.6 254.1L135.6 254.1L135.6 254.3L135.6 254.3L135.5 254.4L135.5 254.4L135.5 254.5L135.5 254.5L135.5 254.5L135.5 254.6L135.5 254.6L135.5 254.6L135.5 254.7L135.5 254.7L135.5 254.8L135.5 254.8L135.5 254.8L135.4 254.9L135.4 254.9L135.4 254.9L135.4 255.0L135.4 255.0L135.4 255.1L135.4 255.1L135.4 255.1L135.4 255.2L135.4 255.4L135.4 255.4L135.4 255.5L135.4 255.5L135.4 255.5L135.4 255.6L135.4 255.6L135.4 255.6L135.5 255.7L135.5 255.7L135.5 255.8L135.5 255.8L135.5 255.8L135.5 255.9L135.5 255.9L135.5 255.9L135.5 256.0L135.5 256.0L135.5 256.0L135.5 256.1L135.5 256.1L135.5 256.2L135.6 256.2L135.6 256.5L135.7 256.5L135.7 256.5L135.7 256.6L135.7 256.6L135.7 256.7L135.8 256.7L135.8 256.7L135.8 256.8L135.8 256.8L135.8 256.8L135.8 256.9L135.9 256.9L135.9 257.0L135.9 257.0L135.9 257.0L135.9 257.1L136.0 257.1L136.0 257.2L136.0 257.2L136.1 257.2L136.1 257.3L136.1 257.3L137.3 259.9L137.3 260.0L137.3 260.1L137.3 260.1L137.3 260.1L137.4 260.4L137.5 260.5L137.5 260.5L137.5 260.6L137.5 260.6L137.5 260.6L137.5 260.7L137.6 260.7L137.6 260.7L137.6 260.8L137.6 260.8L137.6 260.8L137.6 260.9L137.7 260.9L137.7 261.0L137.7 261.0L137.8 261.0L137.8 261.1L137.8 261.1L137.8 261.2L137.9 261.2L137.9 261.2L137.9 261.3L137.9 261.3L138.0 261.3L138.0 261.4L138.0 261.4L138.1 261.5L138.1 261.5L138.1 261.5L138.2 261.6L138.2 261.6L138.2 261.6L138.3 261.6L138.3 261.7L138.3 261.7L138.3 261.7L138.4 261.8L138.4 261.8L138.5 261.8L138.5 261.9L138.5 261.9L138.6 261.9L138.6 261.9L138.6 262.0L138.7 262.0L138.7 262.0L138.9 262.1L138.9 262.2L139.0 262.2L139.0 262.2L139.0 262.2L139.1 262.2L139.1 262.2L139.1 262.3L139.2 262.3L139.2 262.3L139.3 262.3L139.3 262.3L139.4 262.4L140.3 262.8L142.0 264.3L142.9 265.9L142.5 267.5L143.4 267.7L143.6 268.6L143.6 268.6L143.4 270.2L143.3 270.3L143.3 270.3L143.3 270.4L143.3 270.4L143.3 270.5L143.3 270.5L143.3 270.6L143.3 270.6L143.3 270.6L143.3 270.7L143.3 270.8L143.3 270.8L143.3 270.9L143.3 270.9L143.3 271.0L143.3 271.2L143.3 271.3L143.3 271.3L143.3 271.4L143.3 271.4L143.3 271.8L142.6 272.2L138.4 271.7L136.8 276.8L134.4 279.1L132.8 279.4L127.7 275.2L131.5 280.3L131.3 280.9L130.4 281.3L126.6 280.2L126.1 282.8L126.5 284.1L128.3 286.7L128.3 286.8L128.2 286.8L128.2 286.8L128.2 286.9L128.2 286.9L128.1 287.0L127.1 288.6L125.6 289.9L123.7 290.7L123.7 290.7L123.6 290.7L123.6 290.7L123.6 290.7L123.4 290.8L123.4 290.8L123.3 290.8L123.3 290.8L123.3 290.9L123.2 290.9L123.2 290.9L123.2 290.9L123.1 290.9L123.1 291L123.0 291.0L123.0 291.0L123.0 291.0L122.9 291.0L122.9 291.0L122.9 291.1L122.7 291.1L122.7 291.2L122.7 291.2L122.6 291.2L122.6 291.2L122.5 291.3L122.5 291.3L122.5 291.3L122.5 291.3L122.4 291.4L122.4 291.4L122.3 291.4L122.3 291.5L122.3 291.5L122.2 291.5L122.2 291.5L122.2 291.6L122.2 291.6L122.1 291.6L122.1 291.7L122.1 291.7L122.1 291.7L122.0 291.7L122.0 291.8L122.0 291.8L121.9 291.8L121.9 291.9L121.9 291.9L121.9 291.9L121.8 292.0L121.8 292.0L121.8 292.0L121.8 292.1L121.8 292.1L121.7 292.2L121.7 292.2L121.6 292.3L121.6 292.3L121.6 292.4L121.6 292.4L121.6 292.4L121.5 292.5L121.5 292.5L121.5 292.5L121.5 292.6L121.5 292.6L121.5 292.6L121.4 292.7L121.4 292.7L121.4 292.7L121.4 292.8L121.3 293.0L121.3 293.1L121.3 293.1L121.3 293.2L121.3 293.2L121.3 293.3L121.3 293.3L121.2 293.3L121.2 293.4L121.2 293.4L121.2 293.5L121.2 293.5L121.2 293.5L121.2 293.6L121.2 293.6L121.2 293.6L121.2 293.7L121.2 293.7L121.2 293.8L121.2 293.8L121.2 293.8L121.2 293.9L120.9 295.7L120.8 295.8L120.8 295.9L120.8 296.0L120.8 296.0L120.8 296.1L120.8 296.2L120.7 296.2L120.7 296.2L120.7 296.3L120.7 296.3L120.7 296.4L120.7 296.4L120.7 296.4L120.7 296.5L120.7 296.5L120.7 296.6L120.7 296.6L120.7 296.7L120.7 296.7L120.7 296.8L120.7 296.8L120.7 296.9L120.7 296.9L120.7 297.0L120.7 297.0L120.7 297.1L120.7 297.1L120.7 297.2L120.7 297.2L120.7 297.3L120.7 297.3L120.7 297.3L120.7 297.4L120.7 297.4L120.8 297.5L120.8 297.5L120.8 297.6L120.8 297.6L120.8 297.6L120.8 297.7L120.8 297.8L120.8 297.8L120.9 298.0L120.9 298.0L120.9 298.1L120.9 298.1L121 298.1L121.0 298.2L121.0 298.2L121.0 298.3L121.1 298.4L121.1 298.4L121.1 298.4L121.1 298.5L121.1 298.5L121.3 298.7L121.3 298.7L121.3 298.8L121.3 298.8L121.4 298.8L121.4 298.9L121.4 298.9L121.4 298.9L121.4 299L121.5 299.0L121.5 299.0L121.6 299.1L121.6 299.2L121.7 299.2L121.7 299.3L122.8 300.7L123.5 302.3L123.5 302.4L123.5 302.4L123.5 302.5L123.6 302.6L123.6 302.6L123.6 302.7L123.6 302.7L123.6 302.8L123.6 302.8L123.7 302.8L123.7 302.9L123.7 303L123.7 303.0L123.7 303.0L123.8 303.1L123.8 303.1L123.8 303.1L123.8 303.1L124 303.4L124.0 303.4L124.0 303.5L124.0 303.5L124.1 303.5L124.1 303.6L124.1 303.6L124.2 303.7L124.2 303.7L124.2 303.7L124.3 303.7L124.3 303.8L124.3 303.8L124.3 303.8L124.4 303.9L124.5 304.0L124.5 304.0L124.5 304.0L124.5 304.0L124.6 304.1L124.7 304.1L124.7 304.1L124.7 304.2L124.7 304.2L124.8 304.2L124.8 304.2L124.8 304.3L124.9 304.3L124.9 304.3L124.9 304.3L125.0 304.3L125.1 304.4L125.1 304.4L125.1 304.4L125.2 304.4L125.2 304.5L125.2 304.5L125.3 304.5L125.3 304.5L125.3 304.5L125.4 304.5L125.4 304.6L125.5 304.6L125.5 304.6L125.5 304.6L125.6 304.6L125.6 304.6L125.6 304.7L125.7 304.7L125.8 304.7L125.8 304.7L125.8 304.7L125.9 304.7L125.9 304.8L126.0 304.8L126.0 304.8L126.1 304.8L126.1 304.8L126.2 304.8L126.2 304.8L126.2 304.8L126.3 304.8L126.3 304.8L126.3 304.8L126.4 304.8L126.4 304.8L126.5 304.8L126.5 304.8L126.5 304.8L126.6 304.8L126.6 304.8L126.7 304.8L127.2 304.9L128.6 305.2L128.6 305.2L130.4 308.3L131.5 314.1L131.7 320.1L129.4 325.3L129.2 325.3L129.1 325.3L129.1 325.3L129.0 325.3L129.0 325.3L128.9 325.3L128.9 325.3L128.9 325.3L128.8 325.3L128.8 325.3L128.7 325.3L128.7 325.3L128.6 325.3L128.6 325.3L128.5 325.3L128.4 325.4L128.4 325.4L128.4 325.4L128.3 325.4L128.3 325.4L128.2 325.4L128.2 325.4L128.2 325.4L128.1 325.5L128.1 325.5L128.0 325.5L128.0 325.5L128 325.5L127.9 325.5L127.9 325.5L127.8 325.6L127.8 325.6L127.8 325.6L127.7 325.6L127.7 325.6L127.7 325.6L127.6 325.7L127.6 325.7L127.6 325.7L127.6 325.7L127.5 325.7L127.5 325.7L127.4 325.8L127.4 325.8L127.4 325.8L127.3 325.8L127.3 325.9L127.3 325.9L127.2 325.9L127.2 325.9L127.2 326.0L127.2 326.0L127.1 326.0L127.1 326.0L127.0 326.1L127.0 326.1L126.9 326.2L125.1 327.4L123.1 328.0L122.4 328.0L120.6 327.9L118.7 327.0L117.1 325.6L117.1 325.6L117.0 325.6L117.0 325.5L117.0 325.5L116.9 325.5L116.9 325.4L116.9 325.4L116.9 325.4L116.8 325.3L116.8 325.3L116.8 325.3L116.7 325.2L116.7 325.2L116.6 325.2L116.6 325.2L116.6 325.1L116.6 325.1L116.5 325.1L116.5 325.0L116.4 325.0L116.4 325.0L116.3 325.0L116.3 324.9L116.3 324.9L116.2 324.8L116.1 324.8L116.1 324.8L116.1 324.8L116.0 324.8L116.0 324.8L116.0 324.7L115.9 324.7L115.9 324.7L115.8 324.7L115.8 324.7L115.8 324.6L115.7 324.6L115.6 324.6L115.6 324.6L115.5 324.6L115.5 324.6L115.5 324.5L115.4 324.5L115.4 324.5L115.4 324.5L115.3 324.5L115.3 324.5L115.3 324.5L115.2 324.5L115.2 324.5L115.1 324.5L115.1 324.5L115.1 324.5L115.0 324.4L115.0 324.4L115.0 324.4L114.9 324.4L114.9 324.4L114.9 324.4L114.8 324.4L114.8 324.4L114.7 324.4L114.7 324.4L114.7 324.4L114.6 324.4L114.4 324.4L114.3 324.4L114.3 324.4L114.3 324.4L114.2 324.4L114.1 324.4L114.1 324.4L114.0 324.4L114.0 324.4L114.0 324.5L113.9 324.5L113.9 324.5L113.9 324.5L113.8 324.5L113.7 324.5L113.7 324.5L113.7 324.5L113.6 324.5L113.6 324.5L113.6 324.5L113.5 324.6L113.3 324.6L113.3 324.6L113.3 324.6L113.2 324.7L113.2 324.7L113.1 324.7L113.1 324.7L113.0 324.7L113.0 324.8L113.0 324.8L112.9 324.8L112.9 324.8L112.9 324.8L112.8 324.8L112.8 324.9L112.7 325.0L112.6 325.0L112.6 325.0L112.6 325.0L112.5 325.0L112.5 325.1L112.4 325.1L112.4 325.1L112.4 325.2L112.3 325.2L112.3 325.2L112.2 325.3L112.2 325.3L112.2 325.3L112.1 325.5L112.0 325.5L112.0 325.5L112.0 325.5L112.0 325.6L111.9 325.6L111.9 325.7L111.8 325.7L111.8 325.8L111.8 325.8L111.8 325.8L111.7 325.9L111.7 325.9L111.6 326.0L111.6 326.1L111.6 326.1L111.6 326.2L111.5 326.2L111.5 326.2L111.5 326.3L111.5 326.3L111.5 326.3L111.5 326.4L111.4 326.5L111.4 326.5L111.4 326.5L111.4 326.6L111.3 326.7L111.3 326.7L111.3 326.7L111.3 326.8L111.3 326.8L111.3 326.9L111.3 326.9L111.2 327.0L111.2 327.0L111.2 327.1L111.2 327.1L111.2 327.1L111.2 327.2L111.2 327.2L111.2 327.2L111.2 327.3L111.2 327.3L111.2 327.4L111.2 327.5L111.2 327.5L111.2 327.5L111.2 327.6L111.1 327.6L111.1 327.7L111.1 327.8L111.1 327.8L111.1 327.9L111.2 328L111.2 328.0L111.2 328.0L111.2 328.1L111.2 328.2L111.2 328.2L111.2 328.2L111.2 328.3L111.2 328.3L111.2 328.4L111.2 328.4L111.2 328.5L111.2 328.5L111.4 330.6L110.9 332.6L109.8 334.3L108.3 335.6L106.4 336.5L104.7 336.7L104.1 336.7L104.1 336.7L102.6 336.4L102.5 336.3L102.5 336.3L102.4 336.3L102.4 336.3L102.3 336.3L102.3 336.3L102.3 336.3L102.2 336.3L102.2 336.3L102.1 336.3L102.1 336.3L102.1 336.2L102.0 336.2L102.0 336.2L102.0 336.2L101.9 336.2L101.9 336.2L101.9 336.2L101.8 336.2L101.8 336.2L101.7 336.2L101.7 336.2L101.7 336.2L101.6 336.2L101.4 336.2L101.4 336.2L101.3 336.2L101.3 336.2L101.3 336.2L101.2 336.2L101.2 336.2L101.1 336.2L101.1 336.2L101.1 336.2L101.0 336.2L101.0 336.2L101.0 336.2L100.9 336.3L100.9 336.3L100.9 336.3L100.7 336.3L100.7 336.3L100.6 336.3L100.6 336.3L100.6 336.3L100.4 336.4L100.3 336.4L100.3 336.4L100.3 336.5L100.2 336.5L100.2 336.5L100.2 336.5L100.1 336.5L100.1 336.5L100.0 336.6L100.0 336.6L100.0 336.6L99.9 336.6L99.9 336.6L99.9 336.6L99.8 336.7L99.8 336.7L99.7 336.8L99.6 336.8L99.6 336.8L99.6 336.8L99.5 336.8L99.5 336.9L99.5 336.9L99.5 336.9L99.4 336.9L99.4 337.0L99.4 337.0L99.3 337.1L99.3 337.1L99.2 337.1L99.2 337.2L99.2 337.2L99.1 337.2L98.7 337.6L96.1 339.0L96.0 339.0L96.0 339.0L95.9 339.0L95.7 339.1L95.7 339.1L95.7 339.1L95.6 339.1L95.6 339.1L95.6 339.2L95.5 339.2L95.4 339.2L95.4 339.2L95.4 339.2L95.3 339.3L95.3 339.3L95.3 339.3L95.2 339.3L95.2 339.3L95.0 339.5L95 339.5L94.9 339.5L94.9 339.5L94.9 339.6L94.8 339.6L94.8 339.6L94.8 339.6L94.7 339.6L94.7 339.7L94.7 339.7L94.6 339.7L94.6 339.8L94.6 339.8L94.5 339.8L94.5 339.9L94.5 339.9L94.4 339.9L94.4 340.0L94.3 340.1L94.3 340.1L94.3 340.1L94.2 340.1L94.2 340.2L94.2 340.2L94.2 340.2L94.2 340.3L94.1 340.3L94.1 340.3L94.1 340.4L94.1 340.4L94.0 340.5L94.0 340.6L93.9 340.6L93.9 340.6L93.9 340.7L93.9 340.7L93.9 340.7L93.9 340.8L93.8 340.8L93.8 340.8L93.8 340.9L93.8 341.0L93.7 341.0L93.7 341.0L93.7 341.1L93.7 341.2L93.7 341.2L93.6 341.3L93.6 341.4L93.6 341.4L93.6 341.5L93.6 341.5L93.6 341.5L93.6 341.6L93.6 341.6L93.6 341.6L93.6 341.7L93.6 341.7L93.5 341.8L93.5 341.8L93.5 341.9L93.5 341.9L93.5 341.9L93.5 342.0L93.5 342.1L93.5 342.1L93.5 342.2L93.3 343.6L93.2 344.1L93.2 344.2L93.1 344.2L93.1 344.2L93.1 344.3L93.1 344.3L93.1 344.4L93.1 344.5L93.1 344.6L93.1 344.6L93.0 344.6L93.0 344.7L93.0 344.7L93.0 344.7L93.0 344.8L93.0 344.8L93.0 344.9L93.0 344.9L93.0 344.9L93.0 345.0L93.0 345.0L93.0 345.1L93.0 345.2L93.0 345.3L93.0 345.3L93.0 345.3L93.0 345.4L93.0 345.4L93.0 345.5L93.0 345.5L93.0 345.6L93.0 345.6L93.1 345.7L93.1 345.7L93.1 345.8L93.1 345.8L93.1 345.9L93.1 345.9L93.1 346.0L93.1 346.0L93.1 346.0L93.1 346.1L93.2 346.1L93.2 346.2L93.2 346.3L93.2 346.3L93.2 346.3L93.2 346.4L93.3 346.4L93.3 346.4L93.3 346.5L93.3 346.5L93.3 346.6L93.3 346.6L93.4 346.6L93.4 346.7L93.4 346.7L93.4 346.7L93.4 346.8L93.5 346.8L93.5 346.8L93.5 346.9L93.5 346.9L93.6 347.0L93.6 347.0L93.6 347.1L93.6 347.1L93.7 347.1L93.7 347.1L93.7 347.2L93.7 347.2L93.8 347.3L93.8 347.3L93.8 347.3L93.9 347.4L93.9 347.4L93.9 347.4L93.9 347.5L94.0 347.5L94.0 347.5L94.0 347.6L95.3 349.2L95.4 349.5L93.4 349.9L94.2 351.9L93.2 353.5L89.6 354.9L87.4 354.0L85.8 357.1L81.7 359.5L78.5 359.5L78.1 358.9L78.6 357.6L76.9 357.1L76.6 355.6L74.7 355.6L76.6 359.0L75.9 361.5L72.8 363.0L70.5 362.5L70.1 362.1L70.1 362.1L70.0 362.1L70.0 362.0L70.0 362.0L70.0 362.0L69.9 361.9L69.9 361.9L69.9 361.9L69.9 361.9L69.8 361.8L69.7 361.7L69.7 361.7L69.7 361.7L69.6 361.7L69.6 361.6L69.5 361.6L69.5 361.5L69.5 361.5L69.4 361.5L69.4 361.5L69.4 361.5L69.4 361.4L69.3 361.4L69.3 361.4L69.1 361.3L69.1 361.2L69.0 361.2L69.0 361.2L69.0 361.2L68.9 361.2L68.9 361.2L68.9 361.1L68.8 361.1L68.8 361.1L68.7 361.1L68.6 361.0L68.6 361.0L68.4 360.9L68.3 360.9L68.3 360.9L68.2 360.9L68.2 360.9L68.2 360.9L68.1 360.9L68.1 360.9L68.0 360.9L68.0 360.9L68.0 360.9L67.9 360.8L67.9 360.8L67.8 360.8L67.8 360.8L67.7 360.8L67.7 360.8L67.6 360.8L67.6 360.8L67.5 360.8L67.5 360.8L67.3 360.8L67.3 360.8L67.2 360.8L67.1 360.8L67.1 360.8L67.0 360.8L67.0 360.8L66.9 360.8L66.9 360.9L66.8 360.9L66.8 360.9L66.7 360.9L66.7 360.9L66.6 360.9L66.6 360.9L66.5 360.9L66.5 360.9L66.4 361L66.3 361.0L66.2 361.0L66.2 361.0L66.1 361.1L66.1 361.1L66.0 361.1L66.0 361.1L66.0 361.1L65.9 361.2L65.9 361.2L65.9 361.2L65.8 361.2L65.8 361.2L65.7 361.3L65.7 361.3L65.7 361.3L65.6 361.3L65.6 361.4L65.5 361.4L65.5 361.4L65.5 361.4L65.4 361.5L65.4 361.5L65.3 361.5L65.3 361.6L65.3 361.6L65.2 361.6L65.2 361.7L65.1 361.7L65.1 361.8L65.1 361.8L65.0 361.8L65.0 361.8L65.0 361.9L65 361.9L64.9 361.9L64.9 362.0L64.8 362.0L64.8 362.0L64.8 362.1L64.8 362.1L64.8 362.1L64.7 362.1L64.7 362.2L64.7 362.2L64.6 362.3L64.6 362.3L64.6 362.4L64.5 362.5L64.5 362.5L64.5 362.5L64.5 362.6L64.4 362.6L64.4 362.6L64.4 362.7L64.4 362.7L64.4 362.8L63.7 363.8L63.0 364.7L61.0 366.1L58.6 366.6L57.4 366.6L57.3 366.6L57.3 366.5L57.2 366.5L57.2 366.5L57.1 366.5L57.1 366.5L57.1 366.5L57.0 366.5L57.0 366.5L56.9 366.5L56.9 366.5L56.8 366.5L56.7 366.5L56.7 366.5L56.7 366.5L56.6 366.5L56.6 366.5L56.6 366.5L56.5 366.5L56.4 366.6L56.4 366.6L56.4 366.6L56.3 366.6L56.3 366.6L56.2 366.6L56.2 366.6L56.1 366.6L56.0 366.6L56.0 366.6L56.0 366.6L55.9 366.7L55.9 366.7L55.9 366.7L55.8 366.7L55.8 366.7L55.8 366.7L55.7 366.7L55.7 366.7L55.7 366.8L55.6 366.8L55.6 366.8L55.6 366.8L55.5 366.8L55.5 366.8L55.4 366.9L55.3 366.9L55.3 366.9L55.3 366.9L55.3 366.9L55.2 367.0L55.2 367.0L55.1 367.0L55.1 367.0L55.1 367.1L55.0 367.1L54.9 367.1L54.9 367.2L54.9 367.2L54.8 367.2L54.8 367.2L54.8 367.2L54.8 367.3L54.7 367.3L54.6 367.4L54.6 367.4L54.6 367.4L54.5 367.5L54.5 367.5L54.5 367.5L54.4 367.6L54.4 367.6L54.4 367.6L54.4 367.6L54.3 367.7L54.3 367.7L54.3 367.7L54.2 367.8L54.2 367.8L54.2 367.8L54.2 367.9L54.1 367.9L54.1 367.9L54.1 368.0L54.1 368.0L53.9 368.2L53.9 368.3L53.9 368.3L53.9 368.3L53.9 368.4L53.9 368.4L53.8 368.4L53.8 368.5L53.8 368.5L53.8 368.6L53.7 368.6L51.3 369.0L50.2 368.4L49.3 366.4L43.8 367.4L41.9 368.6L40.7 368.6L40.5 367.9L41.0 367.1L46.4 363.8L41.1 365.2L40.7 364.9L48.7 361.1L49.2 360.4L49.1 359.7L47.8 359.2L45.4 360.5L39.9 361.3L36.1 362.8L33.4 362.3L35.1 360.3L37.1 359.3L38.0 358.1L41.2 356.9L43.3 355.3L46.9 353.8L34.6 356.8L32.9 355.7L32.5 353.7L29.7 354.3L28.5 351.0L29.6 350.0L30.3 350.2L30.6 350.9L31.6 350.5L32.7 349.2L31.6 348.6L32.7 347.7L38.1 346.1L41.1 344.0L43.5 343.7L43.7 343.0L42.3 342.6L39.5 343.3L32.3 342.7L28.9 343.0L28.1 342.0L28.7 340.2L30.1 339.8L32.0 338.1L34.5 337.2L36.3 338.5L38.7 337.0L39.8 338.8L41.0 339.4L44.6 339.1L42.7 337.6L43.1 334.8L41.8 332.8L47.6 331.0L47.9 328.8L49.1 327.8L56.6 328.1L65.6 326.0L71.8 326.2L65.2 324.6L64.9 321.5L63.5 322.4L61.2 325.6L59.4 326.7L56.8 327.3L56.4 326.3L53.5 326.4L50.9 324.7L46.4 327.0L42.8 327.1L50.1 321.8L52.5 320.6L56.0 315.3L54.7 314.1L54.9 313.0L59.0 307.8L59.8 307.4L61.9 307.7L66.6 307.1L67.4 305.5L66.3 304.9L66.5 303.5L65.9 303.2L54.2 303.3L53.1 301.9L52.1 302.1L53.2 298.0L52.2 298.6L51.4 297.9L48.7 299.8L46.9 299.6L46.4 298.1L48.0 296.4L47.1 295.4L44.4 296.4L40.7 294.6L42.5 293.5L43.0 292.6L41.3 291.1L41.1 289.7L42.7 289.3L44.4 289.6L44.5 288.4L45.0 288.2L48.0 288.2L50.7 289.0L48.4 287.9L47.3 286.5L47.1 284.8L48.0 283.0L49.7 282.4L54.8 282.0L54.2 280.9L55.2 279.3L54.8 278.7L51.8 278.0L48.4 278.4L47.6 277.0L46.7 277.9L44.6 274.8L41.7 273.7L42.9 272.8L46.5 272.7L47.3 273.4L48.0 275.1L50.6 276.2L49.2 272.5L50.1 269.9L48.5 270.7L47.8 270.3L48.5 268.7L48.1 265.9L47.0 265.9L45.0 269.2L44.6 269.1L46.1 263.4L47.0 262.7L47.9 262.7L49.3 264.0L48.5 265.1L49.5 265.2L51.1 263.9L52.5 263.9L51.5 262.0L52.8 261.5L63.3 263.6L64.5 264.9L64.5 266.3L66.1 269.2L68.3 265.6L69.5 264.9L76.0 266.5L79.1 268.4L78.4 266.8L80.0 265.9L79.6 264.5L77.7 263.8L77.6 262.9L82.0 260.0L86.6 258.6L89.3 253.9L86.8 254.1L85.6 253.7L83.1 255.0L83.5 254.2L83.3 253.7L80.1 253.6L78.0 252.9L76.3 251.7L75.8 250.5L77.1 248.9L78.7 248.0L82.5 248.3L82.2 247.8L83.0 247.8L81.9 246.1L82.3 245.6L86.6 245.4L85.7 245.0L85.7 243.9L84.1 242.5L84.7 241.6L84.6 239.7L86.8 238.0L87.9 234.9L88.8 234.5L91.1 234.9L94.6 232.8L97.0 235.3L97.6 232.8L98.3 232.1L100.7 236.4L100.6 233.8L99.5 233.5L99.3 232.6L100.4 231.6L101.9 231.3L104 236.6L101.3 242.3L104.4 239.7L105.3 236.8L104.3 233.5L105.0 231.3L108.1 230.3L109.8 230.8L108.5 227.8L111.1 228.5L112.8 230.9L116.2 232.7L116.8 233.9L111.6 237.3L107.1 243.1L110.4 240.2L114.2 239.8L117.1 235.8L120.6 236.1L127.1 234.0L134.5 235.6L135.8 237.2L135.9 240.6L137.4 244.4L140.9 250.5 Z M 52.8 263.3L52.4 262.9L52.3 262.9 Z M 52.8 263.3 "/>
<path style=" stroke:none;fill-rule:nonzero;fill:#C2B855;fill-opacity:1;" d="M 51.2 301.9L50.9 303.0L50.0 302.6L50.6 300.3L51.2 300.5 Z M 51.2 301.9 "/>
<path style=" stroke:none;fill-rule:nonzero;fill:#C2B855;fill-opacity:1;" d="M 49.8 306.5L51.0 307.5L49.5 307.5L47.4 305.9 Z M 49.8 306.5 "/>
<path style=" stroke:none;fill-rule:nonzero;fill:#C2B855;fill-opacity:1;" d="M 40.8 362.3L39.3 362.6L38.8 362.1L39.3 361.7L41.0 361.9 Z M 40.8 362.3 "/>
<path style=" stroke:none;fill-rule:nonzero;fill:#C2B855;fill-opacity:1;" d="M 82.7 239.2L82.9 240.4L81.8 240.4L81.9 239.1 Z M 82.7 239.2 "/>
<path style=" stroke:none;fill-rule:nonzero;fill:#C2B855;fill-opacity:1;" d="M 133.4 232.6L133.0 233.1L131.5 232.0L132.5 231.9 Z M 133.4 232.6 "/>
<path style=" stroke:none;fill-rule:nonzero;fill:#C2B855;fill-opacity:1;" d="M 40.8 287.2L40.3 287.5L39.5 286.8L40.6 286.7 Z M 40.8 287.2 "/>
<path style=" stroke:none;fill-rule:nonzero;fill:#C2B855;fill-opacity:1;" d="M 46.7 280.8L44.7 281.0L46.1 280.3 Z M 46.7 280.8 "/>
<path style=" stroke:none;fill-rule:nonzero;fill:#C2B855;fill-opacity:1;" d="M 52.3 308.8L51.4 309.1L52.0 308.2 Z M 52.3 308.8 "/>
<path style=" stroke:none;fill-rule:nonzero;fill:#C2B855;fill-opacity:1;" d="M 32.8 362.1L31.2 362.8L31.8 362.2 Z M 32.8 362.1 "/>
<path style=" stroke:none;fill-rule:nonzero;fill:#C2B855;fill-opacity:1;" d="M 48.3 369.8L47.7 370.4L47.0 370.3 Z M 48.3 369.8 "/>
<path style=" stroke:none;fill-rule:nonzero;fill:#C2B855;fill-opacity:1;" d="M 43.0 283.9L43.0 284.5L42.3 284.5 Z M 43.0 283.9 "/>
<path style=" stroke:none;fill-rule:nonzero;fill:#C2B855;fill-opacity:1;" d="M 53.7 309.8L52.6 309.9L53.0 309.5 Z M 53.7 309.8 "/>
<path style=" stroke:none;fill-rule:nonzero;fill:#C2B855;fill-opacity:1;" d="M 26.5 343.1L26.5 342.9L27.0 342.9 Z M 26.5 343.1 "/>
















</g>
</svg>
